<?xml version="1.0" encoding="UTF-8"?>
<!DOCTYPE svg PUBLIC "-//W3C//DTD SVG 1.1//EN" "http://www.w3.org/Graphics/SVG/1.1/DTD/svg11.dtd">
<!-- Creator: CorelDRAW 2021 (64-Bit) -->
<svg xmlns="http://www.w3.org/2000/svg" xml:space="preserve" width="1.11769in" height="0.984252in" version="1.1" style="shape-rendering:geometricPrecision; text-rendering:geometricPrecision; image-rendering:optimizeQuality; fill-rule:evenodd; clip-rule:evenodd"
viewBox="0 0 237.46 209.11"
 xmlns:xlink="http://www.w3.org/1999/xlink"
 xmlns:xodm="http://www.corel.com/coreldraw/odm/2003">
 <defs>
  <style type="text/css">
   <![CDATA[
    .fil1 {fill:none}
    .fil5 {fill:#00C4B5}
    .fil4 {fill:#3A3768}
    .fil10 {fill:#4C4981}
    .fil16 {fill:#9A5E7F}
    .fil17 {fill:#A8A8A8}
    .fil12 {fill:#CA8496}
    .fil13 {fill:#CEDDF9}
    .fil6 {fill:#E6E8EC}
    .fil9 {fill:#FEC2BE}
    .fil15 {fill:#FF718D}
    .fil14 {fill:white}
    .fil3 {fill:black;fill-opacity:0.011765}
    .fil11 {fill:black;fill-opacity:0.050980}
    .fil2 {fill:black;fill-opacity:0.101961}
    .fil0 {fill:#00C4B5;fill-opacity:0.101961}
    .fil18 {fill:black;fill-opacity:0.200000}
    .fil7 {fill:url(#id0)}
    .fil8 {fill:url(#id1)}
   ]]>
  </style>
  <linearGradient id="id0" gradientUnits="userSpaceOnUse" x1="181.98" y1="68.54" x2="181.98" y2="60.37">
   <stop offset="0" style="stop-opacity:0.25098; stop-color:gray"/>
   <stop offset="0.541176" style="stop-opacity:0.121569; stop-color:gray"/>
   <stop offset="1" style="stop-opacity:0.101961; stop-color:gray"/>
  </linearGradient>
  <linearGradient id="id1" gradientUnits="userSpaceOnUse" xlink:href="#id0" x1="76110.66" y1="-27712.58" x2="76110.66" y2="-130863.73">
  </linearGradient>
 </defs>
 <g id="Layer_x0020_1">
  <metadata id="CorelCorpID_0Corel-Layer"/>
  <g id="_2105461474256">
   <path class="fil0" d="M222.86 192.67c0,-2.88 -13.59,-5.22 -30.36,-5.22 -16.77,0 -30.36,2.34 -30.36,5.22 0,2.88 13.59,5.22 30.36,5.22 16.77,0 30.36,-2.34 30.36,-5.22z"/>
   <path class="fil0" d="M145.51 187.56c0,-1.76 -20.13,-3.18 -44.96,-3.18 -24.83,0 -44.96,1.42 -44.96,3.18 0,1.76 20.13,3.18 44.96,3.18 24.83,0 44.96,-1.42 44.96,-3.18z"/>
   <path class="fil0" d="M73.47 8.18c8.05,-7.18 20.69,-8.64 32.18,-8.06 36.13,1.79 68.74,19.24 96.95,38.96 10.22,7.15 20.27,14.84 26.89,24.67 13.49,20.02 9.49,47.76 -9.27,64.25 -6.39,5.62 -14.12,9.91 -22.07,13.73 -14.13,6.78 -29.37,12.22 -45.4,13.77 -11.43,1.11 -23.01,0.21 -34.37,-1.33 -31.75,-4.31 -62.92,-13.83 -89.04,-30.13 -11.46,-7.15 -22.26,-16.03 -26.98,-27.59 -4.72,-11.56 -1.7,-26.21 10,-33.05 4.85,-2.83 10.63,-4.11 16.29,-5.31 8.34,-1.77 16.81,-3.51 24.33,-7.1 7.77,-3.71 16.97,-10.89 15.44,-19.1 -1.66,-8.81 -2.99,-16.55 5.06,-23.71z"/>
   <line class="fil1" x1="41.89" y1="45.19" x2="39.97" y2= "45.19" />
   <g>
    <path class="fil2" d="M103.87 165.09c0.98,1.67 2.52,2.74 4.25,2.74 2.96,0 5.36,-3.13 5.36,-7 0,-3.87 -2.41,-6.98 -5.36,-6.98 -1.39,0 -2.66,0.7 -3.61,1.84 -0.36,0.44 -0.67,0.92 -0.91,1.43l-0.05 0.3c0,0 -1.14,0.98 -2.7,0.08l0 -22.69 -22.15 0c-0.24,-0.31 -0.37,-0.69 -0.37,-1.08 0,-0.2 0.03,-0.4 0.1,-0.59 0.17,-0.52 0.52,-0.95 1,-1.22 1.67,-0.98 2.75,-2.52 2.75,-4.25 0,-2.96 -3.14,-5.36 -7,-5.36 -3.87,0 -7,2.4 -7,5.36 0,1.39 0.7,2.66 1.84,3.62 0.44,0.36 0.92,0.67 1.43,0.91l0.03 0.05c0.42,0.41 0.66,0.98 0.66,1.57 0,0.34 -0.08,0.68 -0.24,0.99l-9.99 0 0 42.01c0,5.5 4.46,9.96 9.96,9.96l29 0 0 -22.29c0.33,-0.31 0.76,-0.49 1.22,-0.49 0.2,0 0.4,0.03 0.59,0.1 0.52,0.16 0.95,0.52 1.21,0.99l0 0z"/>
    <path class="fil3" d="M66.59 133.93l3.47 0c-1.71,-1.31 -2.72,-3.34 -2.74,-5.49 0,-3.98 3.47,-7.21 7.76,-7.21 4.28,0 7.76,3.23 7.76,7.21 -0.02,2.15 -1.03,4.18 -2.74,5.49l20.79 0 0 -22.38c0.33,-0.31 0.77,-0.48 1.22,-0.48 0.2,0 0.4,0.03 0.58,0.1 0.52,0.16 0.96,0.52 1.22,1 0.98,1.67 2.52,2.74 4.25,2.74 2.96,0 5.36,-3.13 5.36,-7 0,-3.87 -2.4,-7 -5.36,-7 -1.39,0 -2.66,0.7 -3.62,1.84 -0.36,0.44 -0.67,0.92 -0.91,1.43l-0.05 0.03c-0.41,0.43 -0.98,0.67 -1.58,0.67 -0.4,0 -0.79,-0.11 -1.13,-0.31l0 -22.68 -21.33 0c-0.24,-0.31 -0.37,-0.69 -0.37,-1.08 0,-0.2 0.03,-0.4 0.1,-0.59 0.16,-0.52 0.52,-0.96 1,-1.22 1.67,-0.98 2.74,-2.52 2.74,-4.25 0,-2.96 -3.13,-5.36 -7,-5.36 -3.87,0 -7,2.4 -7,5.36 0,1.39 0.7,2.66 1.84,3.62 0.44,0.36 0.92,0.67 1.43,0.91l0.03 0.05c0.42,0.41 0.66,0.98 0.66,1.56 0,0.34 -0.08,0.68 -0.24,0.99l-6.17 0 0 -1.15 4.56 0c-1.7,-1.31 -2.71,-3.33 -2.73,-5.48 0,-3.98 3.47,-7.21 7.76,-7.21 4.29,0 7.76,3.23 7.76,7.21 -0.02,2.15 -1.03,4.18 -2.75,5.49l19.69 0 0 -22.66c0.33,-0.31 0.76,-0.49 1.22,-0.49 0.2,0 0.4,0.04 0.59,0.1 0.52,0.16 0.96,0.52 1.22,1 0.98,1.67 2.52,2.74 4.25,2.74 2.96,0 5.36,-3.13 5.36,-7 0,-3.87 -2.4,-7 -5.36,-7 -1.39,0 -2.66,0.69 -3.62,1.84 -0.36,0.44 -0.67,0.92 -0.91,1.43l-0.05 0.3c0,0 -1.14,0.98 -2.7,0.08l0 -21.13 -28.98 0c-5.5,0 -9.96,4.46 -9.96,9.96l0 10.78 -0.15 0c-0.32,0 -0.58,0.26 -0.58,0.59l0 5.11c0,0.32 0.26,0.58 0.58,0.58l0.15 0 0 5.22 -0.2 0c0,0 0,0 0,0 -0.32,0 -0.59,0.26 -0.59,0.58l0 9.75c0,0.32 0.26,0.59 0.59,0.59 0,0 0,0 0,0l0.2 0 0 3.83 -0.16 0c-0.32,0 -0.58,0.26 -0.58,0.59l0 3.14 -0.13 -0 0 6.62c0,0 0,0 0,0 0,0.32 0.26,0.58 0.58,0.58 0,0 0,0 0,0l0.17 0 0 46.06 4.77 0z"/>
    <path class="fil3" d="M142.38 66.11c0,0 0,0 0,0 0,-0.32 -0.26,-0.59 -0.58,-0.59l-0.35 -0 0 -0.64 -0.19 0 0 -25.48c0,0 0,-0 0,-0 0,-5.29 -4.29,-9.58 -9.58,-9.58 0,0 -0,0 -0,0l-28.74 0 0 19.41c1.33,-1.76 3.41,-2.81 5.62,-2.82 4.01,0 7.27,3.48 7.27,7.76 0,4.29 -3.25,7.76 -7.27,7.76 -2.21,-0.01 -4.29,-1.06 -5.62,-2.82l0 21.54 23.24 -0c-1.71,-1.32 -2.71,-3.34 -2.73,-5.5 0,-3.99 3.47,-7.22 7.74,-7.22 0.01,-0 0.03,-0 0.05,-0 1.89,0 3.71,0.66 5.16,1.88 1.62,1.29 2.56,3.26 2.56,5.33 0,2.08 -0.94,4.04 -2.56,5.33l0 0.17 5.04 0 0 -0.02 0.94 0 0 -14.52z"/>
    <path class="fil2" d="M134.67 132.78l0 -2.55 0 0c0.1,-0.15 0.2,-0.31 0.29,-0.48 0.34,-0.62 0.52,-1.32 0.53,-2.03 0,-0.47 -0.08,-0.94 -0.24,-1.39 -0.14,-0.4 -0.33,-0.77 -0.57,-1.12l0 0c-1.18,-1.69 -3.5,-2.85 -6.19,-2.85 -3.87,0 -7,2.4 -7,5.36 0,1.39 0.7,2.66 1.84,3.62 0.44,0.36 0.92,0.67 1.43,0.91l0.03 0.05c0.42,0.41 0.66,0.98 0.66,1.57 0,0.34 -0.08,0.68 -0.24,0.99l-22.53 0 0 20.94c1.31,-1.75 3.37,-2.8 5.56,-2.81 3.98,0 7.21,3.47 7.21,7.76 0,4.28 -3.23,7.76 -7.21,7.76 -2.19,-0.01 -4.25,-1.05 -5.56,-2.81l0 16.91 25.86 0c0,0 0,0 0,0 3.39,0 6.14,-2.74 6.15,-6.13l0 -41.61 0 0 0 41.58c0,3.39 -2.75,6.15 -6.15,6.15l-25.86 0 0 4.09 26.82 0c5.5,-0 9.96,-4.46 9.96,-9.96l0 -41.85 0 0 0 -1.1 -4.78 0 0 -0.99z"/>
   </g>
   <path class="fil4" d="M73.07 181.66c-3.39,0 -6.15,-2.75 -6.15,-6.15l0 -41.72 -4.78 0 0 42c0,5.5 4.46,9.96 9.96,9.96l29 0 0 -4.09 -28.03 -0.01z"/>
   <path class="fil5" d="M102.9 163.08c0.52,0.16 0.96,0.52 1.22,1 0.98,1.67 2.52,2.74 4.25,2.74 2.96,0 5.36,-3.13 5.36,-7 0,-3.87 -2.4,-6.99 -5.35,-6.99 -1.39,0 -2.66,0.7 -3.61,1.84 -0.36,0.44 -0.67,0.92 -0.91,1.43l-0.05 0.3c0,0 -1.14,0.98 -2.7,0.08l-0 -22.69 -22.15 0c-0.24,-0.31 -0.37,-0.69 -0.37,-1.09 0,-0.2 0.03,-0.4 0.1,-0.59 0.17,-0.52 0.52,-0.95 1,-1.22 1.67,-0.98 2.75,-2.52 2.75,-4.25 0,-2.96 -3.14,-5.36 -7,-5.36 -3.87,0 -7,2.4 -7,5.36 0,1.39 0.7,2.66 1.84,3.62 0.44,0.36 0.92,0.67 1.43,0.91l0.03 0.05c0.42,0.41 0.66,0.98 0.66,1.57 0,0.34 -0.08,0.68 -0.24,0.99l-5.21 0 0 41.73c0,3.39 2.75,6.15 6.15,6.15l28.03 0 0 -18.19c0.33,-0.31 0.76,-0.48 1.21,-0.48 0.2,0 0.39,0.03 0.58,0.1l0 0z"/>
   <rect class="fil4" x="61.31" y="79.62" width="0.76" height="1.24"/>
   <rect class="fil4" x="62.7" y="79.62" width="4.15" height="1.24"/>
   <rect class="fil4" x="62.07" y="79.62" width="0.63" height="1.24"/>
   <path class="fil4" d="M61.89 86.82l0.17 0 0 -5.97 -0.77 0 0 5.39c0,0 0,0 0,0 0,0.32 0.26,0.58 0.58,0.58 0,0 0.01,0 0.01,0l0 0z"/>
   <path class="fil4" d="M66.84 80.85l-4.15 0 0 5.39c0,0 0,0 0,0 0,0.32 -0.26,0.58 -0.58,0.58 -0,0 -0,0 -0,0l-0.05 0 0 46.08 4.78 0 0 -52.06z"/>
   <path class="fil4" d="M62.07 86.82l0.05 0c0,0 0,0 0,0 0.32,0 0.58,-0.26 0.58,-0.58 0,0 0,0 0,0l0 -5.39 -0.63 0 0 5.97z"/>
   <path class="fil5" d="M67.58 127.4c0,-3.98 3.47,-7.21 7.76,-7.21 4.28,0 7.76,3.23 7.76,7.21 -0.01,2.16 -1.02,4.19 -2.74,5.5l20.79 0 0 -22.38c0.33,-0.31 0.77,-0.48 1.22,-0.48 0.2,0 0.4,0.03 0.59,0.1 0.52,0.16 0.96,0.52 1.22,1 0.98,1.67 2.52,2.74 4.25,2.74 2.96,0 5.36,-3.13 5.36,-7 0,-3.87 -2.4,-7 -5.36,-7 -1.4,0 -2.66,0.7 -3.62,1.84 -0.36,0.44 -0.67,0.92 -0.91,1.43l-0.05 0.03c-0.41,0.43 -0.98,0.67 -1.58,0.67 -0.4,0 -0.79,-0.11 -1.12,-0.31l0 -22.68 -21.33 0c-0.24,-0.31 -0.37,-0.69 -0.37,-1.08 0,-0.2 0.03,-0.4 0.1,-0.59 0.16,-0.52 0.52,-0.96 1,-1.22 1.67,-0.98 2.74,-2.52 2.74,-4.25 0,-2.96 -3.13,-5.36 -7,-5.36 -3.87,0 -7,2.4 -7,5.36 0,1.4 0.7,2.66 1.84,3.62 0.44,0.36 0.92,0.67 1.43,0.91l0.03 0.05c0.42,0.41 0.66,0.98 0.66,1.57 0,0.34 -0.08,0.68 -0.24,0.99l-6.17 0 0 52.06 3.47 0c-1.71,-1.31 -2.72,-3.35 -2.74,-5.5l0 0z"/>
   <path class="fil4" d="M62.83 76.39c0,0 0,0 0,0 0,-0.32 -0.26,-0.58 -0.58,-0.58 -0,0 -0,0 -0,0l-0.05 -0 0 3.81 0.63 0 0 -3.23z"/>
   <path class="fil4" d="M62.17 49.66l-0.13 0c-0.32,0 -0.58,0.26 -0.58,0.58l0 5.11c0,0.32 0.26,0.58 0.58,0.58l0.15 0 0 -6.28 -0.02 -0z"/>
   <path class="fil4" d="M62 61.15c0,0 0,0 0,0 -0.32,0 -0.59,0.26 -0.59,0.59l0 9.75c0,0.32 0.26,0.58 0.59,0.58 0,0 0,0 0,0l0.2 0 0 -10.92 -0.2 0z"/>
   <path class="fil4" d="M62.19 75.89l-0.17 0c-0.32,0 -0.58,0.26 -0.58,0.59l0 3.23 0.77 0 -0.02 -3.81z"/>
   <path class="fil4" d="M62.19 38.88l0 10.78c0.31,0.01 0.56,0.27 0.56,0.58 0,0 0,0 0,0l0 5.11c-0,0.31 -0.25,0.57 -0.56,0.58l0 5.22 0.09 0c0.32,0 0.59,0.26 0.59,0.59l0 9.75c0,0.32 -0.26,0.58 -0.58,0.58l-0.1 0 0 3.83 0.05 0c0,0 0,0 0,0 0.32,0 0.59,0.26 0.59,0.58l0 3.21 4.15 0 0 -40.54c0,0 0,0 0,0 0,-3.39 2.75,-6.14 6.14,-6.15l8.33 0 0 1.07c0,2.79 2.27,5.06 5.06,5.06l14.65 0 0 -3.34 -6.75 0c-0.54,-0 -0.98,-0.44 -0.99,-0.98l0 -0.21c0,-0.55 0.44,-0.99 0.99,-0.99l6.73 0 0 -4.71 -28.99 0c-5.5,0 -9.96,4.46 -9.96,9.96l0 0z"/>
   <path class="fil4" d="M62.76 55.35l0 -5.11c0,0 0,0 0,0 0,-0.31 -0.25,-0.57 -0.56,-0.58l0 6.27c0.31,-0.01 0.56,-0.27 0.56,-0.58l-0 0z"/>
   <path class="fil4" d="M62.87 71.49l0 -9.75c0,-0.32 -0.26,-0.59 -0.58,-0.59l-0.09 0 0 10.92 0.09 0c0,0 0,0 0.01,0 0.32,0 0.58,-0.26 0.58,-0.58 0,0 0,0 0,0l0 0z"/>
   <path class="fil5" d="M68.67 74.21c0,-3.98 3.47,-7.21 7.76,-7.21 4.29,0 7.76,3.23 7.76,7.21 -0.02,2.16 -1.03,4.18 -2.75,5.49l19.69 -0 0 -22.66c0.33,-0.31 0.77,-0.48 1.22,-0.48 0.2,0 0.4,0.03 0.59,0.1 0.52,0.16 0.96,0.52 1.22,1 0.98,1.67 2.52,2.74 4.25,2.74 2.96,0 5.36,-3.13 5.36,-7 0,-3.87 -2.4,-7 -5.36,-7 -1.39,0 -2.66,0.7 -3.62,1.84 -0.36,0.44 -0.67,0.92 -0.91,1.43l-0.05 0.3c0,0 -1.14,0.98 -2.7,0.08l0 -10.91 -14.65 0c-2.79,-0.01 -5.05,-2.27 -5.05,-5.06 0,0 0,0 0,0l0 -1.07 -8.32 0c-3.39,0 -6.14,2.75 -6.14,6.15 0,0 0,0.01 0,0.01l0 40.54 4.43 0c-1.71,-1.31 -2.72,-3.34 -2.73,-5.49l0 0z"/>
   <path class="fil6" d="M94.41 33.61c-0.55,0 -0.99,0.44 -0.99,0.99l0 0.22c0,0.55 0.44,0.99 0.99,0.99l6.73 0 0 -2.19 -6.73 -0.01z"/>
   <path class="fil4" d="M139.98 64.47l0 15.16 1.72 0 0 -15.77 -0.93 0c-0.44,0 -0.79,0.27 -0.79,0.61z"/>
   <rect class="fil4" x="103.19" y="28.81" width="2.04" height="4.6"/>
   <rect class="fil4" x="103.19" y="35.7" width="2.04" height="3.32"/>
   <rect class="fil6" x="103.19" y="33.4" width="2.04" height="2.3"/>
   <path class="fil4" d="M142.05 64.51l-0.48 0 0 15.11 1.07 0 0 -14.53c0,0 0,0 0,0 0,-0.32 -0.26,-0.59 -0.59,-0.59l0 0z"/>
   <path class="fil4" d="M105.24 33.4c0.54,0.12 1.02,1.11 1.02,1.11l0 0.21c0,0 -0.48,0.99 -1.02,0.97l0 0 0 3.32 11.54 0c2.79,-0 5.06,-2.27 5.06,-5.06 0,0 0,0 0,0l0 -1.07 8.68 0c3.39,0.01 6.13,2.76 6.13,6.14 0,0 0,0 0,0l0 29.76c1.62,1.29 2.56,3.26 2.56,5.33 0,2.07 -0.94,4.04 -2.56,5.33l0 0.17 3.58 0 0 -14.99c0,0 0,0 0,0 0,-0.04 0.03,-0.07 0.07,-0.07 0,0 0,0 0,0l1.2 0 0 -26.18c0,0 0,-0 0,-0 0,-5.29 -4.29,-9.58 -9.58,-9.58 0,0 -0,0 -0,0l-26.95 -0 0 4.6 0.25 0z"/>
   <path class="fil5" d="M108.8 45.39c4.01,0 7.27,3.48 7.27,7.76 0,4.29 -3.25,7.76 -7.27,7.76 -2.21,-0.01 -4.29,-1.06 -5.62,-2.82l0 21.54 23.24 0c-1.71,-1.32 -2.71,-3.34 -2.73,-5.5 0,-3.99 3.47,-7.22 7.74,-7.22 0.02,0 0.04,0 0.05,0 1.89,0 3.72,0.66 5.16,1.88l0 -29.76c0,0 0,0 0,0 0,-3.39 -2.74,-6.14 -6.13,-6.14l-8.68 0 0 1.07c-0,0 -0,0 -0,0 0,2.79 -2.27,5.06 -5.06,5.06l-13.59 0 0 9.2c1.33,-1.76 3.4,-2.81 5.61,-2.82l-0 0z"/>
   <path class="fil6" d="M105.24 35.7c0,0 0,0 0,0 0.54,0 0.99,-0.43 1.02,-0.97l0 -0.21c-0.06,-0.55 -0.48,-1.01 -1.02,-1.11l-0.26 0 0 2.3 0.26 0z"/>
   <circle class="fil6" transform="matrix(0.113924 -0.0184925 0.0184925 0.113924 109.103 34.6199)" r="10.78"/>
   <path class="fil4" d="M134.92 131.76l0 -2.55c0.53,-0.73 0.81,-1.61 0.81,-2.51 0,-0.9 -0.29,-1.78 -0.82,-2.51l0 7.57z"/>
   <rect class="fil4" x="134.92" y="132.75" width="4.78" height="1.1"/>
   <path class="fil5" d="M132.99 130.95c-0.48,0.26 -0.83,0.7 -1,1.22 -0.07,0.19 -0.1,0.39 -0.1,0.59 0,0.39 0.13,0.77 0.37,1.09l2.66 0 0 -1.1 -1.02 0c0.37,-0.3 0.71,-0.63 1.02,-0.99l0 -2.55c-0.51,0.71 -1.17,1.31 -1.93,1.75l0 0z"/>
   <path class="fil5" d="M133.89 132.75l1.02 0 0 -0.99c-0.31,0.36 -0.65,0.69 -1.02,0.99l0 0z"/>
   <path class="fil4" d="M135.74 126.7c-0.01,-0.9 -0.29,-1.78 -0.82,-2.51l0 5.01c0.52,-0.73 0.81,-1.61 0.82,-2.51l0 0z"/>
   <path class="fil4" d="M139.7 133.85l0 41.87c0,5.5 -4.46,9.96 -9.96,9.96l-26.82 0 0 -4.09 25.86 0c3.39,0 6.15,-2.75 6.15,-6.15l0 -41.6 4.78 0z"/>
   <path class="fil5" d="M131.99 132.17c0.16,-0.52 0.52,-0.96 1,-1.22 0.76,-0.43 1.42,-1.03 1.93,-1.74l0 -5.01c-1.18,-1.69 -3.5,-2.85 -6.19,-2.85 -3.87,0 -7,2.4 -7,5.36 0,1.39 0.7,2.66 1.84,3.62 0.44,0.36 0.92,0.67 1.43,0.91l0.03 0.05c0.42,0.41 0.66,0.98 0.66,1.57 0,0.34 -0.08,0.68 -0.24,0.99l-22.53 0 0 20.94c1.31,-1.75 3.37,-2.8 5.56,-2.81 3.98,0 7.21,3.47 7.21,7.76 0,4.28 -3.23,7.76 -7.21,7.76 -2.19,-0.01 -4.25,-1.06 -5.56,-2.81l0 16.91 25.86 -0c0,0 0,0 0,0 3.39,0 6.14,-2.74 6.15,-6.13l0 -41.62 -2.65 0c-0.24,-0.31 -0.37,-0.7 -0.37,-1.09 0,-0.2 0.03,-0.39 0.1,-0.58l0 0z"/>
   <path class="fil7" d="M180.59 68.75c1.43,-0.64 2.48,-1.72 2.84,-3.11 0.04,-0.17 0.08,-0.34 0.1,-0.51 0.06,-0.16 0.12,-0.32 0.16,-0.49 0.36,-1.39 -0.04,-2.83 -0.98,-4.06l-1.87 7.15 0 0 -0.26 1.01z"/>
   <path class="fil8" d="M223.69 66.06c-0.29,-1.71 -5.69,-5.41 -5.69,-5.41 0,0 -2.38,-1.28 -3.64,-2.75 -0.81,-0.94 -1.06,-0.93 -1.14,-0.8 -0.05,-0.03 -0.11,-0.05 -0.17,-0.06 -0.05,-0.04 -0.1,-0.07 -0.15,-0.11l0 0c0,-0.01 0,-0.02 0,-0.04 0,-0.14 -0.08,-0.26 -0.2,-0.31 -0.06,-0.04 -0.12,-0.08 -0.18,-0.12 -0.41,-0.69 -0.55,-1.66 -0.6,-2.51 -0.06,-1.07 -1.28,-0.8 -1.69,-0.68 -0.29,-0.54 -0.56,-1.09 -0.83,-1.65 0.12,-0.18 0.21,-0.37 0.29,-0.57 0.75,-1.63 0.59,-3.5 0.92,-5.23 0.24,-1.25 0.73,-2.55 0.63,-3.77 0,-0.03 0,-0.06 0,-0.09 0,0 0,0.01 0,0.02 -0.03,-0.3 -0.1,-0.6 -0.21,-0.89 -0.22,-0.55 -0.6,-1.02 -0.77,-1.59 -0.27,-0.82 -0.1,-1.73 -0.33,-2.57 -0.28,-1.06 -1.18,-1.88 -2.19,-2.34 -1.01,-0.47 -2.14,-0.63 -3.25,-0.77 -2.77,-0.35 -5.72,-0.55 -8.24,0.61 -0.23,0.14 -0.49,0.21 -0.76,0.21 -0,0 -0.01,0 -0.01,0 -0.25,-0.07 -0.49,-0.18 -0.7,-0.32 -0.68,-0.34 -1.53,-0.12 -2.14,0.33 -0.61,0.45 -1.02,1.1 -1.42,1.73 -0.4,0.63 -0.84,1.28 -1.47,1.69 -0.74,0.49 -1.71,0.66 -2.3,1.32 -0.26,0.31 -0.43,0.7 -0.48,1.1 -0.05,0.4 0,-0.01 0,-0.02 -0,0.02 -0,0.05 -0,0.07 0,0.02 0,0.05 0,0.07 0,0.04 0,0.08 0,0.12 0,0.04 0,0.06 0,0.09 0,0.11 0,0.22 0,0.32 0.08,0.62 0.25,1.23 0.49,1.81 0.12,0.43 0.35,0.83 0.67,1.14 0.89,0.72 2.3,0.04 3.37,0.44 0.09,0.03 0.18,0.08 0.27,0.12 0,0.04 -0.03,0.08 -0.04,0.12 -0.23,0.78 -0.34,1.58 -0.34,2.39 0,0 0,0.01 0,0.01 0,4.8 3.98,8.68 8.89,8.68 0.18,0 0.37,0 0.55,-0.02 0.03,0.09 0.05,0.19 0.08,0.28 0.2,0.77 0.3,1.56 0.3,2.35 0,0.3 -0.01,0.6 -0.04,0.9l-0.05 -0.48c-0.12,-0.06 -0.24,-0.11 -0.37,-0.14 -0.34,-0.11 -0.69,-0.17 -1.04,-0.17 -0.02,0 -0.04,0 -0.06,0 -1.21,-0.02 -3.03,0.47 -4.97,2.82 0,0 -2.48,1.38 -3.21,1.71 -0.06,0.04 -0.11,0.09 -0.14,0.15l0 0c0,0 -3.31,5 -3.65,6.91 -0.34,1.9 -0.77,4.09 -0.77,4.09 0,0 -0.83,2.47 -1.36,3.56 -0.53,1.09 -1.02,2.14 -1.07,2.61 -0.05,0.48 0.19,1.52 -0.83,2.18 -1.02,0.66 -1.28,2.47 -1.28,2.47 0,0 -0.51,0.48 -1.23,1.09l-0.03 0 2.67 -10.24 0.48 0.12c0.05,0.01 0.1,0.02 0.15,0.02 0.19,0 0.36,-0.09 0.48,-0.23 0.05,-0.06 0.09,-0.14 0.1,-0.21l0.54 -2.07 0.22 -0.82 0.04 -0.17 0.31 -1.2 -1.06 -0.26 -1.24 -0.31 -3.51 -0.89 0.31 -1.18 0 0 0.26 -1 0 0 1.61 -6.17 0 0 0.26 -0.99c-1.02,-1.32 -2.65,-2.4 -4.65,-2.9 -3.86,-0.96 -7.59,0.6 -8.34,3.48 -0.04,0.17 -0.08,0.34 -0.1,0.51 -0.06,0.16 -0.12,0.32 -0.16,0.49 -0.09,0.34 -0.13,0.69 -0.13,1.03 0,0.17 0.01,0.33 0.03,0.5 0.01,0.08 0.02,0.17 0.04,0.26 0.15,0.8 0.49,1.54 0.98,2.19 0.34,0.46 0.75,0.88 1.19,1.24l0.02 0.06c0.19,0.31 0.3,0.66 0.33,1.02 0,0.05 0,0.1 0,0.16 -0.09,0.15 -0.19,0.3 -0.31,0.43l-23.57 -5.86 -0.26 0.99 0 0 -5.31 20.4 0 0c0.69,-0.53 1.47,-0.94 2.3,-1.21 0.33,-0.11 0.66,-0.19 1,-0.26l0.12 -0.02c0.38,-0.06 0.76,-0.09 1.14,-0.09 0.58,0 1.15,0.07 1.71,0.21 2.98,0.74 5.04,3.28 5.42,6.26 0.04,0.33 0.06,0.66 0.06,0.99 0,0.05 -0,0.1 -0,0.14 -0.01,0.48 -0.06,0.97 -0.15,1.44 -1.28,3.88 -5.2,6.22 -9.01,5.27 -2.16,-0.55 -3.95,-2.07 -4.83,-4.13l-0.26 1 0 0 -5.48 20.93 20.87 5.19 0 0 0.23 -1 0.03 0c-1,-1.23 -1.54,-2.77 -1.54,-4.36 0,-0.39 0.03,-0.78 0.1,-1.17 0,-0.03 0.02,-0.06 0.03,-0.1 0.03,-0.07 0.05,-0.15 0.08,-0.22 0.14,-0.35 0.31,-0.69 0.51,-1.01 0.1,-0.17 0.21,-0.33 0.32,-0.48 0.07,-0.1 0.15,-0.19 0.22,-0.28 0.37,-0.44 0.79,-0.85 1.25,-1.19l0.15 -0.11c0.17,-0.12 0.34,-0.24 0.51,-0.34 0.1,-0.06 0.21,-0.12 0.32,-0.18 1.19,-0.63 2.52,-0.96 3.87,-0.96 0.05,0 0.1,0 0.15,0 0.67,0.01 1.34,0.1 1.99,0.26 2.01,0.48 3.77,1.71 4.93,3.43 0.15,0.23 0.29,0.47 0.42,0.72 0.38,0.73 0.62,1.52 0.72,2.33 0.03,0.27 0.05,0.54 0.05,0.81 0,0.38 -0.03,0.77 -0.1,1.15 -0.5,1.43 -1.45,2.66 -2.7,3.5l-0.26 0.96 0.03 0 -0.04 0.03 -0.26 0.96 4.77 1.19 6.75 -25.81c1.82,-0.21 2.75,-1.02 2.75,-1.14 0,-0.12 2.19,-1.33 3.4,-1.66 0.6,-0.16 1.3,-0.28 1.85,-0.4 -0.65,3.25 -1.28,6.39 -1.22,6.57 0.02,0.07 0.14,-0.04 0.31,-0.29 -0.02,0.08 -0.02,0.17 -0.02,0.25 0,0.01 0,0.02 0,0.03 0,0.05 0.07,0.01 0.16,-0.09l-0.01 0.06c0,0 -3.79,7.33 -4.09,8.17 -0.3,0.84 0.07,2.99 1.24,3.7 0.23,0.14 0.43,0.32 0.6,0.53l-0.14 0.27c-0.43,0.88 -0.82,1.86 -0.75,2.47 0.02,0.13 0.02,0.26 0.02,0.39 0,0.64 -0.19,1.27 -0.53,1.81 -0.35,0.54 -3.28,10.14 -3.21,13.06 0.07,2.92 -1.17,9.33 -1.17,9.33 0,0 -1.35,4.13 -0.55,5.3 0.8,1.18 1.71,6.3 1.71,6.3 0,0 0.62,1.17 0.58,2.17 -0.04,1 0.58,2.81 0.58,2.81l2.04 7.37c0,0 -0.22,1.96 0.55,3.35 0.77,1.39 0.69,0.96 0.33,3.38 -0.36,2.42 0.44,4.66 1.75,5.36 0.51,0.28 0.54,0.7 0.38,1.11l0 0c-0.33,-0.13 -0.61,0.56 -0.78,1.12l-0.17 0.16 0.11 0.03c-0.07,0.26 -0.11,0.47 -0.11,0.47 0,0 -3.43,2.85 -3.64,3.88 -0.22,1.03 -2.63,1.57 -2.63,1.57 0,0 -3.64,1 -4.6,1.49 -0.55,0.25 -0.94,0.78 -1.01,1.38 -0.01,0.11 -0.02,0.23 -0.02,0.34 0,0.35 0.05,0.71 0.15,1.05 0.36,1.46 5.47,1.6 7.92,1.21 2.45,-0.39 7.51,-1.82 7.51,-1.82 0,0 5.32,-0.51 6.9,-1.14 1.57,-0.63 0.33,-2.28 0.33,-2.28 0,0 0,-0.05 0,-0.15 0.04,-0.6 0.15,-2.75 -0.23,-3.32 -0.28,-0.44 -0.28,-1.53 -0.24,-2.23 1.06,-1.92 -1.22,-7.66 -1.22,-7.66 0,0 0.44,-5.62 0.15,-6.44 -0.29,-0.82 -1.53,-7.8 -1.53,-7.8 0,0 -0.77,-3.17 -0.47,-3.7 0.29,-0.53 -0.18,-2.07 -0.18,-2.07 0,0 -1.25,-1.7 -1.14,-2.24 0.11,-0.54 -0.37,-1.49 -0.37,-1.49 0,0 3.72,-5.55 3.39,-6.58 -0.33,-1.03 0.15,-2.71 0.15,-2.71 0,0 0.47,-0.79 1.02,-1.73 0.69,-1.15 1.53,-2.54 1.81,-2.97 0.36,-0.55 1.22,-2.89 1.7,-4.23 0.2,-0.57 0.34,-0.97 0.34,-0.97 0,0 0.58,10.47 1.09,11.53 0.51,1.06 1.28,9.5 1.28,9.5 0.25,0.65 0.37,1.35 0.37,2.04 0,0.1 -0,0.21 -0.01,0.31 -0.07,1.31 1.17,7.05 1.17,7.05 0,0 0.55,4.06 0.18,5.12 -0.37,1.07 -0.07,8.94 -0.07,8.94 0,0 -2,1.53 -2.52,2.71 -0.51,1.17 0.07,4.38 0.07,4.38l0.24 0.11c-0.19,0.44 -0.33,0.91 -0.42,1.38 -0.07,0.68 -1.17,3.74 -1.06,4.17 0.11,0.43 -0.47,1.74 -0.55,2.42 -0.07,0.68 -0.98,1.67 -1.06,2.03 -0.12,0.32 -0.25,0.63 -0.4,0.94 -0.2,0.47 -0.36,0.95 -0.47,1.45 -0.37,1.5 3.97,1.74 3.97,1.74 6.42,1.17 7.58,-3.63 7.58,-3.63 0,0 0.8,-4.27 1.09,-4.6 0.05,-0.08 0.07,-0.17 0.07,-0.26 0,-0.05 -0.01,-0.1 -0.02,-0.15l0 0c-0.17,-0.73 -0.48,-1.41 -0.93,-2.01 -0.2,-0.24 -0.22,-0.85 -0.18,-1.4 0.19,-0.02 0.37,-0.05 0.55,-0.1 2.59,-0.75 1.53,-5.05 1.53,-5.05 0,0 1.75,-2.85 1.75,-3.95 0,-1.1 0.62,-4.49 0.62,-4.49 2.22,-3.99 1.35,-13.67 1.71,-14.45 0.37,-0.78 -0.77,-3.7 -1.68,-5.02 -0.91,-1.32 -0.55,-4.88 0,-5.91 0.55,-1.03 -0.55,-4.6 -0.55,-4.6 0,0 1.06,-6.9 1.02,-7.97 -0.04,-1.08 0.91,-4.23 0.91,-4.23 0,0 0.95,-1.64 0.73,-2.14 -0.22,-0.5 0.73,-1.79 0.48,-2.35 -0.25,-0.56 0.22,-2.31 0.69,-3.35 0.24,-0.53 0.54,-1.98 0.77,-3.28 0.03,-0.14 0.05,-0.29 0.07,-0.43 1.06,0.67 2.04,1.17 2.39,1.04 0.65,-0.26 -0.39,-3.58 -1.1,-5.65 0.12,-0.09 0.17,-0.16 0.12,-0.19 -0.44,-0.29 0.05,-1.57 0.05,-1.57 2.58,-1.52 1.7,-2.66 0.88,-3.32 -0.83,-0.66 -0.29,-2.55 -0.54,-3.32 -0.25,-0.77 0.29,-4.22 0.73,-6.74 0.04,-0.26 0.06,-0.52 0.06,-0.79 0,-0.29 -0.03,-0.58 -0.08,-0.86 0.47,-0.71 0.95,-1.46 1.37,-2.15 1.46,-2.37 4.57,-13.67 4.57,-13.67l-0.02 -0.06c0.3,-0.6 0.53,-1.09 0.65,-1.41 0.94,-2.45 -0.81,-9.86 -1.1,-11.57zm-28.11 24.01l0.07 -0.03c0,0.02 0,0.04 0,0.05l-0.07 -0.02zm-46.45 59.52l0 0 0 0zm37.77 31.14c-0,0 -0.01,0 -0.01,0 -0.16,0 -0.31,-0.03 -0.45,-0.09l0.46 0.09z"/>
   <path class="fil9" d="M159.89 98.4c2.1,0.8 6.99,0.88 9.16,0.88 0.66,0 1.07,0 1.07,0l1.39 -2.84 -1.39 -2.36c0,0 -1.28,-0.35 -2.97,-0.66 -2.5,-0.45 -5.93,-0.8 -7.56,0.21 -2.74,1.69 -2.43,3.72 0.31,4.76z"/>
   <path class="fil2" d="M169.05 99.28c0.66,0 1.07,0 1.07,0l1.39 -2.84 -1.39 -2.36c0,0 -1.28,-0.35 -2.97,-0.66 1.38,1.01 4.69,3.21 1.9,5.86z"/>
   <path class="fil10" d="M192.11 64.48l-0.61 -0.71c0,0 -3.17,5.01 -3.5,6.9 -0.33,1.89 -0.77,4.06 -0.77,4.06 0,0 -0.8,2.46 -1.32,3.54 -0.52,1.08 -0.99,2.12 -1.04,2.6 -0.05,0.47 0.19,1.51 -0.8,2.17 -0.99,0.66 -1.23,2.46 -1.23,2.46 0,0 -3.59,3.49 -5.48,3.58 -1.89,0.08 -7.32,1.04 -7.13,1.98 0.19,0.95 -2.27,1.51 -3.26,1.75 -0.99,0.24 6.39,3.07 2.08,6.71 0,0 2.74,0.57 3.02,1.23 0.28,0.66 3.16,-0.38 3.16,-0.38 0,0 0.62,-1.47 2.74,-1.56 2.12,-0.09 3.21,-1.04 3.21,-1.18 0,-0.14 2.13,-1.32 3.32,-1.65 1.2,-0.33 2.74,-0.47 2.79,-0.8 0.05,-0.33 7.09,-30.7 7.09,-30.7l-2.27 0.01z"/>
   <path class="fil11" d="M192.11 64.48l-0.61 -0.71c0,0 -3.17,5.01 -3.5,6.9 -0.33,1.89 -0.77,4.06 -0.77,4.06 0,0 -0.8,2.46 -1.32,3.54 -0.52,1.08 -0.99,2.12 -1.04,2.6 -0.05,0.47 0.19,1.51 -0.8,2.17 -0.99,0.66 -1.23,2.46 -1.23,2.46 0,0 -3.59,3.49 -5.48,3.58 -1.89,0.08 -7.32,1.04 -7.13,1.98 0.19,0.95 -2.27,1.51 -3.26,1.75 -0.99,0.24 6.39,3.07 2.08,6.71 0,0 2.74,0.57 3.02,1.23 0.28,0.66 3.16,-0.38 3.16,-0.38 0,0 0.62,-1.47 2.74,-1.56 2.12,-0.09 3.21,-1.04 3.21,-1.18 0,-0.14 2.13,-1.32 3.32,-1.65 1.2,-0.33 2.74,-0.47 2.79,-0.8 0.05,-0.33 7.09,-30.7 7.09,-30.7l-2.27 0.01z"/>
   <path class="fil12" d="M199.46 195.56c6.24,1.17 7.37,-3.61 7.37,-3.61 0,0 0.78,-4.25 1.06,-4.57 0.05,-0.08 0.07,-0.17 0.07,-0.26 0,-0.05 -0.01,-0.1 -0.02,-0.15l0 0c-0.16,-0.72 -0.47,-1.4 -0.9,-2 -0.39,-0.46 -0.07,-2.37 -0.07,-2.37l-7.23 -1.84c0,0 -0.64,1.45 -0.71,2.12 -0.07,0.67 -1.13,3.72 -1.02,4.15 0.11,0.43 -0.46,1.73 -0.53,2.41 -0.07,0.67 -0.96,1.67 -1.02,2.02 -0.11,0.32 -0.24,0.63 -0.39,0.94 -0.19,0.47 -0.35,0.95 -0.46,1.44 -0.36,1.49 3.85,1.73 3.85,1.73z"/>
   <path class="fil2" d="M199.46 195.56c6.24,1.17 7.37,-3.61 7.37,-3.61 0,0 0.78,-4.25 1.06,-4.57 0.05,-0.08 0.07,-0.17 0.07,-0.26 0,-0.05 -0.01,-0.1 -0.02,-0.15l-1.5 4.3c0,0 -1.24,2.58 -5.84,2.2 -2.62,-0.22 -3.91,-0.71 -4.54,-1.09 -0.19,0.47 -0.35,0.95 -0.46,1.44 -0.35,1.49 3.86,1.74 3.86,1.74z"/>
   <path class="fil2" d="M204.32 188.83c0,0 -1.56,0.04 -1.67,-1.24l1.67 1.24z"/>
   <polygon class="fil5" points="155.85,119.3 156.84,119.55 156.62,120.56 155.7,120.33 "/>
   <polygon class="fil2" points="155.85,119.3 156.84,119.55 156.62,120.56 155.7,120.33 "/>
   <rect class="fil4" transform="matrix(0.0284685 -0.111849 0.111849 0.0284685 184.881 73.762)" width="10.71" height="9.23"/>
   <rect class="fil4" transform="matrix(0.0284685 -0.111849 0.111849 0.0284685 180.247 72.5812)" width="10.71" height="30.61"/>
   <rect class="fil4" transform="matrix(0.0284685 -0.111849 0.111849 0.0284685 183.668 73.4553)" width="10.71" height="10.82"/>
   <path class="fil5" d="M180.6 71.23c-0.08,0.04 -0.16,0.08 -0.24,0.11l0.2 0.05 -0.31 1.2 -1.51 -0.39c-0.09,-0.22 -0.14,-0.46 -0.14,-0.7 0,-0.35 0.1,-0.69 0.3,-0.99 0.29,-0.47 0.75,-0.8 1.28,-0.93 0.32,-0.09 0.64,-0.21 0.95,-0.35l-0.52 1.99z"/>
   <path class="fil4" d="M184.22 76.4l0.46 0.12c0.05,0.01 0.1,0.02 0.14,0.02 0.27,0 0.5,-0.18 0.57,-0.44l0.52 -2.06 -1.02 -0.26 -0.67 2.62z"/>
   <path class="fil4" d="M183.87 66.14c-0.35,1.38 -1.38,2.45 -2.76,3.09l1.81 -7.13c0.92,1.22 1.3,2.66 0.95,4.04z"/>
   <path class="fil4" d="M183.57 76.24c-0.26,-0.07 -0.44,-0.3 -0.44,-0.57 0,-0.05 0.01,-0.1 0.02,-0.14l0.53 -2.07 -3.42 -0.87 -10.44 41.01c0.49,0.96 0.75,2.03 0.75,3.11 0,2.25 -1.11,4.36 -2.98,5.63l-0.24 0.96 4.63 1.19 12.24 -48.07 -0.64 -0.17z"/>
   <path class="fil4" d="M183.15 75.53c-0.01,0.05 -0.02,0.09 -0.02,0.14 0,0.27 0.18,0.5 0.44,0.57l0.64 0.16 0.67 -2.63 -1.21 -0.31 -0.53 2.07z"/>
   <path class="fil5" d="M178.9 70.52c0.29,-0.46 0.75,-0.8 1.28,-0.93 0.32,-0.09 0.64,-0.21 0.94,-0.35l1.82 -7.13c-1.14,-1.44 -2.73,-2.46 -4.52,-2.88 -3.75,-0.96 -7.38,0.59 -8.11,3.46 -0.34,1.35 0.02,2.75 0.89,3.96 0.33,0.46 0.72,0.87 1.16,1.23l0.02 0.06c0.21,0.34 0.33,0.74 0.33,1.15 0,0.53 -0.19,1.05 -0.55,1.44l-22.9 -5.83 -5.17 20.3c1.25,-1.01 2.81,-1.56 4.41,-1.56 0.56,0 1.11,0.07 1.65,0.2 3.86,0.98 6.13,5.15 5.07,9.3 -1.06,4.15 -5.03,6.72 -8.89,5.75 -2.12,-0.56 -3.86,-2.08 -4.69,-4.1l-5.3 20.83 20.29 5.16c-0.97,-1.23 -1.5,-2.76 -1.5,-4.33 0,-0.56 0.07,-1.13 0.2,-1.67 0.98,-3.86 5.15,-6.13 9.3,-5.07 2.24,0.55 4.14,2.04 5.2,4.1l10.44 -41.01 -1.5 -0.39c-0.1,-0.23 -0.15,-0.47 -0.15,-0.71 0,-0.34 0.1,-0.68 0.29,-0.97l0 0z"/>
   <path class="fil5" d="M180.56 71.39l0.04 -0.16c-0.08,0.04 -0.16,0.08 -0.24,0.12l0.2 0.05z"/>
   <g>
    <path class="fil3" d="M185.19 72.57l-1.21 -0.31 -3.42 -0.87 0 0 0.04 -0.16 0 0 0.51 -1.99c-0.31,0.14 -0.62,0.26 -0.95,0.35 -0.53,0.13 -0.99,0.47 -1.28,0.93 -0.08,0.13 -0.14,0.26 -0.19,0.4 0.05,-0.14 0.11,-0.28 0.19,-0.4 0.29,-0.46 0.75,-0.8 1.28,-0.93 0.32,-0.09 0.64,-0.21 0.94,-0.35l1.82 -7.13c-1.14,-1.44 -2.73,-2.46 -4.52,-2.88 -3.75,-0.96 -7.38,0.59 -8.11,3.46 -0.34,1.35 0.02,2.75 0.89,3.96 0.33,0.46 0.72,0.87 1.16,1.23l0.02 0.06c0.21,0.34 0.33,0.74 0.33,1.15 0,0.53 -0.19,1.05 -0.55,1.44l-22.9 -5.83 -5.17 20.3c1.25,-1.01 2.81,-1.56 4.41,-1.56 0.56,0 1.12,0.07 1.66,0.2 3.86,0.98 6.13,5.15 5.07,9.3 -1.06,4.15 -5.03,6.72 -8.89,5.75 -2.12,-0.56 -3.86,-2.08 -4.69,-4.1l-5.3 20.83 20.29 5.16c-0.97,-1.23 -1.5,-2.76 -1.5,-4.33 0,-0.56 0.07,-1.13 0.2,-1.67 0.98,-3.86 5.15,-6.13 9.3,-5.07 2.24,0.55 4.14,2.04 5.2,4.1 0.49,0.96 0.75,2.03 0.75,3.11 0,2.25 -1.11,4.36 -2.98,5.63l-0.24 0.96 4.63 1.19 12.24 -48.07 0.46 0.12c0.05,0.01 0.1,0.02 0.14,0.02 0.27,0 0.5,-0.18 0.57,-0.44l0.52 -2.07 0.3 -1.2 -1.02 -0.26zm-5.22 2.68c-0.04,0.02 -0.08,0.04 -0.12,0.05l0 0 0.12 -0.05zm-1.74 0.92l0 0 1.51 0.39 0 0 -1.51 -0.39z"/>
    <path class="fil3" d="M183.87 66.14c0.35,-1.38 -0.04,-2.81 -0.95,-4.04l-1.81 7.13c1.39,-0.64 2.42,-1.71 2.76,-3.09z"/>
   </g>
   <rect class="fil4" transform="matrix(0.0284685 -0.111849 0.111849 0.0284685 185.132 72.7743)" width="10.71" height="9.23"/>
   <rect class="fil4" transform="matrix(0.0284685 -0.111849 0.111849 0.0284685 180.498 71.5936)" width="10.71" height="30.61"/>
   <rect class="fil4" transform="matrix(0.0284685 -0.111849 0.111849 0.0284685 183.92 72.4627)" width="10.71" height="10.82"/>
   <path class="fil5" d="M180.86 70.24l-0.24 0.12 0.2 0.05 -0.3 1.21 -1.51 -0.39c-0.1,-0.22 -0.14,-0.46 -0.14,-0.7 0,-0.35 0.1,-0.69 0.3,-0.98 0.29,-0.46 0.75,-0.8 1.28,-0.94 0.32,-0.09 0.64,-0.21 0.95,-0.35l-0.51 1.99z"/>
   <path class="fil4" d="M184.47 75.41l0.47 0.12c0.05,0.01 0.1,0.02 0.15,0.02 0.27,0 0.5,-0.18 0.57,-0.44l0.53 -2.06 -1.02 -0.26 -0.69 2.63z"/>
   <path class="fil4" d="M184.12 65.15c-0.35,1.38 -1.37,2.45 -2.76,3.09l1.82 -7.13c0.91,1.22 1.3,2.66 0.95,4.04z"/>
   <path class="fil4" d="M183.83 75.25c-0.26,-0.07 -0.44,-0.3 -0.44,-0.57 0,-0.05 0.01,-0.1 0.02,-0.15l0.51 -2.06 -3.41 -0.87 -10.44 41c0.49,0.96 0.75,2.03 0.75,3.11 0,2.25 -1.12,4.36 -2.98,5.63l-0.24 0.96 4.63 1.18 12.23 -48.07 -0.65 -0.16z"/>
   <path class="fil4" d="M183.41 74.54c-0.01,0.05 -0.02,0.1 -0.02,0.15 0,0.27 0.18,0.5 0.44,0.57l0.64 0.16 0.67 -2.63 -1.21 -0.31 -0.53 2.06z"/>
   <path class="fil5" d="M179.15 69.53c0.29,-0.46 0.75,-0.8 1.28,-0.94 0.32,-0.09 0.64,-0.21 0.95,-0.35l1.81 -7.13c-1.14,-1.44 -2.73,-2.46 -4.52,-2.88 -3.75,-0.95 -7.38,0.6 -8.11,3.46 -0.34,1.35 0.02,2.75 0.89,3.96 0.33,0.46 0.72,0.87 1.16,1.24l0.02 0.05c0.21,0.34 0.32,0.74 0.32,1.15 0,0.53 -0.19,1.04 -0.54,1.44l-22.9 -5.83 -5.18 20.3c1.25,-1.01 2.8,-1.56 4.41,-1.56 0.56,0 1.12,0.07 1.67,0.2 3.86,0.98 6.13,5.14 5.07,9.3 -1.06,4.15 -5.03,6.72 -8.9,5.74 -2.12,-0.56 -3.85,-2.08 -4.68,-4.11l-5.3 20.83 20.28 5.17c-0.97,-1.23 -1.5,-2.76 -1.5,-4.33 0,-0.56 0.07,-1.13 0.2,-1.67 0.98,-3.86 5.14,-6.13 9.3,-5.07 2.25,0.55 4.15,2.05 5.2,4.11l10.44 -41 -1.51 -0.39c-0.09,-0.22 -0.14,-0.46 -0.14,-0.7 0,-0.35 0.1,-0.7 0.3,-0.99l0 0z"/>
   <path class="fil5" d="M180.81 70.4l0.04 -0.17c-0.08,0.04 -0.16,0.08 -0.24,0.12l0.2 0.05z"/>
   <path class="fil13" d="M177.23 146.96c0.77,1.17 1.67,6.27 1.67,6.27 0,0 0.6,1.17 0.57,2.16 -0.04,0.99 0.57,2.81 0.57,2.81l1.98 7.33c0,0 -0.21,1.95 0.53,3.32 0.75,1.37 0.67,0.96 0.32,3.36 -0.35,2.41 0.42,4.64 1.7,5.36 1.27,0.72 -0.57,2.37 -0.57,2.37 0,0 8.15,2.2 9.85,0.85 1.7,-1.35 -0.89,-8.01 -0.89,-8.01 0,0 0.43,-5.6 0.14,-6.41 -0.28,-0.81 -1.49,-7.76 -1.49,-7.76 0,0 -0.74,-3.15 -0.46,-3.69 0.28,-0.53 -0.18,-2.04 -0.18,-2.04 0,0 -1.21,-1.7 -1.1,-2.23 0.11,-0.53 -0.36,-1.49 -0.36,-1.49 0,0 3.61,-5.54 3.29,-6.58 -0.32,-1.04 0.14,-2.69 0.14,-2.69l1.01 -1.72c0.67,-1.15 1.48,-2.53 1.76,-2.96 0.35,-0.55 1.18,-2.87 1.65,-4.21l0.33 -0.96c0,0 0.57,10.42 1.06,11.48 0.5,1.06 1.24,9.45 1.24,9.45 0.24,0.65 0.36,1.34 0.36,2.03 0,0.1 -0,0.2 -0.01,0.3 -0.07,1.31 1.13,7.01 1.13,7.01 0,0 0.53,4.04 0.18,5.11 -0.36,1.07 -0.07,8.89 -0.07,8.89 0,0 -1.95,1.53 -2.44,2.69 -0.5,1.16 0.07,4.34 0.07,4.34 0,0 5.67,2.83 8.17,2.09 2.51,-0.74 1.49,-5.03 1.49,-5.03 0,0 1.7,-2.83 1.7,-3.93 0,-1.1 0.62,-4.45 0.62,-4.45 2.16,-3.97 1.31,-13.6 1.67,-14.38 0.36,-0.78 -0.75,-3.69 -1.63,-5 -0.88,-1.31 -0.53,-4.85 0,-5.87 0.53,-1.02 -0.55,-4.57 -0.55,-4.57 0,0 1.02,-6.87 0.99,-7.94 -0.03,-1.06 0.89,-4.21 0.89,-4.21 0,0 0.92,-1.63 0.71,-2.13 -0.21,-0.5 0.71,-1.77 0.46,-2.34 -0.25,-0.57 0.21,-2.3 0.68,-3.32 0.24,-0.53 0.53,-1.98 0.77,-3.26 0.22,-1.22 0.38,-2.3 0.38,-2.3l-5.85 -4.71 -14.6 -3.83 -5.49 -1.77 -5.35 8.43c-0.38,0.61 -0.73,1.25 -1.04,1.9 -0.42,0.88 -0.8,1.85 -0.73,2.46 0.01,0.13 0.02,0.26 0.02,0.39 0,0.64 -0.18,1.26 -0.52,1.8 -0.34,0.54 -3.19,10.09 -3.12,13 0.07,2.91 -1.13,9.28 -1.13,9.28 0,0 -1.31,4.11 -0.52,5.28z"/>
   <path class="fil9" d="M198.8 64.84c0.23,-0.09 15.63,-6.46 13.51,-7.72 -1.26,-0.75 -2.81,-3.93 -3.87,-6.42 -0.74,-1.74 -1.24,-3.14 -1.24,-3.14 0,0 -12.37,-2.2 -7.94,5.38 0.7,1.16 1.23,2.42 1.56,3.73 1.26,5.17 -1.91,8.07 -2.02,8.17z"/>
   <path class="fil2" d="M199.25 52.93c0.7,1.16 1.23,2.42 1.56,3.73 3.2,-0.22 6.01,-2.2 7.3,-5.13 0.12,-0.27 0.23,-0.56 0.32,-0.84 -0.74,-1.74 -1.24,-3.14 -1.24,-3.14 0,0 -12.37,-2.2 -7.94,5.38z"/>
   <path class="fil9" d="M191.56 47.76c0,4.77 3.87,8.64 8.64,8.64 4.77,0 8.64,-3.87 8.64,-8.64 0,-4.77 -3.87,-8.64 -8.64,-8.64 -3.85,0 -7.24,2.55 -8.3,6.25 -0.22,0.78 -0.34,1.58 -0.34,2.39 0,0 0,0 0,0l0 0z"/>
   <path class="fil2" d="M183.23 114.74c0.9,0.82 1.25,2.39 1.25,2.39 0,0 4.25,2.9 3.97,1.06 -0.28,-1.84 2.2,-9.28 2.2,-9.28l-0.28 10.13c0,0 13.6,-0.64 14.6,-1.63 0.99,-0.99 6.8,-2.89 6.8,-2.89 0,0 1.79,1.43 3.41,2.51 0.22,-1.22 0.38,-2.3 0.38,-2.3l-5.85 -4.71 -14.6 -3.83 -5.49 -1.77 -5.35 8.43c-0.38,0.61 -0.73,1.25 -1.04,1.89l0 0z"/>
   <path class="fil14" d="M182.78 113.94c1.13,0.71 1.56,2.62 1.56,2.62 0,0 4.25,2.9 3.97,1.06 -0.28,-1.84 2.2,-9.28 2.2,-9.28l-0.28 10.13c0,0 13.6,-0.63 14.59,-1.63 0.99,-1 6.8,-2.9 6.8,-2.9 0,0 5.03,4.04 5.95,3.68 0.92,-0.36 -1.63,-7.23 -1.63,-7.23l-2.62 -40.24c0,0 0.71,-11.97 -0.36,-12.4 -0.16,-0.07 -0.32,-0.16 -0.45,-0.28 -0.7,-0.63 -0.91,-1.91 -0.97,-2.98 -0.07,-1.28 -1.77,-0.64 -1.77,-0.64l0.99 1.28 -8.78 5.34 -0.08 0.05c-0.34,-0.18 -0.7,-0.34 -1.06,-0.48 -0.77,-0.3 -1.81,-0.58 -2.49,-0.3 -0.38,0.19 -0.7,0.48 -0.93,0.84 -0.5,0.75 -0.9,1.57 -1.2,2.42l-3.18 5.38c0,0 -1.63,7.15 -1.63,7.44 0,0.29 -0.5,6.8 -1.06,7.51 -0.57,0.71 -1.13,4.25 -0.92,5.31 0.21,1.06 -0.36,5.03 -0.36,5.03 -2.34,1.91 -3.54,8.43 -3.54,8.43 0,0 -3.69,7.31 -3.98,8.15 -0.29,0.84 0.08,2.99 1.21,3.69z"/>
   <path class="fil2" d="M201.99 60.75c0.86,1.28 3.35,3.06 3.35,3.06l7.18 -6.07c-0.7,-0.63 -0.91,-1.91 -0.97,-2.98 -0.07,-1.28 -1.77,-0.64 -1.77,-0.64l0.21 0.26c0.16,0.2 0.24,0.45 0.24,0.7 0,0.4 -0.21,0.77 -0.55,0.98l-7.69 4.68z"/>
   <path class="fil14" d="M201.99 60.47c0.86,1.28 3.35,3.06 3.35,3.06l7.18 -6.07c-0.7,-0.63 -0.91,-1.91 -0.97,-2.98 -0.07,-1.28 -1.77,-0.64 -1.77,-0.64l0.21 0.26c0.16,0.2 0.24,0.45 0.24,0.7 0,0.4 -0.21,0.77 -0.55,0.98l-7.69 4.69z"/>
   <path class="fil2" d="M198.67 61.42c0.93,1.11 2.24,2.37 2.18,1.74 -0.06,-0.63 0.78,-2.02 1.32,-2.65 -0.38,-0.12 -0.78,-0.18 -1.18,-0.18 -0.48,0 -0.95,0.09 -1.39,0.25 -0.38,0.19 -0.7,0.48 -0.93,0.84l0 0z"/>
   <path class="fil14" d="M198.53 61c0.93,1.11 2.24,2.37 2.18,1.74 -0.06,-0.63 0.7,-1.65 1.24,-2.28 -0.77,-0.3 -1.81,-0.58 -2.49,-0.3 -0.38,0.19 -0.7,0.48 -0.93,0.83l0 0z"/>
   <circle class="fil15" cx="200.85" cy="66.33" r="0.57"/>
   <circle class="fil15" cx="196.55" cy="81.63" r="0.57"/>
   <circle class="fil15" cx="191.69" cy="97.12" r="0.57"/>
   <circle class="fil15" cx="191.54" cy="113.98" r="0.57"/>
   <circle class="fil15" cx="198.34" cy="73.55" r="0.57"/>
   <circle class="fil15" cx="194.52" cy="89.28" r="0.57"/>
   <circle class="fil15" cx="190.79" cy="104.73" r="0.57"/>
   <circle class="fil15" cx="191.64" cy="115.87" r="0.57"/>
   <path class="fil2" d="M212.52 57.81c0,0 -0.09,-0.85 1.13,0.62 1.23,1.47 3.54,2.74 3.54,2.74 0,0 5.24,3.69 5.53,5.38 0.28,1.7 1.98,9.07 1.09,11.52 -0.9,2.45 -7.75,14.22 -7.75,14.22 0,0 1.79,2.13 1.37,4.63 -0.42,2.5 -0.95,5.95 -0.71,6.71 0.24,0.76 -0.28,2.64 0.51,3.3 0.79,0.66 1.65,1.79 -0.85,3.31 0,0 -0.47,1.28 -0.05,1.56 0.42,0.28 -6.28,3.21 -8.94,1.65 -2.66,-1.56 -7.41,-14.03 -7.51,-16.81 -0.1,-2.79 1.46,-12.01 2.31,-14.17 0.85,-2.17 3.4,-10.63 4.49,-12.52 1.09,-1.89 5.84,-12.14 5.84,-12.14z"/>
   <path class="fil10" d="M212.8 57.81c0,0 -0.09,-0.85 1.13,0.62 1.23,1.47 3.54,2.74 3.54,2.74 0,0 5.24,3.69 5.53,5.38 0.28,1.7 1.98,9.07 1.09,11.52 -0.9,2.45 -7.75,14.22 -7.75,14.22 0,0 1.79,2.13 1.37,4.63 -0.42,2.5 -0.95,5.95 -0.71,6.71 0.24,0.76 -0.28,2.64 0.51,3.3 0.79,0.66 1.65,1.79 -0.85,3.31 0,0 -0.47,1.28 -0.05,1.56 0.42,0.28 -6.28,3.21 -8.94,1.65 -2.66,-1.56 -7.41,-14.03 -7.51,-16.81 -0.1,-2.79 1.46,-12.01 2.31,-14.17 0.85,-2.17 3.4,-10.63 4.49,-12.52 1.09,-1.89 5.83,-12.14 5.83,-12.14z"/>
   <path class="fil2" d="M214.69 65.85c0,0 -4.06,4.49 -3.92,7.46 0,0 -0.05,-4.82 3.92,-7.46z"/>
   <path class="fil2" d="M209.07 73.22c0,0.14 -2.74,10.34 -2.6,11.62 0.14,1.28 -0.8,5.05 -0.8,5.05l-1.28 -0.33c0,0 0.99,-5.24 1.18,-7.18 0.19,-1.94 3.5,-9.16 3.5,-9.16z"/>
   <path class="fil2" d="M207.98 102.32c0.09,0.14 6.47,7.37 4.68,7.89 -1.8,0.52 -4.68,-7.89 -4.68,-7.89z"/>
   <path class="fil2" d="M213.22 100.47c0.14,0.09 2.55,5.2 2.83,3.83 0.28,-1.36 -2.08,3.73 -2.45,-0.05l-0.38 -3.79z"/>
   <path class="fil2" d="M200.98 59.43c0,0 -2.63,-1.61 -5.94,2.5 0,0 -2.41,1.37 -3.12,1.7 -0.71,0.33 -1.51,9.12 -1.51,9.12 0,0 -1.56,3.78 -1.13,5.95 0.42,2.17 -1.23,9.64 -1.23,9.64 0,0 -2.74,13.41 -2.65,13.79 0.09,0.38 2.79,-4.2 2.74,-6.47 -0.05,-2.27 2.27,-9.35 2.6,-9.78 0.33,-0.43 2.6,-12.56 2.6,-12.56 0,0 1.84,-5.15 3.02,-6.85 1.18,-1.7 2.65,-4.91 3.26,-5.48 0.44,-0.38 0.93,-0.7 1.46,-0.95l-0.1 -0.61z"/>
   <path class="fil10" d="M201.01 59.43c0,0 -2.95,-1.61 -6.26,2.5 0,0 -2.41,1.37 -3.12,1.7 -0.71,0.33 -1.51,9.12 -1.51,9.12 0,0 -1.56,3.78 -1.13,5.95 0.42,2.17 -1.23,9.64 -1.23,9.64 0,0 -2.74,13.41 -2.65,13.79 0.09,0.38 2.79,-4.2 2.74,-6.47 -0.05,-2.27 2.27,-9.35 2.6,-9.78 0.33,-0.43 2.61,-12.56 2.61,-12.56 0,0 1.84,-5.15 3.02,-6.85 1.18,-1.7 2.65,-4.91 3.26,-5.48 0.61,-0.57 1.75,-0.95 1.75,-0.95l-0.08 -0.61z"/>
   <path class="fil9" d="M188.05 88.95c0,0 -5.62,-3.68 -8.34,-1.86 -2.72,1.82 -7.15,4.39 -2.79,6.26 4.36,1.86 10.41,1.51 10.41,1.51l0.71 -5.9z"/>
   <path class="fil2" d="M191.96 124.49c0.84,1.79 1.53,10.83 2,13.69 0.67,-1.15 1.48,-2.53 1.76,-2.96 0.35,-0.55 1.19,-2.87 1.65,-4.21 -0.53,-1.3 -2.01,-5.02 -2.01,-6.39 0,-1.67 -2.69,-3.75 -2.69,-3.75 0,0 -1.7,1.49 -0.71,3.62z"/>
   <path class="fil2" d="M210.02 152.23c0,0 -6.23,-2.66 -8.08,-0.77 -1.84,1.89 8.08,0.77 8.08,0.77z"/>
   <path class="fil2" d="M206.52 153.29c0,0 6.31,3.54 4.15,4.14 -2.16,0.59 -4.15,-4.14 -4.15,-4.14z"/>
   <path class="fil2" d="M187.67 150.21c0,0 2.69,0.18 1.67,0.71 -1.03,0.53 -1.67,-0.71 -1.67,-0.71z"/>
   <path class="fil2" d="M184.3 151.03c0.04,0.18 7.83,2.69 6.31,3.83 -1.52,1.14 -6.31,-3.83 -6.31,-3.83z"/>
   <path class="fil2" d="M209.1 172.71c-1.17,-0.18 -7.69,-3.19 -5.14,-1.02 2.55,2.17 5.14,1.02 5.14,1.02z"/>
   <path class="fil2" d="M205.88 175.08c0,0 -0.57,2.2 -2.73,1.91 -2.16,-0.28 2.73,-1.91 2.73,-1.91z"/>
   <path class="fil2" d="M207.68 179.54c-0.39,-0.1 -5.03,-2.23 -5.14,-1.24 -0.1,0.99 4.43,2.73 4.78,2.2 0.2,-0.28 0.33,-0.61 0.35,-0.96l0 0z"/>
   <path class="fil2" d="M192.66 177c-0.57,-0.04 -5.87,-1.74 -6.94,-0.21l6.94 0.21z"/>
   <path class="fil2" d="M187.85 177.99c0,0 -0.92,-0.81 -1.84,-0.39 -0.92,0.42 1.84,0.39 1.84,0.39z"/>
   <path class="fil2" d="M199.61 186.77c-0.12,0.61 -0.59,1.1 -1.21,1.24l1.21 -1.24z"/>
   <path class="fil12" d="M172.58 190.1c0.36,1.45 5.32,1.59 7.69,1.21 2.37,-0.39 7.3,-1.81 7.3,-1.81 0,0 5.17,-0.5 6.69,-1.13 1.52,-0.64 0.32,-2.27 0.32,-2.27 0,0 0,-0.06 0,-0.15 0.04,-0.59 0.14,-2.74 -0.22,-3.32 -0.42,-0.67 -0.18,-2.87 -0.18,-2.87 0,0 -7.33,1.42 -7.48,0.75 -0.14,-0.67 -1.28,-1.63 -1.81,-1.84 -0.53,-0.21 -0.92,1.77 -0.92,1.77 0,0 -3.32,2.84 -3.54,3.86 -0.22,1.03 -2.55,1.56 -2.55,1.56 0,0 -3.54,0.99 -4.46,1.49 -0.54,0.26 -0.92,0.78 -0.98,1.38 -0.01,0.1 -0.01,0.21 -0.01,0.32 0,0.36 0.05,0.73 0.15,1.07l0 0z"/>
   <path class="fil2" d="M172.58 190.1c0.36,1.45 5.32,1.59 7.69,1.21 2.37,-0.39 7.3,-1.81 7.3,-1.81 0,0 5.17,-0.5 6.69,-1.13 1.52,-0.64 0.32,-2.27 0.32,-2.27 0,0 0,-0.06 0,-0.15l-7.41 1.64c0,0 -3.65,1.56 -5.99,1.56 -2.04,0 -6.62,0.84 -8.74,-0.43 -0.01,0.11 -0.02,0.23 -0.02,0.34 0,0.35 0.05,0.71 0.15,1.05l0 0z"/>
   <path class="fil2" d="M182.6 184.5c0,0 0.35,2.34 1.77,3.12l-1.77 -3.12z"/>
   <path class="fil2" d="M191.9 45.37c0.14,0.07 0.28,0.13 0.42,0.18 0.66,0.18 1.31,-0.27 1.9,-0.63 0.59,-0.36 1.41,-0.62 1.92,-0.16 0.67,0.61 0.18,1.9 0.87,2.48 0.43,0.37 1.12,0.24 1.61,0.55 0.48,0.3 0.63,0.97 0.75,1.54 0.12,0.57 0.37,1.23 0.93,1.4 0.56,0.17 1.09,-0.2 1.64,-0.18 0.12,0 0.26,0.02 0.33,-0.06 0.04,-0.06 0.06,-0.12 0.06,-0.19 0,-0.02 -0,-0.04 -0.01,-0.06 -0.02,-0.18 -0.03,-0.37 -0.03,-0.55 0,-0.51 0.07,-1.01 0.21,-1.5 0.23,-0.65 0.77,-1.24 1.44,-1.35 0.99,-0.15 1.83,0.72 2.41,1.53 0.61,0.86 1.18,1.77 1.68,2.7 0.03,0.06 0.06,0.12 0.08,0.19 0.49,-1.1 0.74,-2.29 0.74,-3.5 0,-4.77 -3.87,-8.64 -8.64,-8.64 -3.86,0 -7.25,2.56 -8.31,6.27l0 -0.01z"/>
   <path class="fil16" d="M206.36 48.23c-0.58,-0.82 -1.42,-1.69 -2.42,-1.53 -0.68,0.11 -1.21,0.7 -1.44,1.35 -0.14,0.48 -0.21,0.98 -0.21,1.48 0,0.19 0.01,0.37 0.03,0.56 0,0.02 0,0.04 0,0.06 0,0.07 -0.02,0.14 -0.06,0.2 -0.08,0.08 -0.21,0.07 -0.33,0.07 -0.55,-0.02 -1.11,0.34 -1.64,0.18 -0.53,-0.16 -0.81,-0.82 -0.93,-1.4 -0.12,-0.57 -0.26,-1.23 -0.75,-1.54 -0.5,-0.31 -1.17,-0.18 -1.61,-0.55 -0.69,-0.58 -0.2,-1.88 -0.87,-2.48 -0.51,-0.46 -1.33,-0.2 -1.92,0.16 -0.59,0.36 -1.24,0.8 -1.91,0.63 -0.23,-0.06 -0.43,-0.19 -0.65,-0.27 -1.05,-0.4 -2.41,0.28 -3.27,-0.44 -0.31,-0.31 -0.54,-0.7 -0.65,-1.13 -0.24,-0.58 -0.4,-1.19 -0.48,-1.81 -0.01,-0.1 -0.02,-0.19 -0.02,-0.29 0,-0.53 0.17,-1.05 0.5,-1.47 0.56,-0.66 1.51,-0.83 2.23,-1.32 0.61,-0.42 1.02,-1.05 1.43,-1.68 0.4,-0.63 0.79,-1.28 1.38,-1.72 0.59,-0.44 1.42,-0.66 2.08,-0.33 0.21,0.14 0.44,0.25 0.68,0.32 0.01,0 0.01,0 0.02,0 0.26,0 0.51,-0.07 0.74,-0.21 2.46,-1.16 5.32,-0.95 8.01,-0.61 1.08,0.14 2.17,0.3 3.16,0.77 0.98,0.47 1.85,1.28 2.13,2.33 0.22,0.83 0.05,1.74 0.32,2.55 0.18,0.56 0.55,1.02 0.77,1.58 0.57,1.49 -0.11,3.13 -0.4,4.71 -0.32,1.72 -0.16,3.58 -0.89,5.21 -0.14,0.32 -0.3,0.88 -0.66,0.67 -0.26,-0.16 -0.53,-1.06 -0.68,-1.35 -0.5,-0.93 -1.07,-1.83 -1.69,-2.69l-0 -0z"/>
   <path class="fil2" d="M221.93 75.92l1.28 3.64c0,0 -3.02,11.24 -4.44,13.6 -1.42,2.36 -3.49,5.38 -3.49,5.38 0,0 -3.49,1.75 -7.56,0.95 -4.06,-0.8 -15.92,-2.93 -15.92,-2.93 0,0 -0.99,0.19 -1.51,-0.57 -0.52,-0.76 -3.22,-1.14 -3.22,-1.14 0,0 -3.12,-4.53 0.71,-6.42 0,0 0.47,1.04 2.5,0.33 2.03,-0.71 2.64,0.56 2.64,0.56 0,0 3.32,0.66 5.15,0.43 1.83,-0.24 6.42,-0.33 6.9,-0.71 0.11,-0.1 0.25,-0.15 0.4,-0.15 0.17,0 0.33,0.07 0.45,0.2 0.11,0.13 1.13,-0.42 1.51,-0.85 0.38,-0.43 0.9,0.47 0.9,0.47 0,0 0.66,-0.38 0.47,-0.85 -0.19,-0.47 0.61,-2.27 0.61,-2.27 0,0 0.38,-1.18 0.14,-2.13 -0.24,-0.94 1.18,-4.34 1.18,-4.34 0,-0.06 0,-0.13 0,-0.19 0,-0.51 -0.07,-1.02 -0.19,-1.51 -0.24,-0.85 1.79,-2.55 1.79,-2.55 0,0 1.98,-9.64 6.19,-6.47 4.2,3.17 3.51,7.52 3.51,7.52z"/>
   <path class="fil10" d="M222.2 75.92l1.28 3.64c0,0 -3.02,11.24 -4.44,13.6 -1.42,2.36 -3.49,5.38 -3.49,5.38 0,0 -3.49,1.75 -7.56,0.95 -4.06,-0.8 -15.92,-2.93 -15.92,-2.93 0,0 -0.99,0.19 -1.51,-0.57 -0.52,-0.76 -3.22,-1.14 -3.22,-1.14 0,0 -3.12,-4.53 0.71,-6.42 0,0 0.47,1.04 2.5,0.33 2.03,-0.71 2.64,0.56 2.64,0.56 0,0 3.32,0.66 5.15,0.43 1.83,-0.24 6.42,-0.33 6.9,-0.71 0.11,-0.1 0.25,-0.15 0.4,-0.15 0.17,0 0.33,0.07 0.45,0.2 0.11,0.13 1.13,-0.42 1.51,-0.85 0.38,-0.43 0.9,0.47 0.9,0.47 0,0 0.66,-0.38 0.47,-0.85 -0.19,-0.47 0.61,-2.27 0.61,-2.27 0,0 0.38,-1.18 0.14,-2.13 -0.24,-0.94 1.18,-4.34 1.18,-4.34 0,-0.06 0,-0.13 0,-0.19 0,-0.51 -0.07,-1.02 -0.19,-1.51 -0.24,-0.85 1.79,-2.55 1.79,-2.55 0,0 1.98,-9.64 6.19,-6.47 4.2,3.17 3.5,7.52 3.5,7.52z"/>
   <path class="fil2" d="M191.5 91.12c0.05,0.33 1.09,1.65 0.71,1.89 -0.38,0.24 -0.99,0.09 -0.42,0.85 0.57,0.76 0.51,1.89 0.14,1.75 -0.37,-0.14 -0.99,-1.84 -0.99,-2.5 0,-0.66 0.57,-1.98 0.57,-1.98z"/>
   <path class="fil2" d="M205.52 90.37c0,0 0.28,3.31 2.61,4.25 2.32,0.95 -2.61,-4.25 -2.61,-4.25z"/>
   <path class="fil2" d="M210.34 89.23c0.14,0.05 3.31,1.75 1.89,2.74 -1.42,0.99 -1.89,-2.74 -1.89,-2.74z"/>
   <path class="fil2" d="M210.53 86.87c0,0 4.63,0.95 3.06,1.75 -1.56,0.8 -3.06,-1.75 -3.06,-1.75z"/>
   <g>
    <path class="fil3" d="M202.51 47.23c0.23,-0.65 0.77,-1.24 1.44,-1.35 1,-0.15 1.83,0.72 2.42,1.53 0.61,0.86 1.18,1.77 1.67,2.7 0.15,0.28 0.41,1.19 0.68,1.34 0.36,0.21 0.51,-0.35 0.66,-0.67 0.73,-1.62 0.57,-3.49 0.89,-5.21 0.19,-1 0.53,-2.04 0.61,-3.04 0.11,1.24 -0.38,2.54 -0.61,3.79 -0.32,1.72 -0.16,3.58 -0.89,5.21 -0.14,0.32 -0.3,0.88 -0.66,0.67 -0.26,-0.16 -0.53,-1.06 -0.68,-1.34 -0.5,-0.93 -1.06,-1.84 -1.68,-2.7 -0.58,-0.82 -1.42,-1.69 -2.42,-1.53 -0.68,0.1 -1.21,0.7 -1.44,1.35 -0.11,0.34 -0.18,0.7 -0.19,1.06 -0.01,-0.13 -0.02,-0.27 -0.02,-0.41 0,-0.48 0.07,-0.95 0.21,-1.41l-0 0z"/>
    <path class="fil3" d="M187.75 42.74c0.11,0.43 0.34,0.82 0.65,1.13 0.86,0.72 2.22,0.04 3.27,0.44 0.22,0.08 0.42,0.21 0.65,0.27 0.67,0.18 1.32,-0.27 1.91,-0.63 0.59,-0.36 1.41,-0.62 1.92,-0.16 0.67,0.6 0.18,1.9 0.87,2.48 0.43,0.37 1.12,0.26 1.61,0.55 0.48,0.29 0.63,0.97 0.75,1.53 0.12,0.56 0.37,1.23 0.93,1.4 0.56,0.17 1.09,-0.2 1.64,-0.18 0.12,0 0.26,0.02 0.33,-0.07 0.02,-0.02 0.03,-0.05 0.04,-0.07 0,0.19 0,0.38 0.02,0.57 0,0.02 0.01,0.04 0.01,0.06 0,0.07 -0.02,0.14 -0.06,0.2 -0.08,0.08 -0.21,0.07 -0.33,0.06 -0.55,-0.02 -1.11,0.34 -1.64,0.18 -0.53,-0.16 -0.81,-0.82 -0.93,-1.4 -0.12,-0.58 -0.26,-1.23 -0.75,-1.53 -0.5,-0.3 -1.17,-0.18 -1.61,-0.55 -0.69,-0.59 -0.2,-1.88 -0.87,-2.48 -0.51,-0.46 -1.33,-0.2 -1.92,0.16 -0.59,0.36 -1.24,0.8 -1.91,0.63 -0.23,-0.06 -0.43,-0.19 -0.65,-0.27 -1.05,-0.4 -2.41,0.28 -3.27,-0.44 -0.31,-0.31 -0.54,-0.71 -0.65,-1.13 -0.24,-0.58 -0.4,-1.18 -0.48,-1.8 -0.01,-0.08 -0.01,-0.16 -0.01,-0.25 0,-0.13 0.01,-0.26 0.03,-0.39 0.09,0.58 0.24,1.14 0.46,1.68l0 0z"/>
   </g>
   <path class="fil5" d="M25.49 185.59c0,0 -10.8,-0.65 -9.53,6.91 0,0 -0.26,1.34 0.96,1.95 0,0 0.02,-0.56 1.11,-0.37 0.28,0.05 0.56,0.07 0.84,0.07 0.11,0 0.22,-0 0.33,-0.01 0.53,-0.04 1.03,-0.25 1.43,-0.59l0 0c0,0 3.04,-1.25 4.22,-6.22 0,0 0.87,-1.08 0.84,-1.36l-1.82 0.77c0,0 0.62,1.32 0.13,2.41 0,0 -0.06,-2.36 -0.41,-2.3 -0.07,0 -0.95,0.45 -0.95,0.45 0,0 1.07,2.3 0.26,3.96 0,0 0.31,-2.82 -0.6,-3.79l-1.28 0.75c0,0 1.25,2.36 0.4,4.3 0,0 0.22,-2.96 -0.67,-4.11l-1.16 0.91c0,0 1.18,2.33 0.46,3.93 0,0 -0.09,-3.45 -0.71,-3.71 0,0 -1.02,0.9 -1.17,1.28 0,0 0.8,1.69 0.3,2.59 0,0 -0.31,-2.3 -0.56,-2.3 0,0 -1.02,1.52 -1.12,2.55 0,0 0.04,-1.55 0.87,-2.71 -0.58,0.11 -1.12,0.39 -1.55,0.8 -0.43,0.41 0.16,-1.08 1.8,-1.17 0,0 0.84,-1.15 1.06,-1.22 0,0 -1.63,-0.14 -2.63,0.3 0,0 0.87,-1.02 2.93,-0.55l1.15 -0.94c0,0 -2.15,-0.29 -3.07,0.03 0,0 1.05,-0.9 3.37,-0.24l1.25 -0.75c0,0 -1.83,-0.4 -2.93,-0.26 0,0 1.15,-0.62 3.29,0.05l0.89 -0.4c0,0 -1.34,-0.26 -1.74,-0.31 -0.39,-0.05 -0.42,-0.15 -0.42,-0.15 0.25,-0.04 0.51,-0.06 0.77,-0.06 0.6,0 1.2,0.12 1.76,0.34 0.56,0.23 1.9,-0.72 1.87,-0.83z"/>
   <path class="fil0" d="M25.69 195.11c0,-0.71 -3.42,-1.29 -7.64,-1.29 -4.22,0 -7.64,0.58 -7.64,1.29 0,0.71 3.42,1.29 7.64,1.29 4.22,0 7.64,-0.58 7.64,-1.29z"/>
   <path class="fil5" d="M46.19 165.65c0,0 -6.09,-0.37 -5.36,3.9 -0.01,0.06 -0.01,0.12 -0.01,0.17 0,0.39 0.21,0.74 0.56,0.92 0.34,0.18 0,-0.32 0.63,-0.21 0.16,0.03 0.32,0.04 0.48,0.04 0.06,0 0.12,-0 0.18,-0.01 0.3,-0.02 0.58,-0.14 0.81,-0.33l0 0c0,0 1.71,-0.7 2.38,-3.51 0,0 0.49,-0.61 0.47,-0.77l-1.02 0.44c0,0 0.35,0.74 0.07,1.36 0,0 -0.03,-1.33 -0.23,-1.3 -0.04,0 -0.53,0.26 -0.53,0.26 0,0 0.6,1.28 0.15,2.23 0,0 0.17,-1.59 -0.34,-2.14l-0.73 0.43c0,0 0.71,1.33 0.23,2.42 0,0 0.12,-1.67 -0.38,-2.32l-0.65 0.51c0,0 0.66,1.31 0.26,2.22 0,0 -0.05,-1.94 -0.4,-2.09 -0.25,0.21 -0.47,0.45 -0.66,0.71 -0.19,0.26 0.46,0.96 0.17,1.46 0,0 -0.17,-1.3 -0.31,-1.3 0,0 -0.57,0.86 -0.63,1.45 0.03,-0.55 0.2,-1.07 0.49,-1.53 -0.33,0.06 -0.63,0.22 -0.87,0.46 -0.24,0.23 0.09,-0.61 1.02,-0.66 0,0 0.47,-0.65 0.6,-0.69 0,0 -0.92,-0.08 -1.48,0.17 0,0 0.49,-0.57 1.65,-0.31l0.65 -0.53c0,0 -1.21,-0.17 -1.73,0.02 0,0 0.59,-0.51 1.9,-0.14l0.7 -0.42c-0.45,-0.1 -0.91,-0.15 -1.37,-0.15 -0.1,0 -0.19,0 -0.28,0.01 -0.09,0 0.65,-0.35 1.86,0.03l0.51 -0.22c0,0 -0.77,-0.15 -0.98,-0.17 -0.21,-0.02 -0.24,-0.08 -0.24,-0.08 0.14,-0.02 0.29,-0.04 0.43,-0.04 0.34,0 0.68,0.07 0.99,0.19 0.31,0.13 1.06,-0.4 1.03,-0.47z"/>
   <path class="fil0" d="M46.32 171.01c0,-0.4 -1.93,-0.73 -4.31,-0.73 -2.38,0 -4.31,0.33 -4.31,0.73 0,0.4 1.93,0.73 4.31,0.73 2.38,0 4.31,-0.33 4.31,-0.73z"/>
   <path class="fil5" d="M10.27 169.35c0,0 -7.35,-0.44 -6.47,4.71 -0.01,0.07 -0.02,0.14 -0.02,0.21 0,0.47 0.26,0.9 0.67,1.11 0.41,0.22 0,-0.38 0.75,-0.26 0.18,0.03 0.37,0.05 0.56,0.05 0.08,0 0.16,-0 0.24,-0.01 0.36,-0.02 0.7,-0.17 0.98,-0.4l0 0c0,0 2.07,-0.85 2.87,-4.23 0,0 0.59,-0.74 0.57,-0.93l-1.26 0.53c0,0 0.42,0.89 0.09,1.64 0,0 -0.04,-1.6 -0.28,-1.57 -0.05,0 -0.64,0.31 -0.64,0.31 0,0 0.73,1.56 0.18,2.69 0,0 0.21,-1.92 -0.41,-2.58l-0.87 0.51c0,0 0.85,1.61 0.27,2.92 0,0 0.15,-2.02 -0.46,-2.81l-0.79 0.62c0,0 0.8,1.59 0.31,2.68 0,0 -0.06,-2.35 -0.48,-2.52 0,0 -0.69,0.61 -0.8,0.86 0,0 0.55,1.15 0.21,1.76 0,0 -0.21,-1.56 -0.38,-1.57 0,0 -0.69,1.04 -0.77,1.75 0.03,-0.66 0.24,-1.29 0.6,-1.84 -0.4,0.07 -0.77,0.27 -1.06,0.55 -0.29,0.28 0.11,-0.73 1.23,-0.8 0,0 0.57,-0.78 0.72,-0.83 0,0 -1.11,-0.09 -1.79,0.2 0,0 0.59,-0.69 1.99,-0.38l0.78 -0.64c0,0 -1.47,-0.2 -2.09,0.02 0,0 0.72,-0.61 2.3,-0.17l0.85 -0.51c0,0 -1.25,-0.27 -1.99,-0.17 0,0 0.78,-0.42 2.24,0.04l0.61 -0.27c0,0 -0.92,-0.18 -1.18,-0.21 -0.27,-0.03 -0.28,-0.1 -0.28,-0.1 0.17,-0.03 0.35,-0.04 0.53,-0.04 0.41,0 0.81,0.08 1.19,0.23 0.38,0.15 1.3,-0.47 1.28,-0.55z"/>
   <path class="fil0" d="M10.41 175.83c0,-0.49 -2.33,-0.88 -5.2,-0.88 -2.87,0 -5.2,0.39 -5.2,0.88 0,0.49 2.33,0.88 5.2,0.88 2.87,0 5.2,-0.39 5.2,-0.88z"/>
   <path class="fil0" d="M162.87 207.82c0,-0.71 -3.42,-1.29 -7.64,-1.29 -4.22,0 -7.64,0.58 -7.64,1.29 0,0.71 3.42,1.29 7.64,1.29 4.22,0 7.64,-0.58 7.64,-1.29z"/>
   <path class="fil17" d="M150.1 201.82c0,0 4.36,-0.14 5.67,-1.07 1.31,-0.94 6.7,-2.04 7.03,-0.55 0.33,1.49 6.55,7.46 1.63,7.5 -4.92,0.04 -11.44,-0.77 -12.75,-1.57 -1.31,-0.8 -1.59,-4.31 -1.59,-4.31z"/>
   <path class="fil18" d="M164.52 207.17c-4.92,0.04 -11.44,-0.77 -12.75,-1.56 -1,-0.61 -1.4,-2.79 -1.53,-3.8l-0.15 0c0,0 0.28,3.51 1.59,4.31 1.31,0.8 7.83,1.6 12.75,1.57 1.42,0 1.91,-0.51 1.89,-1.28 -0.19,0.47 -0.74,0.75 -1.8,0.76z"/>
  </g>
 </g>
</svg>
