<?xml version="1.0" encoding="UTF-8"?>
<!DOCTYPE svg PUBLIC "-//W3C//DTD SVG 1.1//EN" "http://www.w3.org/Graphics/SVG/1.1/DTD/svg11.dtd">
<!-- Creator: CorelDRAW 2021 (64-Bit) -->
<svg xmlns="http://www.w3.org/2000/svg" xml:space="preserve" width="1.11274in" height="0.984252in" version="1.1" style="shape-rendering:geometricPrecision; text-rendering:geometricPrecision; image-rendering:optimizeQuality; fill-rule:evenodd; clip-rule:evenodd"
viewBox="0 0 2020.47 1787.16"
 xmlns:xlink="http://www.w3.org/1999/xlink"
 xmlns:xodm="http://www.corel.com/coreldraw/odm/2003">
 <defs>
  <style type="text/css">
   <![CDATA[
    .fil0 {fill:#00C4B5}
    .fil1 {fill:#2F2E41}
    .fil2 {fill:#3F3D56}
    .fil3 {fill:#F2F2F2}
    .fil4 {fill:#FFB8B8}
   ]]>
  </style>
 </defs>
 <g id="Layer_x0020_1">
  <metadata id="CorelCorpID_0Corel-Layer"/>
  <g id="_2105456976320">
   <polygon class="fil0" points="1593.05,1787.16 234.65,1310.99 620.91,209.07 2020.47,640.77 "/>
   <rect class="fil1" x="211.1" y="1780.75" width="1630.7" height="5.03"/>
   <path class="fil1" d="M1589.11 1784.57l-5.53 -2.86c71.84,-138.88 33.42,-319.22 -11.45,-446.07 -30.41,-85.2 -69.47,-167.49 -116.04,-244.93l5.26 -3.32c46.84,77.89 86.09,160.6 116.62,246.16 45.3,128.02 83.99,310.17 11.14,451.02z"/>
   <rect class="fil1" transform="matrix(0.0239157 -0.130882 0.130882 0.0239157 1602 1309.56)" width="1688.36" height="46.77"/>
   <rect class="fil1" transform="matrix(0.0974018 -0.0906372 0.0906372 0.0974019 1369.32 1281.1)" width="46.8" height="2300.52"/>
   <rect class="fil1" transform="matrix(0.0779467 -0.107826 0.107826 0.0779468 1642.97 1669.3)" width="1356.87" height="46.79"/>
   <circle class="fil2" cx="1321.81" cy="1238.52" r="31.12"/>
   <circle class="fil2" cx="1458.74" cy="1269.64" r="31.12"/>
   <circle class="fil3" cx="1396.5" cy="1391.02" r="31.12"/>
   <circle class="fil2" cx="1785.52" cy="1468.82" r="31.12"/>
   <circle class="fil3" cx="1682.82" cy="1503.05" r="31.12"/>
   <circle class="fil2" cx="1754.4" cy="1602.64" r="31.12"/>
   <circle class="fil2" cx="1427.62" cy="1036.23" r="31.12"/>
   <path class="fil1" d="M1625.58 1395.74l-4.39 -4.42c111,-110.11 129.82,-293.55 126.06,-428.04 -2.67,-90.24 -14.69,-180.71 -35.22,-268.67l6.03 -1.55c20.65,88.47 32.73,179.23 35.41,269.99 3.8,135.77 -15.31,321 -127.89,432.69z"/>
   <rect class="fil1" transform="matrix(0.0629433 -0.117219 0.117219 0.0629433 1783.69 947.61)" width="1688.36" height="46.77"/>
   <rect class="fil1" transform="matrix(0.120525 -0.0563557 0.0563556 0.120525 1570.99 849.1)" width="46.8" height="2300.52"/>
   <rect class="fil1" transform="matrix(0.107287 -0.0786877 0.0786877 0.107287 1712.24 1302.57)" width="1356.87" height="46.79"/>
   <circle class="fil3" cx="1935.25" cy="670.08" r="31.12"/>
   <circle class="fil2" cx="1538.84" cy="793.99" r="31.12"/>
   <circle class="fil2" cx="1659.61" cy="865.65" r="31.12"/>
   <circle class="fil3" cx="1563.11" cy="962.05" r="31.12"/>
   <circle class="fil2" cx="1909.45" cy="1155.53" r="31.12"/>
   <circle class="fil2" cx="1801.2" cy="1156.58" r="31.12"/>
   <circle class="fil2" cx="1838.74" cy="1273.34" r="31.12"/>
   <circle class="fil2" cx="1701.65" cy="633.96" r="31.12"/>
   <path class="fil1" d="M715.91 274.41c-13.12,-11.87 -20.62,-28.76 -20.62,-46.47 0,-13.73 4.52,-27.09 12.84,-38 -1.26,1.18 -2.49,2.41 -3.67,3.72 -10.41,11.52 -16.18,26.5 -16.18,42.03 0,34.6 28.07,62.66 62.67,62.66 17.71,0 34.61,-7.51 46.48,-20.64 1.18,-1.31 2.28,-2.66 3.32,-4.03 -11.61,10.86 -26.92,16.91 -42.81,16.91 -15.52,0 -30.5,-5.77 -42.01,-16.17l0 -0.01z"/>
   <circle class="fil1" cx="710.03" cy="160.38" r="129.05"/>
   <path class="fil1" d="M362.41 1749.27c0,0 -34.31,34.31 0,34.31 34.32,0 67.14,-22.38 67.14,-22.38l-67.14 -11.94z"/>
   <path class="fil1" d="M861.53 1727.76c0,0 -9.5,47.59 19.04,28.54 28.54,-19.05 43.43,-55.88 43.43,-55.88l-62.47 27.34z"/>
   <path class="fil4" d="M490.73 613.92l-22.38 52.22 -137.25 182.01c0,0 -93.99,101.45 -41.78,107.42 52.22,5.97 86.53,-93.99 86.53,-93.99l161.12 -159.63 17.91 -73.11 -64.15 -14.92z"/>
   <path class="fil1" d="M559.35 402.07l-21.62 6.05c0,0 -84.3,149.11 -75.35,180.44 8.96,31.33 49.23,70.11 67.14,67.13 17.9,-2.98 29.84,-253.63 29.84,-253.63z"/>
   <path class="fil4" d="M627.98 240.95c0,0 22.38,92.5 5.97,110.4 -16.41,17.9 -52.22,31.33 -52.22,31.33l5.97 167.1c0,0 68.63,-23.88 71.62,-26.86 2.98,-2.98 64.14,-99.96 64.14,-99.96l59.68 -56.7c0,0 -91,-43.26 -64.15,-117.86 26.86,-74.6 -91,-7.46 -91,-7.46z"/>
   <circle class="fil4" cx="683.18" cy="197.68" r="77.58"/>
   <path class="fil1" d="M595.15 375.22c0,0 -55.19,14.92 -58.18,35.81 -2.98,20.88 0,64.15 -4.48,73.1 -4.48,8.95 -17.9,22.38 -11.93,79.07 5.96,56.69 2.98,91 2.98,91 0,0 -302.86,1068.22 -195.44,1099.54 107.42,31.33 265.57,-2.98 264.07,-23.87 -1.49,-20.89 -28.34,-434.14 -28.34,-434.14 0,0 156.65,549.02 350.6,420.72 193.95,-128.31 150.68,-152.18 132.78,-161.13 -17.9,-8.95 -287.94,-434.14 -286.45,-513.22 1.49,-79.07 -2.98,-326.73 -35.81,-364.03 0,0 34.31,-113.38 50.73,-128.3 16.41,-14.92 56.7,-155.15 56.7,-155.15 0,0 -25.36,-34.31 -46.25,-34.31 -20.89,0 -40.28,7.46 -64.15,29.84 -23.87,22.38 -111.9,131.28 -111.9,131.28 0,0 -28.34,-125.32 -14.92,-146.2z"/>
   <ellipse class="fil1" cx="682.43" cy="128.3" rx="65.64" ry="44.76"/>
   <circle class="fil1" cx="794.33" cy="62.66" r="62.66"/>
   <path class="fil1" d="M839.09 107.42c-32.58,0 -59.73,-24.97 -62.43,-57.43 -0.14,1.72 -0.24,3.46 -0.24,5.22 0,34.6 28.07,62.66 62.67,62.66 34.6,0 62.66,-28.06 62.66,-62.66 0,-1.76 -0.09,-3.5 -0.24,-5.22 -2.7,32.46 -29.85,57.43 -62.42,57.43z"/>
   <rect class="fil2" x="0" y="631.65" width="308.58" height="308.58"/>
   <path class="fil3" d="M105.55 781.63c0,0 39.04,-5.58 52.05,-40.9 13.01,-35.32 24.17,-65.06 46.47,-59.48 22.31,5.58 9.29,76.21 9.29,76.21 0,0 46.47,-5.58 48.33,11.16 1.54,13.85 0.54,67.2 0.14,85.15 -0.09,7.26 -2.32,14.34 -6.41,20.34 -4.96,7.52 -13.38,12.05 -22.39,12.05 -1.6,0 -3.22,-0.15 -4.8,-0.44 -8.89,-1.09 -17.89,-1.67 -26.85,-1.67 -1.41,0 -2.87,0.03 -4.24,0.05 -0.38,-0.01 -0.82,0 -1.22,0 -18.2,0 -36.05,-5.25 -51.35,-15.11l0 0 -39.04 -1.86 0 -85.51z"/>
   <rect class="fil0" x="46.06" y="755.61" width="79.93" height="135.7"/>
   <path class="fil2" d="M180.45 705.76c-0.01,0 -0.04,0 -0.05,0 -2.67,0 -5.33,-0.39 -7.88,-1.14l0.54 -1.78c2.43,0.72 4.97,1.09 7.51,1.09 12.65,0 23.5,-8.99 25.86,-21.4l1.83 0.34c-2.5,13.28 -14.11,22.89 -27.62,22.89 -0.06,0 -0.12,0 -0.19,0l0 0z"/>
   <rect class="fil2" x="800.62" y="1018.24" width="308.58" height="308.58"/>
   <path class="fil3" d="M906.17 1168.22c0,0 39.04,-5.58 52.05,-40.9 13.01,-35.32 24.17,-65.06 46.47,-59.48 22.3,5.58 9.29,76.21 9.29,76.21 0,0 46.47,-5.58 48.33,11.16 1.54,13.85 0.53,67.2 0.14,85.15 -0.08,7.26 -2.31,14.34 -6.41,20.34 -4.96,7.52 -13.38,12.05 -22.39,12.05 -1.61,0 -3.22,-0.15 -4.8,-0.44 -8.89,-1.08 -17.9,-1.67 -26.85,-1.67 -1.41,0 -2.87,0.03 -4.24,0.05 -0.39,-0.01 -0.82,0 -1.22,0 -18.21,0 -36.05,-5.25 -51.35,-15.11l0 0 -39.04 -1.86 0 -85.51z"/>
   <rect class="fil0" x="846.68" y="1142.2" width="79.93" height="135.7"/>
   <path class="fil2" d="M981.07 1092.35c-0.01,0 -0.04,0 -0.05,0 -2.67,0 -5.33,-0.39 -7.88,-1.14l0.53 -1.78c2.44,0.72 4.97,1.09 7.51,1.09 12.64,0 23.5,-8.99 25.86,-21.4l1.82 0.34c-2.5,13.28 -14.1,22.89 -27.61,22.89 -0.06,0 -0.13,0 -0.19,0l0 0z"/>
   <path class="fil4" d="M836.85 600.49l-7.46 83.55 14.92 250.65c0,0 34.31,126.81 -17.9,123.83 -52.22,-2.99 -32.83,-132.78 -32.83,-132.78l-23.87 -290.93 67.14 -34.31z"/>
   <path class="fil1" d="M793.58 373.72l38.8 20.89c0,0 52.21,182.01 22.38,216.33 -29.84,34.31 -91,47.74 -93.99,34.31 -2.98,-13.43 -13.43,-113.38 -13.43,-113.38l46.24 -158.14z"/>
  </g>
 </g>
</svg>
