<?xml version="1.0" encoding="UTF-8"?>
<!DOCTYPE svg PUBLIC "-//W3C//DTD SVG 1.1//EN" "http://www.w3.org/Graphics/SVG/1.1/DTD/svg11.dtd">
<!-- Creator: CorelDRAW 2021 (64-Bit) -->
<svg xmlns="http://www.w3.org/2000/svg" xml:space="preserve" width="1.56822in" height="0.984252in" version="1.1" style="shape-rendering:geometricPrecision; text-rendering:geometricPrecision; image-rendering:optimizeQuality; fill-rule:evenodd; clip-rule:evenodd"
viewBox="0 0 687.98 431.79"
 xmlns:xlink="http://www.w3.org/1999/xlink"
 xmlns:xodm="http://www.corel.com/coreldraw/odm/2003">
 <defs>
  <style type="text/css">
   <![CDATA[
    .fil2 {fill:#00C4B5}
    .fil0 {fill:#2F2E41}
    .fil1 {fill:#3F3D56}
    .fil4 {fill:#D0CDE1}
    .fil6 {fill:#FF6584}
    .fil3 {fill:#FFB8B8}
    .fil7 {fill:white}
    .fil5 {fill:black;fill-opacity:0.200000}
   ]]>
  </style>
 </defs>
 <g id="Layer_x0020_1">
  <metadata id="CorelCorpID_0Corel-Layer"/>
  <g id="_2105468147968">
   <path class="fil0" d="M558.56 16.13c-9.09,-15.36 -27.07,-16.07 -27.07,-16.07 0,0 -17.52,-2.24 -28.76,21.15 -10.48,21.8 -24.94,42.85 -2.33,47.96l4.08 -12.71 2.53 13.66c2.1,0.15 4.23,0.23 6.35,0.23 1.1,0 2.24,-0.03 3.33,-0.06 24.21,-0.78 47.27,0.23 46.53,-8.46 -0.99,-11.55 4.09,-30.9 -4.65,-45.68z"/>
   <ellipse class="fil1" cx="512.17" cy="403.25" rx="138.97" ry="8.07"/>
   <ellipse class="fil1" cx="180.26" cy="405.11" rx="176.19" ry="8.07"/>
   <ellipse class="fil1" cx="393.05" cy="423.73" rx="156.96" ry="8.07"/>
   <path class="fil2" d="M458.35 370.45c0.57,19.58 -10.87,26.76 -25.23,27.17 -0.33,0.01 -0.66,0.02 -1,0.02l-1.98 -0.03c-12.98,-0.54 -23.26,-7.43 -23.79,-25.64 -0.55,-18.84 22.84,-43.33 24.59,-45.14l0 -0c0.07,-0.07 0.1,-0.1 0.1,-0.1 0,0 26.72,24.15 27.29,43.72z"/>
   <path class="fil1" d="M432.1 394.66l9.12 -13.56 -9.1 15.02 0.02 1.53c-0.67,0.01 -1.33,-0.01 -1.98,-0.03l0.45 -19.62 -0.01 -0.15 0.02 -0.03 0.04 -1.85 -9.99 -14.5 9.97 13.11 0.04 0.39 0.34 -14.82 -8.63 -15.03 8.65 12.43 -0.09 -30.71 0 -0.1 0 0.1 0.57 24.2 7.86 -9.83 -7.84 11.91 0.17 13.26 7.24 -12.94 -7.21 14.89 0.1 7.37 10.52 -18.02 -10.49 20.59 0.21 16.39z"/>
   <path class="fil2" d="M52 377.28c0.57,19.58 -10.87,26.75 -25.23,27.17 -0.33,0.01 -0.66,0.02 -1,0.02l-1.98 -0.03c-12.98,-0.54 -23.26,-7.43 -23.79,-25.64 -0.55,-18.84 22.83,-43.33 24.59,-45.14l0.01 -0c0.07,-0.07 0.1,-0.11 0.1,-0.11 15.09,12.58 18.2,29.15 27.3,43.73z"/>
   <path class="fil1" d="M25.74 401.48l9.12 -13.56 -9.1 15.02 0.02 1.53c-0.66,0.01 -1.32,-0.01 -1.98,-0.03l0.45 -19.62 -0.01 -0.15 0.02 -0.03 0.04 -1.85 -9.99 -14.5 9.98 13.11 0.03 0.39 0.34 -14.82 -8.63 -15.03 8.65 12.43 -0.09 -30.71 0 -0.1 0 0.1 0.57 24.2 7.86 -9.83 -7.84 11.91 0.17 13.26 7.23 -12.94 -7.21 14.89 0.09 7.37 10.52 -18.02 -10.49 20.59 0.21 16.39z"/>
   <path class="fil1" d="M636.2 388.92l45.95 -68.33 -45.86 75.69 0.1 7.69c-3.36,0.02 -6.68,-0.03 -9.97,-0.17l2.28 -98.84 -0.06 -0.76 0.08 -0.15 0.22 -9.34 -50.32 -73.06 50.26 66.07 0.18 1.97 1.72 -74.68 -43.46 -75.75 43.59 62.63 -0.45 -154.71 0 -0.52 0.02 0.51 2.88 121.93 39.61 -49.53 -39.48 60.03 0.87 66.8 36.45 -65.19 -36.32 75.01 0.48 37.14 53.01 -90.81 -52.85 103.77 1.08 82.59z"/>
   <path class="fil0" d="M504.7 161.59c0,0 -10.65,28.53 -3.83,54.09 6.81,25.55 24.7,86.46 24.7,86.46l23.85 47.27c0,0 13.63,9.37 21.72,-9.79l-21.72 -40.89 21.26 -73.87c2.54,-8.69 3.83,-17.7 3.83,-26.75 0,-5.29 -0.44,-10.59 -1.31,-15.8 -1.21,-7.02 -3.28,-14.03 -6.74,-19.43 -0.01,-0 -55.37,-8.52 -61.76,-1.28z"/>
   <path class="fil0" d="M526.85 297.03l-12.78 66.44c0,0 13.2,9.37 20.87,6.39l12.78 -48.98 -20.87 -23.85z"/>
   <path class="fil0" d="M515.77 362.19l-13.63 27.68 -5.54 11.07c0,0 -30.24,28.96 -6.39,25.98 23.85,-2.98 25.55,-7.24 25.55,-7.24l4.69 -6.81 1.28 2.55c0,0 6.82,-5.54 6.82,-7.24 0,-1.7 -2.56,-19.16 -2.56,-19.16l3.41 -20.44 -13.63 -6.39z"/>
   <path class="fil0" d="M554.53 348.99l7.24 19.59 -4.26 17.04c0,0 -16.61,22.57 0.42,21.29 17.04,-1.28 20.02,-13.63 20.02,-13.63l2.55 -8.09 2.13 0.85 6.39 -11.5 -11.92 -19.16 -8.09 -14.06 -14.48 7.67z"/>
   <path class="fil3" d="M599.68 185.44l2.55 13.2c0,0 10.65,23.85 0,24.7 -10.65,0.85 -10.65,-23.42 -10.65,-23.42l0.85 -9.8 7.24 -4.68z"/>
   <path class="fil3" d="M416.12 116.87l-14.91 -2.55c0,0 -29.39,-15.33 -28.96,-4.26 0.43,11.07 27.68,16.18 27.68,16.18l8.09 2.98 8.09 -12.35z"/>
   <circle class="fil3" cx="530.26" cy="35.1" r="19.59"/>
   <path class="fil3" d="M521.74 48.31c0,0 4.26,16.18 -3.41,19.59 -7.67,3.41 -8.52,5.96 -8.52,5.96 0,0 51.11,16.18 54.94,-2.98l-17.46 -9.8c0,0 -1.7,-13.63 -3.41,-14.48 -1.7,-0.85 -22.15,1.7 -22.15,1.7z"/>
   <path class="fil4" d="M582.69 82.24c-0.3,-1.29 -1.1,-2.41 -2.21,-3.12 -4.45,-2.86 -16.02,-10.14 -17.6,-9.29 -1.96,1.05 -16.99,8.25 -46.74,-0.89 0,0 -22.51,6.2 -28.9,10.46 -6.39,4.26 -19.74,18.01 -19.74,18.01 0,0 -60.6,9.78 -60.18,14.89 0.42,5.11 -4.34,17.37 -4.34,17.37 0,0 39.71,8.07 80.03,-8.69 0,0 12.75,29.54 11.47,35.08 -1.28,5.54 -1.28,9.37 8.94,8.52 10.22,-0.85 25.98,-3.41 34.07,-2.13 8.09,1.28 38.33,3.41 38.33,1.28l0 -13.2c0,0 9.37,46 15.33,46 5.96,0 15.2,-3.59 19.03,-17.22l-18.61 -59.56 -8.89 -37.5z"/>
   <polygon class="fil5" points="527.06,299.45 537.58,208.25 535.73,208.03 525.21,299.23 "/>
   <polygon class="fil0" points="554.54,15.35 536.78,6.05 512.24,9.85 507.17,32.27 519.8,31.79 523.33,23.55 523.33,31.65 529.16,31.43 532.55,18.31 534.66,32.27 555.39,31.85 "/>
   <path class="fil6" d="M365.4 77.24c-1.4,-1.41 -3.32,-2.21 -5.31,-2.21 -4.14,0 -7.49,3.36 -7.49,7.49 0,1.99 0.79,3.91 2.21,5.31l10.59 10.6 10.6 -10.6c1.4,-1.4 2.18,-3.3 2.18,-5.28 0,-4.14 -3.36,-7.49 -7.49,-7.49 -1.98,0 -3.88,0.78 -5.29,2.18l0 0z"/>
   <path class="fil6" d="M393.32 40.02c-1.41,-1.41 -3.32,-2.21 -5.31,-2.21 -4.14,0 -7.49,3.35 -7.49,7.49 0,1.99 0.8,3.91 2.21,5.31l10.6 10.59 10.6 -10.59c1.4,-1.4 2.18,-3.31 2.18,-5.29 0,-4.14 -3.36,-7.49 -7.49,-7.49 -1.98,0 -3.88,0.78 -5.29,2.18l0 0z"/>
   <path class="fil6" d="M352.37 5.28c-2.06,-2.07 -4.86,-3.23 -7.78,-3.23 -6.07,0 -11,4.93 -11,11 0,2.92 1.16,5.72 3.23,7.78l15.56 15.56 15.56 -15.56c2.06,-2.06 3.23,-4.86 3.23,-7.78 0,-6.07 -4.93,-11 -11,-11 -2.92,0 -5.72,1.16 -7.78,3.23l-0 0z"/>
   <rect class="fil1" x="42.53" y="155.72" width="280.42" height="248.16"/>
   <rect class="fil7" x="65.49" y="180.53" width="235.13" height="147.65"/>
   <path class="fil0" d="M202.85 329.07c0.28,-0.09 0.55,-0.17 0.83,-0.26 22.16,-7.13 37.19,-27.76 37.19,-51.04 0,-0.68 -0.02,-1.37 -0.04,-2.04 -0.21,-5.61 -1.31,-11.17 -3.26,-16.43 -7.78,-21.01 -27.82,-34.97 -50.23,-34.97 -29.05,0 -52.8,23.16 -53.54,52.2 -0.01,0.43 -0.02,0.88 -0.02,1.31 0,22.95 14.64,43.34 36.38,50.69 0.28,0.1 0.56,0.19 0.84,0.28l15.36 0 16.48 0.26z"/>
   <polygon class="fil0" points="171.85,317.71 170.17,328.53 170.13,328.81 153.67,328.81 154.96,320.47 155.85,314.81 "/>
   <polygon class="fil0" points="202.85,329.07 202.9,328.81 203.86,323.5 187.85,320.6 186.37,328.81 "/>
   <circle class="fil7" cx="191.08" cy="264.72" r="18.3"/>
   <circle class="fil1" cx="198.6" cy="258.16" r="6.1"/>
   <path class="fil2" d="M145.1 219.58c-0.8,-19.82 16.28,-36.61 38.15,-37.5 21.88,-0.89 40.26,14.46 41.07,34.28 0.8,19.82 -14.4,24.32 -36.28,25.21 -21.88,0.89 -42.14,-2.17 -42.94,-21.99z"/>
   <ellipse class="fil0" transform="matrix(0.132327 -0.0303314 0.0303314 0.132327 236.768 268.063)" rx="197.17" ry="61.9"/>
   <ellipse class="fil0" transform="matrix(0.132327 -0.0303314 0.0303314 0.132327 131.681 285.538)" rx="197.17" ry="61.9"/>
   <path class="fil7" d="M172.63 298.91c-0.13,0.72 -0.2,1.45 -0.2,2.18 0,6.74 5.46,12.2 12.2,12.2 5.9,0 10.96,-4.22 12,-10.03 1.2,-6.63 -3.92,-8.97 -10.55,-10.17 -6.63,-1.2 -12.25,-0.8 -13.45,5.83z"/>
   <rect class="fil2" x="65.49" y="350.52" width="143.93" height="8.69"/>
   <rect class="fil2" x="65.49" y="369.13" width="235.13" height="8.69"/>
  </g>
 </g>
</svg>
