<svg xmlns="http://www.w3.org/2000/svg" viewBox="0 0 335.01 308.31"><defs><style>.cls-1{fill:#2f2e41;}.cls-1,.cls-2,.cls-3,.cls-4,.cls-5{fill-rule:evenodd;}.cls-2{fill:#e6e7e8;}.cls-3{fill:#48efd7;}.cls-4{fill:#3f3d56;}.cls-5{fill:#007f73;}</style></defs><g id="Layer_2" data-name="Layer 2"><g id="OBJECTS"><g id="illustration"><path class="cls-1" d="M229,171.26c3.86,2.93,7.56,5.8,11.32,8.58A276.53,276.53,0,0,1,269.51,204,3.31,3.31,0,0,0,273,205c1.81-.5,3.6-1.12,5.38-1.7,2-.65,3.9-1.38,5.89-1.95a5.59,5.59,0,0,1,6.61,2.39c1.82,2.71,2.95,5.66,2.23,9a8.52,8.52,0,0,1-1.53,3.75,31.15,31.15,0,0,1-6.16,5.83c-5.53,3.55-11.28,6.74-17,10a13.77,13.77,0,0,1-6.33,2.11,11.23,11.23,0,0,1-7.21-2.28c-2.34-1.69-4.55-3.57-6.92-5.23q-7.6-5.34-15.33-10.53c-4.62-3.1-9.35-6-14-9.12-4.19-2.82-8.28-5.78-12.45-8.63-.4-.27-1-.18-1.58-.26.07.52,0,1.15.22,1.54q7.27,11,14.64,22c3.92,5.84,7.83,11.67,11.83,17.45,1.7,2.45,3.65,4.73,5.4,7.14,2.73,3.74,3.29,7.8,1.07,11.92-2.7,5-5.71,9.85-8.46,14.84a32.65,32.65,0,0,1-6.75,9,10.92,10.92,0,0,1-15.89-1.44,4.59,4.59,0,0,1-.78-4.3c.8-2.68,1.71-5.33,2.66-8,1.89-5.26,2-5.58-1.89-9.56-9.75-10-17.87-21.33-26.22-32.48-1.24-1.65-2.61-3.21-3.88-4.84-.47-.6-.87-.61-1.5-.21-1.43.91-2.88,1.81-4.38,2.61a9.35,9.35,0,0,1-11.46-1.33c-8.41-7.56-16.92-15-25.12-22.79-4.46-4.23-8.4-9-12.51-13.59a2.24,2.24,0,0,0-2.39-.82q-8.6,1.73-17.19,3.34c-3.07.58-6.16,1-9.23,1.62a3,3,0,0,0-1.66,1.13,4.08,4.08,0,0,1-2.87,1.9,74.72,74.72,0,0,0-7.44,1.32c-4.55,1.13-9.06,2.41-13.56,3.71a5.53,5.53,0,0,0-2.07,1.28,65.36,65.36,0,0,1-13.12,9.75c-1.71.92-3.49,1.39-5.37.28-2.2-1.29-3.19-4.33-1.78-6.43a56,56,0,0,1,4-4.85,16.93,16.93,0,0,1,1.23-1.18c-2.22.11-4.08.35-5.92.25a11.34,11.34,0,0,1-4.34-.94c-2-1-2.33-2.85-1.16-4.8a10.52,10.52,0,0,1,4.61-4.22l2-.89a10.38,10.38,0,0,1-2.14-.35,23.38,23.38,0,0,1-4-2.09C37.3,183,37,181,38.59,179.24a13.2,13.2,0,0,1,4.7-3.44,67.2,67.2,0,0,1,8.93-2.17c1-.21,2-.27,3.21-.42-.49-.72-.87-1.21-1.18-1.75A46.4,46.4,0,0,1,52,167.38c-.77-1.69-1.15-3.45.44-5a5.65,5.65,0,0,1,5.82-.78,23.24,23.24,0,0,1,7.66,5.51c2.22,2.29,1.45,2.15,4.54.92,2.43-1,4.76-2.18,7.12-3.33a4.51,4.51,0,0,1,5,.27,2.3,2.3,0,0,0,2.55.27c4.93-2.13,9.87-4.23,14.79-6.4.3-.13.46-.73.55-1.14a1.76,1.76,0,0,0-.18-.94c-1.14-2.72-.12-4.8,1.91-6.6,1.71-1.53,3.4-3.08,5.22-4.73-.72-1-1.47-2.06-2.29-3.09q-6.82-8.66-13.68-17.29c-4.23-5.33-6.13-11.54-6.86-18.19a39.49,39.49,0,0,1,4-22.33A32.85,32.85,0,0,1,97,74c9.72-4.35,16.58-6.48,26.16-4.51,3.24.67,6.72.9,9.84,1.94,7.11,2.36,12.05,7.21,17.08,12.73,3.4,3.73,6.7,7.3,10,11.12-.65-.64,1.16.49,1.45.81,1.61-1.61,4.05-4.12,5.86-5.6a4.68,4.68,0,0,1,5.5-.73A27.54,27.54,0,0,0,176,90.84c.7-1.12,1.39-2.24,2.08-3.36q3.6-5.88,7.2-11.75a2.3,2.3,0,0,0,.12-2.55,4.6,4.6,0,0,1,.49-5.05c1.71-2.56,3.3-5.19,5-7.76a1.73,1.73,0,0,0-.2-2.34c-2.2-2.68-4.24-5.49-5-9a8.7,8.7,0,0,1,0-3.9,3.56,3.56,0,0,1,5.5-2.35A39.38,39.38,0,0,1,195.66,46c.54.41,1,.92,1.63,1.5.77-2.56,1.46-5,2.24-7.36a16.15,16.15,0,0,1,4.53-7.29,9.45,9.45,0,0,1,1.68-1.19A3.33,3.33,0,0,1,210.67,33a9.42,9.42,0,0,1,1.49,6.13c1.23-1.36,2.37-2.7,3.6-4a6.86,6.86,0,0,1,1.71-1.13c3.2-1.63,5.95,0,5.86,3.64a46,46,0,0,1-.93,6.11c-.1.58-.23,1.15-.41,2.08a24,24,0,0,1,1.94-1.58c1.46-.94,2.93-1.88,4.45-2.72,2.18-1.2,4.07-.28,5.61,1.23a4.3,4.3,0,0,1,.48,5.47,17.2,17.2,0,0,1-2.53,3.59C228.77,55,225.45,58,222.23,61a6.49,6.49,0,0,0-1.58,2c-2.46,5.74-4.84,11.51-7.23,17.28a5.05,5.05,0,0,0-.49,1.43,4,4,0,0,1-3.07,3.94c-.32.09-.59.65-.73,1-3,9-6.1,17.91-9.09,26.89a2.24,2.24,0,0,0,.43,1.78c3.21,3.85,6.72,7.46,9.69,11.48,5.43,7.3,10.55,14.82,15.79,22.27,1.82,2.59,3.59,5.22,5.37,7.85a9.38,9.38,0,0,1,.07,11C230.71,169,230,170,229,171.26ZM84.51,168.57a44.63,44.63,0,0,0,2.8,13.31c.77,1.86,1.53,3.73,2.46,5.51a2,2,0,0,0,1.68.66q5.25-.77,10.47-1.75c10.43-2,20.85-4,31-7.19a37.24,37.24,0,0,1,5.62-1.3,2.49,2.49,0,0,1,1.84.76c2.49,2.64,4.82,5.43,7.33,8,4.15,4.3,8.37,8.52,12.6,12.74,1.44,1.43,1.78,1.51,3.46.4,3.44-2.28,6.93-4.53,10.18-7.07a258,258,0,0,0,24-21.32c3.93-3.94,7.84-7.89,10.52-12.87a2.79,2.79,0,0,0-.23-3.48c-2.85-3.72-5.59-7.52-8.49-11.2-3.09-3.94-6.32-7.76-9.45-11.66a2,2,0,0,1-.34-1.51,24.74,24.74,0,0,1,1.2-3.65c2.6-6.17,5.45-12.25,7.81-18.51,2.78-7.34,5.16-14.83,7.69-22.26.7-2.06.43-2.73-1.41-3.81a56.13,56.13,0,0,0-16-6.68,1.16,1.16,0,0,0-1.54.66c-1.14,2.15-2.32,4.28-3.6,6.35-5.32,8.59-10.57,17.23-16.06,25.7-4.12,6.36-8.38,12.65-12.95,18.69-5.52,7.28-12.83,12.72-20.13,18.11A61.44,61.44,0,0,1,119.27,154q-5.51,2-10.9,4.2c-7.6,3.14-15.16,6.37-22.72,9.58A5.5,5.5,0,0,0,84.51,168.57Zm86,41.28L197,243.94a23.46,23.46,0,0,0,2.16-1.24c3.72-2.62,7.52-5.12,11.08-7.94,2.9-2.31,5.49-5,8.24-7.51a1.31,1.31,0,0,0,.18-2c-2.69-4.06-5.3-8.17-8-12.23s-5.34-7.93-8-11.89a3.54,3.54,0,0,1-.7-3.36,3.33,3.33,0,0,1,4.84-1.71c2.58,1.68,5.06,3.51,7.62,5.22,6.27,4.17,12.59,8.28,18.85,12.47a1.76,1.76,0,0,0,2.59-.22c6.49-6,11.36-13.21,16-20.59a3.91,3.91,0,0,0,.3-.75L219.3,166.69a106.61,106.61,0,0,1-14.11,14.63,1.48,1.48,0,0,0-.37,1.18,3.19,3.19,0,0,1-1,3.12c-2.52,2.35-5,4.72-7.61,7a60.2,60.2,0,0,1-5.2,4.08c-.58.41-1.67.83-2.12.56-1.45-.86-2.19.09-3.08.83-.56.46-1.11,1-1.69,1.41ZM86.88,102.34c0,6.87,1.3,13.44,5.16,19.27,1.77,2.68,3.7,5.27,5.69,7.79,3.7,4.69,7.47,9.33,11.24,14,2.15,2.63,4.38,5.2,6.56,7.81a1.78,1.78,0,0,0,2.2.61,50.62,50.62,0,0,0,5.23-2.12,105.64,105.64,0,0,0,27-20.49c6.39-6.55,11.19-14.33,16-22,.81-1.3.87-2.27-.14-3.44-5.65-6.58-11.11-13.34-16.94-19.76a38.68,38.68,0,0,0-21.59-12.48c-2.25-.43-4.52-.8-6.78-1.17A26.91,26.91,0,0,0,100,74.9c-4.58,3.2-7.58,7.55-9.9,12.47A32.39,32.39,0,0,0,86.88,102.34ZM77.3,167.71l-1.37.59c-1.93.86-3.89,1.66-5.77,2.6-2.19,1.09-3.84.45-5.37-1.25a20,20,0,0,0-7-5.45,5.36,5.36,0,0,0-2.11-.44c-1.58,0-2.18.84-1.45,2.24a68.24,68.24,0,0,0,3.87,6.47c1.27,1.89,1,2.79-1.3,3.13-3.09.46-6.2.81-9.27,1.35a11.9,11.9,0,0,0-6.45,3.21c-1.18,1.16-1.17,1.79.26,2.56A11.33,11.33,0,0,0,45.14,184a46,46,0,0,0,5.64.2c.85,0,1.75,0,2,1s-.63,1.41-1.4,1.74c-2.28,1-4.63,1.83-6.8,3a15.56,15.56,0,0,0-3.5,3c-.65.67-.36,1.45.5,1.74a6.44,6.44,0,0,0,2.41.38c3.25-.19,6.5-.47,9.75-.75.85-.08,1.72-.19,2.12.77s-.32,1.42-.95,1.9a32.82,32.82,0,0,0-2.92,2.3c-1.57,1.53-3.09,3.13-4.52,4.8A2.58,2.58,0,0,0,47,206a2.12,2.12,0,0,0,3.23,1.59c4.57-2.06,8.28-5.38,12.08-8.56,1.19-1,2.32-2.33,3.71-2.74,5.58-1.68,11.25-3.05,16.89-4.54.28-.08.56-.19,1-.33C78.32,184.48,77.08,176.42,77.3,167.71ZM211.36,77.88c2.35-5.38,4.5-10.45,6.8-15.44a11.61,11.61,0,0,1,2.49-3.35c3.08-3,6.31-5.88,9.39-8.9a14.86,14.86,0,0,0,2.23-3.12,2.16,2.16,0,0,0-1.54-3.35,3.05,3.05,0,0,0-2.06.55c-2.62,2-5.12,4.14-7.72,6.15a2.59,2.59,0,0,1-1.88.63c-.89-.27-.79-1.18-.58-2,.57-2.27,1.16-4.53,1.65-6.82a25.08,25.08,0,0,0,.65-4.62c0-1.62-.91-2.16-2.23-1.26a12.8,12.8,0,0,0-3.16,3c-1.47,2.05-2.63,4.31-4,6.41-.31.47-1.09.61-1.65.9-.29-.6-.81-1.21-.8-1.81,0-1.37.36-2.73.5-4.1.21-1.91.46-3.82-.5-5.66-.84-1.61-1.39-1.81-2.83-.63a12.36,12.36,0,0,0-4,6c-.94,3-1.73,6-2.65,9-.59,1.93-1.6,2.1-3.09.75-1.8-1.62-3.65-3.19-5.58-4.66-.53-.4-1.81-.68-2-.41a5.49,5.49,0,0,0-.88,2.46,3,3,0,0,0,.29,1.19c.8,3,2.65,5.43,4.54,7.81,1.23,1.55,1.64,3.13.42,4.91-.7,1-1.28,2.12-1.93,3.17-.53.84-1.08,1.66-1.67,2.55C197.7,69.24,205.82,70.93,211.36,77.88Zm31.08,141.7c1.88,1.38,3.84,2.82,5.79,4.27,3,2.25,6,4.6,9.06,6.74a7.41,7.41,0,0,0,7.75.47,170,170,0,0,0,21.79-12.93,8.82,8.82,0,0,0,2-13,3.49,3.49,0,0,0-4.07-1.56c-.83.26-1.66.54-2.47.85-3.44,1.29-6.76,2.9-10.5,3.23a3.77,3.77,0,0,1-3.13-1c-2.22-2.08-4.47-4.11-6.71-6.15-.52-.49-1.08-.94-1.34-1.17-3,3.58-5.74,7.12-8.73,10.46S245.58,216.33,242.44,219.58Zm-38.89,32.16c.33.38.67.8,1,1.2,2.23,2.44,4.44,4.9,6.71,7.31a3.33,3.33,0,0,1,1.06,3.24c-.53,2.18-1,4.37-1.68,6.51s-1.58,4.21-2.34,6.32a3.48,3.48,0,0,0,1.45,4.11,8.92,8.92,0,0,0,13-1.82c1.33-1.86,2.57-3.8,3.74-5.78,3-5.18,6.09-10.37,9-15.63a7.82,7.82,0,0,0-.67-8.94c-2.15-2.92-4.38-5.78-6.57-8.67-1.16-1.53-2.29-3.06-3.47-4.65C218.58,241.67,211.19,246.76,203.55,251.74Zm-29.29-32.6a3.48,3.48,0,0,0-.25-.61l-11.76-14.77a1.76,1.76,0,0,0-.38-.39,17.92,17.92,0,0,1-3.14-2.06q-9.57-9.7-19-19.55c-1.44-1.51-1.62-1.64-3.68-1-3,.89-6.1,1.72-9.14,2.6-1.13.32-2.24.73-3.4,1.11a2.44,2.44,0,0,0,.24.49c4,4.34,7.67,8.95,11.93,13,8.41,7.95,17.12,15.58,25.72,23.33a6.14,6.14,0,0,0,6.57,1.19A52.24,52.24,0,0,0,174.26,219.14Zm24.18-102c-.46.89-.86,1.6-1.19,2.34-1,2.22-1.92,4.47-2.89,6.7a27.53,27.53,0,0,0-1.5,3.39,2.47,2.47,0,0,0,.35,2c5.34,7,10.79,13.82,16.1,20.79a39.52,39.52,0,0,1,2.72,5,2.58,2.58,0,0,0,.64.68q6.89,5.52,13.78,11a5.49,5.49,0,0,0,.64.39c3.37-3.51,5-7.28,1.38-12.18-4.66-6.32-9.06-12.83-13.4-19.38C210.21,130.46,204.3,124,198.44,117.09Zm-16.27,72.27c2.1,1.93,4.11,3.72,6.07,5.58a1.44,1.44,0,0,0,2.17.1c1.5-1.21,3.06-2.35,4.5-3.63,2.54-2.25,5-4.59,7.51-6.89a1.54,1.54,0,0,0,.4-2.21c-1.76-2.26-3.61-4.45-5.42-6.65ZM218,165.48l-7.31-5.85c-3.12,5.93-7.82,10.28-12.19,14.78l5.15,5.8A95.25,95.25,0,0,0,218,165.48Zm2.8,63c-6.44,7.28-14.31,12.4-22.25,17.63.74.89,1.37,1.68,2,2.43,1.5,1.71,2.1,1.84,3.92.58,2.95-2,5.95-4,8.73-6.26,3.41-2.77,6.62-5.79,9.89-8.74.29-.27.58-1,.43-1.24C222.73,231.4,221.77,230,220.79,228.47Zm-34.64-33-5.31-5.05c-5.32,4.1-10.33,8.66-16.56,11.84l3.73,4.62c1.2,1.48,1.23,1.53,2.81.36q5.88-4.35,11.69-8.76C183.74,197.57,184.9,196.54,186.15,195.5Zm68.28-1.73c-5.29,8.07-10.41,15.89-17.6,22.26.69.47,1.24.86,1.81,1.23,2,1.28,2.09,1.34,3.85-.34,2.25-2.15,4.43-4.4,6.56-6.67,3.4-3.6,6.94-7.1,9.27-11.56.2-.39.31-1.17.09-1.39C257.18,196.09,255.83,195,254.43,193.77ZM209.62,83.07c.87-1,1.42-3.35.87-3.83-3.15-2.7-5.92-5.95-10.16-7.11-1-.28-2-.7-3-1-2.65-.71-5.31-1.43-8-2a1.87,1.87,0,0,0-1.51.73c-1,1.4-.32,2.73,1.31,3.26,3.74,1.23,7.53,2.35,11.15,3.88C203.71,78.46,207.16,80,209.62,83.07ZM88.79,190.5a16.77,16.77,0,0,1-2.08-3.15c-1.31-3.52-2.61-7.06-3.57-10.68a63.07,63.07,0,0,1-1.24-8.15c-.14-1.12-.8-1.76-1.77-1.7-.38,0-.7,1.06-1,1.65a.88.88,0,0,0,0,.4c-.15,7.55,1,14.72,5.75,20.93C85.88,191.21,87,191.48,88.79,190.5Zm75-93.54,4.81,6,6.19-9.89c-1.23-.45-2.2-.85-3.2-1.15a2.38,2.38,0,0,0-1.56-.11A22.72,22.72,0,0,0,163.75,97Zm-54.81,50.48c-1.84,1.68-3.56,3.12-5.13,4.7-1.85,1.87-1.91,2.91-.55,5.47l10.52-4.68C112.16,151.09,110.65,149.39,108.94,147.44Z"/><path class="cls-2" d="M96.33,308c-7.64.09-13.94-1.14-19.43-5.27a1.8,1.8,0,0,0-1.56.09c-3.87,2.14-7.76,4.25-12.17,5a27,27,0,0,1-5.6.47c-2.34-.09-3.4-1.74-2.34-3.81a64,64,0,0,1,5.07-8.31c1.53-2.11,3.52-3.87,5.24-5.84a1.64,1.64,0,0,0,.3-1.42c-5.25-12.9-1.1-23.95,6.88-34.09a39.18,39.18,0,0,1,22.89-14.17c8.89-2,16.81.53,23.9,6a23.17,23.17,0,0,1,2.77,2.47c.68.74,1.16.62,2,.18,4-2.08,8-4.16,12-6a13.24,13.24,0,0,1,4.68-1c3.78-.19,6,3.11,3.95,6.28a96.74,96.74,0,0,1-7.46,9.69,75.27,75.27,0,0,1-5.6,5.7,2.15,2.15,0,0,0-.75,2,38.63,38.63,0,0,1-5.06,25.22c-5.59,9.37-14.29,14.27-24.81,16.2C99.33,307.8,97.34,307.87,96.33,308Zm5-66.14c-.69,0-1.38,0-2.07,0A7.34,7.34,0,0,0,98,242c-12.48,2.29-21.78,9.11-28.11,20a31.41,31.41,0,0,0-4.61,14.17c-.48,9.58,3.65,17.13,10.61,23.35a1.67,1.67,0,0,0,1.51,0c10.32-6.36,20.77-12.53,30.86-19.25,6.71-4.47,12.87-9.76,19.33-14.62a2.7,2.7,0,0,0,1-3.42,26.8,26.8,0,0,0-7.48-11.71C115.63,245.1,109.15,241.92,101.34,241.83Zm28,24.55C113.55,280.07,96,290.79,78,301.09c6.49,6,22.08,7.06,33.42,1.24C124.86,295.46,131.25,280.85,129.36,266.38Zm1.3-3.39c2.78-3,5.41-5.61,7.82-8.43a56.72,56.72,0,0,0,5-6.77c1.25-2,0-3.82-2.33-3.73a9.25,9.25,0,0,0-3.24.58c-3.45,1.48-6.85,3.09-10.23,4.72-1.09.52-2.09,1.25-3.26,2A26.42,26.42,0,0,1,130.66,263Zm-64,28.51c-2.28,2.7-4.74,5.41-7,8.31a28.69,28.69,0,0,0-2.77,5.05c-.58,1.21-.26,1.62,1.1,1.79a5.63,5.63,0,0,0,.82,0c5.85-.33,11-2.66,15.73-5.56Z"/><path class="cls-2" d="M182.16,278.79a5,5,0,0,1-.76.36c-4.76,1.4-6.78,5-7.68,9.52-.35,1.8-.55,3.63-.95,5.42-.12.53-.67,1-1,1.45-.4-.44-1-.8-1.15-1.31-.71-1.89-1.22-3.86-2-5.74a13.54,13.54,0,0,0-5.13-6.5,30.63,30.63,0,0,0-3.88-1.67c-.46-.22-.77-.75-1.14-1.13.37-.34.68-.85,1.12-1a9.55,9.55,0,0,0,6.71-7.53c.49-2.52.75-5.09,1.22-7.61.11-.57.66-1.06,1-1.58a6.84,6.84,0,0,1,1.13,1.48c1.28,3.13,2.4,6.34,3.78,9.44a6.79,6.79,0,0,0,4.39,3.54c1.13.36,2.31.62,3.44,1C182.24,277.2,182.66,278.07,182.16,278.79Zm-10.73,11.7c1-5,2.28-9.72,7.41-12.33-6.33-1.29-7.89-6.53-9.92-11.47-.56,5.1-1.86,9.68-6.83,12.38C167.05,281.51,169.78,285.54,171.43,290.49Z"/><path class="cls-2" d="M268,122.3a7.24,7.24,0,0,1-1.37.74c-4.94,1.13-7.24,4.65-8.39,9.22-.43,1.74-.77,3.5-1.29,5.22-.15.5-.74.88-1.13,1.32-.34-.43-.85-.81-1-1.3-.46-1.54-.81-3.11-1.17-4.68A16.27,16.27,0,0,0,250,126a10.45,10.45,0,0,0-5-3.09c-.5-.17-.86-.77-1.28-1.18.45-.36.85-.89,1.37-1a9.59,9.59,0,0,0,6.95-6.82c.66-2.38,1.1-4.83,1.64-7.25a2.41,2.41,0,0,1,.17-.8,13.84,13.84,0,0,1,1.12-1.18,4.6,4.6,0,0,1,.91,1.19c.95,3,1.81,6,2.75,8.94a7.8,7.8,0,0,0,5.19,5.12,20.9,20.9,0,0,1,2.72,1C267.05,121.09,267.4,121.67,268,122.3Zm-20.81-.52a12.56,12.56,0,0,1,5.64,5.17c1.2,2.12,2.14,4.39,3.17,6.55.83-2.13,1.66-4.43,2.62-6.68s3.16-3.65,5.77-5c-6.56-1.64-7.75-6.94-9.46-12C254,114.86,252.44,119.37,247.19,121.78Z"/><path class="cls-2" d="M111,214.62c-3.79-.07-6-2.46-5.93-6.39.08-3.35,2.49-5.84,5.57-5.76a6.29,6.29,0,0,1,6.32,6.29C116.88,212.56,114.71,214.69,111,214.62Zm0-1.73c2.71.06,4.14-1.32,4.24-4.09a4.56,4.56,0,0,0-4.66-4.58c-1.94,0-3.72,1.93-3.75,4.13C106.77,211.17,108.3,212.84,111,212.89Z"/><path class="cls-2" d="M40.64,242.88c-.19-2.1-.4-4-.51-5.92a4.07,4.07,0,0,1,.48-1.38c.41.4,1.12.74,1.19,1.19.3,1.94.41,3.91.62,6.1,1.93-.17,3.83-.38,5.73-.46.47,0,1,.35,1.43.55-.42.39-.81,1-1.28,1.12-1.85.28-3.74.39-5.82.58.05,1.16.11,2.33.16,3.5,0,.5.09,1,.1,1.51,0,.7.27,1.68-.78,1.68-.32,0-.82-1-.94-1.64a23.62,23.62,0,0,1-.21-3.16c0-.54-.1-1.08-.18-1.83l-4.37.23A3.68,3.68,0,0,1,35,245a6.32,6.32,0,0,1-1.31-.69c.41-.34.78-.91,1.23-1,1.27-.2,2.56-.19,3.84-.27C39.33,243,39.87,243,40.64,242.88Z"/><path class="cls-2" d="M100.51,31c2-.19,3.9-.4,5.77-.49.45,0,.93.39,1.39.6-.39.37-.74,1-1.18,1.07-1.9.28-3.82.4-5.94.59.08,1.51.16,3,.24,4.5a4.21,4.21,0,0,1,0,1.22,4.05,4.05,0,0,1-.69,1c-.33-.31-.89-.59-.94-.94-.2-1.31-.22-2.65-.31-4,0-.54-.09-1.09-.15-1.8L94.17,33a3.67,3.67,0,0,1-1.23,0,4.63,4.63,0,0,1-1.13-.73c.33-.32.63-.86,1-.91,1.31-.18,2.65-.2,4-.29.58,0,1.16-.1,1.92-.17-.17-2-.37-3.84-.44-5.71,0-.52.23-1.48.49-1.53,1-.19,1.14.67,1.22,1.42C100.16,27,100.32,28.88,100.51,31Z"/><path class="cls-2" d="M279.42,53.32c2,0,3.84,0,5.71,0,.46,0,.91.45,1.36.69-.42.34-.82,1-1.25,1-1.92.1-3.84,0-6.14,0v4.27a3.86,3.86,0,0,1-.05,1.23,6.83,6.83,0,0,1-.79,1.24c-.31-.42-.83-.83-.88-1.29a25.67,25.67,0,0,1,0-3.16c0-.72,0-1.45,0-2.52-1.79,0-3.46,0-5.14,0-.7,0-1.7.17-1.61-.89,0-.33,1.09-.75,1.71-.8a29.38,29.38,0,0,1,4,.07c.88,0,1.26-.23,1.24-1.15,0-1.61-.07-3.21,0-4.82,0-.45.47-.89.72-1.33.33.42.92.83.95,1.28.11,1.78,0,3.57.05,5.36A6.73,6.73,0,0,0,279.42,53.32Z"/><path class="cls-2" d="M274.46,281c2,0,3.89,0,5.76,0a4.18,4.18,0,0,1,1.4.64c-.44.36-.87,1-1.34,1-1.91.11-3.83,0-6.07,0,0,1.77,0,3.4,0,5,0,.69.19,1.7-.89,1.6-.33,0-.75-1.09-.8-1.7-.11-1.59,0-3.2,0-5.18h-5.16a2.22,2.22,0,0,1-1.07-.15c-.25-.15-.57-.71-.49-.81a1.66,1.66,0,0,1,1-.72,40.39,40.39,0,0,1,4.54.06c1.1.08,1.48-.3,1.44-1.38-.07-1.51-.08-3,0-4.54,0-.47.43-.92.67-1.38.35.45,1,.89,1,1.36C274.52,276.82,274.46,278.75,274.46,281Z"/><path class="cls-2" d="M320.24,181.94c1.48,0,2.85,0,4.22,0,.34,0,.68.31,1,.47-.33.26-.64.73-1,.75-1.4.08-2.8,0-4.44,0,0,1.3,0,2.49,0,3.69,0,.51.14,1.25-.65,1.17-.24,0-.55-.8-.58-1.24-.08-1.17,0-2.34,0-3.79H315a1.67,1.67,0,0,1-.78-.1c-.18-.12-.41-.53-.36-.6a1.21,1.21,0,0,1,.75-.53,30.69,30.69,0,0,1,3.32,0c.8.06,1.08-.22,1-1-.05-1.11-.06-2.22,0-3.32a3,3,0,0,1,.49-1c.26.33.71.65.73,1C320.29,178.91,320.24,180.32,320.24,181.94Z"/><path class="cls-2" d="M236.86,4.82c1.31,0,2.53,0,3.74,0a2.57,2.57,0,0,1,.91.42c-.29.23-.57.65-.87.67-1.24.07-2.49,0-3.94,0,0,1.15,0,2.21,0,3.27,0,.45.13,1.11-.58,1-.21,0-.49-.71-.52-1.1-.07-1,0-2.08,0-3.37h-3.36a1.57,1.57,0,0,1-.69-.1c-.16-.1-.37-.46-.32-.53a1.11,1.11,0,0,1,.66-.47,29,29,0,0,1,2.95,0c.71,0,1-.19.93-.89,0-1-.05-2,0-2.95a2.59,2.59,0,0,1,.44-.9c.22.3.63.58.64.89C236.9,2.13,236.86,3.39,236.86,4.82Z"/><path class="cls-2" d="M329.77,32.6c1.48,0,2.85,0,4.21,0a2.88,2.88,0,0,1,1,.47c-.33.26-.64.72-1,.75-1.4.08-2.81,0-4.44,0,0,1.3,0,2.49,0,3.69,0,.51.14,1.24-.65,1.17-.24,0-.55-.8-.58-1.25-.09-1.16,0-2.33,0-3.78h-3.78a1.55,1.55,0,0,1-.78-.11c-.18-.11-.42-.52-.36-.59a1.22,1.22,0,0,1,.74-.53,30.61,30.61,0,0,1,3.32.05c.8,0,1.08-.23,1.05-1-.05-1.11-.06-2.22,0-3.32a3,3,0,0,1,.49-1c.26.33.71.65.73,1C329.82,29.58,329.77,31,329.77,32.6Z"/><path class="cls-2" d="M38.47,88.35c1.48,0,2.85,0,4.22,0a2.91,2.91,0,0,1,1,.47c-.33.26-.64.72-1,.75-1.4.08-2.8,0-4.44,0,0,1.3,0,2.49,0,3.69,0,.51.14,1.24-.65,1.17-.24,0-.55-.8-.58-1.25-.08-1.16,0-2.33,0-3.78H33.25a1.57,1.57,0,0,1-.79-.11c-.18-.11-.41-.52-.36-.59a1.21,1.21,0,0,1,.75-.53,30.69,30.69,0,0,1,3.32,0c.8,0,1.08-.23,1-1-.05-1.11-.06-2.22,0-3.32a3,3,0,0,1,.49-1c.26.33.71.65.73,1C38.52,85.33,38.47,86.74,38.47,88.35Z"/><path class="cls-2" d="M4,171.29c.92,0,1.77,0,2.62,0,.21,0,.42.19.63.29-.2.16-.4.45-.61.46-.86.05-1.73,0-2.75,0,0,.8,0,1.55,0,2.29,0,.31.08.77-.41.73-.15,0-.34-.5-.36-.78,0-.72,0-1.45,0-2.35H.71a1,1,0,0,1-.48-.07c-.12-.06-.26-.32-.22-.37s.29-.32.46-.32a17.53,17.53,0,0,1,2.05,0c.5,0,.67-.14.65-.63,0-.68,0-1.37,0-2.06a1.9,1.9,0,0,1,.31-.62c.15.2.44.4.45.62C4,169.42,4,170.29,4,171.29Z"/><path class="cls-2" d="M18.43,44.32c.92,0,1.77,0,2.62,0a2,2,0,0,1,.63.29c-.2.16-.39.45-.61.46-.86.06-1.73,0-2.75,0,0,.81,0,1.55,0,2.29,0,.32.09.77-.41.73-.14,0-.34-.5-.36-.78-.05-.72,0-1.44,0-2.34H15.2a1.1,1.1,0,0,1-.49-.06c-.11-.07-.26-.33-.22-.37a.77.77,0,0,1,.46-.33,20.27,20.27,0,0,1,2.06,0c.49,0,.67-.14.64-.63a20.24,20.24,0,0,1,0-2.06A1.77,1.77,0,0,1,18,41c.16.21.44.4.45.62C18.46,42.45,18.43,43.32,18.43,44.32Z"/><path class="cls-2" d="M151.64,35.87a3.85,3.85,0,0,1,3.94-4.06,4.25,4.25,0,0,1,4.16,4A4.41,4.41,0,0,1,155.53,40,4,4,0,0,1,151.64,35.87Zm3.87-2.53c-1.46,0-2.35,1-2.34,2.66a2.47,2.47,0,0,0,2.47,2.46,2.88,2.88,0,0,0,2.56-2.64A2.77,2.77,0,0,0,155.51,33.34Z"/><path class="cls-2" d="M43.75,132.77a3.54,3.54,0,0,1,3.41-3.72,3.6,3.6,0,0,1,3.67,3.64,3.77,3.77,0,0,1-3.78,3.87C45.06,136.51,43.73,135,43.75,132.77Zm3.45,2a2,2,0,0,0,1.86-2.15c-.08-.95-.5-1.69-1.6-1.68-1.34,0-2,.69-2,1.93S46.17,134.83,47.2,134.79Z"/><path class="cls-3" d="M84.51,168.57a5.5,5.5,0,0,1,1.14-.79c7.56-3.21,15.12-6.44,22.72-9.58q5.4-2.23,10.9-4.2A61.44,61.44,0,0,0,135,145.24c7.3-5.39,14.61-10.83,20.13-18.11,4.57-6,8.83-12.33,12.95-18.69,5.49-8.47,10.74-17.11,16.06-25.7,1.28-2.07,2.46-4.2,3.6-6.35a1.16,1.16,0,0,1,1.54-.66,56.13,56.13,0,0,1,16,6.68c1.84,1.08,2.11,1.75,1.41,3.81-2.53,7.43-4.91,14.92-7.69,22.26-2.36,6.26-5.21,12.34-7.81,18.51a24.74,24.74,0,0,0-1.2,3.65,2,2,0,0,0,.34,1.51c3.13,3.9,6.36,7.72,9.45,11.66,2.9,3.68,5.64,7.48,8.49,11.2a2.79,2.79,0,0,1,.23,3.48c-2.68,5-6.59,8.93-10.52,12.87a258,258,0,0,1-24,21.32c-3.25,2.54-6.74,4.79-10.18,7.07-1.68,1.11-2,1-3.46-.4-4.23-4.22-8.45-8.44-12.6-12.74-2.51-2.61-4.84-5.4-7.33-8a2.49,2.49,0,0,0-1.84-.76,37.24,37.24,0,0,0-5.62,1.3c-10.13,3.24-20.55,5.23-31,7.19q-5.22,1-10.47,1.75a2,2,0,0,1-1.68-.66c-.93-1.78-1.69-3.65-2.46-5.51A44.63,44.63,0,0,1,84.51,168.57Zm108.52-21-.28-.2c-.08-.4-.14-.81-.23-1.21-.46-2.11-2-3.44-3.44-4.88-2-2-3.92-4-5.91-6-3.67-3.67-7.36-7.32-11-11a2.61,2.61,0,0,0-3.62-.38,44.69,44.69,0,0,0-4.2,3.32c-5.65,5-11.2,10.2-16.92,15.17-4.85,4.23-9.84,8.28-14.06,13.18-.88,1-1.14,1.95-.25,3,3.16,3.88,6.22,7.85,9.5,11.63s6.59,7.16,9.91,10.71a3.18,3.18,0,0,0,4,.77,11.33,11.33,0,0,0,2.18-1.15c2.19-1.74,4.42-3.45,6.46-5.36,5.24-4.89,10.35-9.92,15.57-14.83,3.34-3.15,6.84-6.14,10.14-9.33A16.45,16.45,0,0,0,193,147.57Z"/><path class="cls-3" d="M170.5,209.85l13.59-10.36c.58-.45,1.13-1,1.69-1.41.89-.74,1.63-1.69,3.08-.83.45.27,1.54-.15,2.12-.56a60.2,60.2,0,0,0,5.2-4.08c2.59-2.27,5.09-4.64,7.61-7a3.19,3.19,0,0,0,1-3.12,1.48,1.48,0,0,1,.37-1.18,106.61,106.61,0,0,0,14.11-14.63l32.89,25.49a3.91,3.91,0,0,1-.3.75c-4.69,7.38-9.56,14.61-16,20.59a1.76,1.76,0,0,1-2.59.22c-6.26-4.19-12.58-8.3-18.85-12.47-2.56-1.71-5-3.54-7.62-5.22a3.33,3.33,0,0,0-4.84,1.71,3.54,3.54,0,0,0,.7,3.36c2.67,4,5.37,7.9,8,11.89s5.3,8.17,8,12.23a1.31,1.31,0,0,1-.18,2c-2.75,2.5-5.34,5.2-8.24,7.51-3.56,2.82-7.36,5.32-11.08,7.94a23.46,23.46,0,0,1-2.16,1.24Z"/><path class="cls-3" d="M86.88,102.34a32.39,32.39,0,0,1,3.22-15c2.32-4.92,5.32-9.27,9.9-12.47a26.91,26.91,0,0,1,20.54-4.63c2.26.37,4.53.74,6.78,1.17a38.68,38.68,0,0,1,21.59,12.48c5.83,6.42,11.29,13.18,16.94,19.76,1,1.17,1,2.14.14,3.44-4.82,7.72-9.62,15.5-16,22a105.64,105.64,0,0,1-27,20.49,50.62,50.62,0,0,1-5.23,2.12,1.78,1.78,0,0,1-2.2-.61c-2.18-2.61-4.41-5.18-6.56-7.81-3.77-4.63-7.54-9.27-11.24-14-2-2.52-3.92-5.11-5.69-7.79C88.18,115.78,86.9,109.21,86.88,102.34Z"/><path class="cls-3" d="M77.3,167.71c-.22,8.71,1,16.77,6.57,23.75-.45.14-.73.25-1,.33-5.64,1.49-11.31,2.86-16.89,4.54-1.39.41-2.52,1.75-3.71,2.74-3.8,3.18-7.51,6.5-12.08,8.56A2.12,2.12,0,0,1,47,206a2.58,2.58,0,0,1,.49-1.89c1.43-1.67,3-3.27,4.52-4.8a32.82,32.82,0,0,1,2.92-2.3c.63-.48,1.35-1,.95-1.9s-1.27-.85-2.12-.77c-3.25.28-6.5.56-9.75.75a6.44,6.44,0,0,1-2.41-.38c-.86-.29-1.15-1.07-.5-1.74a15.56,15.56,0,0,1,3.5-3c2.17-1.18,4.52-2,6.8-3,.77-.33,1.63-.66,1.4-1.74s-1.12-1-2-1a46,46,0,0,1-5.64-.2,11.33,11.33,0,0,1-3.82-1.31c-1.43-.77-1.44-1.4-.26-2.56A11.9,11.9,0,0,1,47.51,177c3.07-.54,6.18-.89,9.27-1.35,2.27-.34,2.57-1.24,1.3-3.13A68.24,68.24,0,0,1,54.21,166c-.73-1.4-.13-2.2,1.45-2.24a5.36,5.36,0,0,1,2.11.44,20,20,0,0,1,7,5.45c1.53,1.7,3.18,2.34,5.37,1.25,1.88-.94,3.84-1.74,5.77-2.6Z"/><path class="cls-3" d="M211.36,77.88c-5.54-6.95-13.66-8.64-21.85-10.69.59-.89,1.14-1.71,1.67-2.55.65-1,1.23-2.15,1.93-3.17,1.22-1.78.81-3.36-.42-4.91-1.89-2.38-3.74-4.79-4.54-7.81a3,3,0,0,1-.29-1.19,5.49,5.49,0,0,1,.88-2.46c.23-.27,1.51,0,2,.41,1.93,1.47,3.78,3,5.58,4.66,1.49,1.35,2.5,1.18,3.09-.75.92-3,1.71-6,2.65-9a12.36,12.36,0,0,1,4-6c1.44-1.18,2-1,2.83.63,1,1.84.71,3.75.5,5.66-.14,1.37-.47,2.73-.5,4.1,0,.6.51,1.21.8,1.81.56-.29,1.34-.43,1.65-.9,1.4-2.1,2.56-4.36,4-6.41a12.8,12.8,0,0,1,3.16-3c1.32-.9,2.27-.36,2.23,1.26a25.08,25.08,0,0,1-.65,4.62c-.49,2.29-1.08,4.55-1.65,6.82-.21.82-.31,1.73.58,2a2.59,2.59,0,0,0,1.88-.63c2.6-2,5.1-4.15,7.72-6.15a3.05,3.05,0,0,1,2.06-.55,2.16,2.16,0,0,1,1.54,3.35A14.86,14.86,0,0,1,230,50.19c-3.08,3-6.31,5.88-9.39,8.9a11.61,11.61,0,0,0-2.49,3.35C215.86,67.43,213.71,72.5,211.36,77.88Z"/><path class="cls-3" d="M242.44,219.58c3.14-3.25,6.39-6.43,9.42-9.81s5.75-6.88,8.73-10.46c.26.23.82.68,1.34,1.17,2.24,2,4.49,4.07,6.71,6.15a3.77,3.77,0,0,0,3.13,1c3.74-.33,7.06-1.94,10.5-3.23.81-.31,1.64-.59,2.47-.85a3.49,3.49,0,0,1,4.07,1.56,8.82,8.82,0,0,1-2,13A170,170,0,0,1,265,231.06a7.41,7.41,0,0,1-7.75-.47c-3.09-2.14-6-4.49-9.06-6.74C246.28,222.4,244.32,221,242.44,219.58Z"/><path class="cls-3" d="M203.55,251.74c7.64-5,15-10.07,21.29-16.8,1.18,1.59,2.31,3.12,3.47,4.65,2.19,2.89,4.42,5.75,6.57,8.67a7.82,7.82,0,0,1,.67,8.94c-2.91,5.26-6,10.45-9,15.63-1.17,2-2.41,3.92-3.74,5.78a8.92,8.92,0,0,1-13,1.82,3.48,3.48,0,0,1-1.45-4.11c.76-2.11,1.67-4.18,2.34-6.32s1.15-4.33,1.68-6.51a3.33,3.33,0,0,0-1.06-3.24c-2.27-2.41-4.48-4.87-6.71-7.31C204.22,252.54,203.88,252.12,203.55,251.74Z"/><path class="cls-4" d="M174.26,219.14a52.24,52.24,0,0,1-6.29,3.28,6.14,6.14,0,0,1-6.57-1.19c-8.6-7.75-17.31-15.38-25.72-23.33-4.26-4-8-8.63-11.93-13a2.44,2.44,0,0,1-.24-.49c1.16-.38,2.27-.79,3.4-1.11,3-.88,6.1-1.71,9.14-2.6,2.06-.61,2.24-.48,3.68,1q9.44,9.84,19,19.55a17.92,17.92,0,0,0,3.14,2.06,1.76,1.76,0,0,1,.38.39L174,218.53A3.48,3.48,0,0,1,174.26,219.14Z"/><path class="cls-4" d="M198.44,117.09c5.86,6.9,11.77,13.37,16.63,20.71,4.34,6.55,8.74,13.06,13.4,19.38,3.6,4.9,2,8.67-1.38,12.18a5.49,5.49,0,0,1-.64-.39q-6.9-5.49-13.78-11a2.58,2.58,0,0,1-.64-.68,39.52,39.52,0,0,0-2.72-5c-5.31-7-10.76-13.84-16.1-20.79a2.47,2.47,0,0,1-.35-2,27.53,27.53,0,0,1,1.5-3.39c1-2.23,1.91-4.48,2.89-6.7C197.58,118.69,198,118,198.44,117.09Z"/><path class="cls-5" d="M182.17,189.36l15.23-13.7c1.81,2.2,3.66,4.39,5.42,6.65a1.54,1.54,0,0,1-.4,2.21c-2.5,2.3-5,4.64-7.51,6.89-1.44,1.28-3,2.42-4.5,3.63a1.44,1.44,0,0,1-2.17-.1C186.28,193.08,184.27,191.29,182.17,189.36Z"/><path class="cls-2" d="M218,165.48a95.25,95.25,0,0,1-14.35,14.73l-5.15-5.8c4.37-4.5,9.07-8.85,12.19-14.78Z"/><path class="cls-2" d="M220.79,228.47c1,1.54,1.94,2.93,2.75,4.4.15.26-.14,1-.43,1.24-3.27,2.95-6.48,6-9.89,8.74-2.78,2.25-5.78,4.22-8.73,6.26-1.82,1.26-2.42,1.13-3.92-.58-.66-.75-1.29-1.54-2-2.43C206.48,240.87,214.35,235.75,220.79,228.47Z"/><path class="cls-2" d="M186.15,195.5c-1.25,1-2.41,2.07-3.64,3q-5.82,4.41-11.69,8.76c-1.58,1.17-1.61,1.12-2.81-.36l-3.73-4.62c6.23-3.18,11.24-7.74,16.56-11.84Z"/><path class="cls-2" d="M254.43,193.77c1.4,1.22,2.75,2.32,4,3.53.22.22.11,1-.09,1.39-2.33,4.46-5.87,8-9.27,11.56-2.13,2.27-4.31,4.52-6.56,6.67-1.76,1.68-1.85,1.62-3.85.34-.57-.37-1.12-.76-1.81-1.23C244,209.66,249.14,201.84,254.43,193.77Z"/><path class="cls-2" d="M209.62,83.07c-2.46-3-5.91-4.61-9.34-6.07-3.62-1.53-7.41-2.65-11.15-3.88-1.63-.53-2.27-1.86-1.31-3.26a1.87,1.87,0,0,1,1.51-.73c2.68.59,5.34,1.31,8,2,1,.28,2,.7,3,1,4.24,1.16,7,4.41,10.16,7.11C211,79.72,210.49,82.05,209.62,83.07Z"/><path class="cls-2" d="M88.79,190.5c-1.75,1-2.91.71-4-.7-4.72-6.21-5.9-13.38-5.75-20.93a.88.88,0,0,1,0-.4c.33-.59.65-1.62,1-1.65,1-.06,1.63.58,1.77,1.7a63.07,63.07,0,0,0,1.24,8.15c1,3.62,2.26,7.16,3.57,10.68A16.77,16.77,0,0,0,88.79,190.5Z"/><path class="cls-4" d="M163.75,97A22.72,22.72,0,0,1,170,91.85a2.38,2.38,0,0,1,1.56.11c1,.3,2,.7,3.2,1.15L168.56,103Z"/><path class="cls-4" d="M108.94,147.44c1.71,1.95,3.22,3.65,4.84,5.49l-10.52,4.68c-1.36-2.56-1.3-3.6.55-5.47C105.38,150.56,107.1,149.12,108.94,147.44Z"/><path class="cls-4" d="M101.34,241.83c7.81.09,14.29,3.27,19.81,8.63a26.8,26.8,0,0,1,7.48,11.71,2.7,2.7,0,0,1-1,3.42c-6.46,4.86-12.62,10.15-19.33,14.62-10.09,6.72-20.54,12.89-30.86,19.25a1.67,1.67,0,0,1-1.51,0c-7-6.22-11.09-13.77-10.61-23.35A31.41,31.41,0,0,1,69.93,262c6.33-10.88,15.63-17.7,28.11-20a7.34,7.34,0,0,1,1.23-.13C100,241.81,100.65,241.83,101.34,241.83Zm3,32a5.83,5.83,0,0,0-3-4.51c-1.88-.85-3.36.13-3.31,2.19a4.51,4.51,0,0,0,2.42,4.06,3.33,3.33,0,0,0,2.53.28C103.64,275.63,103.92,274.58,104.35,273.87Zm-18.14.4c.05-2.15-1.5-4.13-2.79-4.07a1.31,1.31,0,0,0-1.33,1.44c-.06,1.48,1.61,3.78,2.78,3.61C85.45,275.17,85.94,274.48,86.21,274.27Zm17.09-17.71a19.42,19.42,0,0,0,2.35,3c.89.79,2,.1,2.09-1.13a3.91,3.91,0,0,0-2-3.48C104.58,254.41,103.57,255.06,103.3,256.56Z"/><path class="cls-4" d="M129.36,266.38c1.89,14.47-4.5,29.08-17.9,35.95-11.34,5.82-26.93,4.8-33.42-1.24C96,290.79,113.55,280.07,129.36,266.38Z"/><path class="cls-3" d="M171.43,290.49c-1.65-4.95-4.38-9-9.34-11.42,5-2.7,6.27-7.28,6.83-12.38,2,4.94,3.59,10.18,9.92,11.47C173.71,280.77,172.46,285.49,171.43,290.49Z"/><path class="cls-3" d="M247.19,121.78c5.25-2.41,6.82-6.92,7.74-11.93,1.71,5.06,2.9,10.36,9.46,12-2.61,1.32-4.75,2.58-5.77,5s-1.79,4.55-2.62,6.68c-1-2.16-2-4.43-3.17-6.55A12.56,12.56,0,0,0,247.19,121.78Z"/><path class="cls-3" d="M111,212.89c-2.68,0-4.21-1.72-4.17-4.54,0-2.2,1.81-4.17,3.75-4.13a4.56,4.56,0,0,1,4.66,4.58C115.12,211.57,113.69,213,111,212.89Z"/><path class="cls-3" d="M155.51,33.34a2.77,2.77,0,0,1,2.69,2.48,2.88,2.88,0,0,1-2.56,2.64A2.47,2.47,0,0,1,153.17,36C153.16,34.36,154.05,33.35,155.51,33.34Z"/><path class="cls-3" d="M47.2,134.79c-1,0-1.67-.68-1.7-1.9s.62-1.92,2-1.93c1.1,0,1.52.73,1.6,1.68A2,2,0,0,1,47.2,134.79Z"/><path class="cls-2" d="M16.15,285.09a3.53,3.53,0,0,1,3.41-3.72A3.6,3.6,0,0,1,23.23,285a3.78,3.78,0,0,1-3.79,3.86C17.46,288.83,16.13,287.3,16.15,285.09Zm3.45,2A2,2,0,0,0,21.46,285c-.08-.95-.51-1.69-1.61-1.68-1.33,0-2,.68-2,1.93S18.57,287.14,19.6,287.11Z"/><path class="cls-3" d="M19.6,287.11c-1,0-1.68-.68-1.71-1.9s.63-1.92,2-1.93c1.1,0,1.53.73,1.61,1.68A2,2,0,0,1,19.6,287.11Z"/><path class="cls-2" d="M308.2,117.62a2.77,2.77,0,0,1,2.68-2.92,2.82,2.82,0,0,1,2.88,2.86,3,3,0,0,1-3,3A2.68,2.68,0,0,1,308.2,117.62Zm2.71,1.59a1.58,1.58,0,0,0,1.46-1.69c-.06-.75-.39-1.33-1.26-1.32-1.05,0-1.57.54-1.54,1.52S310.1,119.24,310.91,119.21Z"/><path class="cls-3" d="M310.91,119.21c-.81,0-1.32-.54-1.34-1.49s.49-1.51,1.54-1.52c.87,0,1.2.57,1.26,1.32A1.58,1.58,0,0,1,310.91,119.21Z"/><path class="cls-2" d="M55.87,48.78a3.52,3.52,0,0,1,3.41-3.71A3.6,3.6,0,0,1,63,48.71a3.78,3.78,0,0,1-3.79,3.86C57.18,52.52,55.85,51,55.87,48.78Zm3.44,2a2,2,0,0,0,1.86-2.15c-.07-1-.5-1.7-1.6-1.69-1.33,0-2,.69-2,1.94S58.29,50.84,59.31,50.81Z"/><path class="cls-3" d="M59.31,50.81c-1,0-1.67-.69-1.7-1.9s.63-1.92,2-1.94c1.1,0,1.53.73,1.6,1.69A2,2,0,0,1,59.31,50.81Z"/><path class="cls-2" d="M323.71,243.84a3.53,3.53,0,0,1,3.41-3.72,3.6,3.6,0,0,1,3.67,3.64,3.78,3.78,0,0,1-3.79,3.86C325,247.58,323.69,246,323.71,243.84Zm3.45,2a2,2,0,0,0,1.86-2.15c-.08-1-.5-1.7-1.61-1.69-1.33,0-2,.69-2,1.94S326.13,245.89,327.16,245.86Z"/><path class="cls-3" d="M327.16,245.86c-1,0-1.68-.69-1.7-1.9s.62-1.92,2-1.94c1.11,0,1.53.73,1.61,1.69A2,2,0,0,1,327.16,245.86Z"/><path class="cls-1" d="M193,147.57a16.45,16.45,0,0,1-2.17,3.53c-3.3,3.19-6.8,6.18-10.14,9.33-5.22,4.91-10.33,9.94-15.57,14.83-2,1.91-4.27,3.62-6.46,5.36a11.33,11.33,0,0,1-2.18,1.15,3.18,3.18,0,0,1-4-.77c-3.32-3.55-6.73-7-9.91-10.71s-6.34-7.75-9.5-11.63c-.89-1.1-.63-2,.25-3,4.22-4.9,9.21-9,14.06-13.18,5.72-5,11.27-10.13,16.92-15.17a44.69,44.69,0,0,1,4.2-3.32,2.61,2.61,0,0,1,3.62.38c3.67,3.67,7.36,7.32,11,11,2,2,4,4,5.91,6,1.42,1.44,3,2.77,3.44,4.88.09.4.15.81.23,1.21ZM134,157c2,2.49,3.56,4.73,5.37,6.79Q146.09,171.5,153,179c1.72,1.85,2.25,1.87,4.36.38a59.43,59.43,0,0,0,6.3-5.12c5.2-4.86,10.27-9.87,15.45-14.76,3.44-3.25,7-6.36,10.48-9.57a3.31,3.31,0,0,0,.49-4.91,24.32,24.32,0,0,0-2.19-2.47q-3.13-3.2-6.31-6.35c-3.34-3.35-6.72-6.66-10-10.06a1.94,1.94,0,0,0-3.08-.16c-1.72,1.52-3.36,3.13-5.08,4.65-6.28,5.52-12.61,11-18.85,16.54C141,150.31,137.66,153.61,134,157Z"/><path class="cls-1" d="M133,80.23a5.15,5.15,0,0,1,1.7.75c2.65,2.48,5.31,5,7.82,7.57,3.78,3.93,7.5,7.92,11.09,12a9.76,9.76,0,0,1,1.89,3.91,3.59,3.59,0,0,1-.54,2.76c-2.81,3.61-5.6,7.27-8.74,10.58-4.61,4.86-9.4,9.56-14.32,14.1A45.68,45.68,0,0,1,120,140.16c-1.5.68-2.83.67-4-.64-3.17-3.6-6.45-7.11-9.5-10.81-2.28-2.76-4.3-5.74-6.36-8.67a52.55,52.55,0,0,1-2.83-4.66,5.56,5.56,0,0,1-.28-4.4c1.14-3.92,3.46-7.16,5.94-10.27a70.35,70.35,0,0,1,15.57-14.95A30.79,30.79,0,0,1,133,80.23ZM132.88,82a23.45,23.45,0,0,0-9.82,3c-6.22,3.27-11.23,8-15.82,13.25A52.64,52.64,0,0,0,99.55,109a6.87,6.87,0,0,0,.4,7.67c1.9,2.68,3.68,5.46,5.73,8,3.6,4.48,7.37,8.81,11,13.22a2.07,2.07,0,0,0,3,.56,96.32,96.32,0,0,0,8.77-5.94,161.25,161.25,0,0,0,12-11.11c4.08-4.17,7.8-8.69,11.73-13,1.79-2,2.15-4,.59-6.17a13.92,13.92,0,0,0-1.1-1.43c-2.45-2.68-4.88-5.38-7.39-8q-4.57-4.78-9.27-9.45A9.57,9.57,0,0,0,132.88,82Z"/><path class="cls-2" d="M104.35,273.87c-.43.71-.71,1.76-1.32,2a3.33,3.33,0,0,1-2.53-.28,4.51,4.51,0,0,1-2.42-4.06c0-2.06,1.43-3,3.31-2.19A5.83,5.83,0,0,1,104.35,273.87Z"/><path class="cls-2" d="M86.21,274.27c-.27.21-.76.9-1.34,1-1.17.17-2.84-2.13-2.78-3.61a1.31,1.31,0,0,1,1.33-1.44C84.71,270.14,86.26,272.12,86.21,274.27Z"/><path class="cls-2" d="M103.3,256.56c.27-1.5,1.28-2.15,2.41-1.6a3.91,3.91,0,0,1,2,3.48c-.09,1.23-1.2,1.92-2.09,1.13A19.42,19.42,0,0,1,103.3,256.56Z"/><path class="cls-2" d="M134,157c3.66-3.43,7-6.73,10.56-9.87,6.24-5.56,12.57-11,18.85-16.54,1.72-1.52,3.36-3.13,5.08-4.65a1.94,1.94,0,0,1,3.08.16c3.29,3.4,6.67,6.71,10,10.06q3.16,3.17,6.31,6.35a24.32,24.32,0,0,1,2.19,2.47,3.31,3.31,0,0,1-.49,4.91c-3.47,3.21-7,6.32-10.48,9.57-5.18,4.89-10.25,9.9-15.45,14.76a59.43,59.43,0,0,1-6.3,5.12c-2.11,1.49-2.64,1.47-4.36-.38q-6.93-7.49-13.63-15.17C137.56,161.77,136,159.53,134,157Zm44.5-20.18a13.06,13.06,0,0,0-1.17-1.84,34.23,34.23,0,0,0-2.73-2.52c-1.53-1.28-1.87-1.22-3.41.07q-7.27,6.1-14.58,12.18-8,6.72-16.06,13.42a1.61,1.61,0,0,0-.29,2.6c1.19,1.39,2.44,2.74,3.69,4.07a1.39,1.39,0,0,0,2.09.1c.57-.46,1.13-.94,1.68-1.42,1.89-1.68,3.67-3.49,5.67-5a256.92,256.92,0,0,0,24.07-20.36A13.25,13.25,0,0,0,178.5,136.86ZM173,148.5c0,3,2.34,5.8,4.68,5.74a6.27,6.27,0,0,0,5.6-6c0-2.3-3.17-4.73-6.1-4.73C175,143.53,173,145.92,173,148.5Zm-17.45,13.92c-2.94,0-5.18,2-5.18,4.56,0,2.76,2.94,5.32,6.13,5.33a4.82,4.82,0,0,0,4.47-5A5.26,5.26,0,0,0,155.53,162.42Zm11.91.29c2.78,0,4.81-1.89,4.77-4.41a6,6,0,0,0-5.52-5.63c-2.16,0-4.86,2.59-4.84,4.63A5.52,5.52,0,0,0,167.44,162.71Z"/><path class="cls-2" d="M132.88,82a9.57,9.57,0,0,1,2.2,1.37q4.71,4.65,9.27,9.45c2.51,2.63,4.94,5.33,7.39,8a13.92,13.92,0,0,1,1.1,1.43c1.56,2.22,1.2,4.21-.59,6.17-3.93,4.31-7.65,8.83-11.73,13a161.25,161.25,0,0,1-12,11.11,96.32,96.32,0,0,1-8.77,5.94,2.07,2.07,0,0,1-3-.56c-3.68-4.41-7.45-8.74-11-13.22-2.05-2.56-3.83-5.34-5.73-8a6.87,6.87,0,0,1-.4-7.67,52.64,52.64,0,0,1,7.69-10.73c4.59-5.22,9.6-10,15.82-13.25A23.45,23.45,0,0,1,132.88,82Z"/><path class="cls-1" d="M178.5,136.86a13.25,13.25,0,0,1-1,1.29,256.92,256.92,0,0,1-24.07,20.36c-2,1.52-3.78,3.33-5.67,5-.55.48-1.11,1-1.68,1.42a1.39,1.39,0,0,1-2.09-.1c-1.25-1.33-2.5-2.68-3.69-4.07a1.61,1.61,0,0,1,.29-2.6q8.05-6.69,16.06-13.42,7.29-6.09,14.58-12.18c1.54-1.29,1.88-1.35,3.41-.07a34.23,34.23,0,0,1,2.73,2.52A13.06,13.06,0,0,1,178.5,136.86Zm-2.12-.34c-1-.89-1.86-1.8-2.86-2.57a1.34,1.34,0,0,0-1.25.1c-.81.59-1.5,1.35-2.28,2-7.27,5.91-14.57,11.78-21.81,17.71-2.26,1.86-4.39,3.87-6.7,5.92,1.23,1.35,2.34,2.55,3.5,3.81C155.16,154.14,166.83,146.77,176.38,136.52Z"/><path class="cls-1" d="M173,148.5c0-2.58,2-5,4.18-5,2.93,0,6.07,2.43,6.1,4.73a6.27,6.27,0,0,1-5.6,6C175.32,154.3,173,151.46,173,148.5Zm1.75-.08c0,1.91,1.47,4,2.84,4.05,1.76.06,3.88-2.08,3.94-4,0-1.42-2.22-3.2-4.09-3.21C176.17,145.29,174.73,147,174.73,148.42Z"/><path class="cls-1" d="M155.53,162.42a5.26,5.26,0,0,1,5.42,4.91,4.82,4.82,0,0,1-4.47,5c-3.19,0-6.12-2.57-6.13-5.33C150.35,164.42,152.59,162.45,155.53,162.42Zm.05,1.73c-1.82,0-3.46,1.37-3.47,2.87,0,1.68,2.2,3.5,4.29,3.53a3.09,3.09,0,0,0,2.8-3.16A3.58,3.58,0,0,0,155.58,164.15Z"/><path class="cls-1" d="M167.44,162.71a5.52,5.52,0,0,1-5.59-5.41c0-2,2.68-4.62,4.84-4.63a6,6,0,0,1,5.52,5.63C172.25,160.82,170.22,162.69,167.44,162.71Zm-.06-1.74a2.79,2.79,0,0,0,3.08-2.64c0-1.77-2-3.89-3.62-3.89-1.28,0-3.24,1.78-3.22,2.92A3.73,3.73,0,0,0,167.38,161Z"/><path class="cls-1" d="M127.79,116.61a4.46,4.46,0,0,1,.8-4.85,3.88,3.88,0,0,1,4.66-.84c.85.36,1.68.81,2.52,1.25a4.08,4.08,0,0,0,1.68-.3l.7-.65a1.2,1.2,0,0,0,.13-.28,1.64,1.64,0,0,0,0-1,2.5,2.5,0,0,1-.25-.21c-.08-.07-.14-.15-.22-.22-1.13-.77-2.15-1.46-3.21-2.1a6.09,6.09,0,0,0-6.87-.08c-2.45,1.62-4.15,3.9-3.94,7a11.38,11.38,0,0,0,2.74,6.87c.4.46.79,1.11,1.43.41s1.81-.77,1.16-2.07A25.28,25.28,0,0,1,127.79,116.61Z"/><path class="cls-1" d="M134.49,94.55c2.09,0,4.26,2,4.27,3.88a4.52,4.52,0,0,1-4.18,4.3,4.13,4.13,0,0,1-4-3.91A4.19,4.19,0,0,1,134.49,94.55Z"/><path class="cls-1" d="M115.23,118.31a3.87,3.87,0,0,1-3.73-3.72,3.92,3.92,0,0,1,3.74-4c2,0,4,1.9,4,3.7A4.24,4.24,0,0,1,115.23,118.31Z"/><path class="cls-5" d="M176.38,136.52c-9.55,10.25-21.22,17.62-31.4,27-1.16-1.26-2.27-2.46-3.5-3.81,2.31-2,4.44-4.06,6.7-5.92C155.42,147.82,162.72,142,170,136c.78-.64,1.47-1.4,2.28-2a1.34,1.34,0,0,1,1.25-.1C174.52,134.72,175.42,135.63,176.38,136.52Z"/><path class="cls-5" d="M174.73,148.42c0-1.46,1.44-3.13,2.69-3.12,1.87,0,4.13,1.79,4.09,3.21-.06,1.88-2.18,4-3.94,4C176.2,152.43,174.72,150.33,174.73,148.42Z"/><path class="cls-5" d="M155.58,164.15a3.58,3.58,0,0,1,3.62,3.24,3.09,3.09,0,0,1-2.8,3.16c-2.09,0-4.31-1.85-4.29-3.53C152.12,165.52,153.76,164.16,155.58,164.15Z"/><path class="cls-5" d="M167.38,161a3.73,3.73,0,0,1-3.76-3.61c0-1.14,1.94-2.92,3.22-2.92,1.67,0,3.64,2.12,3.62,3.89A2.79,2.79,0,0,1,167.38,161Z"/><path class="cls-1" d="M145.56,78.5q7.5,8.09,15,16.14c.89,1,1.85,1.87,2.71,2.73l.15-.12a14,14,0,0,0,1.65,1.9.27.27,0,0,1-.08.07l1.46,1.75c.07,1,.86,3.39.33,4.41-1.44-3.31-4.22-4.95-5.84-6.74-4-4.43-8-8.86-12.1-13.22-2.19-2.34-4.45-4.65-6.84-6.8-5.18-4.7-11.48-7-18.27-8a32.28,32.28,0,0,0-15.28.93A32.08,32.08,0,0,0,97,77.28c-.61-.62-1.2-1.24-1.78-1.88a32.56,32.56,0,0,1,10.68-5.81A39.5,39.5,0,0,1,128.62,69C135.08,70.7,140.93,73.52,145.56,78.5Z"/></g></g></g></svg>