<svg xmlns="http://www.w3.org/2000/svg" viewBox="0 0 254.72 239.71"><defs><style>.cls-1{fill:#fff;}</style></defs><g id="Layer_2" data-name="Layer 2"><g id="Grid"><path class="cls-1" d="M249.63,69.11a34.75,34.75,0,0,0-22.44-15.4,98,98,0,0,0,0-43.9A6.06,6.06,0,0,0,220,5.12l-.09,0a6.06,6.06,0,0,0-4.62,7.22v.06A85.45,85.45,0,0,1,214.94,52c-16.43-1.7-29.53-1.33-40.32,10.73a57.29,57.29,0,0,0-6.06,8.61,138.46,138.46,0,0,0-13,34.51c-11,42.44-78.83,85.62-122.43,106.11l-5.34,2.43A155.07,155.07,0,0,1,4.59,223a6.06,6.06,0,0,0,0,11.76,241.58,241.58,0,0,0,50,4.92,207.33,207.33,0,0,0,90-18.92c68.77-33.48,92.05-75,103.57-103.09C256.42,97.91,256.84,81.12,249.63,69.11Zm-15,49.72a157.91,157.91,0,0,1-26.07,41,6.09,6.09,0,0,1-4.55,2.06,6.07,6.07,0,0,1-4.55-10.07,143.69,143.69,0,0,0,24.26-37.9,6,6,0,1,1,10.91,4.91Zm6.43-18.19a6.06,6.06,0,0,1-6.07,4.67,4.63,4.63,0,0,1-1.39,0A6.06,6.06,0,0,1,229.13,98a51,51,0,0,0,.91-5.46,6.1,6.1,0,1,1,12.13,1.27,59.87,59.87,0,0,1-1.09,7Zm-220,103.09c-8.91-15.53-16.55-40,1.28-64.46a2.42,2.42,0,0,1,4.42,1.33c1.1,21.29,15.47,38.14,31.29,23.59,17.59-16.13,8-35.05-11-48.51-18.19-13-27.11-45.05-1-62.76a2.55,2.55,0,0,1,3.94,2c-.79,16.86,19.1,24.26,26.5-.91,6.43-21.95,9.09-42.44-3-49.17A2.48,2.48,0,0,1,74.45.17C92.64-1.23,121.26,5,105.61,62.74,85.42,137.27,139,79.42,149.45,48.68a2.37,2.37,0,0,1,4.43,0,25.67,25.67,0,0,0,8.37,10.61,66.66,66.66,0,0,0-4.06,6.06,151.22,151.22,0,0,0-14.25,37.54c-9,34.32-66.34,75-115.88,98.23l-5.16,2.37Z"/></g></g></svg>