<svg xmlns="http://www.w3.org/2000/svg" viewBox="0 0 14.73 14.73"><defs><style>.cls-1{fill:#b32025;fill-rule:evenodd;}</style></defs><g id="Layer_2" data-name="Layer 2"><g id="Grid"><path class="cls-1" d="M14.69,4.33a5.36,5.36,0,0,0-.34-1.79,3.67,3.67,0,0,0-.85-1.3A3.53,3.53,0,0,0,12.19.39,5.3,5.3,0,0,0,10.41.05c-.79,0-1,0-3,0s-2.25,0-3,0A5.34,5.34,0,0,0,2.54.39a3.42,3.42,0,0,0-1.3.85,3.49,3.49,0,0,0-.85,1.3A5.36,5.36,0,0,0,.05,4.33c0,.79,0,1,0,3s0,2.25,0,3a5.28,5.28,0,0,0,.35,1.79,3.45,3.45,0,0,0,.85,1.31,3.76,3.76,0,0,0,1.3.85,5.36,5.36,0,0,0,1.79.34c.79,0,1,0,3,0s2.25,0,3,0a5.63,5.63,0,0,0,1.79-.34,3.78,3.78,0,0,0,2.15-2.16,5.28,5.28,0,0,0,.35-1.79c0-.78,0-1,0-3s0-2.25,0-3Zm-1.33,6a4.06,4.06,0,0,1-.25,1.37,2.44,2.44,0,0,1-1.4,1.4,4,4,0,0,1-1.36.25c-.78,0-1,.05-3,.05s-2.2,0-3-.05A4.06,4.06,0,0,1,3,13.11a2.42,2.42,0,0,1-1.4-1.4,4,4,0,0,1-.25-1.36c0-.78,0-1,0-3s0-2.2,0-3A4.06,4.06,0,0,1,1.63,3a2.29,2.29,0,0,1,.56-.85A2.27,2.27,0,0,1,3,1.63,4.06,4.06,0,0,1,4.4,1.38c.78,0,1,0,3,0s2.21,0,3,0a4.06,4.06,0,0,1,1.37.25,2.27,2.27,0,0,1,.84.55,2.27,2.27,0,0,1,.55.85,4.06,4.06,0,0,1,.25,1.37c0,.77.05,1,.05,3S13.4,9.57,13.36,10.34Z"/><path class="cls-1" d="M7.37,3.58a3.79,3.79,0,1,0,3.78,3.79A3.79,3.79,0,0,0,7.37,3.58Zm0,6.24A2.46,2.46,0,1,1,9.82,7.37,2.46,2.46,0,0,1,7.37,9.82Z"/><path class="cls-1" d="M12.19,3.43a.89.89,0,1,1-1.77,0,.89.89,0,0,1,1.77,0Z"/></g></g></svg>