<svg xmlns="http://www.w3.org/2000/svg" viewBox="0 0 80 80"><defs><style>.cls-1{fill:#b32025;}</style></defs><g id="Layer_2" data-name="Layer 2"><g id="Layer_1-2" data-name="Layer 1"><path class="cls-1" d="M40,0A40,40,0,1,0,80,40,40,40,0,0,0,40,0ZM62.53,38.81,40,67,17.47,38.81a.87.87,0,0,1,.15-1.23.89.89,0,0,1,.51-.19l6.47-.22a1.76,1.76,0,0,1,1.46.68L40,55.61,53.94,37.85a1.76,1.76,0,0,1,1.46-.68l6.47.22a.89.89,0,0,1,.85.91A.94.94,0,0,1,62.53,38.81Zm0-21.37L40,45.65,17.47,17.44A.88.88,0,0,1,18.13,16l6.47-.22a1.76,1.76,0,0,1,1.46.68L40,34.24,53.94,16.48a1.76,1.76,0,0,1,1.46-.68l6.47.22a.89.89,0,0,1,.85.91A.94.94,0,0,1,62.53,17.44Z"/></g></g></svg>