<svg xmlns="http://www.w3.org/2000/svg" viewBox="0 0 14.73 14.73"><defs><style>.cls-1{fill:#b32025;}</style></defs><g id="Layer_2" data-name="Layer 2"><g id="Grid"><path class="cls-1" d="M7.37,0h0a7.36,7.36,0,0,0-6,11.68L.49,14.42l2.83-.91a7.21,7.21,0,0,0,4.05,1.22A7.37,7.37,0,0,0,7.37,0Zm4.28,10.4a2.06,2.06,0,0,1-1.44,1c-.39.08-.89.15-2.58-.55A9.26,9.26,0,0,1,4,7.65a4.26,4.26,0,0,1-.87-2.22,2.37,2.37,0,0,1,.75-1.8,1.07,1.07,0,0,1,.75-.26h.25c.22,0,.33,0,.47.36s.61,1.49.66,1.6a.41.41,0,0,1,0,.39,1.16,1.16,0,0,1-.24.34c-.11.13-.21.22-.32.36a.34.34,0,0,0-.08.46A6.35,6.35,0,0,0,6.55,8.37,5.18,5.18,0,0,0,8.28,9.43a.45.45,0,0,0,.52-.08,7.46,7.46,0,0,0,.57-.76.42.42,0,0,1,.53-.16c.2.07,1.25.59,1.47.7s.36.16.41.25a1.84,1.84,0,0,1-.13,1Z"/></g></g></svg>