<?xml version="1.0" encoding="UTF-8"?>
<!DOCTYPE svg PUBLIC "-//W3C//DTD SVG 1.1//EN" "http://www.w3.org/Graphics/SVG/1.1/DTD/svg11.dtd">
<!-- Creator: CorelDRAW 2021 (64-Bit) -->
<svg xmlns="http://www.w3.org/2000/svg" xml:space="preserve" width="1.5767in" height="1.37795in" version="1.1" style="shape-rendering:geometricPrecision; text-rendering:geometricPrecision; image-rendering:optimizeQuality; fill-rule:evenodd; clip-rule:evenodd"
viewBox="0 0 407.19 355.86"
 xmlns:xlink="http://www.w3.org/1999/xlink"
 xmlns:xodm="http://www.corel.com/coreldraw/odm/2003">
 <defs>
  <style type="text/css">
   <![CDATA[
    .fil1 {fill:#00C4B5;fill-rule:nonzero}
    .fil2 {fill:#2F2E41;fill-rule:nonzero}
    .fil4 {fill:#3F3D56;fill-rule:nonzero}
    .fil6 {fill:#A0616A;fill-rule:nonzero}
    .fil5 {fill:#CCCCCC;fill-rule:nonzero}
    .fil7 {fill:#E6E6E6;fill-rule:nonzero}
    .fil0 {fill:#F2F2F2;fill-rule:nonzero}
    .fil3 {fill:#FFB6B6;fill-rule:nonzero}
   ]]>
  </style>
 </defs>
 <g id="Layer_x0020_1">
  <metadata id="CorelCorpID_0Corel-Layer"/>
  <g id="_2401758717968">
   <path class="fil0" d="M385.24 321.21l0.63 -14.16c6.56,-3.51 13.88,-5.37 21.32,-5.4 -10.24,8.37 -8.96,24.51 -15.91,35.77 -4.44,7.08 -11.87,11.76 -20.17,12.71l-8.57 5.25c-0.48,-2.68 -0.72,-5.41 -0.72,-8.14 0,-10.64 3.69,-20.97 10.43,-29.2 2.39,-2.87 5.15,-5.43 8.18,-7.6 2.05,5.42 4.8,10.77 4.8,10.77z"/>
   <circle class="fil1" cx="334.35" cy="320.18" r="34.35"/>
   <path class="fil2" d="M320.33 306.74c-0.47,2.53 -1.25,5 -2.3,7.35 -6.06,12.82 11.2,8.64 17.36,8.64 6.74,0 13.19,3.55 12.21,-12.21 -0.42,-6.73 -5.47,-12.21 -12.21,-12.21 -5.76,0 -13.85,2.56 -15.06,8.43z"/>
   <circle class="fil3" cx="334.38" cy="312.81" r="9.92"/>
   <path class="fil2" d="M327.64 302.7c1.78,-1.08 3.83,-1.66 5.91,-1.66 6.27,0 11.36,5.09 11.36,11.36 0,0.07 -0,0.15 -0,0.21 -5.06,1.27 -10.36,2.24 -15.75,0.3l-1.27 -3.12 -0.75 3.12c-1.64,0.67 -3.29,1.24 -4.93,-0.01 -0,-0.13 -0.01,-0.26 -0.01,-0.38 0,-4 2.06,-7.71 5.44,-9.83l0 0z"/>
   <path class="fil4" d="M361.05 343.01c-6.51,7.41 -15.92,11.67 -25.79,11.67 -8.16,0 -16.05,-2.91 -22.26,-8.19l2.95 -8.22c1.36,-2.98 4.25,-4.96 7.51,-5.16l1.87 -0.11 4.47 -3.85c0,0 12.04,-0.43 11.86,-0.64l7.29 4.39 -0.01 -0.03 2.87 0.17c3.26,0.2 6.15,2.18 7.51,5.16l1.73 4.82z"/>
   <path class="fil0" d="M68.69 78.08c-0.03,18.95 -15.4,34.28 -34.35,34.28 -18.97,0 -34.35,-15.38 -34.35,-34.35 0,-18.96 15.38,-34.34 34.35,-34.34 0.02,0 0.05,0 0.06,0 0.01,0 0.02,0 0.03,0 18.92,0 34.26,15.34 34.26,34.26 0,0.05 0,0.1 0,0.15l-0 0z"/>
   <path class="fil5" d="M18.43 66.85c1.42,-4.53 4.65,-8.68 9.12,-10.21 4.47,-1.53 11.01,0.8 14.37,4.15 6.14,6.12 7.64,27.15 3.42,33.8 -0.84,-0.04 -3.74,-0.08 -4.58,-0.11l-1.2 -4.01 0 3.97c-1.35,-0.04 -2.72,-0.07 -4.09,-0.09 -9.58,-0.12 -17.35,-7.8 -17.58,-17.37 -0.11,-4.41 0,-8.35 0.56,-10.13z"/>
   <circle class="fil5" cx="33.84" cy="72.06" r="9.79"/>
   <path class="fil5" d="M25.39 63.46l11.27 -5.64 0 0c4.69,2.11 7.87,6.61 8.3,11.74l0.28 3.36 -4.72 -1.2 -0.52 -4.3 -0.8 3.97 -2.18 -0.56 0.02 -6.68 -2.18 6.67 -7.78 -1.79 -1.69 -5.58z"/>
   <path class="fil5" d="M59.83 100.75c-6.51,7.41 -15.92,11.67 -25.79,11.67 -8.16,0 -16.05,-2.91 -22.26,-8.19l2.95 -8.22c1.35,-2.98 4.25,-4.96 7.51,-5.16l1.87 -0.11 4.47 -3.85c0,0 12.04,-0.43 11.86,-0.64l7.29 4.39 -0.01 -0.03 2.87 0.18c3.26,0.2 6.15,2.18 7.51,5.16l1.73 4.82z"/>
   <circle class="fil0" cx="34.59" cy="235.76" r="34.35"/>
   <path class="fil5" d="M20.57 222.33c-0.47,2.53 -1.25,5 -2.3,7.35 -6.06,12.82 11.2,8.64 17.36,8.64 6.74,0 13.19,3.54 12.21,-12.21 -0.42,-6.73 -5.47,-12.21 -12.21,-12.21 -5.76,0 -13.85,2.56 -15.06,8.43z"/>
   <circle class="fil5" cx="34.62" cy="228.39" r="9.92"/>
   <path class="fil5" d="M27.88 218.28c1.78,-1.08 3.83,-1.66 5.92,-1.66 6.27,0 11.36,5.09 11.36,11.36 0,0.07 -0,0.15 -0,0.21 -5.05,1.27 -10.36,2.24 -15.75,0.3l-1.27 -3.12 -0.75 3.12c-1.64,0.67 -3.29,1.24 -4.93,-0.01 -0,-0.13 -0.01,-0.26 -0.01,-0.38 0,-4 2.06,-7.71 5.44,-9.83l-0 -0z"/>
   <path class="fil5" d="M61.3 258.6c-6.51,7.41 -15.92,11.67 -25.79,11.67 -8.16,0 -16.05,-2.91 -22.26,-8.19l2.95 -8.22c1.35,-2.98 4.25,-4.96 7.51,-5.16l1.87 -0.11 4.47 -3.85c0,0 12.04,-0.43 11.86,-0.64l7.29 4.39 -0.01 -0.03 2.87 0.17c3.26,0.2 6.15,2.18 7.51,5.16l1.73 4.82z"/>
   <circle class="fil0" cx="182.36" cy="183.11" r="55.61"/>
   <circle class="fil5" cx="184.62" cy="170.65" r="18.13"/>
   <path class="fil5" d="M223.87 220.08c-10.54,12 -25.77,18.89 -41.76,18.89 -13.21,0 -25.99,-4.71 -36.04,-13.27l4.77 -13.31c2.19,-4.82 6.87,-8.03 12.16,-8.35l3.03 -0.19 7.24 -6.24c0,0 19.5,-0.7 19.21,-1.03l11.81 7.1 -0.01 -0.05 4.64 0.28c5.28,0.32 9.96,3.53 12.16,8.35l2.8 7.8z"/>
   <circle class="fil0" cx="90.77" cy="148.95" r="34.35"/>
   <circle class="fil5" cx="89.82" cy="142.24" r="10.96"/>
   <path class="fil5" d="M116.53 171.92c-6.51,7.41 -15.92,11.67 -25.79,11.67 -8.16,0 -16.05,-2.91 -22.26,-8.19l2.95 -8.22c1.36,-2.98 4.25,-4.96 7.51,-5.16l1.87 -0.12 4.47 -3.85c0,0 12.04,-0.43 11.86,-0.64l7.29 4.39 -0.01 -0.03 2.87 0.18c3.26,0.2 6.15,2.18 7.51,5.16l1.73 4.82z"/>
   <path class="fil0" d="M163.65 176.61l0 0.02c-0.03,-0.08 -0.05,-0.15 -0.06,-0.23l0.06 0.21z"/>
   <path class="fil0" d="M163.65 176.63c0.05,0.21 0.11,0.43 0.17,0.63 -0.08,0.02 -0.17,0.04 -0.26,0.05l0.08 -0.68z"/>
   <path class="fil1" d="M237.96 182.99c0,29.85 -23.6,54.39 -53.43,55.55l0 -111.11c29.83,1.16 53.43,25.69 53.43,55.55 0,0 0,0 0,0l0 0z"/>
   <path class="fil3" d="M163.59 176.39l0.06 0.21 0 0.02c-0.03,-0.08 -0.05,-0.15 -0.06,-0.23l0 0z"/>
   <path class="fil6" d="M198.57 172.13c0,0.01 0,0.03 0,0.04 0,1.45 -0.18,2.91 -0.54,4.31l0 0.01c-1.66,6.54 -6.9,11.58 -13.5,13l0 -34.73c8.18,1.76 14.03,9 14.04,17.37l0 -0z"/>
   <path class="fil4" d="M224.07 220.2c-10.03,11.44 -24.33,18.26 -39.53,18.84l-0 -41.75c4.34,-0.2 8.28,-0.42 8.14,-0.57l11.81 7.1 -0.01 -0.05 4.64 0.29c5.29,0.31 9.97,3.53 12.16,8.35l2.69 7.49 0.11 0.32z"/>
   <path class="fil2" d="M163.65 176.63c0.05,0.21 0.11,0.43 0.17,0.63 -0.08,0.02 -0.17,0.04 -0.26,0.05l0.08 -0.68z"/>
   <path class="fil2" d="M198.08 177.34c-0.02,-0.29 -0.03,-0.56 -0.05,-0.85l0 -0.01c-0.06,-1.96 -0.35,-3.92 -0.86,-5.81 -0.66,-2.15 -1.91,-4.2 -3.8,-5.34 -2.83,-1.72 -6.8,-0.79 -8.84,1.79l0 -21.42c1.92,0.5 3.76,1.31 5.43,2.39 4.67,3.03 8.09,7.67 9.58,13.04 0.54,2 0.82,4.07 0.82,6.15 0,3.48 -0.78,6.93 -2.28,10.07l-0 0z"/>
   <path class="fil2" d="M183.77 355.86c-0.01,0 -0.02,0 -0.03,0 -0.35,0 -0.65,-0.28 -0.67,-0.63l0 -354.6c0.04,-0.36 0.34,-0.63 0.7,-0.63 0.36,0 0.66,0.27 0.7,0.63l0 354.6c-0.02,0.35 -0.31,0.63 -0.67,0.63 -0.01,0 -0.02,0 -0.03,-0l-0 0z"/>
   <path class="fil3" d="M253.53 165.75l-19.34 -4.75 -25.79 -21.93 4.29 -6.82 23.36 14.88c0,0 15.46,3.92 20.74,8.45l-3.27 10.16z"/>
   <circle class="fil3" cx="209.3" cy="134.78" r="4.71"/>
   <path class="fil7" d="M254.44 153.06l-17.94 -7.31 -8.62 10.24 6.41 5.28 17.46 4.54 0.01 0.05c1.23,4.52 9.11,7.59 15.51,9.37 0.75,0.21 1.53,0.31 2.31,0.31 3.67,0 6.94,-2.32 8.15,-5.77l0 0c0.31,-0.91 0.47,-1.86 0.47,-2.82 0,-2.28 -0.9,-4.47 -2.51,-6.09l-5.81 -5.83 -15.44 -1.95z"/>
   <polygon class="fil3" points="204.84,336.91 198.55,334.51 204.79,309.13 214.07,312.66 "/>
   <path class="fil2" d="M207.23 335.46l-1.77 -0.67 -5.84 -5.44 -4.77 1.4 -0 0c-0.96,-0.36 -1.98,-0.55 -3,-0.55 -3.5,0 -6.64,2.17 -7.89,5.44l-0.1 0.26 20.27 7.71 3.1 -8.15z"/>
   <polygon class="fil3" points="268.39,347.45 261.67,347.44 258.47,321.5 268.39,321.5 "/>
   <path class="fil2" d="M270.11 345.25l-1.89 0 -7.39 -3.01 -3.96 3.01 0 0c-4.66,0 -8.44,3.78 -8.44,8.44l0 0.27 21.69 0 0 -8.72z"/>
   <path class="fil2" d="M278.65 235.69c0,0 0.79,9.43 -1.18,18.46 -1.23,5.66 -1.69,17.77 -1.86,26.02 -0.1,4.91 -2.31,5.69 -2.31,5.69l1.47 11.29 -3.58 41.04 -12.96 -1.18 -3.53 -82.86 -23.29 18.42 0.65 2.15c0.31,1.05 -2,0.91 -2.93,1.49l0 0 -2.29 5.3c0,0.07 0.01,0.15 0.01,0.22 0,1.72 -1.02,3.27 -2.6,3.95l0 0 -12.14 36.11 -9.46 -5.68 3.15 -32.81 4.42 -15.14 17.79 -21.87 0.39 -6.28 1.77 0.07 0.9 -2.63 1.65 -4.52 45.95 2.75z"/>
   <path class="fil7" d="M279.33 237.67l0.07 -0.1c3.74,-5.23 -1.88,-17.81 -2.73,-19.63l0 0c1.89,-0.61 3.16,-2.37 3.16,-4.35 0,-0.18 -0.01,-0.36 -0.03,-0.53l-0.37 -3.11 -0.38 -3.05 2.73 -2.73 0.01 -0.07 1.57 -13.75 2.28 -9.13c0.39,-1.59 0.6,-3.21 0.6,-4.85 0,-5.51 -2.28,-10.79 -6.28,-14.57l-5.28 -4.98 -6.42 -9.49 -10.35 0 -3.55 6.7c-6.84,1.58 -11.68,7.67 -11.68,14.69 0,0.23 0.01,0.47 0.02,0.7l0.8 17.57 -3.15 21.88 -0 3.96 -1.64 1.82c-0.94,1.04 -1.45,2.39 -1.45,3.79 0,0.37 0.04,0.75 0.11,1.11l0.22 1.08 0 0c-1.69,0.72 -2.93,2.23 -3.31,4.02l-0.58 2.69c-0.49,0.65 -3.74,4.99 -3.74,6.17 0,0.18 0.13,0.35 0.41,0.54 2.22,1.5 14.46,4.56 19.88,2.39 5.78,-2.31 28.73,1.16 28.96,1.19l0.12 0.02z"/>
   <circle class="fil3" cx="261.75" cy="130.56" r="13.7"/>
   <path class="fil3" d="M257.28 190.76l-9.52 17.5 -27.78 19.35 -5.5 -5.89 20.35 -18.8c0,0 7.73,-13.95 13.46,-17.91l8.99 5.75z"/>
   <circle class="fil3" cx="216.06" cy="225.64" r="4.71"/>
   <path class="fil7" d="M256.42 193.09l5.99 -14.37 -2.17 -7.94c-0.88,-3.18 -3.48,-5.58 -6.72,-6.2l0 0c-0.52,-0.09 -1.04,-0.14 -1.57,-0.14 -3.95,0 -7.4,2.68 -8.37,6.5 -1.64,6.44 -2.9,14.8 0.41,18.12l0.03 0.03 -9.85 12.85 14.51 8.2 7.73 -17.06z"/>
   <path class="fil2" d="M275.29 121.12c-1.11,-1.5 -2.72,-2.57 -3.94,-3.98 -0.61,-0.81 -1.28,-1.61 -1.99,-2.35 -1.46,-1.22 -3.31,-1.88 -5.21,-1.88 -0.02,0 -0.04,0 -0.06,0 -0.11,-0 -0.23,-0 -0.34,-0 -4.11,0 -6.85,3.3 -10.52,5.16l-1.27 0.64c-0.33,-0.29 -0.75,-0.44 -1.19,-0.44 -1,0 -1.81,0.81 -1.81,1.81 0,0.32 0.29,1.21 0.24,0.9 -0.13,-0.76 -1.32,-0.89 -1.92,-0.4 -0.45,0.44 -0.7,1.04 -0.7,1.66 0,0.15 0.02,0.3 0.04,0.45 0.26,1.71 1.51,3.12 3.2,3.51 1.3,0.3 2.81,-0.01 3.85,0.82 0.83,0.67 1.09,1.88 1.94,2.52 1.05,0.79 2.53,0.43 3.83,0.6 2.21,0.38 3.83,2.3 3.83,4.54 0,0.13 -0.05,0.51 -0.02,0.38 0.18,-0.73 0.46,-1.44 0.89,-2.05 0.36,-0.51 0.95,-0.81 1.58,-0.81 0.13,0 0.27,0 0.4,0.04 1.19,0.35 1.38,1.97 1.09,3.18 -0.76,3.2 -3.66,8.36 -3.66,8.36 3.75,1.48 8.23,0.08 11.13,-2.73 2.9,-2.81 4.41,-6.79 5.06,-10.77l-4.46 -9.16z"/>
   <path class="fil5" d="M399.33 354.48c-0,0 -0,0 -0,0 0,0.41 -0.33,0.75 -0.75,0.75 -0,0 -0,0 -0,0l-176.85 0c-0.42,0 -0.75,-0.34 -0.75,-0.75 0,-0.41 0.34,-0.75 0.75,-0.75l176.85 0c0,0 0,0 0,0 0.41,0 0.75,0.34 0.75,0.75 0,0 0,0 0,0l0 0z"/>
   <path class="fil5" d="M102.15 131.16c0.47,2.53 1.25,5 2.3,7.35 6.06,12.82 -11.2,8.64 -17.36,8.64 -6.74,0 -13.19,3.55 -12.21,-12.21 0.42,-6.73 5.47,-12.21 12.21,-12.21 5.76,0 13.85,2.56 15.06,8.43z"/>
  </g>
 </g>
</svg>
