<?xml version="1.0" encoding="UTF-8"?>
<!DOCTYPE svg PUBLIC "-//W3C//DTD SVG 1.1//EN" "http://www.w3.org/Graphics/SVG/1.1/DTD/svg11.dtd">
<!-- Creator: CorelDRAW 2021 (64-Bit) -->
<svg xmlns="http://www.w3.org/2000/svg" xml:space="preserve" width="2.00069in" height="1.37795in" version="1.1" style="shape-rendering:geometricPrecision; text-rendering:geometricPrecision; image-rendering:optimizeQuality; fill-rule:evenodd; clip-rule:evenodd"
viewBox="0 0 3526.3 2428.71"
 xmlns:xlink="http://www.w3.org/1999/xlink"
 xmlns:xodm="http://www.corel.com/coreldraw/odm/2003">
 <defs>
  <style type="text/css">
   <![CDATA[
    .fil2 {fill:#00C4B5;fill-rule:nonzero}
    .fil7 {fill:#2F2E41;fill-rule:nonzero}
    .fil1 {fill:#3F3D56;fill-rule:nonzero}
    .fil8 {fill:#A0616A;fill-rule:nonzero}
    .fil5 {fill:#CCCCCC;fill-rule:nonzero}
    .fil3 {fill:#E6E6E6;fill-rule:nonzero}
    .fil0 {fill:#F2F2F2;fill-rule:nonzero}
    .fil4 {fill:#FF6584;fill-rule:nonzero}
    .fil6 {fill:#FFB8B8;fill-rule:nonzero}
   ]]>
  </style>
 </defs>
 <g id="Layer_x0020_1">
  <metadata id="CorelCorpID_0Corel-Layer"/>
  <g id="_2401540727296">
   <path class="fil0" d="M763.74 243.29l-219.8 0c-43.98,0.03 -79.66,35.71 -79.69,79.7l0 238.29c-2.81,-0.17 -5.62,-0.42 -8.39,-0.75 -142.97,-15.04 -251.63,-135.7 -251.63,-279.5 0,-155.19 125.85,-281.04 281.03,-281.04 137.38,0 254.68,99.4 277.23,234.88 0.45,2.78 0.87,5.59 1.25,8.4z"/>
   <path class="fil1" d="M3358.52 234.9l-2814.57 0c-48.62,0.04 -88.04,39.47 -88.08,88.09l0 1484.88c0.04,48.62 39.46,88.04 88.09,88.09l2814.57 0c48.62,-0.04 88.04,-39.47 88.09,-88.09l0 -1484.88c-0.04,-48.62 -39.47,-88.04 -88.09,-88.09l0 0zm167.78 1661.05c-0.03,43.98 -35.72,79.67 -79.7,79.7l-2814.57 0c-43.98,-0.03 -79.66,-35.72 -79.69,-79.7l0 -1484.88c0.03,-43.98 35.71,-79.66 79.7,-79.69l2814.57 0c43.98,0.03 79.67,35.71 79.7,79.7l0 1484.88z"/>
   <path class="fil1" d="M3220.1 475.54l-2537.73 0c-2.31,0 -4.19,-1.88 -4.19,-4.2 0,-2.32 1.88,-4.19 4.2,-4.19l2537.72 0c2.32,0 4.19,1.87 4.19,4.19 0,2.32 -1.87,4.2 -4.19,4.2z"/>
   <path class="fil1" d="M1399.64 1715.58c-2.31,0 -4.19,-1.87 -4.19,-4.19l0 -1380.02c0,-2.32 1.88,-4.19 4.19,-4.19 2.32,0 4.2,1.87 4.2,4.19l0 1380.02c0,2.32 -1.88,4.19 -4.2,4.19l0 0z"/>
   <path class="fil1" d="M2033.03 1715.58c-2.32,0 -4.2,-1.87 -4.2,-4.19l0 -1380.02c0,-2.32 1.88,-4.19 4.2,-4.19 2.32,0 4.19,1.87 4.19,4.19l0 1380.02c0,2.32 -1.87,4.19 -4.19,4.19l0 0z"/>
   <path class="fil1" d="M2666.41 1715.58c-2.31,0 -4.19,-1.87 -4.19,-4.19l0 -1380.02c0,-2.32 1.88,-4.19 4.19,-4.19 2.32,0 4.2,1.87 4.2,4.19l0 1380.02c0,2.32 -1.88,4.19 -4.2,4.19l0 0z"/>
   <path class="fil2" d="M992.42 908.5l-153.27 0c-10.42,-0.01 -18.86,-8.46 -18.87,-18.87l0 -180.87c0.01,-10.42 8.46,-18.87 18.88,-18.87l153.27 0c10.42,0.01 18.87,8.45 18.87,18.87l0 180.87c-0.01,10.42 -8.46,18.86 -18.87,18.87l0 0z"/>
   <path class="fil2" d="M1210.54 1424.43l-153.27 0c-10.42,-0.01 -18.87,-8.46 -18.87,-18.88l0 -180.86c0.01,-10.42 8.46,-18.87 18.87,-18.87l153.27 0c10.42,0.01 18.87,8.45 18.87,18.87l0 180.87c-0.01,10.42 -8.46,18.87 -18.87,18.87l0 0.01z"/>
   <path class="fil2" d="M1705.5 1017.55l-153.27 0c-10.42,-0.01 -18.87,-8.46 -18.87,-18.87l0 -180.87c0.01,-10.42 8.46,-18.87 18.87,-18.87l153.27 0c10.42,0.01 18.86,8.46 18.87,18.87l0 180.87c-0.01,10.42 -8.46,18.87 -18.87,18.87z"/>
   <path class="fil2" d="M2347.27 820.41l-153.27 0c-10.42,-0.01 -18.86,-8.46 -18.87,-18.88l0 -180.86c0.01,-10.42 8.46,-18.87 18.88,-18.88l153.27 0c10.42,0.01 18.87,8.46 18.87,18.88l0 180.87c-0.01,10.42 -8.46,18.86 -18.87,18.87l0 0z"/>
   <path class="fil2" d="M2938.71 820.41l-153.27 0c-10.42,-0.01 -18.87,-8.46 -18.87,-18.88l0 -180.86c0.01,-10.42 8.46,-18.87 18.87,-18.88l153.27 0c10.42,0.01 18.87,8.46 18.87,18.88l0 180.87c-0.01,10.42 -8.46,18.86 -18.87,18.87l0 0z"/>
   <path class="fil3" d="M3211.35 870.74l-153.27 0c-10.42,-0.01 -18.87,-8.45 -18.87,-18.87l0 -180.87c0.01,-10.42 8.46,-18.87 18.87,-18.87l153.27 0c10.42,0.01 18.87,8.46 18.87,18.87l0 180.87c-0.01,10.42 -8.46,18.87 -18.87,18.87l0 0z"/>
   <path class="fil3" d="M3089.71 1193.72l-153.27 0c-10.42,-0.01 -18.87,-8.45 -18.87,-18.87l0 -180.87c0.01,-10.42 8.46,-18.87 18.87,-18.87l153.27 0c10.42,0.01 18.87,8.46 18.87,18.87l0 180.87c-0.01,10.42 -8.46,18.87 -18.87,18.87l0 0z"/>
   <path class="fil4" d="M2569.58 1126.61l-153.27 0c-10.42,-0.01 -18.87,-8.46 -18.87,-18.88l0 -180.86c0.01,-10.42 8.45,-18.87 18.87,-18.88l153.27 0c10.42,0.01 18.87,8.46 18.88,18.88l0 180.87c-0.01,10.42 -8.46,18.86 -18.88,18.87z"/>
   <path class="fil3" d="M2271.76 1193.72l-153.27 0c-10.42,-0.01 -18.87,-8.45 -18.87,-18.87l0 -180.87c0.01,-10.42 8.45,-18.87 18.87,-18.87l153.27 0c10.42,0.01 18.87,8.46 18.88,18.87l0 180.87c-0.01,10.42 -8.46,18.87 -18.88,18.87l0 0z"/>
   <path class="fil3" d="M1630 1478.96l-153.27 0c-10.42,-0.01 -18.87,-8.46 -18.87,-18.87l0 -180.87c0.01,-10.42 8.46,-18.87 18.87,-18.87l153.27 0c10.42,0.01 18.87,8.45 18.87,18.87l0 180.87c-0.01,10.42 -8.46,18.87 -18.87,18.87l0 0z"/>
   <path class="fil4" d="M854 1239.87l-153.27 0c-10.42,-0.01 -18.86,-8.46 -18.87,-18.88l0 -180.86c0.01,-10.42 8.46,-18.87 18.88,-18.87l153.27 0c10.42,0.01 18.87,8.45 18.87,18.87l0 180.87c-0.01,10.42 -8.45,18.86 -18.87,18.87l0 0.01z"/>
   <path class="fil3" d="M1286.03 908.5l-153.27 0c-10.42,-0.01 -18.87,-8.46 -18.87,-18.87l0 -180.87c0.01,-10.42 8.46,-18.87 18.87,-18.87l153.27 0c10.42,0.01 18.87,8.45 18.88,18.87l0 180.87c-0.01,10.42 -8.46,18.86 -18.88,18.87l0 0z"/>
   <path class="fil5" d="M1160.55 406.87l-239.09 0c-9.26,0.01 -16.78,-7.51 -16.78,-16.77 0,-9.26 7.52,-16.78 16.78,-16.78l239.09 0c9.26,0 16.78,7.52 16.78,16.78 0,9.26 -7.52,16.78 -16.78,16.78l0 -0.01z"/>
   <path class="fil5" d="M1835.88 406.87l-239.09 0c-9.26,0.01 -16.78,-7.51 -16.78,-16.77 0,-9.26 7.52,-16.78 16.78,-16.78l239.09 0c9.26,0 16.78,7.52 16.78,16.78 0,9.26 -7.52,16.78 -16.78,16.78l0 -0.01z"/>
   <path class="fil5" d="M2469.27 406.87l-239.09 0c-9.27,0.01 -16.78,-7.51 -16.78,-16.77 0,-9.26 7.51,-16.78 16.77,-16.78l239.1 0c9.26,0 16.78,7.52 16.78,16.78 0,9.26 -7.52,16.78 -16.78,16.78l0 -0.01z"/>
   <path class="fil5" d="M3060.7 406.87l-239.1 0c-9.26,0.01 -16.78,-7.51 -16.78,-16.77 0,-9.26 7.52,-16.78 16.78,-16.78l239.1 0c9.26,0 16.77,7.52 16.77,16.78 0,9.26 -7.51,16.78 -16.77,16.78l0 -0.01z"/>
   <path class="fil6" d="M625.04 1635.44c-21.59,-2.12 -38.07,-20.28 -38.07,-41.98 0,-3.86 0.53,-7.71 1.58,-11.42l-107.52 -100.08 56.85 -14.42 105.73 85.75c16.92,5.99 28.26,22.02 28.26,39.98 0,23.42 -18.99,42.41 -42.41,42.41 -1.47,0 -2.94,-0.08 -4.41,-0.23l0 0.01z"/>
   <polygon class="fil6" points="773.51,2375.2 824.93,2375.2 849.39,2176.84 773.5,2176.84 "/>
   <path class="fil7" d="M924.11 2422.95l-161.62 0.01 0 -62.45 99.17 -0.01c34.48,0 62.45,27.96 62.45,62.45l0 0 0 0z"/>
   <polygon class="fil6" points="420.92,2338.07 470.61,2351.3 545.28,2165.91 471.94,2146.39 "/>
   <path class="fil7" d="M554.17 2422.96l-156.18 -41.57 16.06 -60.34 95.84 25.51c33.32,8.87 53.15,43.09 44.28,76.41l0 0 0 0z"/>
   <path class="fil7" d="M838.76 2337.64l-78.47 0c-0.02,0 -0.04,0 -0.07,0 -10.24,0 -18.81,-7.81 -19.76,-18.01l-47.64 -494.67c-0.77,-8.06 -7.54,-14.22 -15.64,-14.22 -6.95,0 -13.07,4.56 -15.06,11.21l-138.31 462.25c-2.51,8.42 -10.26,14.21 -19.06,14.21 -1.63,0 -3.26,-0.2 -4.84,-0.6l-73 -18.26c-8.86,-2.21 -15.09,-10.18 -15.09,-19.32 0,-1.67 0.22,-3.34 0.63,-4.95 1.19,-4.66 119.17,-465.71 120.2,-470.45 26.73,-197.02 58.71,-249.8 75.89,-278.16 1.42,-2.35 2.73,-4.51 3.91,-6.55 1.47,-2.55 10.53,-27.87 16.29,-44.31 1.51,-5.4 5.22,-9.94 10.21,-12.49 72.19,-36.92 156.65,-11.36 180.82,-2.65 4,1.42 7.45,4.09 9.81,7.62 72.5,109.36 36.92,744.5 29.05,870.72 -0.68,10.48 -9.37,18.62 -19.88,18.64l0 0z"/>
   <circle class="fil6" cx="636.26" cy="981.64" r="103.02"/>
   <path class="fil5" d="M625.35 1475.81l-0.74 -0.71c-1.39,-1.35 -138.66,-135.82 -120.89,-260.17 7.6,-53.18 50.64,-87.17 124.45,-98.28 5.52,-0.82 11.14,-1.24 16.72,-1.24 50.39,0 94.8,33.14 109.12,81.44l72.99 249.51 -201.64 29.44z"/>
   <path class="fil5" d="M555.09 1571.46l-97.81 -97.19c-10.34,-10.33 -16.15,-24.36 -16.15,-38.98 0,-4.38 0.53,-8.75 1.55,-13l47.35 -192.61c4.77,-19.4 22.19,-33.06 42.18,-33.06 4.45,0 8.88,0.69 13.11,2.03 18.04,5.81 30.28,22.61 30.28,41.56 0,4.09 -0.58,8.18 -1.71,12.1l-49.85 169.45 80.61 86.57 -49.55 63.15z"/>
   <path class="fil6" d="M1079.72 1239.76c-6.9,14.92 -21.85,24.49 -38.29,24.49 -8.63,0 -17.07,-2.66 -24.14,-7.59l-130.58 67.68 5.77 -57.49 115.76 -71.64c8.05,-10.04 20.22,-15.89 33.09,-15.89 23.42,0 42.41,18.99 42.41,42.41 0,6.24 -1.38,12.4 -4.03,18.03l0.01 0.01z"/>
   <path class="fil5" d="M1003.03 1282.56l-127.29 55.01c-6.68,2.86 -13.9,4.34 -21.17,4.34 -11.17,0 -22.07,-3.49 -31.16,-9.96l-161.86 -115.97c-11.37,-8.15 -18.14,-21.3 -18.14,-35.31 0,-10.04 3.49,-19.79 9.86,-27.56 8.29,-9.99 20.62,-15.79 33.61,-15.79 9.71,0 19.16,3.25 26.82,9.21l138.8 109.24 110.32 -42.68 40.22 69.47z"/>
   <path class="fil7" d="M653.34 1014.64c12.71,-15.92 36.45,-16.78 53.91,-27.28 22.87,-13.75 32.32,-44.51 24.95,-70.15 -7.37,-25.65 -29.1,-45.64 -54.02,-55.2 -24.91,-9.56 -52.63,-9.68 -78.92,-5.06 -39.14,6.88 -77.67,25.15 -101.54,56.91 -23.86,31.77 -29.94,78.29 -8.31,111.63 9.94,15.32 25.29,27.96 29.26,45.79 5.21,23.41 -11.21,45.98 -28.79,62.27 -20.04,18.57 -43.02,34.12 -60.58,55.05 -17.56,20.93 -29.26,49.52 -21.25,75.64 6.71,21.88 26.24,38 47.66,46.07 21.41,8.08 44.74,9.24 67.62,9.69 22.22,0.44 45.82,-0.1 64.54,-12.09 20.03,-12.82 30.73,-37.15 31.52,-60.93 0.79,-23.77 -7.15,-47.08 -17.81,-68.35 -6.35,-12.68 -13.73,-24.97 -17.94,-38.51 -4.22,-13.54 -4.95,-28.9 1.8,-41.37 7.11,-13.1 21.47,-21.01 36.09,-23.88 0.76,-0.15 1.57,-0.28 2.41,-0.4 15.47,-2 27.05,-15.18 27.05,-30.78 0,-1.81 -0.17,-3.62 -0.48,-5.41 -1.67,-9.28 -1.53,-18.17 2.82,-23.63z"/>
   <polygon class="fil8" points="2026.96,2379.59 1975.53,2379.59 1951.07,2181.24 2026.96,2181.24 "/>
   <path class="fil7" d="M1938.8 2364.89l99.17 0 0 62.45 -161.62 0 0 0c0,-34.48 27.96,-62.45 62.45,-62.45 0,0 0,0 0,0l0 0z"/>
   <polygon class="fil8" points="2400.09,2321.34 2353.31,2342.7 2248.64,2172.45 2317.68,2140.91 "/>
   <path class="fil7" d="M2313.79 2344.6l90.22 -41.2 25.94 56.8 -147.01 67.15 0 0c0,-0.01 0,-0.01 0,-0.01 -14.32,-31.37 -0.51,-68.41 30.86,-82.74l0 0z"/>
   <path class="fil8" d="M2250.33 1710.79c10.58,-7.97 16.82,-20.46 16.82,-33.71 0,-11.71 -4.89,-22.91 -13.46,-30.89l60.45 -137.16 -76.8 13.01 -45.63 128.26c-6.15,7.56 -9.51,17.02 -9.51,26.76 0,23.42 18.99,42.41 42.41,42.41 9.29,0 18.33,-3.06 25.72,-8.69l0 0z"/>
   <path class="fil7" d="M2023.68 2327.29l-49.13 0c-9.87,-0.03 -18.08,-7.66 -18.83,-17.51l-26.79 -715.43c-0.03,-0.45 -0.05,-0.91 -0.05,-1.37 0,-10.42 8.45,-18.87 18.87,-18.87 0.61,0 1.23,0.03 1.83,0.09l284.12 30.17c9.53,0.93 16.86,8.86 17.04,18.43l5.95 315.58c0.03,1.71 0.37,3.41 0.99,5.01l116.54 302.23c0.83,2.17 1.26,4.47 1.26,6.79 0,7.9 -4.93,14.97 -12.34,17.71l-49.79 18.34c-2.08,0.77 -4.3,1.17 -6.52,1.17 -7.07,0 -13.55,-3.96 -16.79,-10.24l-143.17 -278.39c-0.78,-1.51 -1.35,-3.13 -1.7,-4.79l-24.45 -117.84c-1.42,-6.81 -7.42,-11.69 -14.38,-11.69 -7.46,0 -13.73,5.59 -14.59,13l-49.34 430.89c-1.08,9.53 -9.15,16.73 -18.75,16.73 0,0 0,0 0,0l0 0z"/>
   <circle class="fil8" cx="2048.14" cy="931.94" r="103.02"/>
   <path class="fil2" d="M2118.8 1659.78c-69.84,-0.75 -138.12,-21.44 -196.62,-59.56l-1 -0.69 0.1 -1.21 39.41 -458.96c2.81,-32.18 28.97,-57.39 61.25,-58.98 51.07,-2.35 119.67,0.62 156.39,27.96 55.5,41.34 82.25,103.58 73.39,170.77 -18.37,139.34 2.44,327.3 4.87,348.28l0.18 1.51 -1.39 0.64c-42.74,19.87 -89.43,30.24 -136.59,30.24l0.01 0.01z"/>
   <path class="fil2" d="M2256.11 1628.16c-5.86,-0.01 -11.47,-2.48 -15.44,-6.81l-22.54 -24.59c-3.53,-3.88 -5.49,-8.95 -5.49,-14.2 0,-2 0.28,-4 0.85,-5.91l51.38 -173.92 -78.19 -164.19c-2.36,-4.96 -3.58,-10.4 -3.58,-15.9 0,-2.95 0.35,-5.91 1.05,-8.76 4.03,-16.54 18.86,-28.17 35.89,-28.17 13.59,0 26.09,7.47 32.53,19.43l106.1 172.15c4.89,7.9 7.47,17.03 7.47,26.33 0,7.12 -1.52,14.17 -4.45,20.65l-86.45 191.54c-2.89,6.43 -8.84,10.98 -15.8,12.08 -1.1,0.17 -2.22,0.26 -3.34,0.26l-0.01 0.01z"/>
   <path class="fil8" d="M1529.93 1295.93c7.28,5.41 16.11,8.33 25.18,8.33 15.99,0 30.61,-9.04 37.74,-23.34l148.65 19.28 -34.17 -70 -135.92 -7.58c-5.18,-2.17 -10.76,-3.3 -16.39,-3.3 -23.41,0 -42.41,18.99 -42.41,42.41 0,13.5 6.43,26.21 17.32,34.2l-0.01 0z"/>
   <path class="fil2" d="M1857.58 1334.16c-2.58,0 -5.18,-0.19 -7.74,-0.53l-233.85 -32.44c-7.76,-1.05 -14.47,-5.97 -17.83,-13.05 -0.53,-1.12 -0.99,-2.29 -1.34,-3.48l0 0c-0.62,-2.12 -0.94,-4.33 -0.94,-6.54 0,-4.25 1.16,-8.41 3.35,-12.05l19.35 -32.08c4.23,-6.97 11.79,-11.25 19.95,-11.27l0.03 0 203.84 0.24 152.24 -136.4c7.07,-6.33 16.14,-10.04 25.62,-10.49 0.63,-0.03 1.28,-0.05 1.91,-0.05 22.78,0 41.25,18.47 41.25,41.25 0,11.02 -4.41,21.58 -12.24,29.32l-151.91 168.95c-10.62,11.83 -25.8,18.6 -41.7,18.6l0 0z"/>
   <path class="fil7" d="M2059.86 1023.6c9.42,-21.79 17.38,-50.81 -0.68,-66.21 -10.47,-8.93 -25.56,-8.95 -39.28,-10.06 -38.67,-3.14 -78.46,-20.92 -97.36,-54.8 -18.9,-33.88 -8.35,-84.25 27.31,-99.53 24.03,-10.3 51.58,-3.28 76.73,3.85l75.53 21.41c22.43,6.36 46,13.39 62.15,30.21 25.77,26.83 23.84,72.2 3.38,103.26 -20.46,31.07 -51.29,63.47 -86.57,75.27l-21.22 -3.4z"/>
   <path class="fil1" d="M3101.85 2428.71l-3096.84 0c0,0 -0.01,0 -0.01,0 -2.76,0 -5,-2.24 -5,-5 0,-2.75 2.23,-5 5,-5 0,0 0.01,0 0.01,0l3096.84 0.01c0,-0.01 0.01,-0.01 0.01,-0.01 2.75,0 4.99,2.24 4.99,5 0,2.75 -2.23,5 -4.99,5 -0.01,0 -0.01,0 -0.01,0l0 0z"/>
  </g>
 </g>
</svg>
