<?xml version="1.0" encoding="UTF-8"?>
<!DOCTYPE svg PUBLIC "-//W3C//DTD SVG 1.1//EN" "http://www.w3.org/Graphics/SVG/1.1/DTD/svg11.dtd">
<!-- Creator: CorelDRAW 2021 (64-Bit) -->
<svg xmlns="http://www.w3.org/2000/svg" xml:space="preserve" width="1.23563in" height="1.37795in" version="1.1" style="shape-rendering:geometricPrecision; text-rendering:geometricPrecision; image-rendering:optimizeQuality; fill-rule:evenodd; clip-rule:evenodd"
viewBox="0 0 35.62 39.72"
 xmlns:xlink="http://www.w3.org/1999/xlink"
 xmlns:xodm="http://www.corel.com/coreldraw/odm/2003">
 <defs>
  <style type="text/css">
   <![CDATA[
    .fil3 {fill:#3F3D56}
    .fil6 {fill:#FEFEFE;fill-rule:nonzero}
    .fil1 {fill:#00C4B5;fill-rule:nonzero}
    .fil5 {fill:#2F2E41;fill-rule:nonzero}
    .fil0 {fill:#3F3D56;fill-rule:nonzero}
    .fil2 {fill:#CCCCCC;fill-rule:nonzero}
    .fil4 {fill:#FFB8B8;fill-rule:nonzero}
   ]]>
  </style>
 </defs>
 <g id="Layer_x0020_1">
  <metadata id="CorelCorpID_0Corel-Layer"/>
  <g id="_2402377049232">
   <path class="fil0" d="M14.9 22.59c0.07,0.03 0.11,0.1 0.11,0.17 0,0.03 -0.01,0.05 -0.02,0.07l-0.26 0.6 0.03 0.01 -0.18 0.41 -0.03 -0.02 -0.92 2.14c-0.05,0.12 -0.17,0.2 -0.3,0.2 -0.03,0 -0.06,-0 -0.09,-0.01l-1.43 -0.41c-0.11,-0.03 -0.18,-0.13 -0.18,-0.24 0,-0.04 0.01,-0.07 0.02,-0.11l1.44 -2.99c0.05,-0.11 0.16,-0.17 0.28,-0.17 0.02,0 0.05,0 0.07,0.01l1.41 0.33 -0 0c0.01,0 0.02,0.01 0.03,0.01l0 0z"/>
   <path class="fil1" d="M13.71 22.48l0.74 0.17c0,0 0.01,0 0.01,0 0.02,0 0.04,-0.01 0.05,-0.03l0 0c0.01,-0.02 0.04,-0.04 0.06,-0.04 0.01,0 0.01,0 0.02,0l0.16 0.04c0.07,0.02 0.12,0.08 0.12,0.15 0,0.02 -0,0.04 -0.01,0.06l-1.33 3.1c-0.03,0.06 -0.09,0.1 -0.16,0.1 -0.02,0 -0.03,-0 -0.05,-0.01l-1.42 -0.43c-0.06,-0.02 -0.09,-0.07 -0.09,-0.13 0,-0.02 0,-0.04 0.01,-0.06l1.41 -2.97c0.04,-0.07 0.11,-0.12 0.19,-0.12 0.02,0 0.03,0 0.05,0.01l0.16 0.04c-0,0.01 -0,0.01 -0,0.02 0,0.05 0.03,0.09 0.08,0.1l0 0z"/>
   <path class="fil2" d="M19.49 6.47c-1.79,0 -3.23,-1.45 -3.23,-3.23 0,-1.79 1.45,-3.23 3.23,-3.23 1.79,0 3.23,1.45 3.23,3.23 -0,1.78 -1.45,3.23 -3.23,3.23l0 0z"/>
   <path class="fil2" d="M31.96 9.47c-1.79,-0 -3.23,-1.45 -3.23,-3.23 0,-1.79 1.45,-3.23 3.23,-3.23 1.79,0 3.23,1.45 3.23,3.23 -0,1.78 -1.45,3.23 -3.23,3.23l0 0z"/>
   <path class="fil2" d="M26.18 19.71c-1.79,0 -3.23,-1.45 -3.23,-3.23 0,-1.79 1.45,-3.23 3.23,-3.23 1.79,0 3.23,1.45 3.23,3.23 -0,1.78 -1.45,3.23 -3.23,3.23l0 0z"/>
   <path class="fil0" d="M33.8 5.35l0.38 -0.08c0,0 -0.32,0.36 -0.38,0.38l0 0c-0,0.04 -0,0.08 -0,0.12 0,0.04 0,0.08 0,0.12 -0.74,3.17 -3.46,1.77 -3.46,1.77 0.99,0.02 1.08,-0.38 1.08,-0.38 -0.58,-0.08 -0.69,-0.46 -0.69,-0.46 0.03,0.02 0.07,0.03 0.11,0.03 0.08,0 0.15,-0.04 0.2,-0.1 -0.62,-0.16 -0.54,-0.77 -0.54,-0.77 0.11,0.08 0.24,0.13 0.38,0.15 -0.07,-0.08 -0.65,-0.79 -0.3,-1.15 0,0 0.43,0.77 1.56,0.84l0.08 -0.02c-0.01,-0.05 -0.02,-0.09 -0.02,-0.14 0,-0.01 0,-0.02 0,-0.03 0,-0.45 0.36,-0.81 0.81,-0.81 0.54,0 0.65,0.31 0.65,0.31l0.38 -0.23c-0.01,0 -0.05,0.38 -0.24,0.46z"/>
   <path class="fil0" d="M27.62 14.7l-2.85 0c-0,-0 -0.01,-0 -0.01,-0 -0.15,0 -0.27,0.12 -0.28,0.27l0 2.86c0,0.16 0.13,0.29 0.29,0.29l2.85 -0c0.15,-0.01 0.27,-0.13 0.27,-0.29 0,-0 0,-0.01 -0,-0.01l-0 -2.86c0,-0 0,-0 0,-0 0,-0.14 -0.12,-0.26 -0.26,-0.26 -0,0 -0.01,0 -0.01,0l0 0zm-2.09 2.85l-0.49 0 -0 -1.52 0.49 0 0 1.52zm-0.23 -1.75l-0 0c-0.15,-0 -0.26,-0.12 -0.26,-0.27 0,-0.15 0.12,-0.27 0.27,-0.27 0.15,0 0.27,0.12 0.27,0.27 0,0.15 -0.12,0.27 -0.26,0.27l0 0zm2.01 1.75l-0.49 0 -0 -0.83c0,-0.2 -0.07,-0.34 -0.25,-0.34 -0.11,0 -0.21,0.07 -0.25,0.18 -0.01,0.03 -0.02,0.07 -0.02,0.11 0,0 0,0.01 0,0.01l0 0.87 -0.49 0 -0 -1.52 0.49 0 0 0.21c0.09,-0.15 0.25,-0.25 0.43,-0.25 0,0 0.01,0 0.01,0 0.32,-0 0.56,0.21 0.56,0.67l0 0.89z"/>
   <path class="fil3" d="M21.6 3.25c-0,-1.17 -0.95,-2.11 -2.11,-2.11 -1.17,0 -2.11,0.95 -2.11,2.11 0,1.04 0.76,1.93 1.78,2.09l0 -1.48 -0.54 0 0 -0.61 0.54 0 0 -0.47c0,-0.53 0.32,-0.82 0.8,-0.82 0.16,0 0.32,0.02 0.47,0.04l0 0.52 -0.27 0c-0.26,0 -0.34,0.16 -0.34,0.33l0 0.4 0.59 0 -0.09 0.61 -0.49 0 0 1.48c1.03,-0.16 1.78,-1.05 1.78,-2.09 0,0 0,0 0,0l0 0z"/>
   <polygon class="fil4" points="10.19,38.75 11.07,38.75 11.49,35.36 10.19,35.36 "/>
   <path class="fil5" d="M12.76 39.57l-2.77 0 -0 -1.07 1.7 -0c0,0 0,0 0,0 0.59,-0 1.07,0.48 1.07,1.07 0,0 0,0 0,0l0 0 0 0z"/>
   <polygon class="fil4" points="5.44,38.75 6.32,38.75 6.74,35.36 5.44,35.36 "/>
   <path class="fil5" d="M8.02 39.57l-2.77 0 -0 -1.07 1.7 -0c0.59,0 1.07,0.48 1.07,1.07l0 0 0 0z"/>
   <circle class="fil4" cx="8.02" cy="12.73" r="1.89"/>
   <path class="fil4" d="M14.49 25.06c-0.05,-0.36 -0.35,-0.63 -0.72,-0.63 -0.07,0 -0.15,0.01 -0.21,0.03l-1.06 -1.27 -0.93 0.45 1.52 1.77c0.11,0.28 0.38,0.46 0.68,0.46 0.4,0 0.73,-0.32 0.73,-0.73 0,-0.03 -0,-0.06 -0.01,-0.1l0 0z"/>
   <path class="fil4" d="M5.39 26.34c0.05,-0.1 0.07,-0.2 0.07,-0.31 0,-0.33 -0.22,-0.61 -0.53,-0.7l-0.21 -1.64 -1.03 -0.11 0.33 2.31c-0.01,0.05 -0.01,0.09 -0.01,0.14 0,0.4 0.33,0.73 0.73,0.73 0.28,0 0.54,-0.16 0.66,-0.42l0 0z"/>
   <path class="fil2" d="M3.96 25.34c-0.17,0 -0.32,-0.13 -0.34,-0.3l-0.5 -3.4c-0.02,-0.12 -0.03,-0.24 -0.03,-0.36 0,-0.31 0.06,-0.62 0.18,-0.91l1.55 -3.87c0.15,-0.37 0.5,-0.61 0.9,-0.61 0.3,0 0.58,0.14 0.76,0.37l0 0c0.13,0.17 0.2,0.38 0.2,0.59 0,0.14 -0.03,0.27 -0.08,0.4l-0.73 1.63c-0.64,1.43 -0.97,2.98 -0.97,4.55 0,0.43 0.03,0.87 0.08,1.3 0,0.01 0,0.03 0,0.04 0,0.15 -0.1,0.29 -0.24,0.33l-0.66 0.2c-0.03,0.01 -0.07,0.02 -0.1,0.02l0 0z"/>
   <path class="fil5" d="M7.56 14.62c-0.01,0 -0.03,0 -0.04,0 -1.11,0 -2.02,-0.9 -2.02,-2.02 0,-1.11 0.9,-2.02 2.02,-2.02 0.14,0 0.28,0.02 0.42,0.04 0.42,-0.25 0.9,-0.42 1.38,-0.38 0.48,0.04 0.96,0.33 1.14,0.78 0.18,0.45 -0.01,1.05 -0.46,1.23 -0.29,0.12 -0.62,0.06 -0.92,0.01 -0.31,-0.05 -0.64,-0.08 -0.91,0.08 -0.27,0.16 -0.39,0.59 -0.15,0.78 0.18,0.16 0.29,0.39 0.29,0.63 0,0.1 -0.02,0.19 -0.05,0.28 -0.12,0.31 -0.45,0.56 -0.7,0.57z"/>
   <path class="fil5" d="M5.19 38.07c0,0 -0,0 -0,0 -0.19,0 -0.35,-0.16 -0.35,-0.35 0,-0 0,-0.01 0,-0.01l0.34 -12.76 0.04 -0 5.56 -0.12 0.96 12.41c0,0.01 0,0.02 0,0.02 0,0.15 -0.09,0.28 -0.23,0.33l-0.01 0 -1.09 0.07c-0.04,0.01 -0.07,0.02 -0.11,0.02 -0.16,0 -0.3,-0.11 -0.34,-0.27l-1.78 -7.96c-0.01,-0.05 -0.06,-0.09 -0.11,-0.09 -0.06,0 -0.11,0.04 -0.11,0.1l-1.31 8.27c-0.03,0.16 -0.16,0.28 -0.32,0.29l-1.1 0.06c-0.01,0 -0.01,0 -0.02,0z"/>
   <path class="fil2" d="M6.82 26.01c-0.69,0 -1.3,-0.1 -1.63,-0.4 -0.21,-0.19 -0.31,-0.45 -0.28,-0.77 0.12,-1.21 -0.09,-3.87 -0.28,-5.88 -0.01,-0.11 -0.02,-0.22 -0.02,-0.33 0,-0.84 0.3,-1.66 0.84,-2.3 0.59,-0.71 1.45,-1.15 2.38,-1.21 0.64,-0.05 2.13,-0.15 2.59,1.04 0.7,1.78 0.36,2.6 0.03,3.39 -0.28,0.67 -0.57,1.37 -0.21,2.67 0.19,0.72 0.43,1.43 0.71,2.13 0.19,0.49 0.29,0.74 0.2,0.9 -0.07,0.13 -0.25,0.18 -0.54,0.24 -0.1,0.02 -0.23,0.05 -0.38,0.08 -0.78,0.16 -2.22,0.47 -3.4,0.47z"/>
   <path class="fil2" d="M12.5 24.89c-0,0 -0.01,0 -0.01,-0 -0.1,-0 -0.2,-0.05 -0.26,-0.13l-1.96 -2.39c-0.42,-0.51 -0.69,-1.12 -0.8,-1.77l-0.6 -3.77c-0.01,-0.05 -0.01,-0.1 -0.01,-0.15 0,-0.53 0.43,-0.97 0.97,-0.97 0.49,0 0.9,0.37 0.96,0.85l0.24 2c0.22,1.85 0.94,3.6 2.07,5.08l0.14 0.18c0.05,0.06 0.07,0.13 0.07,0.21 0,0.09 -0.03,0.17 -0.09,0.23l-0.47 0.52c-0.07,0.07 -0.16,0.11 -0.26,0.11 0,0 -0,0 -0,0l0 0z"/>
   <ellipse class="fil0" cx="21.9" cy="5.92" rx="1.29" ry="1.3"/>
   <path class="fil0" d="M22.16 6.61l-0.26 0 0 -1c-0.1,0.09 -0.21,0.16 -0.34,0.2l0 -0.24c0.08,-0.03 0.16,-0.07 0.22,-0.13 0.08,-0.06 0.13,-0.13 0.17,-0.22l0.21 0 0 1.39z"/>
   <ellipse class="fil1" cx="21.9" cy="5.92" rx="1.29" ry="1.3"/>
   <circle class="fil0" cx="34.31" cy="9.18" r="1.3"/>
   <circle class="fil1" cx="34.31" cy="9.18" r="1.3"/>
   <circle class="fil0" cx="28.83" cy="19.25" r="1.3"/>
   <path class="fil0" d="M28.67 18.92c-0,0 -0,0.01 -0,0.01 0,0.04 0.02,0.08 0.04,0.11 0.03,0.03 0.07,0.04 0.11,0.04 0,0 0,-0 0.01,-0 0,0 0,0 0.01,0 0.04,0 0.08,-0.02 0.11,-0.04 0.03,-0.03 0.04,-0.07 0.04,-0.11 0,-0 0,-0.01 -0,-0.01 0,-0 0,-0.01 0,-0.01 0,-0.04 -0.02,-0.08 -0.04,-0.11 -0.03,-0.03 -0.07,-0.04 -0.11,-0.04 -0,0 -0,0 -0.01,0 -0,-0 -0,-0 -0.01,-0 -0.04,0 -0.08,0.02 -0.11,0.04 -0.03,0.03 -0.04,0.07 -0.04,0.11 0,0 0,0 0,0.01zm0.02 0.46c-0,0 -0,0.01 -0,0.01 0,0.06 0.02,0.11 0.05,0.15 0.03,0.04 0.08,0.06 0.13,0.06 0,0 0,0 0,0 0,0 0,0 0,0 0.05,0 0.09,-0.02 0.13,-0.06 0.03,-0.04 0.05,-0.1 0.05,-0.15 0,-0.01 -0,-0.01 -0,-0.02 0,-0 0,-0.01 0,-0.01 0,-0.05 -0.02,-0.1 -0.05,-0.14 -0.03,-0.04 -0.08,-0.06 -0.13,-0.06 -0,0 -0,0 -0,0 -0,-0 -0.01,-0 -0.01,-0 -0.05,0 -0.1,0.02 -0.13,0.07 -0.06,0.05 -0.1,0.12 -0.1,0.2 0,0.02 0,0.04 0.01,0.06l0.04 -0.12zm0.02 -0.46c-0.06,-0.02 -0.11,-0.06 -0.14,-0.12 -0.03,-0.05 -0.04,-0.1 -0.04,-0.16 0,-0 0,-0 0,-0 0,-0 -0,-0.01 -0,-0.01 0,-0.09 0.04,-0.18 0.1,-0.24 0.08,-0.06 0.19,-0.1 0.29,-0.1 0.11,0 0.21,0.03 0.29,0.1 0.07,0.06 0.1,0.15 0.1,0.24 0,0 0,0.01 -0,0.01 0,0 0,0 0,0.01 0,0.12 -0.07,0.23 -0.18,0.27 0.13,0.05 0.22,0.18 0.22,0.32 0,0 -0,0.01 -0,0.01 0,0.01 0,0.01 0,0.02 0,0.22 -0.18,0.4 -0.4,0.4 -0.01,0 -0.02,-0 -0.03,-0 -0.01,0 -0.01,0 -0.02,0 -0.1,0 -0.2,-0.03 -0.28,-0.1 -0.09,-0.07 -0.14,-0.18 -0.14,-0.3 0,-0.01 0,-0.01 0,-0.02 0,-0 0,-0 0,-0 0,-0.07 0.02,-0.14 0.05,-0.2 0.03,0.03 0.06,0.07 0.08,0.12l0.09 -0.26z"/>
   <circle class="fil1" cx="28.83" cy="19.25" r="1.3"/>
   <path class="fil2" d="M17.86 39.72l-17.78 0c-0.04,-0 -0.08,-0.03 -0.08,-0.08 0,-0.04 0.03,-0.08 0.08,-0.08l17.78 0c0.04,0 0.08,0.03 0.08,0.08 0,0.04 -0.03,0.08 -0.08,0.08l0 0z"/>
   <path class="fil6" d="M21.98 6.46l0 -0.83c-0.15,0.12 -0.26,0.18 -0.31,0.18 -0.03,0 -0.05,-0.01 -0.07,-0.03 -0.02,-0.02 -0.03,-0.04 -0.03,-0.07 0,-0.03 0.01,-0.05 0.03,-0.07 0.02,-0.01 0.05,-0.03 0.1,-0.06 0.07,-0.03 0.13,-0.07 0.18,-0.11 0.04,-0.04 0.08,-0.08 0.12,-0.13 0.03,-0.05 0.06,-0.08 0.07,-0.09 0.01,-0.01 0.03,-0.02 0.06,-0.02 0.03,0 0.06,0.01 0.08,0.04 0.02,0.02 0.03,0.06 0.03,0.1l0 1.04c0,0.12 -0.04,0.18 -0.13,0.18 -0.04,0 -0.07,-0.01 -0.09,-0.04 -0.02,-0.02 -0.03,-0.06 -0.03,-0.11z"/>
   <path class="fil6" d="M34.09 9.12c0.04,-0.05 0.09,-0.09 0.13,-0.11 0.05,-0.02 0.1,-0.04 0.16,-0.04 0.06,0 0.11,0.01 0.16,0.03 0.05,0.02 0.09,0.05 0.13,0.09 0.04,0.04 0.07,0.09 0.08,0.14 0.02,0.05 0.03,0.11 0.03,0.17 0,0.09 -0.02,0.16 -0.06,0.23 -0.04,0.07 -0.09,0.12 -0.16,0.16 -0.07,0.04 -0.15,0.06 -0.24,0.06 -0.1,0 -0.19,-0.02 -0.26,-0.07 -0.07,-0.05 -0.13,-0.12 -0.17,-0.22 -0.04,-0.1 -0.06,-0.22 -0.06,-0.36 0,-0.11 0.01,-0.22 0.04,-0.31 0.02,-0.09 0.06,-0.17 0.1,-0.23 0.04,-0.06 0.1,-0.1 0.16,-0.14 0.06,-0.03 0.14,-0.05 0.22,-0.05 0.08,0 0.15,0.02 0.21,0.05 0.06,0.03 0.1,0.07 0.13,0.11 0.03,0.04 0.05,0.09 0.05,0.13 0,0.02 -0.01,0.05 -0.03,0.07 -0.02,0.02 -0.04,0.03 -0.07,0.03 -0.03,0 -0.05,-0.01 -0.07,-0.02 -0.02,-0.02 -0.04,-0.04 -0.05,-0.07 -0.01,-0.04 -0.04,-0.07 -0.07,-0.09 -0.03,-0.02 -0.07,-0.03 -0.11,-0.03 -0.03,0 -0.06,0.01 -0.1,0.03 -0.03,0.02 -0.06,0.04 -0.08,0.08 -0.04,0.06 -0.07,0.18 -0.08,0.34zm0.25 0.57c0.06,0 0.11,-0.03 0.15,-0.08 0.04,-0.05 0.06,-0.12 0.06,-0.2 0,-0.06 -0.01,-0.1 -0.03,-0.14 -0.02,-0.04 -0.04,-0.07 -0.08,-0.09 -0.03,-0.02 -0.07,-0.03 -0.11,-0.03 -0.04,0 -0.07,0.01 -0.11,0.03 -0.03,0.02 -0.06,0.05 -0.08,0.09 -0.02,0.04 -0.03,0.08 -0.03,0.13 0,0.08 0.02,0.15 0.06,0.21 0.04,0.05 0.1,0.08 0.16,0.08z"/>
   <path class="fil6" d="M28.78 19.1c0.06,0 0.1,-0.02 0.14,-0.05 0.04,-0.03 0.06,-0.08 0.06,-0.14 0,-0.05 -0.02,-0.09 -0.05,-0.12 -0.03,-0.03 -0.08,-0.05 -0.13,-0.05 -0.04,0 -0.07,0.01 -0.09,0.02 -0.02,0.01 -0.04,0.02 -0.06,0.04 -0.01,0.02 -0.03,0.04 -0.04,0.07 -0.01,0.03 -0.02,0.05 -0.03,0.08 -0.01,0.01 -0.02,0.02 -0.03,0.03 -0.02,0.01 -0.03,0.01 -0.05,0.01 -0.02,0 -0.05,-0.01 -0.07,-0.03 -0.02,-0.02 -0.03,-0.05 -0.03,-0.08 0,-0.03 0.01,-0.06 0.03,-0.1 0.02,-0.03 0.05,-0.07 0.08,-0.1 0.04,-0.03 0.08,-0.06 0.14,-0.08 0.05,-0.02 0.12,-0.03 0.18,-0.03 0.06,0 0.11,0.01 0.16,0.02 0.05,0.02 0.09,0.04 0.13,0.07 0.04,0.03 0.06,0.07 0.08,0.11 0.02,0.04 0.03,0.08 0.03,0.13 0,0.06 -0.01,0.11 -0.04,0.16 -0.03,0.04 -0.06,0.09 -0.11,0.13 0.05,0.03 0.09,0.05 0.12,0.09 0.03,0.03 0.06,0.07 0.07,0.11 0.02,0.04 0.02,0.08 0.02,0.13 0,0.06 -0.01,0.11 -0.03,0.16 -0.02,0.05 -0.06,0.1 -0.1,0.14 -0.04,0.04 -0.09,0.07 -0.15,0.09 -0.06,0.02 -0.12,0.03 -0.2,0.03 -0.07,0 -0.14,-0.01 -0.2,-0.04 -0.06,-0.03 -0.11,-0.06 -0.14,-0.1 -0.04,-0.04 -0.07,-0.08 -0.08,-0.12 -0.02,-0.04 -0.03,-0.08 -0.03,-0.1 0,-0.04 0.01,-0.06 0.03,-0.09 0.02,-0.02 0.05,-0.03 0.09,-0.03 0.02,0 0.03,0 0.05,0.02 0.02,0.01 0.03,0.02 0.03,0.04 0.03,0.08 0.07,0.15 0.1,0.19 0.04,0.04 0.09,0.06 0.15,0.06 0.04,0 0.07,-0.01 0.11,-0.03 0.03,-0.02 0.06,-0.05 0.09,-0.08 0.02,-0.04 0.03,-0.08 0.03,-0.13 0,-0.07 -0.02,-0.13 -0.06,-0.17 -0.04,-0.04 -0.09,-0.06 -0.16,-0.06 -0.01,0 -0.03,0 -0.06,0 -0.03,0 -0.04,0 -0.05,0 -0.03,0 -0.06,-0.01 -0.08,-0.02 -0.02,-0.02 -0.03,-0.04 -0.03,-0.07 0,-0.03 0.01,-0.05 0.03,-0.07 0.02,-0.02 0.05,-0.03 0.1,-0.03l0.04 0z"/>
  </g>
 </g>
</svg>
