<?xml version="1.0" encoding="UTF-8"?>
<!DOCTYPE svg PUBLIC "-//W3C//DTD SVG 1.1//EN" "http://www.w3.org/Graphics/SVG/1.1/DTD/svg11.dtd">
<!-- Creator: CorelDRAW 2021 (64-Bit) -->
<svg xmlns="http://www.w3.org/2000/svg" xml:space="preserve" width="2.43763in" height="1.37795in" version="1.1" style="shape-rendering:geometricPrecision; text-rendering:geometricPrecision; image-rendering:optimizeQuality; fill-rule:evenodd; clip-rule:evenodd"
viewBox="0 0 332.04 187.7"
 xmlns:xlink="http://www.w3.org/1999/xlink"
 xmlns:xodm="http://www.corel.com/coreldraw/odm/2003">
 <defs>
  <style type="text/css">
   <![CDATA[
    .fil3 {fill:#00C4B5;fill-rule:nonzero}
    .fil2 {fill:#2F2E41;fill-rule:nonzero}
    .fil5 {fill:#3F3D56;fill-rule:nonzero}
    .fil0 {fill:#CCCCCC;fill-rule:nonzero}
    .fil4 {fill:#E6E6E6;fill-rule:nonzero}
    .fil1 {fill:#FFB8B8;fill-rule:nonzero}
    .fil6 {fill:white;fill-rule:nonzero}
   ]]>
  </style>
 </defs>
 <g id="Layer_x0020_1">
  <metadata id="CorelCorpID_0Corel-Layer"/>
  <g id="_2401635101520">
   <path class="fil0" d="M331.58 187.7l-103.13 0c-0.25,-0 -0.46,-0.21 -0.46,-0.46 0,-0.25 0.2,-0.46 0.46,-0.46l103.13 0c0.25,-0 0.46,0.2 0.46,0.46 0,0.25 -0.21,0.46 -0.46,0.46l0 0z"/>
   <circle class="fil1" cx="276.06" cy="36.76" r="11.26"/>
   <polygon class="fil1" points="277.23,170.44 271.91,172.24 262.4,152.58 270.26,149.92 "/>
   <path class="fil2" d="M267.59 172.02l10.26 -3.49 2.19 6.46 -16.72 5.68 0 0c0,0 0,0 0,0 -1.21,-3.57 0.7,-7.44 4.27,-8.66l0 0z"/>
   <polygon class="fil1" points="289.25,181.54 283.64,181.83 279.88,160.31 288.16,159.9 "/>
   <path class="fil2" d="M279.55 180.42l10.82 -0.54 0.34 6.81 -17.64 0.89 0 0c0,0 0,0 0,0 -0.19,-3.76 2.71,-6.97 6.47,-7.16l0 0z"/>
   <path class="fil1" d="M255.85 110.07c0.98,-0.87 1.54,-2.13 1.54,-3.44 0,-1.41 -0.65,-2.75 -1.76,-3.62l5.35 -15.48 -8.25 2.11 -3.82 14.38c-0.53,0.77 -0.81,1.68 -0.81,2.62 0,2.56 2.07,4.63 4.63,4.63 1.15,0 2.25,-0.43 3.1,-1.19l0 0z"/>
   <path class="fil2" d="M288.72 175.06c-0.07,-0 -0.15,-0 -0.22,-0.01l-7.62 -0.81c-0.96,-0.1 -1.73,-0.86 -1.83,-1.82l-5.89 -52.48 -4.26 14.36 7.94 28.23c0.05,0.18 0.08,0.37 0.08,0.56 0,1.05 -0.79,1.93 -1.83,2.05l-7.72 0.89c-0.08,0.01 -0.15,0.01 -0.23,0.01 -0.94,0 -1.76,-0.63 -2,-1.53l-8.44 -31.76c-0.05,-0.17 -0.07,-0.35 -0.07,-0.53 0,-0.09 0.01,-0.18 0.02,-0.27l3.79 -28.51 28.29 2.27 2.05 67.24c0,0.02 0,0.04 0,0.06 0,1.14 -0.92,2.06 -2.06,2.06l0 0z"/>
   <path class="fil3" d="M278.95 110.57c-9.48,0 -20.21,-3.66 -20.86,-3.89l-0.19 -0.07 10.69 -54.86 0.2 0.01c4.24,0.17 15.8,0.26 15.92,0.26l0.21 0 4.46 48.41 0.8 7.08 -0.1 0.08c-2.73,2.2 -6.79,2.97 -11.12,2.97z"/>
   <path class="fil2" d="M261.83 105.83l-6.69 -2.69 3.41 -41.22c0.17,-2.06 1.26,-3.93 2.97,-5.09l3.52 -2.39 0 0c-0.06,-0.2 -0.09,-0.42 -0.09,-0.63 0,-1.23 1,-2.23 2.23,-2.23 0.02,0 0.05,0 0.07,0l1.01 0.03c0.19,-0.13 0.41,-0.2 0.64,-0.2 0.63,0 1.15,0.51 1.15,1.15 0,0.09 -0.01,0.18 -0.03,0.27l-0.22 4.37 -7.96 48.64z"/>
   <path class="fil2" d="M258.45 98.44l-8.73 -0.37 2.83 -18.19 2.34 -17.12c0.16,-2.13 1.94,-3.78 4.08,-3.78 0.42,0 0.83,0.06 1.23,0.19l0 0c1.7,0.53 2.86,2.11 2.86,3.9 0,0.17 -0.01,0.35 -0.03,0.52l-2.37 18.55 -2.2 16.31z"/>
   <path class="fil2" d="M272.28 106.46l-0.06 -0.18c-0.04,-0.13 -3.97,-12.75 2.61,-27.81l3.3 -16.42 2.82 -10.31c0.11,-0.37 0.38,-0.68 0.75,-0.81 0.12,-0.04 0.25,-0.06 0.37,-0.06 0.32,0 0.63,0.14 0.84,0.37l0 0c0.72,-0.21 1.47,-0.32 2.22,-0.32 1.28,0 2.54,0.31 3.67,0.91l3.96 2.09c1.48,0.78 2.4,2.31 2.4,3.98 0,0.35 -0.04,0.69 -0.12,1.03l-5.42 23.11 2.63 21.59 -19.99 2.84z"/>
   <path class="fil1" d="M278.04 97.56c0.16,0.02 0.33,0.03 0.5,0.03 2.55,0 4.61,-2.06 4.61,-4.61 0,-0.1 -0,-0.21 -0.01,-0.32l12.26 -9.08 -4.29 -2.03 -13.22 6.81c-2.3,0.31 -4.01,2.27 -4.01,4.59 0,2.38 1.8,4.37 4.16,4.61l0 0z"/>
   <path class="fil2" d="M285.73 93.49l-4.14 -7.73 10.22 -6.72 -4.99 -17.88c-0.13,-0.47 -0.2,-0.96 -0.2,-1.45 0,-2.57 1.82,-4.79 4.34,-5.3l0 0c0.35,-0.07 0.7,-0.1 1.06,-0.1 2.32,0 4.38,1.47 5.13,3.66l6.73 19.77c0.07,0.21 0.11,0.44 0.11,0.66 0,0.64 -0.3,1.24 -0.8,1.63l-17.45 13.46z"/>
   <path class="fil2" d="M276.86 39.15c-1.35,0.18 -2.37,-1.21 -2.84,-2.48 -0.47,-1.28 -0.83,-2.76 -2.01,-3.45 -1.6,-0.94 -3.65,0.19 -5.49,-0.12 -2.07,-0.35 -3.42,-2.54 -3.52,-4.64 -0.11,-2.1 0.73,-4.11 1.55,-6.05l0.29 2.4c-0,-0.07 -0.01,-0.15 -0.01,-0.22 0,-1.58 0.78,-3.06 2.09,-3.94l-0.37 3.53c0.29,-1.81 1.86,-3.15 3.69,-3.15 0.2,0 0.41,0.02 0.61,0.05l-0.06 2.1c2.39,-0.28 4.8,-0.57 7.2,-0.35 2.4,0.22 4.81,0.98 6.63,2.55 2.72,2.36 3.71,6.25 3.38,9.84 -0.33,3.59 -1.81,6.95 -3.36,10.21 -0.39,0.82 -0.93,1.74 -1.82,1.85 -0.81,0.09 -1.55,-0.58 -1.8,-1.36 -0.09,-0.38 -0.14,-0.77 -0.14,-1.17 0,-0.42 0.05,-0.84 0.16,-1.25 0.23,-1.21 0.51,-2.44 0.3,-3.66 -0.21,-1.21 -1.09,-2.41 -2.31,-2.56 -1.22,-0.15 -2.47,1.25 -1.88,2.33l-0.3 -0.47z"/>
   <path class="fil4" d="M129.57 162.75l-4.38 -1.84 -3.01 -21.97 -40.03 0 -3.26 21.88 -3.92 1.96c-0.32,0.16 -0.51,0.48 -0.51,0.83 0,0.51 0.42,0.93 0.93,0.93l53.82 0c0,-0 0,-0 0,-0 0.51,0 0.93,-0.42 0.93,-0.93 0,-0.37 -0.22,-0.71 -0.57,-0.86l0 0z"/>
   <path class="fil0" d="M200.71 141.86l-196.64 0c-2.15,-0 -3.89,-1.75 -3.89,-3.9l0 -27.73 204.42 0 0 27.73c0,2.15 -1.74,3.89 -3.89,3.9l0 0z"/>
   <path class="fil5" d="M204.8 123.34l-204.8 0 0 -118.65c0,-2.59 2.1,-4.69 4.7,-4.7l195.41 0c2.59,0 4.69,2.1 4.7,4.7l0 118.65z"/>
   <path class="fil6" d="M192.57 114.73l-180.34 0c-2,-0 -3.62,-1.62 -3.62,-3.62l-0 -98.88c0,-2 1.62,-3.62 3.62,-3.62l180.34 0c2,0 3.62,1.62 3.62,3.62l0 98.88c-0,2 -1.62,3.62 -3.62,3.62l0 0z"/>
   <path class="fil0" d="M190.87 164.77l-174.63 0c-0.25,0 -0.46,-0.21 -0.46,-0.46 0,-0.25 0.2,-0.46 0.46,-0.46l174.63 0c0.25,-0 0.46,0.2 0.46,0.46 0,0.25 -0.21,0.46 -0.46,0.46l0 0z"/>
   <path class="fil5" d="M175.63 102.45l-146.46 0c-0.25,0 -0.46,-0.21 -0.46,-0.46l0 -70.2c0,-0.25 0.21,-0.46 0.46,-0.46 0.25,0 0.46,0.2 0.46,0.46l0 69.74 146 0c0.25,-0 0.46,0.2 0.46,0.46 0,0.25 -0.21,0.46 -0.46,0.46l0 0z"/>
   <path class="fil3" d="M60.46 97.41l-13.32 0c-0.75,-0 -1.36,-0.61 -1.36,-1.36l0 -18.36c0,-0.75 0.61,-1.36 1.36,-1.36l13.32 0c0.75,0 1.36,0.61 1.36,1.36l0 18.36c-0,0.75 -0.61,1.36 -1.36,1.36l0 0z"/>
   <path class="fil3" d="M84.76 97.41l-13.32 0c-0.75,-0 -1.36,-0.61 -1.36,-1.36l0 -35.78c0,-0.75 0.61,-1.36 1.36,-1.36l13.32 0c0.75,0 1.36,0.61 1.36,1.36l0 35.78c-0,0.75 -0.61,1.36 -1.36,1.36l0 0z"/>
   <path class="fil3" d="M109.05 97.41l-13.32 0c-0.75,-0 -1.36,-0.61 -1.36,-1.36l0 -18.36c0,-0.75 0.61,-1.36 1.36,-1.36l13.32 0c0.75,0 1.36,0.61 1.36,1.36l0 18.36c-0,0.75 -0.61,1.36 -1.36,1.36l0 0z"/>
   <path class="fil3" d="M133.34 97.41l-13.32 0c-0.01,0 -0.02,0 -0.03,0 -0.72,0 -1.31,-0.58 -1.33,-1.3l0 -42.78c0.02,-0.72 0.61,-1.3 1.33,-1.3 0.01,0 0.02,0 0.03,0l13.32 0c0.01,-0 0.02,-0 0.03,-0 0.72,0 1.31,0.58 1.33,1.3l0 42.78c-0.02,0.72 -0.61,1.3 -1.33,1.3 -0.01,0 -0.02,0 -0.03,0l0 0z"/>
   <path class="fil3" d="M157.63 97.41l-13.32 0c-0.75,-0 -1.36,-0.61 -1.36,-1.36l0 -55.03c0,-0.75 0.61,-1.36 1.36,-1.36l13.32 0c0.75,0 1.36,0.61 1.36,1.36l0 55.03c-0,0.75 -0.61,1.36 -1.36,1.36l0 0z"/>
   <circle class="fil5" cx="53.8" cy="68.07" r="2.75"/>
   <circle class="fil5" cx="78.1" cy="50.2" r="2.75"/>
   <circle class="fil5" cx="102.39" cy="68.07" r="2.75"/>
   <circle class="fil5" cx="126.68" cy="41.49" r="2.75"/>
   <circle class="fil5" cx="150.97" cy="31.41" r="2.75"/>
   <polygon class="fil5" points="102.45,68.69 78.1,50.45 54.08,68.44 53.53,67.71 78.1,49.3 102.33,67.46 126.41,41.1 126.51,41.06 150.8,31.28 151.14,32.13 126.95,41.87 "/>
  </g>
 </g>
</svg>
