<?xml version="1.0" encoding="UTF-8"?>
<!DOCTYPE svg PUBLIC "-//W3C//DTD SVG 1.1//EN" "http://www.w3.org/Graphics/SVG/1.1/DTD/svg11.dtd">
<!-- Creator: CorelDRAW 2021 (64-Bit) -->
<svg xmlns="http://www.w3.org/2000/svg" xml:space="preserve" width="1.90812in" height="1.37795in" version="1.1" style="shape-rendering:geometricPrecision; text-rendering:geometricPrecision; image-rendering:optimizeQuality; fill-rule:evenodd; clip-rule:evenodd"
viewBox="0 0 601.69 434.51"
 xmlns:xlink="http://www.w3.org/1999/xlink"
 xmlns:xodm="http://www.corel.com/coreldraw/odm/2003">
 <defs>
  <style type="text/css">
   <![CDATA[
    .str0 {stroke:#3F3D56;stroke-width:3.28;stroke-miterlimit:22.9256}
    .fil6 {fill:none}
    .fil5 {fill:#00C4B5}
    .fil8 {fill:#2F2E41}
    .fil2 {fill:#3F3D56}
    .fil1 {fill:#E6E6E6}
    .fil3 {fill:#E6E8EC}
    .fil7 {fill:#FFB6B6}
    .fil4 {fill:white}
    .fil0 {fill:black;fill-opacity:0.200000}
   ]]>
  </style>
 </defs>
 <g id="Layer_x0020_1">
  <metadata id="CorelCorpID_0Corel-Layer"/>
  <g id="_2402164447024">
   <path class="fil0" d="M154.89 253.55c0,0 1.26,25.25 -52.61,56.4 0,0 -0.06,0.14 394.36,0 0,0 -45.04,-31.99 -47.98,-67.76m-293.77 11.36l0 0 0 0z"/>
   <path class="fil1" d="M446.99 235.5l0 -212.2c5.22,-1.35 8.87,-6.07 8.87,-11.46l0 0c0,-6.54 -5.3,-11.84 -11.83,-11.84 0,0 0,0 0,0l-284.05 0c0,0 0,0 0,0 -6.54,0 -11.83,5.3 -11.83,11.84l0 0c0,6.54 5.3,11.83 11.83,11.83l0 0 -6.58 212.01 -52.8 67.57c0,0 -0.44,0 394.36,0 0,0 -0.28,0.68 -47.98,-67.76z"/>
   <path class="fil0" d="M399.65 272.73c0,-3.69 -38.94,-6.69 -86.96,-6.69 -48.03,0 -86.96,2.99 -86.96,6.69 0,3.69 38.93,6.69 86.96,6.69 48.03,0 86.96,-2.99 86.96,-6.69z"/>
   <polygon class="fil0" points="159.98,23.67 446.99,32.03 447.12,23.16 "/>
   <path class="fil2" d="M367.35 98.09l0 26.09c-0,0.5 -0.41,0.91 -0.91,0.91l-0.65 0 0 135.91c0,7.83 -6.35,14.18 -14.18,14.18l-84.92 0c-7.83,-0 -14.18,-6.35 -14.18,-14.18 0,0 0,-0 0,-0l-0 -131.14 -0.47 0c0,0 -0,0 -0,0 -0.35,0 -0.64,-0.29 -0.64,-0.64l0 -14.85c0,0 0,0 0,0 0,-0.36 0.29,-0.64 0.64,-0.64 0,0 0,0 0,0l0.47 0 0 -5.59 -0.47 0c-0.37,-0 -0.67,-0.3 -0.67,-0.67 0,0 0,-0 0,-0l0 -14.65c0,-0.37 0.3,-0.67 0.67,-0.67l0.47 0 0 -7.63 -0.48 0c0,0 0,0 0,0 -0.33,0 -0.6,-0.27 -0.6,-0.59 0,0 0,-0 0,-0l0 -7.99c0,-0 0,-0 0,-0 0,-0.33 0.27,-0.6 0.6,-0.6l0.48 0 0 -16.18c0,-7.83 6.35,-14.18 14.18,-14.18l84.92 0c0,0 0,0 0,0 7.83,0 14.18,6.35 14.18,14.18l0 38.05 0.65 -0c0.5,0 0.91,0.41 0.91,0.91l0 0z"/>
   <path class="fil3" d="M299.45 52.23l13.8 0c0.56,0 1.01,0.45 1.01,1.01l0 1.19c0,0.56 -0.45,1.01 -1.01,1.01l-13.8 0c-0.56,0 -1.01,-0.45 -1.01,-1.01l0 -1.19c0,-0.56 0.45,-1.01 1.01,-1.01z"/>
   <circle class="fil3" cx="318.47" cy="53.84" r="1.82"/>
   <path class="fil4" d="M359.01 61.94l0 200.23c-0,4.97 -4.03,8.99 -9,8.99l-81.29 0c-0,0 -0.01,0 -0.02,0 -4.96,0 -8.98,-4.02 -8.98,-8.98 0,-0 0,-0.01 0,-0.01l0 -200.23c0,0 0,0 0,0 0,-4.97 4.03,-9 9,-9 0,0 0,0 0,0l12.17 0 0 1.56c0,4.09 3.32,7.41 7.41,7.41l41.34 0c4.09,0 7.41,-3.32 7.41,-7.41l0 -1.56 12.96 0c0,0 0,0 0,0 4.97,0 8.99,4.03 8.99,8.99 0,0 0,0 0,0l0 -0z"/>
   <rect class="fil1" x="268.22" y="184.76" width="82.62" height="10.72"/>
   <rect class="fil1" x="268.22" y="203.83" width="82.62" height="10.72"/>
   <rect class="fil1" x="268.22" y="222.9" width="82.62" height="10.72"/>
   <rect class="fil1" x="268.05" y="107.7" width="82.62" height="54.82"/>
   <path class="fil5" d="M155.04 31.53l-42.37 0.26c0,0 -69.74,37.11 -20.79,113.95 0,0 20,-4.74 42.11,11.58 0,0 12.89,-122.9 21.05,-125.8z"/>
   <path class="fil0" d="M142.43 31.91c-7.59,31.71 -16.17,113.49 -16.17,113.49 -19.75,-14.58 -37.81,-12.35 -41.43,-11.71 2.13,4.22 4.51,8.38 7.05,12.36 2.54,3.98 20,-4.74 42.11,11.58 0,0 12.89,-122.9 21.05,-125.79l-12.6 0.08z"/>
   <polygon class="fil2" points="91.61,71.26 87.93,89.16 41.62,80.74 41.61,80.74 40.56,59.69 49.5,59.69 "/>
   <polygon class="fil0" points="48.76,59.69 41.62,80.74 41.61,80.74 40.56,59.69 "/>
   <ellipse class="fil2" cx="90.03" cy="79.16" rx="5.26" ry="12.11"/>
   <path class="fil2" d="M62.66 334.99c0,0 0,0 0,0 -0.89,0 -1.61,-0.72 -1.61,-1.61 0,0 0,0 0,0l0 -254.22c0,-0.89 0.72,-1.61 1.61,-1.61 0.89,0 1.61,0.72 1.61,1.61l0 254.22c0,0 0,0 0,0 0,0.89 -0.72,1.61 -1.61,1.61 0,0 0,0 0,0l-0 0z"/>
   <path class="fil2" d="M84.77 379.73c-0.77,-0 -1.43,-0.55 -1.58,-1.3l-22.11 -113.33c-0.02,-0.1 -0.03,-0.2 -0.03,-0.31 0,-0.89 0.72,-1.61 1.61,-1.61 0.54,0 1.05,0.27 1.34,0.73l58.42 89.12c0.17,0.26 0.26,0.57 0.26,0.88 0,0.89 -0.72,1.61 -1.61,1.61 -0.54,0 -1.05,-0.27 -1.35,-0.73l-53.93 -82.26 20.54 105.28c0.02,0.1 0.03,0.2 0.03,0.31 0,0.77 -0.54,1.43 -1.3,1.58 -0.1,0.02 -0.2,0.03 -0.31,0.03 -0,0 -0,0 -0,0l0 0z"/>
   <path class="fil2" d="M1.61 359.73c-0.89,-0 -1.61,-0.72 -1.61,-1.61 0,-0.31 0.09,-0.62 0.26,-0.88l61.05 -93.16c0.3,-0.45 0.8,-0.73 1.34,-0.73 0.89,0 1.61,0.72 1.61,1.61 0,0.31 -0.09,0.62 -0.26,0.88l-61.05 93.16c-0.3,0.45 -0.8,0.73 -1.34,0.73 -0,0 -0,0 -0,0l0 0z"/>
   <path class="fil5" d="M446.65 31.53l42.37 0.26c0,0 69.74,37.11 20.79,113.95 0,0 -20,-4.74 -42.11,11.58 0,0 -12.89,-122.9 -21.05,-125.8z"/>
   <path class="fil0" d="M459.26 31.91c7.59,31.71 16.17,113.49 16.17,113.49 19.75,-14.58 37.81,-12.35 41.43,-11.71 -2.13,4.22 -4.51,8.38 -7.05,12.36 -2.54,3.98 -20,-4.74 -42.11,11.58 0,0 -12.89,-122.9 -21.05,-125.79l12.6 0.08z"/>
   <polygon class="fil2" points="510.08,71.26 513.76,89.16 560.06,80.74 560.08,80.74 561.13,59.69 552.18,59.69 "/>
   <polygon class="fil0" points="552.93,59.69 560.06,80.74 560.08,80.74 561.13,59.69 "/>
   <ellipse class="fil2" cx="511.66" cy="79.16" rx="5.26" ry="12.11"/>
   <path class="fil2" d="M539.03 334.99c0,0 0,0 0,0 -0.89,0 -1.61,-0.72 -1.61,-1.61 0,0 0,0 0,0l0 -254.22c0,-0.89 0.72,-1.61 1.61,-1.61 0.89,0 1.61,0.72 1.61,1.61l0 254.22c0,0 0,0 0,0 0,0.89 -0.72,1.61 -1.61,1.61 0,0 0,0 0,0l0 0z"/>
   <path class="fil2" d="M516.92 379.73c0,0 0,0 -0,0 -0.1,0 -0.21,-0.01 -0.31,-0.03 -0.76,-0.15 -1.3,-0.81 -1.3,-1.58 0,-0.1 0.01,-0.21 0.03,-0.31l20.54 -105.28 -53.93 82.26c-0.3,0.45 -0.8,0.73 -1.35,0.73 -0.89,0 -1.61,-0.72 -1.61,-1.61 0,-0.31 0.09,-0.62 0.26,-0.88l58.42 -89.12c0.3,-0.45 0.8,-0.73 1.35,-0.73 0.89,0 1.61,0.72 1.61,1.61 0,0.1 -0.01,0.21 -0.03,0.31l-22.11 113.33c-0.15,0.75 -0.81,1.3 -1.58,1.3l0 0z"/>
   <path class="fil2" d="M600.08 359.73c-0,0 -0,0 -0,0 -0.54,0 -1.05,-0.27 -1.34,-0.73l-61.06 -93.16c-0.17,-0.26 -0.26,-0.57 -0.26,-0.88 0,-0.89 0.72,-1.61 1.61,-1.61 0.54,0 1.05,0.27 1.34,0.73l61.05 93.16c0.17,0.26 0.26,0.57 0.26,0.88 0,0.89 -0.72,1.61 -1.61,1.61l0 0z"/>
   <path class="fil2" d="M264.17 223.4l11.53 -3.21c0,0 4.52,-0.9 1.76,-9.72 -2.76,-8.82 -8.23,-6.35 -8.23,-6.35l-10.23 2.97 -4.04 1.25 5.68 7.97 0.48 5.31 3.05 1.78z"/>
   <polygon class="fil2" points="241.9,200.1 238.28,214.55 256.81,232.5 258.41,232.9 262.66,231.71 266.27,217.27 262.61,213.41 266.36,212.43 258.36,204.68 254.19,205.55 250.85,202.23 253.11,201.33 253.32,200.48 250.59,198.32 "/>
   <polygon class="fil5" points="259.26,220.48 256.87,230.04 245.82,219.59 248.59,209.9 "/>
   <polygon class="fil6 str0" points="241.9,200.1 241.39,202.13 259.82,220.05 261.41,220.45 265.53,219.34 265.76,219.33 266.27,217.27 262.61,213.41 266.36,212.43 258.36,204.68 254.19,205.55 250.85,202.23 253.11,201.33 253.32,200.48 250.59,198.32 "/>
   <ellipse class="fil5" transform="matrix(0.0504716 -0.201583 0.201583 0.0504716 250.413 199.918)" rx="5.01" ry="7.38"/>
   <ellipse class="fil5" transform="matrix(0.0504716 -0.201583 0.201583 0.0504716 262.119 215.378)" rx="5.01" ry="7.38"/>
   <path class="fil7" d="M271.83 241.39l-2.51 -8.55c0,0 6.54,-15.59 -1.01,-17.09 -7.54,-1.51 -8.04,14.58 -8.04,14.58l3.02 9.55 8.55 1.51z"/>
   <circle class="fil7" cx="225.16" cy="204.81" r="19.97"/>
   <path class="fil7" d="M231.62 218.9c0,0 1.17,14.68 4.11,15.86 2.94,1.17 -31.72,9.4 -31.72,9.4l8.81 -9.99c0,0 1.76,-15.27 -2.35,-18.8l21.15 3.52z"/>
   <path class="fil5" d="M259.77 236.87l8.04 -1.01c0,0 9.55,5.03 9.55,11.56 0,6.54 5.53,17.09 5.53,17.09 0,0 4.02,14.08 -5.03,15.08 -9.05,1.01 -17.09,-15.08 -17.09,-15.08l-1.01 -27.65z"/>
   <path class="fil8" d="M264.29 316.81c0,0 17.6,-16.59 22.62,-15.59 5.03,1.01 15.08,2.51 15.08,10.06 0,7.54 -16.59,25.14 -16.59,25.14 0,0 -12.57,27.65 -24.63,28.66 -7.91,0.7 -15.84,1.92 -23.62,3.52 -7.78,1.6 5.53,20.11 2.51,25.64 -3.02,5.53 -14.58,12.07 -15.58,11.56 -1.01,-0.5 -15.08,-13.58 -21.12,-32.18 -6.03,-18.6 -10.05,-32.68 -4.53,-33.68 5.53,-1.01 65.85,-23.13 65.85,-23.13z"/>
   <path class="fil8" d="M300.49 309.77c0,0 3.52,-0.5 3.02,8.04 -0.5,8.55 -2.01,39.22 -4.53,45.25 -2.51,6.03 -3.02,13.07 -2.01,15.59 1.01,2.51 3.02,6.54 -0.5,7.04 -3.52,0.5 -18.1,-1.51 -19.61,-2.01 -1.51,-0.5 -3.02,-9.05 -2.01,-9.05 1.01,0 3.52,-0.5 2.51,-4.02 -1.01,-3.52 -1.51,-3.52 0,-4.53 1.51,-1.01 5.53,-2.51 4.52,-3.52 -1.01,-1.01 -2.01,-24.64 -2.01,-24.64l20.61 -28.15z"/>
   <path class="fil8" d="M295.46 384.17c0,0 8.55,-2.51 9.55,3.02 0,0 1.51,8.55 -5.03,11.56 -4.21,1.99 -8.26,4.35 -12.07,7.04 -3.81,2.68 -10.56,4.02 -11.06,-1.01 -0.5,-5.03 2.01,-23.12 2.01,-23.12l16.59 2.51z"/>
   <path class="fil8" d="M238.65 390.21l-16.09 -13.07c0,0 3.02,16.09 -1.01,19.1l-1.84 5.37 5.14 4.21c0,0 15.8,-2.54 13.79,-15.61z"/>
   <path class="fil8" d="M216.03 368.09c0,0 10.56,3.02 9.05,13.57 -1.51,10.56 -3.44,22.03 -3.44,22.03 0,0 -0.58,28.25 -8.12,30.26 -7.54,2.01 -9.55,-2.01 -9.55,-2.01 0,0 -8.57,-22.07 -6.03,-28.66 3.07,-7.97 7.5,-16.92 6.03,-19.61 -1.45,-2.65 1.01,-17.09 12.07,-15.59z"/>
   <path class="fil5" d="M209.99 229.33c0,0 4.02,0.5 10.56,1.51 6.54,1.01 11.06,-4.02 14.58,-3.02 3.52,1 32.68,8.04 32.68,8.04l-4.53 34.69c0,0 5.53,40.22 4.53,47.26 -1.01,7.04 12.07,6.03 4.53,14.58 -7.54,8.55 -20.61,16.09 -47.26,13.58 -26.65,-2.51 -30.16,-2.01 -30.16,-6.03 0,-4.02 6.03,-38.21 4.02,-41.23 -2.01,-3.02 -6.03,-6.54 -4.02,-10.05 2.01,-3.52 4.02,-5.53 1.01,-8.55 -3.02,-3.02 -4.52,-6.03 -4.52,-7.54 0,-1.51 -7.04,-26.14 -7.04,-26.14 0,0 3.02,-12.07 6.54,-12.57 3.52,-0.5 6.54,-3.02 9.05,-3.02 2.51,0 4.02,0.5 5.53,0l4.52 -1.51z"/>
   <path class="fil8" d="M258.21 197.8c-0.26,-1.16 -1.52,-5.05 -4.1,-5.99 -1.88,-0.69 -5.39,0.77 -7.13,0.53l-0.23 -0.64c-0.15,-1.26 -0.46,-2.5 -0.93,-3.67 -1.86,-4.75 -5.59,-8.55 -10.3,-10.5 -5.75,-2.4 -14.84,-4.39 -22.73,1.91 -10.84,8.65 -8.93,21.59 -8.14,25.18 0.13,0.6 0.24,1.2 0.34,1.81 0.49,3.16 1.88,3.54 1.88,3.54 0,0 -0.03,-0.09 -0.08,-0.26l9.79 0.95 5.29 -0.9c0.09,0.52 0.12,0.82 0.12,0.82 15.44,-2.36 24.43,-10.49 25.89,-11.9 1.28,0.85 3.67,2.24 5.99,2.54 3.39,0.45 4.6,-2.25 4.34,-3.42zm-39.78 7.78l-12.43 -0.45c-0.18,-3.39 0.7,-7.36 5.7,-7.56 4.82,-0.2 7.45,3.72 8.84,7.31l-2.11 0.71z"/>
   <ellipse class="fil8" transform="matrix(0.204844 -0.03496 0.03496 0.204844 221.53 175.736)" rx="10.58" ry="4"/>
  </g>
 </g>
</svg>
