<?xml version="1.0" encoding="UTF-8"?>
<!DOCTYPE svg PUBLIC "-//W3C//DTD SVG 1.1//EN" "http://www.w3.org/Graphics/SVG/1.1/DTD/svg11.dtd">
<!-- Creator: CorelDRAW 2021 (64-Bit) -->
<svg xmlns="http://www.w3.org/2000/svg" xml:space="preserve" width="1.09775in" height="1.37795in" version="1.1" style="shape-rendering:geometricPrecision; text-rendering:geometricPrecision; image-rendering:optimizeQuality; fill-rule:evenodd; clip-rule:evenodd"
viewBox="0 0 24.66 30.95"
 xmlns:xlink="http://www.w3.org/1999/xlink"
 xmlns:xodm="http://www.corel.com/coreldraw/odm/2003">
 <defs>
  <style type="text/css">
   <![CDATA[
    .fil4 {fill:#00C4B5;fill-rule:nonzero}
    .fil3 {fill:#2F2E41;fill-rule:nonzero}
    .fil7 {fill:#3F3D56;fill-rule:nonzero}
    .fil8 {fill:#CBCBCB;fill-rule:nonzero}
    .fil1 {fill:#CCCCCC;fill-rule:nonzero}
    .fil5 {fill:#E6E6E6;fill-rule:nonzero}
    .fil2 {fill:#FFB7B7;fill-rule:nonzero}
    .fil6 {fill:#FFB8B8;fill-rule:nonzero}
    .fil0 {fill:white;fill-rule:nonzero}
   ]]>
  </style>
 </defs>
 <g id="Layer_x0020_1">
  <metadata id="CorelCorpID_0Corel-Layer"/>
  <g id="_2401826078512">
   <polygon class="fil0" points="5.97,6.6 0.12,6.6 0.12,1.39 5.97,1.39 "/>
   <path class="fil1" d="M6.09 6.72l-6.09 0 0 -5.44 6.09 0 0 5.44zm-5.85 -0.24l5.61 0 0 -4.96 -5.61 0 0 4.96z"/>
   <polygon class="fil2" points="7.09,28.13 6.5,28.13 6.22,25.86 7.09,25.86 "/>
   <path class="fil3" d="M7.24 28.7l-1.9 -0 0 -0.02c0,-0.41 0.33,-0.74 0.74,-0.74l0 0 1.16 0 0 0.76z"/>
   <polygon class="fil2" points="12.58,27.76 12.01,27.89 11.25,25.73 12.09,25.55 "/>
   <path class="fil3" d="M12.85 28.29l-1.85 0.41 -0.01 -0.02c-0.01,-0.05 -0.02,-0.11 -0.02,-0.16 0,-0.35 0.24,-0.65 0.58,-0.72l0 -0 1.13 -0.25 0.16 0.74z"/>
   <path class="fil4" d="M5.44 20.15l-2.91 0.63c-0.56,-1.05 -0.68,-2.15 -0.69,-3.19l2.91 -0.63c-0,0.09 -0.01,0.18 -0.01,0.26 0,1.01 0.24,2.02 0.69,2.92l-0 0z"/>
   <polygon class="fil0" points="2.51,18.18 2.48,18.07 3.99,17.76 4.02,17.87 "/>
   <polygon class="fil0" points="2.61,18.62 2.58,18.51 4.09,18.2 4.12,18.31 "/>
   <polygon class="fil0" points="2.71,19.06 2.68,18.95 4.19,18.64 4.22,18.75 "/>
   <polygon class="fil0" points="2.81,19.5 2.78,19.39 4.29,19.09 4.32,19.2 "/>
   <polygon class="fil0" points="2.91,19.94 2.88,19.83 4.39,19.53 4.42,19.64 "/>
   <path class="fil2" d="M12.07 17.58c0.06,-0.09 0.09,-0.2 0.09,-0.31 0,-0.22 -0.13,-0.42 -0.33,-0.51l0.03 -1.27 -0.77 -0.2 -0.01 1.8c-0.02,0.06 -0.03,0.13 -0.03,0.19 0,0.31 0.25,0.56 0.56,0.56 0.19,0 0.36,-0.09 0.47,-0.25l-0 0z"/>
   <path class="fil4" d="M4.66 5.73l-2.97 -0.07c-0.3,-1.15 -0.16,-2.25 0.07,-3.26l2.97 0.07c-0.16,0.58 -0.25,1.17 -0.25,1.77 0,0.5 0.06,1 0.17,1.49l-0 0z"/>
   <polygon class="fil0" points="2.27,3.12 2.27,3.01 3.81,3.06 3.81,3.18 "/>
   <polygon class="fil0" points="2.27,3.57 2.27,3.46 3.81,3.52 3.81,3.63 "/>
   <polygon class="fil0" points="2.26,4.03 2.26,3.91 3.8,3.97 3.8,4.08 "/>
   <polygon class="fil0" points="2.25,4.48 2.26,4.37 3.8,4.42 3.79,4.53 "/>
   <polygon class="fil0" points="2.25,4.93 2.25,4.82 3.79,4.87 3.79,4.99 "/>
   <circle class="fil4" cx="6.08" cy="1.08" r="1.08"/>
   <polygon class="fil0" points="6.04,1.6 5.63,1.1 5.7,1.05 6.04,1.46 6.63,0.6 6.7,0.65 "/>
   <polygon class="fil0" points="24.54,15.76 18.69,15.76 18.69,10.56 24.54,10.56 "/>
   <path class="fil5" d="M24.66 15.88l-6.09 0 0 -5.44 6.09 0 0 5.44zm-5.85 -0.24l5.61 0 0 -4.96 -5.61 0 0 4.96z"/>
   <polygon class="fil0" points="24.54,6.6 18.69,6.6 18.69,1.39 24.54,1.39 "/>
   <path class="fil5" d="M24.66 6.72l-6.09 0 0 -5.44 6.09 0 0 5.44zm-5.85 -0.24l5.61 0 0 -4.96 -5.61 0 0 4.96z"/>
   <polygon class="fil0" points="15.23,15.76 9.38,15.76 9.38,10.56 15.23,10.56 "/>
   <path class="fil1" d="M15.35 15.88l-6.09 0 0 -5.44 6.09 0 0 5.44zm-5.85 -0.24l5.61 0 0 -4.96 -5.61 0 0 4.96z"/>
   <polygon class="fil0" points="5.97,15.76 0.12,15.76 0.12,10.56 5.97,10.56 "/>
   <path class="fil5" d="M6.09 15.88l-6.09 0 0 -5.44 6.09 0 0 5.44zm-5.85 -0.24l5.61 0 0 -4.96 -5.61 0 0 4.96z"/>
   <polygon class="fil0" points="15.23,6.6 9.38,6.6 9.38,1.39 15.23,1.39 "/>
   <path class="fil5" d="M15.35 6.72l-6.09 0 0 -5.44 6.09 0 0 5.44zm-5.85 -0.24l5.61 0 0 -4.96 -5.61 0 0 4.96z"/>
   <path class="fil5" d="M14.42 30.8l0.78 -1.51c1.44,0.24 1.7,0.19 2.96,0.03l0.33 1.64c-0.9,-0.14 -1.81,-0.2 -2.72,-0.2 -0.45,0 -0.91,0.02 -1.35,0.05l0 -0z"/>
   <polygon class="fil0" points="17.67,30.52 17.65,29.67 17.74,29.68 17.76,30.53 "/>
   <polygon class="fil0" points="17.32,30.51 17.29,29.66 17.38,29.66 17.41,30.51 "/>
   <polygon class="fil0" points="16.96,30.5 16.93,29.65 17.02,29.65 17.05,30.5 "/>
   <path class="fil3" d="M6.01 15.57c0,0 -0.28,0.11 0,4.42l0.11 7.03 1.13 0 1.28 -9.56 1.56 4.45 1.42 5.28 1.13 -0.28c0,0 -1.19,-10.66 -2.21,-11.35 -1.02,-0.68 -4.42,0 -4.42,0z"/>
   <circle class="fil6" cx="8.29" cy="5.66" r="1.18"/>
   <path class="fil7" d="M9.42 7.57c0,0 -1.02,-0.51 -1.99,-0.17 -0.96,0.34 -1.47,0.74 -1.47,0.74l0.62 3.29 -0.85 4.42c0,0 4.37,-0.34 4.77,0 0.4,0.34 0.4,-0.4 0.4,-0.4l-0.34 -4.2 0.62 -2.67 -1.76 -1.02z"/>
   <path class="fil3" d="M7.29 5.58l0.25 0.64c0.1,0.26 0.22,0.54 0.46,0.69 0.3,0.18 0.69,0.09 0.98,-0.1 0.42,-0.28 0.67,-0.76 0.67,-1.26 0,-0.78 -0.58,-1.43 -1.35,-1.52l-0.01 0.21 -0.26 -0.22c-0.05,0.08 -0.13,0.13 -0.22,0.13 -0.07,0 -0.13,-0.03 -0.18,-0.07 0.07,0.14 -0.01,0.32 -0.13,0.43 -0.14,0.13 -0.54,0.3 -0.53,0.54 0.01,0.16 0.26,0.38 0.32,0.55z"/>
   <path class="fil2" d="M5.11 17.65c0.13,-0.11 0.2,-0.26 0.2,-0.43 0,-0.16 -0.07,-0.32 -0.2,-0.43l0.38 -1.22 -0.68 -0.41 -0.52 1.72c-0.07,0.1 -0.11,0.21 -0.11,0.33 0,0.31 0.25,0.56 0.56,0.56 0.13,0 0.26,-0.05 0.36,-0.13l-0 0z"/>
   <path class="fil7" d="M6.35 8.14l-0.4 0c0,0 -0.62,0.4 -0.62,0.96 0,0.57 -0.91,7.2 -0.91,7.2l0.96 0.17 0.85 -4.65 0.62 -1.25 -0.51 -2.44z"/>
   <path class="fil7" d="M10.1 8.59l1.08 0c0,0 0.34,0.34 0.51,1.13 0.17,0.79 0.34,3.91 0.34,3.91l-0.11 2.84 -0.85 0 -0.11 -3.69 -0.57 -2.38 -0.28 -1.82z"/>
   <path class="fil8" d="M18.42 28.75l-18.28 0c-0.03,0 -0.05,-0.02 -0.05,-0.05 0,-0.03 0.02,-0.05 0.05,-0.05l18.28 0c0.03,-0 0.05,0.02 0.05,0.05 0,0.03 -0.02,0.05 -0.05,0.05l0 0z"/>
  </g>
 </g>
</svg>
