<?xml version="1.0" encoding="UTF-8"?>
<!DOCTYPE svg PUBLIC "-//W3C//DTD SVG 1.1//EN" "http://www.w3.org/Graphics/SVG/1.1/DTD/svg11.dtd">
<!-- Creator: CorelDRAW 2021 (64-Bit) -->
<svg xmlns="http://www.w3.org/2000/svg" xml:space="preserve" width="1.24798in" height="1.37795in" version="1.1" style="shape-rendering:geometricPrecision; text-rendering:geometricPrecision; image-rendering:optimizeQuality; fill-rule:evenodd; clip-rule:evenodd"
viewBox="0 0 31.27 34.52"
 xmlns:xlink="http://www.w3.org/1999/xlink"
 xmlns:xodm="http://www.corel.com/coreldraw/odm/2003">
 <defs>
  <style type="text/css">
   <![CDATA[
    .fil6 {fill:#00C4B5;fill-rule:nonzero}
    .fil3 {fill:#2F2E41;fill-rule:nonzero}
    .fil7 {fill:#CCCCCC;fill-rule:nonzero}
    .fil4 {fill:#E6E6E6;fill-rule:nonzero}
    .fil0 {fill:#F0F0F0;fill-rule:nonzero}
    .fil2 {fill:#FFB6B6;fill-rule:nonzero}
    .fil5 {fill:#FFB8B8;fill-rule:nonzero}
    .fil1 {fill:white;fill-rule:nonzero}
   ]]>
  </style>
 </defs>
 <g id="Layer_x0020_1">
  <metadata id="CorelCorpID_0Corel-Layer"/>
  <g id="_2402003103744">
   <path class="fil0" d="M17.34 32.76c1.73,-1.06 3.03,-3.03 2.83,-5.05 -1.58,1.55 -3.65,2.49 -5.86,2.66 -0.85,0.06 -1.8,0.04 -2.42,0.63 -0.39,0.37 -0.56,0.91 -0.58,1.44 -0.02,0.53 0.09,1.06 0.2,1.58l-0.03 0.13c2.03,-0.02 4.13,-0.32 5.87,-1.38z"/>
   <path class="fil1" d="M20.13 27.71c-0.68,1.54 -1.83,2.83 -3.28,3.68 -0.31,0.19 -0.65,0.33 -1,0.41 -0.13,0.03 -0.26,0.04 -0.39,0.04 -0.22,0 -0.44,-0.04 -0.64,-0.11 -0.31,-0.1 -0.62,-0.24 -0.96,-0.26 -0.02,-0 -0.04,-0 -0.07,-0 -0.32,0 -0.63,0.13 -0.86,0.36 -0.31,0.29 -0.49,0.68 -0.66,1.07 -0.19,0.43 -0.37,0.87 -0.73,1.18 -0.04,0.04 0.02,0.1 0.06,0.07 0.63,-0.54 0.72,-1.43 1.22,-2.06 0.23,-0.3 0.56,-0.52 0.95,-0.52 0.34,0 0.66,0.14 0.98,0.25 0.23,0.08 0.47,0.13 0.72,0.13 0.1,0 0.2,-0.01 0.3,-0.02 0.36,-0.07 0.7,-0.19 1.01,-0.37 0.71,-0.39 1.36,-0.9 1.92,-1.49 0.64,-0.68 1.16,-1.46 1.53,-2.31 0.02,-0.05 -0.06,-0.08 -0.09,-0.03l-0 0z"/>
   <path class="fil1" d="M17.33 31.14c0.23,0.29 0.58,0.46 0.95,0.46 0.2,0 0.4,-0.05 0.58,-0.15 0.05,-0.03 0.01,-0.11 -0.04,-0.08 -0.16,0.09 -0.35,0.14 -0.54,0.14 -0.34,0 -0.67,-0.16 -0.88,-0.43 -0.04,-0.05 -0.1,0.02 -0.07,0.06l0 0z"/>
   <path class="fil1" d="M14.96 31.8c0.06,-0.58 0.35,-1.11 0.79,-1.49 0.04,-0.04 -0.02,-0.1 -0.06,-0.07 -0.46,0.4 -0.75,0.95 -0.82,1.56 -0.01,0.06 0.08,0.06 0.09,0l0 -0z"/>
   <path class="fil1" d="M19.21 29.32c-0.15,-0.13 -0.24,-0.32 -0.24,-0.52 0,-0.03 0,-0.05 0,-0.08 0.01,-0.06 -0.08,-0.06 -0.09,-0 -0,0.03 -0,0.06 -0,0.09 0,0.22 0.1,0.43 0.27,0.58 0.01,0.01 0.02,0.01 0.03,0.01 0.01,0 0.02,-0 0.03,-0.01 0.01,-0.01 0.01,-0.02 0.01,-0.03 0,-0.01 -0,-0.02 -0.01,-0.03l0 0z"/>
   <path class="fil0" d="M14.46 23.86c-0.01,0.04 -0.01,0.07 -0.02,0.11 -0.07,0.48 -0.19,0.95 -0.34,1.41 -0.01,0.04 -0.02,0.07 -0.04,0.11 -0.38,1.1 -0.96,2.14 -1.71,3.03 -0.3,0.36 -0.63,0.69 -0.98,1 -0.48,0.42 -1.04,0.84 -1.35,1.39 -0.03,0.06 -0.06,0.11 -0.09,0.17l1.37 3.02c0.01,0.01 0.01,0.01 0.02,0.02l0.05 0.12c0.02,-0.01 0.04,-0.03 0.06,-0.04 0.01,-0.01 0.02,-0.02 0.03,-0.03 0.01,-0.01 0.01,-0.01 0.02,-0.02 0,-0 0,-0 0.01,-0.01 0.01,-0 0.01,-0.01 0.02,-0.01 0.11,-0.09 0.22,-0.17 0.33,-0.26 0,-0 0,-0 0,-0 0.83,-0.67 1.6,-1.42 2.24,-2.27 0.02,-0.03 0.04,-0.05 0.06,-0.08 0.29,-0.38 0.54,-0.79 0.76,-1.21 0.12,-0.23 0.23,-0.47 0.32,-0.71 0.25,-0.63 0.39,-1.29 0.43,-1.97 0.08,-1.34 -0.27,-2.7 -1.15,-3.69 -0.02,-0.03 -0.04,-0.05 -0.07,-0.08z"/>
   <path class="fil1" d="M14.43 23.88c0.14,0.6 0.21,1.21 0.21,1.83 0,1.06 -0.21,2.11 -0.62,3.08 -0.13,0.34 -0.32,0.65 -0.55,0.93 -0.23,0.26 -0.54,0.46 -0.87,0.57 -0.31,0.11 -0.64,0.18 -0.92,0.36 -0.29,0.19 -0.48,0.5 -0.52,0.84 -0.07,0.42 0.02,0.84 0.12,1.25 0.11,0.45 0.23,0.92 0.13,1.39 -0.01,0.06 0.08,0.07 0.09,0.02 0.18,-0.81 -0.29,-1.58 -0.27,-2.38 0.01,-0.38 0.13,-0.75 0.44,-0.99 0.27,-0.2 0.61,-0.28 0.93,-0.39 0.33,-0.1 0.63,-0.28 0.87,-0.53 0.24,-0.27 0.44,-0.57 0.58,-0.91 0.33,-0.74 0.54,-1.54 0.63,-2.35 0.03,-0.3 0.05,-0.6 0.05,-0.9 0,-0.63 -0.07,-1.25 -0.22,-1.86 -0.01,-0.06 -0.1,-0.02 -0.08,0.03l0 -0z"/>
   <path class="fil1" d="M14.26 28.31c0.1,0.03 0.2,0.04 0.31,0.04 0.47,0 0.9,-0.28 1.1,-0.71 0.02,-0.05 -0.06,-0.09 -0.08,-0.04 -0.18,0.4 -0.58,0.66 -1.02,0.66 -0.1,0 -0.2,-0.01 -0.29,-0.04 -0.06,-0.02 -0.07,0.07 -0.02,0.09l0 0z"/>
   <path class="fil1" d="M12.77 30.26c-0.21,-0.36 -0.32,-0.76 -0.32,-1.18 0,-0.16 0.02,-0.33 0.05,-0.49 0.01,-0.06 -0.08,-0.07 -0.09,-0.02 -0.03,0.16 -0.05,0.33 -0.05,0.5 0,0.43 0.12,0.86 0.34,1.23 0.03,0.05 0.1,-0 0.07,-0.05l-0 0z"/>
   <path class="fil1" d="M14.66 25.73c-0.23,-0.01 -0.44,-0.14 -0.55,-0.34 -0.03,-0.05 -0.1,0 -0.07,0.05 0.13,0.22 0.36,0.36 0.61,0.37 0,0 0,0 0.01,0 0.02,0 0.04,-0.02 0.05,-0.04 0,-0 0,-0.01 0,-0.01 0,-0.02 -0.02,-0.04 -0.04,-0.04l0 0z"/>
   <polygon class="fil2" points="6.11,33.64 6.98,33.64 7.39,30.28 6.11,30.28 "/>
   <path class="fil3" d="M5.89 33.35l0.25 0 0.96 -0.39 0.51 0.39 0 0c0.6,0 1.09,0.49 1.09,1.09l0 0.04 -2.81 0 -0 -1.13z"/>
   <polygon class="fil2" points="10.15,33.64 11.02,33.64 11.44,30.28 10.15,30.28 "/>
   <path class="fil3" d="M9.93 33.35l0.25 0 0.96 -0.39 0.51 0.39 0 0c0.6,0 1.09,0.49 1.09,1.09l0 0.04 -2.81 0 -0 -1.13z"/>
   <polygon class="fil4" points="5.42,12.14 6.57,15.68 10.2,15.56 9.08,12.14 "/>
   <path class="fil3" d="M10.85 15.26l-6.84 0.18 0.12 3.33c0,0 -0.12,0.89 0.12,1.13 0.24,0.24 0.36,0.24 0.24,0.65 -0.12,0.42 0.51,1.1 0.43,1.17 -0.08,0.08 -0.25,0.49 -0.25,0.49l0.59 3.39c0,0 0.42,5.89 0.54,6.01 0.12,0.12 0.24,0 0.12,0.3 -0.12,0.3 -0.24,0.18 -0.12,0.3 0.11,0.11 0.21,0.23 0.3,0.36l1.44 0c0,0 0.11,-0.59 0.11,-0.65 0,-0.06 0.12,-0.42 0.12,-0.48 0,-0.06 -0.11,-0.16 -0.11,-0.16 -0.04,-0.12 -0.06,-0.25 -0.07,-0.37 0,-0.12 -0.36,-4.7 -0.36,-4.7l0.71 -5.95 1.73 5.83c0,0 0,5.12 0.12,5.24 0.12,0.12 0.12,0.06 0.06,0.3 -0.06,0.24 -0.3,0.18 -0.12,0.36 0.18,0.18 0.24,-0.12 0.18,0.18l-0.06 0.3 1.78 0.03c0,0 0.24,-0.5 0.12,-0.68 -0.12,-0.18 -0.11,-0.13 0.03,-0.42 0.15,-0.29 0.2,-0.35 0.15,-0.41 -0.06,-0.06 -0.06,-0.38 -0.06,-0.38l-0.3 -5.69c0,0 -0.06,-6.01 -0.06,-6.19 -0,-0.01 -0,-0.02 -0,-0.03 0,-0.08 0.02,-0.16 0.05,-0.24l0 -0.24 -0.23 -0.86 -0.48 -2.08z"/>
   <path class="fil3" d="M10.23 6.6l-2.08 -0.77 -3.45 0.24 -0.8 0.37c-0.49,0.23 -0.8,0.72 -0.8,1.25 0,0.09 0.01,0.18 0.03,0.27l1.03 5.12 -0.65 5.06c0,0 3.24,1.58 4.25,-2.53l0.36 -1.55c0,0 0.12,4.76 3.51,3.75 0,0 -0.06,-0.95 -0.12,-1.31 -0.06,-0.36 -0.18,-0.36 -0.24,-0.54 -0.06,-0.18 -0.18,0 -0.06,-0.36 0.12,-0.36 -0.95,-2.86 -0.95,-2.86l-0.03 -6.16z"/>
   <polygon class="fil4" points="7.46,10.56 5.24,6.03 5.79,5.03 7.6,5.03 8.31,5.89 "/>
   <path class="fil5" d="M6.35 15.49c-0.01,0 -0.03,0 -0.04,0 -0.37,0 -0.66,-0.3 -0.66,-0.66 0,-0.03 0,-0.05 0,-0.08l-2.12 -1.03 1.06 -0.63 1.85 1.08c0.32,0.06 0.54,0.34 0.54,0.66 0,0.36 -0.28,0.65 -0.63,0.67l-0 0z"/>
   <path class="fil3" d="M1.99 12.97c-0.1,-0.12 -0.22,-0.99 0,-1.19 0.19,-0.17 0.15,-0.25 0.03,-0.43 -0.1,-0.15 0.69,-3.02 1.15,-4.35 0.1,-0.3 0.38,-0.5 0.7,-0.5 0.41,0 0.74,0.33 0.74,0.74 0,0.05 -0,0.09 -0.01,0.14 0.16,1.7 -0.07,2.86 -0.72,3.65l2.02 2.67 -0.37 1.36c0,0 -3.43,-1.98 -3.53,-2.09z"/>
   <circle class="fil5" cx="6.72" cy="2.56" r="1.84"/>
   <path class="fil3" d="M8.67 1.22c-0.05,-0.44 -0.69,-0.88 -1.81,-1.18 -1.13,-0.29 -1.72,0.98 -1.72,0.98 -0.78,0.39 -0.32,2.47 -0.07,2.28 0.25,-0.2 0.47,0.12 0.47,0.12l0.18 -1.63c0.26,0.2 0.55,0.37 0.86,0.32l-0.38 -0.38c0.36,0.16 0.09,-0.44 0.46,-0.28l-0.59 -0.31c0.01,-0 0.02,-0 0.04,-0 0.16,0.14 0.35,0.24 0.55,0.31 0.24,0.07 0.52,0.03 0.69,-0.15 0.04,-0.05 0.04,-0.2 0.1,-0.18 0.33,0.14 0.35,0.64 0.35,0.64 0,0 0.93,-0.1 0.88,-0.54z"/>
   <circle class="fil6" cx="7.06" cy="11.26" r="3.19"/>
   <path class="fil5" d="M7.63 13.42c0.12,-0.19 0.33,-0.3 0.56,-0.3 0.17,0 0.33,0.06 0.46,0.18l2.09 -1.09 -0.13 1.22 -1.97 0.85c-0.12,0.11 -0.29,0.18 -0.45,0.18 -0.37,0 -0.67,-0.3 -0.67,-0.67 0,-0.13 0.04,-0.26 0.11,-0.37l0 0z"/>
   <path class="fil3" d="M8.93 14.23l-0.37 -1.36 1.84 -1.78c-0.65,-0.79 -0.88,-1.95 -0.72,-3.65 -0.01,-0.05 -0.01,-0.09 -0.01,-0.14 0,-0.41 0.33,-0.74 0.74,-0.74 0.32,0 0.6,0.2 0.7,0.5 0.46,1.33 0.97,2.97 0.85,3.21 -0.02,0.03 -0.03,0.06 -0.04,0.09 -0.11,0.22 -0.11,0.22 -0,0.36 0.01,0.02 0.03,0.04 0.04,0.06 0.04,0.06 0.09,0.11 0.13,0.16 0.14,0.16 0.27,0.32 0.17,0.47 -0.12,0.18 -0.16,0.26 0.03,0.43 0.22,0.2 0.1,1.06 0,1.19 -0.09,0.11 -2.78,1.01 -3.32,1.19l-0.03 0.01z"/>
   <path class="fil7" d="M17.63 34.52l-17.58 0c-0.03,0 -0.05,-0.02 -0.05,-0.05 0,-0.03 0.02,-0.05 0.05,-0.05l17.58 0c0,0 0,0 0,0 0.03,0 0.05,0.02 0.05,0.05 0,0.03 -0.02,0.05 -0.05,0.05 -0,0 -0,0 -0,0l0 0z"/>
   <path class="fil4" d="M30.76 5.28l-6.43 0c-0.28,-0 -0.51,-0.23 -0.51,-0.51l0 -3.2c0,-0.28 0.23,-0.51 0.51,-0.51l6.43 0c0.28,0 0.51,0.23 0.51,0.51l0 3.2c-0,0.28 -0.23,0.51 -0.51,0.51l0 0z"/>
   <path class="fil4" d="M29.7 6.96l-4.33 0c-0.27,-0 -0.48,-0.22 -0.48,-0.48 0,-0.27 0.21,-0.48 0.48,-0.48l4.33 0c0,0 0,0 0,0 0.27,0 0.48,0.22 0.48,0.48 0,0.27 -0.22,0.48 -0.48,0.48 -0,0 -0,0 -0,0l0 0z"/>
   <path class="fil4" d="M30.76 14.47l-6.43 0c-0.28,-0 -0.51,-0.23 -0.51,-0.51l0 -3.2c0,-0.28 0.23,-0.51 0.51,-0.51l6.43 0c0.28,0 0.51,0.23 0.51,0.51l0 3.2c-0,0.28 -0.23,0.51 -0.51,0.51l0 0z"/>
   <path class="fil4" d="M29.7 16.03l-4.33 0c-0.27,0 -0.48,-0.22 -0.48,-0.48 0,-0.27 0.22,-0.48 0.48,-0.48l4.33 0c0.27,0 0.48,0.22 0.48,0.48 0,0.27 -0.22,0.48 -0.48,0.48l0 0z"/>
   <path class="fil4" d="M30.76 23.59l-6.43 0c-0.28,-0 -0.51,-0.23 -0.51,-0.51l0 -3.2c0,-0.28 0.23,-0.51 0.51,-0.51l6.43 0c0.28,0 0.51,0.23 0.51,0.51l0 3.2c-0,0.28 -0.23,0.51 -0.51,0.51l0 0z"/>
   <path class="fil4" d="M29.7 25.16l-4.33 0c-0.27,-0 -0.48,-0.22 -0.48,-0.48 0,-0.27 0.21,-0.48 0.48,-0.48l4.33 0c0,-0 0,-0 0,-0 0.27,0 0.48,0.22 0.48,0.48 0,0.27 -0.22,0.48 -0.48,0.48 -0,0 -0,0 -0,0l0 0z"/>
   <path class="fil1" d="M6.68 12.75c-0.05,-0 -0.09,-0.01 -0.13,-0.03 -0.09,-0.05 -0.14,-0.14 -0.14,-0.23 0,-0 0,-0 0,-0l-0 -2.21c0,-0 0,-0 0,-0 0,-0.15 0.12,-0.27 0.27,-0.27 0.05,0 0.1,0.01 0.14,0.04l2.1 1.11c0.08,0.05 0.12,0.13 0.12,0.23 0,0.09 -0.05,0.18 -0.12,0.23l-2.1 1.11c-0.04,0.03 -0.09,0.04 -0.14,0.04l0 0z"/>
   <path class="fil1" d="M26.87 4.28c-0.04,-0 -0.07,-0.01 -0.1,-0.03 -0.07,-0.04 -0.11,-0.11 -0.11,-0.19 0,-0 0,-0 0,-0l0 -1.79c0,-0 0,-0 0,-0 0,-0.12 0.1,-0.22 0.22,-0.22 0.04,0 0.08,0.01 0.12,0.03l1.69 0.89c0.06,0.04 0.1,0.11 0.1,0.18 0,0.07 -0.04,0.14 -0.1,0.18l-1.69 0.89c-0.03,0.02 -0.07,0.03 -0.12,0.03l0 0z"/>
   <path class="fil1" d="M26.85 13.5c-0.04,-0 -0.07,-0.01 -0.1,-0.03 -0.07,-0.04 -0.11,-0.11 -0.11,-0.19 0,-0 0,-0 0,-0l0 -1.79c0,0 0,0 0,0 0,-0.12 0.1,-0.22 0.22,-0.22 0.04,0 0.08,0.01 0.12,0.03l1.69 0.89c0.06,0.04 0.1,0.11 0.1,0.18 0,0.07 -0.04,0.14 -0.1,0.18l-1.69 0.89c-0.03,0.02 -0.07,0.03 -0.12,0.03l0 0z"/>
   <path class="fil1" d="M26.84 22.72c-0.04,-0 -0.07,-0.01 -0.1,-0.03 -0.07,-0.04 -0.11,-0.11 -0.11,-0.19 0,-0 0,-0 0,-0l0 -1.79c0,-0 0,-0 0,-0 0,-0.12 0.1,-0.22 0.22,-0.22 0.04,0 0.08,0.01 0.12,0.03l1.69 0.89c0.06,0.04 0.1,0.11 0.1,0.18 0,0.07 -0.04,0.14 -0.1,0.18l-1.69 0.89c-0.03,0.02 -0.07,0.03 -0.12,0.03l0 0z"/>
  </g>
 </g>
</svg>
