<?xml version="1.0" encoding="UTF-8"?>
<!DOCTYPE svg PUBLIC "-//W3C//DTD SVG 1.1//EN" "http://www.w3.org/Graphics/SVG/1.1/DTD/svg11.dtd">
<!-- Creator: CorelDRAW 2021 (64-Bit) -->
<svg xmlns="http://www.w3.org/2000/svg" xml:space="preserve" width="1.88978in" height="1.37795in" version="1.1" style="shape-rendering:geometricPrecision; text-rendering:geometricPrecision; image-rendering:optimizeQuality; fill-rule:evenodd; clip-rule:evenodd"
viewBox="0 0 223.31 162.83"
 xmlns:xlink="http://www.w3.org/1999/xlink"
 xmlns:xodm="http://www.corel.com/coreldraw/odm/2003">
 <defs>
  <style type="text/css">
   <![CDATA[
    .fil2 {fill:#00C4B5}
    .fil7 {fill:#2F2E41}
    .fil3 {fill:#3F3D56}
    .fil8 {fill:#575A89}
    .fil0 {fill:#E6E6E6}
    .fil6 {fill:#FFB8B8}
    .fil1 {fill:white}
    .fil5 {fill:black;fill-opacity:0.050980}
    .fil4 {fill:black;fill-opacity:0.101961}
   ]]>
  </style>
 </defs>
 <g id="Layer_x0020_1">
  <metadata id="CorelCorpID_0Corel-Layer"/>
  <g id="_2401694462256">
   <rect class="fil0" x="0.07" y="0.09" width="164.16" height="105.14"/>
   <rect class="fil1" x="4.76" y="13.28" width="154.78" height="85.73"/>
   <rect class="fil2" x="-0" width="164.16" height="6.97"/>
   <circle class="fil1" cx="5.18" cy="3.57" r="1.29"/>
   <circle class="fil1" cx="10.09" cy="3.57" r="1.29"/>
   <circle class="fil1" cx="15" cy="3.57" r="1.29"/>
   <rect class="fil0" x="23.81" y="20.33" width="30.27" height="32.84"/>
   <rect class="fil0" x="67.02" y="20.33" width="30.27" height="32.84"/>
   <rect class="fil0" x="110.22" y="20.33" width="30.27" height="32.84"/>
   <rect class="fil0" x="23.81" y="59.12" width="30.27" height="32.84"/>
   <rect class="fil0" x="67.02" y="59.12" width="30.27" height="32.84"/>
   <rect class="fil0" x="110.22" y="59.12" width="30.27" height="32.84"/>
   <path class="fil1" d="M74.33 67.56l5.53 -2.19 0.64 10.93c0,0 1.16,3.34 0.77,4.63 0,0 0.26,2.19 -0.39,2.31 -0.64,0.13 -2.44,0.39 -2.57,0.26 -0.13,-0.13 -0.13,-0.51 -0.13,-0.51 0,0 -1.29,0.9 -1.41,1.93 0,0 -5.4,1.67 -5.53,0.13 -0.13,-1.54 2.7,-2.83 2.7,-2.83l2.19 -3.34 -1.8 -11.32z"/>
   <path class="fil1" d="M86.04 67.56l5.53 -2.19 0.64 10.93c0,0 1.16,3.34 0.77,4.63 0,0 0.26,2.19 -0.39,2.31 -0.64,0.13 -2.44,0.39 -2.57,0.26 -0.13,-0.13 -0.13,-0.51 -0.13,-0.51 0,0 -1.29,0.9 -1.41,1.93 0,0 -5.4,1.67 -5.53,0.13 -0.13,-1.54 2.7,-2.83 2.7,-2.83l2.19 -3.34 -1.8 -11.32z"/>
   <path class="fil3" d="M86.58 25.34c0,0 -1.18,3.29 0.19,4.77l-1.14 3.91c0,0 4.04,12.13 2.89,13.82 0,0 -4.31,2.16 -12.93,-0.77l3.5 -13.59 -0.5 -5.74 0.69 -2.69 1.54 -0.15c0,0 -0.92,3.46 0.77,4 1.69,0.54 3.35,-3.92 3.35,-3.92l1.65 0.35z"/>
   <path class="fil1" d="M32.19 46.58l1.49 0.61 7.09 -9.32 2.23 10.94 1.49 -0.27c0.95,-9.44 1.73,-19.06 0.78,-23.61l-5.51 -0.24 -2.5 7.97 -1.22 5.4 -3.85 8.51z"/>
   <path class="fil1" d="M122.39 24.85c0,0 -2.03,2.82 -1.93,3.96 0.1,1.14 1.38,19.69 1.38,19.69l3.02 0.15 -0.89 -13.36 0.74 -3.61 1.83 16.82 3.71 0.1 -3.31 -21.82 -0.64 -1.93 -3.91 0z"/>
   <path class="fil3" d="M133.86 70.28c-0.54,-0.65 -1.46,-1 -2.35,-1.18 0.03,-0.08 -2.7,-0.64 -2.75,-0.53l-1.03 -0.82 -3.16 1.64 -1.78 -1.21 -0.83 0.29c0.03,-0.15 -2.56,0.3 -2.56,0.3 -0.5,0.02 -1.13,0.05 -1.84,0.1 -2.48,0.19 -2.67,6.62 -2.67,6.62 1.14,-0.47 2.36,-0.72 3.59,-0.75l0.67 7.69c3.45,-0.3 7.07,0.05 10.82,0.89l1.76 -6.04 4.1 -1.59c0,0 -0.7,-3.88 -1.97,-5.41z"/>
   <path class="fil1" d="M45.95 66.62c-0.44,-0.53 -1.21,-0.82 -1.94,-0.98 0.02,-0.07 -2.23,-0.53 -2.27,-0.44l-0.85 -0.68 -2.6 1.35 -1.46 -1 -0.68 0.24c0.03,-0.12 -2.11,0.25 -2.11,0.25 -0.41,0.01 -0.93,0.04 -1.51,0.09 -2.05,0.16 -2.2,5.45 -2.2,5.45 0.94,-0.38 1.95,-0.6 2.96,-0.62l0.55 15.51c2.84,-0.24 5.83,0.04 8.92,0.73l1.45 -14.15 3.38 -1.31c0,0 -0.58,-3.2 -1.63,-4.46z"/>
   <polygon class="fil0" points="156.09,155.99 135.61,160.18 135.14,160.13 117.15,158.32 117.15,135.51 139.18,131.79 155.16,133.65 155.16,133.75 155.16,133.8 "/>
   <polygon class="fil4" points="156.09,155.99 135.61,160.18 135.14,160.13 135.14,136.75 155.16,133.75 "/>
   <polygon class="fil5" points="155.16,133.8 155.16,133.81 135.14,136.75 117.15,135.51 139.18,131.79 155.16,133.65 155.16,133.75 "/>
   <rect class="fil1" transform="matrix(0.206424 0.0134722 -0.0134722 0.206424 119.624 143.47)" width="60.31" height="28.31"/>
   <rect class="fil2" transform="matrix(0.206424 0.0134722 -0.0134722 0.206424 122.422 145.567)" width="32" height="9.85"/>
   <polygon class="fil2" points="183.84,155.99 163.36,160.18 162.9,160.13 144.9,158.32 144.9,135.51 166.93,131.79 182.91,133.65 182.92,133.75 182.92,133.8 "/>
   <polygon class="fil4" points="183.84,155.99 163.36,160.18 162.9,160.13 162.9,136.75 182.92,133.75 "/>
   <polygon class="fil5" points="182.92,133.8 182.91,133.81 162.9,136.75 144.9,135.51 166.93,131.79 182.91,133.65 182.92,133.75 "/>
   <rect class="fil1" transform="matrix(0.206424 0.0134722 -0.0134722 0.206424 147.378 143.47)" width="60.31" height="28.31"/>
   <rect class="fil2" transform="matrix(0.206424 0.0134722 -0.0134722 0.206424 150.176 145.567)" width="32" height="9.85"/>
   <path class="fil6" d="M198.66 42.17c0,0 3.61,9.33 -3.01,9.33 -6.62,0 10.24,9.33 16.86,3.91 6.62,-5.42 2.71,-5.72 2.71,-5.72 0,0 -8.73,0.9 -8.43,-6.92l-8.13 -0.6z"/>
   <circle class="fil7" cx="203.37" cy="34.33" r="10.65"/>
   <path class="fil7" d="M196.85 81.01l-11.44 29.51c0,0 -5.72,9.03 -3.61,18.07 2.11,9.03 7.9,25.47 7.9,25.47 0,0 4.37,1.11 4.07,-2.8 -0.3,-3.91 0.19,-22.89 -4.33,-28.01l18.25 -20.86 0.6 23.79c0,0 -1.2,10.84 -0.9,15.66 0.3,4.82 0.9,12.95 0.9,12.95l3.61 -0.6c0,0 4.87,-22.18 4.27,-29.4 0,0 11.19,-35.11 -0.25,-43.54l-19.07 -0.22z"/>
   <path class="fil7" d="M190.95 154.01c0,0 -1.47,-0.37 -1.64,0.98 -0.17,1.35 -3.27,7.36 -0.03,7.66 3.24,0.3 4.35,-2.73 4.9,-4.85 0.54,-2.13 0.75,-2.25 1.2,-2.66 0.45,-0.41 1.53,-2.64 0.18,-2.81 -1.35,-0.17 -2.04,-1.5 -2.04,-1.5 0,0 -0.43,3.73 -2.55,3.18z"/>
   <path class="fil7" d="M210.65 152.96c0,0 -2.73,-0.39 -2.54,0.59 0.19,0.98 -0.39,5.07 0,5.46 0.39,0.39 1.17,1.17 1.17,1.76 0,0.59 0.19,2.54 3.51,1.95 3.32,-0.59 2.54,-3.51 2.34,-3.9 -0.2,-0.39 -2.54,-2.34 -2.34,-3.51 0.2,-1.17 -0.98,-3.12 -2.15,-2.34z"/>
   <circle class="fil6" cx="203.5" cy="38.77" r="7.38"/>
   <path class="fil8" d="M210.55 48.95c0,0 2.57,5.09 -5.18,5.23 -2.38,0.04 -5.22,-1.69 -6.39,-3.77 -0.69,-1.22 -0.86,0.47 -1.98,0.34 -2.11,-0.23 -4.37,0.64 -6.38,1.71 -0.42,0.22 -0.68,0.65 -0.68,1.12 0,0.13 0.02,0.25 0.05,0.37 1.53,5.08 5.9,29.51 6.58,30.84 1.72,3.4 20.37,-2.29 20.37,-2.29 0.26,-9.24 -3.1,-22.17 2.8,-31.57 -1.95,-1.46 -4.32,-2.25 -6.75,-2.25 -0.82,0 -1.64,0.09 -2.44,0.27l0 0z"/>
   <polygon class="fil7" points="210.39,33.1 204.99,30.27 197.53,31.43 195.98,38.25 199.83,38.1 200.9,35.6 200.9,38.06 202.67,37.99 203.7,34 204.35,38.25 210.65,38.12 "/>
   <circle class="fil7" cx="203.93" cy="22.19" r="4.3"/>
   <path class="fil7" d="M198.51 20.88c0,-2.12 1.55,-3.92 3.64,-4.25 -0.21,-0.03 -0.43,-0.05 -0.65,-0.05 -2.37,0 -4.3,1.92 -4.3,4.3 0,2.37 1.92,4.3 4.3,4.3 0.22,0 0.44,-0.02 0.65,-0.05 -2.1,-0.32 -3.64,-2.13 -3.64,-4.25l0 -0z"/>
   <polygon class="fil0" points="223.31,123.14 202.83,127.33 202.36,127.29 184.37,125.47 184.37,102.66 206.4,98.94 222.38,100.8 222.38,100.9 222.38,100.95 "/>
   <polygon class="fil4" points="223.31,123.14 202.83,127.33 202.36,127.29 202.36,103.91 222.38,100.9 "/>
   <polygon class="fil5" points="222.38,100.95 222.38,100.96 202.36,103.91 184.37,102.66 206.4,98.94 222.38,100.8 222.38,100.9 "/>
   <rect class="fil1" transform="matrix(0.206424 0.0134722 -0.0134722 0.206424 186.846 110.624)" width="60.31" height="28.31"/>
   <rect class="fil2" transform="matrix(0.206424 0.0134722 -0.0134722 0.206424 189.643 112.72)" width="32" height="9.85"/>
   <path class="fil6" d="M191.41 96.81c0,0 -7.53,6.02 -4.21,8.13 3.31,2.11 7.23,-8.13 7.23,-8.13l-3.01 0z"/>
   <path class="fil8" d="M191.73 52.2c-0.39,-0.44 -5.31,2.07 -4.58,5.35l0.34 22.7c0,0 -1.81,18.67 2.71,18.67 4.52,0 3.98,0.63 4.59,-0.88 0.6,-1.51 0.76,-14.26 0.76,-14.26l-3.82 -31.57z"/>
   <path class="fil6" d="M215.02 94.77c0,0 3.91,10.24 7.23,8.13 3.31,-2.11 -4.22,-8.13 -4.22,-8.13l-3.01 0z"/>
   <path class="fil8" d="M215.92 82c0,0 -1.88,12.5 -1.27,14 0.6,1.51 0.07,0.88 4.59,0.88 4.52,0 2.71,-18.67 2.71,-18.67l0.34 -22.7c0.73,-3.28 -4.19,-5.79 -4.58,-5.35l-4.33 14.77 2.55 17.06z"/>
  </g>
 </g>
</svg>
