<?xml version="1.0" encoding="UTF-8"?>
<!DOCTYPE svg PUBLIC "-//W3C//DTD SVG 1.1//EN" "http://www.w3.org/Graphics/SVG/1.1/DTD/svg11.dtd">
<!-- Creator: CorelDRAW 2021 (64-Bit) -->
<svg xmlns="http://www.w3.org/2000/svg" xml:space="preserve" width="1.60104in" height="1.37795in" version="1.1" style="shape-rendering:geometricPrecision; text-rendering:geometricPrecision; image-rendering:optimizeQuality; fill-rule:evenodd; clip-rule:evenodd"
viewBox="0 0 118.11 101.65"
 xmlns:xlink="http://www.w3.org/1999/xlink"
 xmlns:xodm="http://www.corel.com/coreldraw/odm/2003">
 <defs>
  <style type="text/css">
   <![CDATA[
    .fil8 {fill:#00C4B5;fill-rule:nonzero}
    .fil4 {fill:#2F2E41;fill-rule:nonzero}
    .fil3 {fill:#3F3D56;fill-rule:nonzero}
    .fil7 {fill:#CACACA;fill-rule:nonzero}
    .fil6 {fill:#E4E4E4;fill-rule:nonzero}
    .fil0 {fill:#F0F0F0;fill-rule:nonzero}
    .fil2 {fill:#FFB6B6;fill-rule:nonzero}
    .fil5 {fill:#FFB7B7;fill-rule:nonzero}
    .fil1 {fill:white;fill-rule:nonzero}
   ]]>
  </style>
 </defs>
 <g id="Layer_x0020_1">
  <metadata id="CorelCorpID_0Corel-Layer"/>
  <g id="_2401634370112">
   <path class="fil0" d="M37.72 14.04c-0.95,-5.08 0.55,-10.86 4.7,-13.94 -0.01,0.33 -0.02,0.67 -0.02,1 0,5.28 1.76,10.41 4.99,14.58 1.33,1.71 2.99,3.47 2.94,5.64 -0.03,1.35 -0.76,2.61 -1.72,3.55 -0.96,0.95 -2.15,1.63 -3.31,2.3l-0.18 0.28c-3.43,-3.87 -6.44,-8.33 -7.39,-13.42z"/>
   <path class="fil1" d="M42.5 0.18c-1.16,2.61 -1.77,5.44 -1.77,8.3 0,1.39 0.14,2.79 0.43,4.15 0.17,0.9 0.49,1.78 0.93,2.59 0.46,0.77 1.11,1.41 1.9,1.84 0.72,0.42 1.52,0.76 2.13,1.35 0.58,0.58 0.91,1.37 0.91,2.19 0,0.05 -0,0.11 -0,0.16 -0.03,1.08 -0.45,2.09 -0.89,3.06 -0.49,1.08 -1.02,2.19 -0.98,3.4 0,0.15 -0.22,0.14 -0.23,-0 -0.06,-2.11 1.47,-3.8 1.81,-5.82 0.16,-0.94 0.03,-1.94 -0.63,-2.67 -0.58,-0.64 -1.39,-1 -2.13,-1.41 -0.77,-0.41 -1.43,-1.01 -1.92,-1.73 -0.48,-0.78 -0.83,-1.64 -1.02,-2.54 -0.34,-1.47 -0.52,-2.98 -0.52,-4.49 0,-0.55 0.02,-1.11 0.07,-1.66 0.18,-2.36 0.78,-4.66 1.74,-6.82 0.06,-0.13 0.25,-0.02 0.2,0.12l0 0z"/>
   <path class="fil1" d="M40.79 11.3c-0.07,0 -0.14,0.01 -0.21,0.01 -1.42,0 -2.65,-0.97 -2.97,-2.35 -0.03,-0.14 0.19,-0.2 0.22,-0.06 0.3,1.28 1.44,2.18 2.75,2.18 0.07,0 0.14,-0 0.22,-0.01 0.15,-0.01 0.14,0.22 -0,0.23l-0 0z"/>
   <path class="fil1" d="M43.59 16.89c0.95,-1.08 1.48,-2.46 1.48,-3.9 0,-0.04 -0,-0.09 -0,-0.13 -0,-0.15 0.22,-0.14 0.23,0 0,0.04 0,0.08 0,0.12 0,1.5 -0.55,2.95 -1.55,4.07 -0.1,0.11 -0.26,-0.05 -0.16,-0.16l0 -0z"/>
   <path class="fil1" d="M41.02 4.66c0.08,0.01 0.16,0.02 0.23,0.02 0.5,0 0.97,-0.22 1.3,-0.59 0.1,-0.11 0.25,0.05 0.16,0.16 -0.37,0.42 -0.9,0.66 -1.45,0.66 -0.08,0 -0.16,-0.01 -0.24,-0.02 -0.06,-0 -0.11,-0.05 -0.11,-0.12 0,-0.06 0.05,-0.11 0.11,-0.11 0,0 0,0 0,0l-0 0z"/>
   <path class="fil0" d="M59.41 4.3c-0.06,0.07 -0.12,0.14 -0.17,0.21 -0.77,0.96 -1.47,1.98 -2.08,3.05 -0.05,0.08 -0.1,0.17 -0.14,0.25 -1.44,2.59 -2.4,5.44 -2.8,8.38 -0.14,1.05 -0.22,2.11 -0.22,3.17 0,0.12 0,0.25 0,0.36 0.03,1.63 0.18,3.4 -0.32,4.9 -0.05,0.16 -0.11,0.31 -0.18,0.46l-8.03 2.56c-0.02,-0 -0.04,-0 -0.06,-0.01l-0.32 0.12c-0.01,-0.06 -0.01,-0.12 -0.01,-0.19 -0,-0.04 -0,-0.07 -0.01,-0.11 -0,-0.02 -0,-0.05 -0.01,-0.07 -0,-0.01 -0,-0.02 -0,-0.02 -0,-0.02 -0,-0.04 -0.01,-0.06 -0.02,-0.35 -0.05,-0.71 -0.06,-1.06 -0,-0 -0,-0 0,-0 -0.14,-2.71 -0.05,-5.45 0.45,-8.09 0.02,-0.08 0.03,-0.16 0.05,-0.24 0.23,-1.19 0.56,-2.36 0.98,-3.49 0.23,-0.62 0.5,-1.23 0.79,-1.82 0.76,-1.53 1.77,-2.94 2.97,-4.16 2.4,-2.44 5.54,-4.08 8.92,-4.13 0.09,-0 0.17,-0 0.26,-0z"/>
   <path class="fil1" d="M59.43 4.41c-3.74,2.06 -6.75,5.27 -8.57,9.13 -0.41,0.82 -0.68,1.71 -0.81,2.62 -0.02,0.19 -0.03,0.37 -0.03,0.56 0,0.71 0.15,1.41 0.44,2.05 0.33,0.77 0.75,1.52 0.88,2.36 0.02,0.15 0.03,0.29 0.03,0.44 0,0.72 -0.26,1.43 -0.72,1.98 -0.67,0.85 -1.61,1.4 -2.55,1.91 -1.04,0.56 -2.13,1.14 -2.83,2.12 -0.09,0.12 -0.27,-0.02 -0.18,-0.14 1.22,-1.71 3.46,-2.15 4.95,-3.56 0.69,-0.66 1.19,-1.53 1.11,-2.51 -0.08,-0.86 -0.51,-1.63 -0.85,-2.41 -0.33,-0.71 -0.5,-1.48 -0.5,-2.26 0,-0.09 0,-0.19 0.01,-0.28 0.08,-0.92 0.33,-1.81 0.71,-2.64 0.84,-1.89 1.97,-3.64 3.35,-5.19 1.56,-1.77 3.43,-3.26 5.49,-4.4 0.13,-0.07 0.21,0.14 0.09,0.21l-0 -0z"/>
   <path class="fil1" d="M51.37 12.26c-0.87,-0.56 -1.39,-1.53 -1.39,-2.56 0,-0.42 0.09,-0.84 0.26,-1.23 0.06,-0.13 0.27,-0.05 0.21,0.09 -0.16,0.36 -0.24,0.75 -0.24,1.14 0,0.96 0.49,1.86 1.3,2.38 0.12,0.08 -0.02,0.26 -0.14,0.18l-0 0z"/>
   <path class="fil1" d="M50.23 18.41c1.45,-0.29 2.74,-1.13 3.6,-2.33 0.09,-0.12 0.27,0.02 0.18,0.14 -0.9,1.25 -2.24,2.11 -3.75,2.41 -0.14,0.03 -0.17,-0.2 -0.03,-0.23l-0 0z"/>
   <path class="fil1" d="M55.54 7.1c0.32,0.32 0.76,0.5 1.22,0.5 0.12,0 0.24,-0.01 0.36,-0.04 0.14,-0.03 0.17,0.2 0.03,0.23 -0.13,0.03 -0.26,0.04 -0.39,0.04 -0.5,0 -0.99,-0.2 -1.35,-0.55 -0.03,-0.02 -0.04,-0.06 -0.04,-0.09 0,-0.02 0.01,-0.05 0.02,-0.07 0.02,-0.03 0.06,-0.04 0.09,-0.04 0.03,0 0.05,0.01 0.07,0.02z"/>
   <path class="fil2" d="M83.56 38.52c0.02,0.09 0.03,0.19 0.04,0.28l7.42 4.28 1.8 -1.04 1.92 2.52 -3.01 2.15c-0.23,0.17 -0.51,0.26 -0.8,0.26 -0.31,0 -0.61,-0.1 -0.86,-0.3l-7.65 -6.03c-0.2,0.07 -0.41,0.11 -0.63,0.11 -1,0 -1.81,-0.81 -1.81,-1.81 0,-1 0.81,-1.81 1.81,-1.81 0.84,0 1.57,0.58 1.76,1.4l0 0z"/>
   <path class="fil3" d="M91.12 42.61c0.05,-0.22 0.19,-0.41 0.39,-0.52l3.42 -1.87c0.37,-0.28 0.83,-0.44 1.3,-0.44 1.19,0 2.16,0.97 2.16,2.16 0,0.67 -0.31,1.31 -0.85,1.72l-2.74 2.79c-0.15,0.15 -0.35,0.23 -0.55,0.23 -0.24,0 -0.47,-0.11 -0.62,-0.31l-2.36 -3.13c-0.1,-0.13 -0.16,-0.3 -0.16,-0.47 0,-0.06 0.01,-0.11 0.02,-0.16l0 0z"/>
   <path class="fil4" d="M97.08 31.91c0.49,-1.57 1.61,-3.01 3.16,-3.54 1.55,-0.53 3.82,0.28 4.98,1.44 2.13,2.12 2.2,4.72 0.73,7.03 -0.29,-0.02 -1.3,-0.03 -1.59,-0.04l-0.42 -1.39 0 1.38c-2.3,-0.07 -4.7,-0.03 -7.09,0.02 -0.21,-1.63 -0.27,-3.32 0.22,-4.89z"/>
   <polygon class="fil2" points="96.58,97.67 94.48,97.67 93.48,89.57 96.58,89.57 "/>
   <polygon class="fil2" points="109.51,97.67 107.41,97.67 106.41,89.57 109.51,89.57 "/>
   <polygon class="fil2" points="103.38,47.96 103.86,49.2 103.76,50.44 94.46,53.66 94.92,48.25 95.97,47.01 "/>
   <circle class="fil5" cx="100.44" cy="33.52" r="3.32"/>
   <path class="fil4" d="M105.47 53.63l0 2.11c0,0 2.47,3.21 1.14,5.68l3.81 32.9 -3.99 0 -6.67 -27.76 -2.84 27.19 -3.42 0 -0.41 -21.63c-0,-0.28 -0.01,-0.58 -0.01,-0.87 0,-5.39 0.96,-10.76 2.81,-15.82l0 0 9.57 -1.8z"/>
   <path class="fil4" d="M98.16 29.19c0.65,-0.4 1.41,-0.61 2.17,-0.61 2.3,0 4.17,1.87 4.17,4.17 0,0.03 -0,0.05 -0,0.08 -1.86,0.09 -3.81,0.11 -5.79,0.11l-0.47 -1.14 -0.28 1.15c-0.6,0 -1.21,-0 -1.81,-0 -0,-0.05 -0,-0.09 -0,-0.14 0,-1.47 0.76,-2.83 2,-3.61l-0 -0z"/>
   <path class="fil4" d="M97.52 101.65l-1.49 0 -0.27 -1.41 -0.68 1.41 -3.95 0c-0,-0 -0,-0 -0,-0 -0.49,0 -0.89,-0.4 -0.89,-0.89 0,-0.29 0.14,-0.56 0.38,-0.73l3.15 -2.18 0 -1.42 3.32 0.2 0.42 5.02z"/>
   <path class="fil4" d="M110.64 101.65l-1.49 0 -0.27 -1.41 -0.68 1.41 -3.95 0c0,-0 0,-0 0,-0 -0.49,0 -0.89,-0.4 -0.89,-0.89 0,-0.29 0.14,-0.56 0.38,-0.73l3.15 -2.18 0 -1.42 3.32 0.2 0.42 5.02z"/>
   <path class="fil3" d="M106.98 60.41c0.04,-0.62 0.07,-1.25 0.07,-1.88 0,-1.91 -0.21,-3.83 -0.63,-5.69 -0.71,-3.13 -1.6,-7.12 -1.62,-7.22 -0,-0 -0,-0 -0,-0.01l-0.27 -5.84c-0,-0.04 -0.03,-0.06 -0.07,-0.06l-1.89 -0.06c-0.04,-0 -0.07,-0.03 -0.07,-0.07l0 0c0,-0.59 -0.48,-1.07 -1.07,-1.07 0,0 0,0 0,0l-3.78 0c-0.51,0 -0.93,0.38 -1,0.88 -0,0.03 -0.03,0.06 -0.07,0.06 -0,0 -0,0 -0,0l-1.47 -0.05c-0,0 -0,0 -0,0 -0.03,0 -0.06,0.02 -0.06,0.05l-0.1 0.32c-1.02,3.27 -1.53,6.67 -1.53,10.09 0,1.57 0.11,3.14 0.32,4.69 0.18,1.32 0.1,3.3 0.03,4.41 -0,0.02 -0,0.03 -0,0.05 0,0.44 0.34,0.8 0.77,0.82 2.73,0.16 10.47,3.9 12.32,2.11 0,-0 0.05,-0.66 0.12,-1.52z"/>
   <path class="fil2" d="M91.83 38.52c0.02,0.09 0.04,0.19 0.04,0.28l7.42 4.28 1.8 -1.04 1.92 2.52 -3.01 2.15c-0.23,0.17 -0.51,0.26 -0.8,0.26 -0.31,0 -0.61,-0.1 -0.86,-0.3l-7.65 -6.03c-0.2,0.07 -0.41,0.11 -0.63,0.11 -1,0 -1.81,-0.81 -1.81,-1.81 0,-1 0.81,-1.81 1.81,-1.81 0.84,0 1.57,0.58 1.76,1.4l0 0z"/>
   <path class="fil3" d="M99.39 42.61c0.05,-0.22 0.19,-0.41 0.39,-0.52l3.42 -1.87c0.37,-0.28 0.83,-0.44 1.3,-0.44 1.19,0 2.16,0.97 2.16,2.16 0,0.67 -0.31,1.31 -0.85,1.72l-2.74 2.79c-0.15,0.15 -0.35,0.23 -0.55,0.23 -0.24,0 -0.47,-0.11 -0.62,-0.31l-2.36 -3.13c-0.1,-0.13 -0.16,-0.3 -0.16,-0.47 0,-0.06 0.01,-0.11 0.02,-0.16l0 0z"/>
   <circle class="fil0" cx="8.65" cy="81.47" r="8.65"/>
   <path class="fil1" d="M85.11 51.44l-62.7 28.79c-0.48,0.22 -1.01,0.34 -1.54,0.34 -1.45,0 -2.76,-0.84 -3.37,-2.16l-15.47 -33.7c-0.22,-0.48 -0.34,-1.01 -0.34,-1.54 0,-1.45 0.84,-2.76 2.16,-3.37l62.7 -28.79c0.48,-0.22 1.01,-0.34 1.54,-0.34 1.45,0 2.76,0.84 3.37,2.16l15.47 33.7c0.22,0.48 0.34,1.01 0.34,1.54 0,1.45 -0.84,2.76 -2.16,3.37l0 0z"/>
   <path class="fil6" d="M4.89 42.07c-0.43,0.2 -0.7,0.62 -0.7,1.09 0,0.17 0.04,0.34 0.11,0.5l15.47 33.7c0.2,0.43 0.62,0.7 1.09,0.7 0.17,0 0.34,-0.04 0.5,-0.11l62.7 -28.79c0.43,-0.2 0.7,-0.62 0.7,-1.09 0,-0.17 -0.04,-0.34 -0.11,-0.5l-15.47 -33.7c-0.2,-0.43 -0.62,-0.7 -1.09,-0.7 -0.17,0 -0.34,0.04 -0.5,0.11l-62.7 28.79z"/>
   <path class="fil7" d="M85.11 51.44l-62.7 28.79c-0.48,0.22 -1.01,0.34 -1.54,0.34 -1.45,0 -2.76,-0.84 -3.37,-2.16l-15.47 -33.7c-0.22,-0.48 -0.34,-1.01 -0.34,-1.54 0,-1.45 0.84,-2.76 2.16,-3.37l62.7 -28.79c0.48,-0.22 1.01,-0.34 1.54,-0.34 1.45,0 2.76,0.84 3.37,2.16l15.47 33.7c0.22,0.48 0.34,1.01 0.34,1.54 0,1.45 -0.84,2.76 -2.16,3.37l0 0zm-81.11 -11.29c-1.18,0.54 -1.93,1.72 -1.93,3.02 0,0.48 0.1,0.95 0.3,1.38l15.47 33.7c0.54,1.18 1.72,1.93 3.02,1.93 0.48,0 0.95,-0.1 1.38,-0.3l62.7 -28.79c1.18,-0.54 1.93,-1.72 1.93,-3.02 0,-0.48 -0.1,-0.95 -0.3,-1.38l-15.47 -33.7c-0.54,-1.18 -1.72,-1.93 -3.02,-1.93 -0.48,0 -0.95,0.1 -1.38,0.3l-62.7 28.79z"/>
   <path class="fil7" d="M69.44 36.15l-49.81 22.87c-0.28,0.13 -0.58,0.19 -0.89,0.19 -0.58,0 -1.13,-0.23 -1.53,-0.64l-14.57 -14.95c-0.39,-0.4 -0.61,-0.94 -0.61,-1.49 0,-0.83 0.49,-1.59 1.24,-1.94l63.84 -29.43c0.28,-0.13 0.59,-0.2 0.89,-0.2 1.09,0 2,0.81 2.12,1.89l0.01 -0 0.55 21.7c0,0.02 0,0.04 0,0.06 0,0.84 -0.49,1.59 -1.25,1.94l-0 -0zm-2.17 -25.04l-63.84 29.43c-0.62,0.29 -1.02,0.91 -1.02,1.59 0,0.46 0.18,0.9 0.5,1.22l14.57 14.95c0.33,0.34 0.78,0.53 1.26,0.53 0.25,0 0.5,-0.05 0.73,-0.16l49.81 -22.87c0.62,-0.29 1.02,-0.91 1.02,-1.59 0,-0.02 -0,-0.03 -0,-0.05l-0.55 -21.5 0.08 -0 -0.08 0c-0.02,-0.95 -0.8,-1.71 -1.75,-1.71 -0.25,0 -0.5,0.05 -0.73,0.16l0 0z"/>
   <path class="fil1" d="M38.21 67.09l-15.52 7.13c-0.12,0.06 -0.26,0.09 -0.39,0.09 -0.52,0 -0.94,-0.42 -0.94,-0.94 0,-0.37 0.22,-0.7 0.55,-0.86l15.52 -7.13c0.12,-0.06 0.26,-0.09 0.39,-0.09 0.52,0 0.94,0.42 0.94,0.94 0,0.37 -0.21,0.7 -0.55,0.86l0 0z"/>
   <g>
    <path class="fil7" d="M49.56 45.07c0.29,0.64 0.44,1.33 0.44,2.03 0,2.68 -2.17,4.85 -4.85,4.85 -1.9,0 -3.62,-1.11 -4.41,-2.83l8.81 -4.05zm0 0l0 0 0 0z"/>
   </g>
   <path class="fil1" d="M84.55 97.29l-69 0c-2.04,-0 -3.7,-1.66 -3.7,-3.7l0 -37.09c0,-2.04 1.66,-3.7 3.7,-3.7l69 0c2.04,0 3.7,1.66 3.7,3.7l0 37.09c-0,2.04 -1.66,3.7 -3.7,3.7l0 0z"/>
   <path class="fil8" d="M15.56 55.29c-0.66,0 -1.2,0.54 -1.2,1.2l0 37.09c0,0.66 0.54,1.2 1.2,1.2l69 0c0.66,-0 1.2,-0.54 1.2,-1.2l0 -37.09c-0,-0.66 -0.54,-1.2 -1.2,-1.2l-69 0z"/>
   <path class="fil3" d="M84.55 97.29l-69 0c-2.04,-0 -3.7,-1.66 -3.7,-3.7l0 -37.09c0,-2.04 1.66,-3.7 3.7,-3.7l69 0c2.04,0 3.7,1.66 3.7,3.7l0 37.09c-0,2.04 -1.66,3.7 -3.7,3.7l0 0zm-69 -44.11c-1.83,0 -3.32,1.49 -3.32,3.32l0 37.09c0,1.83 1.49,3.32 3.32,3.32l69 0c1.83,-0 3.32,-1.49 3.32,-3.32l0 -37.09c-0,-1.83 -1.49,-3.32 -3.32,-3.32l-69 0z"/>
   <path class="fil3" d="M76.7 76.85l-54.81 0c-0.9,-0 -1.71,-0.57 -2.01,-1.42l-7.01 -19.66c-0.08,-0.23 -0.12,-0.47 -0.12,-0.72 0,-1.18 0.96,-2.14 2.14,-2.14l70.3 -0.11c0,0 0,0 0,0 1.18,0 2.14,0.96 2.14,2.14 0,0.22 -0.04,0.45 -0.11,0.66l0.01 0 -8.55 19.95c-0.34,0.79 -1.11,1.3 -1.96,1.3 -0,0 -0,0 -0,0l0 0zm8.47 -23.67l-70.3 0.11c-0.97,0 -1.75,0.79 -1.75,1.75 0,0.2 0.03,0.4 0.1,0.59l7.01 19.66c0.25,0.7 0.91,1.16 1.65,1.17l54.81 0c0,-0 0,-0 0,-0 0.7,0 1.34,-0.42 1.61,-1.06l8.47 -19.77 0.07 0.03 -0.07 -0.03c0.09,-0.22 0.14,-0.45 0.14,-0.69 0,-0.97 -0.79,-1.75 -1.75,-1.75l-0 0z"/>
   <path class="fil1" d="M35.4 91.93l-17.08 0c-0.52,-0 -0.94,-0.42 -0.94,-0.94 0,-0.52 0.42,-0.94 0.94,-0.94l17.08 0c0.52,0 0.94,0.42 0.94,0.94 0,0.52 -0.42,0.94 -0.94,0.94l0 0z"/>
   <g>
    <path class="fil3" d="M54.9 76.66c0,2.68 -2.17,4.85 -4.85,4.85 -2.68,0 -4.85,-2.17 -4.85,-4.85l9.7 0zm0 0l0 0 0 0z"/>
   </g>
   <circle class="fil0" cx="24.23" cy="19.17" r="1.73"/>
   <circle class="fil0" cx="1.73" cy="60.7" r="1.73"/>
   <circle class="fil0" cx="88.26" cy="28.21" r="1.73"/>
   <path class="fil7" d="M117.88 101.65l-32.94 0c-0.13,-0 -0.23,-0.1 -0.23,-0.23 0,-0.13 0.1,-0.23 0.23,-0.23l32.94 0c0.13,0 0.23,0.1 0.23,0.23 0,0.13 -0.1,0.23 -0.23,0.23l0 0z"/>
  </g>
 </g>
</svg>
