<?xml version="1.0" encoding="UTF-8"?>
<!DOCTYPE svg PUBLIC "-//W3C//DTD SVG 1.1//EN" "http://www.w3.org/Graphics/SVG/1.1/DTD/svg11.dtd">
<!-- Creator: CorelDRAW 2021 (64-Bit) -->
<svg xmlns="http://www.w3.org/2000/svg" xml:space="preserve" width="1.56477in" height="1.37795in" version="1.1" style="shape-rendering:geometricPrecision; text-rendering:geometricPrecision; image-rendering:optimizeQuality; fill-rule:evenodd; clip-rule:evenodd"
viewBox="0 0 1704.49 1500.99"
 xmlns:xlink="http://www.w3.org/1999/xlink"
 xmlns:xodm="http://www.corel.com/coreldraw/odm/2003">
 <defs>
  <style type="text/css">
   <![CDATA[
    .fil1 {fill:none}
    .fil5 {fill:#00C4B5}
    .fil4 {fill:#3A3768}
    .fil10 {fill:#4C4981}
    .fil16 {fill:#9A5E7F}
    .fil17 {fill:#A8A8A8}
    .fil12 {fill:#CA8496}
    .fil13 {fill:#CEDDF9}
    .fil6 {fill:#E6E8EC}
    .fil9 {fill:#FEC2BE}
    .fil15 {fill:#FF718D}
    .fil14 {fill:white}
    .fil3 {fill:black;fill-opacity:0.011765}
    .fil11 {fill:black;fill-opacity:0.050980}
    .fil2 {fill:black;fill-opacity:0.101961}
    .fil0 {fill:#00C4B5;fill-opacity:0.101961}
    .fil18 {fill:black;fill-opacity:0.200000}
    .fil7 {fill:url(#id0)}
    .fil8 {fill:url(#id1)}
   ]]>
  </style>
  <linearGradient id="id0" gradientUnits="userSpaceOnUse" x1="1306.24" y1="491.98" x2="1306.24" y2="433.31">
   <stop offset="0" style="stop-opacity:0.25098; stop-color:gray"/>
   <stop offset="0.541176" style="stop-opacity:0.121569; stop-color:gray"/>
   <stop offset="1" style="stop-opacity:0.101961; stop-color:gray"/>
  </linearGradient>
  <linearGradient id="id1" gradientUnits="userSpaceOnUse" xlink:href="#id0" x1="546320.76" y1="-198920.36" x2="546320.76" y2="-939337.4">
  </linearGradient>
 </defs>
 <g id="Layer_x0020_1">
  <metadata id="CorelCorpID_0Corel-Layer"/>
  <g id="_2401633983824">
   <path class="fil0" d="M1599.67 1382.99c0,-20.71 -97.59,-37.49 -217.96,-37.49 -120.37,0 -217.96,16.79 -217.96,37.49 0,20.71 97.59,37.49 217.96,37.49 120.38,0 217.96,-16.79 217.96,-37.49z"/>
   <path class="fil0" d="M1044.47 1346.33c0,-12.61 -144.47,-22.83 -322.68,-22.83 -178.21,0 -322.68,10.22 -322.68,22.83 0,12.6 144.47,22.82 322.68,22.82 178.21,0 322.68,-10.22 322.68,-22.82z"/>
   <path class="fil0" d="M527.35 58.69c57.79,-51.5 148.51,-61.99 231.01,-57.88 259.32,12.83 493.4,138.07 695.88,279.67 73.34,51.34 145.46,106.51 193.04,177.11 96.86,143.7 68.13,342.85 -66.55,461.16 -45.83,40.33 -101.37,71.16 -158.41,98.53 -101.39,48.68 -210.85,87.75 -325.87,98.86 -82.07,7.94 -165.16,1.48 -246.75,-9.57 -227.93,-30.91 -451.67,-99.28 -639.15,-216.23 -82.25,-51.34 -159.78,-115.07 -193.68,-198.01 -33.9,-82.94 -12.19,-188.15 71.78,-237.26 34.84,-20.31 76.27,-29.48 116.94,-38.1 59.85,-12.69 120.66,-25.19 174.67,-50.97 55.81,-26.66 121.82,-78.16 110.82,-137.09 -11.92,-63.27 -21.43,-118.79 36.28,-170.21z"/>
   <line class="fil1" x1="300.68" y1="324.35" x2="286.88" y2= "324.35" />
   <g>
    <path class="fil2" d="M745.56 1185.02c7.04,11.97 18.08,19.69 30.51,19.69 21.23,0 38.5,-22.49 38.5,-50.27 0,-27.78 -17.33,-50.09 -38.5,-50.09 -9.99,0 -19.11,4.99 -25.94,13.18 -2.59,3.13 -4.79,6.58 -6.54,10.25l-0.37 2.18c0,0 -8.2,7 -19.36,0.57l-0 -162.84 -158.99 0c-1.71,-2.24 -2.63,-4.97 -2.63,-7.79 0,-1.43 0.24,-2.85 0.71,-4.2 1.18,-3.72 3.75,-6.85 7.17,-8.75 11.97,-7.04 19.71,-18.08 19.71,-30.51 0,-21.23 -22.51,-38.5 -50.27,-38.5 -27.76,0 -50.27,17.22 -50.27,38.5 0,9.99 5,19.12 13.2,25.96 3.13,2.58 6.58,4.78 10.23,6.53l0.22 0.36c3.04,2.95 4.76,7 4.76,11.24 0,2.47 -0.59,4.9 -1.7,7.09l-71.71 0 0 301.56c0,39.48 32.02,71.5 71.51,71.5l208.13 0 0 -160.02c2.35,-2.23 5.48,-3.48 8.72,-3.48 1.45,0 2.88,0.25 4.24,0.73 3.69,1.17 6.81,3.71 8.69,7.09l0 0z"/>
    <path class="fil3" d="M477.98 961.34l24.9 0c-12.26,-9.42 -19.51,-23.96 -19.64,-39.43 0,-28.58 24.93,-51.74 55.68,-51.74 30.74,0 55.7,23.16 55.7,51.74 -0.12,15.47 -7.37,30.02 -19.64,39.43l149.24 0 0 -160.66c2.38,-2.22 5.51,-3.46 8.76,-3.46 1.43,0 2.85,0.24 4.2,0.7 3.73,1.18 6.87,3.75 8.76,7.17 7.02,11.97 18.06,19.69 30.51,19.69 21.23,0 38.5,-22.5 38.5,-50.26 0,-27.76 -17.2,-50.27 -38.5,-50.27 -10.01,0 -19.12,5 -25.96,13.18 -2.58,3.14 -4.79,6.59 -6.55,10.25l-0.35 0.22c-2.95,3.08 -7.03,4.82 -11.3,4.82 -2.85,0 -5.64,-0.78 -8.08,-2.24l0 -162.81 -153.07 0c-1.71,-2.23 -2.63,-4.97 -2.63,-7.79 0,-1.43 0.24,-2.85 0.71,-4.2 1.18,-3.73 3.75,-6.86 7.17,-8.75 11.97,-7.02 19.69,-18.08 19.69,-30.51 0,-21.23 -22.49,-38.5 -50.25,-38.5 -27.76,0 -50.27,17.21 -50.27,38.5 0,10.01 5,19.12 13.18,25.96 3.14,2.58 6.59,4.79 10.25,6.55l0.22 0.35c3.04,2.95 4.76,7 4.76,11.24 0,2.47 -0.59,4.9 -1.7,7.09l-44.3 0 0 -8.25 32.71 0c-12.24,-9.4 -19.48,-23.93 -19.62,-39.36 0,-28.58 24.93,-51.76 55.7,-51.76 30.77,0 55.68,23.18 55.68,51.76 -0.14,15.47 -7.42,30.02 -19.71,39.42l141.35 -0 0 -162.62c2.36,-2.23 5.49,-3.48 8.74,-3.48 1.45,0 2.88,0.24 4.24,0.72 3.72,1.18 6.85,3.75 8.74,7.17 7.02,11.97 18.08,19.69 30.51,19.69 21.23,0 38.5,-22.49 38.5,-50.27 0,-27.78 -17.2,-50.25 -38.5,-50.25 -10.01,0 -19.12,4.99 -25.96,13.18 -2.59,3.13 -4.79,6.58 -6.55,10.25l-0.35 2.18c0,0 -8.2,7 -19.38,0.57l0 -151.68 -208.04 0c-39.48,0 -71.5,32.02 -71.5,71.5l0 77.41 -1.09 0c-2.32,0 -4.2,1.88 -4.2,4.2l0 36.67c0.01,2.31 1.89,4.19 4.2,4.19l1.08 0 0 37.44 -1.41 0c0,0 0,0 0,0 -2.32,0 -4.21,1.87 -4.22,4.19l0 70.02c0.01,2.32 1.9,4.2 4.22,4.2 0,0 0,0 0,0l1.41 0 0 27.5 -1.15 0c-2.32,0 -4.2,1.88 -4.2,4.2l0 22.55 -0.92 -0 0 47.53c0,0 0,0.01 0,0.02 0,2.31 1.87,4.18 4.18,4.18 0.01,0 0.01,0 0.02,0l1.24 0 0 330.64 34.25 0z"/>
    <path class="fil3" d="M1022.01 474.56c-0,0 -0,0 -0,0 0,-2.32 -1.87,-4.21 -4.19,-4.22l-2.53 0 0 -4.6 -1.38 0 0 -182.89c0,0 0,-0.02 0,-0.02 0,-37.95 -30.78,-68.74 -68.74,-68.74 0,0 -0.02,0 -0.02,0l-206.26 0 0 139.34c9.54,-12.66 24.47,-20.17 40.34,-20.26 28.8,0 52.16,24.96 52.16,55.72 0,30.76 -23.36,55.72 -52.16,55.72 -15.87,-0.09 -30.8,-7.58 -40.34,-20.26l0 154.62 166.84 -0c-12.24,-9.44 -19.48,-24 -19.6,-39.47 0,-28.62 24.88,-51.81 55.59,-51.81 0.1,-0 0.22,-0 0.32,-0 13.54,0 26.65,4.77 37.03,13.46 11.63,9.29 18.41,23.38 18.41,38.27 0,14.89 -6.78,28.98 -18.41,38.27l0 1.23 36.21 0 0 -0.13 6.73 0 0 -104.23z"/>
    <path class="fil2" d="M966.62 953.11l0 -18.33 0 0c0.75,-1.1 1.45,-2.25 2.07,-3.43 2.45,-4.46 3.76,-9.48 3.78,-14.58 -0,-3.4 -0.59,-6.78 -1.72,-9.98 -1,-2.85 -2.39,-5.56 -4.13,-8.03l0 0c-8.45,-12.15 -25.15,-20.44 -44.4,-20.44 -27.78,0 -50.27,17.22 -50.27,38.5 0,10.01 5,19.12 13.18,25.96 3.14,2.58 6.59,4.79 10.25,6.55l0.22 0.35c3.04,2.95 4.76,7 4.76,11.24 0,2.46 -0.58,4.89 -1.7,7.09l-161.75 0 0 150.34c9.41,-12.59 24.2,-20.07 39.92,-20.17 28.58,0 51.74,24.93 51.74,55.68 0,30.74 -23.16,55.7 -51.74,55.7 -15.72,-0.1 -30.5,-7.58 -39.91,-20.16l0 121.35 185.6 0c0,0 0,0 0,0 24.32,0 44.05,-19.69 44.11,-44l0 -298.68 0 0 0 298.48c0,24.36 -19.75,44.11 -44.11,44.11l-185.6 0 0 29.34 192.51 0c39.48,0 71.5,-32.02 71.5,-71.51l0 -300.43 0 0 0 -7.88 -34.3 0 0 -7.08z"/>
   </g>
   <path class="fil4" d="M524.53 1303.93c-24.36,0 -44.11,-19.75 -44.11,-44.11l0 -299.47 -34.3 0 0 301.51c0,39.48 32.02,71.5 71.5,71.5l208.13 0 0 -29.33 -201.22 -0.09z"/>
   <path class="fil5" d="M738.58 1170.59c3.73,1.17 6.87,3.74 8.75,7.17 7.04,11.97 18.08,19.69 30.51,19.69 21.23,0 38.5,-22.5 38.5,-50.27 0,-27.78 -17.25,-50.16 -38.43,-50.16 -9.99,0 -19.11,4.99 -25.95,13.18 -2.59,3.13 -4.79,6.58 -6.54,10.25l-0.36 2.18c0,0 -8.2,7 -19.36,0.57l0 -162.84 -158.99 0c-1.71,-2.24 -2.63,-4.97 -2.63,-7.79 0,-1.43 0.24,-2.85 0.71,-4.2 1.19,-3.72 3.75,-6.85 7.17,-8.75 11.97,-7.04 19.71,-18.08 19.71,-30.51 0,-21.23 -22.51,-38.5 -50.27,-38.5 -27.76,0 -50.27,17.22 -50.27,38.5 0,9.99 5,19.12 13.2,25.96 3.13,2.58 6.58,4.78 10.23,6.53l0.22 0.36c3.04,2.95 4.76,7 4.76,11.24 0,2.47 -0.58,4.9 -1.7,7.09l-37.4 0 0 299.53c0,24.36 19.75,44.11 44.11,44.11l201.22 0 0 -130.59c2.35,-2.21 5.46,-3.45 8.69,-3.45 1.41,0 2.81,0.24 4.15,0.7l-0 0z"/>
   <rect class="fil4" x="440.06" y="571.5" width="5.45" height="8.87"/>
   <rect class="fil4" x="450.05" y="571.5" width="29.76" height="8.87"/>
   <rect class="fil4" x="445.51" y="571.5" width="4.55" height="8.87"/>
   <path class="fil4" d="M444.26 623.22l1.25 0 0 -42.86 -5.5 0 0 38.67c0,0 0,0.01 0,0.02 0,2.31 1.87,4.18 4.18,4.18 0.03,0 0.05,0 0.07,0l0 -0z"/>
   <path class="fil4" d="M479.81 580.35l-29.75 0 0 38.67c0,0 0,0 0,0 0,2.32 -1.88,4.2 -4.2,4.2 -0,0 -0.01,0 -0.02,0l-0.33 -0 0 330.79 34.3 0 0 -373.65z"/>
   <path class="fil4" d="M445.51 623.22l0.33 0c0,0 0.01,0 0.02,0 2.32,0 4.2,-1.88 4.2,-4.2 0,0 0,0 0,0l0 -38.67 -4.55 0 0 42.86z"/>
   <path class="fil5" d="M485.07 914.49c0,-28.58 24.93,-51.74 55.68,-51.74 30.75,0 55.7,23.15 55.7,51.74 -0.09,15.49 -7.35,30.07 -19.64,39.51l149.24 0 0 -160.66c2.38,-2.22 5.51,-3.46 8.77,-3.46 1.43,0 2.85,0.24 4.2,0.7 3.73,1.18 6.87,3.75 8.77,7.17 7.02,11.97 18.06,19.69 30.51,19.69 21.23,0 38.5,-22.5 38.5,-50.26 0,-27.76 -17.2,-50.27 -38.5,-50.27 -10.01,0 -19.12,5 -25.96,13.18 -2.58,3.14 -4.79,6.59 -6.55,10.25l-0.35 0.22c-2.95,3.08 -7.04,4.82 -11.3,4.82 -2.84,0 -5.64,-0.78 -8.07,-2.24l-0 -162.81 -153.07 0c-1.71,-2.23 -2.63,-4.97 -2.63,-7.79 0,-1.43 0.24,-2.85 0.71,-4.2 1.18,-3.73 3.75,-6.86 7.17,-8.75 11.97,-7.02 19.69,-18.08 19.69,-30.51 0,-21.23 -22.5,-38.5 -50.25,-38.5 -27.76,0 -50.27,17.21 -50.27,38.5 0,10.01 5,19.12 13.18,25.96 3.14,2.58 6.59,4.79 10.25,6.55l0.22 0.35c3.04,2.95 4.76,7 4.76,11.24 0,2.47 -0.59,4.9 -1.71,7.09l-44.3 0 0 373.71 24.9 0c-12.28,-9.44 -19.54,-24.02 -19.63,-39.51l0 0z"/>
   <path class="fil4" d="M450.97 548.34c0,0 0,0 0,0 0,-2.32 -1.88,-4.2 -4.2,-4.2 -0,0 -0.01,0 -0.02,0l-0.33 0 0 27.35 4.55 0 0 -23.15z"/>
   <path class="fil4" d="M446.26 356.43l-0.92 0c-2.32,0 -4.19,1.88 -4.19,4.2l0 36.67c0.01,2.32 1.88,4.19 4.19,4.2l1.08 0 0 -45.05 -0.16 -0.02z"/>
   <path class="fil4" d="M445.01 438.9c0,0 0,0 0,0 -2.32,0 -4.2,1.88 -4.22,4.2l0 70.02c0.01,2.32 1.9,4.2 4.22,4.2 0,0 0,0 0,0l1.41 0 0 -78.42 -1.41 0z"/>
   <path class="fil4" d="M446.42 544.75l-1.19 0c-2.32,0 -4.2,1.88 -4.2,4.2l0 23.15 5.5 0 -0.11 -27.35z"/>
   <path class="fil4" d="M446.42 279.05l0 77.41c2.25,0.08 4.04,1.93 4.04,4.18 0,0 0,0 0,0l0 36.67c-0,2.25 -1.78,4.09 -4.03,4.18l0 37.44 0.64 -0c2.32,0 4.2,1.88 4.2,4.2l0 70.01c0,2.32 -1.88,4.2 -4.2,4.2l-0.68 0 0 27.5 0.33 0c0,0 0,0 0,0 2.32,0 4.21,1.88 4.22,4.2l0 23.06 29.76 0 0 -290.97c0,0 0,0 0,0 0,-24.35 19.74,-44.11 44.09,-44.11l59.79 0 0 7.66c0,20.06 16.27,36.32 36.32,36.32l105.19 0 0 -23.98 -48.42 0c-3.89,-0.02 -7.05,-3.16 -7.09,-7.06l0 -1.54c0.01,-3.91 3.18,-7.08 7.09,-7.09l48.33 0 0 -33.77 -208.09 0c-39.46,0.02 -71.46,32.02 -71.46,71.49l-0 0z"/>
   <path class="fil4" d="M450.46 397.28l0 -36.67c0,0 0,0 0,0 0,-2.25 -1.78,-4.1 -4.03,-4.18l0 45.01c2.24,-0.09 4.01,-1.92 4.03,-4.16l0 -0z"/>
   <path class="fil4" d="M451.3 513.12l0 -70.02c0,-2.32 -1.88,-4.2 -4.2,-4.2l-0.68 0 0 78.42 0.64 0c0.01,0 0.03,0 0.04,0 2.32,0 4.2,-1.88 4.2,-4.2 0,0 0,0 0,0l0 0z"/>
   <path class="fil5" d="M492.9 532.69c0,-28.58 24.93,-51.76 55.7,-51.76 30.77,0 55.68,23.18 55.68,51.76 -0.15,15.47 -7.42,30.02 -19.71,39.42l141.36 -0 0 -162.63c2.36,-2.23 5.49,-3.47 8.74,-3.47 1.45,0 2.88,0.24 4.24,0.72 3.72,1.18 6.86,3.75 8.75,7.17 7.02,11.97 18.08,19.69 30.51,19.69 21.23,0 38.5,-22.49 38.5,-50.27 0,-27.78 -17.2,-50.26 -38.5,-50.26 -10.01,0 -19.12,4.99 -25.96,13.18 -2.59,3.13 -4.79,6.58 -6.54,10.25l-0.35 2.18c0,0 -8.2,7 -19.38,0.57l0 -78.29 -105.13 0c-20.02,-0.05 -36.23,-16.3 -36.23,-36.32 0,0 0,0 0,0l0 -7.66 -59.75 0c-24.35,0.01 -44.09,19.76 -44.09,44.12 0,0.01 0,0.03 0,0.05l-0 290.97 31.79 0c-12.24,-9.41 -19.49,-23.96 -19.62,-39.42l0 0z"/>
   <path class="fil6" d="M677.66 241.28c-3.91,0.01 -7.08,3.18 -7.09,7.1l0 1.59c0.01,3.92 3.18,7.1 7.09,7.11l48.33 0 0 -15.75 -48.33 -0.06z"/>
   <path class="fil4" d="M1004.74 462.79l0 108.83 12.38 0 0 -113.21 -6.69 0c-3.13,0 -5.69,1.96 -5.69,4.38z"/>
   <rect class="fil4" x="740.73" y="206.77" width="14.67" height="33"/>
   <rect class="fil4" x="740.73" y="256.28" width="14.67" height="23.83"/>
   <rect class="fil6" x="740.73" y="239.77" width="14.67" height="16.5"/>
   <path class="fil4" d="M1019.65 463.01l-3.45 0 0 108.48 7.65 0 0 -104.27c0,0 0,0 0,0 0,-2.32 -1.88,-4.21 -4.2,-4.22l0 0z"/>
   <path class="fil4" d="M755.38 239.77c3.9,0.88 7.33,7.99 7.33,7.99l0 1.54c0,0 -3.45,7.09 -7.33,6.96l0 0 0 23.84 82.85 0c20.06,-0.01 36.32,-16.28 36.32,-36.34 0,0 0,0 0,0l0 -7.66 62.34 0c24.32,0.05 44,19.78 44,44.09 0,0 0,0 0,0l0 213.61c11.63,9.3 18.41,23.38 18.41,38.28 0,14.89 -6.78,28.98 -18.41,38.27l0 1.23 25.67 0 0 -107.6c0,0 0,0 0,0 0,-0.3 0.24,-0.53 0.53,-0.53 0.01,0 0.01,0 0.02,0l8.62 0 0 -187.93c0,0 0,-0.02 0,-0.02 0,-37.95 -30.78,-68.74 -68.74,-68.74 0,0 -0.01,0 -0.01,0l-193.41 0 0 33 1.82 0z"/>
   <path class="fil5" d="M780.97 325.84c28.8,0 52.16,24.96 52.16,55.72 0,30.77 -23.36,55.72 -52.16,55.72 -15.86,-0.09 -30.8,-7.59 -40.34,-20.26l0 154.61 166.85 0c-12.24,-9.45 -19.48,-24.01 -19.6,-39.47 0,-28.62 24.88,-51.81 55.59,-51.81 0.13,-0 0.27,-0 0.39,-0 13.54,0 26.67,4.77 37.05,13.47l0 -213.61c0,0 0,0 0,0 0,-24.32 -19.69,-44.04 -44,-44.09l-62.33 -0 0 7.66c-0,0 -0,0 -0,0 0,20.06 -16.26,36.33 -36.32,36.34l-97.52 0 0 66c9.52,-12.65 24.41,-20.15 40.24,-20.28l0 0z"/>
   <path class="fil6" d="M755.38 256.28c0,0 0,0 0.01,0 3.91,0 7.13,-3.07 7.32,-6.96l0 -1.54c-0.44,-3.98 -3.41,-7.22 -7.33,-7.99l-1.84 -0 0 16.5 1.84 0z"/>
   <circle class="fil6" transform="matrix(0.159494 -0.0258895 0.0258896 0.159494 783.133 248.499)" r="55.26"/>
   <path class="fil4" d="M968.46 945.78l0 -18.33c3.8,-5.23 5.85,-11.54 5.85,-18.01 0,-6.47 -2.05,-12.78 -5.85,-18l0 54.34z"/>
   <rect class="fil4" x="968.46" y="952.85" width="34.3" height="7.88"/>
   <path class="fil5" d="M954.61 939.98c-3.42,1.89 -5.99,5.02 -7.17,8.74 -0.47,1.36 -0.71,2.78 -0.71,4.22 0,2.81 0.93,5.56 2.64,7.79l19.09 0 0 -7.88 -7.33 0c2.65,-2.12 5.11,-4.51 7.33,-7.08l0 -18.33c-3.65,5.13 -8.38,9.41 -13.84,12.54l0 0z"/>
   <path class="fil5" d="M961.09 952.85l7.33 0 0 -7.08c-2.22,2.57 -4.68,4.95 -7.33,7.08l0 0z"/>
   <path class="fil4" d="M974.3 909.47c-0.04,-6.46 -2.09,-12.75 -5.85,-18l0 35.99c3.75,-5.25 5.8,-11.54 5.85,-17.99l-0 0z"/>
   <path class="fil4" d="M1002.76 960.73l0 300.52c0,39.48 -32.02,71.5 -71.51,71.5l-192.51 0 0 -29.33 185.6 0c24.36,-0 44.11,-19.76 44.11,-44.12l0 -298.57 34.3 0z"/>
   <path class="fil5" d="M947.44 948.73c1.18,-3.72 3.75,-6.85 7.17,-8.74 5.46,-3.12 10.19,-7.4 13.84,-12.52l0 -35.99c-8.45,-12.16 -25.16,-20.44 -44.41,-20.44 -27.78,0 -50.27,17.21 -50.27,38.5 0,10.01 5,19.12 13.18,25.96 3.13,2.58 6.59,4.79 10.25,6.55l0.22 0.35c3.04,2.95 4.76,7 4.76,11.24 0,2.47 -0.58,4.9 -1.7,7.09l-161.75 0 0 150.34c9.41,-12.59 24.19,-20.06 39.92,-20.17 28.58,0 51.74,24.94 51.74,55.68 0,30.75 -23.15,55.7 -51.74,55.7 -15.73,-0.1 -30.5,-7.57 -39.92,-20.16l0 121.36 185.6 -0c0,0 0,0 0,0 24.32,0 44.05,-19.69 44.11,-44l0 -298.72 -19.03 0c-1.73,-2.25 -2.68,-5 -2.68,-7.84 0,-1.42 0.24,-2.83 0.69,-4.16l0 0z"/>
   <path class="fil7" d="M1296.27 493.45c10.23,-4.6 17.8,-12.36 20.39,-22.3 0.31,-1.2 0.55,-2.43 0.7,-3.67 0.45,-1.14 0.84,-2.31 1.17,-3.5 2.59,-9.98 -0.26,-20.29 -7,-29.11l-13.4 51.34 0 -0 -1.85 7.24z"/>
   <path class="fil8" d="M1605.65 474.18c-2.09,-12.27 -40.81,-38.83 -40.81,-38.83 0,0 -17.11,-9.17 -26.16,-19.77 -5.79,-6.75 -7.61,-6.67 -8.16,-5.76 -0.38,-0.24 -0.81,-0.39 -1.25,-0.42 -0.36,-0.25 -0.72,-0.49 -1.05,-0.77l0 0c0.01,-0.09 0.01,-0.17 0.01,-0.25 0,-0.97 -0.57,-1.86 -1.46,-2.26 -0.44,-0.26 -0.88,-0.59 -1.32,-0.9 -2.93,-4.93 -3.98,-11.92 -4.33,-18.01 -0.44,-7.68 -9.17,-5.76 -12.16,-4.89 -2.05,-3.85 -4.05,-7.85 -5.94,-11.84 0.84,-1.3 1.53,-2.68 2.07,-4.13 5.39,-11.71 4.22,-25.15 6.57,-37.55 1.69,-8.97 5.21,-18.33 4.51,-27.06 0,-0.2 0,-0.42 0,-0.64 0,0 0,0.09 0,0.13 -0.19,-2.19 -0.69,-4.34 -1.48,-6.38 -1.56,-3.92 -4.28,-7.33 -5.5,-11.39 -1.96,-5.92 -0.72,-12.45 -2.35,-18.45 -2.04,-7.59 -8.45,-13.46 -15.71,-16.81 -7.26,-3.35 -15.35,-4.51 -23.3,-5.5 -19.89,-2.49 -41.03,-3.98 -59.18,4.38 -1.64,0.97 -3.52,1.49 -5.42,1.49 -0.03,0 -0.06,0 -0.08,0 -1.79,-0.49 -3.49,-1.29 -5.02,-2.33 -4.88,-2.42 -11,-0.88 -15.37,2.35 -4.36,3.22 -7.33,7.88 -10.21,12.39 -2.88,4.51 -6.03,9.17 -10.54,12.12 -5.3,3.54 -12.3,4.73 -16.5,9.49 -1.87,2.26 -3.05,5.01 -3.41,7.92 -0.36,2.91 0,-0.09 0,-0.13 -0.01,0.17 -0.01,0.35 -0.01,0.52 0,0.18 0,0.35 0.01,0.52 0,0.27 0,0.57 0,0.84 0,0.27 0,0.46 0,0.68 0,0.79 0,1.56 0,2.33 0.58,4.47 1.78,8.86 3.53,13.02 0.85,3.1 2.51,5.93 4.81,8.18 6.38,5.19 16.5,0.29 24.2,3.19 0.68,0.24 1.32,0.55 1.96,0.84 0,0.3 -0.2,0.59 -0.3,0.9 -1.63,5.58 -2.47,11.37 -2.47,17.18 0,0.02 0,0.05 0,0.07 0,34.43 28.58,62.33 63.84,62.33 1.32,0 2.62,0 3.92,-0.15 0.18,0.68 0.39,1.38 0.55,2.04 1.42,5.51 2.14,11.19 2.14,16.88 0,2.14 -0.11,4.31 -0.31,6.44l-0.39 -3.41c-0.85,-0.41 -1.75,-0.75 -2.66,-1.01 -2.41,-0.8 -4.94,-1.21 -7.49,-1.21 -0.14,0 -0.29,0 -0.43,0 -8.67,-0.11 -21.73,3.38 -35.66,20.28 0,0 -17.78,9.89 -23.01,12.27 -0.43,0.26 -0.77,0.64 -0.97,1.1l0 0c0,0 -23.78,35.92 -26.24,49.58 -2.46,13.66 -5.5,29.34 -5.5,29.34 0,0 -5.94,17.71 -9.77,25.56 -3.83,7.85 -7.33,15.33 -7.66,18.74 -0.33,3.41 1.39,10.89 -5.94,15.66 -7.33,4.77 -9.17,17.71 -9.17,17.71 0,0 -3.67,3.45 -8.86,7.81l-0.18 0 19.16 -73.46 3.43 0.86c0.34,0.09 0.7,0.13 1.06,0.13 1.34,0 2.62,-0.61 3.45,-1.67 0.36,-0.45 0.61,-0.97 0.75,-1.52l3.87 -14.89 1.56 -5.92 0.31 -1.21 2.26 -8.63 -7.63 -1.84 -8.93 -2.22 -25.23 -6.36 2.2 -8.43 0 0 1.83 -7.15 0 0 11.53 -44.26 0 0 1.84 -7.13c-7.33,-9.49 -19.02,-17.21 -33.37,-20.79 -27.69,-6.87 -54.49,4.31 -59.88,24.97 -0.32,1.2 -0.56,2.43 -0.72,3.67 -0.46,1.13 -0.85,2.3 -1.15,3.48 -0.63,2.42 -0.95,4.92 -0.95,7.43 0,1.19 0.07,2.39 0.22,3.57 0.07,0.6 0.17,1.21 0.27,1.84 1.1,5.7 3.51,11.09 7.02,15.71 2.47,3.31 5.36,6.3 8.56,8.89l0.12 0.4c1.36,2.22 2.18,4.74 2.4,7.34 0,0.36 0,0.75 0,1.14 -0.61,1.1 -1.36,2.14 -2.2,3.08l-169.15 -42.04 -1.83 7.13 0 0 -38.1 146.4 0 0c4.96,-3.82 10.55,-6.77 16.5,-8.71 2.34,-0.77 4.73,-1.39 7.15,-1.83l0.86 -0.15c2.7,-0.44 5.45,-0.66 8.19,-0.66 4.14,0 8.29,0.51 12.31,1.5 21.38,5.32 36.15,23.52 38.91,44.94 0.3,2.35 0.46,4.75 0.46,7.14 0,0.34 -0,0.69 -0,1.02 -0.05,3.47 -0.43,6.95 -1.11,10.36 -9.16,27.83 -37.33,44.64 -64.68,37.84 -15.53,-3.92 -28.36,-14.87 -34.65,-29.6l-1.83 7.15 0 0 -39.31 150.25 149.81 37.25 0 0 1.61 -7.2 0.24 0c-7.15,-8.85 -11.05,-19.9 -11.05,-31.27 0,-2.8 0.24,-5.61 0.71,-8.37 0,-0.24 0.15,-0.45 0.24,-0.69 0.18,-0.53 0.38,-1.05 0.58,-1.56 1.02,-2.5 2.25,-4.94 3.66,-7.24 0.73,-1.19 1.51,-2.35 2.33,-3.47 0.51,-0.69 1.05,-1.38 1.6,-2.03 2.63,-3.19 5.65,-6.07 8.96,-8.54l1.06 -0.77c1.21,-0.86 2.46,-1.69 3.67,-2.46 0.75,-0.44 1.52,-0.88 2.29,-1.28 8.55,-4.52 18.1,-6.89 27.77,-6.89 0.35,0 0.71,0.01 1.05,0.01 4.81,0.06 9.62,0.68 14.29,1.83 14.45,3.47 27.09,12.25 35.37,24.59 1.09,1.65 2.11,3.37 3.01,5.13 2.7,5.23 4.46,10.92 5.18,16.76 0.24,1.91 0.36,3.85 0.36,5.78 0,2.76 -0.24,5.53 -0.72,8.24 -3.56,10.25 -10.38,19.08 -19.4,25.1l-1.84 6.89 0.2 0 -0.27 0.2 -1.83 6.87 34.21 8.51 48.46 -185.27c13.07,-1.52 19.76,-7.33 19.76,-8.17 0,-0.84 15.71,-9.55 24.42,-11.94 4.33,-1.18 9.33,-2.02 13.31,-2.86 -4.7,23.3 -9.17,45.84 -8.77,47.15 0.13,0.51 0.97,-0.29 2.26,-2.05 -0.11,0.6 -0.17,1.21 -0.17,1.81 0,0.08 0,0.16 0,0.24 0,0.35 0.5,0.09 1.14,-0.62l-0.09 0.44c0,0 -27.21,52.64 -29.33,58.67 -2.13,6.03 0.51,21.47 8.89,26.58 1.63,1.02 3.07,2.31 4.29,3.8l-0.99 1.96c-3.12,6.33 -5.89,13.36 -5.39,17.75 0.11,0.93 0.17,1.88 0.17,2.82 0,4.61 -1.33,9.14 -3.83,13.02 -2.5,3.88 -23.56,72.81 -23.03,93.76 0.53,20.95 -8.38,66.94 -8.38,66.94 0,0 -9.68,29.63 -3.92,38.07 5.76,8.43 12.3,45.23 12.3,45.23 0,0 4.46,8.44 4.18,15.58 -0.27,7.15 4.2,20.17 4.2,20.17l14.67 52.88c0,0 -1.57,14.06 3.92,24.02 5.5,9.95 4.97,6.9 2.35,24.28 -2.62,17.38 3.15,33.46 12.56,38.5 3.67,1.98 3.85,5 2.71,7.96l0 0c-2.4,-0.93 -4.4,4.04 -5.59,8.05l-1.21 1.15 0.81 0.2c-0.51,1.84 -0.81,3.38 -0.81,3.38 0,0 -24.59,20.44 -26.16,27.85 -1.57,7.41 -18.85,11.24 -18.85,11.24 0,0 -26.16,7.15 -33,10.73 -3.98,1.81 -6.72,5.58 -7.23,9.92 -0.07,0.82 -0.11,1.65 -0.11,2.47 0,2.55 0.36,5.09 1.07,7.54 2.6,10.47 39.24,11.5 56.84,8.69 17.6,-2.8 53.88,-13.04 53.88,-13.04 0,0 38.21,-3.67 49.51,-8.18 11.29,-4.51 2.35,-16.35 2.35,-16.35 0,0 0,-0.39 0,-1.1 0.27,-4.27 1.06,-19.76 -1.65,-23.83 -2.03,-3.16 -1.98,-11 -1.69,-15.99 7.65,-13.75 -8.77,-55 -8.77,-55 0,0 3.13,-40.33 1.05,-46.24 -2.09,-5.91 -11,-55.96 -11,-55.96 0,0 -5.5,-22.73 -3.39,-26.57 2.11,-3.83 -1.32,-14.83 -1.32,-14.83 0,0 -8.97,-12.23 -8.16,-16.08 0.81,-3.85 -2.62,-10.73 -2.62,-10.73 0,0 26.7,-39.86 24.33,-47.26 -2.36,-7.41 1.06,-19.42 1.06,-19.42 0,0 3.35,-5.64 7.33,-12.41 4.95,-8.29 11,-18.2 12.98,-21.31 2.56,-3.94 8.74,-20.72 12.19,-30.38 1.47,-4.1 2.46,-6.93 2.46,-6.93 0,0 4.18,75.17 7.85,82.78 3.66,7.61 9.16,68.22 9.16,68.22 1.77,4.68 2.68,9.66 2.68,14.66 0,0.73 -0.03,1.48 -0.06,2.2 -0.51,9.44 8.38,50.58 8.38,50.58 0,0 3.92,29.11 1.3,36.78 -2.62,7.66 -0.51,64.17 -0.51,64.17 0,0 -14.39,11 -18.06,19.42 -3.67,8.41 0.51,31.42 0.51,31.42l1.69 0.79c-1.34,3.19 -2.35,6.53 -2.98,9.93 -0.51,4.86 -8.38,26.84 -7.59,29.9 0.79,3.06 -3.39,12.52 -3.92,17.36 -0.53,4.84 -7.06,12.01 -7.59,14.58 -0.83,2.29 -1.8,4.55 -2.89,6.73 -1.41,3.35 -2.56,6.84 -3.39,10.38 -2.62,10.74 28.51,12.52 28.51,12.52 46.05,8.44 54.43,-26.05 54.43,-26.05 0,0 5.76,-30.65 7.85,-33 0.33,-0.57 0.51,-1.21 0.51,-1.86 0,-0.36 -0.05,-0.72 -0.15,-1.06l-0 0c-1.19,-5.21 -3.46,-10.13 -6.63,-14.43 -1.47,-1.71 -1.56,-6.09 -1.32,-10.01 1.33,-0.13 2.65,-0.38 3.94,-0.73 18.57,-5.35 11,-36.29 11,-36.29 0,0 12.56,-20.42 12.56,-28.34 0,-7.92 4.46,-32.19 4.46,-32.19 15.97,-28.62 9.68,-98.11 12.3,-103.74 2.62,-5.63 -5.5,-26.57 -12.05,-36.03 -6.54,-9.46 -3.92,-35 0,-42.41 3.92,-7.41 -3.92,-33 -3.92,-33 0,0 7.59,-49.5 7.33,-57.24 -0.26,-7.74 6.55,-30.4 6.55,-30.4 0,0 6.8,-11.75 5.22,-15.33 -1.57,-3.58 5.23,-12.84 3.41,-16.87 -1.81,-4.03 1.56,-16.61 4.97,-24.02 1.74,-3.8 3.9,-14.25 5.5,-23.54 0.18,-1.03 0.37,-2.05 0.53,-3.06 7.63,4.82 14.67,8.41 17.16,7.44 4.67,-1.83 -2.77,-25.67 -7.87,-40.52 0.88,-0.66 1.25,-1.15 0.88,-1.37 -3.13,-2.05 0.35,-11.26 0.35,-11.26 18.5,-10.89 12.21,-19.07 6.29,-23.84 -5.92,-4.77 -2.09,-18.33 -3.85,-23.84 -1.76,-5.5 2.11,-30.31 5.24,-48.37 0.31,-1.86 0.46,-3.76 0.46,-5.66 0,-2.07 -0.19,-4.15 -0.56,-6.18 3.36,-5.12 6.82,-10.47 9.86,-15.42 10.45,-17.03 32.79,-98.1 32.79,-98.1l-0.15 -0.42c2.18,-4.31 3.81,-7.81 4.7,-10.14 6.76,-17.6 -5.79,-70.77 -7.89,-83.07zm-201.8 172.32l0.48 -0.22c0,0.12 0,0.25 0,0.38l-0.48 -0.16zm-333.39 427.19l0 0 0 0zm271.09 223.49c-0.02,0 -0.04,0 -0.06,0 -1.12,0 -2.23,-0.23 -3.26,-0.66l3.32 0.66z"/>
   <path class="fil9" d="M1147.71 706.29c15.09,5.72 50.16,6.35 65.75,6.35 4.73,0 7.66,0 7.66,0l9.99 -20.35 -9.99 -16.96c0,0 -9.17,-2.53 -21.34,-4.73 -17.97,-3.23 -42.56,-5.76 -54.27,1.5 -19.65,12.16 -17.45,26.73 2.2,34.19z"/>
   <path class="fil2" d="M1213.44 712.64c4.73,0 7.66,0 7.66,0l9.99 -20.35 -9.98 -16.96c0,0 -9.17,-2.53 -21.34,-4.73 9.88,7.26 33.64,23.06 13.66,42.04z"/>
   <path class="fil10" d="M1378.94 462.87l-4.4 -5.1c0,0 -22.72,35.94 -25.1,49.5 -2.38,13.57 -5.5,29.15 -5.5,29.15 0,0 -5.76,17.64 -9.5,25.43 -3.74,7.79 -7.11,15.25 -7.44,18.65 -0.33,3.39 1.36,10.85 -5.77,15.6 -7.13,4.75 -8.8,17.64 -8.8,17.64 0,0 -25.78,25.08 -39.35,25.67 -13.57,0.59 -52.55,7.46 -51.19,14.25 1.36,6.78 -16.26,10.83 -23.39,12.54 -7.13,1.71 45.84,22 14.92,48.15 0,0 19.65,4.07 21.69,8.8 2.04,4.73 22.72,-2.7 22.72,-2.7 0,0 4.42,-10.52 19.67,-11.2 15.25,-0.68 23.05,-7.46 23.05,-8.47 0,-1.01 15.25,-9.49 23.84,-11.86 8.58,-2.37 19.65,-3.39 20,-5.78 0.35,-2.38 50.86,-220.36 50.86,-220.36l-16.3 0.09z"/>
   <path class="fil11" d="M1378.94 462.87l-4.4 -5.1c0,0 -22.72,35.94 -25.1,49.5 -2.38,13.57 -5.5,29.15 -5.5,29.15 0,0 -5.76,17.64 -9.5,25.43 -3.74,7.79 -7.11,15.25 -7.44,18.65 -0.33,3.39 1.36,10.85 -5.77,15.6 -7.13,4.75 -8.8,17.64 -8.8,17.64 0,0 -25.78,25.08 -39.35,25.67 -13.57,0.59 -52.55,7.46 -51.19,14.25 1.36,6.78 -16.26,10.83 -23.39,12.54 -7.13,1.71 45.84,22 14.92,48.15 0,0 19.65,4.07 21.69,8.8 2.04,4.73 22.72,-2.7 22.72,-2.7 0,0 4.42,-10.52 19.67,-11.2 15.25,-0.68 23.05,-7.46 23.05,-8.47 0,-1.01 15.25,-9.49 23.84,-11.86 8.58,-2.37 19.65,-3.39 20,-5.78 0.35,-2.38 50.86,-220.36 50.86,-220.36l-16.3 0.09z"/>
   <path class="fil12" d="M1431.75 1403.69c44.76,8.4 52.89,-25.95 52.89,-25.95 0,0 5.59,-30.51 7.63,-32.8 0.33,-0.56 0.5,-1.2 0.5,-1.85 0,-0.35 -0.05,-0.71 -0.15,-1.05l0 0c-1.17,-5.17 -3.38,-10.07 -6.45,-14.38 -2.79,-3.3 -0.51,-17.03 -0.51,-17.03l-51.87 -13.22c0,0 -4.58,10.42 -5.08,15.25 -0.49,4.84 -8.14,26.7 -7.33,29.76 0.81,3.06 -3.3,12.45 -3.81,17.29 -0.51,4.84 -6.86,11.96 -7.33,14.49 -0.79,2.29 -1.74,4.54 -2.8,6.71 -1.37,3.33 -2.49,6.8 -3.31,10.32 -2.62,10.67 27.63,12.45 27.63,12.45z"/>
   <path class="fil2" d="M1431.75 1403.69c44.76,8.4 52.89,-25.95 52.89,-25.95 0,0 5.59,-30.51 7.63,-32.8 0.33,-0.56 0.5,-1.2 0.5,-1.85 0,-0.35 -0.05,-0.71 -0.15,-1.05l-10.78 30.88c0,0 -8.89,18.55 -41.95,15.76 -18.81,-1.6 -28.07,-5.08 -32.56,-7.79 -1.37,3.34 -2.49,6.81 -3.3,10.32 -2.53,10.69 27.72,12.47 27.72,12.47z"/>
   <path class="fil2" d="M1466.58 1355.38c0,0 -11.18,0.25 -11.95,-8.89l11.95 8.89z"/>
   <polygon class="fil5" points="1118.67,856.34 1125.77,858.16 1124.2,865.36 1117.63,863.69 "/>
   <polygon class="fil2" points="1118.67,856.34 1125.77,858.16 1124.2,865.36 1117.63,863.69 "/>
   <rect class="fil4" transform="matrix(0.0398559 -0.156589 0.156589 0.0398558 1327.06 529.458)" width="54.92" height="47.32"/>
   <rect class="fil4" transform="matrix(0.0398559 -0.156589 0.156589 0.0398558 1293.8 520.982)" width="54.92" height="156.93"/>
   <rect class="fil4" transform="matrix(0.0398559 -0.156589 0.156589 0.0398558 1318.36 527.256)" width="54.92" height="55.49"/>
   <path class="fil5" d="M1296.36 511.27c-0.59,0.27 -1.15,0.57 -1.72,0.81l1.43 0.37 -2.2 8.6 -10.87 -2.77c-0.67,-1.58 -1.02,-3.28 -1.02,-5 0,-2.52 0.75,-4.99 2.14,-7.08 2.07,-3.34 5.36,-5.75 9.16,-6.71 2.32,-0.66 4.61,-1.52 6.81,-2.53l-3.73 14.32z"/>
   <path class="fil4" d="M1322.31 548.4l3.32 0.86c0.34,0.09 0.69,0.13 1.04,0.13 1.93,0 3.6,-1.31 4.07,-3.17l3.71 -14.82 -7.33 -1.83 -4.8 18.83z"/>
   <path class="fil4" d="M1319.78 474.76c-2.53,9.9 -9.88,17.62 -19.82,22.18l13.02 -51.15c6.6,8.78 9.37,19.07 6.8,28.96z"/>
   <path class="fil4" d="M1317.69 547.22c-1.85,-0.48 -3.15,-2.15 -3.15,-4.07 0,-0.35 0.04,-0.69 0.13,-1.03l3.78 -14.83 -24.57 -6.25 -74.93 294.34c3.55,6.9 5.4,14.57 5.4,22.33 0,16.17 -8,31.31 -21.37,40.4l-1.74 6.86 33.24 8.53 87.84 -345.03 -4.62 -1.25z"/>
   <path class="fil4" d="M1314.66 542.12c-0.09,0.34 -0.13,0.69 -0.13,1.03 0,1.92 1.3,3.59 3.15,4.07l4.62 1.18 4.8 -18.89 -8.67 -2.22 -3.78 14.83z"/>
   <path class="fil5" d="M1284.1 506.19c2.08,-3.33 5.37,-5.73 9.17,-6.71 2.32,-0.67 4.59,-1.52 6.78,-2.53l13.04 -51.15c-8.15,-10.35 -19.6,-17.66 -32.43,-20.68 -26.89,-6.86 -52.97,4.27 -58.19,24.84 -2.47,9.7 0.13,19.77 6.38,28.42 2.39,3.28 5.19,6.26 8.31,8.86l0.13 0.4c1.52,2.47 2.34,5.32 2.34,8.23 0,3.82 -1.4,7.5 -3.92,10.36l-164.39 -41.86 -37.09 145.72c8.95,-7.25 20.14,-11.21 31.66,-11.21 4,0 8,0.48 11.88,1.42 27.7,7.06 44,36.95 36.41,66.74 -7.59,29.79 -36.11,48.25 -63.82,41.29 -15.21,-4.01 -27.69,-14.92 -33.68,-29.46l-38.08 149.53 145.61 37.05c-6.96,-8.84 -10.76,-19.8 -10.76,-31.06 0,-4.04 0.49,-8.08 1.45,-11.99 7.06,-27.68 36.92,-44 66.73,-36.41 16.1,3.94 29.72,14.67 37.31,29.39l74.93 -294.34 -10.77 -2.77c-0.7,-1.61 -1.06,-3.35 -1.06,-5.12 0,-2.47 0.72,-4.89 2.05,-6.96l0 0z"/>
   <path class="fil5" d="M1296.06 512.44l0.31 -1.18c-0.57,0.27 -1.14,0.57 -1.72,0.83l1.41 0.35z"/>
   <g>
    <path class="fil3" d="M1329.3 520.91l-8.68 -2.22 -24.55 -6.25 0 0 0.31 -1.18 0 0 3.67 -14.32c-2.2,1.01 -4.48,1.87 -6.8,2.53 -3.81,0.96 -7.1,3.37 -9.17,6.71 -0.54,0.92 -0.99,1.9 -1.36,2.9 0.36,-1 0.81,-1.98 1.34,-2.9 2.08,-3.33 5.36,-5.73 9.17,-6.71 2.31,-0.67 4.59,-1.52 6.78,-2.53l13.03 -51.15c-8.15,-10.35 -19.6,-17.66 -32.43,-20.68 -26.9,-6.86 -52.97,4.27 -58.2,24.84 -2.47,9.7 0.13,19.77 6.38,28.42 2.39,3.28 5.19,6.26 8.31,8.86l0.13 0.4c1.53,2.47 2.34,5.32 2.34,8.23 0,3.82 -1.39,7.5 -3.92,10.36l-164.38 -41.86 -37.09 145.72c8.95,-7.26 20.14,-11.22 31.67,-11.22 4.01,0 8.02,0.48 11.91,1.43 27.7,7.06 44,36.94 36.41,66.73 -7.59,29.79 -36.12,48.25 -63.82,41.29 -15.21,-4.01 -27.69,-14.92 -33.68,-29.46l-38.08 149.53 145.61 37.05c-6.96,-8.84 -10.76,-19.8 -10.76,-31.06 0,-4.04 0.49,-8.08 1.45,-11.99 7.06,-27.68 36.92,-44 66.73,-36.41 16.1,3.94 29.72,14.67 37.31,29.39 3.54,6.9 5.4,14.57 5.4,22.33 0,16.17 -8,31.31 -21.37,40.4l-1.74 6.86 33.24 8.53 87.84 -345.03 3.32 0.86c0.34,0.09 0.69,0.13 1.04,0.13 1.93,0 3.6,-1.31 4.07,-3.17l3.71 -14.89 2.18 -8.6 -7.33 -1.89zm-37.48 19.25c-0.27,0.13 -0.55,0.27 -0.82,0.39l0 0 0.82 -0.39zm-12.47 6.58l0 0 10.87 2.77 0 0 -10.87 -2.77z"/>
    <path class="fil3" d="M1319.78 474.76c2.51,-9.9 -0.26,-20.16 -6.8,-28.96l-13.02 51.15c9.99,-4.56 17.35,-12.3 19.82,-22.18z"/>
   </g>
   <rect class="fil4" transform="matrix(0.0398559 -0.156589 0.156589 0.0398558 1328.86 522.368)" width="54.92" height="47.32"/>
   <rect class="fil4" transform="matrix(0.0398559 -0.156589 0.156589 0.0398558 1295.6 513.893)" width="54.92" height="156.93"/>
   <rect class="fil4" transform="matrix(0.0398559 -0.156589 0.156589 0.0398558 1320.16 520.131)" width="54.92" height="55.49"/>
   <path class="fil5" d="M1298.18 504.16l-1.72 0.82 1.41 0.35 -2.18 8.65 -10.87 -2.77c-0.68,-1.59 -1.03,-3.3 -1.03,-5.03 0,-2.51 0.74,-4.97 2.14,-7.05 2.08,-3.33 5.36,-5.74 9.16,-6.71 2.32,-0.66 4.6,-1.51 6.78,-2.53l-3.68 14.26z"/>
   <path class="fil4" d="M1324.11 541.3l3.34 0.84c0.36,0.09 0.72,0.15 1.09,0.15 1.93,0 3.61,-1.32 4.08,-3.19l3.77 -14.81 -7.33 -1.84 -4.95 18.85z"/>
   <path class="fil4" d="M1321.61 467.67c-2.51,9.88 -9.86,17.6 -19.82,22.17l13.04 -51.15c6.56,8.78 9.33,19.07 6.78,28.99z"/>
   <path class="fil4" d="M1319.51 540.13c-1.86,-0.47 -3.16,-2.15 -3.16,-4.07 0,-0.35 0.05,-0.71 0.13,-1.05l3.67 -14.82 -24.46 -6.21 -74.91 294.3c3.55,6.91 5.42,14.58 5.42,22.35 0,16.16 -8.02,31.29 -21.39,40.37l-1.74 6.86 33.26 8.47 87.82 -345.03 -4.64 -1.18z"/>
   <path class="fil4" d="M1316.48 535.01c-0.09,0.34 -0.13,0.69 -0.13,1.05 0,1.92 1.3,3.59 3.16,4.07l4.6 1.17 4.84 -18.9 -8.69 -2.2 -3.78 14.82z"/>
   <path class="fil5" d="M1285.92 499.08c2.08,-3.33 5.36,-5.74 9.16,-6.71 2.32,-0.66 4.6,-1.51 6.78,-2.53l13.02 -51.15c-8.14,-10.36 -19.59,-17.66 -32.42,-20.68 -26.91,-6.84 -52.97,4.27 -58.21,24.86 -2.45,9.68 0.13,19.74 6.4,28.4 2.4,3.29 5.19,6.27 8.31,8.88l0.13 0.38c1.52,2.47 2.33,5.32 2.33,8.23 0,3.81 -1.39,7.5 -3.91,10.36l-164.41 -41.84 -37.14 145.7c8.95,-7.26 20.13,-11.22 31.66,-11.22 4.03,0 8.06,0.49 11.98,1.45 27.69,7.04 44,36.92 36.41,66.74 -7.59,29.81 -36.14,48.24 -63.92,41.2 -15.19,-4.04 -27.64,-14.95 -33.63,-29.48l-38.06 149.53 145.59 37.07c-6.96,-8.84 -10.75,-19.79 -10.75,-31.04 0,-4.04 0.5,-8.08 1.46,-12.01 7.04,-27.7 36.93,-44 66.74,-36.41 16.13,3.94 29.76,14.71 37.33,29.48l74.91 -294.3 -10.87 -2.77c-0.68,-1.6 -1.03,-3.32 -1.03,-5.05 0,-2.52 0.74,-4.99 2.14,-7.09l0 0z"/>
   <path class="fil5" d="M1297.87 505.35l0.29 -1.19c-0.57,0.27 -1.14,0.57 -1.7,0.82l1.41 0.36z"/>
   <path class="fil13" d="M1272.11 1054.85c5.5,8.38 11.96,45.01 11.96,45.01 0,0 4.33,8.38 4.07,15.51 -0.26,7.13 4.07,20.17 4.07,20.17l14.25 52.64c0,0 -1.54,13.99 3.81,23.84 5.35,9.84 4.82,6.85 2.29,24.14 -2.53,17.29 3.04,33.31 12.19,38.5 9.15,5.19 -4.07,17.03 -4.07,17.03 0,0 58.49,15.76 70.7,6.1 12.21,-9.66 -6.36,-57.48 -6.36,-57.48 0,0 3.06,-40.17 1.02,-46.02 -2.03,-5.85 -10.69,-55.68 -10.69,-55.68 0,0 -5.33,-22.64 -3.3,-26.46 2.04,-3.81 -1.27,-14.67 -1.27,-14.67 0,0 -8.65,-12.21 -7.88,-16.02 0.77,-3.82 -2.55,-10.67 -2.55,-10.67 0,0 25.89,-39.78 23.6,-47.25 -2.29,-7.46 1.01,-19.32 1.01,-19.32l7.23 -12.36c4.82,-8.25 10.65,-18.14 12.61,-21.22 2.49,-3.92 8.51,-20.61 11.86,-30.23l2.38 -6.89c0,0 4.07,74.77 7.63,82.4 3.56,7.63 8.89,67.84 8.89,67.84 1.72,4.67 2.6,9.61 2.6,14.59 0,0.72 -0.02,1.46 -0.06,2.18 -0.51,9.4 8.14,50.35 8.14,50.35 0,0 3.81,28.99 1.27,36.67 -2.55,7.68 -0.51,63.84 -0.51,63.84 0,0 -13.99,11 -17.54,19.32 -3.56,8.32 0.51,31.17 0.51,31.17 0,0 40.68,20.35 58.67,15.01 17.99,-5.33 10.67,-36.12 10.67,-36.12 0,0 12.21,-20.33 12.21,-28.21 0,-7.88 4.43,-31.95 4.43,-31.95 15.51,-28.48 9.4,-97.63 11.96,-103.22 2.55,-5.59 -5.36,-26.46 -11.7,-35.87 -6.34,-9.4 -3.81,-34.84 0,-42.17 3.81,-7.33 -3.92,-32.84 -3.92,-32.84 0,0 7.33,-49.34 7.11,-56.96 -0.22,-7.63 6.36,-30.25 6.36,-30.25 0,0 6.6,-11.69 5.08,-15.27 -1.52,-3.58 5.08,-12.71 3.3,-16.78 -1.78,-4.07 1.54,-16.5 4.84,-23.83 1.69,-3.78 3.8,-14.19 5.5,-23.42 1.56,-8.78 2.71,-16.5 2.71,-16.5l-41.96 -33.83 -104.76 -27.5 -39.4 -12.71 -38.41 60.5c-2.71,4.39 -5.22,8.99 -7.46,13.63 -3.02,6.29 -5.72,13.29 -5.24,17.65 0.1,0.92 0.15,1.87 0.15,2.81 0,4.58 -1.29,9.07 -3.72,12.95 -2.43,3.88 -22.9,72.46 -22.39,93.32 0.51,20.86 -8.14,66.61 -8.14,66.61 0,0 -9.4,29.48 -3.76,37.9z"/>
   <path class="fil9" d="M1426.96 465.4c1.61,-0.66 112.22,-46.35 96.99,-55.43 -9.04,-5.39 -20.16,-28.24 -27.79,-46.11 -5.32,-12.49 -8.93,-22.55 -8.93,-22.55 0,0 -88.77,-15.76 -57,38.65 5,8.34 8.79,17.39 11.21,26.8 9.05,37.07 -13.74,57.96 -14.47,58.64z"/>
   <path class="fil2" d="M1430.23 379.96c5,8.34 8.79,17.39 11.21,26.8 22.94,-1.6 43.13,-15.79 52.41,-36.83 0.87,-1.97 1.66,-4.01 2.31,-6.06 -5.31,-12.49 -8.93,-22.55 -8.93,-22.55 0,0 -88.77,-15.77 -57,38.64z"/>
   <path class="fil9" d="M1375.04 342.83c0.01,34.24 27.79,62 62.03,62 34.25,0 62.03,-27.78 62.03,-62.03 0,-34.25 -27.78,-62.03 -62.03,-62.03 -27.65,0 -51.96,18.3 -59.6,44.87 -1.6,5.58 -2.42,11.36 -2.42,17.16 0,0 0,0.02 0,0.02l0 -0z"/>
   <path class="fil2" d="M1315.2 823.58c6.49,5.9 8.98,17.14 8.98,17.14 0,0 30.53,20.85 28.49,7.63 -2.04,-13.22 15.76,-66.63 15.76,-66.63l-2.03 72.73c0,0 97.63,-4.58 104.76,-11.69 7.13,-7.11 48.83,-20.76 48.83,-20.76 0,0 12.84,10.25 24.49,18.02 1.56,-8.78 2.71,-16.5 2.71,-16.5l-41.97 -33.83 -104.76 -27.5 -39.4 -12.7 -38.41 60.5c-2.71,4.39 -5.21,8.94 -7.46,13.57l0 0.01z"/>
   <path class="fil14" d="M1311.99 817.84c8.14,5.08 11.18,18.81 11.18,18.81 0,0 30.51,20.85 28.47,7.63 -2.03,-13.22 15.77,-66.63 15.77,-66.63l-2.04 72.73c0,0 97.65,-4.55 104.74,-11.69 7.1,-7.15 48.83,-20.85 48.83,-20.85 0,0 36.12,28.99 42.72,26.43 6.6,-2.55 -11.69,-51.87 -11.69,-51.87l-18.79 -288.86c0,0 5.08,-85.95 -2.55,-89.01 -1.18,-0.48 -2.26,-1.15 -3.21,-2 -5.02,-4.51 -6.53,-13.68 -6.96,-21.38 -0.5,-9.17 -12.71,-4.58 -12.71,-4.58l7.11 9.16 -63.02 38.32 -0.55 0.33c-2.45,-1.28 -4.99,-2.44 -7.58,-3.43 -5.5,-2.14 -13,-4.16 -17.86,-2.16 -2.71,1.38 -5.01,3.45 -6.67,6.01 -3.59,5.39 -6.48,11.24 -8.58,17.38l-22.82 38.63c0,0 -11.7,51.33 -11.7,53.41 0,2.07 -3.56,48.83 -7.63,53.9 -4.07,5.08 -8.14,30.51 -6.62,38.14 1.52,7.63 -2.55,36.12 -2.55,36.12 -16.78,13.73 -25.41,60.5 -25.41,60.5 0,0 -26.52,52.44 -28.6,58.48 -2.09,6.05 0.57,21.45 8.71,26.46z"/>
   <path class="fil2" d="M1449.84 436.08c6.18,9.16 24.04,22 24.04,22l51.54 -43.55c-5.02,-4.51 -6.53,-13.68 -6.96,-21.4 -0.5,-9.16 -12.71,-4.56 -12.71,-4.56l1.48 1.83c1.12,1.44 1.72,3.21 1.72,5.03 0,2.86 -1.5,5.52 -3.94,7.01l-55.17 33.63z"/>
   <path class="fil14" d="M1449.84 434.04c6.18,9.17 24.04,22 24.04,22l51.54 -43.54c-5.02,-4.51 -6.53,-13.68 -6.96,-21.38 -0.5,-9.17 -12.71,-4.58 -12.71,-4.58l1.48 1.84c1.12,1.44 1.72,3.2 1.72,5.02 0,2.86 -1.49,5.52 -3.94,7l-55.17 33.64z"/>
   <path class="fil2" d="M1426.01 440.9c6.66,7.96 16.1,17 15.66,12.47 -0.44,-4.53 5.63,-14.52 9.5,-18.99 -2.74,-0.87 -5.62,-1.31 -8.5,-1.31 -3.41,0 -6.79,0.62 -9.98,1.83 -2.72,1.37 -5.03,3.45 -6.68,6.01l0 0z"/>
   <path class="fil14" d="M1425 437.84c6.66,7.98 16.08,17 15.64,12.49 -0.44,-4.51 5,-11.87 8.87,-16.34 -5.5,-2.14 -12.98,-4.16 -17.86,-2.14 -2.71,1.37 -5.01,3.44 -6.66,6l0 0z"/>
   <circle class="fil15" cx="1441.67" cy="476.09" r="4.07"/>
   <circle class="fil15" cx="1410.81" cy="585.93" r="4.07"/>
   <circle class="fil15" cx="1375.9" cy="697.14" r="4.07"/>
   <circle class="fil15" cx="1374.87" cy="818.17" r="4.07"/>
   <circle class="fil15" cx="1423.7" cy="527.95" r="4.07"/>
   <circle class="fil15" cx="1396.23" cy="640.86" r="4.07"/>
   <circle class="fil15" cx="1369.45" cy="751.72" r="4.07"/>
   <circle class="fil15" cx="1375.55" cy="831.73" r="4.07"/>
   <path class="fil2" d="M1525.42 414.98c0,0 -0.68,-6.11 8.12,4.42 8.8,10.52 25.43,19.65 25.43,19.65 0,0 37.64,26.46 39.67,38.65 2.04,12.19 14.23,65.11 7.79,82.73 -6.43,17.62 -55.64,102.07 -55.64,102.07 0,0 12.84,15.27 9.85,33.24 -2.99,17.97 -6.78,42.72 -5.09,48.15 1.69,5.43 -2.04,18.97 3.67,23.72 5.7,4.75 11.86,12.83 -6.11,23.72 0,0 -3.39,9.16 -0.35,11.2 3.04,2.03 -45.09,23.05 -64.17,11.86 -19.09,-11.18 -53.17,-100.69 -53.91,-120.7 -0.73,-20 10.51,-86.17 16.61,-101.72 6.1,-15.55 24.42,-76.29 32.21,-89.84 7.79,-13.55 41.91,-87.16 41.91,-87.16z"/>
   <path class="fil10" d="M1527.44 414.98c0,0 -0.68,-6.11 8.14,4.42 8.82,10.52 25.43,19.65 25.43,19.65 0,0 37.64,26.46 39.67,38.65 2.04,12.19 14.23,65.11 7.79,82.73 -6.44,17.62 -55.61,102.07 -55.61,102.07 0,0 12.84,15.27 9.85,33.24 -2.99,17.97 -6.78,42.72 -5.1,48.15 1.69,5.43 -2.03,18.97 3.67,23.72 5.7,4.75 11.86,12.83 -6.11,23.72 0,0 -3.39,9.16 -0.35,11.2 3.04,2.03 -45.09,23.05 -64.17,11.86 -19.08,-11.18 -53.17,-100.69 -53.9,-120.7 -0.73,-20 10.51,-86.17 16.61,-101.72 6.1,-15.55 24.42,-76.29 32.21,-89.84 7.79,-13.55 41.86,-87.16 41.86,-87.16z"/>
   <path class="fil2" d="M1541 472.69c0,0 -29.15,32.22 -28.14,53.57 0,0 -0.33,-34.6 28.14,-53.57z"/>
   <path class="fil2" d="M1500.67 525.59c0,1.01 -19.68,74.24 -18.65,83.4 1.02,9.17 -5.78,36.26 -5.78,36.26l-9.16 -2.36c0,0 7.11,-37.64 8.47,-51.54 1.36,-13.89 25.12,-65.76 25.12,-65.76z"/>
   <path class="fil2" d="M1492.86 734.44c0.68,1.01 46.46,52.88 33.57,56.62 -12.89,3.74 -33.57,-56.62 -33.57,-56.62z"/>
   <path class="fil2" d="M1530.49 721.16c1.01,0.68 18.34,37.29 20.34,27.5 2,-9.79 -14.91,26.79 -17.62,-0.33l-2.71 -27.17z"/>
   <path class="fil2" d="M1442.62 426.58c0,0 -18.9,-11.53 -42.65,17.97 0,0 -17.29,9.83 -22.36,12.21 -5.08,2.38 -10.85,65.43 -10.85,65.43 0,0 -11.18,27.12 -8.14,42.72 3.04,15.6 -8.8,69.16 -8.8,69.16 0,0 -19.69,96.25 -19.03,99 0.66,2.75 20,-30.17 19.67,-46.46 -0.33,-16.28 16.26,-67.12 18.65,-70.18 2.38,-3.06 18.65,-90.17 18.65,-90.17 0,0 13.22,-36.96 21.69,-49.17 8.47,-12.21 19,-35.26 23.4,-39.33 3.16,-2.74 6.7,-5.03 10.5,-6.78l-0.72 -4.4z"/>
   <path class="fil10" d="M1442.86 426.58c0,0 -21.19,-11.53 -44.92,17.97 0,0 -17.31,9.83 -22.39,12.21 -5.08,2.38 -10.85,65.43 -10.85,65.43 0,0 -11.18,27.12 -8.14,42.72 3.04,15.6 -8.8,69.16 -8.8,69.16 0,0 -19.68,96.29 -19,99 0.68,2.71 20.01,-30.17 19.68,-46.46 -0.33,-16.28 16.26,-67.12 18.65,-70.18 2.38,-3.06 18.7,-90.17 18.7,-90.17 0,0 13.22,-36.96 21.69,-49.17 8.47,-12.21 18.99,-35.26 23.39,-39.33 4.4,-4.07 12.54,-6.78 12.54,-6.78l-0.55 -4.4z"/>
   <path class="fil9" d="M1349.79 638.47c0,0 -40.33,-26.44 -59.84,-13.38 -19.51,13.05 -51.33,31.53 -20,44.92 31.33,13.38 74.75,10.82 74.75,10.82l5.09 -42.35z"/>
   <path class="fil2" d="M1377.84 893.61c6.02,12.84 11,77.7 14.34,98.25 4.82,-8.25 10.65,-18.14 12.62,-21.22 2.49,-3.92 8.5,-20.61 11.86,-30.23 -3.83,-9.31 -14.41,-36.01 -14.41,-45.84 0,-11.95 -19.32,-26.95 -19.32,-26.95 0,0 -12.19,10.73 -5.08,25.98z"/>
   <path class="fil2" d="M1507.52 1092.71c0,0 -44.76,-19.07 -57.97,-5.5 -13.22,13.57 57.97,5.5 57.97,5.5z"/>
   <path class="fil2" d="M1482.35 1100.33c0,0 45.27,25.43 29.75,29.69 -15.51,4.25 -29.75,-29.69 -29.75,-29.69z"/>
   <path class="fil2" d="M1347.08 1078.22c0,0 19.32,1.27 11.95,5.08 -7.37,3.81 -11.95,-5.08 -11.95,-5.08z"/>
   <path class="fil2" d="M1322.91 1084.07c0.26,1.27 56.19,19.33 45.27,27.5 -10.93,8.18 -45.27,-27.5 -45.27,-27.5z"/>
   <path class="fil2" d="M1500.9 1239.69c-8.38,-1.28 -55.17,-22.9 -36.87,-7.33 18.29,15.57 36.87,7.33 36.87,7.33z"/>
   <path class="fil2" d="M1477.77 1256.73c0,0 -4.07,15.76 -19.58,13.73 -15.51,-2.04 19.58,-13.73 19.58,-13.73z"/>
   <path class="fil2" d="M1490.75 1288.76c-2.8,-0.75 -36.12,-16.01 -36.87,-8.89 -0.75,7.11 31.77,19.58 34.33,15.77 1.46,-2.02 2.34,-4.4 2.55,-6.88l0 0z"/>
   <path class="fil2" d="M1382.92 1270.46c-4.07,-0.26 -42.17,-12.47 -49.83,-1.54l49.83 1.54z"/>
   <path class="fil2" d="M1348.35 1277.57c0,0 -6.62,-5.85 -13.22,-2.8 -6.6,3.04 13.22,2.8 13.22,2.8z"/>
   <path class="fil2" d="M1432.77 1340.64c-0.87,4.41 -4.27,7.9 -8.65,8.89l8.65 -8.89z"/>
   <path class="fil12" d="M1238.74 1364.53c2.55,10.43 38.15,11.44 55.19,8.65 17.03,-2.79 52.38,-12.98 52.38,-12.98 0,0 37.13,-3.56 48.05,-8.12 10.93,-4.57 2.29,-16.28 2.29,-16.28 0,0 0,-0.4 0,-1.1 0.25,-4.25 1.02,-19.67 -1.6,-23.84 -3.04,-4.84 -1.27,-20.61 -1.27,-20.61 0,0 -52.64,10.18 -53.67,5.35 -1.02,-4.82 -9.17,-11.69 -12.96,-13.22 -3.8,-1.52 -6.62,12.71 -6.62,12.71 0,0 -23.84,20.35 -25.43,27.72 -1.6,7.37 -18.34,11.18 -18.34,11.18 0,0 -25.43,7.11 -32.05,10.67 -3.9,1.84 -6.57,5.59 -7,9.88 -0.06,0.75 -0.09,1.51 -0.09,2.27 0,2.6 0.37,5.21 1.1,7.7l0 0z"/>
   <path class="fil2" d="M1238.74 1364.53c2.55,10.43 38.15,11.44 55.19,8.65 17.03,-2.79 52.38,-12.98 52.38,-12.98 0,0 37.13,-3.56 48.05,-8.12 10.93,-4.57 2.29,-16.28 2.29,-16.28 0,0 0,-0.4 0,-1.1l-53.17 11.79c0,0 -26.2,11.18 -42.98,11.18 -14.67,0 -47.49,6 -62.71,-3.1 -0.07,0.81 -0.11,1.63 -0.11,2.45 0,2.54 0.35,5.07 1.04,7.51l0 0z"/>
   <path class="fil2" d="M1310.71 1324.36c0,0 2.55,16.78 12.72,22.37l-12.72 -22.37z"/>
   <path class="fil2" d="M1377.46 325.65c0.97,0.51 1.99,0.94 3.03,1.27 4.76,1.29 9.42,-1.94 13.66,-4.51 4.23,-2.57 10.08,-4.47 13.75,-1.14 4.79,4.34 1.32,13.62 6.25,17.82 3.12,2.66 8.07,1.75 11.53,3.92 3.47,2.18 4.51,6.97 5.39,11.09 0.88,4.13 2.64,8.83 6.67,10.04 4.04,1.21 7.79,-1.45 11.77,-1.3 0.82,0 1.83,0.13 2.35,-0.46 0.28,-0.41 0.42,-0.89 0.42,-1.39 0,-0.15 -0.01,-0.3 -0.04,-0.45 -0.13,-1.3 -0.2,-2.62 -0.2,-3.93 0,-3.63 0.51,-7.25 1.5,-10.73 1.63,-4.7 5.5,-8.93 10.34,-9.68 7.13,-1.1 13.13,5.15 17.33,11 4.39,6.15 8.44,12.68 12.03,19.35 0.23,0.44 0.44,0.9 0.61,1.35 3.5,-7.91 5.31,-16.47 5.31,-25.12 0,-34.26 -27.79,-62.04 -62.04,-62.04 -27.7,0 -52.05,18.37 -59.66,45l0 -0.1z"/>
   <path class="fil16" d="M1481.21 346.19c-4.2,-5.91 -10.19,-12.14 -17.35,-11 -4.89,0.75 -8.67,4.99 -10.32,9.67 -0.98,3.46 -1.49,7.05 -1.49,10.66 0,1.33 0.07,2.68 0.21,4.01 0.02,0.13 0.03,0.27 0.03,0.4 0,0.51 -0.15,1.01 -0.44,1.43 -0.57,0.6 -1.52,0.51 -2.35,0.48 -3.98,-0.15 -7.94,2.44 -11.77,1.3 -3.83,-1.14 -5.79,-5.92 -6.67,-10.05 -0.88,-4.13 -1.83,-8.83 -5.39,-11.09 -3.56,-2.26 -8.41,-1.27 -11.53,-3.95 -4.93,-4.18 -1.45,-13.47 -6.25,-17.82 -3.67,-3.32 -9.52,-1.41 -13.75,1.15 -4.24,2.57 -8.89,5.78 -13.68,4.49 -1.62,-0.44 -3.06,-1.36 -4.64,-1.96 -7.53,-2.88 -17.31,2 -23.51,-3.17 -2.24,-2.25 -3.87,-5.06 -4.69,-8.12 -1.7,-4.15 -2.85,-8.51 -3.43,-12.96 -0.09,-0.69 -0.13,-1.4 -0.13,-2.1 0,-3.81 1.26,-7.51 3.57,-10.54 4.04,-4.75 10.85,-5.94 16.01,-9.44 4.38,-3.01 7.33,-7.57 10.23,-12.06 2.9,-4.49 5.7,-9.17 9.94,-12.34 4.24,-3.17 10.18,-4.75 14.91,-2.35 1.49,1.04 3.14,1.83 4.89,2.32 0.04,0 0.09,0 0.13,0 1.87,0 3.69,-0.52 5.28,-1.49 17.64,-8.31 38.17,-6.84 57.52,-4.36 7.74,0.99 15.58,2.14 22.64,5.5 7.05,3.36 13.29,9.17 15.27,16.72 1.57,5.98 0.36,12.48 2.27,18.33 1.28,4 3.92,7.33 5.5,11.35 4.13,10.73 -0.81,22.49 -2.9,33.79 -2.27,12.34 -1.14,25.67 -6.38,37.37 -1.02,2.29 -2.18,6.3 -4.76,4.8 -1.84,-1.12 -3.78,-7.63 -4.88,-9.66 -3.59,-6.68 -7.69,-13.16 -12.1,-19.32l-0 -0.01z"/>
   <path class="fil2" d="M1592.96 544.91l9.17 26.11c0,0 -21.71,80.67 -31.89,97.63 -10.18,16.96 -25.08,38.65 -25.08,38.65 0,0 -25.08,12.56 -54.25,6.78 -29.17,-5.78 -114.29,-21.01 -114.29,-21.01 0,0 -7.13,1.36 -10.85,-4.07 -3.72,-5.43 -23.1,-8.18 -23.1,-8.18 0,0 -22.36,-32.54 5.1,-46.11 0,0 3.39,7.46 17.96,2.38 14.58,-5.08 18.98,4.05 18.98,4.05 0,0 23.84,4.75 36.96,3.06 13.13,-1.69 46.11,-2.38 49.5,-5.1 0.79,-0.69 1.82,-1.08 2.87,-1.08 1.23,0 2.41,0.52 3.23,1.43 0.82,0.91 8.12,-3.04 10.83,-6.1 2.71,-3.06 6.45,3.39 6.45,3.39 0,0 4.75,-2.71 3.39,-6.11 -1.36,-3.39 4.4,-16.26 4.4,-16.26 0,0 2.71,-8.49 1.02,-15.27 -1.69,-6.78 8.47,-31.17 8.47,-31.17 0.01,-0.45 0.02,-0.93 0.02,-1.39 0,-3.65 -0.47,-7.29 -1.38,-10.82 -1.71,-6.09 12.84,-18.33 12.84,-18.33 0,0 14.23,-69.17 44.4,-46.46 30.18,22.72 25.23,53.98 25.23,53.98z"/>
   <path class="fil10" d="M1594.9 544.91l9.17 26.11c0,0 -21.71,80.67 -31.89,97.63 -10.17,16.96 -25.06,38.64 -25.06,38.64 0,0 -25.08,12.56 -54.25,6.78 -29.17,-5.77 -114.26,-21.01 -114.26,-21.01 0,0 -7.11,1.36 -10.84,-4.07 -3.72,-5.43 -23.08,-8.18 -23.08,-8.18 0,0 -22.37,-32.54 5.09,-46.11 0,0 3.39,7.46 17.97,2.38 14.58,-5.08 18.98,4.05 18.98,4.05 0,0 23.83,4.75 36.96,3.06 13.13,-1.69 46.11,-2.38 49.5,-5.1 0.8,-0.69 1.82,-1.08 2.88,-1.08 1.23,0 2.4,0.52 3.23,1.43 0.83,0.91 8.12,-3.04 10.84,-6.1 2.71,-3.06 6.45,3.39 6.45,3.39 0,0 4.75,-2.71 3.39,-6.11 -1.36,-3.39 4.4,-16.26 4.4,-16.26 0,0 2.71,-8.49 1.01,-15.27 -1.71,-6.78 8.49,-31.17 8.49,-31.17 0.01,-0.45 0.02,-0.93 0.02,-1.39 0,-3.65 -0.47,-7.29 -1.38,-10.82 -1.71,-6.09 12.83,-18.33 12.83,-18.33 0,0 14.23,-69.17 44.41,-46.46 30.18,22.72 25.14,53.98 25.14,53.98z"/>
   <path class="fil2" d="M1374.54 654.08c0.33,2.38 7.79,11.86 5.08,13.56 -2.71,1.71 -7.11,0.68 -3.04,6.11 4.07,5.43 3.67,13.55 1.01,12.54 -2.66,-1.01 -7.11,-13.22 -7.11,-17.96 0,-4.75 4.07,-14.25 4.07,-14.25z"/>
   <path class="fil2" d="M1475.24 648.65c0,0 2.04,23.75 18.72,30.53 16.69,6.78 -18.72,-30.53 -18.72,-30.53z"/>
   <path class="fil2" d="M1509.81 640.49c1.01,0.35 23.72,12.56 13.57,19.67 -10.16,7.11 -13.57,-19.67 -13.57,-19.67z"/>
   <path class="fil2" d="M1511.17 623.57c0,0 33.22,6.78 22,12.54 -11.22,5.76 -22,-12.54 -22,-12.54z"/>
   <g>
    <path class="fil3" d="M1453.62 339.04c1.65,-4.67 5.5,-8.91 10.32,-9.66 7.15,-1.1 13.14,5.15 17.34,11 4.39,6.15 8.44,12.69 12.02,19.35 1.1,2.03 2.97,8.53 4.88,9.64 2.58,1.52 3.67,-2.49 4.76,-4.79 5.24,-11.66 4.11,-25.02 6.38,-37.36 1.34,-7.21 3.81,-14.67 4.36,-21.82 0.79,8.87 -2.69,18.2 -4.36,27.23 -2.27,12.34 -1.14,25.67 -6.38,37.38 -1.02,2.29 -2.18,6.31 -4.76,4.79 -1.84,-1.12 -3.78,-7.61 -4.88,-9.64 -3.59,-6.66 -7.63,-13.2 -12.03,-19.36 -4.2,-5.88 -10.19,-12.14 -17.34,-11 -4.89,0.75 -8.67,4.99 -10.32,9.66 -0.8,2.47 -1.27,5.04 -1.35,7.63 -0.08,-0.96 -0.12,-1.95 -0.12,-2.92 0,-3.43 0.5,-6.84 1.48,-10.13l0 -0z"/>
    <path class="fil3" d="M1347.63 306.8c0.82,3.08 2.44,5.89 4.69,8.14 6.2,5.17 15.97,0.29 23.51,3.17 1.58,0.59 3.02,1.52 4.64,1.96 4.78,1.27 9.46,-1.95 13.68,-4.51 4.22,-2.57 10.1,-4.46 13.75,-1.14 4.8,4.34 1.32,13.62 6.25,17.82 3.12,2.65 8.07,1.83 11.53,3.94 3.47,2.11 4.51,6.95 5.39,11 0.88,4.05 2.62,8.84 6.67,10.05 4.05,1.21 7.79,-1.43 11.77,-1.29 0.82,0 1.83,0.13 2.35,-0.48 0.12,-0.15 0.21,-0.33 0.27,-0.51 0,1.38 0,2.73 0.13,4.09 0.02,0.13 0.03,0.27 0.03,0.4 0,0.51 -0.15,1.01 -0.43,1.43 -0.57,0.59 -1.52,0.5 -2.35,0.46 -3.98,-0.13 -7.94,2.44 -11.77,1.3 -3.83,-1.14 -5.79,-5.91 -6.67,-10.05 -0.88,-4.14 -1.83,-8.84 -5.39,-11 -3.56,-2.17 -8.41,-1.28 -11.53,-3.94 -4.93,-4.2 -1.45,-13.5 -6.25,-17.82 -3.67,-3.34 -9.52,-1.43 -13.75,1.14 -4.24,2.57 -8.89,5.78 -13.68,4.51 -1.62,-0.44 -3.06,-1.38 -4.64,-1.96 -7.53,-2.88 -17.31,2 -23.51,-3.17 -2.25,-2.26 -3.87,-5.06 -4.69,-8.14 -1.69,-4.15 -2.86,-8.5 -3.43,-12.94 -0.05,-0.59 -0.07,-1.18 -0.07,-1.77 0,-0.93 0.06,-1.86 0.18,-2.78 0.63,4.14 1.75,8.2 3.32,12.08l0 0z"/>
   </g>
   <path class="fil5" d="M182.94 1332.13c0,0 -77.52,-4.68 -68.39,49.63 0,0 -1.83,9.61 6.9,13.97 0,0 0.13,-4.03 7.96,-2.68 1.99,0.33 4.01,0.5 6.03,0.5 0.8,0 1.6,-0.03 2.39,-0.08 3.8,-0.26 7.41,-1.76 10.29,-4.25l0 0c0,0 21.8,-9 30.27,-44.62 0,0 6.27,-7.76 6.01,-9.76l-13.07 5.5c0,0 4.47,9.44 0.96,17.29 0,0 -0.42,-16.94 -2.93,-16.5 -0.51,0 -6.81,3.26 -6.81,3.26 0,0 7.7,16.5 1.84,28.4 0,0 2.2,-20.26 -4.29,-27.21l-9.17 5.37c0,0 8.98,16.98 2.9,30.84 0,0 1.56,-21.25 -4.84,-29.52l-8.34 6.51c0,0 8.45,16.72 3.3,28.21 0,0 -0.68,-24.73 -5.09,-26.6 0,0 -7.33,6.43 -8.41,9.16 0,0 5.77,12.16 2.18,18.57 0,0 -2.2,-16.5 -4,-16.5 0,0 -7.33,10.91 -8.03,18.33 0,0 0.31,-11.13 6.27,-19.45 -4.19,0.79 -8.07,2.8 -11.13,5.77 -3.06,2.97 1.12,-7.72 12.93,-8.4 0,0 6.01,-8.29 7.61,-8.78 0,0 -11.73,-0.99 -18.85,2.17 0,0 6.27,-7.33 21.01,-3.96l8.23 -6.73c0,0 -15.46,-2.11 -22,0.22 0,0 7.53,-6.44 24.22,-1.74l8.96 -5.37c0,0 -13.17,-2.84 -21.01,-1.83 0,0 8.27,-4.46 23.65,0.38l6.4 -2.88c0,0 -9.64,-1.83 -12.47,-2.2 -2.83,-0.36 -2.99,-1.08 -2.99,-1.08 1.81,-0.3 3.66,-0.45 5.51,-0.45 4.33,0 8.62,0.84 12.63,2.47 4.01,1.63 13.62,-5.13 13.4,-5.97z"/>
   <path class="fil0" d="M184.41 1400.46c0,-5.12 -24.56,-9.28 -54.86,-9.28 -30.29,0 -54.85,4.15 -54.85,9.28 0,5.12 24.56,9.28 54.85,9.28 30.3,0 54.86,-4.15 54.86,-9.28z"/>
   <path class="fil5" d="M331.56 1189c0,0 -43.71,-2.64 -38.5,28 -0.06,0.41 -0.1,0.83 -0.1,1.24 0,2.78 1.54,5.33 3.99,6.62 2.46,1.29 0,-2.28 4.49,-1.51 1.14,0.18 2.29,0.28 3.44,0.28 0.43,0 0.87,-0.02 1.3,-0.04 2.14,-0.16 4.17,-1 5.79,-2.4l0 0c0,0 12.24,-5.01 17.09,-25.17 0,0 3.54,-4.38 3.39,-5.5l-7.33 3.13c0,0 2.51,5.33 0.53,9.76 0,0 -0.24,-9.55 -1.65,-9.33 -0.29,0 -3.83,1.83 -3.83,1.83 0,0 4.32,9.17 1.06,16 0,0 1.23,-11.42 -2.42,-15.34l-5.22 3.12c0,0 5.06,9.57 1.63,17.38 0,0 0.88,-11.99 -2.73,-16.65l-4.69 3.67c0,0 4.75,9.44 1.83,15.91 0,0 -0.38,-13.95 -2.88,-15 -1.77,1.5 -3.38,3.23 -4.74,5.11 -1.37,1.88 3.26,6.86 1.24,10.47 0,0 -1.24,-9.29 -2.26,-9.33 0,0 -4.1,6.15 -4.53,10.38 0.19,-3.91 1.41,-7.71 3.52,-11 -2.36,0.45 -4.54,1.59 -6.27,3.26 -1.73,1.67 0.64,-4.37 7.33,-4.73 0,0 3.37,-4.68 4.29,-4.95 0,0 -6.62,-0.57 -10.63,1.21 0,0 3.54,-4.1 11.84,-2.23l4.64 -3.8c0,0 -8.71,-1.19 -12.39,0.13 0,0 4.25,-3.67 13.66,-0.99l5.04 -3.01c-3.21,-0.71 -6.51,-1.07 -9.8,-1.07 -0.68,0 -1.36,0.02 -2.04,0.04 -0.67,0.03 4.68,-2.53 13.33,0.2l3.67 -1.61c0,0 -5.5,-1.08 -7.02,-1.25 -1.52,-0.16 -1.69,-0.6 -1.69,-0.6 1.02,-0.17 2.06,-0.25 3.1,-0.25 2.44,0 4.86,0.47 7.13,1.39 2.26,0.92 7.59,-2.9 7.38,-3.38z"/>
   <path class="fil0" d="M332.46 1227.52c0,-2.88 -13.85,-5.22 -30.93,-5.22 -17.08,0 -30.93,2.34 -30.93,5.22 0,2.89 13.85,5.23 30.93,5.23 17.08,0 30.93,-2.34 30.93,-5.23z"/>
   <path class="fil5" d="M73.69 1215.58c0,0 -52.77,-3.19 -46.48,33.79 -0.08,0.5 -0.12,1.01 -0.12,1.51 0,3.35 1.86,6.42 4.82,7.99 2.96,1.56 0,-2.75 5.41,-1.84 1.33,0.22 2.67,0.34 4.01,0.34 0.57,0 1.15,-0.03 1.72,-0.06 2.59,-0.17 5.05,-1.19 7.01,-2.89l-0 0c0,0 14.83,-6.12 20.61,-30.36 0,0 4.25,-5.28 4.09,-6.63l-9.04 3.81c0,0 3.03,6.42 0.64,11.75 0,0 -0.29,-11.51 -2,-11.24 -0.35,0 -4.62,2.22 -4.62,2.22 0,0 5.22,11.18 1.28,19.32 0,0 1.48,-13.79 -2.93,-18.52l-6.25 3.67c0,0 6.11,11.55 1.96,20.98 0,0 1.06,-14.47 -3.28,-20.17l-5.68 4.44c0,0 5.74,11.39 2.23,19.21 0,0 -0.45,-16.85 -3.47,-18.11 0,0 -4.97,4.38 -5.74,6.18 0,0 3.95,8.27 1.51,12.63 0,0 -1.51,-11.22 -2.73,-11.28 0,0 -4.95,7.44 -5.5,12.54 0.24,-4.71 1.72,-9.28 4.28,-13.24 -2.86,0.54 -5.51,1.9 -7.59,3.92 -2.09,2.02 0.77,-5.26 8.82,-5.72 0,0 4.09,-5.63 5.17,-5.98 0,0 -7.97,-0.68 -12.83,1.47 0,0 4.27,-4.95 14.3,-2.69l5.61 -4.58c0,0 -10.52,-1.43 -14.98,0.16 0,0 5.13,-4.4 16.5,-1.19l6.1 -3.67c0,0 -8.96,-1.94 -14.3,-1.24 0,0 5.63,-3.04 16.09,0.25l4.37 -1.96c0,0 -6.57,-1.28 -8.49,-1.48 -1.93,-0.2 -2.03,-0.73 -2.03,-0.73 1.25,-0.21 2.52,-0.32 3.79,-0.32 2.93,0 5.84,0.57 8.55,1.68 2.71,1.11 9.37,-3.34 9.2,-3.94z"/>
   <path class="fil0" d="M74.69 1262.09c0,-3.48 -16.72,-6.3 -37.35,-6.3 -20.62,0 -37.34,2.82 -37.34,6.3 0,3.49 16.72,6.31 37.34,6.31 20.63,0 37.35,-2.82 37.35,-6.31z"/>
   <path class="fil0" d="M1169.07 1491.72c0,-5.12 -24.56,-9.28 -54.86,-9.28 -30.29,0 -54.85,4.16 -54.85,9.28 0,5.12 24.56,9.28 54.85,9.28 30.3,0 54.86,-4.16 54.86,-9.28z"/>
   <path class="fil17" d="M1077.38 1448.63c0,0 31.29,-0.97 40.72,-7.68 9.42,-6.71 48.13,-14.67 50.47,-3.96 2.35,10.71 47.03,53.56 11.7,53.85 -35.33,0.29 -82.08,-5.5 -91.51,-11.24 -9.42,-5.74 -11.38,-30.97 -11.38,-30.97z"/>
   <path class="fil18" d="M1180.9 1487.08c-35.33,0.3 -82.08,-5.5 -91.49,-11.22 -7.17,-4.38 -10.03,-20.04 -11,-27.26l-1.05 0c0,0 1.98,25.23 11.39,30.96 9.41,5.74 56.18,11.51 91.51,11.24 10.19,0 13.71,-3.67 13.53,-9.17 -1.39,3.36 -5.3,5.39 -12.89,5.45z"/>
  </g>
 </g>
</svg>
