<?xml version="1.0" encoding="UTF-8"?>
<!DOCTYPE svg PUBLIC "-//W3C//DTD SVG 1.1//EN" "http://www.w3.org/Graphics/SVG/1.1/DTD/svg11.dtd">
<!-- Creator: CorelDRAW 2021 (64-Bit) -->
<svg xmlns="http://www.w3.org/2000/svg" xml:space="preserve" width="2.19565in" height="1.57481in" version="1.1" style="shape-rendering:geometricPrecision; text-rendering:geometricPrecision; image-rendering:optimizeQuality; fill-rule:evenodd; clip-rule:evenodd"
viewBox="0 0 2948.6 2114.85"
 xmlns:xlink="http://www.w3.org/1999/xlink"
 xmlns:xodm="http://www.corel.com/coreldraw/odm/2003">
 <defs>
  <style type="text/css">
   <![CDATA[
    .fil3 {fill:#00C4B5}
    .fil7 {fill:#2F2E41}
    .fil1 {fill:#3F3D56}
    .fil8 {fill:#9F616A}
    .fil12 {fill:#A1616A}
    .fil13 {fill:#D0CDE1}
    .fil4 {fill:#E6E8EC}
    .fil10 {fill:#EFB7B9}
    .fil0 {fill:#F2F2F2}
    .fil6 {fill:#FF6584}
    .fil5 {fill:white}
    .fil2 {fill:#3F3D56;fill-rule:nonzero}
    .fil11 {fill:black;fill-opacity:0.011765}
    .fil9 {fill:black;fill-opacity:0.101961}
   ]]>
  </style>
 </defs>
 <g id="Layer_x0020_1">
  <metadata id="CorelCorpID_0Corel-Layer"/>
  <g id="_2401991740080">
   <path class="fil0" d="M2948.6 1272.28c0,369.52 -219.67,498.54 -490.65,498.54 -270.98,0 -490.65,-129.02 -490.65,-498.54 0,-369.52 490.65,-839.6 490.65,-839.6 0,0 490.65,470.08 490.65,839.6z"/>
   <polygon class="fil1" points="2440.08,1714.29 2445.1,1405.04 2654.23,1022.45 2445.89,1356.53 2448.15,1217.47 2592.28,940.68 2448.75,1180.68 2448.75,1180.68 2452.81,930.58 2607.15,710.22 2453.45,891.26 2455.99,432.68 2440.03,1039.76 2441.35,1014.71 2284.43,774.53 2438.83,1062.79 2424.21,1342.1 2423.78,1334.68 2242.88,1081.92 2423.23,1360.87 2421.4,1395.8 2421.07,1396.33 2421.22,1399.2 2384.13,2107.83 2433.68,2107.83 2439.63,1741.81 2619.54,1463.54 "/>
   <path class="fil0" d="M265.37 1884.46c0,99.93 -59.41,134.82 -132.69,134.82 -73.27,0 -132.68,-34.89 -132.68,-134.82 0,-99.93 132.68,-227.05 132.68,-227.05 0,0 132.69,127.12 132.69,227.05z"/>
   <polygon class="fil1" points="127.85,2003.99 129.21,1920.36 185.76,1816.9 129.42,1907.24 130.03,1869.64 169.01,1794.78 130.19,1859.69 130.19,1859.69 131.29,1792.06 173.03,1732.47 131.46,1781.42 132.15,1657.41 127.84,1821.58 128.19,1814.81 85.76,1749.85 127.51,1827.81 123.56,1903.34 123.44,1901.34 74.52,1832.98 123.29,1908.42 122.79,1917.86 122.71,1918 122.75,1918.78 112.72,2110.41 126.12,2110.41 127.73,2011.43 176.38,1936.18 "/>
   <g>
    <polygon class="fil2" points="2689.9,2113.77 18.7,2113.77 18.7,2107.75 2689.9,2107.75 "/>
   </g>
   <path class="fil3" d="M2691.33 2020.85c0,67.59 -40.18,91.19 -89.74,91.19 -1.15,0 -2.3,-0.02 -3.44,-0.04 -2.3,-0.05 -4.57,-0.16 -6.82,-0.31 -44.73,-3.17 -79.49,-27.98 -79.49,-90.83 0,-65.05 83.13,-147.14 89.37,-153.21l0.01 -0.01c0.24,-0.24 0.36,-0.35 0.36,-0.35 0,0 89.74,85.98 89.74,153.57z"/>
   <path class="fil1" d="M2598.31 2101.7l32.82 -45.87 -32.91 50.9 -0.08 5.27c-2.3,-0.05 -4.57,-0.16 -6.82,-0.31l3.54 -67.62 -0.03 -0.53 0.06 -0.1 0.33 -6.39 -32.99 -51.03 33.09 46.24 0.08 1.35 2.67 -51.09 -28.24 -52.72 28.59 43.76 2.78 -105.92 0.01 -0.36 0 0.35 -0.47 83.53 28.12 -33.11 -28.23 40.31 -0.75 45.74 26.25 -43.9 -26.36 50.63 -0.41 25.43 38.11 -61.1 -38.25 69.98 -0.92 56.56z"/>
   <path class="fil1" d="M1717.23 478.6l17.23 0c3.81,0 6.89,3.09 6.89,6.89l0 241.96c0,3.81 -3.09,6.89 -6.89,6.89l-17.23 0c-3.81,0 -6.89,-3.09 -6.89,-6.89l0 -241.96c0,-3.81 3.09,-6.89 6.89,-6.89z"/>
   <path class="fil1" d="M683.62 278.24l8.36 0c2.5,0 4.53,2.02 4.53,4.52l0 75.15c0,2.5 -2.02,4.52 -4.52,4.52l-8.37 0c-2.5,0 -4.52,-2.02 -4.52,-4.52l0 -75.15c0,-2.5 2.02,-4.52 4.53,-4.52z"/>
   <path class="fil1" d="M683.57 432.39l9.43 0c2.82,-0.01 5.1,2.28 5.1,5.1l0 136.35c0,2.81 -2.28,5.1 -5.1,5.1l-9.43 0c-2.81,0 -5.1,-2.28 -5.1,-5.1l0 -136.35c0,-2.82 2.28,-5.1 5.1,-5.1z"/>
   <path class="fil1" d="M683.64 630.21l8.97 0c2.68,0 4.85,2.17 4.85,4.85l-0.01 138.12c0.01,2.68 -2.17,4.85 -4.85,4.85l-8.97 0c-2.68,0 -4.85,-2.17 -4.85,-4.85l0 -138.12c0,-2.68 2.17,-4.85 4.85,-4.85z"/>
   <path class="fil1" d="M796.33 0l823.37 0c59.29,0 107.37,48.08 107.37,107.37l0 1895.08c0,59.28 -48.08,107.37 -107.37,107.37l-823.37 0.01c-59.29,-0.01 -107.37,-48.09 -107.37,-107.38l0 -1895.07c0,-59.29 48.08,-107.37 107.37,-107.37z"/>
   <path class="fil4" d="M1115.53 63.01l129.67 0c4.22,0 7.65,3.42 7.65,7.65l0 14.14c0,4.22 -3.43,7.65 -7.65,7.65l-129.67 0c-4.22,0 -7.65,-3.43 -7.65,-7.65l0 -14.14c0,-4.22 3.42,-7.65 7.65,-7.65z"/>
   <circle class="fil4" cx="1291.46" cy="77.73" r="16.7"/>
   <path class="fil5" d="M1662.97 137.41l0 1835.01c-0.01,45.53 -36.91,82.42 -82.44,82.42 0,0 -0.01,0 -0.01,0l-744.99 0.01c-0.01,-0.01 -0.02,-0.01 -0.02,-0.01 -45.52,0 -82.43,-36.89 -82.44,-82.42l0 -1835.01c0,0.01 0,-0.01 0,-0.01 0,-45.53 36.92,-82.45 82.45,-82.45 0,0 0.01,0 0.01,0l111.47 0 0 14.32c0.01,37.48 30.41,67.89 67.9,67.9l378.87 0c37.49,0 67.89,-30.41 67.89,-67.9l0 -14.32 118.85 0c0,0 0.01,0 0.01,0 45.52,0 82.44,36.92 82.44,82.45 0,0 0,0.01 0,0.01l0 -0.01z"/>
   <rect class="fil0" x="752.02" y="480.36" width="911.46" height="1046.82"/>
   <path class="fil6" d="M818.2 1672.03l-4.8 -4.32c-17.04,-15.65 -28.29,-25.8 -28.29,-38.45 0,-0.1 0,-0.21 0,-0.32 0,-9.93 8.06,-18 18,-18 0.07,0 0.14,0.01 0.21,0.01 5.75,0.03 11.19,2.59 14.89,6.99 3.69,-4.4 9.14,-6.96 14.89,-6.99 0.07,0 0.14,-0.01 0.21,-0.01 9.94,0 18,8.06 18,18 0,0.11 0,0.22 0,0.32 0,12.65 -11.25,22.8 -28.29,38.45l-4.8 4.33z"/>
   <path class="fil0" d="M992.17 1656.03l9.27 2.65c4.35,-12.62 16.24,-21.1 29.59,-21.1 7.38,0 14.52,2.61 20.16,7.36l-14.16 13.73 35.36 0.01 0 -34.38 -14.25 13.66c-7.47,-6.56 -17.08,-10.17 -27.02,-10.17 -17.72,0 -33.44,11.4 -38.94,28.24l0 0z"/>
   <circle class="fil3" cx="812.18" cy="360.03" r="42.11"/>
   <rect class="fil3" x="887.39" y="335.97" width="391.05" height="48.13"/>
   <rect class="fil0" x="785.11" y="1743.77" width="391.05" height="48.13"/>
   <rect class="fil0" x="785.11" y="1848.69" width="827.23" height="48.13"/>
   <path class="fil0" d="M953.57 1668.99l-10.36 -18.13c1.35,-3.26 2.06,-6.76 2.06,-10.29 0,-14.77 -11.98,-26.75 -26.75,-26.75 -14.77,0 -26.75,11.98 -26.75,26.75 0,14.77 11.98,26.75 26.75,26.75 5.51,0 10.9,-1.71 15.41,-4.89l19.65 6.56z"/>
   <path class="fil7" d="M1130.63 725.87l0 0c-55.97,11.44 -96.2,60.74 -96.2,117.88 0,8.09 0.82,16.21 2.44,24.12l24.83 121.35 27.8 -5.69 1.97 -12.86 5.82 11.27 169.03 -34.59 1.97 -12.86 5.82 11.27 23.35 -4.78 -24.83 -121.35c-11.44,-55.98 -60.74,-96.2 -117.88,-96.2 -8.09,0 -16.2,0.82 -24.12,2.44l-0.01 0.01z"/>
   <polygon class="fil8" points="1340.11,1098.17 1484.49,1185.4 1466.45,1227.51 1331.08,1164.34 "/>
   <path class="fil3" d="M1156.61 1197.44c0,0 -291.79,0 -339.92,75.2 -48.13,75.2 -9.03,180.49 141.38,204.55 150.41,24.07 607.64,36.1 643.74,-54.15 36.1,-90.25 9.03,-141.38 9.03,-141.38 0,0 -156.42,-108.29 -454.23,-84.22z"/>
   <path class="fil3" d="M1415.31 1269.63l159.43 60.16c0,0 66.18,-48.13 33.09,-102.27 -33.09,-54.15 -183.5,-366.99 -183.5,-366.99 0,0 -42.11,-60.16 12.03,-93.25 54.15,-33.09 75.2,21.06 75.2,21.06 0,0 -3.01,12.03 18.05,3.01 21.05,-9.03 60.16,21.06 39.1,69.19 -21.06,48.13 -36.1,60.16 9.03,57.15 16.29,-1.08 30.63,-12.76 42.29,-27.24 22.35,-27.75 12.37,-50.1 10.68,-85.69 -2.9,-60.98 -7.63,-100.73 -22.89,-124.71 -21.06,-33.09 -51.14,-60.16 -129.35,-45.13 -78.21,15.04 -192.52,90.25 -165.45,198.54 27.08,108.3 87.24,228.62 87.24,228.62 0,0 42.11,168.45 15.04,207.56z"/>
   <path class="fil9" d="M1415.31 1269.63c-25.99,7.16 -58.63,10.65 -93.76,11.73 -61.31,1.9 -130.32,-3.52 -185.42,-9.65 -59.53,-6.65 -102.84,-14.11 -102.84,-14.11 20.12,-18.77 51.05,-26.2 87.39,-28.91 45.12,-3.37 98.6,0.48 150.25,-1.17 2.99,-0.1 6.06,-0.16 9.08,-0.16 16,0 32.03,1.52 47.74,4.43 56.97,10.86 87.57,37.84 87.57,37.84z"/>
   <circle class="fil8" cx="1155.11" cy="862.03" r="84.23"/>
   <path class="fil8" d="M1144.58 929.71c0,0 15.04,57.15 0,60.16 -15.04,3.01 -51.14,18.05 -51.14,18.05l45.12 18.04 84.23 78.21 72.2 36.1 36.1 -12.03 0 -66.18 -54.15 -84.23c0,0 -36.1,12.03 -45.12,-27.07 -9.03,-39.11 -27.08,-54.15 -27.08,-54.15l-60.16 33.09z"/>
   <path class="fil8" d="M1123.52 1010.93l-36.1 0c0,0 -63.17,21.06 -99.27,69.19 -36.1,48.13 -93.25,96.26 -93.25,96.26 0,0 -39.11,54.15 -18.05,129.35 21.06,75.2 51.14,129.35 78.21,114.31 27.08,-15.04 -39.1,-123.33 -39.1,-123.33l18.04 -66.18c0,0 93.25,-108.29 132.36,-105.28 39.11,3.01 42.12,36.1 42.12,36.1l84.22 24.07 27.08 -57.15 -15.04 -60.16 -81.22 -57.16z"/>
   <path class="fil1" d="M1340.11 1200.44c-5.68,9.73 -9.87,20.34 -12.37,31.35 -3.72,16.25 -5.84,32.91 -6.19,49.57 -61.31,1.9 -130.32,-3.52 -185.42,-9.65 -4.87,-13 -10.23,-27.95 -15.46,-43.02 -14.11,-40.73 -27.22,-82.3 -27.22,-88.41 0,-12.03 63.17,9.03 78.21,6.02 15.04,-3.01 21.05,-51.14 0,-75.2 -21.06,-24.07 -82.72,-64.68 -82.72,-64.68l21.05 -6.02c0,0 46.63,34.59 142.88,91.75 96.26,57.15 57.16,-33.09 57.16,-33.09l-55.65 -85.73 24.06 -0.01c0,0 46.63,79.72 70.69,115.81 24.06,36.1 15.04,72.2 -9.03,111.3z"/>
   <rect class="fil7" transform="matrix(0.210671 -0.0431118 0.0431118 0.210671 1062.16 779.616)" width="724.13" height="444.35"/>
   <circle class="fil1" cx="1543.16" cy="714.63" r="45.12"/>
   <circle class="fil5" cx="1543.16" cy="714.63" r="24.06"/>
   <path class="fil3" d="M218.8 1235.47l-3.07 23.74c-1.04,8.03 -2.08,16.08 -2.64,24.16 -1.87,26.89 1.61,53.89 0.7,80.83 -0.71,20.74 -4.01,41.47 -2.42,62.16 1.41,18.3 6.62,36.07 11.8,53.68l7.41 25.17c0.2,2.55 2.33,4.51 4.89,4.51 0.57,0 1.13,-0.1 1.67,-0.29l32.76 -2.97c-2.1,-9.62 -4.43,-19.65 -5.56,-29.43 -0.89,-7.74 -1.43,-15.51 -1.99,-23.27 -1.74,-24.21 -3.72,-48.4 -5.69,-72.6l-3.47 -42.5c-1.5,-18.44 -3.02,-36.98 -7.67,-54.89 -4.61,-18.11 -13.83,-34.78 -26.72,-48.32l-0.01 0.01z"/>
   <path class="fil9" d="M218.8 1235.47l-3.07 23.74c-1.04,8.03 -2.08,16.08 -2.64,24.16 -1.87,26.89 1.61,53.89 0.7,80.83 -0.71,20.74 -4.01,41.47 -2.42,62.16 1.41,18.3 6.62,36.07 11.8,53.68l7.41 25.17c0.2,2.55 2.33,4.51 4.89,4.51 0.57,0 1.13,-0.1 1.67,-0.29l32.76 -2.97c-2.1,-9.62 -4.43,-19.65 -5.56,-29.43 -0.89,-7.74 -1.43,-15.51 -1.99,-23.27 -1.74,-24.21 -3.72,-48.4 -5.69,-72.6l-3.47 -42.5c-1.5,-18.44 -3.02,-36.98 -7.67,-54.89 -4.61,-18.11 -13.83,-34.78 -26.72,-48.32l-0.01 0.01z"/>
   <path class="fil1" d="M277.17 2049.43c-1.92,3.76 -3.62,7.69 -5.02,11.68 -3.76,11.04 -4.34,22.88 -4.87,34.54 -0.07,0.62 -0.11,1.25 -0.11,1.87 0,1.63 0.24,3.26 0.72,4.82 1.61,4.19 6.24,6.31 10.57,7.48 18.15,4.88 37.28,0.29 56,-1.39 18.37,-1.64 37.08,-0.45 55.08,-4.5 2.65,-0.5 5.24,-1.4 7.63,-2.65 4.56,-2.97 7.97,-7.41 9.64,-12.59 0.54,-1.32 0.91,-2.71 1.09,-4.13 0.59,-6.13 -4.75,-11.46 -10.57,-13.48 -5.82,-2.01 -12.16,-1.68 -18.28,-2.31 -25.9,-2.66 -46.83,-22.39 -50.99,-48.1 -0.22,-1.34 -30.3,-0.55 -33.47,1.19 -3.71,2.03 -5.95,7.11 -8.04,10.54 -3.38,5.54 -6.51,11.22 -9.38,17.04z"/>
   <path class="fil9" d="M277.17 2049.43c-1.92,3.76 -3.62,7.69 -5.02,11.68 -3.76,11.04 -4.34,22.88 -4.87,34.54 -0.07,0.62 -0.11,1.25 -0.11,1.87 0,1.63 0.24,3.26 0.72,4.82 1.61,4.19 6.24,6.31 10.57,7.48 18.15,4.88 37.28,0.29 56,-1.39 18.37,-1.64 37.08,-0.45 55.08,-4.5 2.65,-0.5 5.24,-1.4 7.63,-2.65 4.56,-2.97 7.97,-7.41 9.64,-12.59 0.54,-1.32 0.91,-2.71 1.09,-4.13 0.59,-6.13 -4.75,-11.46 -10.57,-13.48 -5.82,-2.01 -12.16,-1.68 -18.28,-2.31 -25.9,-2.66 -46.83,-22.39 -50.99,-48.1 -0.22,-1.34 -30.3,-0.55 -33.47,1.19 -3.71,2.03 -5.95,7.11 -8.04,10.54 -3.38,5.54 -6.51,11.22 -9.38,17.04z"/>
   <path class="fil1" d="M327.04 2052.28c-1.92,3.76 -3.62,7.69 -5.02,11.68 -3.76,11.04 -4.33,22.88 -4.86,34.54 -0.07,0.62 -0.11,1.25 -0.11,1.87 0,1.63 0.24,3.26 0.72,4.82 1.61,4.19 6.24,6.31 10.57,7.48 18.15,4.88 37.28,0.29 56,-1.39 18.37,-1.64 37.08,-0.45 55.08,-4.5 2.66,-0.5 5.23,-1.4 7.63,-2.65 4.56,-2.97 7.97,-7.41 9.64,-12.59 0.54,-1.32 0.91,-2.71 1.09,-4.13 0.6,-6.13 -4.75,-11.46 -10.57,-13.47 -5.82,-2.02 -12.15,-1.69 -18.28,-2.32 -25.91,-2.66 -46.83,-22.39 -50.99,-48.1 -0.22,-1.34 -30.3,-0.55 -33.47,1.19 -3.71,2.03 -5.95,7.11 -8.04,10.54 -3.38,5.54 -6.5,11.22 -9.38,17.04z"/>
   <path class="fil7" d="M457.14 1755.34c0.39,60.41 -17.18,119.46 -37.79,176.24 -8.16,22.48 -16.81,44.76 -25.97,66.85 -5.42,13.09 -11.53,27.61 -5.72,40.53 -16.71,-6.36 -33.83,-10.12 -51.48,-7.18 6.72,-13.69 6.09,-29.63 6.39,-44.87 0.56,-20.66 2.85,-41.36 6.67,-61.67 5.85,-30.91 16.08,-60.98 30.14,-89.12 2.84,-5.91 4.83,-12.26 5.84,-18.77 0.62,-4.94 0.94,-9.98 0.94,-14.97 0,-9.55 -1.17,-19.13 -3.43,-28.41 -6.42,-31.37 -18.68,-61.39 -36.03,-88.31 -0.05,0.6 -0.11,1.21 -0.17,1.8 -1.06,8.96 -2.57,17.91 -4.53,26.72 -3.95,18.71 -8.55,37.43 -7.86,56.24 0.08,3.72 0.2,7.49 0.2,11.22 0,16.18 -1.33,32.47 -3.92,48.44 -0.99,7.72 -3.02,15.31 -5.98,22.52 -1.92,4.32 -4.44,8.39 -5.96,12.87 -1.5,5.18 -2.29,10.54 -2.34,15.94 -2.25,45.49 -0.04,103.7 9.26,148.29 -1.3,-0.05 -2.66,-0.09 -3.98,-0.09 -14.33,0 -28.45,3.56 -41.07,10.36 -11.24,-31.71 -18.4,-76.75 -23.75,-110.15 -2.51,-16.36 -3.79,-32.97 -3.79,-49.53 0,-23.25 2.51,-46.46 7.41,-69.15 2.09,-10.35 3.16,-20.89 3.16,-31.44 0,-2.71 -0.08,-5.45 -0.22,-8.14 -1.19,-26.41 -7.69,-52.25 -14.14,-77.89 -3.28,-13.01 -6.56,-26.03 -9.84,-39.05l-7.74 -50.35c-3.1,-12.33 -6.24,-24.94 -5.27,-37.63 0.67,-6.95 2.27,-13.8 4.36,-20.46 7.08,-22.52 10.88,-63.58 33.81,-69.13 52.42,-12.69 89.87,9.82 143.65,5.68 0.68,-0.12 1.39,-0.19 2.1,-0.19 1.94,0 4.02,0.28 5.52,1.5 2.02,1.64 2.62,4.36 3.06,6.93 6.45,38.22 35.43,84.3 42.16,122.47 3.24,15.9 5.43,32.17 5.75,48.38 0.31,16.21 -2.53,32.36 -1.92,48.55l-7.51 44.99z"/>
   <path class="fil9" d="M346.51 1687.45c-1.04,8.97 -2.55,17.92 -4.52,26.73 -11.72,-20.27 -24.34,-40.01 -35.13,-60.79 -2.78,-5.36 -5.43,-10.78 -8.09,-16.18 -2.66,-5.4 -5.32,-10.81 -7.97,-16.22 -1.48,-3.03 -2.98,-6.09 -4.32,-9.2 -2.18,-4.48 -3.88,-9.22 -5.01,-14.07 3.92,-0.72 13.59,9.86 16.49,12.62 5.93,5.86 11.61,12.09 16.86,18.57 6.33,7.18 12.23,14.88 17.5,22.9 6.75,10.97 11.55,23.05 14.19,35.64l0 0z"/>
   <path class="fil10" d="M391.39 1131.4c0,0 -29.93,47.66 -24.38,57.63 5.54,9.98 -94.22,-8.87 -94.22,-8.87 0,0 54.31,-47.66 48.77,-67.62 -5.54,-19.95 69.83,18.85 69.83,18.85z"/>
   <circle class="fil10" cx="364.79" cy="1078.19" r="67.61"/>
   <path class="fil3" d="M392.39 1181.37c-7.22,-10.06 -17.07,-18.01 -28.43,-22.95 -6.55,-2.34 -13.33,-4.02 -20.21,-4.99l-26.97 -4.74c-6.61,-1.16 -13.69,-2.27 -19.82,0.45 -3.12,1.58 -5.99,3.67 -8.44,6.18 -9.38,8.68 -18.46,18.23 -30.22,23.24 -3.22,1.37 -6.59,2.38 -9.8,3.76 -13.15,5.66 -22.99,17.49 -28.58,30.68 -5.86,13.83 -6.03,28.83 -5.57,43.84 0,0.06 0,0.15 0,0.22 0,5.1 0.51,10.21 1.52,15.22 1.36,4.82 3.08,9.57 5.11,14.15 3.72,9.77 6.88,19.82 9.35,29.97 6.99,26.76 12.8,53.79 17.43,81.08 0.4,3.92 1.56,7.74 3.4,11.22 2.6,3.47 5.75,6.49 9.32,8.96 2.83,2.34 5.46,4.94 7.82,7.75 1.15,1.19 2,2.66 2.47,4.26 0.87,4.03 -2.69,7.49 -5.59,10.44 -6,6.13 -10.36,13.71 -12.62,21.99 -1.31,1.56 -2.02,3.54 -2.02,5.58 0,0.16 0.01,0.33 0.02,0.49 0.45,1.19 0.68,2.45 0.68,3.73 0,0.35 -0.02,0.71 -0.05,1.06 -0.56,1.49 -1.42,2.83 -2.54,3.95 -2,2.6 -3.08,5.79 -3.08,9.08 0,0.96 0.09,1.92 0.27,2.87 20.95,9.1 43.4,14.37 66.21,15.51 5.59,0.26 11.2,0.26 16.75,0.95 3.96,0.49 7.87,1.32 11.84,1.78 3.96,0.35 7.96,0.55 11.93,0.55 1.79,0 3.65,-0.05 5.43,-0.11 30.09,-0.6 61.07,-1.38 88.71,-13.31 2.6,-14.17 -3.01,-28.62 -6.52,-42.59 -5.59,-22.23 -7.01,-45.27 -11.17,-67.81 -2.85,-15.42 -6.99,-30.6 -9.36,-46.11 -2.37,-15.51 -2.93,-31.59 1.34,-46.68 3.77,-13.38 4.92,-27 8.83,-40.34 3.92,-13.33 6.66,-27.79 2.24,-40.98 -5.49,-16.34 -22.45,-29.27 -39.66,-28.37z"/>
   <path class="fil7" d="M425.6 1042.35c3.29,-12.01 -3.18,-24.51 -10.91,-34.26 -8.32,-10.48 -19.05,-19.94 -32.17,-22.57 -10.66,-2.14 -21.7,0.44 -32.54,-0.42 -9.6,-0.76 -18.81,-4.21 -28.36,-5.44 -3.18,-0.34 -6.39,-0.51 -9.6,-0.51 -5.47,0 -10.95,0.5 -16.33,1.49 -8.11,1.18 -16.07,3.41 -23.63,6.6 -28.78,12.75 -45.64,44.25 -49.56,75.49 -3.92,31.24 2.94,62.71 9.77,93.44l6.17 27.78c6.41,28.92 12.85,57.98 14.57,87.55 1.72,29.57 -1.49,59.92 -13.65,86.93 39.31,-21.11 69.81,-55.65 85.9,-97.26 4.37,-11.43 7.61,-23.3 12.46,-34.54 4.17,-9.67 9.51,-18.83 13.2,-28.7 3.91,-10.45 5.93,-21.56 5.93,-32.73 0,-0.71 -0.02,-1.45 -0.03,-2.15 -0.21,-8.94 -1.71,-17.83 -1.44,-26.77 0.26,-8.94 2.53,-18.26 8.71,-24.72 5.49,-5.75 13.29,-8.51 20.37,-12.12 11.12,-5.72 20.86,-13.84 28.47,-23.75 4.46,-5.81 4.69,-8.28 5.83,-14.98 1.1,-6.51 5.11,-12.03 6.85,-18.36z"/>
   <path class="fil10" d="M425.69 1550.3c0.69,6.95 -0.58,14.07 0.95,20.89 1.14,5.13 3.8,9.78 5.36,14.79 1.54,5.8 2.36,11.8 2.37,17.8 0.23,5.04 -0.16,11.17 -4.62,13.54 -1.96,1.04 -4.31,1.06 -6.34,1.92 -2.04,0.87 -3.79,3.34 -2.62,5.23 0.98,1.59 3.21,1.6 5.04,1.98 1.82,0.38 3.83,2.26 2.77,3.8 -0.42,0.5 -0.99,0.86 -1.62,1.03 -1.87,0.56 -3.64,1.42 -5.24,2.52 -1.39,0.99 -2.22,2.59 -2.22,4.3 0,0.26 0.02,0.53 0.06,0.79 0.33,1.42 1.6,2.42 3.06,2.42 0.5,0 0.99,-0.12 1.44,-0.35 -0.81,1.75 -1.27,3.65 -1.31,5.57 7.13,3.07 15.16,-0.94 21.88,-4.84 2.91,-1.61 5.74,-3.4 8.42,-5.36 10.27,-7.94 16.3,-20.2 16.3,-33.19 0,-0.82 -0.03,-1.67 -0.08,-2.5 -0.29,-3.42 -0.84,-6.85 -1.57,-10.21 -1.04,-5.83 -2.43,-11.65 -4.11,-17.34 -1.92,-6.01 -4.56,-11.76 -6.82,-17.65 -4.82,-12.55 -7.93,-25.68 -12.27,-38.41 -0.24,-2.26 -2.15,-3.99 -4.42,-3.99 -0.26,0 -0.53,0.02 -0.78,0.07 -0.88,-0.05 -1.77,-0.07 -2.65,-0.07 -4.01,0 -8.02,0.47 -11.91,1.41 -2.88,0.84 -7.6,2.69 -8.89,5.7 -1.16,2.72 0.78,5.15 2.02,7.48 4.05,6.96 6.71,14.67 7.82,22.64z"/>
   <path class="fil9" d="M421.11 1210.62c1.44,1.46 2.65,3.15 3.58,4.98 9.61,17.46 9.73,38.36 10.18,58.28 0.51,22.43 1.74,44.83 2.97,67.23l3.67 66.99c0.35,6.4 0.7,12.81 1.6,19.16 4.32,1.09 4.5,6.67 4,11.09 -3.09,27.33 -10.78,55.48 -2.73,81.78 0.31,1.35 0.96,2.61 1.89,3.64 -2.11,-0.66 -4.32,-1 -6.53,-1 -2.01,0 -4.03,0.29 -5.96,0.84 -4.02,0.85 -7.88,2.32 -11.87,3.23 -5.09,1.16 -10.87,1.66 -14.34,5.56 -3.9,-11.8 -7.09,-23.94 -9.36,-36.15 -1.91,-11.12 -2.43,-22.69 -6.96,-33.03 -1.83,-4.17 -4.28,-8.04 -6.51,-12.02 -11.74,-20.91 -17.48,-44.55 -23.1,-67.86 -1.63,-7.2 -2.47,-14.6 -2.47,-22 0,-3.91 0.23,-7.82 0.69,-11.69 0.79,-5.13 1.27,-10.34 1.4,-15.51 -0.34,-5.47 -1.07,-10.95 -2.14,-16.33 -0.8,-5.38 -1.22,-10.84 -1.22,-16.28 0,-10.48 1.52,-20.93 4.47,-30.98 4.21,-14.23 7.89,-29.21 16.69,-41.17 8.8,-11.96 27.22,-18.55 42.06,-18.75z"/>
   <path class="fil3" d="M424.44 1208.4c1.44,1.46 2.65,3.15 3.58,4.98 9.61,17.46 9.73,38.36 10.18,58.28 0.51,22.43 1.73,44.83 2.96,67.23l3.67 66.98c0.35,6.4 0.7,12.81 1.6,19.16 4.32,1.09 4.5,6.67 4,11.09 -3.09,27.34 -10.78,55.48 -2.73,81.79 0.31,1.35 0.96,2.61 1.89,3.64 -2.11,-0.67 -4.32,-1 -6.53,-1 -2.01,0 -4.03,0.28 -5.96,0.84 -4.02,0.85 -7.88,2.32 -11.87,3.23 -5.09,1.16 -10.87,1.65 -14.34,5.55 -3.9,-11.79 -7.09,-23.93 -9.36,-36.15 -1.91,-11.12 -2.43,-22.69 -6.96,-33.02 -1.83,-4.17 -4.28,-8.04 -6.51,-12.02 -11.74,-20.91 -17.48,-44.55 -23.1,-67.87 -1.63,-7.2 -2.47,-14.59 -2.47,-22 0,-3.9 0.23,-7.82 0.69,-11.68 0.79,-5.13 1.27,-10.34 1.4,-15.52 -0.34,-5.47 -1.07,-10.95 -2.15,-16.33 -0.8,-5.38 -1.22,-10.84 -1.22,-16.27 0,-10.48 1.52,-20.93 4.47,-30.98 4.21,-14.24 7.89,-29.21 16.69,-41.17 8.8,-11.95 27.22,-18.54 42.06,-18.74z"/>
   <path class="fil11" d="M414.68 1008.09c-8.31,-10.48 -19.05,-19.94 -32.16,-22.57 -10.66,-2.14 -21.7,0.44 -32.54,-0.42 -9.61,-0.76 -18.81,-4.21 -28.37,-5.44 -3.17,-0.34 -6.39,-0.52 -9.59,-0.52 -5.47,0 -10.95,0.51 -16.33,1.49 -8.11,1.19 -16.07,3.42 -23.63,6.6 -4.08,1.82 -7.99,4.04 -11.65,6.61 6.74,-2.55 13.75,-4.38 20.87,-5.44 5.38,-1 10.86,-1.5 16.33,-1.5 3.2,0 6.42,0.17 9.6,0.51 9.55,1.24 18.76,4.68 28.37,5.45 10.83,0.86 21.88,-1.72 32.53,0.41 13.12,2.63 23.86,12.09 32.17,22.57 7.74,9.75 14.2,22.25 10.91,34.26 -1.73,6.32 -5.74,11.84 -6.85,18.36 -1.13,6.69 -1.37,9.17 -5.83,14.98 -5.74,7.45 -12.69,13.93 -20.54,19.11 2.17,-1.03 4.35,-2.04 6.47,-3.12 11.12,-5.72 20.86,-13.84 28.47,-23.75 4.46,-5.81 4.69,-8.28 5.83,-14.98 1.11,-6.51 5.11,-12.03 6.85,-18.36 3.29,-12.01 -3.18,-24.51 -10.92,-34.26z"/>
   <path class="fil11" d="M364.08 1111.56c1.16,-1.2 2.43,-2.3 3.79,-3.28 -6.46,3.13 -13.26,5.88 -18.19,11.04 -6.18,6.46 -8.45,15.79 -8.71,24.72 -0.26,8.94 1.23,17.84 1.44,26.77 0.01,0.69 0.02,1.44 0.02,2.14 0,11.17 -2.02,22.29 -5.92,32.74 -3.7,9.87 -9.03,19.03 -13.2,28.7 -4.85,11.25 -8.08,23.11 -12.46,34.54 -13.94,36.05 -38.81,66.98 -71.02,88.38 -0.16,0.37 -0.31,0.75 -0.48,1.12 39.31,-21.11 69.81,-55.65 85.9,-97.26 4.37,-11.43 7.61,-23.3 12.46,-34.54 4.17,-9.67 9.51,-18.83 13.2,-28.7 3.91,-10.45 5.93,-21.56 5.93,-32.73 0,-0.71 -0.02,-1.45 -0.03,-2.15 -0.21,-8.94 -1.7,-17.83 -1.44,-26.77 0.26,-8.94 2.53,-18.26 8.71,-24.72z"/>
   <path class="fil7" d="M1848.98 2105.34c-3.22,3.89 -8.73,4.67 -13.71,5.18 -3.71,0.53 -7.46,0.8 -11.21,0.8 -2.74,0 -5.52,-0.15 -8.24,-0.44 -7.69,-1.14 -12.3,3.23 -19.32,-0.13 -4.25,-2.04 -10.79,2.04 -15.04,0 -5.83,-2.79 -25.94,-3.37 -29.49,-8.81 -3.55,-5.44 -3.18,-14.04 2.42,-17.25 1.59,-0.75 3.24,-1.4 4.91,-1.92 9.39,-3.74 28.41,-31.92 38.4,-33.36 0.41,-0.02 0.82,-0.03 1.24,-0.03 4.54,0 9.01,1.16 12.97,3.37 9.85,4.37 27.24,7.82 31.54,18.92 3.35,8.64 12.51,25.21 5.55,33.66z"/>
   <path class="fil7" d="M1919.73 2103.11c3.22,3.89 8.73,4.66 13.72,5.18 3.7,0.53 7.45,0.81 11.2,0.81 2.75,0 5.52,-0.15 8.25,-0.44 7.69,-1.15 17.06,5.46 24.08,2.09 4.25,-2.04 10.79,-0.97 15.04,-3.01 5.83,-2.79 33.21,3.43 36.76,-2.01 3.55,-5.44 3.19,-14.04 -2.42,-17.25 -1.58,-0.75 -3.24,-1.4 -4.91,-1.92 -9.39,-3.74 -40.44,-37.94 -50.42,-39.38 -0.41,-0.02 -0.82,-0.03 -1.24,-0.03 -4.54,0 -9.01,1.16 -12.97,3.37 -9.85,4.37 -27.24,7.82 -31.54,18.92 -3.35,8.65 -12.51,25.21 -5.55,33.66z"/>
   <path class="fil7" d="M1950.83 1488.87c3.07,5.88 5.78,12.05 8.04,18.29 27.31,72.24 29.6,151.19 30.72,228.41 -0.01,0.71 -0.01,1.46 -0.01,2.17 0,11.82 0.75,23.68 2.17,35.39 1.15,7.9 2.95,15.89 1.79,23.79 -1.01,6.83 -4.22,13.57 -2.94,20.35 0.58,3.05 2.04,5.86 2.61,8.91 0.16,1.37 0.26,2.78 0.26,4.17 0,1.97 -0.19,3.93 -0.55,5.86l-3.66 27.24c-2.09,15.52 -6.9,30.46 -6.64,46.12 0.17,10.68 0.35,21.38 1.54,31.99 1.21,10.78 3.46,21.47 3.57,32.31 0.08,8.12 -1.03,16.2 -1.74,24.29 -0.65,7.36 -0.98,14.81 -0.98,22.2 0,4.04 0.12,8.15 0.31,12.17 0.43,8.83 1.44,17.99 6.12,25.49 -5.24,7.52 -10.44,14.25 -18.83,17.94 -17.06,7.48 -36.64,4.94 -55.08,2.26 1.03,-3.4 2.6,-7.25 1.13,-10.49 -0.88,-1.56 -1.95,-3.02 -3.18,-4.31 -4.02,-5.72 -6.83,-12.22 -8.21,-19.08 -2.23,-8.13 -4.46,-16.89 0.12,-24.69 1.35,-2.37 2.06,-5.06 2.06,-7.79 0,-0.46 -0.02,-0.92 -0.06,-1.37 -3.82,-51.21 -15.21,-104.19 -4.72,-154.45 1.12,-5.37 2.45,-10.7 3.08,-16.14 0.34,-4.66 0.51,-9.41 0.51,-14.1 0,-3.14 -0.07,-6.33 -0.22,-9.44l-0.22 -10.92c-0.55,-11.65 -0.07,-23.59 -2.41,-35.11 -1.67,-8.25 -4.8,-16.54 -0.95,-24.96 0.74,-1.71 1.13,-3.58 1.13,-5.47 0,-2.32 -0.59,-4.61 -1.71,-6.64 -8.09,-14.16 -14.65,-29.26 -19.43,-44.85 -0.98,-4.35 -2.37,-8.64 -4.08,-12.76 -2.34,-4.33 -5.06,-8.52 -8.07,-12.42 -9.14,-13.25 -14.6,-28.62 -19.96,-43.8 0.57,-1.39 0.13,-3.33 -1.36,-3.13 -1.48,0.39 -2.74,1.33 -3.52,2.64 -7.34,9.88 -7.96,23.05 -8.3,35.35 -0.18,4.21 -0.31,8.48 -0.31,12.71 0,7.2 0.32,14.43 0.89,21.59 0.63,5.98 1.67,11.91 2.21,17.9 0.27,4.42 0.42,8.95 0.42,13.39 0,6.71 -0.34,13.45 -0.96,20.11l-3.75 54.82c-0.16,1.48 -0.24,2.97 -0.24,4.46 0,3.06 0.35,6.13 1.06,9.11 2.31,7.35 3.48,15.03 3.48,22.75 0,0.32 -0.01,0.69 -0.01,1 -0.08,4.18 -0.19,8.51 -0.19,12.74 0,28.83 2.98,57.76 8.72,85.96 1.83,8.96 3.95,17.87 5.5,26.88 3.66,21.24 4.17,42.88 4.66,64.42 0.3,13.25 0.52,26.97 -4.7,39.16 -2.04,3.73 -3.54,7.76 -4.45,11.93 -0.02,2.15 -0.31,4.29 -0.85,6.38 -1.53,3.94 -6.13,5.62 -10.26,6.52 -5.8,1.26 -11.74,1.9 -17.68,1.9 -1.99,0 -4,-0.07 -5.98,-0.21 -1.86,-0.04 -3.7,-0.44 -5.4,-1.21 -2.96,-1.53 -4.53,-4.77 -6.77,-7.23 -4.85,-5.3 -12.91,-6.92 -17.33,-12.58 -5.53,-7.08 -3.2,-17.34 0.08,-25.7 3.29,-8.35 7.36,-17.43 4.53,-25.95 -3.34,-10.05 -15.16,-15.45 -18.34,-25.55 9.06,-40.72 -13.19,-82.84 -11.29,-124.52 0.44,-9.71 2.13,-19.34 2.16,-29.06 0.08,-25.03 -10.75,-49.39 -8.97,-74.36 4.53,-63.45 -17.08,-126.78 -26.23,-189.73 -1.37,-7.44 -2.07,-15.03 -2.07,-22.61 0,-1.96 0.05,-3.95 0.14,-5.9 1.36,-15.76 8.68,-30.42 17.47,-43.57 6.31,-9.42 13.88,-18.63 24.33,-23.04 8.6,-3.63 18.23,-3.61 27.56,-3.54 23.28,0.19 46.56,0.36 69.84,0.78 1.05,0.01 2.17,-0.02 3.24,-0.02 14.76,0 29.51,1.43 43.99,4.23 12.58,2.89 24.36,8.77 37.15,10.6z"/>
   <path class="fil12" d="M1574.68 1199.62c-2.25,-11.04 2.01,-22.85 -1.33,-33.6 -1.2,-3.88 -4.16,-7.91 -8.21,-7.8 -3.95,0.11 -6.62,3.97 -10.11,5.8 -5.64,2.95 -12.48,0.27 -18.12,-2.69 -5.64,-2.96 -11.92,-6.3 -18.02,-4.53 -0.72,3.83 1.86,7.48 4.67,10.17 3.11,2.35 5.69,5.34 7.57,8.77 0.72,2.96 1.1,6 1.1,9.05 0,0.76 -0.03,1.53 -0.07,2.29 0.64,8.74 6.18,16.27 11.71,23.07 8.85,10.88 18.46,21.5 28.37,31.46 -0.02,-0.02 15.14,-18.77 14.85,-22.05 -0.27,-3.09 -5.38,-5.98 -7.23,-8.47 -2.54,-3.41 -4.31,-7.33 -5.18,-11.47l0 0.01z"/>
   <path class="fil12" d="M2026.09 1430.64c1.34,3.5 2.37,7.14 3.02,10.83 3.91,18.95 6.38,38.17 8.81,57.37 0.65,5.12 1.3,10.26 1.5,15.42 0.06,1.31 0.11,2.64 0.11,3.95 0,10.93 -2.55,21.74 -7.43,31.51 -5.57,11 -15.05,19.54 -26.57,23.94 -3.55,1.26 -8.52,1.49 -10.07,-1.94 -0.26,-0.77 -0.4,-1.58 -0.4,-2.4 0,-0.85 0.15,-1.7 0.44,-2.5 1.4,-5.11 4.26,-9.7 6.11,-14.67 1.62,-4.39 2.46,-9.05 2.46,-13.74 0,-3.18 -0.39,-6.36 -1.15,-9.45 -0.73,-2.93 -2.27,-6.21 -5.23,-6.8 0.4,1.85 0.61,3.74 0.61,5.63 0,4.99 -1.42,9.88 -4.08,14.1 -0.85,1.63 -2.3,2.87 -4.05,3.43 -0.18,0.02 -0.36,0.03 -0.54,0.03 -2.34,0 -4.42,-1.5 -5.17,-3.71 -0.45,-1.49 -0.69,-3.05 -0.69,-4.61 0,-0.9 0.08,-1.8 0.23,-2.69 0.93,-12.29 2.82,-24.59 5.6,-36.59 3.31,-13.21 8.56,-26.25 8.22,-39.86 -0.31,-12.33 -5.22,-24.45 -3.84,-36.71 0.03,-0.75 0.27,-1.48 0.71,-2.1 0.43,-0.43 0.96,-0.76 1.54,-0.95 3.44,-1.42 7,-2.61 10.6,-3.52 2.14,-0.53 9.43,-3.07 11.47,-1.94 1.66,0.91 2.17,6.41 3,8.27 1.46,3.29 3.42,6.35 4.81,9.68z"/>
   <circle class="fil12" cx="1782.63" cy="1014.78" r="50.38"/>
   <path class="fil12" d="M1827.77 1051.24c-0.01,0.03 -0.01,0.08 -0.01,0.11 0,3.17 0.26,6.34 0.77,9.47 0.69,3.19 1.68,6.34 2.93,9.37 1.68,4.92 4.06,9.6 7.05,13.84 3.05,4.28 7.61,7.25 12.75,8.31 -34.37,16.13 -71.25,26.8 -108.94,31.5 5.95,-3.96 10.9,-9.25 14.45,-15.44 1.89,-3.97 3.18,-8.21 3.83,-12.56 1.05,-6.04 1.61,-12.19 1.61,-18.33 0,-12.27 -2.15,-24.48 -6.33,-36.01 -0.62,-1.71 -1.24,-3.82 -0.05,-5.2 0.5,-0.51 1.11,-0.91 1.78,-1.16 13.86,-5.86 28.75,-8.89 43.8,-8.89 1.18,0 2.4,0.03 3.56,0.05 4.15,0.03 8.3,0.21 12.44,0.51 2.23,0.16 7.14,-0.31 8.91,1.32 2.11,1.95 1.05,7.99 1.12,10.63l0.31 12.48z"/>
   <path class="fil13" d="M1854.42 1087.89c-10.22,-13.1 -25.9,-20.75 -42.51,-20.75 -7.57,0 -15.07,1.6 -21.98,4.68 -23.98,11.45 -35.78,38.93 -56.87,55.1 -4.77,3.58 -9.93,6.75 -15.27,9.42 -3.16,1.73 -6.55,3.08 -10.05,3.97 -3.94,0.87 -8.06,0.75 -11.98,1.69 -7.48,2.19 -13.85,7.14 -17.83,13.84 -1.96,3.48 -4.18,6.89 -6.56,10.11 -2.2,2.61 -4.94,4.73 -7.27,7.23 -8.39,9.01 -10.66,21.95 -12.58,34.11 -6.55,6.9 -13.73,13.23 -21.4,18.87 -2.41,1.85 -5.09,3.33 -7.94,4.39 -7.38,2.39 -15.51,-0.65 -21.8,-5.19 -6.29,-4.54 -11.41,-10.53 -17.61,-15.2 -5.69,8.15 -11.65,16.32 -17.72,24.18 -0.92,1.5 -2.32,2.64 -3.97,3.25 -1.14,3.84 1.6,7.81 3.64,11.25l10.99 18.46c3.63,6.71 8.09,12.96 13.26,18.58 5.24,5.64 12.42,9.14 20.1,9.78 4.85,-0.04 9.65,-0.97 14.17,-2.72 20.93,-7.04 40.15,-18.27 60.06,-27.83 3.61,-2.06 7.66,-3.25 11.8,-3.46 0.08,0 0.17,0 0.25,0 4.17,0 7.85,2.72 9.07,6.71 2.28,11.54 4.55,23.03 7.69,34.35 2.96,10.69 5.72,21.43 8.25,32.22 1.69,6.58 2.93,13.35 3.63,20.11 0.33,3.85 0.36,7.72 0.4,11.58l0.42 46.7c0.05,5.03 -2.82,8.16 -5.03,12.68 -1.96,4.04 -2.97,8.48 -2.97,12.97 0,3.22 0.52,6.43 1.54,9.48 1.24,3.64 3.18,7.01 4.55,10.6 3.32,8.69 3.19,18.26 3.02,27.56l-0.4 21.31c-0.02,0.17 -0.03,0.34 -0.03,0.52 0,0.71 0.17,1.41 0.49,2.05 1.3,2.04 4.44,0.85 6.42,-0.53l9.96 -6.91c10.26,1.41 20.68,2.13 31.06,2.13 3.05,0 6.16,-0.08 9.19,-0.19 38.25,-0.56 76.5,0.97 114.66,3.64 12.73,0.89 25.89,1.86 37.92,-2.39 6.11,-2.16 11.73,-5.6 17.98,-7.33 2.57,-0.39 5.02,-1.4 7.13,-2.93 3.49,-3.23 2.56,-8.9 1.14,-13.44 -1.25,-3.97 -2.66,-7.88 -4.25,-11.74 -1.63,-3.54 -2.97,-7.23 -3.98,-10.99 -1.91,-8.5 -0.05,-18.33 -5.35,-25.25 -11.85,-15.5 -3.46,-39.34 -8.43,-58.2 -1.61,-6.1 -3.99,-11.99 -5.49,-18.11 -0.95,-3.85 -1.54,-7.77 -2.14,-11.68 -1.52,-8.35 -2.31,-16.84 -2.31,-25.33 0,-0.1 0,-0.25 0,-0.36 0.15,-4.31 0.69,-8.59 1.23,-12.87l3.76 -29.71c4.71,8.78 7.98,18.29 9.68,28.09 3.43,14.66 7.65,29.15 12.64,43.34 2.84,8.57 5.68,17.14 8.74,25.63 1.93,4.82 3.44,9.84 4.46,14.93 0.68,4.12 0.7,8.32 1.17,12.46 1.04,8.88 4.15,17.41 9.08,24.87 0.91,1.73 2.42,3.07 4.25,3.77 0.5,0.09 1.01,0.14 1.52,0.14 0.74,0 1.48,-0.1 2.19,-0.29 13.29,-2.62 26.19,-7.1 38.25,-13.24 2.57,-1.06 4.81,-2.8 6.46,-5.04 3.25,-5.29 -0.38,-11.89 -1.96,-17.89 -1.7,-6.43 -1.3,-14.17 -6.37,-18.48 -17.64,-15.01 -8.89,-45.49 -17.72,-66.91 -1.55,-3.76 -3.36,-7.42 -4.69,-11.26 -1.03,-2.93 -1.77,-5.96 -2.51,-8.98 -6.16,-24.94 -12.76,-49.77 -19.78,-74.5 -7.29,-25.63 -6.51,-52.33 -15.69,-77.35 -1.72,-5.24 -3.98,-10.3 -6.72,-15.08 -3.11,-5.01 -7.27,-9.28 -12.17,-12.53 -13.32,-8.81 -26.76,-16.31 -42.4,-19.5 -15.64,-3.19 -32.57,-2.7 -48.54,-2.63z"/>
   <path class="fil7" d="M1736.85 1027.11c-6.77,-3.65 -4.99,-13.55 -6.14,-21.16 -2.37,-15.64 -20.05,-24.93 -24.2,-40.2 1.1,0.14 2.22,0.21 3.33,0.21 3.67,0 7.32,-0.75 10.71,-2.19 0.2,-1.17 0.29,-2.36 0.29,-3.55 0,-3.92 -1.08,-7.77 -3.12,-11.12 14.54,-5.91 26.31,-17.5 41.08,-22.83 18.57,-6.69 39.25,-2.59 57.98,3.64 9.35,3.1 19.08,7.14 24.72,15.21 6.21,8.86 6.11,20.52 5.78,31.33 -0.52,16.96 -1.19,34.52 -8.74,49.72 -9.61,19.35 -36.83,37.26 -59.32,32.02 -9.35,-2.18 -12.11,-8.05 -16.05,-16.18 -2.45,-5.06 -3.38,-10.93 -8.9,-13.56 -5.4,-2.57 -11.94,1.61 -17.42,-1.34z"/>
   <path class="fil11" d="M1941.13 1388.32c0.06,1.34 0.1,2.68 0.11,4.04 -0.06,-1.34 -0.1,-2.69 -0.11,-4.04z"/>
   <path class="fil9" d="M1722.93 1438.92c3.32,8.69 3.19,18.26 3.02,27.56 -0.05,2.43 -0.09,4.85 -0.14,7.29 -0.21,-5.02 -1.18,-9.97 -2.88,-14.69 -1.37,-3.6 -3.31,-6.96 -4.55,-10.61 -1.02,-3.05 -1.54,-6.26 -1.54,-9.47 0,-3.44 0.6,-6.87 1.76,-10.11 1.24,3.43 3.03,6.63 4.33,10.03z"/>
   <path class="fil11" d="M1720.54 956.44l-0.05 0.02c-0.45,-2.61 -1.4,-5.11 -2.78,-7.36 0.85,-0.34 1.7,-0.71 2.53,-1.1 0.39,1.62 0.58,3.28 0.58,4.94 0,1.17 -0.1,2.35 -0.29,3.5l0.01 0z"/>
   <path class="fil6" d="M133.01 853.74l-11.87 -10.71c-42.16,-38.71 -70,-63.84 -70,-95.14 0,-0.25 -0.01,-0.52 -0.01,-0.78 0,-24.59 19.94,-44.52 44.53,-44.52 0.17,0 0.35,0.01 0.51,0.01 14.23,0.06 27.71,6.4 36.85,17.29 9.14,-10.89 22.63,-17.23 36.85,-17.3 0.16,0.01 0.34,0 0.51,0 24.59,0 44.53,19.94 44.53,44.52 0,0.26 -0.01,0.53 -0.01,0.79 0,31.3 -27.84,56.42 -70,95.14l-11.87 10.71z"/>
   <g>
    <path class="fil2" d="M144.21 813.72l11.87 10.71 -4.03 4.46 -11.87 -10.71 -0.02 -0.02 4.05 -4.45zm-4.03 4.46l-0.02 -0.02 -0.2 -0.19 0.22 0.2zm-71 -97.37l6.02 0 0 0 0.07 2.75 0.23 2.71 0.38 2.7 0.52 2.68 0.67 2.65 0.81 2.64 0.96 2.64 1.1 2.64 1.25 2.64 1.38 2.65 1.52 2.66 1.65 2.66 1.79 2.69 1.93 2.71 2.06 2.73 2.18 2.75 2.32 2.79 2.43 2.81 2.56 2.84 2.68 2.89 2.8 2.92 2.91 2.97 3.02 3.02 3.13 3.07 3.24 3.12 3.35 3.17 3.44 3.24 3.54 3.29 3.64 3.37 3.73 3.44 3.82 3.52 3.91 3.59 -4.07 4.43 -3.91 -3.59 -3.82 -3.52 -3.74 -3.45 -3.65 -3.38 -3.56 -3.32 -3.46 -3.25 -3.37 -3.2 -3.27 -3.15 -3.17 -3.1 -3.07 -3.06 -2.96 -3.02 -2.85 -2.98 -2.74 -2.95 -2.63 -2.92 -2.52 -2.9 -2.4 -2.88 -2.28 -2.87 -2.15 -2.86 -2.02 -2.84 -1.9 -2.84 -1.77 -2.84 -1.63 -2.85 -1.5 -2.86 -1.35 -2.88 -1.21 -2.89 -1.06 -2.91 -0.9 -2.93 -0.75 -2.96 -0.59 -2.99 -0.42 -3.01 -0.26 -3.05 -0.08 -3.09 0 0zm-0.01 -0.78l6.02 0 0 0 0 0.03 0 0.02 0 0.03 0 0.02 0 0.03 0 0.02 0 0.03 0 0.03 0 0.02 -0.02 -0.27 0.01 0.03 0.02 0.33 0 0.02 0 0.03 0 0.03 0 0.02 0 0.03 0 0.03 0 0.02 0 0.03 -0.02 -0.27 0.01 -0.01 0.02 0.35 0 0.03 0 0.02 0 0.03 0 0.03 0 0.02 0 0.03 0 0.02 0 0.03 0 0.02 -6.02 0 0 -0.02 0 -0.03 0 -0.02 0 -0.03 0 -0.02 0 -0.03 0 -0.03 0 -0.02 0 -0.03 0.02 0.31 -0.01 -0.06 -0.02 -0.33 0 -0.03 0 -0.02 0 -0.03 0 -0.03 0 -0.02 0 -0.03 0 -0.03 0 -0.02 0.02 0.27 -0.01 -0.03 -0.02 -0.33 0 -0.02 0 -0.03 0 -0.03 0 -0.02 0 -0.03 0 -0.02 0 -0.03 0 -0.02 0 -0.03 0 0zm47.54 -47.54l0 6.02 0 0 -2.14 0.05 -2.11 0.16 -2.07 0.26 -2.05 0.36 -2 0.47 -1.97 0.56 -1.93 0.65 -1.88 0.75 -1.84 0.83 -1.79 0.92 -1.74 0.99 -1.68 1.08 -1.63 1.16 -1.58 1.23 -1.5 1.31 -1.45 1.38 -1.37 1.43 -1.3 1.51 -1.23 1.57 -1.16 1.63 -1.08 1.68 -1 1.74 -0.92 1.79 -0.83 1.84 -0.75 1.88 -0.65 1.94 -0.56 1.97 -0.47 2.01 -0.36 2.04 -0.26 2.08 -0.16 2.11 -0.05 2.14 -6.02 0 0.06 -2.44 0.18 -2.42 0.31 -2.38 0.42 -2.34 0.53 -2.31 0.65 -2.25 0.75 -2.21 0.85 -2.16 0.96 -2.1 1.05 -2.05 1.15 -1.99 1.24 -1.94 1.32 -1.86 1.41 -1.79 1.49 -1.72 1.58 -1.65 1.65 -1.57 1.72 -1.5 1.8 -1.41 1.86 -1.32 1.93 -1.24 1.99 -1.14 2.05 -1.05 2.1 -0.96 2.17 -0.85 2.2 -0.75 2.26 -0.65 2.3 -0.53 2.34 -0.42 2.38 -0.31 2.42 -0.18 2.44 -0.06 0 0zm0.53 0.01l-0.03 6.02 0.02 0 -0.02 0 -0.02 0 -0.02 0 -0.02 0 -0.02 0 -0.02 0 -0.02 0 -0.02 0 -0.02 0 -0.02 0 -0.02 0 -0.02 0 -0.02 0 -0.02 0 -0.51 -0.04 -0.02 -0.01 0.48 0.04 -0.02 0 -0.02 0 -0.02 0 -0.02 0 -0.02 0 -0.02 0 -0.02 0 -0.02 0 -0.02 0 -0.02 0 -0.02 0 -0.02 0 -0.02 0 -0.02 0 -0.02 0 0 -6.02 0.02 0 0.02 0 0.02 0 0.02 0 0.02 0 0.02 0 0.02 0 0.02 0 0.02 0 0.02 0 0.02 0 0.02 0 0.02 0 0.02 0 0.02 0 0.51 0.04 0.02 0.01 -0.48 -0.04 0.02 0 0.02 0 0.02 0 0.02 0 0.02 0 0.02 0 0.02 0 0.02 0 0.02 0 0.02 0 0.02 0 0.02 0 0.02 0 0.02 0 0.02 0zm-0.02 0l0.02 0 0 0 -0.02 0zm34.54 18.37l4.61 3.87 -4.61 0 -0.81 -0.95 -0.84 -0.91 -0.87 -0.9 -0.88 -0.87 -0.91 -0.84 -0.93 -0.82 -0.94 -0.79 -0.97 -0.76 -0.98 -0.73 -1 -0.7 -1.03 -0.68 -1.04 -0.65 -1.05 -0.62 -1.07 -0.59 -1.09 -0.57 -1.09 -0.53 -1.12 -0.5 -1.13 -0.48 -1.14 -0.44 -1.15 -0.41 -1.16 -0.38 -1.17 -0.35 -1.19 -0.32 -1.18 -0.29 -1.21 -0.26 -1.21 -0.22 -1.22 -0.19 -1.23 -0.16 -1.24 -0.12 -1.23 -0.1 -1.24 -0.05 -1.25 -0.03 0.03 -6.02 1.41 0.03 1.41 0.06 1.4 0.11 1.4 0.14 1.39 0.18 1.38 0.21 1.37 0.25 1.36 0.29 1.35 0.33 1.34 0.36 1.33 0.4 1.31 0.43 1.31 0.47 1.29 0.51 1.27 0.53 1.26 0.57 1.25 0.61 1.23 0.63 1.22 0.67 1.19 0.71 1.17 0.73 1.15 0.77 1.14 0.8 1.12 0.84 1.08 0.86 1.08 0.89 1.04 0.93 1.03 0.95 1 0.99 0.97 1 0.95 1.05 0.92 1.07 -4.61 0zm4.61 3.87l-2.31 2.75 -2.31 -2.75 4.61 0zm34.65 -22.25l-0.2 6.02 0.12 0 -1.25 0.03 -1.24 0.05 -1.23 0.1 -1.24 0.12 -1.22 0.16 -1.22 0.2 -1.21 0.22 -1.21 0.26 -1.2 0.29 -1.17 0.32 -1.17 0.35 -1.17 0.39 -1.15 0.41 -1.14 0.44 -1.13 0.47 -1.11 0.51 -1.1 0.53 -1.09 0.57 -1.07 0.59 -1.05 0.62 -1.04 0.65 -1.03 0.68 -1 0.7 -0.98 0.73 -0.96 0.76 -0.95 0.79 -0.93 0.82 -0.9 0.84 -0.88 0.87 -0.86 0.9 -0.85 0.91 -0.81 0.95 -4.61 -3.87 0.93 -1.07 0.95 -1.04 0.97 -1 1.01 -0.99 1.02 -0.95 1.05 -0.93 1.07 -0.89 1.09 -0.87 1.13 -0.84 1.13 -0.8 1.15 -0.77 1.17 -0.73 1.19 -0.71 1.22 -0.67 1.23 -0.63 1.25 -0.61 1.26 -0.57 1.27 -0.53 1.29 -0.51 1.31 -0.47 1.32 -0.44 1.33 -0.4 1.34 -0.36 1.35 -0.33 1.36 -0.29 1.37 -0.25 1.38 -0.22 1.39 -0.18 1.4 -0.14 1.4 -0.11 1.41 -0.06 1.41 -0.03 0.12 0zm-0.12 0l0.1 0 0.02 0 -0.12 0zm0.52 0l0 6.02 0 0 -0.02 0 -0.02 0 -0.02 0 -0.02 0 -0.02 0 -0.02 0 -0.02 0 -0.02 0 -0.02 0 -0.02 0 -0.02 0 -0.02 0 -0.02 0 -0.02 0 -0.02 0 -0.02 0 -0.02 0 -0.02 0 -0.02 0 -0.02 0 -0.02 0 -0.02 0 -0.02 0 -0.02 0 -0.02 0 -0.02 0 -0.02 0 -0.02 0 -0.01 0 -0.02 0 -0.02 0 -0.12 0 0.2 -6.02 -0.08 0 0.02 0 0.02 0 0.01 0 0.02 0 0.02 0 0.02 0 0.02 0 0.02 0 0.02 0 0.02 0 0.02 0 0.02 0 0.02 0 0.02 0 0.02 0 0.02 0 0.02 0 0.02 0 0.02 0 0.02 0 0.02 0 0.02 0 0.02 0 0.02 0 0.02 0 0.02 0 0.02 0 0.02 0 0.02 0 0.02 0 0.02 0 0 0zm47.54 47.54l-6.02 0 0 0 -0.05 -2.14 -0.16 -2.11 -0.26 -2.08 -0.36 -2.04 -0.47 -2.01 -0.56 -1.97 -0.65 -1.94 -0.75 -1.88 -0.83 -1.84 -0.92 -1.79 -1 -1.74 -1.07 -1.68 -1.16 -1.63 -1.23 -1.57 -1.31 -1.51 -1.37 -1.44 -1.44 -1.37 -1.51 -1.31 -1.57 -1.23 -1.63 -1.16 -1.68 -1.07 -1.74 -1 -1.79 -0.92 -1.84 -0.83 -1.88 -0.75 -1.94 -0.65 -1.97 -0.56 -2.01 -0.47 -2.04 -0.36 -2.08 -0.26 -2.11 -0.16 -2.14 -0.05 0 -6.02 2.44 0.06 2.42 0.18 2.38 0.31 2.34 0.42 2.31 0.53 2.25 0.65 2.21 0.75 2.16 0.85 2.1 0.96 2.05 1.05 1.99 1.14 1.94 1.24 1.86 1.32 1.79 1.41 1.73 1.5 1.64 1.58 1.58 1.64 1.5 1.73 1.41 1.79 1.32 1.86 1.24 1.94 1.14 1.99 1.05 2.05 0.96 2.1 0.85 2.16 0.75 2.21 0.65 2.25 0.53 2.31 0.42 2.34 0.31 2.38 0.18 2.42 0.06 2.44 0 0zm-0.01 0.78l-6.02 0 0 0 0 -0.02 0 -0.03 0 -0.02 0 -0.03 0 -0.02 0 -0.03 0 -0.03 0 -0.02 0 -0.03 0 -0.02 0 -0.03 0 -0.03 0 -0.03 0 -0.02 0.02 -0.33 0.01 -0.06 -0.02 0.31 0 -0.03 0 -0.03 0 -0.02 0 -0.03 0 -0.03 0 -0.03 0 -0.02 0 -0.03 0 -0.03 0 -0.02 0 -0.03 0 -0.02 0 -0.03 0 -0.02 0 -0.03 6.02 0 0 0.03 0 0.02 0 0.03 0 0.02 0 0.03 0 0.02 0 0.03 0 0.03 0 0.02 0 0.03 0 0.03 0 0.03 0 0.02 0 0.03 0 0.03 -0.02 0.35 -0.01 -0.01 0.02 -0.27 0 0.02 0 0.03 0 0.03 0 0.03 0 0.02 0 0.03 0 0.02 0 0.03 0 0.03 0 0.02 0 0.03 0 0.02 0 0.03 0 0.02 0 0zm-71 97.38l-4.03 -4.47 -0.02 0.02 3.91 -3.59 3.82 -3.52 3.73 -3.44 3.64 -3.37 3.54 -3.29 3.44 -3.24 3.35 -3.17 3.24 -3.12 3.13 -3.07 3.02 -3.02 2.91 -2.97 2.8 -2.92 2.68 -2.89 2.56 -2.85 2.44 -2.81 2.32 -2.78 2.18 -2.75 2.06 -2.73 1.93 -2.71 1.79 -2.69 1.65 -2.67 1.52 -2.66 1.38 -2.65 1.25 -2.64 1.1 -2.64 0.96 -2.64 0.81 -2.64 0.67 -2.65 0.52 -2.68 0.38 -2.7 0.23 -2.71 0.07 -2.75 6.02 0 -0.08 3.09 -0.26 3.05 -0.42 3.01 -0.59 2.99 -0.75 2.96 -0.9 2.94 -1.06 2.91 -1.21 2.89 -1.35 2.87 -1.5 2.86 -1.63 2.85 -1.76 2.85 -1.9 2.84 -2.02 2.84 -2.15 2.86 -2.28 2.87 -2.4 2.88 -2.51 2.9 -2.63 2.92 -2.74 2.95 -2.85 2.98 -2.96 3.02 -3.07 3.06 -3.17 3.1 -3.27 3.15 -3.37 3.2 -3.46 3.25 -3.56 3.32 -3.65 3.38 -3.74 3.45 -3.82 3.52 -3.91 3.59 -0.02 0.02zm0.02 -0.02l-0.02 0.02 -0.11 0.1 0.13 -0.12zm-15.92 6.25l11.87 -10.71 4.03 4.47 -11.87 10.71 -4.03 -0.01 0 -4.47zm4.03 4.47l-2.01 1.81 -2.01 -1.82 4.03 0.01z"/>
   </g>
  </g>
 </g>
</svg>
