<?xml version="1.0" encoding="UTF-8"?>
<!DOCTYPE svg PUBLIC "-//W3C//DTD SVG 1.1//EN" "http://www.w3.org/Graphics/SVG/1.1/DTD/svg11.dtd">
<!-- Creator: CorelDRAW 2021 (64-Bit) -->
<svg xmlns="http://www.w3.org/2000/svg" xml:space="preserve" width="1.41557in" height="1.37795in" version="1.1" style="shape-rendering:geometricPrecision; text-rendering:geometricPrecision; image-rendering:optimizeQuality; fill-rule:evenodd; clip-rule:evenodd"
viewBox="0 0 67.27 65.48"
 xmlns:xlink="http://www.w3.org/1999/xlink"
 xmlns:xodm="http://www.corel.com/coreldraw/odm/2003">
 <defs>
  <style type="text/css">
   <![CDATA[
    .fil5 {fill:#00C4B5;fill-rule:nonzero}
    .fil3 {fill:#2F2E41;fill-rule:nonzero}
    .fil2 {fill:#CCCCCC;fill-rule:nonzero}
    .fil0 {fill:#E6E6E6;fill-rule:nonzero}
    .fil7 {fill:#F2F2F2;fill-rule:nonzero}
    .fil4 {fill:#FFB6B6;fill-rule:nonzero}
    .fil6 {fill:#FFB8B8;fill-rule:nonzero}
    .fil1 {fill:white;fill-rule:nonzero}
   ]]>
  </style>
 </defs>
 <g id="Layer_x0020_1">
  <metadata id="CorelCorpID_0Corel-Layer"/>
  <g id="_2401675424192">
   <path class="fil0" d="M57.22 63.79c0.16,0.59 0.57,1.07 1.06,1.43 0.08,0.06 0.16,0.11 0.25,0.16 0.03,0.01 0.05,0.03 0.08,0.05 0.03,0.02 0.06,0.03 0.09,0.05l2.33 0c0.04,-0.08 0.08,-0.17 0.12,-0.26 1,-2.09 1.7,-4.35 1.58,-6.66 -0.05,-0.89 -0.24,-1.77 -0.56,-2.61 -0.64,-1.66 -1.8,-3.1 -3.41,-3.83 -0.04,-0.02 -0.08,-0.04 -0.12,-0.05 0.01,0.05 0.03,0.09 0.04,0.14 0.17,0.62 0.29,1.25 0.36,1.89 0.01,0.05 0.01,0.1 0.02,0.15 0.04,0.41 0.06,0.82 0.06,1.23 0,1.13 -0.16,2.27 -0.46,3.36 -0,0 -0,0.01 -0,0.01 -0.09,0.33 -0.2,0.66 -0.32,0.98 -0.09,0.25 -0.2,0.5 -0.31,0.75 -0.47,1.03 -1.09,2.13 -0.8,3.22z"/>
   <path class="fil1" d="M58.61 52.12c0.02,0.03 0.05,0.06 0.07,0.09 0.47,0.62 0.88,1.3 1.2,2.02 0.02,0.04 0.03,0.07 0.05,0.11 0.44,1 0.73,2.06 0.84,3.14 0,0.01 0,0.01 0,0.02 0.03,0.25 0.04,0.51 0.05,0.77 0,0.07 0.01,0.15 0.01,0.23 0,0.4 -0.05,0.81 -0.16,1.2 -0.11,0.38 -0.32,0.73 -0.59,1.01 -0.03,0.03 -0.05,0.06 -0.08,0.09 -0.02,0.02 -0.05,0.05 -0.07,0.07 -0.22,0.21 -0.45,0.4 -0.66,0.62 -0.09,0.1 -0.18,0.21 -0.25,0.32 -0.16,0.25 -0.24,0.54 -0.24,0.84 0,0.16 0.02,0.31 0.07,0.46 0.15,0.54 0.48,1 0.82,1.44 0.17,0.22 0.35,0.44 0.5,0.68 0.06,0.08 0.11,0.17 0.15,0.26l0.14 0c-0.05,-0.09 -0.09,-0.17 -0.15,-0.26 -0.39,-0.62 -0.95,-1.15 -1.24,-1.83 -0.2,-0.46 -0.25,-0.98 -0.01,-1.43 0.07,-0.13 0.16,-0.25 0.26,-0.36 0.2,-0.22 0.43,-0.41 0.65,-0.61 0.05,-0.05 0.11,-0.1 0.16,-0.16 0.27,-0.27 0.48,-0.6 0.61,-0.96 0.14,-0.42 0.21,-0.87 0.21,-1.31 0,-0.03 -0,-0.07 -0,-0.1 0,-0.31 -0.02,-0.61 -0.05,-0.92 -0,-0.04 -0.01,-0.08 -0.01,-0.12 -0.22,-1.92 -0.95,-3.75 -2.11,-5.29 -0.02,-0.03 -0.04,-0.06 -0.07,-0.09 -0.05,-0.06 -0.13,0.02 -0.08,0.08z"/>
   <path class="fil1" d="M60.83 57.54c0.77,-0.13 1.33,-0.79 1.33,-1.57 0,-0 0,-0 0,-0.01 -0,-0.03 -0.03,-0.06 -0.06,-0.06 -0.03,0 -0.06,0.02 -0.06,0.06 0,0 0,0.01 0,0.01 0,0.72 -0.52,1.34 -1.24,1.46 -0.08,0.01 -0.05,0.13 0.03,0.12l-0 0z"/>
   <path class="fil1" d="M60.1 60.72c-0.63,-0.44 -1.08,-1.11 -1.24,-1.86 -0.02,-0.07 -0.13,-0.05 -0.12,0.03 0.17,0.78 0.64,1.48 1.29,1.93 0.06,0.04 0.12,-0.06 0.06,-0.1l0 0z"/>
   <path class="fil1" d="M59.91 54.21c-0.1,0.04 -0.22,0.06 -0.33,0.06 -0.19,0 -0.37,-0.06 -0.52,-0.17 -0.06,-0.04 -0.12,0.06 -0.06,0.1 0.17,0.12 0.37,0.18 0.58,0.18 0.12,0 0.24,-0.02 0.36,-0.07 0.03,-0.01 0.04,-0.03 0.04,-0.06 0,-0 -0,-0.01 -0,-0.01 -0.01,-0.03 -0.03,-0.04 -0.06,-0.04 -0,0 -0.01,0 -0.01,0l0 0z"/>
   <path class="fil0" d="M50.54 56.27c0.04,0.03 0.08,0.06 0.11,0.09 0.51,0.39 0.99,0.82 1.43,1.29 0.03,0.04 0.07,0.07 0.1,0.11l0 0c1.04,1.13 1.87,2.45 2.44,3.89l0 0.01c0,0 0,0.01 0,0.01 0.22,0.57 0.41,1.17 0.54,1.76 0.13,0.59 0.24,1.22 0.44,1.78 0.03,0.09 0.07,0.17 0.1,0.26l4.78 0c-0.02,-0.08 -0.03,-0.17 -0.05,-0.26 -0.24,-1.24 -0.62,-2.46 -1.13,-3.62 -0.02,-0.04 -0.03,-0.08 -0.05,-0.12 -0.26,-0.57 -0.57,-1.13 -0.93,-1.65 -0,-0 -0,-0 -0,-0 0,-0 -0,-0 -0,-0 0,0 0,0 0,0 -0.19,-0.29 -0.4,-0.56 -0.62,-0.83 -0.57,-0.68 -1.26,-1.27 -2.01,-1.75 -0,-0 -0.01,-0.01 -0.01,-0.01 -1.51,-0.94 -3.3,-1.38 -5.01,-1l-0 0c-0.04,0.01 -0.09,0.02 -0.13,0.03z"/>
   <path class="fil1" d="M50.55 56.33c0.04,0.01 0.07,0.02 0.11,0.03 0.75,0.21 1.48,0.51 2.17,0.89 0.03,0.02 0.07,0.04 0.1,0.06 0.95,0.53 1.81,1.21 2.56,2 0,0 0,0 0,0 0.01,0.01 0.02,0.02 0.03,0.03 0.17,0.19 0.34,0.38 0.49,0.58 0.31,0.37 0.55,0.78 0.73,1.23 0.1,0.28 0.16,0.58 0.16,0.88 0,0.09 -0.01,0.19 -0.02,0.28 -0,0.04 -0.01,0.08 -0.01,0.12 -0,0.03 -0.01,0.06 -0.01,0.09 -0.07,0.43 -0.19,0.86 -0.16,1.3 0.04,0.46 0.28,0.87 0.65,1.14 0.12,0.1 0.26,0.18 0.4,0.25 0.2,0.1 0.41,0.19 0.62,0.26l0.42 0c-0.06,-0.02 -0.11,-0.03 -0.17,-0.05 -0.2,-0.06 -0.4,-0.13 -0.59,-0.21 -0.11,-0.05 -0.22,-0.1 -0.32,-0.16 -0.43,-0.25 -0.79,-0.63 -0.87,-1.14 -0.07,-0.45 0.06,-0.89 0.14,-1.33 0.01,-0.08 0.02,-0.15 0.03,-0.22 0.02,-0.12 0.02,-0.24 0.02,-0.35 0,-0.26 -0.04,-0.52 -0.12,-0.77 -0.15,-0.45 -0.39,-0.88 -0.68,-1.25 -0.18,-0.24 -0.38,-0.48 -0.59,-0.7 -0.03,-0.03 -0.05,-0.06 -0.08,-0.09 -0.76,-0.8 -1.64,-1.48 -2.6,-2.01l-0 0c-0.72,-0.4 -1.48,-0.72 -2.27,-0.94l-0 0c-0.04,-0.01 -0.07,-0.02 -0.11,-0.03 -0.07,-0.02 -0.09,0.1 -0.02,0.12z"/>
   <path class="fil1" d="M55.59 59.33c0.28,-0.3 0.44,-0.69 0.44,-1.09 0,-0.35 -0.11,-0.69 -0.32,-0.96 -0.05,-0.06 -0.14,0.01 -0.1,0.07 0.2,0.26 0.3,0.57 0.3,0.89 0,0.38 -0.15,0.75 -0.41,1.02 -0.05,0.06 0.04,0.13 0.09,0.07l0 0z"/>
   <path class="fil1" d="M56.92 62.3c-0.04,0 -0.07,0 -0.11,0 -0.73,0 -1.44,-0.26 -2,-0.74 -0.06,-0.05 -0.13,0.04 -0.07,0.09 0.58,0.49 1.31,0.77 2.08,0.77 0.04,0 0.08,-0 0.12,-0 0.08,-0 0.06,-0.12 -0.01,-0.12l0 0z"/>
   <path class="fil1" d="M52.85 57.22c-0.16,0.26 -0.44,0.42 -0.74,0.43 -0.08,0 -0.06,0.12 0.01,0.12 0.33,-0.01 0.64,-0.19 0.82,-0.47 0.01,-0.01 0.01,-0.02 0.01,-0.04 0,-0.02 -0.01,-0.03 -0.02,-0.05 -0.01,-0.01 -0.02,-0.01 -0.04,-0.01 -0.02,0 -0.03,0.01 -0.05,0.02l0 0z"/>
   <path class="fil0" d="M11.68 62.54c-0.27,1.02 -0.98,1.87 -1.84,2.48 -0.14,0.1 -0.28,0.19 -0.43,0.28 -0.04,0.03 -0.09,0.05 -0.14,0.08 -0.05,0.03 -0.1,0.06 -0.15,0.08l-4.05 0c-0.07,-0.15 -0.14,-0.3 -0.22,-0.45 -1.73,-3.64 -2.95,-7.58 -2.74,-11.58 0.08,-1.55 0.41,-3.09 0.97,-4.54 1.11,-2.89 3.14,-5.4 5.93,-6.66 0.07,-0.03 0.14,-0.06 0.21,-0.09 -0.02,0.08 -0.04,0.16 -0.07,0.24 -0.3,1.07 -0.51,2.18 -0.63,3.29 -0.01,0.09 -0.02,0.17 -0.03,0.26 -0.07,0.71 -0.11,1.43 -0.11,2.14 0,1.97 0.27,3.94 0.8,5.84 0,0.01 0,0.01 0.01,0.02 0.16,0.57 0.34,1.14 0.55,1.7 0.16,0.44 0.34,0.87 0.54,1.3 0.81,1.79 1.9,3.7 1.4,5.6z"/>
   <path class="fil1" d="M9.27 42.24c-0.04,0.05 -0.08,0.1 -0.12,0.16 -0.82,1.09 -1.52,2.27 -2.08,3.51 -0.03,0.06 -0.06,0.12 -0.08,0.19 -0.76,1.73 -1.26,3.59 -1.46,5.47 -0,0.01 -0,0.03 -0,0.04 -0.05,0.44 -0.07,0.89 -0.09,1.33 -0.02,0.83 0.03,1.68 0.27,2.48 0.2,0.66 0.55,1.26 1.02,1.76 0.05,0.05 0.09,0.1 0.14,0.15 0.04,0.04 0.08,0.08 0.12,0.12 0.38,0.36 0.79,0.7 1.15,1.08 0.16,0.17 0.31,0.36 0.44,0.56 0.44,0.68 0.51,1.49 0.3,2.26 -0.25,0.95 -0.84,1.75 -1.43,2.51 -0.3,0.38 -0.6,0.77 -0.87,1.17 -0.1,0.15 -0.19,0.29 -0.27,0.45l-0.24 0c0.08,-0.15 0.16,-0.3 0.26,-0.45 0.68,-1.08 1.65,-2 2.16,-3.18 0.34,-0.8 0.44,-1.7 0.01,-2.49 -0.13,-0.23 -0.28,-0.44 -0.45,-0.63 -0.34,-0.39 -0.75,-0.72 -1.12,-1.07 -0.09,-0.09 -0.19,-0.18 -0.27,-0.27 -0.47,-0.47 -0.83,-1.04 -1.06,-1.66 -0.28,-0.78 -0.36,-1.63 -0.36,-2.46 0,-0.53 0.03,-1.07 0.08,-1.6 0.01,-0.07 0.01,-0.14 0.02,-0.21 0.38,-3.34 1.65,-6.52 3.68,-9.21 0.04,-0.05 0.08,-0.1 0.12,-0.15 0.08,-0.1 0.23,0.04 0.15,0.14z"/>
   <path class="fil1" d="M5.41 51.68c-1.33,-0.22 -2.31,-1.38 -2.31,-2.73 0,-0 0,-0.01 0,-0.01 0,-0.06 0.05,-0.1 0.1,-0.1 0.05,0 0.1,0.04 0.1,0.1 -0,0.01 -0,0.01 -0,0.02 0,1.26 0.91,2.33 2.16,2.53 0.13,0.02 0.08,0.22 -0.05,0.2l0 0z"/>
   <path class="fil1" d="M6.68 57.21c1.1,-0.77 1.87,-1.93 2.16,-3.24 0.03,-0.13 0.23,-0.08 0.2,0.05 -0.3,1.36 -1.11,2.57 -2.25,3.36 -0.11,0.08 -0.21,-0.1 -0.11,-0.18l0 0z"/>
   <path class="fil1" d="M7.01 45.88c0.18,0.07 0.37,0.11 0.57,0.11 0.32,0 0.64,-0.1 0.91,-0.29 0.11,-0.08 0.21,0.1 0.11,0.18 -0.3,0.21 -0.65,0.32 -1.01,0.32 -0.21,0 -0.42,-0.04 -0.62,-0.11 -0.05,-0.01 -0.08,-0.06 -0.08,-0.1 0,-0.01 0,-0.02 0,-0.02 0.01,-0.05 0.05,-0.08 0.1,-0.08 0.01,0 0.02,0 0.02,0l-0 0z"/>
   <path class="fil0" d="M23.31 49.47c-0.07,0.05 -0.13,0.1 -0.2,0.15 -0.88,0.68 -1.72,1.43 -2.49,2.24 -0.06,0.06 -0.12,0.13 -0.18,0.19l-0 0c-1.81,1.97 -3.26,4.27 -4.24,6.76l-0.01 0.02c-0,0.01 -0,0.01 -0.01,0.01 -0.39,0.99 -0.71,2.03 -0.94,3.07 -0.23,1.02 -0.42,2.12 -0.77,3.1 -0.05,0.15 -0.11,0.3 -0.18,0.45l-8.32 0c0.03,-0.15 0.06,-0.3 0.09,-0.45 0.45,-2.17 1.07,-4.31 1.97,-6.3 0.03,-0.07 0.06,-0.13 0.09,-0.2 0.46,-1 1,-1.96 1.61,-2.87 0,-0 0,-0 0,-0 0,-0 0,-0 0,-0 0,0 0,0 0,0 0.34,-0.5 0.7,-0.98 1.08,-1.44 1,-1.19 2.19,-2.22 3.5,-3.04 0.01,-0.01 0.02,-0.01 0.02,-0.01 2.63,-1.63 5.74,-2.41 8.72,-1.73l0 0c0.08,0.02 0.15,0.03 0.23,0.05z"/>
   <path class="fil1" d="M23.3 49.57c-0.06,0.02 -0.13,0.04 -0.19,0.05 -1.31,0.37 -2.58,0.9 -3.77,1.55 -0.06,0.03 -0.12,0.07 -0.18,0.1 -1.65,0.92 -3.16,2.1 -4.45,3.48 -0,0 -0,0 -0,0 -0.01,0.01 -0.03,0.03 -0.04,0.05 -0.3,0.32 -0.59,0.66 -0.86,1 -0.52,0.65 -0.98,1.36 -1.28,2.14 -0.18,0.49 -0.27,1.01 -0.27,1.53 0,0.16 0.01,0.33 0.03,0.49 0.01,0.07 0.01,0.14 0.02,0.21 0.01,0.05 0.01,0.11 0.02,0.16 0.12,0.75 0.34,1.5 0.28,2.27 -0.06,0.81 -0.49,1.5 -1.12,1.99 -0.22,0.17 -0.45,0.31 -0.69,0.44 -0.35,0.18 -0.71,0.33 -1.08,0.44l-0.74 0c0.1,-0.03 0.2,-0.06 0.3,-0.08 0.35,-0.1 0.7,-0.22 1.03,-0.36 0.19,-0.08 0.38,-0.17 0.56,-0.28 0.75,-0.43 1.38,-1.09 1.51,-1.98 0.11,-0.77 -0.11,-1.55 -0.24,-2.31 -0.02,-0.13 -0.04,-0.26 -0.05,-0.39 -0.03,-0.2 -0.04,-0.41 -0.04,-0.62 0,-0.45 0.07,-0.91 0.2,-1.34 0.25,-0.8 0.69,-1.52 1.19,-2.18 0.32,-0.42 0.66,-0.84 1.02,-1.23 0.05,-0.05 0.09,-0.1 0.14,-0.15 1.32,-1.39 2.85,-2.58 4.53,-3.5l0 0c1.25,-0.69 2.58,-1.25 3.95,-1.64l0 0c0.06,-0.02 0.13,-0.04 0.19,-0.05 0.13,-0.03 0.16,0.17 0.03,0.21z"/>
   <path class="fil1" d="M14.53 54.78c-0.49,-0.51 -0.76,-1.2 -0.76,-1.9 0,-0.61 0.2,-1.2 0.56,-1.68 0.08,-0.11 0.25,0.02 0.17,0.12 -0.34,0.45 -0.53,0.99 -0.53,1.56 0,0.66 0.26,1.3 0.71,1.77 0.09,0.1 -0.07,0.23 -0.16,0.13l0 0z"/>
   <path class="fil1" d="M12.21 59.96c0.06,0 0.13,0 0.19,0 1.28,0 2.51,-0.46 3.48,-1.29 0.1,-0.09 0.23,0.07 0.13,0.16 -1.01,0.86 -2.29,1.33 -3.61,1.33 -0.07,0 -0.14,-0 -0.21,-0 -0.13,-0.01 -0.11,-0.21 0.02,-0.21l-0 0z"/>
   <path class="fil1" d="M19.3 51.12c0.28,0.45 0.76,0.73 1.29,0.74 0.13,0 0.11,0.21 -0.02,0.21 -0.58,-0.02 -1.12,-0.33 -1.43,-0.82 -0.01,-0.02 -0.02,-0.04 -0.02,-0.06 0,-0.03 0.01,-0.06 0.04,-0.08 0.02,-0.01 0.04,-0.02 0.06,-0.02 0.03,0 0.06,0.01 0.08,0.04l0 0z"/>
   <path class="fil2" d="M67.27 65.35c0,0 0,0 0,0 0,0.07 -0.06,0.13 -0.13,0.13 -0,0 -0,0 -0,0l-67.01 0c-0.07,0 -0.13,-0.06 -0.13,-0.13 0,-0.07 0.06,-0.13 0.13,-0.13l67.01 0c0,0 0,0 0,0 0.07,0 0.13,0.06 0.13,0.13 0,0 0,0 0,0l0 0z"/>
   <path class="fil3" d="M41.4 17.65l-8.39 0c-0.37,-0.69 -0.94,-1.29 0,-2.68 0,-1.92 1.52,-3.5 3.45,-3.57l0 0c1.81,-0.54 3.12,0.56 3.48,2.32l1.46 3.93z"/>
   <path class="fil4" d="M24.78 19.11c0.53,0.06 0.93,0.51 0.93,1.04 0,0.1 -0.01,0.2 -0.04,0.3l6.51 5.41 -1.81 0.7 -6.08 -5.41c-0.41,-0.15 -0.69,-0.55 -0.69,-0.99 0,-0.58 0.47,-1.05 1.06,-1.05 0.04,0 0.08,0 0.12,0.01l-0 0z"/>
   <path class="fil5" d="M32.31 28.2c-1.44,0 -7.07,-5.9 -7.31,-6.15l-0.06 -0.07 2.08 -0.56 5 3.62 1.82 -3.08c0.34,-0.58 0.97,-0.94 1.65,-0.94 0.12,0 0.24,0.01 0.36,0.03 0.9,0.18 1.55,0.96 1.55,1.88 0,0.52 -0.21,1.02 -0.58,1.38l-3.44 3.33c-0.26,0.25 -0.59,0.44 -0.94,0.55 -0.04,0.01 -0.07,0.01 -0.11,0.01 -0,0 -0,0 -0,0l0 0z"/>
   <polygon class="fil6" points="32.43,27.38 33.12,30.02 38.93,31.3 38.55,29.96 39.64,28.81 38.45,26.84 "/>
   <polygon class="fil6" points="31.91,63.31 30.78,63.31 30.24,58.94 31.91,58.94 "/>
   <path class="fil3" d="M32.51 65.28l-0.81 0 -0.15 -0.77 -0.37 0.77 -2.16 0c0,0 0,0 0,0 -0.27,0 -0.49,-0.22 -0.49,-0.48 0,-0.16 0.08,-0.31 0.21,-0.4l1.72 -1.19 0 -0.78 1.81 0.11 0.23 2.74z"/>
   <polygon class="fil6" points="46.13,62.35 45.07,62.77 42.95,58.9 44.51,58.28 "/>
   <path class="fil3" d="M47.41 63.95l-0.76 0.3 -0.42 -0.66 -0.06 0.85 -2 0.8c-0.06,0.02 -0.12,0.03 -0.18,0.03 -0.27,0 -0.49,-0.22 -0.49,-0.48 0,-0.1 0.03,-0.19 0.08,-0.27l1.16 -1.74 -0.29 -0.72 1.72 -0.57 1.23 2.46z"/>
   <path class="fil5" d="M39.61 29.11l-0.11 -0.09c-0.03,-0.03 -3.21,-2.71 -7.18,-0.21l-0.13 0.08 -0.81 -3.58c-0.04,-0.17 -0.06,-0.34 -0.06,-0.51 0,-0.68 0.3,-1.32 0.82,-1.75l2.87 -2.38 1.01 -0.5 -0.13 -0.83c-0.01,-0.04 -0.01,-0.07 -0.01,-0.11 0,-0.3 0.19,-0.57 0.47,-0.67l1.56 -0.59c0.08,-0.03 0.17,-0.05 0.25,-0.05 0.29,0 0.55,0.18 0.66,0.45l0.17 0.4 0.35 -0.12c0.19,-0.07 0.39,-0.1 0.59,-0.1 0.25,0 0.51,0.06 0.74,0.16 0.42,0.2 0.73,0.58 0.86,1.02 0.24,0.81 0.36,1.66 0.36,2.5 0,1.28 -0.28,2.55 -0.82,3.72l-1.47 3.16z"/>
   <path class="fil3" d="M32.35 61.3l-2.35 0 0.65 -11.02 -0.47 -7.47 0 -0.01 1.77 -10.71c0.14,-0.84 0.52,-1.63 1.08,-2.27l0.02 -0.02 5.92 1.46 0.59 1.36c2.03,1.21 2.67,8.02 2.7,8.31l0.86 8.49 2.1 10.41 -1.48 0.8 -0.02 -0.05 -4.68 -9.3 -2.95 -9.81 -1.89 8.83 -1.85 11.01z"/>
   <path class="fil4" d="M41.81 37.99c-0.2,-0.2 -0.31,-0.46 -0.31,-0.74 0,-0.34 0.17,-0.67 0.45,-0.86l-1.67 -8.3 1.85 0.59 1.34 8.03c0.1,0.16 0.15,0.35 0.15,0.54 0,0.58 -0.47,1.05 -1.06,1.05 -0.28,0 -0.55,-0.11 -0.75,-0.32z"/>
   <path class="fil5" d="M39.35 20.44l1.14 -0.86c0,0 1.01,-0.07 1.19,1.75 0.18,1.82 0.55,5.37 0.55,5.37l1.75 8.11 -2.42 0.53 -1.88 -8.76 -1.13 -2.6 0.8 -3.55z"/>
   <circle class="fil6" cx="35.92" cy="14.76" r="2.79"/>
   <path class="fil3" d="M37.52 12.05c-0.48,-0.48 -1.13,-0.74 -1.81,-0.74 -0,0 -0,0 -0,0l-0.54 0c-1.43,0 -2.58,1.16 -2.58,2.58l0 0c0.47,0.41 2.74,0.32 4.09,0.21 -0.1,1.4 -1.28,2.77 -0.97,3.55l5.38 0 0 -0.54c0.46,-2.36 -1.26,-4.33 -3.56,-5.06z"/>
   <circle class="fil7" cx="13.29" cy="46.73" r="1.72"/>
   <circle class="fil7" cx="55.7" cy="53.78" r="1.4"/>
   <circle class="fil7" cx="49.14" cy="24.64" r="1.4"/>
   <path class="fil7" d="M20.53 12.25c0.82,-1.91 1.49,-4.07 0.97,-6.16 -0.4,-1.63 -1.56,-3.19 -3.26,-3.61 -0.3,-0.07 -0.61,-0.11 -0.92,-0.11 -1.5,0 -2.88,0.82 -3.6,2.14 -0.34,0.64 -0.51,1.34 -0.51,2.06 0,0.18 0.01,0.35 0.03,0.53 0.11,0.89 0.5,1.86 1.31,2.33 0.74,0.42 1.78,0.31 2.2,-0.5 0.36,-0.68 0.22,-1.55 -0.25,-2.13 -0.57,-0.71 -1.5,-1.04 -2.37,-1.2 -0.5,-0.09 -1.02,-0.14 -1.54,-0.14 -0.41,0 -0.83,0.03 -1.24,0.09 -1.81,0.27 -3.52,1.19 -4.56,2.73 -0.96,1.42 -1.32,3.3 -0.68,4.93 0.64,1.62 2.09,2.76 3.7,3.32 1.97,0.69 4.14,0.45 6.12,-0.11 0.52,-0.15 1.03,-0.32 1.54,-0.5 0.19,-0.07 0.11,-0.38 -0.09,-0.31 -1.92,0.7 -3.99,1.22 -6.05,0.96 -1.59,-0.2 -3.16,-0.95 -4.18,-2.21 -0.5,-0.61 -0.84,-1.34 -0.98,-2.12 -0.04,-0.26 -0.06,-0.52 -0.06,-0.78 0,-0.54 0.09,-1.08 0.26,-1.59 0.54,-1.6 1.74,-2.88 3.3,-3.52 0.8,-0.33 1.66,-0.52 2.53,-0.56 0.14,-0.01 0.28,-0.01 0.43,-0.01 0.72,0 1.44,0.1 2.14,0.31 0.74,0.23 1.53,0.68 1.77,1.46 0.2,0.63 0.05,1.46 -0.63,1.72 -0.15,0.05 -0.31,0.08 -0.47,0.08 -0.26,0 -0.51,-0.07 -0.73,-0.2 -0.37,-0.23 -0.66,-0.57 -0.84,-0.97 -0.23,-0.51 -0.34,-1.06 -0.34,-1.62 0,-1.13 0.48,-2.22 1.33,-2.97 0.64,-0.54 1.43,-0.85 2.26,-0.9 0.06,-0 0.12,-0 0.18,-0 0.74,0 1.47,0.23 2.07,0.67 0.64,0.48 1.15,1.11 1.47,1.84 0.81,1.74 0.54,3.72 -0.05,5.48 -0.16,0.48 -0.35,0.95 -0.55,1.42 -0.08,0.19 0.2,0.35 0.28,0.16l0 0z"/>
   <circle class="fil1" cx="20.76" cy="15.18" r="3.33"/>
   <path class="fil7" d="M23.77 15.18c0,1.66 -1.35,3.01 -3.01,3.01 -0.9,0 -1.76,-0.41 -2.33,-1.1 -0.09,-0.11 -0.17,-0.23 -0.25,-0.35 -0.08,-0.13 -0.15,-0.26 -0.21,-0.4 -0.06,-0.15 -0.11,-0.3 -0.15,-0.46 -0.04,-0.14 -0.06,-0.29 -0.07,-0.44 -0.01,-0.09 -0.01,-0.17 -0.01,-0.26 0,-1.19 0.7,-2.27 1.78,-2.75 0.39,-0.17 0.81,-0.26 1.23,-0.26 1.49,0 2.76,1.09 2.98,2.56 0.01,0.04 0.01,0.04 0.01,0.06 0.01,0.04 0.01,0.09 0.01,0.13 0.01,0.09 0.01,0.17 0.01,0.26 0,0.41 0.65,0.42 0.65,0 0,-0 0,-0.01 0,-0.01 0,-2.02 -1.64,-3.67 -3.67,-3.67 -2.02,0 -3.67,1.64 -3.67,3.67 0,2.02 1.64,3.67 3.67,3.67 1.79,0 3.32,-1.29 3.61,-3.05 0.03,-0.2 0.05,-0.4 0.05,-0.6 0,-0.42 -0.64,-0.42 -0.65,-0z"/>
   <path class="fil5" d="M22.2 14.26l-0 -0c0.14,-0.08 0.24,-0.21 0.29,-0.36 -0.13,0.07 -0.26,0.13 -0.41,0.16 -0.14,-0.18 -0.36,-0.29 -0.59,-0.29 -0,0 -0,0 -0,0 -0.43,0 -0.78,0.35 -0.78,0.78 0,0 0,0 0,0l0 0.01c-0.44,-0.06 -0.83,-0.28 -1.11,-0.62 -0.02,-0.03 -0.06,-0.05 -0.1,-0.05 -0.01,0 -0.03,0 -0.04,0.01 -0.03,0 -0.06,0.02 -0.08,0.05 -0.06,0.1 -0.09,0.22 -0.09,0.34 0,0.02 0,0.04 0,0.06 0,0 0,0 0,0 0,0.12 0.03,0.24 0.09,0.35 -0.05,0.01 -0.09,0.06 -0.09,0.11l0 0.01c0,0 0,0 0,0 0,0.22 0.09,0.43 0.26,0.58l-0 0c-0.02,0.02 -0.03,0.05 -0.03,0.07 0,0.01 0,0.02 0.01,0.03 0.07,0.21 0.22,0.38 0.42,0.47 -0.16,0.07 -0.32,0.1 -0.49,0.1 -0.05,0 -0.11,-0 -0.16,-0.01 -0,-0 -0.01,-0 -0.01,-0 -0.04,0 -0.08,0.02 -0.1,0.05 -0,0 -0.01,0.01 -0.01,0.01 -0.01,0.02 -0.02,0.04 -0.02,0.07 0,0.04 0.02,0.08 0.06,0.1 0.32,0.2 0.69,0.31 1.07,0.31 0,0 0,0 0,0 1.29,0 1.99,-1.07 1.99,-1.99 0,-0.04 -0,-0.09 -0.01,-0.13 0.12,-0.09 0.23,-0.2 0.31,-0.33l0 -0c-0.12,0.05 -0.24,0.09 -0.37,0.1l0 0z"/>
   <circle class="fil1" cx="20.87" cy="3.67" r="3.33"/>
   <path class="fil7" d="M23.88 3.67c0,1.66 -1.35,3.01 -3.01,3.01 -0.9,0 -1.76,-0.41 -2.33,-1.1 -0.09,-0.11 -0.17,-0.23 -0.25,-0.35 -0.08,-0.13 -0.15,-0.26 -0.21,-0.4 -0.06,-0.15 -0.11,-0.3 -0.15,-0.46 -0.04,-0.14 -0.06,-0.29 -0.07,-0.44 -0.01,-0.09 -0.01,-0.17 -0.01,-0.26 0,-1.19 0.7,-2.27 1.78,-2.75 0.39,-0.17 0.81,-0.26 1.23,-0.26 1.49,0 2.76,1.09 2.98,2.56 0.01,0.04 0.01,0.04 0.01,0.06 0.01,0.04 0.01,0.09 0.01,0.13 0.01,0.09 0.01,0.17 0.01,0.26 0,0.42 0.65,0.42 0.65,0 0,-0 0,-0.01 0,-0.01 0,-2.02 -1.64,-3.67 -3.67,-3.67 -2.02,0 -3.67,1.64 -3.67,3.67 0,2.02 1.64,3.67 3.67,3.67 1.79,0 3.32,-1.29 3.61,-3.05 0.03,-0.2 0.05,-0.4 0.05,-0.6 0,-0.42 -0.64,-0.42 -0.65,-0z"/>
   <path class="fil5" d="M21.61 4.03l0.1 -0.66 -0.64 0c-0.02,-0.55 -0.04,-0.86 0.66,-0.79l0 -0.56c-1.06,-0.23 -1.5,0.3 -1.38,1.35l-0.58 0 0 0.66 0.58 0 0 1.54c0.12,0.03 0.24,0.04 0.37,0.04 0.12,0 0.23,-0.01 0.35,-0.04l0 -1.54 0.53 0z"/>
   <circle class="fil1" cx="7.97" cy="15.5" r="3.33"/>
   <path class="fil7" d="M10.98 15.5c0,1.66 -1.35,3.01 -3.01,3.01 -0.9,0 -1.76,-0.41 -2.33,-1.1 -0.09,-0.11 -0.17,-0.23 -0.25,-0.35 -0.08,-0.13 -0.15,-0.26 -0.21,-0.4 -0.06,-0.15 -0.11,-0.3 -0.15,-0.46 -0.04,-0.14 -0.06,-0.29 -0.07,-0.44 -0.01,-0.09 -0.01,-0.17 -0.01,-0.26 0,-1.19 0.7,-2.27 1.78,-2.75 0.39,-0.17 0.81,-0.26 1.23,-0.26 1.49,0 2.76,1.09 2.98,2.56 0.01,0.04 0.01,0.04 0.01,0.06 0.01,0.04 0.01,0.09 0.01,0.13 0.01,0.09 0.01,0.17 0.01,0.26 0,0.41 0.65,0.42 0.65,0 0,-0 0,-0.01 0,-0.01 0,-2.02 -1.64,-3.67 -3.67,-3.67 -2.02,0 -3.67,1.64 -3.67,3.67 0,2.02 1.64,3.67 3.67,3.67 1.79,0 3.32,-1.29 3.61,-3.05 0.03,-0.2 0.05,-0.4 0.05,-0.6 0,-0.42 -0.64,-0.42 -0.65,0z"/>
   <path class="fil5" d="M8.05 17.13c-0.13,0 -0.25,-0 -0.37,-0.01 -0.14,-0 -0.28,-0.01 -0.39,-0 -0.02,0 -0.03,0 -0.05,0 -0.23,0 -0.46,-0.09 -0.62,-0.25 -0.35,-0.36 -0.33,-1.04 -0.32,-1.58 0,-0.14 0.01,-0.28 0,-0.39 -0,-0.02 -0,-0.03 -0,-0.05 0,-0.23 0.09,-0.46 0.25,-0.62 0.36,-0.35 1.04,-0.33 1.58,-0.32 0.14,0 0.28,0.01 0.39,0l0 0c0.02,-0 0.03,-0 0.05,-0 0.23,0 0.46,0.09 0.62,0.25 0.35,0.36 0.33,1.04 0.32,1.58 -0,0.14 -0.01,0.28 -0,0.39 0,0.02 0,0.03 0,0.05 0,0.23 -0.09,0.46 -0.25,0.62 -0.29,0.28 -0.76,0.32 -1.22,0.32z"/>
   <path class="fil0" d="M8.72 14.88c-0.1,-0 -0.18,-0.09 -0.18,-0.19 0,-0.1 0.08,-0.18 0.18,-0.19 0.1,0 0.18,0.09 0.18,0.19 0,0.1 -0.08,0.18 -0.18,0.19l0 0z"/>
   <path class="fil0" d="M7.91 16.32c0,0 0,0 0,0 -0.45,0 -0.81,-0.36 -0.81,-0.81 0,-0.45 0.36,-0.81 0.81,-0.81 0.45,0 0.81,0.36 0.81,0.81 -0,0.45 -0.36,0.81 -0.81,0.81l0 0zm0.81 -2.22c0,0 0,0 0,0 -0.33,0 -0.6,0.27 -0.6,0.6 0,0.33 0.27,0.6 0.6,0.6 0.33,0 0.6,-0.27 0.6,-0.6 0,0 0,0 0,0 -0.05,-0.35 -0.35,-0.6 -0.7,-0.6 -0.39,0 -0.71,0.32 -0.71,0.71 0,0.04 0,0.07 0.01,0.11l0.81 -0.81z"/>
  </g>
 </g>
</svg>
