<?xml version="1.0" encoding="UTF-8"?>
<!DOCTYPE svg PUBLIC "-//W3C//DTD SVG 1.1//EN" "http://www.w3.org/Graphics/SVG/1.1/DTD/svg11.dtd">
<!-- Creator: CorelDRAW 2021 (64-Bit) -->
<svg xmlns="http://www.w3.org/2000/svg" xml:space="preserve" width="1.87459in" height="1.37795in" version="1.1" style="shape-rendering:geometricPrecision; text-rendering:geometricPrecision; image-rendering:optimizeQuality; fill-rule:evenodd; clip-rule:evenodd"
viewBox="0 0 1075.19 790.34"
 xmlns:xlink="http://www.w3.org/1999/xlink"
 xmlns:xodm="http://www.corel.com/coreldraw/odm/2003">
 <defs>
  <style type="text/css">
   <![CDATA[
    .fil3 {fill:#00C4B5}
    .fil17 {fill:#2D293D}
    .fil15 {fill:#3F3D56}
    .fil11 {fill:#464353}
    .fil10 {fill:#514E7F}
    .fil21 {fill:#575988}
    .fil12 {fill:#A1616A}
    .fil6 {fill:#A8A8A8}
    .fil20 {fill:#DCE6F2}
    .fil13 {fill:#FBBEBE}
    .fil19 {fill:#FFCDD3}
    .fil5 {fill:#FFD037}
    .fil9 {fill:white}
    .fil18 {fill:black;fill-opacity:0.003922}
    .fil14 {fill:black;fill-opacity:0.050980}
    .fil4 {fill:black;fill-opacity:0.101961}
    .fil0 {fill:#00C4B5;fill-opacity:0.101961}
    .fil7 {fill:black;fill-opacity:0.200000}
    .fil8 {fill:#3A3768;fill-opacity:0.301961}
    .fil1 {fill:#3A3768;fill-opacity:0.811765}
    .fil2 {fill:#E6E8EC;fill-opacity:0.811765}
    .fil16 {fill:url(#id0)}
   ]]>
  </style>
  <linearGradient id="id0" gradientUnits="userSpaceOnUse" x1="636.51" y1="782.14" x2="636.51" y2="494.96">
   <stop offset="0" style="stop-opacity:0.25098; stop-color:gray"/>
   <stop offset="0.541176" style="stop-opacity:0.121569; stop-color:gray"/>
   <stop offset="1" style="stop-opacity:0.101961; stop-color:gray"/>
  </linearGradient>
 </defs>
 <g id="Layer_x0020_1">
  <metadata id="CorelCorpID_0Corel-Layer"/>
  <g id="_2401634389984">
   <path class="fil0" d="M629.37 109.24c-63.46,-2.21 -123.91,-22.69 -181.63,-45.11 -57.72,-22.42 -114.89,-47.26 -176.87,-59.13 -39.8,-7.64 -85.37,-8.72 -117.48,12.63 -30.89,20.59 -40.87,56.04 -46.23,88.96 -4.04,24.78 -6.41,50.84 4.65,74.04 7.69,16.1 21.32,29.63 30.75,45.11 32.82,53.66 9.62,119.83 -25.94,172.22 -16.67,24.58 -36.04,48.05 -48.91,74.19 -12.88,26.14 -18.83,56.14 -7.56,82.82 11.16,26.48 37.76,46.33 66.58,60.31 58.53,28.38 127.48,36.51 194.76,41.11 148.88,10.19 298.55,5.78 447.83,1.36 55.25,-1.64 110.73,-3.29 165.08,-11.84 30.18,-4.74 61.34,-12.28 83.24,-30.4 27.82,-23.07 34.71,-62.15 16.07,-91.08 -31.26,-48.53 -117.67,-60.59 -139.55,-112.67 -12.02,-28.66 0.32,-60.6 17.81,-87.19 37.5,-57.04 100.34,-107.07 103.65,-172.27 2.27,-44.77 -27.94,-89.62 -74.65,-110.81 -48.96,-22.21 -116.87,-19.42 -152.97,17.35 -37.22,37.77 -102.58,52.34 -158.62,50.39z"/>
   <g>
    <path class="fil1" d="M696.84 243.96l4.2 0c1.24,0 2.24,1 2.24,2.24l0 67.11c0,1.24 -1,2.24 -2.24,2.24l-4.2 0c-1.24,0 -2.24,-1 -2.24,-2.24l0 -67.11c0,-1.24 1,-2.24 2.24,-2.24z"/>
    <path class="fil1" d="M408.11 187.87l0.38 0c1.24,0 2.24,1 2.24,2.24l0 19.08c0,1.24 -1,2.24 -2.24,2.24l-0.38 0c-1.24,0 -2.24,-1 -2.24,-2.24l0 -19.08c0,-1.24 1,-2.24 2.25,-2.24z"/>
    <path class="fil1" d="M407.93 231.02l1 0c1.24,0 2.25,1.01 2.25,2.25l0 36.54c0,1.24 -1.01,2.24 -2.25,2.24l-1 0c-1.24,0 -2.24,-1 -2.24,-2.24l0 -36.54c0,-1.24 1,-2.25 2.24,-2.25z"/>
    <path class="fil1" d="M408.02 286.41l0.74 0c1.24,0 2.25,1 2.25,2.24l-0 36.89c0,1.24 -1,2.25 -2.24,2.25l-0.74 0c-1.24,0 -2.24,-1.01 -2.24,-2.25l0 -36.89c0,-1.24 1,-2.24 2.25,-2.24z"/>
    <path class="fil1" d="M446.86 109.97l214.18 0c21.11,0 38.23,17.12 38.23,38.23l0 514.24c0,21.11 -17.12,38.23 -38.23,38.23l-214.18 0c-21.11,0 -38.23,-17.12 -38.23,-38.23l0 -514.24c0,-21.11 17.12,-38.23 38.23,-38.23z"/>
    <path class="fil2" d="M529.7 127.6l33 0c2.1,0 3.79,1.7 3.79,3.8l0 0.65c-0,2.1 -1.7,3.8 -3.8,3.8l-33 0c-2.1,0 -3.79,-1.7 -3.79,-3.8l0 -0.65c0,-2.1 1.7,-3.8 3.79,-3.8z"/>
    <path class="fil2" d="M581.99 131.73c0,-2.58 -2.1,-4.68 -4.68,-4.68 -2.58,0 -4.68,2.09 -4.68,4.68 0,2.58 2.09,4.68 4.68,4.68 2.58,0 4.68,-2.1 4.68,-4.68z"/>
   </g>
   <path class="fil0" d="M429.51 714.27c0,-11.04 -87.79,-19.98 -196.09,-19.98 -108.3,0 -196.09,8.95 -196.09,19.98 0,11.04 87.79,19.98 196.09,19.98 108.3,0 196.09,-8.95 196.09,-19.98z"/>
   <path class="fil0" d="M761.3 780.98c0,-5.17 -41.13,-9.36 -91.86,-9.36 -50.74,0 -91.86,4.19 -91.86,9.36 0,5.17 41.13,9.36 91.86,9.36 50.73,0 91.86,-4.19 91.86,-9.36z"/>
   <path class="fil0" d="M1075.19 733.79c0,-5.17 -41.13,-9.36 -91.86,-9.36 -50.74,0 -91.86,4.19 -91.86,9.36 0,5.17 41.13,9.36 91.86,9.36 50.73,0 91.86,-4.19 91.86,-9.36z"/>
   <path class="fil3" d="M658.21 125.34l-33.24 0 0 4.01c0,10.5 -8.51,19 -19,19l-106.08 0c-10.49,0 -19,-8.51 -19,-19l0 -4.01 -31.22 -0c0,0 0,0 0,0 -12.74,0 -23.07,10.33 -23.07,23.07 0,0 0,0 0,0.01l0 513.77c0,0 0,0.01 0,0.01 0,12.74 10.33,23.07 23.07,23.07 0,0 0,0 0,0l208.56 0c12.74,-0 23.08,-10.34 23.08,-23.08l0 -513.77c0,-12.75 -10.34,-23.08 -23.08,-23.08l0 0z"/>
   <path class="fil3" d="M799.9 84.05c0,0 -82.57,-4.98 -72.83,52.87 0,0 -1.96,10.23 7.33,14.87 0,0 0.15,-4.29 8.46,-2.83 2.07,0.35 4.18,0.53 6.28,0.53 0.89,0 1.8,-0.04 2.69,-0.1 4.05,-0.27 7.91,-1.86 10.97,-4.52l0 0c0,0 23.2,-9.59 32.23,-47.52 0,0 6.68,-8.28 6.41,-10.4l-13.93 5.95c0,0 4.76,10.05 0.98,18.41 0,0 -0.45,-18.04 -3.13,-17.65 -0.55,0.08 -7.25,3.48 -7.25,3.48 0,0 8.2,17.5 1.96,30.23 0,0 2.34,-21.57 -4.57,-28.97l-9.8 5.73c0,0 9.57,18.08 3.09,32.84 0,0 1.66,-22.63 -5.15,-31.45l-8.88 6.93c0,0 8.99,17.82 3.51,30.06 0,0 -0.73,-26.34 -5.44,-28.33 0,0 -7.78,6.86 -8.96,9.67 0,0 6.16,12.94 2.34,19.77 0,0 -2.34,-17.55 -4.27,-17.65 0,0 -7.75,11.63 -8.55,19.61 0,0 0.33,-11.86 6.67,-20.71 0,0 -7.48,1.28 -11.86,6.14 0,0 1.21,-8.22 13.73,-8.94 0,0 6.4,-8.83 8.12,-9.36 0,0 -12.5,-1.05 -20.08,2.31 0,0 6.67,-7.76 22.38,-4.23l8.77 -7.17c0,0 -16.45,-2.25 -23.43,0.23 0,0 8.04,-6.86 25.81,-1.86l9.55 -5.71c0,0 -14.03,-3.03 -22.4,-1.96 0,0 8.83,-4.76 25.19,0.4l6.86 -3.07c0,0 -10.29,-2.02 -13.3,-2.34 -3.01,-0.33 -3.17,-1.15 -3.17,-1.15 1.92,-0.32 3.89,-0.48 5.84,-0.48 4.66,0 9.29,0.92 13.6,2.7 4.31,1.78 14.45,-5.42 14.21,-6.33z"/>
   <path class="fil3" d="M715.21 58.32c0,0 -37.26,-2.25 -32.91,23.9 0,0 -0.87,4.62 3.31,6.72 0,0 0.07,-1.96 3.83,-1.28 0.94,0.16 1.89,0.24 2.85,0.24 0.4,0 0.8,-0.02 1.2,-0.04 1.83,-0.12 3.57,-0.84 4.96,-2.04l0 0c0,0 10.48,-4.34 14.56,-21.47 0,0 3.02,-3.74 2.94,-4.7l-6.3 2.68c0,0 2.15,4.54 0.45,8.32 0,0 -0.2,-8.15 -1.41,-7.96 -0.25,0 -3.27,1.58 -3.27,1.58 0,0 3.7,7.9 0.9,13.66 0,0 1.06,-9.75 -2.06,-13.09l-4.43 2.59c0,0 4.32,8.17 1.39,14.84 0,0 0.75,-10.23 -2.32,-14.21l-4.02 3.14c0,0 4.07,8.05 1.59,13.58 0,0 -0.33,-11.9 -2.45,-12.81 0,0 -3.52,3.1 -4.05,4.37 0,0 2.78,5.88 1.05,8.93 0,0 -1.06,-7.93 -1.96,-7.97 0,0 -3.5,5.26 -3.86,8.83 0.17,-3.33 1.21,-6.56 3.01,-9.36 -2.02,0.38 -3.88,1.35 -5.35,2.78 -1.48,1.43 0.54,-3.72 6.22,-4.04 0,0 2.89,-3.99 3.67,-4.24 0,0 -5.65,-0.47 -9.07,1.05 0,0 3.01,-3.5 10.11,-1.96l3.92 -3.24c0,0 -7.43,-0.98 -10.59,0.11 0,0 3.64,-3.1 11.66,-0.84l4.31 -2.58c0,0 -6.33,-1.36 -10.11,-0.87 0,0 3.98,-2.15 11.38,0.18l3.09 -1.38c0,0 -4.64,-0.91 -6,-1.06 -1.36,-0.15 -1.43,-0.52 -1.43,-0.52 0.87,-0.14 1.75,-0.22 2.63,-0.22 2.09,0 4.15,0.41 6.08,1.2 1.93,0.79 6.59,-2.38 6.48,-2.8z"/>
   <ellipse class="fil3" cx="39.43" cy="665.41" rx="39.43" ry="6.67"/>
   <path class="fil3" d="M55.73 654.5c1.8,-1.46 3.12,-3.44 3.77,-5.67 0.48,-2.26 -0.48,-4.9 -2.63,-5.78 -2.41,-0.93 -4.99,0.75 -6.94,2.43 -1.95,1.69 -4.2,3.62 -6.76,3.26 2.13,-1.94 3.35,-4.7 3.35,-7.59 0,-0.68 -0.07,-1.36 -0.2,-2.03 -0.1,-0.72 -0.41,-1.4 -0.88,-1.96 -1.33,-1.43 -3.77,-0.81 -5.37,0.31 -5.1,3.59 -6.52,10.51 -6.54,16.75 -0.52,-2.26 -0.09,-4.6 -0.1,-6.86 -0.01,-2.26 -0.65,-4.9 -2.59,-6.1 -1.14,-0.61 -2.42,-0.93 -3.71,-0.93 -0.07,0 -0.14,0 -0.21,0 -2.29,-0.08 -4.84,0.15 -6.41,1.82 -1.96,2.08 -1.44,5.58 0.26,7.84 1.7,2.26 4.27,3.73 6.63,5.31 1.9,1.13 3.53,2.68 4.75,4.52 0.14,0.26 0.26,0.53 0.35,0.8l14.37 0c3.22,-1.63 6.22,-3.71 8.89,-6.14l-0 0z"/>
   <path class="fil3" d="M814.46 572.2c0,0 8.48,11.1 -3.92,27.85 -12.4,16.75 -22.62,30.89 -18.48,41.33 0,0 18.71,-31.1 33.94,-31.55 15.23,-0.44 5.22,-18.93 -11.53,-37.64z"/>
   <path class="fil4" d="M814.46 572.2c0.74,1.07 1.32,2.25 1.74,3.48 14.86,17.45 22.77,33.75 8.48,34.15 -13.3,0.38 -29.26,24.17 -33.07,30.17 0.12,0.47 0.27,0.93 0.45,1.37 0.18,0.44 18.71,-31.11 33.94,-31.55 15.23,-0.44 5.22,-18.93 -11.53,-37.64z"/>
   <path class="fil5" d="M830.23 586.39c0,3.92 -0.44,7.07 -0.98,7.07 -0.54,0 -0.98,-3.17 -0.98,-7.07 0,-3.9 0.55,-2.06 1.09,-2.06 0.54,0 0.87,-1.86 0.87,2.06z"/>
   <path class="fil5" d="M835.64 591.01c-3.43,1.86 -6.41,3 -6.68,2.52 -0.26,-0.48 2.31,-2.37 5.75,-4.25 3.43,-1.87 2.07,-0.5 2.33,0 0.26,0.5 2.03,-0.15 -1.4,1.73z"/>
   <path class="fil3" d="M769.65 572.2c0,0 -8.48,11.1 3.92,27.85 12.4,16.75 22.62,30.89 18.49,41.33 0,0 -18.71,-31.1 -33.94,-31.55 -15.23,-0.44 -5.23,-18.93 11.52,-37.64z"/>
   <path class="fil4" d="M769.65 572.2c-0.74,1.07 -1.33,2.24 -1.74,3.48 -14.86,17.46 -22.77,33.75 -8.49,34.15 13.31,0.38 29.26,24.17 33.09,30.17 -0.12,0.46 -0.28,0.93 -0.45,1.37 -0.17,0.45 -18.71,-31.11 -33.94,-31.55 -15.23,-0.44 -5.22,-18.93 11.53,-37.64z"/>
   <path class="fil5" d="M753.87 586.39c0,3.92 0.44,7.07 0.98,7.07 0.54,0 0.98,-3.17 0.98,-7.07 0,-3.9 -0.55,-2.06 -1.09,-2.06 -0.54,0 -0.87,-1.86 -0.87,2.06z"/>
   <path class="fil5" d="M748.43 591.01c3.42,1.86 6.41,3 6.67,2.52 0.26,-0.48 -2.3,-2.37 -5.74,-4.25 -3.43,-1.87 -2.08,-0.5 -2.33,0 -0.26,0.5 -1.99,-0.15 1.4,1.73z"/>
   <path class="fil6" d="M756.58 639.93c0,0 23.72,-0.73 30.87,-5.82 7.15,-5.09 36.49,-11.17 38.24,-3 1.76,8.17 35.65,40.61 8.83,40.82 -26.82,0.22 -62.23,-4.18 -69.36,-8.52 -7.13,-4.34 -8.58,-23.48 -8.58,-23.48z"/>
   <path class="fil7" d="M835.05 669.09c-26.78,0.21 -62.23,-4.18 -69.36,-8.52 -5.44,-3.3 -7.6,-15.18 -8.32,-20.66l-0.79 0c0,0 1.5,19.13 8.64,23.48 7.14,4.34 42.58,8.74 69.36,8.52 7.73,-0.07 10.4,-2.81 10.26,-6.86 -1.08,2.46 -4.02,4 -9.78,4.05z"/>
   <polygon class="fil8" points="573.19,554.93 649.71,554.93 649.71,478.41 573.19,478.41 "/>
   <polygon class="fil8" points="460.42,453.92 536.94,453.92 536.94,377.41 460.42,377.41 "/>
   <polygon class="fil8" points="467.78,654.2 544.29,654.2 544.29,577.69 467.78,577.69 "/>
   <rect class="fil9" x="450.71" y="189.53" width="76.52" height="76.52"/>
   <rect class="fil9" transform="matrix(0.121703 -0.110121 0.110121 0.121703 577.628 502.165)" width="466.2" height="466.2"/>
   <rect class="fil9" x="571.93" y="281.74" width="76.52" height="76.52"/>
   <rect class="fil9" x="475.2" y="367.05" width="76.52" height="76.52"/>
   <path class="fil3" d="M952.99 718.38c4.45,0.58 9.07,0.98 13.34,-0.45 0.66,-0.21 1.41,-0.66 1.32,-1.33 -0.05,-0.24 -0.16,-0.46 -0.3,-0.65 -1.61,-2.4 -2.97,-4.99 -4.05,-7.68 -0.04,-0.14 -0.13,-0.26 -0.25,-0.34 -0.07,-0.03 -0.14,-0.04 -0.22,-0.04 -0.07,0 -0.15,0.01 -0.21,0.04 -1.96,0.51 -3.67,1.78 -5.63,2.32 -0.69,0.19 -1.41,0.29 -2.13,0.29 -0.31,0 -0.62,-0.02 -0.93,-0.05 -0.88,-0.1 -2.1,-0.83 -2.89,-0.75 0.49,2.91 1.61,5.67 1.95,8.64z"/>
   <path class="fil3" d="M1037.25 710.92c2.94,-1.96 5.98,-4.14 7.72,-7.25 0.12,-0.18 0.2,-0.4 0.21,-0.62 -0.03,-0.22 -0.11,-0.43 -0.24,-0.61 -1.65,-2.62 -3.78,-4.92 -6.27,-6.77 -1.3,0.92 -2.48,2.01 -3.5,3.22 -0.73,0.77 -2.78,2.05 -2.8,3.21 0,0.7 0.77,1.45 1.14,1.96 0.49,0.72 0.98,1.47 1.4,2.22 0.23,0.45 2.56,4.51 2.34,4.63z"/>
   <path class="fil10" d="M970.44 727.39c0.01,0.08 0.01,0.17 0.01,0.26 0,0.61 -0.19,1.2 -0.54,1.7 -0.31,0.31 -0.7,0.54 -1.13,0.66 -6.24,2.23 -13.41,-0.56 -19.61,1.65 -1.28,0.45 -2.49,1.1 -3.78,1.53 -1.52,0.46 -3.09,0.74 -4.68,0.83 -2.21,0.21 -4.41,0.34 -6.62,0.4 -0.37,0.02 -0.75,0.04 -1.13,0.04 -1.3,0 -2.59,-0.16 -3.85,-0.47 -1.64,-0.43 -3.03,-1.53 -3.83,-3.03 -0.2,-0.41 -0.31,-0.86 -0.31,-1.31 0,-0.28 0.04,-0.57 0.12,-0.84 0.09,-0.25 0.23,-0.49 0.4,-0.7 0.42,-0.47 0.92,-0.87 1.47,-1.19l2.29 -1.48c1.07,-0.76 2.24,-1.38 3.47,-1.84 0.9,-0.29 1.87,-0.42 2.79,-0.69 3.22,-0.98 5.68,-3.5 7.96,-5.95l3.12 -3.32c0.29,-0.37 0.66,-0.66 1.08,-0.86 0.31,-0.11 0.63,-0.16 0.96,-0.16 0.12,0 0.25,0.01 0.37,0.02 3.03,0.22 5.96,1.21 8.5,2.86 0.66,0.48 1.36,0.89 2.1,1.24 0.68,0.2 1.38,0.3 2.09,0.3 1.33,0 2.65,-0.36 3.8,-1.03 0.8,-0.42 0.63,-0.69 0.98,-1.44 0.35,-0.76 1.16,-1.25 1.86,-0.55 0.21,0.24 0.36,0.53 0.44,0.84 0.69,2.23 0.42,4.61 0.42,6.93 -0,0.05 -0,0.11 -0,0.16 0,0.31 0.05,0.62 0.14,0.92 0.17,0.34 0.38,0.67 0.61,0.98 0.05,0.08 0.09,0.16 0.13,0.25 0.28,0.75 0.42,1.55 0.42,2.35 0,0.32 -0.02,0.63 -0.07,0.94l-0 0z"/>
   <path class="fil11" d="M970.44 727.39c0.01,0.08 0.01,0.17 0.01,0.26 0,0.61 -0.19,1.2 -0.54,1.7 -0.31,0.31 -0.7,0.54 -1.13,0.66 -6.24,2.23 -13.41,-0.56 -19.61,1.65 -1.28,0.45 -2.49,1.1 -3.78,1.53 -1.52,0.46 -3.09,0.74 -4.68,0.83 -2.21,0.21 -4.41,0.34 -6.62,0.4 -0.37,0.02 -0.75,0.04 -1.13,0.04 -1.3,0 -2.59,-0.16 -3.85,-0.47 -1.64,-0.43 -3.03,-1.53 -3.83,-3.03 -0.2,-0.41 -0.31,-0.86 -0.31,-1.31 0,-0.28 0.04,-0.57 0.12,-0.84 0.09,-0.25 0.23,-0.49 0.4,-0.7 0.37,0.77 0.64,1.77 0.86,2.13 0.63,1.1 1.7,1.87 2.94,2.11 0.13,0.01 0.26,0.01 0.39,0.01 0.77,0 1.54,-0.12 2.27,-0.35 5.65,-1.4 11.65,-1.42 17.06,-3.54 1.8,-0.85 3.68,-1.58 5.59,-2.15 2,-0.3 4.02,-0.47 6.04,-0.49 3.19,-0.25 6.27,-1.21 9.41,-1.71 0.28,0.75 0.42,1.56 0.42,2.36 0,0.31 -0.02,0.61 -0.06,0.92l0 0z"/>
   <path class="fil10" d="M1051.49 710.54c-0.3,2.36 -1.8,4.4 -3.44,6.13 -1.75,1.6 -3.37,3.37 -4.81,5.27 -1.63,2.47 -2.34,5.52 -4.44,7.61 -0.79,0.77 -1.69,1.43 -2.66,1.96 -1.09,0.65 -2.26,1.18 -3.46,1.59 -3.13,0.98 -6.5,0.77 -9.8,0.54 -1.06,-0.01 -2.11,-0.22 -3.1,-0.61 -0.46,-0.23 -0.9,-0.49 -1.31,-0.79 -0.8,-0.52 -1.47,-1.21 -1.96,-2.03 -0.16,-0.3 -0.25,-0.63 -0.25,-0.97 0,-0.16 0.02,-0.33 0.06,-0.49 0.19,-0.56 0.53,-1.05 0.98,-1.43 0.73,-0.76 1.53,-1.48 2.36,-2.13 1.15,-0.75 2.19,-1.66 3.08,-2.71 0.54,-0.83 0.95,-1.75 1.19,-2.71 0.47,-1.68 0.76,-3.41 0.86,-5.15 0,-0.01 0,-0.02 0,-0.03 0,-1.15 0.12,-2.29 0.36,-3.41 0.5,-1.77 1.82,-3.36 1.66,-5.2 -0.02,-0.09 -0.03,-0.19 -0.03,-0.28 0,-0.17 0.03,-0.34 0.1,-0.5 0.16,-0.19 0.38,-0.32 0.62,-0.38 1.03,-0.4 2.12,-0.65 3.22,-0.74 0.08,-0 0.16,-0.01 0.23,-0.01 1.03,0 2.01,0.42 2.71,1.17 0.46,0.55 0.76,1.31 1.43,1.56 0.16,0.03 0.33,0.05 0.49,0.05 0.16,0 0.33,-0.02 0.49,-0.05 1.65,-0.17 3.4,-0.37 4.67,-1.44 1.22,-1.09 1.93,-2.65 1.96,-4.29 0,-0.61 -0.27,-1.24 0.66,-1.37 0.72,-0.1 1.28,0.65 1.64,1.14 1.43,1.68 2.51,3.63 3.15,5.74 0.19,-0.08 0.39,-0.12 0.6,-0.12 0.01,0 0.02,0 0.04,0 0.84,0 1.62,0.41 2.1,1.1 0.44,0.69 0.68,1.49 0.68,2.31 0,0.23 -0.02,0.45 -0.05,0.68l0 0z"/>
   <path class="fil11" d="M1051.49 710.54c-0.3,2.36 -1.8,4.4 -3.44,6.13 -1.75,1.6 -3.37,3.37 -4.81,5.27 -1.63,2.47 -2.34,5.52 -4.44,7.61 -0.79,0.77 -1.69,1.43 -2.66,1.96 -1.09,0.65 -2.26,1.18 -3.46,1.59 -3.13,0.98 -6.5,0.77 -9.8,0.54 -1.06,-0.01 -2.11,-0.22 -3.1,-0.61 -0.46,-0.23 -0.9,-0.49 -1.31,-0.79 -0.8,-0.52 -1.47,-1.21 -1.96,-2.03 0.63,-0.31 1.32,-0.47 2.02,-0.48 1.46,0.08 2.52,1.45 3.92,1.87 1.96,0.6 3.92,-0.8 5.97,-1.28 1.31,-0.3 2.71,-0.22 3.99,-0.64 1.08,-0.42 2.07,-1.02 2.94,-1.78 1.19,-0.85 2.25,-1.88 3.15,-3.04 0.74,-1.16 1.37,-2.4 1.85,-3.69 1.05,-2.47 2.31,-4.87 3.73,-7.15 0.21,-0.36 0.47,-0.69 0.77,-0.98 0.3,-0.28 0.69,-0.49 0.98,-0.75 1.34,-0.98 1.9,-2.72 2.37,-4.32 0.12,-0.5 0.3,-0.98 0.53,-1.44 0.01,0 0.02,0 0.04,0 0.84,0 1.62,0.41 2.1,1.1 0.44,0.68 0.68,1.48 0.68,2.29 0,0.21 -0.02,0.42 -0.05,0.63l0 0z"/>
   <path class="fil12" d="M910.62 501.07c1.66,1.25 3.03,2.85 4,4.68 0.98,1.84 6.36,16.16 6.05,18.21 1.77,-1.78 8.77,-2.08 10.52,-3.85 0.75,-0.75 4.78,-4.47 5.37,-5.34 0.6,-0.86 5.09,-2.71 5.58,-3.6 1.83,-3.29 -13,-15.69 -11.11,-18.98 0.1,-0.14 0.16,-0.31 0.16,-0.48 0,-0.01 0,-0.02 0,-0.03 -0.04,-0.15 -0.13,-0.29 -0.24,-0.39 -1.32,-1.13 -2.76,-2.12 -4.3,-2.94 -1.55,-0.84 -2.73,-2.24 -3.27,-3.92 -1.4,0.64 -2.68,1.51 -3.8,2.57 -2.71,2.32 -5.39,4.7 -8.02,7.14 -1.04,0.98 -3.02,2.22 -3.5,3.59 -0.48,1.36 1.57,2.55 2.56,3.35z"/>
   <path class="fil10" d="M934.63 495.79c-2.27,1.52 -4.41,3.27 -6.35,5.2 -1.84,1.81 -3.59,3.92 -4.05,6.48 -0.19,0.98 -0.16,2.02 -0.31,3.03 -0.66,4.39 -4.47,7.62 -6.15,11.77 -0.49,1.26 -0.86,2.58 -1.08,3.92 -0.47,2.54 -0.73,5.13 -0.76,7.71 0,2.51 2.41,4.24 3.31,6.58 0.74,2.31 1.28,4.71 1.6,7.13 0.98,4.5 2.34,8.96 4.01,13.24 3.31,9.15 14.05,34.45 17.37,43.61 10.15,-2.55 37.18,-8.4 46.16,-13.73 3,-1.79 -20.79,-21.95 -17.58,-23.34 0.37,-0.12 0.68,-0.36 0.89,-0.68 0.05,-0.16 0.08,-0.32 0.08,-0.49 0,-0.17 -0.03,-0.33 -0.08,-0.49 -3.2,-14.01 -13.23,-25.5 -17.77,-39.23 -1.58,-4.74 -4.41,-8.78 -6.57,-13.29 -1.96,-4.08 -2.99,-8.58 -5.32,-12.45 -0.44,-0.8 -1.02,-1.52 -1.7,-2.13 -0.58,-0.44 -1.22,-0.82 -1.88,-1.13 -1.28,-0.68 -2.52,-1.07 -3.81,-1.71z"/>
   <circle class="fil12" cx="911.16" cy="483.59" r="15.89"/>
   <path class="fil11" d="M927.32 491.05c0.98,-0.9 2.27,-1.41 3.61,-1.41 0.82,0 1.63,0.19 2.36,0.55 1.08,0.47 1.78,1.53 1.78,2.7 0,0.05 0,0.11 -0,0.16l7.85 0.12c0.12,-0 0.25,-0 0.37,-0 1.13,0 2.26,0.12 3.36,0.35 1.24,0.27 2.34,0.97 3.12,1.96 0.1,0.13 0.21,0.28 0.36,0.3 0.13,-0 0.26,-0.05 0.36,-0.13 0.97,-0.49 2.05,-0.75 3.13,-0.75 0.26,0 0.53,0.02 0.79,0.05 4.26,0.28 8.2,2.41 11.53,5.07 0.61,0.41 1.09,1 1.37,1.68 0.28,0.89 0,2.04 0.65,2.65 0,7.4 2.54,14.3 4.24,21.51 0.29,1.28 1.53,2.41 2.38,3.42 1.06,1.12 1.92,2.4 2.55,3.8 1.43,3.74 -0.55,8.12 0.85,11.88 0.71,1.53 1.62,2.97 2.71,4.27 1.26,1.59 2.06,3.5 2.31,5.51 0.06,0.9 -0.06,1.8 0,2.71 0.08,1.21 0.3,2.41 0.65,3.57 0.57,2.17 1.18,4.34 1.8,6.49 0.98,3.49 2.35,7.27 5.48,9.13 -7.56,1.28 -15.52,2.53 -22.73,-0.09 -1,-0.35 -1.96,-0.82 -2.83,-1.42 -2.6,-1.85 -3.85,-5.03 -4.97,-8.02 -1.26,-3.36 -2.53,-6.78 -2.78,-10.36 0,-0.02 0,-0.05 0,-0.08 0,-1.12 -0.16,-2.23 -0.47,-3.31 -0.73,-1.96 -2.68,-3.13 -4.46,-4.21 -2,-1.1 -3.81,-2.51 -5.36,-4.18 -1.41,-1.54 -2.2,-3.55 -2.2,-5.64 0,-0.21 0.01,-0.42 0.02,-0.63 0.14,-1.11 0.57,-2.18 0.62,-3.3 0.01,-0.1 0.02,-0.21 0.02,-0.31 0,-1.04 -0.61,-1.98 -1.55,-2.4 -5.5,-1.67 -8.13,-8.18 -9.36,-13.8 -0.47,-2.6 -0.71,-5.26 -0.71,-7.91 0,-0.31 0,-0.62 0.01,-0.92l-0.07 -5.68c-1.54,-1.4 -2.43,-3.36 -2.47,-5.43 0.05,-0.3 0.07,-0.6 0.07,-0.9 0,-0.3 -0.02,-0.6 -0.07,-0.9 -0.26,-0.74 -0.69,-1.42 -1.26,-1.96 -1.23,-1.21 -2.26,-2.62 -3.05,-4.16l0 0z"/>
   <path class="fil11" d="M910.39 509.22c-0.18,1.77 0.23,3.59 -0.18,5.33 -0.16,0.67 -0.42,1.31 -0.62,1.96 -0.21,0.87 -0.31,1.77 -0.31,2.66 0,1.66 0.36,3.3 1.05,4.81 1.07,2.32 2.34,4.54 3.81,6.62 0.51,0.71 0.92,1.48 1.23,2.29 0.25,0.85 0.41,1.73 0.47,2.62 0.38,3.53 1.02,7.08 1.87,10.53 0.75,3.02 1.72,6.07 3.71,8.46 0.36,0.52 0.91,0.89 1.53,1.04 0.03,0 0.07,0 0.1,0 0.42,0 0.83,-0.09 1.21,-0.28l4.06 -1.54c0.36,-0.1 0.69,-0.28 0.98,-0.51 0.37,-0.44 0.57,-1 0.57,-1.57 0,-0 0,-0.01 0,-0.02 0.28,-3.27 -0.7,-6.52 -1.78,-9.62 -3.29,-9.36 -7.67,-18.37 -9.81,-28.05 -0.6,-2.71 -0.91,-6.86 -2.88,-8.97 -0.81,-0.88 -0.54,-0.51 -1.51,0 -0.49,0.22 -0.97,0.47 -1.42,0.76 -1.18,0.78 -1.94,2.06 -2.07,3.47l0 0z"/>
   <path class="fil3" d="M922.63 526.97c1.08,5.71 2.18,11.42 3.3,17.13l15.77 -4.14c0.13,-1.65 -0.75,-3.18 -1.36,-4.72 -1.44,-3.61 -1.47,-7.62 -2.64,-11.32 -0.88,-2.82 -2.41,-5.42 -3.24,-8.27 -0.48,-1.65 -0.72,-3.37 -1.19,-5.03 -0.51,-1.63 -1.13,-3.24 -1.85,-4.79 -0.89,-2.25 -2.05,-4.4 -3.44,-6.38 -2.02,0.75 -4.17,1.63 -5.32,3.44 -0.6,1.03 -0.94,2.2 -0.98,3.39 -0.27,3.55 0.98,7.11 0.58,10.62 -0.16,1.3 -0.25,2.61 -0.25,3.92 0,2.06 0.21,4.13 0.61,6.15l0 0z"/>
   <path class="fil11" d="M941.97 603.06c0.88,3.37 -0.4,6.86 -1.44,10.22 -1.57,5 -2.66,10.17 -3.21,15.38 -0.06,1.34 -0.33,2.67 -0.8,3.93 -0.58,1.07 -1.23,2.13 -1.91,3.13 -1.59,2.8 -1.55,6.24 -1.21,9.44 0.23,2.12 0.57,4.23 0.98,6.32 0.52,2.54 1.16,5.21 0.41,7.69 1.24,-0.27 2.1,1.33 2.05,2.62 -0.05,1.28 -0.5,2.66 0.11,3.78 1.55,0.56 1.57,2.69 1.52,4.32 0.02,2.86 0.38,5.71 1.07,8.48 2.34,11.24 4.83,22.44 7.45,33.62 5.68,1.76 12.31,3.6 17.72,1.16 1.07,-0.35 1.91,-1.19 2.24,-2.26 0.01,-0.13 0.02,-0.25 0.02,-0.38 0,-0.46 -0.08,-0.92 -0.23,-1.36l-2.57 -9.34c-0.63,-1.82 -0.96,-3.74 -0.96,-5.67 0,-0.4 0.01,-0.8 0.04,-1.19 0.26,-1.73 0.98,-3.6 0.16,-5.12 -0.3,-0.52 -0.75,-0.98 -1.08,-1.43 -1.35,-1.96 -0.65,-4.6 -0.53,-6.99 0.01,-0.13 0.01,-0.27 0.01,-0.4 0,-0.4 -0.05,-0.8 -0.13,-1.19 -0.18,-0.61 -0.44,-1.2 -0.75,-1.76 -1.95,-3.78 -2.96,-7.99 -2.96,-12.25 0,-0.36 0.01,-0.73 0.02,-1.09 0.02,-0.15 0.03,-0.3 0.03,-0.45 0,-0.45 -0.09,-0.89 -0.27,-1.3 -0.17,-0.22 -0.31,-0.46 -0.43,-0.7 -0.04,-0.15 -0.06,-0.3 -0.06,-0.45 0,-0.29 0.07,-0.57 0.19,-0.83 -0.77,-0.56 -1.47,-1.22 -2.07,-1.96 0.83,-0.54 1.34,-1.47 1.34,-2.46 0,-0.77 -0.3,-1.52 -0.85,-2.07 0.71,-0.14 1.22,-0.76 1.22,-1.48 0,-0.42 -0.18,-0.83 -0.49,-1.12 -0.33,-0.23 -0.77,-0.33 -0.98,-0.67 -0.36,-0.49 -0.07,-1.19 0.23,-1.72l1.57 -2.83c1.17,-2.1 1.43,-4.7 2.69,-6.74 1.69,-2.99 3.09,-6.17 4.14,-9.45l4.47 -12.45 3.04 2.64c1.01,0.78 1.87,1.75 2.5,2.86 0.43,1.09 0.7,2.24 0.8,3.41 1.12,6.77 5.38,12.63 6.96,19.31 0.22,1.51 0.71,2.97 1.43,4.32 0.3,0.39 0.58,0.8 0.82,1.24 0.22,0.66 0.34,1.35 0.34,2.05 0.28,2.76 1.75,5.27 4.03,6.86 1.49,0.98 3.38,1.74 4.17,3.36 0.17,0.5 0.4,0.99 0.69,1.43 0.73,0.87 2.29,0.98 2.61,2.07 0.17,0.62 -0.16,1.34 0.2,1.88 0.19,0.25 0.44,0.44 0.73,0.55l4.39 2.2c4.9,2.44 7.37,8.04 10.99,12.15 1.24,1.33 2.36,2.79 3.29,4.35 1.56,2.78 2.29,6.29 4.9,8.08 0.7,0.37 1.35,0.85 1.9,1.41 0.83,1.09 0.53,2.62 0.6,3.99 0.07,1.37 1.13,3 2.43,2.59 -0.23,0.82 -0.35,1.68 -0.35,2.53 0,0.86 0.12,1.71 0.35,2.54 5.72,-0.29 11.18,-2.51 15.49,-6.28 1.28,-1.12 2.51,-2.54 2.52,-4.23 0,-0.02 0,-0.05 0,-0.08 0,-0.26 -0.06,-0.53 -0.19,-0.76 -0.25,-0.33 -0.59,-0.59 -0.98,-0.74 -4.09,-2.22 -5.32,-7.35 -7.38,-11.53 -1.82,-3.68 -4.48,-6.86 -6.75,-10.28 -4.9,-7.35 -8.18,-16.25 -15.54,-21.11 -1.62,-1.07 -3.5,-2.02 -4.3,-3.78 -0.34,-1.03 -0.63,-2.08 -0.86,-3.14 -0.28,-1.07 -1.2,-1.86 -2.31,-1.96 0.37,-1.27 0.56,-2.6 0.56,-3.93 0,-0.32 -0.01,-0.65 -0.03,-0.97 0.01,-0.12 0.01,-0.24 0.01,-0.36 0,-0.59 -0.09,-1.18 -0.26,-1.75 -0.28,-0.73 -0.64,-1.43 -1.08,-2.08 -1.82,-3.09 -2.78,-6.63 -2.78,-10.22 0,-0.19 0,-0.38 0.01,-0.57 0.06,-1.96 0.4,-3.92 -0.19,-5.79 -0.3,-0.98 -0.81,-1.8 -1.17,-2.71 -0.54,-1.63 -0.82,-3.34 -0.84,-5.05l-0.4 -6.46c-0.05,-2.15 -0.34,-4.29 -0.83,-6.38 -1.36,-5.01 -2.67,-26.01 -7.28,-28.37 -4.62,-2.36 -12.5,13.79 -17.65,14.11 -2.3,0.1 -4.57,0.54 -6.75,1.29 -3.44,1.29 -6.34,3.71 -9.15,6.07l-9.53 8c-1.81,1.62 -3.8,3.06 -5.91,4.26l0 0z"/>
   <path class="fil11" d="M896.24 465.95c2.24,-2.82 5.64,-4.48 9.25,-4.51 0,0 0.01,0 0.01,0 3.56,0 7.07,0.89 10.21,2.57 0.92,0.53 1.91,0.94 2.94,1.23 1.69,0.34 3.55,-0.12 5.07,0.69 2.02,1.07 2.4,3.8 2.23,6.07 -0.18,2.28 -0.6,4.77 0.61,6.72 0.42,0.56 0.82,1.14 1.17,1.75 0.17,0.55 0.26,1.13 0.26,1.71 0,0.69 -0.12,1.38 -0.36,2.03 -0.69,-0.79 -1.35,-1.61 -1.96,-2.46 -0.7,-0.77 -1.91,-1.3 -2.78,-0.72 -0.86,0.58 -0.86,1.65 -0.9,2.6 -0.04,0.95 -0.29,2.1 -1.2,2.41 -0.12,0.02 -0.24,0.04 -0.37,0.04 -0.63,0 -1.23,-0.3 -1.59,-0.82 -1.54,-1.88 -0.92,-4.9 -2.44,-6.79 -0.87,-1.08 -2.31,-1.6 -3.12,-2.73 -0.63,-0.88 -0.78,-2.03 -1.33,-2.94 -0.55,-0.91 -1.83,-1.66 -2.7,-0.98 -0.29,0.28 -0.54,0.62 -0.72,0.98 -0.77,1.1 -2.04,1.76 -3.38,1.76 -0.52,0 -1.04,-0.1 -1.52,-0.29 -0.66,-0.4 -1.38,-0.71 -2.13,-0.91 -0.05,-0 -0.1,-0 -0.15,-0 -0.94,0 -1.81,0.5 -2.27,1.32 -0.42,0.77 -0.65,1.63 -0.65,2.51 0,0.1 0,0.19 0.01,0.29 0,1.32 0.23,2.78 -0.53,3.85 -0.31,0.4 -0.7,0.73 -1.14,0.98 -1.13,0.72 -2.67,1.19 -3.73,0.38 -0.57,-0.53 -0.89,-1.27 -0.89,-2.05 0,-0.19 0.02,-0.38 0.06,-0.56 0.2,-0.93 0.47,-1.86 0.79,-2.76 0.59,-2.08 -0.18,-4.42 0.47,-6.38 0.69,-1.78 1.63,-3.46 2.78,-4.97l0 0z"/>
   <path class="fil3" d="M904.76 513.34c-0.03,0.16 -0.05,0.33 -0.05,0.49 0,0.33 0.07,0.66 0.2,0.97 0.2,0.31 0.47,0.58 0.79,0.76 2.26,1.4 4.84,2.23 7.49,2.42 0.34,0.01 0.68,0.1 0.98,0.26 0.38,0.35 0.59,0.84 0.59,1.36 0,0.25 -0.05,0.5 -0.15,0.73 -0.31,0.7 -0.47,1.45 -0.47,2.22 0.2,1.4 1.85,2.04 3.27,2.22 0.5,0.1 1,0.15 1.51,0.15 1.48,0 2.93,-0.43 4.17,-1.25 1.05,-0.96 1.86,-2.17 2.34,-3.52 3.85,-8.82 5.21,-18.63 9.11,-27.46 0.3,-0.57 0.5,-1.19 0.59,-1.83 0.01,-0.08 0.01,-0.15 0.01,-0.23 0,-0.58 -0.28,-1.12 -0.74,-1.47 -0.72,-0.45 -1.85,-0.2 -2.34,-0.89 -0.24,-0.36 -0.21,-0.84 -0.43,-1.22 -0.45,-0.8 -1.63,-0.7 -2.44,-1.14 -0.63,-0.34 -1.07,-0.98 -1.77,-1.17 -0.04,-0 -0.08,-0 -0.12,-0 -0.66,0 -1.29,0.29 -1.72,0.8 -2.29,2.14 -3.49,5.17 -4.77,8.03 -1.95,4.37 -4.27,8.64 -6.87,12.66 0.3,-0.47 -1.45,-4.05 -2.14,-4.19 -1.2,-0.25 -2.75,1.86 -3.39,2.66 -2.01,2.47 -3.28,5.46 -3.65,8.62l0 0z"/>
   <rect class="fil9" x="912.78" y="525.89" width="76.52" height="76.52"/>
   <path class="fil12" d="M988.67 568.04c-1.31,1.16 -2.53,2.44 -3.63,3.8 -1.08,1.34 -1.67,3.02 -1.67,4.74 0,0.05 0,0.11 0,0.16 0.01,0.51 0.17,1.01 0.47,1.43 0.23,0.3 0.59,0.48 0.98,0.48 0.13,0 0.26,-0.02 0.39,-0.06 0.27,-0.14 0.49,-0.35 0.67,-0.6 0.7,-0.86 1.46,-1.68 2.26,-2.45 0.29,-0.28 0.67,-0.59 1.06,-0.48 0.18,0.06 0.33,0.17 0.46,0.3 0.46,0.39 0.81,0.9 0.98,1.48 0.01,0.12 0.02,0.23 0.02,0.35 0,0.94 -0.38,1.85 -1.06,2.51 -0.76,0.73 -1.36,1.62 -1.75,2.6 -0.05,0.13 -0.08,0.27 -0.08,0.42 0,0.14 0.03,0.28 0.08,0.42 0.13,0.19 0.31,0.35 0.52,0.45 1.11,0.6 2.36,0.92 3.62,0.92 0.93,0 1.86,-0.17 2.73,-0.51 1.36,-0.54 2.54,-1.48 3.92,-1.96 0.6,-0.16 1.18,-0.38 1.73,-0.65 0.8,-0.53 1.36,-1.35 1.54,-2.29 0.11,-0.59 0.16,-1.19 0.16,-1.79 0,-0.35 -0.02,-0.7 -0.06,-1.05 -0.17,-3.67 -0.97,-7.29 -2.36,-10.69 -0.08,-0.22 -0.21,-0.42 -0.39,-0.57 -0.2,-0.12 -0.42,-0.18 -0.65,-0.19 -1.72,-0.18 -4.54,-1.06 -6.2,-0.42 -0.58,0.32 -1.08,0.76 -1.46,1.31 -0.38,0.34 -2.29,1.88 -2.29,2.33z"/>
   <g>
    <path class="fil11" d="M988.09 566.52c0,-1.65 -2.04,-5.6 1.19,-5.88 0,-1.75 -2.48,-2.84 -2.03,-4.69 0.16,-0.63 0.66,-1.13 0.74,-1.75 0.21,-1.8 -3.03,-2.77 -2.5,-4.49 0.2,-0.66 0.91,-1.06 1.07,-1.73 0.36,-1.55 -2.41,-2.25 -2.46,-3.83 0,-0.54 0.29,-1.05 0.27,-1.58 0,-0.68 -0.59,-1.19 -0.91,-1.77 -0.83,-1.5 -0.43,-3.83 -1.96,-4.59 0.98,0.08 1.36,-1.42 0.93,-2.34 -0.43,-0.92 -1.28,-1.72 -1.28,-2.74 0.02,-0.19 0.04,-0.37 0.04,-0.56 0,-0.19 -0.01,-0.38 -0.04,-0.56 -0.28,-0.98 -1.89,-1.05 -2.16,-2.03 -0.01,-0.18 -0.02,-0.37 -0.02,-0.56 0,-0.18 0.01,-0.37 0.02,-0.55 -0.1,-0.77 -0.88,-1.24 -1.62,-1.46 -0.76,-0.12 -1.49,-0.38 -2.16,-0.77 -0.47,-0.36 -0.98,-0.98 -1.52,-0.64 -0.19,0.11 -0.28,0.32 -0.43,0.49 -0.6,0.7 -1.75,0.39 -2.51,-0.13 -2.24,-1.52 -3.35,-4.26 -3.84,-6.92 -0.49,-2.67 -0.46,-5.42 -1.05,-8.07 -0.18,-0.82 -0.42,-1.63 -0.72,-2.41 -0.46,-0.76 -0.84,-1.57 -1.14,-2.41 -0.12,-1.54 3.08,-0.49 4.29,-0.33 1.18,0.11 2.35,0.33 3.49,0.66 1.21,0.46 2.41,0.98 3.56,1.56 4.9,2.15 10.71,2.41 14.61,6.01 1.28,1.19 2.36,2.74 4.02,3.27 0.76,0.15 1.52,0.35 2.25,0.58 1.85,0.87 2.14,3.32 3.15,5.1 0.32,0.47 0.6,0.96 0.83,1.47 0.18,0.56 0.27,1.15 0.27,1.74 0,0.05 0,0.1 0,0.14l0.14 4.66c0.23,7.84 0.46,15.62 -0.37,23.38 -0.27,2.55 -0.66,5.19 0.09,7.65 0.2,0.67 0.48,1.3 0.65,1.96 0.16,0.79 0.24,1.61 0.26,2.42l0.11 3.01c0.01,0.05 0.01,0.11 0.01,0.16 0,0.19 -0.06,0.38 -0.16,0.54 -0.17,0.14 -0.39,0.22 -0.62,0.22 -0.07,0 -0.13,-0.01 -0.2,-0.02 -4.21,-0.37 -8.44,-2.75 -12.41,-1.31l0.12 -0.88zm0 0l0 0 0 0z"/>
   </g>
   <path class="fil12" d="M909.89 554.23c-0.19,0.09 -0.35,0.23 -0.47,0.39 -0.42,0.58 -0.65,1.27 -0.65,1.99 0,0.72 0.23,1.42 0.66,1.99 0.1,0.12 0.18,0.25 0.23,0.39 0,0.05 0.01,0.09 0.01,0.14 0,0.18 -0.05,0.36 -0.13,0.53 -0.16,0.31 -0.25,0.66 -0.25,1.01 0,0.54 0.19,1.05 0.55,1.46 0.3,0.26 0.72,0.38 0.91,0.72 0.34,0.57 -0.14,1.3 -0.06,1.96 0.1,0.87 1.13,1.3 1.96,1.41 0.16,0.04 0.32,0.06 0.48,0.06 0.53,0 1.04,-0.2 1.43,-0.57 0.17,-0.26 0.26,-0.56 0.26,-0.87 0,-0.31 -0.09,-0.61 -0.26,-0.87 -0.34,-0.51 -0.78,-0.95 -1.29,-1.29 0.98,-0.05 1.77,-0.82 1.85,-1.8 0,-0.07 0.01,-0.14 0.01,-0.21 0,-0.88 -0.42,-1.71 -1.12,-2.24 -0.18,-0.15 -0.39,-0.3 -0.44,-0.53 -0.05,-0.23 0.19,-0.56 0.4,-0.78 0.98,-0.98 1.73,-3.38 -0.11,-3.92 -0.26,-0.05 -0.52,-0.07 -0.78,-0.07 -0.4,0 -0.8,0.05 -1.18,0.15 -0.47,0.15 -0.47,0.43 -0.83,0.63 -0.36,0.2 -0.77,0.1 -1.18,0.3z"/>
   <path class="fil4" d="M929.16 486.5c-0.98,0.02 -1.89,0.48 -2.49,1.26 -0.61,1.01 -0.97,2.15 -1.04,3.33 -0.6,3.77 -1.94,7.39 -3.92,10.65m7.45 -15.24l0 0 0 0z"/>
   <path class="fil4" d="M932.59 489.19c-1.36,0.03 -2.6,0.77 -3.26,1.96 -0.45,1.06 -0.72,2.18 -0.82,3.32 -0.57,2.53 -1.69,4.91 -3.27,6.97m7.34 -12.26l0 0 0 0z"/>
   <g>
    <path class="fil13" d="M299.96 551.66c0.57,6.2 -4.11,12.2 -2.75,18.26 0.3,1.3 0.85,2.52 1.06,3.83 0.56,3.6 -1.59,7.01 -3.64,10.02l-17.59 25.83c-0.71,1.13 -1.56,2.18 -2.52,3.11 -3.37,2.94 -8.41,2.68 -12.84,3.57 -3.1,0.63 -6.04,1.94 -8.59,3.8 -0.14,0.11 -0.22,0.27 -0.22,0.45 0,0.12 0.04,0.23 0.11,0.33 1.4,1.89 3.61,3.01 5.96,3.01 0.14,0 0.29,-0 0.43,-0.01 0.46,0.61 0,1.5 -0.64,1.96 -0.98,0.66 -2.24,0.82 -2.43,2.43 -0.01,0.1 -0.02,0.21 -0.02,0.31 0,0.45 0.12,0.9 0.34,1.3 0.71,1.09 1.81,1.85 3.08,2.14 6.09,1.86 12.68,-1.4 17.23,-5.88 4.55,-4.48 7.84,-10.07 12.32,-14.61 2.48,-2.5 5.3,-4.66 7.84,-7.09 5.1,-4.84 9.05,-10.79 12.87,-16.67 1.24,-1.71 2.19,-3.64 2.78,-5.67 0.47,-2.02 0.26,-4.15 0.81,-6.15 0.7,-2.61 2.63,-4.7 4.22,-6.86 3.13,-4.29 5.21,-9.56 4.79,-14.86 -0.41,-5.29 -3.69,-10.53 -8.69,-12.32 -0.92,-0.37 -1.91,-0.56 -2.91,-0.56 -0.67,0 -1.34,0.09 -1.99,0.26 -2.05,0.64 -3.56,2.33 -4.96,3.92l-3.33 3.86c-0.84,0.84 -1.51,1.84 -1.96,2.94 -0.14,0.35 -0.21,0.73 -0.21,1.11 0,0.81 0.32,1.59 0.89,2.17l0.55 -3.92zm0 0l0 0 0 0z"/>
   </g>
   <path class="fil14" d="M299.96 551.66c0.57,6.2 -4.11,12.2 -2.75,18.26 0.3,1.3 0.85,2.52 1.06,3.83 0.56,3.6 -1.59,7.01 -3.64,10.02l-17.59 25.83c-0.71,1.13 -1.56,2.18 -2.52,3.11 -3.37,2.94 -8.41,2.68 -12.84,3.57 -3.1,0.63 -6.04,1.94 -8.59,3.8 -0.14,0.11 -0.22,0.27 -0.22,0.45 0,0.12 0.04,0.23 0.11,0.33 1.4,1.89 3.61,3.01 5.96,3.01 0.14,0 0.29,-0 0.43,-0.01 0.46,0.61 0,1.5 -0.64,1.96 -0.98,0.66 -2.24,0.82 -2.43,2.43 -0.01,0.1 -0.02,0.21 -0.02,0.31 0,0.45 0.12,0.9 0.34,1.3 0.71,1.09 1.81,1.85 3.08,2.14 6.09,1.86 12.68,-1.4 17.23,-5.88 4.55,-4.48 7.84,-10.07 12.32,-14.61 2.48,-2.5 5.3,-4.66 7.84,-7.09 5.1,-4.84 9.05,-10.79 12.87,-16.67 1.24,-1.71 2.19,-3.64 2.78,-5.67 0.47,-2.02 0.26,-4.15 0.81,-6.15 0.7,-2.61 2.63,-4.7 4.22,-6.86 3.13,-4.29 5.21,-9.56 4.79,-14.86 -0.41,-5.29 -3.69,-10.53 -8.69,-12.32 -0.92,-0.37 -1.91,-0.56 -2.91,-0.56 -0.67,0 -1.34,0.09 -1.99,0.26 -2.05,0.64 -3.56,2.33 -4.96,3.92l-3.33 3.86c-0.84,0.84 -1.51,1.84 -1.96,2.94 -0.14,0.35 -0.21,0.73 -0.21,1.11 0,0.81 0.32,1.59 0.89,2.17m0.55 -3.92l0 0 0 0z"/>
   <path class="fil12" d="M165.95 577.99c0.98,3.1 1.96,6.2 3.15,9.22 2.16,5.23 4.92,10.22 8.15,14.86 2.07,3.05 4.34,6.02 6.73,8.83 3,3.54 6.35,7.1 7.41,11.62 0.62,2.61 0.41,5.34 0.67,8.01 0.26,2.67 1.13,5.5 3.29,7.1 1.64,1.01 3.5,1.62 5.42,1.78 1.35,0.22 3.05,0.28 3.76,-0.89 0.24,-0.47 0.37,-1 0.37,-1.53 0,-0.01 0,-0.01 0,-0.02l0.33 -3.92c0.07,-0.84 0.36,-1.96 1.21,-1.96 0.84,0 1.28,1.09 1.96,1.59 0.31,0.17 0.66,0.25 1.01,0.25 0.83,0 1.58,-0.48 1.93,-1.24 0.23,-0.58 0.35,-1.2 0.35,-1.82 0,-0.55 -0.09,-1.09 -0.27,-1.61 -1.18,-4.48 -4.23,-8.26 -8.36,-10.36 -1.42,-0.58 -2.79,-1.3 -4.08,-2.13 -1.31,-1.13 -2.4,-2.51 -3.2,-4.04 -7.41,-12.21 -14.87,-24.51 -20.1,-37.76 -1.03,-2.37 -1.73,-4.88 -2.07,-7.44 -0.02,-0.64 -0.04,-1.31 -0.04,-1.95 0,-1.96 0.12,-3.95 0.36,-5.9 0.06,-0.96 0.09,-1.95 0.09,-2.92 0,-3.73 -0.47,-7.47 -1.39,-11.09 -0.26,-1.2 -0.71,-2.35 -1.35,-3.4 -2.15,-3.27 -7.22,-3.76 -10.41,-1.5 -2.38,1.83 -3.88,4.58 -4.14,7.57 -0.23,2.64 1.29,5.39 2.07,7.84 2.4,7.6 4.78,15.19 7.16,22.8z"/>
   <path class="fil14" d="M165.95 577.99c0.98,3.1 1.96,6.2 3.15,9.22 2.16,5.23 4.92,10.22 8.15,14.86 2.07,3.05 4.34,6.02 6.73,8.83 3,3.54 6.35,7.1 7.41,11.62 0.62,2.61 0.41,5.34 0.67,8.01 0.26,2.67 1.13,5.5 3.29,7.1 1.64,1.01 3.5,1.62 5.42,1.78 1.35,0.22 3.05,0.28 3.76,-0.89 0.24,-0.47 0.37,-1 0.37,-1.53 0,-0.01 0,-0.01 0,-0.02l0.33 -3.92c0.07,-0.84 0.36,-1.96 1.21,-1.96 0.84,0 1.28,1.09 1.96,1.59 0.31,0.17 0.66,0.25 1.01,0.25 0.83,0 1.58,-0.48 1.93,-1.24 0.23,-0.58 0.35,-1.2 0.35,-1.82 0,-0.55 -0.09,-1.09 -0.27,-1.61 -1.18,-4.48 -4.23,-8.26 -8.36,-10.36 -1.42,-0.58 -2.79,-1.3 -4.08,-2.13 -1.31,-1.13 -2.4,-2.51 -3.2,-4.04 -7.41,-12.21 -14.87,-24.51 -20.1,-37.76 -1.03,-2.37 -1.73,-4.88 -2.07,-7.44 -0.02,-0.64 -0.04,-1.31 -0.04,-1.95 0,-1.96 0.12,-3.95 0.36,-5.9 0.06,-0.96 0.09,-1.95 0.09,-2.92 0,-3.73 -0.47,-7.47 -1.39,-11.09 -0.26,-1.2 -0.71,-2.35 -1.35,-3.4 -2.15,-3.27 -7.22,-3.76 -10.41,-1.5 -2.38,1.83 -3.88,4.58 -4.14,7.57 -0.23,2.64 1.29,5.39 2.07,7.84 2.4,7.6 4.78,15.19 7.16,22.8z"/>
   <path class="fil15" d="M314.75 694.43c-3.84,2.34 -8.63,2.48 -13.1,1.96 -0.72,-0.09 -1.57,-0.15 -2.03,0.41 -0.67,0.8 0.12,1.96 0.93,2.65 2.64,1.97 5.74,3.24 9,3.7 2.8,0.39 5.65,0.59 8.49,0.59 0.11,0 0.23,0 0.34,0 8.03,0.14 16.1,0.27 24.05,-0.89 0.46,-0.03 0.91,-0.16 1.31,-0.38 0.5,-0.36 0.85,-0.9 0.98,-1.51 0.06,-0.36 0.1,-0.72 0.1,-1.08 0,-1.8 -0.81,-3.5 -2.2,-4.64 -1.67,-1.33 -3.57,-2.36 -5.61,-3.01l-6.98 -2.72c-1.64,-0.64 -4.28,-2.33 -6.05,-2.2 -3.29,0.22 -6.46,5.5 -9.24,7.13z"/>
   <path class="fil15" d="M332.3 710.83c-3.14,2.82 -7.22,4.38 -11.44,4.38 -0.09,0 -0.19,-0 -0.28,-0 -1.1,0 -2.63,0.21 -2.63,1.31 0.02,0.33 0.12,0.64 0.31,0.91 1.37,2.27 3.53,3.96 6.06,4.75 1.63,0.39 3.31,0.59 4.99,0.59 0.77,0 1.55,-0.05 2.32,-0.13l7.16 -0.37c1.35,-0.07 2.72,-0.14 4.06,-0.3 1.34,-0.17 2.8,-0.44 4.21,-0.66 2.59,-0.36 5.22,-0.55 7.84,-0.55 0.86,0 1.74,0.03 2.59,0.06 0.19,0.04 0.39,0.05 0.58,0.05 0.73,0 1.44,-0.26 1.99,-0.74 0.64,-0.8 0.26,-1.96 0.06,-2.94 -0.43,-2.07 0,-4.25 -0.4,-6.34 -0.69,-3.65 -3.83,-6.45 -7.31,-7.77 -3.22,-1.23 -8.92,-2.63 -11.97,-0.59 -3.27,2.17 -5.25,5.74 -8.14,8.36z"/>
   <path class="fil11" d="M318.16 618.21c-2.94,3.87 -5.88,8.35 -5.2,13.13 0.39,2.58 1.83,4.85 2.89,7.25 1.33,3.27 2.32,6.7 2.94,10.18 1.09,5.07 2.18,10.15 2.85,15.29 0.52,4.05 0.79,8.15 0.79,12.23 0,1.77 -0.06,3.57 -0.15,5.33 -0.09,1.41 -0.24,2.94 -1.23,3.92 -0.39,0.39 -0.9,0.72 -1.07,1.24 -0.03,0.14 -0.04,0.29 -0.04,0.44 0,0.36 0.09,0.72 0.27,1.03 1.8,3.68 4.92,6.55 8.73,8.03 3.78,1.45 7.8,2.2 11.86,2.22 0.13,0.01 0.25,0.02 0.38,0.02 0.42,0 0.83,-0.08 1.21,-0.23 0.54,-0.33 0.97,-0.82 1.23,-1.4 2.94,-5.59 1.31,-12.34 1.35,-18.63 0,-5.27 1.28,-10.48 1.05,-15.75 -0.19,-4.22 -1.31,-8.33 -1.73,-12.54 -0.68,-6.86 0.59,-13.83 1.85,-20.64 0.98,-5.22 1.96,-10.44 3.19,-15.61 0.62,-3.18 1.77,-6.25 3.37,-9.06 1.37,-2.17 3.24,-3.98 4.81,-6.02 3.62,-4.76 5.59,-10.58 5.59,-16.56 0,-1.14 -0.07,-2.29 -0.21,-3.42 -0.1,-0.71 -10.1,2.53 -10.96,2.94 -3.6,1.51 -6.93,3.64 -9.81,6.28 -2.31,2.19 -4.13,5.14 -6.16,7.61 -2.86,3.49 -5.68,6.99 -8.45,10.52 -3.16,4.04 -6.28,8.11 -9.36,12.21z"/>
   <path class="fil14" d="M318.16 618.21c-2.94,3.87 -5.88,8.35 -5.2,13.13 0.39,2.58 1.83,4.85 2.89,7.25 1.33,3.27 2.32,6.7 2.94,10.18 1.09,5.07 2.18,10.15 2.85,15.29 0.52,4.05 0.79,8.15 0.79,12.23 0,1.77 -0.06,3.57 -0.15,5.33 -0.09,1.41 -0.24,2.94 -1.23,3.92 -0.39,0.39 -0.9,0.72 -1.07,1.24 -0.03,0.14 -0.04,0.29 -0.04,0.44 0,0.36 0.09,0.72 0.27,1.03 1.8,3.68 4.92,6.55 8.73,8.03 3.78,1.45 7.8,2.2 11.86,2.22 0.13,0.01 0.25,0.02 0.38,0.02 0.42,0 0.83,-0.08 1.21,-0.23 0.54,-0.33 0.97,-0.82 1.23,-1.4 2.94,-5.59 1.31,-12.34 1.35,-18.63 0,-5.27 1.28,-10.48 1.05,-15.75 -0.19,-4.22 -1.31,-8.33 -1.73,-12.54 -0.68,-6.86 0.59,-13.83 1.85,-20.64 0.98,-5.22 1.96,-10.44 3.19,-15.61 0.62,-3.18 1.77,-6.25 3.37,-9.06 1.37,-2.17 3.24,-3.98 4.81,-6.02 3.62,-4.76 5.59,-10.58 5.59,-16.56 0,-1.14 -0.07,-2.29 -0.21,-3.42 -0.1,-0.71 -10.1,2.53 -10.96,2.94 -3.6,1.51 -6.93,3.64 -9.81,6.28 -2.31,2.19 -4.13,5.14 -6.16,7.61 -2.86,3.49 -5.68,6.99 -8.45,10.52 -3.16,4.04 -6.28,8.11 -9.36,12.21z"/>
   <path class="fil11" d="M339.4 588.42c0.63,3 3.54,5.3 3.62,8.36 0.07,2.45 -1.68,4.51 -2.94,6.62 -1.19,2.18 -2.19,4.46 -3,6.81 -2.37,6.09 -5.35,11.99 -8.83,17.53 -1.68,2.67 -3.56,5.56 -3.17,8.69 0.27,1.45 0.78,2.86 1.53,4.14l5.04 10.01c1.1,2 1.97,4.13 2.57,6.32 0.44,1.9 0.48,3.92 0.73,5.81 0.79,6.14 3.67,12.32 1.96,18.27 -0.15,0.51 -0.69,1.13 -1.09,0.77 1.67,3.11 3.01,6.25 2.87,9.81 -0.06,1.85 -0.63,3.77 0.06,5.5 0.39,0.64 0.65,1.36 0.77,2.1 0,0.5 -0.23,0.98 -0.28,1.48 -0.14,1.41 1.16,2.6 2.51,3.05 1.35,0.45 2.82,0.42 4.19,0.82 2.63,0.79 4.49,3.04 6.75,4.61 2.28,1.58 4.97,2.46 7.74,2.52 0.07,0.01 0.14,0.01 0.21,0.01 0.33,0 0.65,-0.08 0.93,-0.24 0.4,-0.35 0.63,-0.85 0.64,-1.38 0.02,-0.24 0.04,-0.49 0.04,-0.74 0,-2.3 -1.03,-4.48 -2.81,-5.94 -0.41,-0.28 -0.75,-0.65 -0.98,-1.08 -0.08,-0.26 -0.13,-0.54 -0.13,-0.81 0,-0.13 0.01,-0.27 0.03,-0.4 0.16,-2.22 0.25,-4.45 0.25,-6.68 0,-3.29 -0.19,-6.58 -0.55,-9.85 -0.19,-1.27 -0.29,-2.57 -0.29,-3.85 0,-0.47 0.01,-0.94 0.04,-1.4 0.28,-1.39 0.42,-2.81 0.42,-4.24 0,-0.05 0,-0.1 0,-0.14 -0.31,-1.43 -0.76,-2.85 -1.34,-4.19 -0.77,-2.5 -0.56,-5.19 -0.64,-7.84 -0.28,-4.52 -1.04,-9.04 -2.22,-13.42 -0.26,-1.77 -0.98,-3.44 -2.09,-4.85 -1.05,-1.1 -2.75,-2.14 -2.34,-3.6 0.22,-0.54 0.56,-1.03 0.98,-1.43 0.82,-1.02 1.26,-2.29 1.26,-3.59 0,-0.26 -0.02,-0.53 -0.06,-0.79 0.16,0.04 0.32,0.06 0.49,0.06 0.76,0 1.45,-0.44 1.77,-1.12 8.33,-4.12 14.71,-11.37 17.73,-20.16 0.17,-0.63 0.44,-1.24 0.79,-1.8 0.75,-1.06 2.08,-1.52 3.25,-2.11 3.67,-1.84 6.2,-5.31 8.52,-8.69 1.46,-1.89 2.58,-4.03 3.29,-6.3 0.3,-1.42 0.45,-2.86 0.45,-4.31 0,-0.08 -0,-0.16 -0,-0.24l0.21 -7.84c0.01,-0.12 0.01,-0.23 0.01,-0.35 0,-0.4 -0.05,-0.8 -0.16,-1.19 -0.2,-0.47 -0.49,-0.9 -0.85,-1.26 -2.24,-2.36 -5.17,-3.94 -8.37,-4.51 -2.15,-0.38 -4.34,-0.32 -6.52,-0.49 -4.22,-0.35 -8.38,-1.66 -12.61,-1.35 -6.63,0.49 -12.53,5.09 -15.69,10.95 -1.16,2.1 -2.31,3.86 -4.67,3.93z"/>
   <path class="fil10" d="M119.36 708.51c1.12,0.39 2.31,0.59 3.5,0.59 0.34,0 0.68,-0.02 1.02,-0.05 0.11,-1.25 1.78,-1.52 3.03,-1.46 0.06,-0 0.11,-0 0.17,-0 0.56,0 1.12,0.14 1.61,0.4 0.31,0.2 0.55,0.49 0.85,0.7 0.54,0.3 1.15,0.45 1.76,0.45 0,0 0,0 0,0l6.49 0.55c2.89,0.24 5.88,0.47 8.61,-0.57 0.54,-0.16 1.03,-0.48 1.38,-0.92 0.74,-1.05 0,-2.56 -0.98,-3.33 -0.98,-0.76 -2.32,-1.12 -3.34,-1.9 -2.25,-1.72 -2.56,-4.9 -3.76,-7.49 -0.84,-1.62 -1.88,-3.14 -3.1,-4.5 -0.89,-1.17 -1.92,-2.23 -3.07,-3.14 -2.6,-1.88 -5.6,-1.84 -8.65,-2.11 -2.16,-0.19 -4.19,-0.32 -5.74,1.59 -1.91,2.37 -1.15,7.16 -1.03,9.99 0.12,3.76 0.53,7.51 1.23,11.2l0 0z"/>
   <path class="fil14" d="M119.36 708.51c1.12,0.39 2.31,0.59 3.5,0.59 0.34,0 0.68,-0.02 1.02,-0.05 0.11,-1.25 1.78,-1.52 3.03,-1.46 0.06,-0 0.11,-0 0.17,-0 0.56,0 1.12,0.14 1.61,0.4 0.31,0.2 0.55,0.49 0.85,0.7 0.54,0.3 1.15,0.45 1.76,0.45 0,0 0,0 0,0l6.49 0.55c2.89,0.24 5.88,0.47 8.61,-0.57 0.54,-0.16 1.03,-0.48 1.38,-0.92 0.74,-1.05 0,-2.56 -0.98,-3.33 -0.98,-0.76 -2.32,-1.12 -3.34,-1.9 -2.25,-1.72 -2.56,-4.9 -3.76,-7.49 -0.84,-1.62 -1.88,-3.14 -3.1,-4.5 -0.89,-1.17 -1.92,-2.23 -3.07,-3.14 -2.6,-1.88 -5.6,-1.84 -8.65,-2.11 -2.16,-0.19 -4.19,-0.32 -5.74,1.59 -1.91,2.37 -1.15,7.16 -1.03,9.99 0.12,3.76 0.53,7.51 1.23,11.2l0 0z"/>
   <path class="fil11" d="M121.99 582.33c-1.96,0.64 -2.84,3.11 -2.48,5.17 0.36,2.06 1.6,3.82 2.62,5.64 2.88,5.17 4.14,11.08 6.56,16.47 1.81,4.03 4.27,7.76 6.06,11.77 1.79,4.01 2.94,8.6 1.81,12.88 -0.53,2.09 -1.55,4.01 -2.24,6.05 -0.66,2.23 -1.11,4.54 -1.31,6.86 -0.53,4.78 -0.8,9.61 -0.8,14.42 0,3.08 0.13,6.21 0.33,9.28 0.01,0.96 0.21,1.91 0.6,2.8 0.4,0.78 1.11,1.61 0.76,2.42 -0.14,0.32 -0.43,0.56 -0.58,0.88 -0.41,0.9 0.42,1.84 1.18,2.48 -0.27,0.49 -0.73,0.84 -1.27,0.98 0.87,0.55 1.4,1.51 1.4,2.54 0,0.28 -0.04,0.55 -0.11,0.81 -0.68,0.1 -0.72,1.13 -0.28,1.67 0.43,0.54 1.09,0.88 1.39,1.49 0.08,0.23 0.12,0.47 0.12,0.7 0,0.84 -0.5,1.59 -1.27,1.92 -0.62,0.24 -1.28,0.37 -1.95,0.37 -0.4,0 -0.79,-0.04 -1.18,-0.13 -1.77,-0.24 -3.53,-0.63 -5.24,-1.15 -0.58,-0.14 -1.12,-0.39 -1.61,-0.74 -0.86,-0.84 -1.38,-1.98 -1.44,-3.18 -0.28,-2.32 -0.43,-4.68 -0.43,-7.02 0,-0.93 0.03,-1.87 0.07,-2.79 0.28,-15.85 0,-31.71 -0.69,-47.55 -0.28,-6.37 -2.2,-12.59 -4.67,-18.47 -1.36,-3.01 -2.88,-5.98 -4.55,-8.83 -3.55,-6.53 -6.71,-13.73 -5.88,-21.13 0.09,-0.79 0.38,-1.75 1.17,-1.88 0.06,-0 0.12,-0 0.19,-0 0.25,0 0.49,0.05 0.72,0.16 1.64,0.77 3.23,1.65 4.75,2.63 2.51,1.48 5.35,2.33 8.26,2.47l0 0z"/>
   <path class="fil14" d="M121.99 582.33c-1.96,0.64 -2.84,3.11 -2.48,5.17 0.36,2.06 1.6,3.82 2.62,5.64 2.88,5.17 4.14,11.08 6.56,16.47 1.81,4.03 4.27,7.76 6.06,11.77 1.79,4.01 2.94,8.6 1.81,12.88 -0.53,2.09 -1.55,4.01 -2.24,6.05 -0.66,2.23 -1.11,4.54 -1.31,6.86 -0.53,4.78 -0.8,9.61 -0.8,14.42 0,3.08 0.13,6.21 0.33,9.28 0.01,0.96 0.21,1.91 0.6,2.8 0.4,0.78 1.11,1.61 0.76,2.42 -0.14,0.32 -0.43,0.56 -0.58,0.88 -0.41,0.9 0.42,1.84 1.18,2.48 -0.27,0.49 -0.73,0.84 -1.27,0.98 0.87,0.55 1.4,1.51 1.4,2.54 0,0.28 -0.04,0.55 -0.11,0.81 -0.68,0.1 -0.72,1.13 -0.28,1.67 0.43,0.54 1.09,0.88 1.39,1.49 0.08,0.23 0.12,0.47 0.12,0.7 0,0.84 -0.5,1.59 -1.27,1.92 -0.62,0.24 -1.28,0.37 -1.95,0.37 -0.4,0 -0.79,-0.04 -1.18,-0.13 -1.77,-0.24 -3.53,-0.63 -5.24,-1.15 -0.58,-0.14 -1.12,-0.39 -1.61,-0.74 -0.86,-0.84 -1.38,-1.98 -1.44,-3.18 -0.28,-2.32 -0.43,-4.68 -0.43,-7.02 0,-0.93 0.03,-1.87 0.07,-2.79 0.28,-15.85 0,-31.71 -0.69,-47.55 -0.28,-6.37 -2.2,-12.59 -4.67,-18.47 -1.36,-3.01 -2.88,-5.98 -4.55,-8.83 -3.55,-6.53 -6.71,-13.73 -5.88,-21.13 0.09,-0.79 0.38,-1.75 1.17,-1.88 0.06,-0 0.12,-0 0.19,-0 0.25,0 0.49,0.05 0.72,0.16 1.64,0.77 3.23,1.65 4.75,2.63 2.51,1.48 5.35,2.33 8.26,2.47l0 0z"/>
   <path class="fil11" d="M95.2 563.06c-1.03,-0.66 -2.23,-1.04 -3.45,-1.09 -1.41,0.22 -2.73,0.87 -3.76,1.87 -1.31,1.01 -2.56,2.11 -3.72,3.27 -3.47,3.69 -5.4,8.58 -5.4,13.65 0,2.06 0.32,4.11 0.95,6.07 1.19,3.52 3.34,6.63 5.45,9.67l4.31 6.2c6.58,9.45 13.17,18.9 20.06,28.13 0.01,0.45 0.31,0.85 0.75,0.98 0.26,0.07 0.56,0.06 0.72,0.26 0.06,0.11 0.09,0.24 0.09,0.36 0,0.02 0,0.04 -0,0.06 -0.02,0.67 -0.15,1.33 -0.38,1.96 -0.07,0.13 -0.11,0.28 -0.11,0.44 0,0.08 0.01,0.16 0.03,0.24 0.21,0.52 1.17,0.23 1.46,0.72 0.21,0.31 0,0.74 -0.31,0.98 -0.31,0.24 -0.59,0.58 -0.54,0.98 0.05,0.4 0.71,0.77 0.68,1.26 0,0.28 -0.24,0.48 -0.4,0.7 -0.2,0.29 -0.31,0.64 -0.31,1 0,0.47 0.19,0.93 0.53,1.26 0.45,4.51 -1.96,8.78 -2.48,13.29 -0.77,7.09 2.43,14.01 2.82,21.13 0,0.05 -0,0.09 -0,0.14 0,0.75 0.15,1.5 0.44,2.19 0.67,1.23 2.37,1.96 2.31,3.36 -0.12,0.57 -0.28,1.14 -0.48,1.7 0.01,0.81 0.1,1.63 0.25,2.42 0,0.81 -0.68,1.78 -1.44,1.47 0.57,1.88 1.07,3.78 1.51,5.7l15.1 1.24c0.06,-0.52 0.09,-1.06 0.09,-1.59 0,-0.83 -0.08,-1.67 -0.23,-2.49 -0.31,-1.45 -0.98,-2.81 -1.31,-4.27 -0.15,-0.49 -0.23,-0.99 -0.23,-1.5 0,-0.98 0.29,-1.94 0.83,-2.76 -0.01,0 -0.02,0 -0.03,0 -0.81,0 -1.5,-0.58 -1.64,-1.37 -0.07,-0.38 -0.1,-0.78 -0.1,-1.17 0,-0.39 0.03,-0.79 0.1,-1.17 0.4,-3.92 -1.26,-7.84 -1.21,-11.77 0.05,-3.12 1.14,-6.11 1.7,-9.17 1.18,-6.55 -0.05,-13.66 2.86,-19.61 1.76,-3.61 4.21,-7.61 2.22,-11.1 -0.98,-1.73 -2.7,-2.94 -3.81,-4.53 -0.91,-1.52 -1.61,-3.18 -2.05,-4.9 -2.33,-7.22 -6.09,-13.88 -9.39,-20.71 -0.91,-1.71 -1.59,-3.55 -2.02,-5.44 -0.18,-1.27 -0.27,-2.57 -0.27,-3.85 0,-0.39 0.01,-0.78 0.02,-1.17 -0.01,-3.01 -0.21,-6.05 -0.56,-9.03 -0.07,-1.31 -0.44,-2.59 -1.1,-3.73 -0.64,-0.86 -1.44,-1.59 -2.35,-2.15 -4.95,-3.37 -10.85,-5.32 -16.2,-8.14z"/>
   <path class="fil10" d="M113.29 714.04c1.12,0.39 2.31,0.59 3.5,0.59 0.34,0 0.68,-0.02 1.02,-0.05 0.12,-1.24 1.78,-1.52 3.03,-1.46 0.04,-0 0.07,-0 0.11,-0 0.57,0 1.13,0.14 1.63,0.4 0.31,0.2 0.55,0.49 0.86,0.7 0.53,0.3 1.14,0.45 1.75,0.45 0.01,0 0.01,0 0.02,0l6.48 0.55c2.89,0.25 5.88,0.47 8.62,-0.57 0.54,-0.16 1.02,-0.49 1.37,-0.92 0.74,-1.05 0,-2.56 -0.98,-3.32 -0.98,-0.77 -2.32,-1.12 -3.35,-1.9 -2.24,-1.72 -2.56,-4.9 -3.76,-7.49 -0.84,-1.62 -1.88,-3.14 -3.1,-4.5 -0.88,-1.17 -1.91,-2.23 -3.06,-3.14 -2.61,-1.88 -5.6,-1.84 -8.65,-2.11 -2.17,-0.2 -4.2,-0.33 -5.74,1.59 -1.96,2.37 -1.16,7.16 -1.04,9.99 0.13,3.75 0.58,7.51 1.29,11.2l0 0z"/>
   <rect class="fil9" x="195.17" y="600.3" width="76.52" height="76.52"/>
   <circle class="fil12" cx="180.21" cy="521.96" r="14.95"/>
   <path class="fil12" d="M166.1 526.39c-2.15,1.85 -5.22,1.96 -8.03,2.27 -6.01,0.61 -11.87,2.31 -17.28,5 -0.74,0.33 -1.4,0.79 -1.96,1.38 -0.47,0.63 -0.81,1.36 -0.98,2.14 -0.4,1.33 -0.61,2.72 -0.61,4.11 0,0.36 0.01,0.73 0.04,1.09 0.2,1.7 0.69,3.36 1.44,4.9 2.07,4.29 5.29,7.96 9.28,10.57 0.68,0.5 1.44,0.86 2.25,1.08 1.96,0.41 3.87,-0.73 5.81,-1.24 0.78,-0.2 1.58,-0.3 2.38,-0.3 1.01,0 2.02,0.16 2.98,0.48 1.63,0.54 3.34,1.53 4.9,0.87 1.01,-0.57 1.8,-1.46 2.24,-2.54 1.53,-2.9 2.91,-5.9 4.08,-8.94 0.42,-1.18 0.93,-2.34 1.48,-3.47 1.74,-3.31 4.74,-5.88 6.23,-9.28 0.18,-0.31 0.27,-0.66 0.27,-1.02 0,-0.25 -0.05,-0.5 -0.13,-0.73 -0.28,-0.38 -0.66,-0.68 -1.1,-0.84 -2.2,-1.26 -4.22,-2.85 -5.97,-4.69 -0.98,-0.98 -2.79,-3.49 -4.21,-3.72 -1.55,-0.21 -2.03,1.95 -3.11,2.87z"/>
   <path class="fil10" d="M166.46 556.78c-1.73,0.84 -3.77,0.46 -5.66,0.07 -4.84,-0.98 -9.74,-2.04 -14.22,-4.14 -1.4,-0.53 -2.62,-1.46 -3.49,-2.68 -0.55,-1.04 -0.89,-2.18 -0.98,-3.36l-0.82 -5.56c-0.28,-1.96 0.22,-3.75 0.26,-5.71 0.01,-0.08 0.02,-0.16 0.02,-0.24 0,-0.36 -0.12,-0.72 -0.34,-1.01 -0.24,-0.2 -0.54,-0.31 -0.86,-0.31 -0.04,0 -0.08,0 -0.12,0.01 -2.25,0 -3.6,2.38 -5.18,3.98 -0.9,0.92 -1.99,1.65 -3.18,2.14 -1.44,0.59 -3.22,0.98 -3.8,2.44 -0.24,0.6 -0.21,1.28 -0.46,1.88 -0.98,2.39 -5.3,1.6 -6.38,3.92 -0.31,0.67 -0.29,1.51 -0.81,2.04 -0.52,0.53 -1.47,0.51 -2.26,0.65 -3.12,0.51 -4.64,4.12 -7.31,5.81 -2.25,1.43 -5.14,1.4 -7.55,2.52 -1.25,0.75 -2.57,1.41 -3.92,1.96 -1.05,0.18 -2.12,0.28 -3.19,0.28 -0.45,0 -0.91,-0.02 -1.36,-0.05 -0.04,-0 -0.07,-0 -0.11,-0 -0.29,0 -0.58,0.11 -0.8,0.3 -0.12,0.2 -0.19,0.43 -0.19,0.66 0,0.11 0.01,0.21 0.04,0.32 1.51,9.61 7.98,17.71 17.01,21.31 0.51,0.16 1,0.4 1.45,0.7 1.36,0.98 1.6,3.21 3.14,3.92 0.34,0.12 0.69,0.18 1.05,0.18 0.83,0 1.62,-0.32 2.22,-0.88 0.84,-0.82 1.63,-1.69 2.36,-2.61 1.41,-1.46 3.26,-2.44 5.27,-2.76 1.85,-0.3 3.92,-0.08 5.42,-1.22 0.61,-0.56 1.19,-1.18 1.7,-1.82 1.13,-1.04 2.47,-1.84 3.92,-2.31 3.92,-1.51 8.06,-2.39 12.26,-2.59 3.92,-0.23 7.99,0.14 11.71,-1.15 0.97,-0.29 1.86,-0.79 2.61,-1.47 0.8,-0.86 1.4,-1.9 1.75,-3.03 0.84,-2.43 1.26,-4.98 1.26,-7.54 0,-1.56 -0.16,-3.12 -0.47,-4.64l0 -0z"/>
   <path class="fil10" d="M147.18 534.75c1.11,-0.1 2.22,0 3.32,0 1.31,0 2.59,-0.31 3.92,-0.33 4.23,0.07 7.93,2.88 9.12,6.94 0.07,0.19 0.1,0.39 0.1,0.59 0,0.13 -0.01,0.26 -0.04,0.39 -0.08,0.3 -0.36,0.51 -0.67,0.51 -0.03,0 -0.05,-0 -0.08,-0 -0.43,-1.18 -0.99,-2.31 -1.68,-3.36 -1.24,-1.68 -3.01,-2.91 -5.02,-3.49 -1.15,-0.33 -2.35,-0.49 -3.55,-0.49 -0.88,0 -1.76,0.09 -2.63,0.27 -0.84,0.16 -1.68,0.38 -2.51,0.62l-4.07 1.1c-0.74,0.19 -1.47,0.4 -2.19,0.67 -0.55,0.2 -1.5,0.98 -2.04,0.98 -0.74,0 -0.14,-0.64 0.19,-1.07 0.65,-0.89 1.56,-1.55 2.61,-1.89 1.67,-0.69 3.43,-1.17 5.22,-1.43l0 0z"/>
   <path class="fil12" d="M157.26 579.67c0.98,3.1 1.96,6.2 3.15,9.22 2.16,5.23 4.91,10.23 8.16,14.87 2.08,3.05 4.34,6.02 6.73,8.83 3,3.54 6.35,7.1 7.41,11.62 0.62,2.61 0.41,5.34 0.67,8.01 0.25,2.67 1.13,5.5 3.28,7.1 1.64,1.01 3.5,1.62 5.42,1.78 1.35,0.21 3.05,0.28 3.76,-0.89 0.24,-0.47 0.37,-1 0.37,-1.54 0,-0 0,-0.01 0,-0.02l0.32 -3.92c0.08,-0.84 0.37,-1.96 1.22,-1.96 0.84,0 1.27,1.09 1.96,1.59 0.31,0.17 0.66,0.26 1.01,0.26 0.83,0 1.58,-0.48 1.93,-1.24 0.23,-0.58 0.35,-1.2 0.35,-1.82 0,-0.55 -0.09,-1.09 -0.27,-1.61 -1.18,-4.49 -4.21,-8.26 -8.35,-10.37 -1.42,-0.58 -2.79,-1.3 -4.08,-2.13 -1.31,-1.13 -2.4,-2.5 -3.21,-4.04 -7.42,-12.21 -14.88,-24.51 -20.1,-37.76 -1.03,-2.37 -1.73,-4.88 -2.07,-7.44 -0.02,-0.64 -0.04,-1.3 -0.04,-1.95 0,-1.96 0.12,-3.95 0.36,-5.9 0.06,-1 0.1,-2.02 0.1,-3.03 0,-3.71 -0.46,-7.4 -1.37,-10.99 -0.26,-1.2 -0.71,-2.35 -1.35,-3.4 -2.15,-3.28 -7.22,-3.76 -10.41,-1.5 -2.38,1.83 -3.88,4.58 -4.14,7.57 -0.23,2.64 1.3,5.39 2.07,7.84 2.36,7.62 4.73,15.23 7.1,22.83z"/>
   <path class="fil11" d="M201.97 511.39c0.12,-1.25 -0.98,-2.37 -2.26,-3.17 -1.33,-0.69 -2.62,-1.48 -3.84,-2.36 -1.14,-0.98 -1.76,-2.26 -2.89,-3.24 -1.29,-0.98 -2.75,-1.71 -4.32,-2.15 -3.31,-1.16 -6.8,-1.79 -10.32,-1.85 -0.16,0 -0.33,-0 -0.49,-0 -3.31,0 -6.56,0.9 -9.39,2.61 -0.65,0.4 -1.23,0.93 -1.68,1.56 -0.43,0.77 -0.7,1.61 -0.81,2.48 -0.64,2.68 -1.51,5.31 -2.58,7.84 -1.11,2.82 -2.29,5.75 -4.9,7.92 -2.79,2.33 -7.08,3.68 -8.92,6.49 -0.3,0.38 -0.46,0.84 -0.46,1.32 0,0.17 0.02,0.34 0.06,0.5 0.26,0.7 1.12,1.19 1.89,1.64 4.54,2.61 8.45,5.98 10.47,10.02 0.92,1.7 1.4,3.6 1.4,5.53 0,2.51 -0.82,4.96 -2.32,6.97 -1.05,1.37 -2.5,3 -1.47,4.38 1.56,2.1 6.94,0.9 8.18,3.12 0.16,0.47 0.25,0.96 0.25,1.46 0,0.28 -0.03,0.56 -0.08,0.84 0,2.32 2.25,4.4 4.97,5.47 2.87,0.97 5.88,1.47 8.91,1.47 0.01,0 0.02,0 0.03,0 0.45,-1 0.68,-2.08 0.68,-3.17 0,-0.89 -0.15,-1.78 -0.46,-2.61 -0.16,-0.32 -0.24,-0.67 -0.24,-1.03 0,-0.09 0,-0.19 0.02,-0.28 0.21,-0.5 0.55,-0.94 0.98,-1.27 3.29,-3.1 2.59,-7.66 0.62,-11.34 -1.97,-3.68 -5.03,-7.05 -6.17,-10.92 -0.57,-1.96 -0.58,-4.09 0.98,-5.69 0.87,-0.77 1.82,-1.46 2.82,-2.06 1.77,-1.21 3.13,-2.92 3.92,-4.9 0.91,-2.55 0.77,-5.62 3.46,-7.31 2.69,-1.69 6.17,-1.14 9,-2.23 2.28,-0.91 4.78,-4.24 4.96,-6.05z"/>
   <circle class="fil13" cx="285.82" cy="516.67" r="16.31"/>
   <path class="fil13" d="M300.5 515.99c3.04,4.85 7.93,8.28 13.53,9.46l-1.23 4.45c-2.12,7.67 -4.51,15.79 -10.43,21.1 0.12,-0.63 0.18,-1.26 0.18,-1.89 0,-2.06 -0.65,-4.06 -1.84,-5.74 -1.56,-2.17 -3.43,-4.13 -5.53,-5.79l-9.38 -8.17c-0.29,-0.21 -0.53,-0.48 -0.71,-0.78 -0.11,-0.28 -0.17,-0.59 -0.17,-0.89 0,-0.3 0.06,-0.61 0.17,-0.89 1.2,-3.73 4.61,-6.05 7.38,-8.56 1.39,-1.3 2.64,-2.75 3.72,-4.32 1.92,-2.65 3.13,0.03 4.31,2.02z"/>
   <path class="fil15" d="M302.58 537.08c0.02,0.22 0.02,0.44 0.02,0.66 0,1 -0.17,2 -0.51,2.94 -0.39,0.96 -1.31,1.58 -2.35,1.58 -0.2,0 -0.4,-0.02 -0.6,-0.07 0.34,-0.77 -0.56,-1.66 -1.4,-1.56 -0.84,0.19 -1.54,0.78 -1.86,1.58 -0.41,0.82 -0.63,1.73 -0.63,2.64 0,0.34 0.03,0.68 0.09,1.01 0.27,1.55 1.16,3.03 0.92,4.58 -0.19,1.28 -1.14,2.57 -0.63,3.77 0.33,0.54 0.74,1.04 1.21,1.45 0.59,0.73 0.92,1.65 0.92,2.59 0,1.17 -0.49,2.28 -1.36,3.06l12.75 0.24c-0.47,2.13 0.49,4.3 1.58,6.19 6.18,10.52 16.93,17.54 29.04,18.97 -0.77,0.45 -1.25,1.28 -1.25,2.18 0,0.62 0.23,1.22 0.64,1.68 1.04,1.03 2.78,0.9 4.08,0.23 1.22,-0.79 2.4,-1.67 3.5,-2.62 1.81,-1.3 4,-2.01 6.23,-2.01 0.31,0 0.63,0.02 0.94,0.04 1.6,0.15 3.14,0.66 4.74,0.75 4.71,0.26 8.76,-3.14 13.26,-4.52 3.3,-0.98 7.04,-0.98 9.8,-3.08 1.2,-0.88 2.18,-2.33 1.82,-3.79 -0.29,-0.83 -0.76,-1.58 -1.37,-2.22 -1.6,-2.07 -2.53,-4.55 -3.68,-6.86 -2.26,-4.63 -5.39,-8.82 -9.19,-12.3 -2.86,-2.51 -5.91,-4.83 -9.1,-6.91 -0.77,-0.57 -1.6,-1.07 -2.47,-1.48 -1.15,-0.37 -2.29,-0.84 -3.37,-1.37 -1.5,-0.98 -2.35,-2.6 -3.5,-3.92 -2.52,-2.94 -6.39,-4.28 -9.5,-6.6 -2.08,-1.55 -3.92,-3.59 -6.4,-4.34 -1.21,-0.36 -2.5,-0.39 -3.71,-0.75 -2.75,-0.83 -4.75,-3.28 -7.44,-4.26 -2.13,-0.78 -4.48,-0.58 -6.74,-0.86 -2.49,-0.31 -4.86,-1.21 -6.93,-2.62 -0.67,-0.55 -1.43,-1 -2.24,-1.31 -3.4,-0.98 -3.68,5.32 -4,7.51 -0.51,3.21 -1.35,6.49 -1.35,9.8z"/>
   <g>
    <path class="fil13" d="M305.9 558.37c0.57,6.19 -4.11,12.19 -2.75,18.26 0.29,1.29 0.84,2.52 1.05,3.82 0.57,3.6 -1.58,7 -3.63,10.01l-17.65 25.83c-0.7,1.14 -1.54,2.19 -2.51,3.11 -3.37,2.99 -8.41,2.68 -12.84,3.58 -3.11,0.63 -6.04,1.93 -8.6,3.8 -0.14,0.11 -0.21,0.27 -0.21,0.44 0,0.12 0.04,0.23 0.1,0.33 1.39,1.89 3.6,3.01 5.95,3.01 0.15,0 0.3,-0 0.45,-0.01 0.46,0.61 0,1.51 -0.64,1.96 -0.98,0.66 -2.24,0.83 -2.43,2.43 -0.01,0.1 -0.02,0.21 -0.02,0.31 0,0.46 0.12,0.9 0.33,1.3 0.71,1.09 1.82,1.85 3.09,2.14 6.09,1.86 12.67,-1.41 17.23,-5.88 4.56,-4.47 7.84,-10.07 12.32,-14.61 2.48,-2.51 5.3,-4.66 7.84,-7.09 5.09,-4.9 9.05,-10.79 12.88,-16.67 1.25,-1.72 2.19,-3.64 2.78,-5.68 0.47,-2.01 0.26,-4.15 0.8,-6.14 0.71,-2.62 2.62,-4.71 4.22,-6.86 3.13,-4.3 5.2,-9.56 4.79,-14.87 -0.41,-5.3 -3.7,-10.52 -8.69,-12.32 -0.92,-0.37 -1.9,-0.56 -2.89,-0.56 -0.68,0 -1.35,0.09 -2.01,0.26 -2.05,0.63 -3.56,2.32 -4.96,3.92l-3.34 3.86c-0.84,0.84 -1.5,1.84 -1.96,2.94 -0.14,0.35 -0.21,0.73 -0.21,1.11 0,0.82 0.32,1.6 0.89,2.17l0.61 -3.92zm0 0l0 0 0 0z"/>
   </g>
   <g>
    <path class="fil15" d="M314.8 532.94c-2.31,0.14 -4.9,0.36 -6.5,1.96 -0.68,0.76 -1.24,1.63 -1.63,2.57 -1.59,3.22 -3.14,6.61 -3.25,10.21 -0.1,2.87 0.74,5.69 1.18,8.53 0.36,2.36 -0.56,4.78 -0.74,7.17 3.19,-0.86 6.3,-2.07 9.26,-3.56 1.71,-1.11 3.53,-2.06 5.42,-2.81 2.75,-0.92 7.4,0.66 10.01,1.96 0.15,-1.84 -1.24,-5.05 -1.09,-6.86 0.02,-0.78 0.16,-1.55 0.41,-2.29 0.39,-0.78 0.85,-1.52 1.38,-2.21 0.88,-1.42 1.35,-3.07 1.35,-4.74 0,-2.15 -0.77,-4.22 -2.16,-5.86 -2.33,-2.62 -5.97,-3.6 -9.45,-4.01 -1.55,-0.18 -3.14,-0.27 -4.71,-0.27 -0.63,0 -1.27,0.02 -1.9,0.05l2.41 0.16zm0 0l0 0 0 0z"/>
   </g>
   <path class="fil11" d="M264.33 500.28l-0.37 -3.07c2.58,0.66 5.02,-1.52 6.67,-3.78 1.65,-2.26 3.17,-4.9 5.67,-5.88 3.05,-1.15 6.28,0.69 9.19,2.19 3.25,1.84 6.84,3.03 10.54,3.49 0.59,0.02 1.18,0.12 1.75,0.28 1.89,0.68 2.8,3.05 3.07,5.21 0.28,2.16 0.2,4.45 1.13,6.37 0.72,1.45 1.96,2.54 2.67,3.92 1.96,3.85 0.07,9.13 2.18,12.91l-5.23 -4.78c-0.48,-0.44 -1.16,-0.9 -1.68,-0.53 -0.52,0.37 -0.45,0.98 -0.63,1.44 -0.44,1 -1.42,1.64 -2.51,1.64 -0.42,0 -0.83,-0.1 -1.21,-0.28 -1.32,-0.75 -2.46,-1.79 -3.32,-3.04 -2.17,-2.78 -5.04,-4.95 -8.3,-6.28 -1.22,-0.47 -2.51,-0.71 -3.82,-0.71 -1.73,0 -3.43,0.42 -4.96,1.23 -2.44,1.38 -4.23,4.59 -7.22,4.7 -4.1,0.16 -5.81,-7.47 -7.7,-10.48 0.93,-0.7 1.47,-1.8 1.47,-2.96 0,-0.58 -0.14,-1.15 -0.4,-1.67 0.28,-0.1 2.94,-0.38 3,0.09z"/>
   <path class="fil3" d="M633.26 306.22c-1.63,0.72 -3.36,1.19 -5.12,1.4 1.86,-1.11 3.25,-2.85 3.92,-4.9 -1.75,1.04 -3.67,1.77 -5.67,2.17 -1.68,-1.81 -4.05,-2.84 -6.52,-2.84 -4.92,0 -8.9,3.99 -8.9,8.9 0,0.01 0,0.02 0,0.03 0,0.02 0,0.05 0,0.07 0,0.66 0.08,1.33 0.23,1.97 -7.17,-0.35 -13.86,-3.75 -18.38,-9.33 -0.79,1.36 -1.21,2.91 -1.21,4.48 0,2.99 1.49,5.78 3.97,7.44 -1.42,-0.04 -2.81,-0.42 -4.05,-1.12l0 0.11c0,0 0,0 0,0 0,4.25 2.99,7.91 7.16,8.76 -0.77,0.2 -1.56,0.31 -2.35,0.31 -0.56,0 -1.13,-0.06 -1.68,-0.17 1.17,3.63 4.52,6.12 8.34,6.2 -3.15,2.48 -7.05,3.83 -11.05,3.83 -0.01,0 -0.02,0 -0.03,0 -0.71,-0 -1.42,-0.05 -2.13,-0.13 4.05,2.63 8.78,4.03 13.61,4.03 0.01,0 0.03,0 0.05,0 16.43,0 25.4,-13.6 25.4,-25.41 0,-0.38 0,-0.77 0,-1.15 1.74,-1.27 3.24,-2.85 4.42,-4.64l0 -0z"/>
   <path class="fil3" d="M600.85 498.21l2.94 7.38 19.21 20.37 6.43 -6.06 4.05 4.29 4.28 -4.05 0.25 -8.33 5.35 -5.06 0.43 -14.58 -17.19 -18.22 -25.76 24.26zm38.73 -4.08l-0.25 8.33 -6.43 6.06 -0.25 8.33 -4.04 -4.29 -5.37 5.06 -17.23 -18.23 20.37 -19.21 13.19 13.93z"/>
   <path class="fil3" d="M623.94 490.48l3.22 -3.03 8.16 8.64 -3.22 3.02 -8.16 -8.63zm-7.5 7.08l3.22 -3.04 8.15 8.65 -3.22 3.03 -8.15 -8.64z"/>
   <path class="fil3" d="M245.38 614.82l-31.46 0c-1.08,0 -1.96,0.88 -1.96,1.96l0 31.47c0,1.08 0.88,1.96 1.96,1.96l15.69 0 0 -14.01 -4.23 0 0 -5.16 4.3 0 0 -3.81c0,-4.56 3.17,-7.05 7.25,-7.05 1.96,0 4.06,0.15 4.54,0.22l0 4.76 -3.24 0c-2.22,0 -2.65,1.05 -2.65,2.6l0 3.29 5.29 0 -0.69 5.16 -4.61 0 0 14 9.8 0c1.08,0 1.96,-0.88 1.96,-1.96l0 -31.46c0,-1.08 -0.88,-1.96 -1.96,-1.96l-0 0z"/>
   <g>
    <path class="fil3" d="M520.42 390.26c4.06,0.01 7.35,3.3 7.36,7.36l0 14.71c-0.01,4.06 -3.3,7.35 -7.36,7.36l-14.71 0c-1.95,-0 -3.83,-0.78 -5.21,-2.16 -1.38,-1.37 -2.17,-3.24 -2.17,-5.19 0,-0 0,-0.01 0,-0.01l0 -14.71c0.01,-4.06 3.31,-7.36 7.37,-7.36l14.71 0 0 0zm0 -2.94l-14.71 0c-5.69,0.02 -10.3,4.63 -10.32,10.32l0 14.71c0.01,5.69 4.63,10.3 10.32,10.32l14.71 0c5.67,-0.02 10.28,-4.6 10.32,-10.28l0 -14.71c-0,0 -0,0 -0,0 0,-5.7 -4.61,-10.33 -10.32,-10.36l0 0z"/>
   </g>
   <g>
    <path class="fil3" d="M522.62 397.65c-0,0 -0.01,0 -0.01,0 -1.22,0 -2.22,-0.99 -2.22,-2.22 0,-1.22 0.99,-2.22 2.22,-2.22 1.22,0 2.22,0.99 2.22,2.22 0,0 0,0.01 0,0.01 0,0 0,0.01 0,0.01 0,1.21 -0.98,2.2 -2.2,2.2 -0,0 -0.01,0 -0.01,0l0 0zm-9.54 1.44c3.25,0 5.88,2.64 5.88,5.88 0,3.25 -2.64,5.88 -5.88,5.88 -3.25,0 -5.88,-2.63 -5.88,-5.88 0,-3.25 2.64,-5.88 5.88,-5.88l0 0zm0 -2.94c-4.87,-0 -8.83,3.95 -8.83,8.82 0,4.87 3.95,8.82 8.83,8.82 4.87,0 8.82,-3.95 8.82,-8.82 0,-4.87 -3.95,-8.83 -8.82,-8.83l0 0z"/>
   </g>
   <path class="fil3" d="M975.62 553.91c0,-4.14 -3.05,-7.47 -6.86,-7.47 -5.11,-0.24 -10.31,-0.33 -15.62,-0.33l-1.66 0c-5.3,0 -10.52,0.09 -15.62,0.33 -3.76,0 -6.81,3.34 -6.81,7.49 -0.23,3.29 -0.33,6.56 -0.32,9.8 0.01,3.24 0.09,6.56 0.31,9.81 0,4.15 3.05,7.51 6.81,7.51 5.35,0.25 10.85,0.35 16.44,0.35 5.59,0 11.08,-0.1 16.45,-0.35 3.77,0 6.86,-3.36 6.86,-7.51 0.22,-3.29 0.32,-6.56 0.31,-9.86 -0.01,-3.29 -0.09,-6.55 -0.3,-9.8l-0 0.03zm-27.78 18.9l0 -18.1 13.35 9.04 -13.35 9.06z"/>
   <path class="fil3" d="M488.57 206.89c-0.06,0 -0.12,0 -0.18,0 -11.37,0 -20.59,9.22 -20.59,20.59 0,8.24 4.92,15.7 12.5,18.94 -0.02,-0.34 -0.03,-0.68 -0.03,-1.01 0,-1.25 0.13,-2.5 0.38,-3.72 0.4,-1.68 2.66,-11.25 2.66,-11.25 -0.44,-1 -0.67,-2.08 -0.67,-3.17 0,-0.03 0,-0.06 0,-0.09 0,-3.06 1.77,-5.34 3.98,-5.34 1.88,0 2.79,1.41 2.79,3.1 0,1.88 -1.21,4.71 -1.82,7.31 -0.07,0.26 -0.1,0.52 -0.1,0.79 0,1.76 1.43,3.19 3.19,3.19 0.06,0 0.11,-0 0.17,-0 3.92,0 6.54,-5.02 6.54,-10.97 0,-4.52 -3.05,-7.89 -8.58,-7.89 -0.12,-0 -0.23,-0.01 -0.35,-0.01 -5.41,0 -9.81,4.39 -9.81,9.81 0,0.02 0,0.05 0,0.07 -0,0.09 -0,0.17 -0,0.26 0,1.38 0.49,2.73 1.37,3.79 0.23,0.19 0.37,0.47 0.37,0.77 0,0.13 -0.02,0.26 -0.08,0.38 -0.1,0.38 -0.32,1.3 -0.42,1.66 -0.06,0.35 -0.36,0.6 -0.71,0.6 -0.12,0 -0.23,-0.03 -0.33,-0.08 -2.88,-1.18 -4.22,-4.33 -4.22,-7.84 0,-5.88 4.9,-12.88 14.71,-12.88 7.84,0 13.06,5.7 13.06,11.82 0,8.09 -4.5,14.14 -11.14,14.14 -0.06,0 -0.11,0 -0.17,0 -1.94,0 -3.77,-0.96 -4.86,-2.57 -1.1,-1.61 -1.21,4.75 -1.46,5.67 -0.47,1.56 -1.17,3.06 -2.07,4.42 1.91,0.56 3.89,0.84 5.88,0.84 0,0 0.01,0 0.01,0 0,0 0,0 0,0 11.4,0 20.65,-9.25 20.65,-20.65 0,-11.4 -9.24,-20.65 -20.65,-20.65l0 0z"/>
   <path class="fil16" d="M704.53 778.11c-0.79,-3.36 -1.28,-6.31 -1.28,-6.31 0,-0.13 0.01,-0.26 0.01,-0.39 0,-2.09 -0.5,-4.16 -1.47,-6.01l0 -0.92 0 0 0 -6.77c0.46,-1.23 1.04,-2.42 1.7,-3.54 1.22,-2.12 0,-9.9 0,-9.9 0,0 -4.51,-10.97 -3.42,-17.93 1.09,-6.96 -9.26,-30.92 -9.26,-30.92 0.06,-2.31 0.4,-4.62 0.98,-6.86 0.09,-0.38 0.14,-0.76 0.14,-1.15 0,-0.09 -0,-0.19 -0.01,-0.28 0,-0.03 0,-0.06 0,-0.09 0,-0.03 -0,-0.06 -0,-0.09l0 0.06c-0.16,-4.59 -3.78,-13.2 -3.78,-13.2l0.49 -16.39c0,0 2.31,-9.68 -1.46,-22.66 -1.32,-4.53 -2.17,-8.15 -2.71,-10.95 -0.06,-0.31 -0.12,-0.62 -0.17,-0.91 7.77,-1.19 13.73,-2.18 13.73,-2.18 0,0 -4.51,-18.88 -7.56,-22.18 -3.05,-3.3 -5.48,-13.68 -5.48,-13.68 0,0 -1.59,-13.34 0.98,-17.23 2.57,-3.89 2.94,-10.62 2.94,-10.62 0,0 5.88,-4.25 6.58,-6.14 1.03,-2.68 1.7,-5.51 1.96,-8.38 0,-2.24 -0.73,-4.25 -0.49,-5.43 0.25,-1.19 -1.7,-5.66 -0.72,-7.79 0.25,-0.65 0.38,-1.35 0.38,-2.05 0,-0.01 0,-0.02 0,-0.03 0,-0.01 -0,-0.02 -0,-0.03l0 0c0,-0.02 0,-0.04 0,-0.06 0,-1.84 -0.17,-3.68 -0.52,-5.48 -1.68,-1.42 -3.66,-2.48 -5.79,-3.1l-0.13 -0.5 -0.33 -1.32c-0.19,-0.13 -0.38,-0.24 -0.58,-0.34l0 -0.49 0 -1.96 0.91 -4.32c1.8,-7.48 -8.2,-8.6 -8.2,-8.6 -0.61,-1.15 -1.61,-2.04 -2.83,-2.49 -1.96,-0.71 -0.33,11.28 0.61,12.04 0.71,0.57 2.94,4.33 3.92,6.18l0 0 0.18 0.3c-0.16,0.15 -0.32,0.31 -0.46,0.48l0.38 2.6 0.06 0.4c-0.66,0.82 -1.2,1.74 -1.6,2.72 -0.4,0.98 1.83,2.01 1.46,4.25 -0.03,0.35 -0.04,0.72 -0.04,1.07 0,1.4 0.22,2.79 0.65,4.12 -0.11,-0.13 -1.39,-1.52 -2.68,-1.18 -1.28,0.34 -4.9,1.41 -4.9,1.41 0,0 -2.69,0.47 -2.44,1.06 0.25,0.59 -1.82,3.19 -1.82,3.19l-7.21 -6.86c-0.08,-0.21 -0.15,-0.41 -0.22,-0.62 -0.29,-0.96 -0.5,-1.95 -0.62,-2.94 0.78,-0.19 1.55,-0.43 2.29,-0.74 0.74,-0.26 1.42,-0.7 1.96,-1.27 0.61,-0.94 1,-2 1.16,-3.11 0.57,-2.1 1.79,-3.97 2.68,-5.96 1.06,-2.44 1.61,-5.08 1.61,-7.74 0,-0.97 -0.07,-1.94 -0.22,-2.9 -0.11,-1.12 -0.49,-2.19 -1.1,-3.14 -1.18,-1.62 -3.31,-2.28 -4.9,-3.57 -1.59,-1.29 -2.55,-3.26 -4.36,-4.23 -1.08,-0.47 -2.25,-0.72 -3.43,-0.72 -0.69,0 -1.37,0.08 -2.04,0.25 -3.6,0.59 -7.07,1.85 -10.21,3.71 -1.06,0.63 -2.21,1.34 -3.42,1.13 -1,-0.31 -1.87,-0.94 -2.46,-1.81 0,-0.02 -0,-0.03 -0,-0.05 0,-0.02 0,-0.04 0,-0.05l-0.09 -0.09c-0.74,1.65 -1.12,3.45 -1.12,5.26 0,0.04 0,0.09 0,0.14 0,0.28 0,0.57 0,0.86 0,0.1 0,0.2 0,0.29 0,0.04 0,0.09 0,0.13 0,0.04 -0,0.09 -0,0.13l0 0c-0,0.13 -0.02,0.26 -0.06,0.38 -0.15,0.37 -0.38,0.7 -0.67,0.98 -0.23,0.24 -0.42,0.51 -0.59,0.8 0,-0.1 0.06,-0.2 0.1,-0.29 -0.46,0.67 -0.72,1.45 -0.76,2.26 -0,0.05 -0,0.1 -0,0.15 0,0.54 0.2,1.07 0.56,1.48 0.35,0.36 0.75,0.69 1.17,0.98 -0.14,0.78 -0.21,1.58 -0.21,2.37 0,0.01 0,0.02 0,0.02 0.02,4.88 2.6,9.39 6.79,11.89l0.25 0.62c0.89,2.11 1.34,4.37 1.34,6.66 0,0.4 -0.01,0.79 -0.04,1.19 0,0.2 0,0.38 -0.09,0.58l-0.26 0.3 0 0c0,0 -11.9,0.12 -14.71,-2.42 -2.8,-2.54 -7.07,6.2 -7.07,6.2 0,0 -4.27,0.83 -5.12,0 -0.85,-0.84 -5.88,-0.12 -5.88,-0.12 -1.97,-1.75 -4.52,-2.71 -7.15,-2.71 -0.09,0 -0.19,0 -0.28,0 -1.66,-1.27 -3.51,-2.3 -5.46,-3.04l0 0 -0.14 -0.05 0 0c-0.67,-0.24 -1.37,-0.36 -2.08,-0.36 -0.21,0 -0.41,0.01 -0.61,0.03 -0.2,0.02 -5.88,-4.84 -7.55,-7.43 -1.67,-2.59 -9.81,-12.23 -9.87,-12.28l0 -0.46 -0.1 -1.4c-0.24,0.04 -0.48,0.06 -0.72,0.07 0,-0.15 -0.1,-0.3 -0.17,-0.49 -0.47,-1.35 -1.05,-2.67 -1.73,-3.92 -0.68,-1.25 0,-1.76 0.52,-2.21 0.52,-0.44 -0.22,-6.93 -0.22,-6.93 0,0 -5.27,-12.33 -9.99,-3.13 0,0 -8.93,5.95 -1.44,12.89 0,0 2.94,1.44 3.41,2.59 0.28,0.75 1.29,2.83 1.96,4.22l0.3 0.62 -0.09 0.07 0.12 1.16 0 0.45c-1.41,0.79 -2.36,1.59 -2.14,2.2 0.42,1.02 0.7,2.1 0.85,3.19 0.15,1.09 10.36,12.97 11.71,18.52 0,0 27.79,16.51 36.93,17.7l-1.58 8.26c-0.23,2.23 -0.36,4.48 -0.36,6.72 0.12,1.77 -1.1,9.81 -1.1,9.81 0,0 -1.59,11.77 -2.94,13.44 -1.35,1.68 -1.1,8.74 -1.1,8.74 -0.32,3.38 -0.93,6.75 -1.82,10.03 -1.34,4.49 -0.36,10.03 -0.36,10.03 0,0 -4.64,10.62 6.46,3.42 0,0 5.44,-0.33 11.77,-0.55 0,0.21 0,0.41 0,0.63 0,0.8 0,1.68 0,2.6 -0.08,6.08 -0.12,14.47 0.16,20.81 0.49,11.21 3.92,33.34 3.92,33.34l0 11.14c-0.21,1.02 -0.32,2.07 -0.32,3.11 0,0.02 0,0.05 0,0.07 -0,0.14 -0,0.29 -0,0.43 0,3.78 1.04,7.5 3.01,10.73l0.85 7.43c0,0 1.96,4.9 2.04,7.84 -0.01,0.24 -0.04,0.47 -0.09,0.71 -0.07,0.34 -0.1,0.68 -0.1,1.02 0,0.04 0,0.08 0,0.12 -0.11,3.37 1.96,11.45 1.96,11.45 0,0 0.13,8.14 1.34,8.61 1.04,0.4 -1.39,4.7 -2.12,5.88 -0.02,-0.08 -0.04,-0.16 -0.05,-0.23 -0.09,0.16 -0.15,0.25 -0.15,0.25 -0.25,0.65 -0.38,1.35 -0.38,2.05 0,0 0,0 0,0 -0.02,0.12 -0.02,0.25 -0.02,0.37 0,1.01 0.52,1.95 1.38,2.49 2.31,1.42 3.56,2.6 1.6,3.07 -0.72,0.11 -1.45,0.26 -2.15,0.45 0,-0.09 -0.08,-0.19 -0.11,-0.28 -0.47,0.21 -0.78,0.68 -0.78,1.2 0,0.05 0,0.11 0.01,0.16 0.02,0.96 0.27,1.91 0.74,2.76 0.86,2.12 1.96,4.15 3.29,6.02l0.98 -0.11c-0.14,0.35 -0.33,0.68 -0.55,0.98 -0.35,0.51 -0.82,0.93 -1.37,1.21 -0.51,0.3 -1.08,0.5 -1.67,0.58 -1.34,0.04 -2.6,0.65 -3.45,1.68 -1.21,1.57 -1.96,3.72 0.42,5.6l8.72 3c0,0 14.99,1.96 14.2,-1.41 -0.79,-3.37 -1.27,-6.3 -1.27,-6.3 0,-0.13 0,-0.26 0,-0.38 0,-1.93 -0.42,-3.84 -1.23,-5.59 -0.15,-0.31 -0.33,-0.61 -0.53,-0.88l0.53 -0.06c0,0 1.1,-7.43 2.56,-8.82 0.34,-0.32 0.42,-0.58 0.33,-0.77 0.16,-0.4 -0.23,-0.64 -0.72,-0.77l-0.11 0.29c-0.48,-0.1 -0.96,-0.15 -1.45,-0.16 -0.49,-0 -0.49,-3.92 1.09,-5.31 0.21,-0.27 0.33,-0.6 0.33,-0.94 0,-0.07 -0.01,-0.15 -0.02,-0.22 0,-0.03 0,-0.07 0,-0.1 0,-0.5 -0.06,-1 -0.17,-1.49l-0.06 0.1c-0.9,-3.14 -2.08,-6.21 -3.5,-9.15 -1.42,-2.94 -0.12,-3.54 0.85,-4.96 0.97,-1.42 -0.12,-19.23 -0.12,-19.23 0,0 0.36,-8.61 -0.73,-12.62 -1.1,-4.01 1.34,-8.74 1.34,-8.74l0 -0.26 0 -0.06c0,0 -0.06,-0.53 -0.15,-1.36l0 0.09c-0.25,-2.28 -0.71,-6.41 -1.05,-8.31 -0.49,-2.72 0.12,-15.69 0.12,-15.69l2.2 -5.54 3.92 9.55 4.14 12.75c1.18,1.58 1.91,3.45 2.11,5.41 0,0.14 0,0.28 0,0.4 -0.01,0.14 -0.02,0.28 -0.02,0.43 0,0.14 0.01,0.28 0.02,0.43 -0,0.11 -0.01,0.22 -0.01,0.33 0,1.5 0.44,2.96 1.27,4.21 0.83,1.25 1.1,6.02 2.8,7.55 1.7,1.53 1.7,4.48 1.7,4.48 0,0 2.07,8.74 3.05,10.27 0.82,1.3 0.86,4.84 0.85,5.88l0 0 0 0.32c0,0 0.28,3.12 0.27,5.75 0,0.31 0,0.64 0,0.98l0 -0.07c0,0.71 -0.09,1.42 -0.26,2.12l0 0.13c0,-0.15 0,-0.3 0,-0.44 -0.42,1.7 -0.63,3.45 -0.63,5.2 0,0.08 0,0.16 0,0.24 -0.06,3.14 0.42,6.86 2.32,9.03 3.29,3.78 5.37,3.31 5.37,3.31 0,0 -1.59,4.71 -3.54,5.67 -0.07,0.04 -0.14,0.08 -0.21,0.13 0,-0.09 0,-0.19 -0.05,-0.27 -0.37,0.42 -0.58,0.97 -0.58,1.53 0,0.08 0,0.16 0.01,0.23 0.09,2.52 0.93,4.96 2.41,6.99 0.46,0.46 1.03,0.8 1.65,0.98l-0.3 0.19c-0.22,0.12 -0.45,0.23 -0.68,0.32 -0.31,0.14 -0.64,0.22 -0.98,0.26 -1.34,0.04 -2.6,0.65 -3.45,1.68 -1.22,1.57 -1.96,3.72 0.42,5.6l8.72 3c0,0 14.81,2 14.05,-1.41z"/>
   <path class="fil17" d="M647.26 783.68l-8.44 -3c-2.32,-1.88 -1.58,-4.03 -0.4,-5.6 0.81,-1.02 2.03,-1.63 3.33,-1.68 0.57,-0.08 1.13,-0.28 1.62,-0.58 0.54,-0.29 0.99,-0.71 1.33,-1.22 0.62,-0.98 0.96,-2.11 0.98,-3.27 0.01,-1.16 9.27,-2.71 11.77,0 0.45,0.49 0.83,1.05 1.13,1.65 0.77,1.75 1.18,3.65 1.18,5.57 0,0.13 -0,0.27 -0,0.4 -0,0.13 0.47,2.94 1.24,6.3 0.77,3.36 -13.73,1.41 -13.73,1.41z"/>
   <path class="fil17" d="M688.55 779.56l-8.43 -3c-2.33,-1.88 -1.59,-4.03 -0.41,-5.59 0.81,-1.03 2.03,-1.65 3.34,-1.69 0.34,-0.03 0.67,-0.12 0.98,-0.26 0.22,-0.09 0.44,-0.2 0.65,-0.32 2.36,-1.29 2.31,-4.48 2.31,-4.48 0,0 9.26,-2.72 11.77,0 0.34,0.37 0.63,0.77 0.88,1.21 0.93,1.87 1.43,3.94 1.43,6.03 0,0.12 -0,0.26 -0.01,0.38 -0,0.12 0.47,2.94 1.24,6.3 0.76,3.36 -13.74,1.41 -13.74,1.41z"/>
   <path class="fil4" d="M657.46 768.35c0.45,0.49 0.83,1.05 1.13,1.65l0 0 -13.89 1.61c0.62,-0.98 0.96,-2.11 0.98,-3.27 0.01,-1.16 9.25,-2.7 11.78,0.01z"/>
   <path class="fil4" d="M699.64 765.39l0 2.6c-2.16,3.56 -12.6,2.78 -15.63,0.98 0.22,-0.09 0.44,-0.2 0.65,-0.32 2.36,-1.29 2.3,-4.48 2.3,-4.48 0,0 9.26,-2.71 11.77,0 0.35,0.37 0.66,0.78 0.91,1.23l0 0z"/>
   <path class="fil11" d="M701.3 754.19c-0.65,1.13 -1.21,2.32 -1.66,3.54l0 9.32c-2.35,3.92 -14.63,2.6 -16.28,0.47 -1.65,-2.13 -3.42,-7.67 -1.54,-8.61 1.88,-0.94 3.42,-5.67 3.42,-5.67 0,0 -1.96,0.47 -5.19,-3.3 -3.23,-3.78 -2.24,-12.15 -1.65,-14.16 0.59,-2.01 0,-8.73 0,-8.73 0,0 0.12,-4.72 -0.82,-6.26 -0.94,-1.54 -2.94,-10.27 -2.94,-10.27 0,0 0,-2.94 -1.65,-4.48 -1.65,-1.54 -2.72,-7.55 -2.72,-7.55 -0.8,-1.24 -1.23,-2.7 -1.23,-4.18 0,-0.3 0.02,-0.6 0.05,-0.89 0.35,-2.94 -2.01,-6.14 -2.01,-6.14l-4.01 -12.75 -3.78 -9.56 -2.12 5.54c0,0 -0.6,12.98 -0.12,15.69 0.48,2.71 1.18,9.9 1.18,9.9 0,0 -2.36,4.73 -1.29,8.74 1.07,4.01 0.7,12.62 0.7,12.62 0,0 1.06,17.82 0.12,19.24 -0.94,1.42 -0.82,4.9 -0.82,4.9 0,0 4.83,10.39 3.29,11.77 -1.54,1.38 -1.06,5.32 -1.06,5.32 0,0 3.3,0 1.89,1.41 -1.41,1.41 -2.48,8.82 -2.48,8.82l-14.29 1.81c-1.29,-1.88 -2.36,-3.9 -3.2,-6.02 -1.88,-4.36 0.35,-3.92 2.26,-4.36 1.9,-0.44 0.7,-1.65 -1.55,-3.07 -2.25,-1.42 -0.98,-4.6 -0.98,-4.6 0,0 3.42,-5.79 2.25,-6.26 -1.18,-0.47 -1.31,-8.61 -1.31,-8.61 0,0 -2.35,-9.68 -1.76,-12.27 0.59,-2.59 -1.89,-8.82 -1.89,-8.82l-0.82 -7.43c-1.88,-3.16 -2.87,-6.77 -2.87,-10.45 0,-1.21 0.11,-2.43 0.32,-3.62l0 -11.48c0,0 -3.3,-22.18 -3.78,-33.34 -0.29,-7.18 -0.22,-16.97 -0.12,-23.09 0.06,-3.42 0.12,-5.7 0.12,-5.7l50.99 -5.31c0.08,2.54 0.4,5.09 0.93,7.57 0.52,2.8 1.33,6.42 2.61,10.95 3.66,12.98 1.42,22.65 1.42,22.65l-0.47 16.4c0,0 4.48,10.97 3.54,14.71 -0.58,2.24 -0.91,4.55 -0.98,6.86 -0.07,2.31 10.03,23.96 8.97,30.92 -1.06,6.96 3.31,17.89 3.31,17.89 0,0 1.18,7.84 0,9.92z"/>
   <path class="fil14" d="M672.16 692.72l15.47 -2.07c0,0 -8.75,8.96 -15.47,2.07z"/>
   <path class="fil4" d="M685.42 675.49c0,0 0.54,5.48 -2.82,7.55 0,0 6.01,-0.94 2.82,-7.55z"/>
   <path class="fil4" d="M684.47 658.03c0,0 -12.96,10.68 -17.65,9.81 -4.69,-0.87 17.65,-9.81 17.65,-9.81z"/>
   <path class="fil4" d="M652.92 697.73c0,0 -9.81,2.24 -10.14,6.2 -0.33,3.95 10.14,-6.2 10.14,-6.2z"/>
   <path class="fil14" d="M655.08 746.93c0,0 -13.91,2.6 -9.96,4.37 3.39,1.33 6.9,2.4 10.45,3.18 3.55,0.77 4.48,0.23 -0.48,-7.55z"/>
   <g>
    <path class="fil14" d="M642.31 754.07c-0.71,-0.44 -1.18,-1.19 -1.28,-2.02l-0.14 0.26c0,0 -1.31,3.18 0.98,4.6 0.26,0.16 0.5,0.32 0.72,0.48 0.41,-0.08 0.86,-0.14 1.28,-0.24 1.86,-0.43 0.67,-1.62 -1.58,-3.07z"/>
    <path class="fil14" d="M660.24 753.17c0.38,-0.35 0.36,-1.26 0.14,-2.43 -0.52,0.96 -0.8,2.05 -0.8,3.15 0,0.09 0,0.19 0,0.28 0.14,-0.38 0.37,-0.72 0.66,-0.99l0 0z"/>
    <path class="fil14" d="M658.09 694.47c-0.53,1.39 -0.86,2.85 -0.98,4.34 0.27,-1.01 0.63,-2 1.08,-2.94 0.45,-0.94 0.02,-0.57 -0.1,-1.39z"/>
    <path class="fil18" d="M689.97 688.27c0.09,-0.39 0.13,-0.79 0.13,-1.19 0,-0.03 0,-0.07 0,-0.1 -0.18,0.88 -0.3,1.7 -0.38,2.42 0.08,-0.37 0.16,-0.75 0.26,-1.13z"/>
    <path class="fil14" d="M657.76 736.42c0.24,-0.74 0.36,-1.51 0.36,-2.29 0,-0.11 -0,-0.22 -0.01,-0.33 -0.44,1.04 -0.67,2.17 -0.68,3.3 0.08,-0.24 0.19,-0.47 0.32,-0.69l0 0z"/>
    <path class="fil14" d="M660.68 758.66c-0.73,2.36 -1.27,4.8 -1.62,7.25l-14.27 1.66c-1.29,-1.87 -2.37,-3.91 -3.19,-6.02 -0.15,-0.34 -0.29,-0.69 -0.4,-1.04 -0.85,0.39 -1.2,1.28 -0.07,3.92 0.82,2.12 1.9,4.14 3.2,6.01l14.26 -1.66c0,0 1.07,-7.43 2.48,-8.82 0.7,-0.75 0.26,-1.11 -0.38,-1.29z"/>
    <path class="fil14" d="M641.84 737.47c0,0 0.12,8.15 1.29,8.62l0 0c0.6,-1.34 0.98,-2.62 0.46,-2.83 -1.18,-0.47 -1.29,-8.61 -1.29,-8.61 0,0 -2.36,-9.68 -1.77,-12.28 0.6,-2.6 -1.89,-8.82 -1.89,-8.82l-0.82 -7.43c-1.9,-3.17 -2.9,-6.81 -2.9,-10.51 0,-1.18 0.1,-2.37 0.31,-3.53l-0 -11.46c0,0 -3.3,-22.18 -3.77,-33.39 -0.3,-7.18 -0.22,-16.97 -0.12,-23.09 0,-1.1 0,-2.08 0,-2.94l-0.4 0c0,0 -0.06,2.26 -0.12,5.7 -0.1,6.11 -0.19,15.92 0.12,23.09 0.47,11.21 3.78,33.39 3.78,33.39l0 11.44c-0.21,1.17 -0.31,2.37 -0.31,3.56 0,3.74 1.03,7.41 2.97,10.6l0.82 7.43c0,0 2.48,6.25 1.88,8.82 -0.6,2.58 1.78,12.25 1.78,12.25z"/>
    <path class="fil14" d="M683.84 764.38c-1.16,-1.68 -1.93,-3.6 -2.26,-5.61 -1.46,1.31 0.21,6.42 1.78,8.44 1.57,2.02 13.93,3.42 16.29,-0.48l0 -2.24c-3.2,3.17 -14.25,1.9 -15.82,-0.11z"/>
    <path class="fil14" d="M701.77 751.04c-0.64,1.13 -1.2,2.32 -1.65,3.54l0 1.66c0.26,-0.61 0.65,-1.41 1.18,-2.36 0.35,-0.85 0.52,-1.77 0.52,-2.69 0,-0.09 -0,-0.17 -0,-0.26l-0.05 0.11z"/>
    <path class="fil14" d="M684.56 752.9c0.45,-0.91 0.84,-1.85 1.17,-2.8 0.33,-0.96 -1.96,0.47 -5.2,-3.31 -2.31,-2.75 -2.44,-7.93 -2.12,-11.32 -0.59,2.01 -1.54,10.38 1.65,14.16 2.09,2.48 3.65,3.12 4.5,3.28z"/>
    <path class="fil14" d="M678.41 726.74c0.16,1.88 0.25,3.78 0.25,5.67 0,0.44 -0.01,0.89 -0.02,1.31 0.08,-0.46 0.17,-0.83 0.24,-1.1 0.6,-1.96 0,-8.73 0,-8.73 0,0 0.12,-4.73 -0.82,-6.26 -0.94,-1.53 -2.94,-10.27 -2.94,-10.27 0,0 0,-2.94 -1.65,-4.48 -1.65,-1.54 -2.72,-7.55 -2.72,-7.55 -0.8,-1.24 -1.23,-2.7 -1.23,-4.19 0,-0.29 0.02,-0.58 0.05,-0.87 0.36,-2.94 -1.96,-6.14 -1.96,-6.14l-4.01 -12.75 -3.83 -9.5 -2.13 5.54c0,0 0,0.7 -0.07,1.8l1.73 -4.5 3.78 9.55 4.01 12.75c0,0 2.35,3.19 1.96,6.13 -0.02,0.26 -0.04,0.52 -0.04,0.78 0,1.51 0.44,2.98 1.26,4.25 0.82,1.26 1.06,6.01 2.71,7.55 1.65,1.54 1.66,4.48 1.66,4.48 0,0 1.96,8.73 2.94,10.27 0.98,1.54 0.83,6.27 0.83,6.27z"/>
   </g>
   <path class="fil19" d="M688.32 509.65l-0.88 4.32 0.05 1.96 0 1.41 -4.9 0.51 -0.55 -0.98 0 0c-0.98,-1.84 -3.14,-5.6 -3.83,-6.18 -0.91,-0.77 -2.53,-12.75 -0.59,-12.03 1.19,0.46 2.17,1.34 2.75,2.48 0.57,1.14 9.7,1.02 7.95,8.51z"/>
   <path class="fil4" d="M687.52 517.29l-4.9 0.51 -0.55 -0.98 0 0c0.82,-0.94 2.01,-1.48 3.26,-1.48 0.76,0 1.52,0.2 2.17,0.58l0.02 1.36z"/>
   <path class="fil20" d="M688.76 519.62l-6.48 1.51 -0.14 -0.98 -0.37 -2.6c0.84,-1.12 2.16,-1.79 3.57,-1.79 0.98,0 1.94,0.33 2.72,0.92l0.32 1.32 0.38 1.61z"/>
   <path class="fil19" d="M583.6 510.12l-6.92 3.73 -0.63 -1.31c-0.67,-1.38 -1.65,-3.46 -1.96,-4.21 -0.41,-1.15 -3.31,-2.6 -3.31,-2.6 -7.26,-6.93 1.38,-12.88 1.38,-12.88 4.58,-9.21 9.68,3.12 9.68,3.12 0,0 0.7,6.5 0.21,6.93 -0.5,0.43 -0.5,2.22 -0.5,2.22 0.66,1.25 1.23,2.57 1.68,3.92 0.26,0.69 0.37,1.09 0.37,1.09z"/>
   <path class="fil4" d="M583.6 510.12l-6.92 3.73 -0.63 -1.31c0.98,-0.82 4.44,-3.63 5.58,-3.5 0.27,0.03 0.55,0.04 0.82,0.04 0.27,0 0.55,-0.01 0.82,-0.04 0.21,0.69 0.32,1.09 0.32,1.09z"/>
   <path class="fil20" d="M584.3 512.22l-7.79 3.83 -0.16 -1.68 -0.11 -1.15c0,0 4.51,-3.87 5.88,-3.73 0.34,0.05 0.68,0.07 1.02,0.07 0.34,0 0.68,-0.02 1.02,-0.07l0.09 1.4 0.04 1.31z"/>
   <path class="fil19" d="M669.44 538.27c0,0 -33.96,3.83 -27.61,1.77 4.42,-1.44 6.18,-4.25 6.55,-7.37 0.02,-0.37 0.04,-0.76 0.04,-1.14 0,-2.3 -0.44,-4.58 -1.3,-6.71 -0.8,-2.13 -1.83,-4.2 -3.04,-6.14 -1.21,-1.94 25.95,-14.28 20.77,-1.29 -0.81,1.96 -1.31,4.04 -1.47,6.15 -0.03,0.44 -0.05,0.88 -0.05,1.32 0,1.66 0.24,3.31 0.71,4.9 0.98,3.28 2.86,6.23 5.41,8.5l0 0z"/>
   <path class="fil4" d="M664.84 517.39c-0.81,1.96 -1.31,4.04 -1.47,6.15 -2.45,2.05 -5.13,1.96 -8.57,1.96 -2.65,0 -5.58,0.65 -7.69,-0.63 -0.8,-2.13 -1.83,-4.2 -3.04,-6.14 -1.21,-1.94 25.95,-14.33 20.77,-1.34z"/>
   <circle class="fil19" cx="654.34" cy="512.32" r="14.04"/>
   <path class="fil4" d="M669.44 538.27c0,0 -33.96,3.83 -27.61,1.77 4.42,-1.44 6.18,-4.25 6.55,-7.37 1.69,-1.83 5.08,-3.16 7.27,-3.85 1.04,-0.35 2.13,-0.53 3.23,-0.53 0.99,0 1.97,0.14 2.92,0.43 0.79,0.21 1.54,0.55 2.24,0.98 0.97,3.3 2.85,6.27 5.41,8.56l0 0z"/>
   <path class="fil4" d="M688.76 519.62l-6.48 1.51 -0.14 -0.98c1.07,-1.49 2.8,-2.37 4.64,-2.37 0.54,0 1.08,0.08 1.6,0.23l0.38 1.61z"/>
   <path class="fil4" d="M584.3 512.22l-7.79 3.83 -0.16 -1.68c2.52,-1.35 5.15,-2.51 7.84,-3.47l0.1 1.31z"/>
   <path class="fil4" d="M682.87 623.83c-13.15,2.07 -31.87,4.78 -34.84,3.87 -2.46,-0.75 -10.33,-0.68 -17.18,-0.44 0.06,-3.42 0.12,-5.7 0.12,-5.7l50.99 -5.31c0.07,2.54 0.38,5.09 0.91,7.57l0 -0z"/>
   <path class="fil15" d="M695.98 620.71c0,0 -43.3,7.43 -47.95,6.01 -4.65,-1.42 -28.51,0.13 -28.51,0.13 -10.74,7.19 -6.25,-3.42 -6.25,-3.42 0,0 -0.98,-5.55 0.35,-10.03 0.86,-3.29 1.46,-6.65 1.77,-10.03 0.31,-3.38 -0.23,-7.08 1.06,-8.73 1.29,-1.65 2.83,-13.45 2.83,-13.45 0,0 1.19,-8.02 1.07,-9.8 -0.12,-1.79 0.35,-6.72 0.35,-6.72l1.53 -8.27c-8.82,-1.18 -35.75,-17.7 -35.75,-17.7 -1.29,-5.54 -11.32,-18.52 -11.32,-18.52 -0.14,-1.09 -0.42,-2.17 -0.82,-3.19 -0.71,-1.88 9.91,-5.66 9.91,-5.66 0,0 7.9,9.68 9.55,12.27 1.65,2.59 7.31,7.43 7.31,7.43 0.19,-0.02 0.38,-0.03 0.57,-0.03 0.69,0 1.38,0.13 2.03,0.37l0.14 0 0 0c1.9,0.75 3.68,1.77 5.27,3.03 0.08,0 0.17,-0 0.25,-0 2.57,0 5.06,0.97 6.95,2.72 1.89,1.75 4.84,-0.7 5.67,0.12 0.82,0.82 4.9,0 4.9,0 0,0 4.14,-8.73 6.86,-6.2 2.73,2.53 14.23,2.42 14.23,2.42 1.54,-2.04 5.27,-3.5 7.61,-4.25 1.04,-0.35 2.13,-0.53 3.23,-0.53 0.99,0 1.97,0.14 2.92,0.43 0.87,0.24 1.7,0.64 2.43,1.18l6.98 6.86c0,0 1.96,-2.6 1.77,-3.19 -0.19,-0.59 2.36,-1.06 2.36,-1.06 0,0 3.42,-1.06 4.71,-1.42 1.29,-0.36 2.49,1.06 2.59,1.18 -0.42,-1.33 -0.63,-2.73 -0.63,-4.12 0,-0.35 0.01,-0.71 0.04,-1.06 0.01,-0.13 0.02,-0.27 0.02,-0.41 0,-1.41 -0.51,-2.77 -1.43,-3.84 4.17,-10.08 13.49,-1.55 13.49,-1.55 0,0 1.06,5.54 0.12,7.67 -0.94,2.13 0.98,6.61 0.7,7.79 -0.27,1.18 0.47,3.19 0.47,5.42 -0.25,2.86 -0.89,5.69 -1.88,8.38 -0.72,1.88 -6.37,6.13 -6.37,6.13 0,0 -0.35,6.73 -2.83,10.62 -2.48,3.89 -0.98,17.23 -0.98,17.23 0,0 2.36,10.39 5.31,13.73 2.95,3.34 7.35,22.08 7.35,22.08z"/>
   <path class="fil4" d="M632.86 543.11c0,0 -1.29,-3.92 -2.48,-4.26 -1.17,-0.43 -2.32,-0.95 -3.42,-1.53l0.77 -1.45c0,0 4.43,1.22 5.14,2.51 0.7,1.29 0,4.73 0,4.73z"/>
   <path class="fil4" d="M609.18 534.49c-0.23,1.19 -10.73,2.24 -10.73,2.24l5.3 -5.32 0 0 0.14 0.05 0 0c1.9,0.75 3.69,1.77 5.29,3.03l0 0z"/>
   <circle class="fil21" cx="578.76" cy="518.3" r="0.94"/>
   <circle class="fil21" cx="579.97" cy="520.19" r="0.94"/>
   <circle class="fil21" cx="581.16" cy="521.93" r="0.94"/>
   <circle class="fil21" cx="582.39" cy="523.82" r="0.94"/>
   <circle class="fil21" cx="693.61" cy="523.71" r="0.76"/>
   <circle class="fil21" cx="693.73" cy="525.46" r="0.76"/>
   <circle class="fil21" cx="693.83" cy="527.2" r="0.76"/>
   <path class="fil4" d="M632.92 575.08c-0.11,-0.14 26.48,33.45 47.14,14.04 0,0 -32.63,4.42 -47.14,-14.04z"/>
   <path class="fil4" d="M617.64 592.54c0,0 15.92,0.43 17.58,5.01l0 4.76c-0.45,0.25 -0.96,0.38 -1.47,0.38 -0.51,0 -1.02,-0.13 -1.47,-0.38 -1.61,-0.86 -11.23,-5.76 -14.62,-3.4l-0.02 -6.37z"/>
   <path class="fil15" d="M617.94 592.54c0,0 15.22,0.41 16.82,4.78l0 4.55c-0.43,0.24 -0.92,0.36 -1.42,0.36 -0.5,0 -0.98,-0.13 -1.42,-0.37 -1.54,-0.83 -10.79,-5.49 -13.98,-3.24l0 -6.08z"/>
   <path class="fil4" d="M626.33 557.95c1.62,3.75 3.7,7.32 6.17,10.58 2.69,3.61 5.96,6.77 9.67,9.33 3.71,2.56 -15.57,-17.69 -15.83,-19.91z"/>
   <path class="fil4" d="M621.12 539.49c0,0 2.66,11.46 9.49,15.36l-9.49 -15.36z"/>
   <path class="fil4" d="M617.03 540.65c-0.07,-0.22 -2.36,9.06 8.82,14.2 0,0 -4.73,-1.61 -8.82,-14.2z"/>
   <path class="fil4" d="M686.55 532.96c-0.18,0 5.51,3.63 7.06,5.31 0,0 -3.7,-5.54 -7.06,-5.31z"/>
   <path class="fil17" d="M650.54 525.04c0.11,0.75 0.5,1.43 1.09,1.9 0.41,0.19 0.86,0.29 1.31,0.29 0,0 0.01,0 0.01,0 4.29,0.26 8.74,0.45 12.75,-1.2 0.75,-0.26 1.43,-0.7 1.96,-1.28 0.56,-0.94 0.92,-2 1.04,-3.09 0.56,-2.1 1.75,-3.92 2.6,-5.96 1.05,-2.47 1.59,-5.14 1.59,-7.82 0,-0.96 -0.07,-1.93 -0.21,-2.88 -0.11,-1.12 -0.47,-2.19 -1.07,-3.14 -1.14,-1.62 -3.21,-2.28 -4.71,-3.57 -1.5,-1.29 -2.47,-3.27 -4.22,-4.24 -1.05,-0.47 -2.19,-0.71 -3.33,-0.71 -0.66,0 -1.32,0.08 -1.96,0.24 -3.5,0.6 -6.86,1.87 -9.88,3.72 -0.98,0.63 -2.14,1.34 -3.31,1.13 -1,-0.32 -1.86,-0.98 -2.43,-1.87 -0.71,1.64 -1.08,3.41 -1.08,5.2 0,0.3 0.01,0.61 0.03,0.91 0.02,0.15 0.04,0.31 0.04,0.46 0,0.15 -0.01,0.31 -0.04,0.46 -0.15,0.37 -0.37,0.7 -0.66,0.98 -1.06,1.23 -1.72,3.17 -0.68,4.4 0.46,0.54 1.16,0.83 1.6,1.38 0.79,0.98 0.52,2.4 0.5,3.67 -0.01,0.05 -0.01,0.11 -0.01,0.17 0,0.38 0.11,0.76 0.32,1.07 0.34,0.31 0.78,0.48 1.24,0.48 0.17,0 0.34,-0.02 0.5,-0.07 0.44,-0.13 0.9,-0.2 1.37,-0.2 0.16,0 0.32,0.01 0.48,0.02 0.66,0.22 1.22,0.66 1.61,1.24 1.94,2.51 2.72,5.27 3.55,8.3z"/>
   <g>
    <path class="fil4" d="M668.02 523.68c-0.53,0.58 -1.21,1.02 -1.96,1.27 -3.92,1.66 -8.41,1.46 -12.69,1.2 -0.02,0 -0.04,0 -0.05,0 -0.44,0 -0.87,-0.1 -1.27,-0.29 -0.6,-0.47 -0.99,-1.14 -1.1,-1.89 -0.83,-3.03 -1.6,-5.8 -3.58,-8.31 -0.38,-0.58 -0.95,-1.02 -1.61,-1.24 -0.16,-0.02 -0.32,-0.02 -0.48,-0.02 -0.46,0 -0.92,0.07 -1.37,0.2 -0.16,0.05 -0.33,0.07 -0.5,0.07 -0.46,0 -0.9,-0.17 -1.24,-0.48 -0.2,-0.31 -0.31,-0.68 -0.31,-1.05 0,-0.07 0,-0.13 0.01,-0.2 0,-1.27 0.28,-2.69 -0.51,-3.67 -0.44,-0.55 -1.14,-0.84 -1.6,-1.38 -0.35,-0.47 -0.53,-1.05 -0.53,-1.63 0,-0.41 0.09,-0.82 0.27,-1.19 -0.75,1.2 -1.08,2.73 -0.21,3.77 0.46,0.54 1.16,0.83 1.6,1.38 0.79,0.98 0.52,2.4 0.5,3.67 -0,0.06 -0.01,0.12 -0.01,0.17 0,0.38 0.11,0.76 0.32,1.07 0.34,0.31 0.78,0.48 1.23,0.48 0.17,0 0.34,-0.02 0.5,-0.07 0.44,-0.13 0.9,-0.2 1.36,-0.2 0.16,0 0.32,0.01 0.48,0.02 0.66,0.22 1.23,0.65 1.61,1.24 1.96,2.52 2.75,5.28 3.58,8.31 0.11,0.75 0.5,1.43 1.09,1.9 0.41,0.19 0.86,0.29 1.31,0.29 0,0 0.01,0 0.01,0 4.29,0.26 8.74,0.45 12.75,-1.2 0.75,-0.26 1.42,-0.7 1.96,-1.28 0.27,-0.34 0.47,-0.73 0.61,-1.14 -0.06,0.07 -0.1,0.15 -0.19,0.2z"/>
   </g>
   <path class="fil4" d="M648.03 533.55c0,0 17.54,2.32 19.12,-0.31m-19.12 0.31l0 0 0 0z"/>
   <path class="fil4" d="M682.14 526.29c0,0 9.74,0 11.88,3.67m-11.88 -3.67l0 0 0 0z"/>
  </g>
 </g>
</svg>
