<?xml version="1.0" encoding="UTF-8"?>
<!DOCTYPE svg PUBLIC "-//W3C//DTD SVG 1.1//EN" "http://www.w3.org/Graphics/SVG/1.1/DTD/svg11.dtd">
<!-- Creator: CorelDRAW 2021 (64-Bit) -->
<svg xmlns="http://www.w3.org/2000/svg" xml:space="preserve" width="1.90831in" height="1.37795in" version="1.1" style="shape-rendering:geometricPrecision; text-rendering:geometricPrecision; image-rendering:optimizeQuality; fill-rule:evenodd; clip-rule:evenodd"
viewBox="0 0 1125.84 812.94"
 xmlns:xlink="http://www.w3.org/1999/xlink"
 xmlns:xodm="http://www.corel.com/coreldraw/odm/2003">
 <defs>
  <style type="text/css">
   <![CDATA[
    .fil5 {fill:#00C4B5}
    .fil1 {fill:#2F2E41}
    .fil9 {fill:#34A853}
    .fil0 {fill:#3F3D56}
    .fil8 {fill:#4285F4}
    .fil3 {fill:#575A89}
    .fil7 {fill:#E6E6E6}
    .fil11 {fill:#EB4335}
    .fil6 {fill:#F2F2F2}
    .fil10 {fill:#FBBC05}
    .fil2 {fill:#FBBEBE}
    .fil4 {fill:black;fill-opacity:0.400000}
   ]]>
  </style>
 </defs>
 <g id="Layer_x0020_1">
  <metadata id="CorelCorpID_0Corel-Layer"/>
  <g id="_2401768847440">
   <rect class="fil0" x="977.6" y="395.98" width="10.02" height="395.86"/>
   <path class="fil0" d="M1080.12 446.43c0.64,138.42 -96.75,251.09 -96.75,251.09 0,0 -98.42,-111.76 -99.06,-250.18 -0.64,-138.42 96.75,-251.09 96.75,-251.09 0,0 98.42,111.76 99.06,250.18z"/>
   <rect class="fil0" x="782.09" y="582.24" width="5.15" height="203.6"/>
   <path class="fil0" d="M834.81 608.18c0.33,71.19 -49.76,129.14 -49.76,129.14 0,0 -50.62,-57.48 -50.95,-128.68 -0.33,-71.19 49.76,-129.14 49.76,-129.14 0,0 50.62,57.48 50.95,128.68z"/>
   <ellipse class="fil0" cx="888.84" cy="791.54" rx="139.65" ry="21.41"/>
   <path class="fil1" d="M900.36 292.63c-11.83,-19.99 -35.24,-20.92 -35.24,-20.92 0,0 -22.81,-2.92 -37.44,27.53 -13.64,28.38 -32.46,55.78 -3.03,62.42l5.31 -16.55 3.29 17.78c2.73,0.2 5.5,0.3 8.26,0.3 1.43,0 2.91,-0.04 4.33,-0.09 31.52,-1.02 61.54,0.3 60.57,-11.01 -1.28,-15.03 5.33,-40.23 -6.05,-59.46z"/>
   <path class="fil2" d="M857.75 330.28c0,0 15.29,21.41 6.12,38.74 -9.17,17.33 21.41,35.68 21.41,35.68l22.43 -48.93c0,0 -26.5,-17.33 -19.37,-33.64l-30.58 8.15z"/>
   <circle class="fil2" cx="867.94" cy="312.96" r="26.5"/>
   <path class="fil2" d="M776.22 343.59l22.15 -28.58c0,0 7.8,-29.95 19.09,-28.43 11.3,1.52 -4.46,35.92 -4.46,35.92l-22.01 31.63 -14.77 -10.54z"/>
   <polygon class="fil2" points="888.33,723.75 895.47,761.47 910.75,765.55 906.68,720.69 "/>
   <polygon class="fil2" points="1042.25,682.98 1069.77,720.69 1080.99,725.79 1090.16,710.5 1062.64,674.82 "/>
   <path class="fil3" d="M882.21 388.39l-17 -22.38c0,0 -32.94,6.08 -36,9.13 -3.06,3.06 8.15,59.12 8.15,59.12 0,0 2.04,15.29 11.21,23.45l9.17 6.12 75.43 -15.29 2.84 -33.56c0.2,-2.46 0.31,-4.94 0.31,-7.42 0,-22.23 -8.42,-43.66 -23.54,-59.94l0 0 -13.13 1.79 -17.45 38.98z"/>
   <path class="fil3" d="M833.28 377.17l-5.1 -2.04 -23.44 -2.04c0,0 -8.15,-2.04 -6.12,-6.12 2.04,-4.08 4.08,-5.1 0,-6.12 -4.08,-1.02 -5.1,-2.04 -4.08,-5.1 1.02,-3.06 7.14,-9.17 7.14,-9.17l-17.33 -14.27c0,0 -0.94,0.66 -2.45,1.89 -8.6,6.97 -35.83,32.1 -15.89,57.23 23.45,29.56 50.97,46.89 73.39,40.77l-6.12 -55.04z"/>
   <path class="fil1" d="M855.71 458.72l0 14.27c0,0 -9.17,17.33 -6.12,33.64 3.06,16.31 4.08,24.46 4.08,24.46 0.32,13.84 2.75,27.64 7.13,40.77 7.14,20.39 -16.31,153.92 13.25,155.96 29.56,2.04 45.87,4.08 55.04,-6.12 9.17,-10.19 -15.29,-185.52 -15.29,-185.52 0,0 83.59,174.31 100.92,167.17 17.33,-7.14 61.16,-23.45 56.06,-32.62 -5.1,-9.17 -133.53,-213.05 -133.53,-213.05l-4.08 -9.17 -77.46 10.2z"/>
   <path class="fil1" d="M904.64 754.33c0,0 -16.31,-1.02 -16.31,4.08 0,5.1 -8.15,22.43 -8.15,22.43 0,0 -6.12,20.39 10.19,18.35 16.31,-2.04 26.5,-20.39 26.5,-20.39l-4.08 -19.37 -8.15 -5.1z"/>
   <path class="fil1" d="M1074.87 718.65c0,0 -14.27,-9.17 -13.25,-3.06 1.02,6.12 2.04,22.42 9.17,23.44 7.14,1.02 28.54,7.14 29.56,9.17 1.02,2.04 25.48,10.19 25.48,-3.06 0,-13.25 -15.29,-23.45 -15.29,-23.45l-17.33 -13.25c0,0 -11.21,-1.02 -13.25,6.12 -2.04,7.14 -5.1,4.08 -5.1,4.08z"/>
   <circle class="fil1" cx="867.98" cy="271.81" r="16.93"/>
   <path class="fil1" d="M849.28 267.36c-0,-8.66 6.54,-15.92 15.14,-16.83 -0.59,-0.06 -1.19,-0.1 -1.78,-0.1 -9.35,0 -16.93,7.58 -16.93,16.92 0,9.35 7.58,16.93 16.93,16.93 0.59,0 1.19,-0.03 1.78,-0.1 -8.61,-0.91 -15.14,-8.17 -15.14,-16.83l0 0z"/>
   <polygon class="fil1" points="895.12,290.71 872,278.59 840.06,283.55 833.46,312.73 849.9,312.1 854.5,301.38 854.5,311.92 862.09,311.63 866.49,294.56 869.25,312.73 896.23,312.18 "/>
   <path class="fil2" d="M893.74 461.08l-35.66 0.96c0,0 -30.43,5.92 -28.72,-6.36 1.71,-12.28 31.4,-7.99 31.4,-7.99l32.5 -4.96 0.49 18.34z"/>
   <path class="fil3" d="M921.96 345.88c0.38,-0.06 0.76,-0.09 1.14,-0.09 3.32,0 6.26,2.15 7.26,5.31 6.98,22 28.49,95.63 7.12,105.73 -25.17,11.9 -43.54,11.37 -43.54,11.37l-9.83 -24.21 8.95 -8.4 9.56 -61.44 4.58 -26.05 14.77 -2.24z"/>
   <polygon class="fil4" points="915.34,386.86 911.26,427.63 875.59,442.92 915.34,433.75 "/>
   <path class="fil0" d="M722.94 252.25l0 0c11.49,3.04 21.43,10.28 27.88,20.26l3.34 5.16 0.17 0.21 58.5 17.12c1.82,0.53 3.07,2.2 3.07,4.09 0,0.38 -0.05,0.76 -0.15,1.12l-4.54 16.65c-0.51,1.85 -2.19,3.14 -4.11,3.14 -0.39,0 -0.78,-0.05 -1.15,-0.16l-58.51 -16.35 0 0 -5.88 2.22c-5.93,2.24 -12.23,3.39 -18.57,3.39 -5.14,0 -10.28,-0.76 -15.2,-2.24l0 -0 15.16 -54.61z"/>
   <ellipse class="fil3" transform="matrix(0.0465817 -0.159194 0.159194 0.0465817 778.109 298.66)" rx="21.53" ry="40.38"/>
   <circle class="fil0" cx="781.55" cy="299.83" r="2.46"/>
   <ellipse class="fil5" transform="matrix(0.0511624 -0.157782 0.157782 0.0511624 715.508 279.796)" rx="172.63" ry="78.06"/>
   <path class="fil4" d="M726.01 283.26c4.7,-14.5 3.42,-28 -2.76,-30.94 0.37,0.05 0.74,0.13 1.1,0.24 6.8,2.2 8.36,16.19 3.48,31.23 -4.88,15.04 -14.34,25.45 -21.15,23.24 -0.25,-0.08 -0.49,-0.18 -0.72,-0.29 6.69,0.85 15.43,-9.24 20.05,-23.49z"/>
   <path class="fil5" d="M723.7 252.3l-132.76 -102.98c-23.39,-18.19 -46.13,-38.03 -67.48,-58.52 -37.86,-36.05 -89.24,-64.89 -149.05,-80.24 -145.32,-37.31 -260.44,28.84 -312.8,125.97 -80.01,148.42 -141.33,389.27 213.45,261.06 77.59,-28.04 156.13,-31.02 215.68,-45.79l215.63 -44.46 17.33 -55.05z"/>
   <circle class="fil6" cx="325.14" cy="71.88" r="7.14"/>
   <polygon class="fil6" points="463.75,88.37 461.89,88.37 461.89,86.52 461.53,86.52 461.53,88.37 459.67,88.37 459.67,88.73 461.53,88.73 461.53,90.59 461.89,90.59 461.89,88.73 463.75,88.73 "/>
   <polygon class="fil6" points="650.29,243.31 648.43,243.31 648.43,241.46 648.07,241.46 648.07,243.31 646.21,243.31 646.21,243.68 648.07,243.68 648.07,245.53 648.43,245.53 648.43,243.68 650.29,243.68 "/>
   <polygon class="fil6" points="637.04,291.22 635.18,291.22 635.18,289.37 634.82,289.37 634.82,291.22 632.96,291.22 632.96,291.58 634.82,291.58 634.82,293.44 635.18,293.44 635.18,291.58 637.04,291.58 "/>
   <polygon class="fil6" points="67.22,332 65.37,332 65.37,330.14 65,330.14 65,332 63.15,332 63.15,332.36 65,332.36 65,334.22 65.37,334.22 65.37,332.36 67.22,332.36 "/>
   <polygon class="fil6" points="148.77,109.78 146.92,109.78 146.92,107.92 146.55,107.92 146.55,109.78 144.69,109.78 144.69,110.14 146.55,110.14 146.55,112 146.92,112 146.92,110.14 148.77,110.14 "/>
   <polygon class="fil6" points="465.79,299.38 463.93,299.38 463.93,297.52 463.57,297.52 463.57,299.38 461.71,299.38 461.71,299.74 463.57,299.74 463.57,301.6 463.93,301.6 463.93,299.74 465.79,299.74 "/>
   <polygon class="fil6" points="271.09,44.54 269.24,44.54 269.24,42.68 268.87,42.68 268.87,44.54 267.02,44.54 267.02,44.9 268.87,44.9 268.87,46.76 269.24,46.76 269.24,44.9 271.09,44.9 "/>
   <path class="fil7" d="M271.81 191.3l-2.31 0.36c0.72,4.63 1.29,9.36 1.71,14.04l2.33 -0.2c-0.42,-4.74 -1,-9.51 -1.73,-14.19z"/>
   <path class="fil7" d="M265.48 163.43l-2.24 0.68c1.36,4.49 2.57,9.08 3.6,13.66l2.29 -0.52c-1.05,-4.63 -2.28,-9.27 -3.65,-13.82z"/>
   <path class="fil7" d="M255.38 136.71l-2.13 0.98c1.96,4.27 3.79,8.65 5.45,13.04l2.19 -0.83c-1.68,-4.43 -3.53,-8.88 -5.51,-13.19z"/>
   <path class="fil7" d="M241.72 111.65l-1.98 1.25c2.52,3.96 4.93,8.05 7.17,12.16l2.06 -1.12c-2.26,-4.16 -4.71,-8.3 -7.26,-12.29z"/>
   <path class="fil7" d="M224.74 88.69l-1.78 1.52c3.04,3.57 5.99,7.3 8.79,11.07l1.87 -1.4c-2.81,-3.81 -5.8,-7.58 -8.88,-11.19z"/>
   <path class="fil7" d="M204.78 68.24l-1.56 1.74c3.51,3.13 6.94,6.42 10.21,9.78l1.68 -1.64c-3.31,-3.39 -6.79,-6.72 -10.34,-9.88z"/>
   <path class="fil7" d="M182.23 50.69l-1.31 1.93c3.89,2.62 7.75,5.41 11.45,8.3l1.45 -1.85c-3.75,-2.91 -7.65,-5.74 -11.58,-8.39z"/>
   <path class="fil7" d="M161.71 38.49l0 2.65c2.44,1.27 4.85,2.61 7.22,3.97l1.17 -2.03c-2.75,-1.59 -5.55,-3.12 -8.39,-4.6z"/>
   <path class="fil7" d="M271.96 220.16l2.34 -0.04c0.04,2.36 0.05,4.74 0.01,7.07l-2.34 -0.04c0.03,-2.3 0.03,-4.65 -0.01,-6.99z"/>
   <path class="fil7" d="M134.2 392.12l-2.32 0.36c0.72,4.63 1.3,9.36 1.71,14.04l2.33 -0.2c-0.42,-4.74 -1,-9.51 -1.73,-14.19z"/>
   <path class="fil7" d="M127.86 364.25l-2.24 0.68c1.35,4.49 2.57,9.08 3.6,13.66l2.29 -0.52c-1.05,-4.63 -2.28,-9.27 -3.65,-13.82z"/>
   <path class="fil7" d="M117.76 337.52l-2.13 0.98c1.96,4.27 3.79,8.65 5.45,13.04l2.19 -0.83c-1.68,-4.43 -3.53,-8.88 -5.51,-13.19z"/>
   <path class="fil7" d="M104.1 312.46l-1.98 1.25c2.52,3.96 4.93,8.05 7.18,12.16l2.06 -1.12c-2.26,-4.16 -4.71,-8.3 -7.26,-12.29z"/>
   <path class="fil7" d="M87.12 289.5l-1.78 1.52c3.04,3.57 5.99,7.3 8.79,11.07l1.88 -1.4c-2.82,-3.81 -5.8,-7.58 -8.88,-11.19z"/>
   <path class="fil7" d="M67.16 269.05l-1.56 1.74c3.5,3.13 6.94,6.42 10.21,9.78l1.68 -1.64c-3.31,-3.39 -6.79,-6.72 -10.34,-9.88z"/>
   <path class="fil7" d="M44.61 251.5l-1.31 1.94c3.9,2.62 7.75,5.41 11.45,8.3l1.45 -1.84c-3.75,-2.92 -7.65,-5.74 -11.58,-8.39z"/>
   <path class="fil7" d="M24.1 239.31l0 2.65c2.44,1.27 4.85,2.61 7.22,3.98l1.17 -2.03c-2.75,-1.59 -5.55,-3.12 -8.39,-4.6z"/>
   <path class="fil7" d="M134.35 420.97l2.34 -0.04c0.04,2.36 0.04,4.75 0.01,7.07l-2.34 -0.04c0.03,-2.3 0.03,-4.65 -0.01,-6.99z"/>
   <path class="fil7" d="M605.14 291.2l-2.32 0.36c0.72,4.63 1.3,9.36 1.71,14.04l2.33 -0.2c-0.42,-4.74 -1,-9.51 -1.73,-14.19z"/>
   <path class="fil7" d="M598.8 263.33l-2.24 0.68c1.35,4.49 2.57,9.08 3.6,13.66l2.29 -0.52c-1.05,-4.63 -2.28,-9.28 -3.65,-13.82z"/>
   <path class="fil7" d="M588.7 236.6l-2.13 0.98c1.96,4.27 3.79,8.65 5.45,13.04l2.19 -0.82c-1.68,-4.43 -3.53,-8.88 -5.51,-13.19z"/>
   <path class="fil7" d="M575.04 211.55l-1.98 1.25c2.52,3.96 4.93,8.05 7.18,12.16l2.06 -1.12c-2.26,-4.16 -4.71,-8.3 -7.26,-12.29z"/>
   <path class="fil7" d="M558.06 188.58l-1.78 1.52c3.04,3.57 5.99,7.3 8.79,11.07l1.87 -1.4c-2.81,-3.81 -5.8,-7.58 -8.88,-11.19z"/>
   <path class="fil7" d="M538.1 168.13l-1.56 1.74c3.51,3.13 6.94,6.42 10.22,9.78l1.68 -1.64c-3.31,-3.39 -6.79,-6.72 -10.34,-9.88z"/>
   <path class="fil7" d="M515.55 150.58l-1.31 1.94c3.9,2.62 7.75,5.41 11.45,8.3l1.45 -1.84c-3.75,-2.91 -7.65,-5.74 -11.58,-8.39z"/>
   <path class="fil7" d="M495.03 138.39l0 2.65c2.44,1.28 4.85,2.61 7.22,3.98l1.17 -2.03c-2.75,-1.59 -5.55,-3.12 -8.39,-4.6z"/>
   <path class="fil7" d="M605.29 320.05l2.34 -0.04c0.04,2.37 0.05,4.75 0.01,7.07l-2.34 -0.03c0.03,-2.3 0.03,-4.65 -0.01,-6.99z"/>
   <polygon class="fil6" points="152.18,203.76 150.46,203.76 150.46,202.03 150.12,202.03 150.12,203.76 148.39,203.76 148.39,204.1 150.12,204.1 150.12,205.83 150.46,205.83 150.46,204.1 152.18,204.1 "/>
   <polygon class="fil6" points="132.26,308.1 130.54,308.1 130.54,306.37 130.2,306.37 130.2,308.1 128.47,308.1 128.47,308.44 130.2,308.44 130.2,310.16 130.54,310.16 130.54,308.44 132.26,308.44 "/>
   <polygon class="fil6" points="73.82,399.54 72.09,399.54 72.09,397.82 71.75,397.82 71.75,399.54 70.02,399.54 70.02,399.88 71.75,399.88 71.75,401.61 72.09,401.61 72.09,399.88 73.82,399.88 "/>
   <path class="fil0" d="M236.4 283.56c-13.87,-20.63 -21.32,-45 -21.32,-69.88 0,-69.13 56.06,-125.19 125.19,-125.19 69.13,0 125.19,56.06 125.19,125.19 0,69.13 -56.06,125.19 -125.19,125.19 -15.67,0 -31.21,-2.95 -45.79,-8.67 -4.89,17.47 -20.83,29.56 -38.99,29.56 -22.36,0 -40.49,-18.13 -40.49,-40.5 0,-14.94 8.22,-28.67 21.4,-35.71l0 0z"/>
   <path class="fil5" d="M339.57 142.14c28.7,0 48.44,15.92 48.44,38.8 0,15.15 -7.35,25.64 -21.51,33.98 -13.32,7.73 -17.83,13.39 -17.83,23.19l0 -0c0,0 0,0 0,0 0,3.34 -2.71,6.05 -6.05,6.05 0,0 0,0 0,0l-14.67 0c0,0 0,0 0,0 -3.26,0 -5.93,-2.58 -6.04,-5.83l-0.03 -0.75c-1.3,-15.77 4.21,-25.56 18.06,-33.67 12.94,-7.73 18.37,-12.63 18.37,-22.12 0,-9.49 -9.18,-16.45 -20.59,-16.45 -8.67,0 -15.53,4.22 -18.67,11.11 -2.23,4.72 -6.99,7.72 -12.21,7.72 -0.05,0 -0.1,0 -0.14,0l0 0c-9.94,0 -16.51,-10.57 -11.86,-19.36 7.35,-13.9 22.87,-22.66 44.71,-22.66zm-20.13 131.17c0,-8.8 7.35,-15.76 16.38,-15.76 9.11,0 16.45,6.89 16.45,15.76 0,8.88 -7.35,15.76 -16.45,15.76 -9.11,0 -16.38,-6.89 -16.38,-15.76z"/>
  </g>
  <g id="_2401768867936">
   <g>
    <path class="fil8" d="M453.58 609.71c0,-10.03 -0.82,-17.34 -2.58,-24.93l-114.49 0 0 45.25 67.2 0c-1.35,11.25 -8.67,28.18 -24.93,39.56l-0.23 1.51 36.2 28.04 2.51 0.25c23.03,-21.27 36.31,-52.57 36.31,-89.7l0 0zm0 0l0 0 0 0z"/>
   </g>
   <path class="fil9" d="M336.52 728.94c32.92,0 60.56,-10.84 80.75,-29.54l-38.48 -29.81c-10.3,7.18 -24.12,12.19 -42.27,12.19 -32.25,0 -59.62,-21.27 -69.37,-50.67l-1.43 0.12 -37.64 29.13 -0.49 1.37c20.05,39.83 61.24,67.2 108.93,67.2z"/>
   <g>
    <path class="fil10" d="M267.15 631.11c-2.57,-7.59 -4.06,-15.72 -4.06,-24.12 0,-8.4 1.49,-16.53 3.93,-24.12l-0.07 -1.62 -38.11 -29.6 -1.24 0.59c-8.27,16.53 -13.01,35.09 -13.01,54.74 0,19.65 4.74,38.21 13.01,54.74l39.56 -30.62 0 0zm0 0l0 0 0 0z"/>
   </g>
   <g>
    <path class="fil11" d="M336.52 532.2c22.9,0 38.34,9.89 47.15,18.16l34.41 -33.6c-21.13,-19.65 -48.64,-31.7 -81.56,-31.7 -47.69,0 -88.88,27.37 -108.93,67.21l39.43 30.62c9.89,-29.4 37.26,-50.67 69.51,-50.67l0 0zm0 0l0 0 0 0z"/>
   </g>
  </g>
 </g>
</svg>
