<?xml version="1.0" encoding="UTF-8"?>
<!DOCTYPE svg PUBLIC "-//W3C//DTD SVG 1.1//EN" "http://www.w3.org/Graphics/SVG/1.1/DTD/svg11.dtd">
<!-- Creator: CorelDRAW 2021 (64-Bit) -->
<svg xmlns="http://www.w3.org/2000/svg" xml:space="preserve" width="1.86069in" height="1.37795in" version="1.1" style="shape-rendering:geometricPrecision; text-rendering:geometricPrecision; image-rendering:optimizeQuality; fill-rule:evenodd; clip-rule:evenodd"
viewBox="0 0 116.3 86.13"
 xmlns:xlink="http://www.w3.org/1999/xlink"
 xmlns:xodm="http://www.corel.com/coreldraw/odm/2003">
 <defs>
  <style type="text/css">
   <![CDATA[
    .fil1 {fill:#476FB4}
    .fil4 {fill:#FEFEFE;fill-rule:nonzero}
    .fil6 {fill:#00C4B5;fill-rule:nonzero}
    .fil9 {fill:#2F2E41;fill-rule:nonzero}
    .fil7 {fill:#3F3D56;fill-rule:nonzero}
    .fil0 {fill:#5E90FF;fill-rule:nonzero}
    .fil5 {fill:#A0616A;fill-rule:nonzero}
    .fil3 {fill:#CCCCCC;fill-rule:nonzero}
    .fil2 {fill:#F2F2F2;fill-rule:nonzero}
    .fil10 {fill:#FF6584;fill-rule:nonzero}
    .fil8 {fill:white;fill-rule:nonzero}
   ]]>
  </style>
 </defs>
 <g id="Layer_x0020_1">
  <metadata id="CorelCorpID_0Corel-Layer"/>
  <g id="_2401828700400">
   <path class="fil0" d="M45.53 9.25c-2.09,0 -3.78,1.69 -3.78,3.78 0,2.09 1.69,3.78 3.78,3.78 2.09,0 3.78,-1.69 3.78,-3.78 0,-2.09 -1.69,-3.78 -3.78,-3.78l0 0z"/>
   <path class="fil1" d="M22.09 48.23c2.15,-2.91 4.54,-5.21 7.58,-5.21 5.75,0 10.49,7.32 10.49,16.04 0,5.32 -2.29,8.65 -6.4,8.65 -3.58,0 -5.56,-2.01 -9.11,-7.95l-1.55 -2.61 -0.27 -0.46c-0.4,-0.67 -0.83,-1.39 -1.24,-2.04l-2.74 4.83c-3.89,6.79 -6.07,8.22 -9.11,8.22 -4.21,0 -6.74,-3.28 -6.74,-8.49 0,-8.33 4.63,-16.19 10.68,-16.19 0.74,0 1.45,0.09 2.15,0.28 0.72,0.2 1.42,0.51 2.12,0.95 1.34,0.83 2.68,2.12 4.14,3.98l-0 -0zm3.52 5.16c-0.59,-0.95 -1.15,-1.83 -1.69,-2.63l-0.01 -0.02c1.96,-3.03 3.58,-4.54 5.51,-4.54 4,0 7.2,5.89 7.2,13.13 0,2.76 -0.91,4.36 -2.78,4.36 -1.8,0 -2.65,-1.18 -6.06,-6.67l-2.18 -3.63 0 0zm-11.35 -6.3c1.68,0.23 3.22,1.47 5.43,4.65 -1.2,1.85 -2.58,3.95 -3.78,5.88 -3.15,4.94 -4.24,6.05 -5.99,6.05 -1.8,0 -2.88,-1.58 -2.88,-4.41 0,-6.04 3.01,-12.23 6.61,-12.23 0.21,0 0.42,0.01 0.63,0.04l-0.01 0.03z"/>
   <g>
    <path class="fil2" d="M7.18 85.87c0,-3.68 2.98,-6.66 6.66,-6.66 3.68,0 6.66,2.98 6.66,6.66l-13.32 0zm0 0l0 0 0 0z"/>
   </g>
   <path class="fil3" d="M13.84 85.87c-0.1,-0 -0.18,-0.08 -0.18,-0.18l0 -3.51c0,-0.1 0.08,-0.18 0.18,-0.18 0.1,0 0.18,0.08 0.18,0.18l0 3.51c0,0.1 -0.08,0.18 -0.18,0.18l-0 0z"/>
   <path class="fil3" d="M13.84 84.66c0,-0 0,-0 0,-0 -0.04,0 -0.08,-0.02 -0.12,-0.04l-2.16 -1.85c-0.04,-0.03 -0.06,-0.08 -0.06,-0.14 0,-0.1 0.08,-0.18 0.18,-0.18 0.04,0 0.09,0.02 0.12,0.04l2.16 1.85c0.04,0.03 0.06,0.08 0.06,0.14 0,0.1 -0.08,0.18 -0.18,0.18 0,0 -0,0 -0,0l0 0z"/>
   <g>
    <path class="fil2" d="M27.7 85.87c0,-3.68 2.98,-6.66 6.66,-6.66 3.68,0 6.66,2.98 6.66,6.66l-13.32 0zm0 0l0 0 0 0z"/>
   </g>
   <path class="fil3" d="M34.36 85.87c-0.1,-0 -0.18,-0.08 -0.18,-0.18l0 -3.51c0,-0.1 0.08,-0.18 0.18,-0.18 0.1,0 0.18,0.08 0.18,0.18l0 3.51c0,0.1 -0.08,0.18 -0.18,0.18l0 0z"/>
   <path class="fil3" d="M34.36 84.66c0,-0 0,-0 -0,-0 -0.04,0 -0.08,-0.02 -0.12,-0.04l-2.16 -1.85c-0.04,-0.03 -0.06,-0.08 -0.06,-0.14 0,-0.1 0.08,-0.18 0.18,-0.18 0.04,0 0.08,0.02 0.12,0.04l2.16 1.85c0.04,0.03 0.06,0.08 0.06,0.14 0,0.1 -0.08,0.18 -0.18,0.18 0,0 0,0 0,0l0 0z"/>
   <path class="fil0" d="M41.56 26c-1.49,0 -2.7,1.21 -2.7,2.7 0,1.49 1.21,2.7 2.7,2.7 1.49,0 2.7,-1.21 2.7,-2.7 0,-1.49 -1.21,-2.7 -2.7,-2.7l0 0z"/>
   <path class="fil4" d="M46.75 13.49c0,0.18 -0.14,0.32 -0.32,0.32l0 0.01c0.12,0.03 0.21,0.13 0.21,0.26 0,0.13 -0.09,0.24 -0.21,0.26l0 0.11c0.28,0 0.28,0.43 -0,0.43l-2.13 0c-0.06,0 -0.11,-0.05 -0.11,-0.11l0 -1.7c0,-0.53 0.85,-1.28 0.85,-1.28l0 -0.26c0,0 0,-0 0,-0 0,-0.18 0.14,-0.32 0.32,-0.32 0.15,0 0.28,0.1 0.31,0.25 0,0.01 0,0.01 0,0.02 0.11,0.53 -0.26,1.07 -0.26,1.07l0.76 0c0.01,-0 0.02,-0 0.03,-0l0.32 0c0.18,0 0.32,0.14 0.32,0.32 0,0.18 -0.14,0.32 -0.32,0.32 0.05,-0.01 0.13,-0.05 0.16,-0.01 0.06,0.08 0.08,0.19 0.05,0.33z"/>
   <path class="fil5" d="M53.94 53.58c0.88,-0.2 1.5,-0.98 1.5,-1.88 0,-0.26 -0.05,-0.52 -0.16,-0.76l7.13 -16.11 -4.08 -1.03 -5.73 16.16c-0.65,0.33 -1.06,1 -1.06,1.73 0,1.07 0.87,1.94 1.94,1.94 0.15,0 0.3,-0.02 0.45,-0.05l-0 0z"/>
   <path class="fil6" d="M60.37 39.87l-3.97 -1.86c-0.3,-0.14 -0.5,-0.45 -0.5,-0.79 0,-0.17 0.05,-0.34 0.14,-0.48l2.41 -3.64c0.4,-0.84 1.25,-1.37 2.17,-1.37 1.33,0 2.41,1.08 2.41,2.41 0,0.35 -0.08,0.7 -0.23,1.02l-1.25 4.17c-0.11,0.37 -0.45,0.62 -0.83,0.62 -0.13,0 -0.25,-0.03 -0.37,-0.08z"/>
   <path class="fil7" d="M46.58 37.79l4.37 3.1c0.06,0.04 0.12,0.06 0.19,0.06 0.07,0 0.14,-0.02 0.19,-0.06l1.18 -0.89c0.08,-0.06 0.13,-0.16 0.13,-0.26 0,-0.09 -0.04,-0.18 -0.11,-0.24l-3.37 -3c-0.06,-0.05 -0.14,-0.08 -0.22,-0.08 -0.04,0 -0.07,0.01 -0.11,0.02l-2.19 0.78c-0.13,0.05 -0.22,0.17 -0.22,0.31 0,0.11 0.05,0.21 0.14,0.27l-0 0z"/>
   <path class="fil8" d="M46.97 37.56l3.94 2.79c0.02,0.02 0.04,0.02 0.07,0.02 0.02,0 0.05,-0.01 0.07,-0.02l1.06 -0.8c0.03,-0.02 0.05,-0.06 0.05,-0.09 0,-0.02 -0.01,-0.05 -0.02,-0.07 -0,-0.01 -0.01,-0.01 -0.02,-0.02l-3.04 -2.71c-0.02,-0.02 -0.05,-0.03 -0.08,-0.03 -0.01,0 -0.03,0 -0.04,0.01l-1.97 0.71c-0.05,0.02 -0.08,0.06 -0.08,0.11 0,0.04 0.02,0.07 0.05,0.1l0 0z"/>
   <polygon class="fil5" points="62.51,83.96 60.31,83.96 59.26,75.44 62.52,75.44 "/>
   <path class="fil9" d="M63.08 86.1l-7.12 -0 0 -0.09c0,0 0,0 0,0 0,-1.53 1.24,-2.77 2.77,-2.77 0,0 0,0 0,0l0 0 4.35 0 -0 2.86z"/>
   <polygon class="fil5" points="69.9,83.96 67.69,83.96 66.64,75.44 69.9,75.44 "/>
   <path class="fil9" d="M70.46 86.1l-7.12 -0 0 -0.09c0,0 0,0 0,0 0,-1.53 1.24,-2.77 2.77,-2.77 0,0 0,0 0,0l0 0 4.35 0 0 2.86z"/>
   <path class="fil9" d="M69.8 81.59c-0.02,0 -0.04,-0 -0.06,-0l-2.54 -0.19c-0.36,-0.03 -0.65,-0.29 -0.73,-0.64l-4.41 -24.19c-0.03,-0.12 -0.14,-0.21 -0.26,-0.21 -0.15,0 -0.27,0.12 -0.27,0.27 0,0.01 0,0.01 0,0.02l1.56 23.84c0,0.02 0,0.04 0,0.06 0,0.45 -0.36,0.81 -0.81,0.81 0,0 0,0 0,0l-1.93 0c-0,0 -0,0 -0,0 -0.33,0 -0.63,-0.2 -0.75,-0.52 -4.86,-12.73 -3.1,-37.67 -3.09,-37.92l0.18 -0.18 0 0 9.68 1.67 0.02 0.02c3.31,2.43 4.74,30.88 4.21,36.3 -0,0.23 -0.09,0.45 -0.24,0.62 -0.15,0.15 -0.36,0.23 -0.57,0.23 0,0 -0,0 -0,0l0 0z"/>
   <circle class="fil5" cx="57.62" cy="23.73" r="4.42"/>
   <path class="fil6" d="M67.77 48.52c0,-0 0,-0 0,-0 -0.05,0 -0.09,-0 -0.13,-0.01l-11.36 -1.46c-0.41,-0.08 -0.7,-0.52 -0.68,-1.01l1.09 -6c-1.44,-1.8 -0.08,-6.45 0.8,-7.63l-0.34 -0.92c-0.05,-0.13 -0.07,-0.26 -0.07,-0.39 0,-0.12 0.02,-0.24 0.05,-0.35 0.07,-0.23 0.22,-0.42 0.43,-0.54l4.61 -2.45c0.41,-0.22 0.89,0 1.07,0.49l0.9 2.45 -0.01 0.01c2.16,1.16 4.08,2.31 2.64,8.43l1.81 8.45c-0.01,0.27 -0.11,0.52 -0.3,0.71 -0.13,0.14 -0.32,0.21 -0.51,0.22l0 0z"/>
   <path class="fil5" d="M51.74 38.61c0.07,0.07 0.14,0.14 0.2,0.22l8.91 -0.62 0.96 -1.95 3.13 1.06 -1.36 3.61c-0.21,0.56 -0.75,0.93 -1.35,0.93 -0.04,0 -0.07,-0 -0.11,-0l-10.13 -0.77c-0.36,0.49 -0.93,0.79 -1.53,0.79 -1.04,0 -1.89,-0.85 -1.89,-1.89 0,-1.04 0.85,-1.89 1.89,-1.89 0.48,0 0.94,0.18 1.29,0.5l0 0z"/>
   <path class="fil6" d="M60.69 37.79c-0.04,-0.1 -0.06,-0.2 -0.06,-0.31 0,-0.13 0.03,-0.25 0.09,-0.37l1.84 -3.63c0.31,-0.92 1.17,-1.54 2.13,-1.54 1.24,0 2.25,1.01 2.25,2.25 0,0.24 -0.04,0.47 -0.11,0.7l-0.71 4.02c-0.07,0.39 -0.4,0.67 -0.8,0.67 -0.09,0 -0.17,-0.01 -0.26,-0.04l-3.88 -1.29c-0.22,-0.07 -0.4,-0.24 -0.49,-0.46z"/>
   <path class="fil10" d="M46.79 34.82c-0.04,0.03 -0.08,0.05 -0.13,0.05 -0.05,0 -0.1,-0.02 -0.13,-0.05l-0.1 -0.09c-0.85,-0.78 -1.33,-1.28 -1.33,-1.91 0,-0.51 0.32,-0.91 0.83,-0.91 0.29,0 0.56,0.13 0.74,0.35 0.18,-0.22 0.45,-0.35 0.74,-0.35 0.51,0 0.83,0.39 0.83,0.91 0,0.63 -0.49,1.13 -1.33,1.91l-0.1 0.09z"/>
   <path class="fil10" d="M40.61 24.07c-0.07,0.07 -0.16,0.1 -0.26,0.1 -0.1,0 -0.19,-0.04 -0.26,-0.1l-0.2 -0.18c-1.62,-1.49 -2.56,-2.45 -2.56,-3.66 0,-0.98 0.62,-1.74 1.6,-1.74 0.55,0 1.06,0.25 1.42,0.66 0.35,-0.42 0.87,-0.66 1.42,-0.66 0.98,0 1.6,0.76 1.6,1.74 0,1.2 -0.94,2.17 -2.56,3.66l-0.2 0.18z"/>
   <path class="fil10" d="M40.87 7.25c-0.09,0.08 -0.21,0.13 -0.33,0.13 -0.12,0 -0.24,-0.05 -0.33,-0.13l-0.26 -0.23c-2.1,-1.93 -3.32,-3.19 -3.32,-4.75 0,-1.28 0.81,-2.26 2.07,-2.26 0.71,0 1.38,0.32 1.84,0.86 0.46,-0.54 1.13,-0.86 1.84,-0.86 1.27,0 2.07,0.98 2.07,2.26 0,1.56 -1.22,2.82 -3.32,4.75l-0.26 0.23z"/>
   <path class="fil3" d="M116.12 86.13l-115.94 0c-0.1,0 -0.18,-0.08 -0.18,-0.18 0,-0.1 0.08,-0.18 0.18,-0.18l115.94 0c0.1,-0 0.18,0.08 0.18,0.18 0,0.1 -0.08,0.18 -0.18,0.18l0 0z"/>
   <circle class="fil9" cx="60.11" cy="16.64" r="3.6"/>
   <path class="fil9" d="M53.44 24.27c-0.35,0.04 -0.73,0.07 -1.04,-0.09 -0.34,-0.19 -0.57,-0.54 -0.62,-0.93 -0.67,-4.46 3.12,-4.09 3.57,-4.28 0.3,-0.13 0.52,-0.39 0.79,-0.58 0.59,-0.41 1.35,-0.44 2.07,-0.46 0.85,-0.02 1.73,-0.03 2.52,0.31 0.7,0.33 1.29,0.87 1.67,1.54 0.38,0.67 0.66,1.4 0.83,2.15 0.22,0.86 0.36,1.77 0.14,2.63 -0.38,1.34 -1.57,2.29 -2.96,2.37 0.29,-1.03 -0.34,-2.17 -1.29,-2.67 -0.51,-0.25 -1.07,-0.38 -1.64,-0.38 -0.27,0 -0.55,0.03 -0.81,0.09 -0.54,0.11 -1.08,0.18 -1.63,0.2 -0.54,0.02 -1.18,0.05 -1.61,0.1z"/>
   <path class="fil2" d="M111.19 38.12c0,-8.69 -7.05,-29.31 -15.74,-29.31 -8.69,0 -15.74,20.62 -15.74,29.31 0.01,8.69 7.05,15.73 15.74,15.73 8.69,0 15.74,-7.04 15.74,-15.73l0 0z"/>
   <path class="fil3" d="M95.45 85.95c-0.1,-0 -0.18,-0.08 -0.18,-0.18l0 -49.71c0,-0.1 0.08,-0.18 0.18,-0.18 0.1,0 0.18,0.08 0.18,0.18l0 49.71c0,0.1 -0.08,0.18 -0.18,0.18l0 0z"/>
   <path class="fil3" d="M95.45 42.92c0,-0 0,-0 -0,-0 -0.05,0 -0.1,-0.02 -0.14,-0.06l-9.05 -10.44c-0.03,-0.03 -0.04,-0.07 -0.04,-0.12 0,-0.1 0.08,-0.18 0.18,-0.18 0.05,0 0.1,0.02 0.14,0.06l9.05 10.44c0.03,0.03 0.04,0.07 0.04,0.12 0,0.1 -0.08,0.18 -0.18,0.18l0 0z"/>
   <path class="fil3" d="M95.45 48.95c-0.1,0 -0.18,-0.08 -0.18,-0.18 0,-0.05 0.02,-0.09 0.05,-0.13l5.15 -5.15c0.03,-0.03 0.08,-0.05 0.13,-0.05 0.1,0 0.18,0.08 0.18,0.18 0,0.05 -0.02,0.09 -0.05,0.13l-5.14 5.14c-0.03,0.03 -0.08,0.05 -0.13,0.05 0,0 -0,0 -0,0l0 0z"/>
   <path class="fil3" d="M95.45 68.75c-0.1,0 -0.18,-0.08 -0.18,-0.18 0,-0.05 0.02,-0.09 0.05,-0.13l5.15 -5.15c0.03,-0.03 0.08,-0.05 0.13,-0.05 0.1,0 0.18,0.08 0.18,0.18 0,0.05 -0.02,0.09 -0.05,0.13l-5.14 5.15c-0.03,0.03 -0.08,0.05 -0.13,0.05 0,0 -0,0 -0,0l0 0z"/>
   <path class="fil4" d="M42.54 29.06c0,0.14 -0.11,0.26 -0.26,0.26l0 0c0.1,0.02 0.17,0.11 0.17,0.21 0,0.1 -0.07,0.19 -0.17,0.21l0 0.09c0.22,0 0.22,0.34 -0,0.34l-1.7 0c-0.05,0 -0.09,-0.04 -0.09,-0.09l0 -1.36c0,-0.43 0.68,-1.02 0.68,-1.02l0 -0.21c0,0 0,-0 0,-0 0,-0.14 0.12,-0.26 0.26,-0.26 0.12,0 0.22,0.08 0.25,0.2 0,0 0,0.01 0,0.01 0.09,0.43 -0.21,0.85 -0.21,0.85l0.61 0c0.01,-0 0.02,-0 0.02,-0l0.26 0c0.14,0 0.26,0.11 0.26,0.26 0,0.14 -0.11,0.26 -0.26,0.26 0.04,-0.01 0.1,-0.04 0.13,-0.01 0.05,0.06 0.06,0.15 0.04,0.26z"/>
  </g>
 </g>
</svg>
