<?xml version="1.0" encoding="UTF-8"?>
<!DOCTYPE svg PUBLIC "-//W3C//DTD SVG 1.1//EN" "http://www.w3.org/Graphics/SVG/1.1/DTD/svg11.dtd">
<!-- Creator: CorelDRAW 2021 (64-Bit) -->
<svg xmlns="http://www.w3.org/2000/svg" xml:space="preserve" width="2.88139in" height="1.37795in" version="1.1" style="shape-rendering:geometricPrecision; text-rendering:geometricPrecision; image-rendering:optimizeQuality; fill-rule:evenodd; clip-rule:evenodd"
viewBox="0 0 1294.25 618.94"
 xmlns:xlink="http://www.w3.org/1999/xlink"
 xmlns:xodm="http://www.corel.com/coreldraw/odm/2003">
 <defs>
  <style type="text/css">
   <![CDATA[
    .fil3 {fill:#00C4B5;fill-rule:nonzero}
    .fil7 {fill:#2F2E41;fill-rule:nonzero}
    .fil0 {fill:#3F3D56;fill-rule:nonzero}
    .fil5 {fill:#A0616A;fill-rule:nonzero}
    .fil4 {fill:#E5E5E5;fill-rule:nonzero}
    .fil1 {fill:#E6E6E6;fill-rule:nonzero}
    .fil2 {fill:white;fill-rule:nonzero}
    .fil6 {fill:black;fill-rule:nonzero;fill-opacity:0.101961}
   ]]>
  </style>
 </defs>
 <g id="Layer_x0020_1">
  <metadata id="CorelCorpID_0Corel-Layer"/>
  <path id="f8c762bc-b7e7-4c8e-b73e-f411c620c2bd-1765" class="fil0" d="M1010.99 92.99l-317.36 0 0 -6.54 -143.91 0 0 6.54 -318.67 0c-11.85,0 -21.47,9.61 -21.47,21.47l0 0 0 434.57c0,11.85 9.61,21.47 21.47,21.47l779.94 0c11.86,0 21.47,-9.61 21.47,-21.47l0 -434.57c0,-11.86 -9.61,-21.47 -21.47,-21.47l0 0z" data-name="Path 765"/>
  <rect id="febd0196-f53d-4e2b-8506-d3dc9ab4b723" class="fil1" x="238.36" y="130.93" width="765.31" height="431.72" data-name="Rectangle 125"/>
  <rect id="a687e43e-dc25-402c-aff7-aaf80cd82cec" class="fil2" x="270.82" y="153.76" width="700.66" height="373.16" data-name="Rectangle 130"/>
  <path id="a3b325e1-b438-4eea-a78d-99975bd1014d-1766" class="fil0" d="M1053.95 554.79l-74.69 0 0 -5.38c0,-0.59 -0.48,-1.07 -1.07,-1.07l-25.61 0c-0.59,-0 -1.07,0.48 -1.07,1.07l0 0 0 5.38 -16 0 0 -5.38c0,-0.59 -0.48,-1.07 -1.07,-1.07l-25.61 0c-0.59,-0 -1.07,0.48 -1.07,1.07l0 0 0 5.38 -16 0 0 -5.38c0,-0.59 -0.48,-1.07 -1.07,-1.07l-25.61 0c-0.59,-0 -1.07,0.48 -1.07,1.07l0 0 0 5.38 -16 0 0 -5.38c0,-0.59 -0.48,-1.07 -1.07,-1.07l-25.61 0c-0.59,-0 -1.07,0.48 -1.07,1.07l0 0 0 5.38 -16 0 0 -5.38c-0,-0.59 -0.48,-1.07 -1.07,-1.07l-25.61 0c-0.59,-0 -1.07,0.48 -1.07,1.07l0 0 0 5.38 -16 0 0 -5.38c-0,-0.59 -0.48,-1.07 -1.07,-1.07l-25.6 0c-0.59,-0 -1.07,0.48 -1.07,1.07l0 0 0 5.38 -16.01 0 0 -5.38c0,-0.59 -0.48,-1.07 -1.07,-1.07l-200.59 0c-0.59,-0 -1.07,0.48 -1.07,1.07l-0 0 0 5.38 -16 0 0 -5.38c0,-0.59 -0.48,-1.07 -1.07,-1.07l-25.61 0c-0.59,-0 -1.07,0.48 -1.07,1.07l0 0 0 5.38 -16 0 0 -5.38c0,-0.59 -0.48,-1.07 -1.07,-1.07l-25.61 0c-0.59,-0 -1.07,0.48 -1.07,1.07l0 0 0 5.38 -16.01 0 0 -5.38c0,-0.59 -0.48,-1.07 -1.07,-1.07l-25.61 0c-0.59,-0 -1.07,0.48 -1.07,1.07l0 0 0 5.38 -16 0 0 -5.38c0,-0.59 -0.48,-1.07 -1.07,-1.07l-25.61 0c-0.59,-0 -1.07,0.48 -1.07,1.07l-0 0 0 5.38 -16 0 0 -5.38c0,-0.59 -0.48,-1.07 -1.07,-1.07l-25.61 0c-0.59,-0 -1.07,0.48 -1.07,1.07l0 0 0 5.38 -16 0 0 -5.38c0,-0.59 -0.48,-1.07 -1.07,-1.07l-25.61 0c-0.59,-0 -1.07,0.48 -1.07,1.07l-0 0 0 5.38 -49.08 0c-14.14,-0 -25.61,11.47 -25.61,25.61l0 11.58c0,14.14 11.47,25.61 25.61,25.61l851.46 0c14.14,0 25.61,-11.47 25.61,-25.61l0 -11.58c0,-14.14 -11.47,-25.61 -25.61,-25.61l0 0z" data-name="Path 766"/>
  <rect id="e8772b6c-5a9b-4fa1-81c9-662ac65893c6" class="fil1" x="466.23" y="179.93" width="309.84" height="325.7" data-name="Rectangle 126"/>
  <rect id="a87049f2-d9c9-408d-98dd-ac42069ee321" class="fil1" x="-0" y="616.5" width="1294.25" height="2.44" data-name="Rectangle 128"/>
  <path id="b307d008-1640-4a06-af2e-4466e39d32c3-1767" class="fil3" d="M1168.55 531.28c17.54,18.82 18.44,46.48 18.44,46.48 0,0 -27.53,-2.85 -45.06,-21.67 -17.54,-18.82 -18.44,-46.48 -18.44,-46.48 0,0 27.53,2.85 45.06,21.67z" data-name="Path 776"/>
  <path id="e6bb151c-e5ac-48bf-b05a-35e8b71544cc-1768" class="fil3" d="M1223.75 560.65c-18.82,17.54 -46.48,18.44 -46.48,18.44 0,0 2.85,-27.53 21.67,-45.06 18.82,-17.54 46.48,-18.44 46.48,-18.44 0,0 -2.85,27.53 -21.67,45.06z" data-name="Path 777"/>
  <path id="e2659c84-c871-46e0-a841-faed920e56d0-1769" class="fil4" d="M1219.08 616.5l-69.21 0c0,-0 -0,-0 -0,-0 -2.71,0 -5.18,-1.55 -6.36,-3.98l-15.07 -30.98c-0.47,-0.97 -0.72,-2.03 -0.72,-3.1 0,-3.91 3.17,-7.08 7.08,-7.08 0,0 0.01,0 0.01,0l99.35 0c0,0 0.01,0 0.01,0 3.91,0 7.08,3.17 7.08,7.08 0,1.07 -0.25,2.14 -0.72,3.1l-15.07 30.98c-1.18,2.44 -3.66,3.98 -6.36,3.98 -0,0 -0,0 -0,0l0 0z" data-name="Path 778"/>
  <path id="b4ca1fea-0850-4eee-815e-097d11075e0d-1770" class="fil4" d="M74.36 531.28c17.54,18.82 18.44,46.48 18.44,46.48 0,0 -27.53,-2.85 -45.06,-21.67 -17.54,-18.82 -18.44,-46.48 -18.44,-46.48 0,0 27.53,2.85 45.06,21.67z" data-name="Path 779"/>
  <path id="f6595469-42b3-4592-aaf8-acdcc6d1b7a1-1771" class="fil4" d="M113.91 616.5l-69.21 0c0,-0 -0,-0 -0,-0 -2.71,0 -5.18,-1.55 -6.36,-3.98l-15.07 -30.98c-0.47,-0.97 -0.72,-2.03 -0.72,-3.1 0,-3.91 3.17,-7.08 7.08,-7.08 0,0 0.01,0 0.01,0l99.35 0c0,0 0.01,0 0.01,0 3.91,0 7.08,3.17 7.08,7.08 0,1.07 -0.25,2.13 -0.72,3.1l-15.07 30.98c-1.18,2.44 -3.66,3.98 -6.36,3.98 -0,0 -0,0 -0,0l-0 0z" data-name="Path 780"/>
  <circle id="b9fa2d1d-eaff-4f39-9574-6fdb852a47dd" class="fil5" cx="658.53" cy="230.95" r="41.18" data-name="Ellipse 127"/>
  <path id="a3ede095-a03b-477f-a348-b0bb518c525f-1772" class="fil3" d="M563.79 506.3l26.59 -167.41c4.89,-30.82 31.48,-53.51 62.68,-53.51 6.02,0 12.03,0.87 17.8,2.55l0 -0c27.06,7.82 45.7,32.61 45.7,60.79 0,3.94 -0.37,7.87 -1.1,11.74l-27.81 149.5 -123.86 -3.66z" data-name="Path 803"/>
  <path id="a14f3686-8e71-4892-a260-94847064fbe5-1773" class="fil5" d="M669.9 536.25c4.72,-3.12 7.57,-8.41 7.57,-14.07 0,-4.32 -1.66,-8.49 -4.64,-11.62l27.49 -53.23 -30.96 3.3 -21.36 50.05c-2.86,3.12 -4.46,7.22 -4.46,11.46 0,9.36 7.59,16.96 16.96,16.96 3.34,0 6.62,-0.99 9.4,-2.84l0 -0z" data-name="Path 804"/>
  <path id="aefe090c-eadc-4acf-b060-d0ae14889076-1774" class="fil3" d="M675.79 501.17c-1.52,-0.21 -2.94,-0.89 -4.07,-1.93l-10.52 -9.72c-1.54,-1.43 -2.42,-3.44 -2.42,-5.55 0,-1.01 0.2,-2 0.59,-2.93l21.02 -49.82 -2.98 -98.45c1.64,-12.04 11.93,-21.02 24.08,-21.02 13.42,0 24.3,10.88 24.3,24.3 0,1.1 -0.07,2.2 -0.22,3.28l0 0 5.1 61.89c0.17,2.11 0.26,4.27 0.26,6.39 0,16.65 -5.34,32.86 -15.24,46.25l-32.78 44.32c-1.28,1.72 -3.23,2.82 -5.36,3.02 -0.23,0.02 -0.47,0.03 -0.71,0.03 -0.35,0 -0.71,-0.02 -1.05,-0.07l-0 0z" data-name="Path 805"/>
  <path id="b24d83c7-6fd4-4d89-b0e2-e143511102b2-1775" class="fil5" d="M421.4 208.52c1.48,7.99 8.45,13.79 16.58,13.79 2.02,0 4.04,-0.37 5.93,-1.08l38.3 46.07 9.03 -29.8 -37.76 -39.18c-2.76,-6.03 -8.79,-9.9 -15.42,-9.9 -9.36,0 -16.96,7.59 -16.96,16.96 0,1.05 0.1,2.11 0.29,3.14l-0 0z" data-name="Path 806"/>
  <path id="a479cb15-9c48-424e-90d4-4868fd6ffd90-1776" class="fil3" d="M451.41 227.61c0.79,-1.32 1.96,-2.36 3.36,-2.99l13.05 -5.9c0.97,-0.44 2.03,-0.66 3.1,-0.66 2.04,0 3.99,0.82 5.42,2.28l37.69 38.78 91.82 35.64c7.38,4.37 11.9,12.32 11.9,20.9 0,13.42 -10.88,24.3 -24.3,24.3 -4.37,0 -8.67,-1.18 -12.43,-3.42l0 0 -58.98 -19.43c-17.89,-5.89 -33.05,-18.1 -42.63,-34.32l-28.03 -47.46c-0.68,-1.16 -1.04,-2.49 -1.04,-3.84 0,-0.77 0.12,-1.54 0.35,-2.27 0.18,-0.56 0.42,-1.1 0.73,-1.61l-0.01 0z" data-name="Path 807"/>
  <polygon id="fbb91ec3-afe3-4815-be57-4aca5997223d-1777" class="fil6" points="691.94,373.74 690.26,427.38 659.37,481.06 685.16,421.25 " data-name="Path 808"/>
  <g>
   <path id="b3c0f84b-28f9-45ec-afed-9c3bdf0aec76-1778" class="fil7" d="M630.65 210.31c4.25,5.03 11.43,6.44 18.07,7.03 13.47,1.18 33.05,-0.73 46.21,-3.77 0.94,9.1 -1.62,18.92 3.74,26.41 2.5,-9.06 3.98,-18.4 4.35,-27.78 0.16,-4.03 0.1,-8.2 -1.54,-11.9 -1.64,-3.7 -5.21,-6.84 -9.32,-6.88 3.06,-2.33 6.64,-3.86 10.43,-4.47l-13.03 -6.55 3.35 -3.44 -23.59 -1.44 6.83 -4.34c-6.65,-0.91 -13.42,-1.38 -20.15,-1.38 -3.62,0 -7.29,0.15 -10.89,0.4 -4.81,0.35 -9.83,1.03 -13.72,3.82 -3.89,2.79 -6.15,8.32 -3.73,12.41 -6.15,1.01 -11.35,5.14 -13.73,10.9 -1.73,4.4 -1.58,9.29 -1.04,13.98 0.88,7.49 2.64,14.9 5.19,21.99l12.58 -24.98zm0 0l0 0 0 0z" data-name="Path 696"/>
  </g>
  <path id="a138b9cb-cdfc-4f68-9e32-04b91bb430b4-1779" class="fil2" d="M806.68 107.15l-375.22 86.63c-0.52,0.12 -1.06,0.18 -1.6,0.18 -3.32,0 -6.21,-2.29 -6.96,-5.52l-21.49 -93.08c-0.12,-0.52 -0.18,-1.06 -0.18,-1.6 0,-3.32 2.29,-6.21 5.53,-6.96l375.22 -86.63c0.52,-0.12 1.06,-0.18 1.6,-0.18 3.32,0 6.2,2.29 6.95,5.53l21.49 93.07c0.12,0.52 0.18,1.06 0.18,1.6 0,3.32 -2.29,6.2 -5.53,6.95l0 0z" data-name="Path 138"/>
  <path id="ae469d8c-20b4-445b-a76f-3c35ff3d2f47-1780" class="fil1" d="M806.68 107.15l-375.22 86.63c-0.52,0.12 -1.06,0.18 -1.6,0.18 -3.32,0 -6.21,-2.29 -6.96,-5.52l-21.49 -93.08c-0.12,-0.52 -0.18,-1.06 -0.18,-1.6 0,-3.32 2.29,-6.21 5.53,-6.96l375.22 -86.63c0.52,-0.12 1.06,-0.18 1.6,-0.18 3.32,0 6.2,2.29 6.95,5.53l21.49 93.07c0.12,0.52 0.18,1.06 0.18,1.6 0,3.32 -2.29,6.2 -5.53,6.95l0 0zm-399.27 -17.57c-1.94,0.45 -3.31,2.18 -3.31,4.17 0,0.32 0.04,0.64 0.11,0.96l21.49 93.07c0.45,1.94 2.18,3.32 4.17,3.32 0.32,0 0.65,-0.04 0.96,-0.11l375.22 -86.63c1.94,-0.45 3.32,-2.18 3.32,-4.17 0,-0.32 -0.04,-0.65 -0.11,-0.96l-21.49 -93.08c-0.45,-1.94 -2.18,-3.32 -4.17,-3.32 -0.32,0 -0.65,0.04 -0.96,0.11l-375.22 86.63z" data-name="Path 138"/>
  <path id="b1e356c5-36d3-4e1f-8361-52645d018384-1781" class="fil1" d="M537.61 89.3c-2.2,0.5 -3.76,2.46 -3.76,4.72 0,2.67 2.17,4.84 4.84,4.84 0.36,0 0.73,-0.04 1.08,-0.12l0.02 -0.01 222.39 -51.34c2.19,-0.51 3.74,-2.47 3.74,-4.72 0,-2.67 -2.17,-4.84 -4.84,-4.84 -0.36,0 -0.73,0.04 -1.08,0.12l-222.39 51.34z" data-name="Path 139"/>
  <path id="f47b3ab2-4a63-40b6-b578-ee0e1882dc1b-1782" class="fil1" d="M544.14 117.61c-2.2,0.5 -3.76,2.46 -3.76,4.72 0,2.67 2.17,4.84 4.84,4.84 0.36,0 0.73,-0.04 1.08,-0.12l0.02 -0 95.7 -22.09c2.2,-0.5 3.76,-2.46 3.76,-4.72 0,-2.67 -2.17,-4.84 -4.84,-4.84 -0.36,0 -0.73,0.04 -1.08,0.12l-0.02 0 -95.7 22.09z" data-name="Path 140"/>
  <g id="ebccd953-b296-4a3a-b6cb-ab9b47d83c6a" data-name="Group 45">
   <circle id="f502afc0-c552-46f8-b839-9472032a2f9d" class="fil3" cx="476.81" cy="122.99" r="29.05" data-name="Ellipse 18"/>
   <path id="e70683fc-6315-4eed-926a-207d48de8bbe-1783" class="fil2" d="M475.99 139.74c-0.33,0.08 -0.68,0.12 -1.02,0.12 -0.63,0 -1.25,-0.13 -1.82,-0.38l-0.05 -0.02 -11.69 -5.31c-1.62,-0.73 -2.66,-2.35 -2.66,-4.13 0,-2.5 2.03,-4.53 4.53,-4.53 0.65,0 1.29,0.14 1.88,0.41l7.57 3.45 10.63 -23.35c0.74,-1.62 2.35,-2.65 4.12,-2.65 0.65,0 1.29,0.14 1.88,0.41l-0 0 -0.06 0.15 0.07 -0.15c1.61,0.74 2.65,2.35 2.65,4.12 0,0.65 -0.14,1.29 -0.41,1.88l-12.5 27.47c-0.59,1.28 -1.74,2.22 -3.11,2.53l-0.01 0z" data-name="Path 395"/>
  </g>
 </g>
</svg>
