<?xml version="1.0" encoding="UTF-8"?>
<!DOCTYPE svg PUBLIC "-//W3C//DTD SVG 1.1//EN" "http://www.w3.org/Graphics/SVG/1.1/DTD/svg11.dtd">
<!-- Creator: CorelDRAW 2021 (64-Bit) -->
<svg xmlns="http://www.w3.org/2000/svg" xml:space="preserve" width="1.55784in" height="1.37795in" version="1.1" style="shape-rendering:geometricPrecision; text-rendering:geometricPrecision; image-rendering:optimizeQuality; fill-rule:evenodd; clip-rule:evenodd"
viewBox="0 0 2294 2029.11"
 xmlns:xlink="http://www.w3.org/1999/xlink"
 xmlns:xodm="http://www.corel.com/coreldraw/odm/2003">
 <defs>
  <style type="text/css">
   <![CDATA[
    .fil0 {fill:#00C4B5}
    .fil1 {fill:#2F2E41}
    .fil2 {fill:#3F3D56}
    .fil3 {fill:#F2F2F2}
    .fil4 {fill:#FFB8B8}
   ]]>
  </style>
 </defs>
 <g id="Layer_x0020_1">
  <metadata id="CorelCorpID_0Corel-Layer"/>
  <g id="_2401995663936">
   <polygon class="fil0" points="1808.72,2029.11 266.41,1488.48 704.96,237.37 2294,727.52 "/>
   <rect class="fil1" x="239.68" y="2021.83" width="1851.47" height="5.71"/>
   <path class="fil1" d="M1804.23 2026.17l-6.28 -3.24c81.56,-157.68 37.95,-362.44 -13,-506.46 -34.54,-96.74 -78.88,-190.16 -131.75,-278.09l5.98 -3.77c53.18,88.45 97.75,182.35 132.41,279.49 51.43,145.35 95.36,352.16 12.64,512.08z"/>
   <rect class="fil1" transform="matrix(0.033482 -0.183235 0.183235 0.033482 1818.87 1486.85)" width="1369.23" height="37.93"/>
   <rect class="fil1" transform="matrix(0.136363 -0.126892 0.126892 0.136363 1554.7 1454.53)" width="37.95" height="1865.69"/>
   <rect class="fil1" transform="matrix(0.109125 -0.150957 0.150957 0.109125 1865.4 1895.29)" width="1100.4" height="37.94"/>
   <circle class="fil2" cx="1500.75" cy="1406.19" r="35.33"/>
   <circle class="fil2" cx="1656.22" cy="1441.52" r="35.33"/>
   <circle class="fil3" cx="1585.55" cy="1579.33" r="35.33"/>
   <circle class="fil2" cx="2027.24" cy="1667.67" r="35.33"/>
   <circle class="fil3" cx="1910.63" cy="1706.53" r="35.33"/>
   <circle class="fil2" cx="1991.9" cy="1819.6" r="35.33"/>
   <circle class="fil2" cx="1620.89" cy="1176.51" r="35.33"/>
   <path class="fil1" d="M1845.64 1584.69l-4.98 -5.01c126.03,-125.02 147.39,-333.29 143.12,-485.99 -3.04,-102.46 -16.68,-205.18 -39.98,-305.04l6.84 -1.76c23.44,100.45 37.16,203.5 40.21,306.54 4.31,154.15 -17.38,364.46 -145.2,491.26z"/>
   <rect class="fil1" transform="matrix(0.0881207 -0.164107 0.164107 0.0881207 2025.16 1075.9)" width="1369.23" height="37.93"/>
   <rect class="fil1" transform="matrix(0.168735 -0.0788979 0.0788979 0.168735 1783.67 964.05)" width="37.95" height="1865.69"/>
   <rect class="fil1" transform="matrix(0.150202 -0.110163 0.110163 0.150202 1944.04 1478.91)" width="1100.4" height="37.94"/>
   <circle class="fil3" cx="2197.24" cy="760.79" r="35.33"/>
   <circle class="fil2" cx="1747.17" cy="901.48" r="35.33"/>
   <circle class="fil2" cx="1884.28" cy="982.84" r="35.33"/>
   <circle class="fil3" cx="1774.72" cy="1092.29" r="35.33"/>
   <circle class="fil2" cx="2167.95" cy="1311.97" r="35.33"/>
   <circle class="fil2" cx="2045.04" cy="1313.16" r="35.33"/>
   <circle class="fil2" cx="2087.67" cy="1445.72" r="35.33"/>
   <circle class="fil2" cx="1932.01" cy="719.78" r="35.33"/>
   <path class="fil1" d="M812.82 311.56c-14.9,-13.48 -23.42,-32.65 -23.42,-52.76 0,-15.59 5.13,-30.76 14.58,-43.16 -1.43,1.35 -2.83,2.74 -4.17,4.22 -11.82,13.08 -18.37,30.09 -18.37,47.72 0,39.28 31.86,71.14 71.14,71.14 20.11,0 39.3,-8.52 52.77,-23.43 1.34,-1.48 2.59,-3.01 3.78,-4.57 -13.18,12.33 -30.56,19.21 -48.61,19.21 -17.62,0 -34.63,-6.55 -47.71,-18.36l0.01 -0.01z"/>
   <circle class="fil1" cx="806.16" cy="182.09" r="146.52"/>
   <path class="fil1" d="M411.48 1986.08c0,0 -38.96,38.96 0,38.96 38.96,0 76.22,-25.41 76.22,-25.41l-76.22 -13.55z"/>
   <path class="fil1" d="M978.16 1961.66c0,0 -10.78,54.03 21.62,32.41 32.41,-21.62 49.3,-63.44 49.3,-63.44l-70.93 31.03z"/>
   <path class="fil4" d="M557.16 697.03l-25.41 59.28 -155.84 206.66c0,0 -106.71,115.18 -47.42,121.96 59.28,6.77 98.24,-106.71 98.24,-106.71l182.94 -181.25 20.33 -83 -72.83 -16.94z"/>
   <path class="fil1" d="M635.08 456.5l-24.56 6.88c0,0 -95.71,169.29 -85.55,204.86 10.16,35.57 55.9,79.62 76.22,76.22 20.33,-3.39 33.88,-287.96 33.88,-287.96z"/>
   <path class="fil4" d="M712.99 273.56c0,0 25.41,105.02 6.78,125.35 -18.63,20.33 -59.29,35.57 -59.29,35.57l6.78 189.72c0,0 77.92,-27.1 81.31,-30.49 3.39,-3.39 72.83,-113.5 72.83,-113.5l67.75 -64.36c0,0 -103.33,-49.13 -72.83,-133.82 30.49,-84.69 -103.33,-8.46 -103.33,-8.46z"/>
   <circle class="fil4" cx="775.67" cy="224.44" r="88.08"/>
   <path class="fil1" d="M675.73 426.01c0,0 -62.68,16.94 -66.06,40.65 -3.39,23.72 0,72.84 -5.08,83 -5.08,10.16 -20.33,25.41 -13.55,89.77 6.78,64.37 3.39,103.33 3.39,103.33 0,0 -343.86,1212.83 -221.9,1248.39 121.96,35.57 301.51,-3.39 299.82,-27.1 -1.7,-23.71 -32.19,-492.92 -32.19,-492.92 0,0 177.86,623.35 398.06,477.67 220.2,-145.68 171.08,-172.78 150.76,-182.94 -20.33,-10.16 -326.92,-492.92 -325.22,-582.7 1.69,-89.77 -3.39,-370.96 -40.66,-413.31 0,0 38.96,-128.74 57.6,-145.68 18.63,-16.93 64.36,-176.16 64.36,-176.16 0,0 -28.8,-38.96 -52.51,-38.96 -23.72,0 -45.74,8.47 -72.84,33.87 -27.1,25.41 -127.04,149.06 -127.04,149.06 0,0 -32.19,-142.29 -16.94,-166z"/>
   <ellipse class="fil1" cx="774.82" cy="145.67" rx="74.53" ry="50.82"/>
   <circle class="fil1" cx="901.86" cy="71.14" r="71.14"/>
   <path class="fil1" d="M952.68 121.96c-36.98,0 -67.81,-28.36 -70.88,-65.21 -0.16,1.95 -0.27,3.92 -0.27,5.92 0.01,39.28 31.86,71.14 71.15,71.14 39.28,0 71.15,-31.86 71.15,-71.14 0,-2 -0.1,-3.97 -0.27,-5.93 -3.07,36.86 -33.89,65.22 -70.88,65.22z"/>
   <rect class="fil2" x="0" y="717.16" width="350.36" height="350.36"/>
   <path class="fil3" d="M119.84 887.45c0,0 44.32,-6.33 59.09,-46.43 14.78,-40.1 27.44,-73.87 52.77,-67.54 25.33,6.33 10.55,86.53 10.55,86.53 0,0 52.77,-6.33 54.88,12.67 1.75,15.72 0.6,76.31 0.15,96.68 -0.09,8.24 -2.63,16.28 -7.28,23.09 -5.63,8.54 -15.19,13.68 -25.42,13.68 -1.83,0 -3.65,-0.17 -5.45,-0.49 -10.09,-1.23 -20.32,-1.9 -30.49,-1.9 -1.59,0 -3.25,0.03 -4.81,0.06 -0.43,-0.02 -0.93,-0.01 -1.38,-0.01 -20.67,0 -40.92,-5.97 -58.3,-17.16l0 0.01 -44.32 -2.11 0 -97.09z"/>
   <rect class="fil0" x="52.3" y="857.9" width="90.76" height="154.07"/>
   <path class="fil2" d="M204.88 801.3c-0.02,0 -0.04,0 -0.06,0 -3.03,0 -6.05,-0.44 -8.95,-1.29l0.6 -2.02c2.77,0.82 5.65,1.24 8.53,1.24 14.35,0 26.69,-10.2 29.36,-24.3l2.08 0.39c-2.84,15.07 -16.01,25.98 -31.35,25.98 -0.07,0 -0.14,0 -0.21,0l0 0z"/>
   <rect class="fil2" x="909.01" y="1156.09" width="350.36" height="350.36"/>
   <path class="fil3" d="M1028.84 1326.38c0,0 44.32,-6.34 59.1,-46.44 14.77,-40.1 27.43,-73.87 52.76,-67.54 25.33,6.34 10.55,86.54 10.55,86.54 0,0 52.77,-6.33 54.88,12.66 1.75,15.73 0.6,76.31 0.15,96.68 -0.09,8.24 -2.63,16.29 -7.28,23.09 -5.63,8.54 -15.18,13.69 -25.42,13.69 -1.83,0 -3.65,-0.17 -5.45,-0.49 -10.09,-1.23 -20.32,-1.9 -30.49,-1.9 -1.59,0 -3.25,0.03 -4.81,0.06 -0.43,-0.02 -0.93,-0.01 -1.38,-0.01 -20.67,0 -40.92,-5.97 -58.3,-17.16l0 0 -44.32 -2.11 0 -97.08z"/>
   <rect class="fil0" x="961.3" y="1296.83" width="90.76" height="154.07"/>
   <path class="fil2" d="M1113.89 1240.22c-0.02,0.01 -0.04,0.01 -0.06,0.01 -3.03,0 -6.05,-0.44 -8.95,-1.3l0.6 -2.02c2.77,0.82 5.64,1.24 8.53,1.24 14.35,0 26.68,-10.21 29.36,-24.3l2.07 0.39c-2.84,15.06 -16.01,25.98 -31.35,25.98 -0.07,0 -0.14,0 -0.21,0l0 -0.01z"/>
   <path class="fil4" d="M950.14 681.79l-8.47 94.86 16.94 284.57c0,0 38.96,143.98 -20.33,140.59 -59.29,-3.39 -37.27,-150.75 -37.27,-150.75l-27.1 -330.31 76.22 -38.96z"/>
   <path class="fil1" d="M901.02 424.32l44.04 23.71c0,0 59.29,206.66 25.41,245.61 -33.87,38.96 -103.33,54.21 -106.71,38.96 -3.39,-15.25 -15.25,-128.74 -15.25,-128.74l52.51 -179.55z"/>
  </g>
 </g>
</svg>
