<?xml version="1.0" encoding="UTF-8"?>
<!DOCTYPE svg PUBLIC "-//W3C//DTD SVG 1.1//EN" "http://www.w3.org/Graphics/SVG/1.1/DTD/svg11.dtd">
<!-- Creator: CorelDRAW 2021 (64-Bit) -->
<svg xmlns="http://www.w3.org/2000/svg" xml:space="preserve" width="2.19551in" height="1.37795in" version="1.1" style="shape-rendering:geometricPrecision; text-rendering:geometricPrecision; image-rendering:optimizeQuality; fill-rule:evenodd; clip-rule:evenodd"
viewBox="0 0 1635.42 1026.43"
 xmlns:xlink="http://www.w3.org/1999/xlink"
 xmlns:xodm="http://www.corel.com/coreldraw/odm/2003">
 <defs>
  <style type="text/css">
   <![CDATA[
    .fil2 {fill:#00C4B5}
    .fil0 {fill:#2F2E41}
    .fil1 {fill:#3F3D56}
    .fil4 {fill:#D0CDE1}
    .fil6 {fill:#FF6584}
    .fil3 {fill:#FFB8B8}
    .fil7 {fill:white}
    .fil5 {fill:black;fill-opacity:0.200000}
   ]]>
  </style>
 </defs>
 <g id="Layer_x0020_1">
  <metadata id="CorelCorpID_0Corel-Layer"/>
  <g id="_2401425244560">
   <path class="fil0" d="M1327.78 38.35c-21.61,-36.51 -64.35,-38.21 -64.35,-38.21 0,0 -41.66,-5.33 -68.38,50.28 -24.91,51.83 -59.28,101.87 -5.53,114l9.71 -30.22 6.01 32.47c5,0.36 10.06,0.54 15.09,0.54 2.62,0 5.31,-0.08 7.91,-0.16 57.56,-1.86 112.38,0.54 110.61,-20.11 -2.34,-27.45 9.73,-73.47 -11.06,-108.6z"/>
   <ellipse class="fil1" cx="1217.49" cy="958.59" rx="330.34" ry="19.17"/>
   <ellipse class="fil1" cx="428.5" cy="963.01" rx="418.83" ry="19.17"/>
   <ellipse class="fil1" cx="934.33" cy="1007.25" rx="373.11" ry="19.17"/>
   <path class="fil2" d="M1089.57 880.61c1.35,46.54 -25.83,63.6 -59.96,64.6 -0.79,0.02 -1.58,0.04 -2.37,0.04l-4.7 -0.08c-30.86,-1.29 -55.29,-17.67 -56.56,-60.95 -1.31,-44.79 54.28,-102.99 58.46,-107.29l0.01 -0.01c0.16,-0.17 0.24,-0.25 0.24,-0.25 0,0 63.52,57.4 64.88,103.94z"/>
   <path class="fil1" d="M1027.15 938.16l21.68 -32.24 -21.63 35.71 0.05 3.63c-1.58,0.01 -3.15,-0.01 -4.7,-0.08l1.08 -46.63 -0.03 -0.36 0.04 -0.07 0.11 -4.4 -23.74 -34.47 23.71 31.17 0.09 0.93 0.81 -35.23 -20.51 -35.74 20.57 29.55 -0.22 -72.99 0 -0.24 0.01 0.24 1.36 57.52 18.69 -23.37 -18.63 28.32 0.41 31.51 17.2 -30.76 -17.13 35.39 0.23 17.53 25.01 -42.84 -24.93 48.95 0.51 38.97z"/>
   <path class="fil2" d="M123.61 896.84c1.36,46.54 -25.84,63.59 -59.96,64.59 -0.79,0.02 -1.58,0.04 -2.37,0.04l-4.7 -0.08c-30.86,-1.29 -55.29,-17.67 -56.56,-60.95 -1.31,-44.79 54.29,-102.99 58.46,-107.29l0.01 -0.01c0.16,-0.17 0.23,-0.25 0.23,-0.25 35.87,29.9 43.26,69.29 64.89,103.94z"/>
   <path class="fil1" d="M61.19 954.38l21.68 -32.24 -21.63 35.7 0.04 3.63c-1.58,0.01 -3.15,-0.01 -4.7,-0.08l1.08 -46.63 -0.03 -0.36 0.04 -0.07 0.1 -4.41 -23.74 -34.47 23.71 31.17 0.08 0.93 0.81 -35.23 -20.51 -35.73 20.56 29.55 -0.21 -72.99 0 -0.24 0.01 0.24 1.36 57.53 18.69 -23.37 -18.63 28.32 0.41 31.51 17.2 -30.75 -17.14 35.39 0.23 17.52 25.01 -42.84 -24.93 48.96 0.51 38.97z"/>
   <path class="fil1" d="M1512.34 924.52l109.23 -162.44 -109.01 179.91 0.23 18.28c-7.97,0.06 -15.87,-0.07 -23.69,-0.4l5.42 -234.95 -0.15 -1.81 0.2 -0.35 0.52 -22.2 -119.62 -173.68 119.48 157.06 0.43 4.7 4.09 -177.52 -103.32 -180.06 103.61 148.88 -1.08 -367.77 0 -1.23 0.04 1.21 6.86 289.85 94.16 -117.74 -93.86 142.71 2.06 158.79 86.65 -154.97 -86.33 178.31 1.15 88.29 126.01 -215.87 -125.63 246.67 2.56 196.33z"/>
   <path class="fil0" d="M1199.74 384.13c0,0 -25.31,67.83 -9.11,128.58 16.2,60.74 58.72,205.52 58.72,205.52l56.69 112.38c0,0 32.4,22.27 51.63,-23.29l-51.63 -97.19 50.54 -175.61c6.04,-20.65 9.11,-42.08 9.11,-63.6 0,-12.58 -1.05,-25.17 -3.12,-37.56 -2.88,-16.68 -7.79,-33.36 -16.02,-46.19 -0.01,-0.01 -131.63,-20.25 -146.81,-3.04z"/>
   <path class="fil0" d="M1252.39 706.08l-30.37 157.94c0,0 31.39,22.27 49.61,15.19l30.37 -116.43 -49.61 -56.69z"/>
   <path class="fil0" d="M1226.07 860.98l-32.4 65.81 -13.16 26.32c0,0 -71.88,68.84 -15.19,61.76 56.7,-7.09 60.75,-17.21 60.75,-17.21l11.14 -16.2 3.04 6.08c0,0 16.2,-13.16 16.2,-17.21 0,-4.05 -6.07,-45.56 -6.07,-45.56l8.1 -48.6 -32.4 -15.19z"/>
   <path class="fil0" d="M1318.2 829.59l17.21 46.57 -10.13 40.5c0,0 -39.48,53.66 1.01,50.62 40.5,-3.04 47.59,-32.4 47.59,-32.4l6.07 -19.24 5.06 2.02 15.19 -27.34 -28.35 -45.56 -19.24 -33.41 -34.42 18.22z"/>
   <path class="fil3" d="M1425.51 440.82l6.07 31.39c0,0 25.31,56.69 0,58.72 -25.31,2.02 -25.31,-55.68 -25.31,-55.68l2.02 -23.29 17.21 -11.14z"/>
   <path class="fil3" d="M989.16 277.82l-35.44 -6.07c0,0 -69.86,-36.45 -68.84,-10.12 1.01,26.32 65.81,38.47 65.81,38.47l19.24 7.09 19.24 -29.36z"/>
   <circle class="fil3" cx="1260.49" cy="83.44" r="46.57"/>
   <path class="fil3" d="M1240.24 114.83c0,0 10.12,38.47 -8.1,46.57 -18.22,8.1 -20.25,14.17 -20.25,14.17 0,0 121.49,38.47 130.6,-7.09l-41.51 -23.29c0,0 -4.05,-32.4 -8.1,-34.42 -4.05,-2.02 -52.64,4.05 -52.64,4.05z"/>
   <path class="fil4" d="M1385.12 195.5c-0.72,-3.06 -2.6,-5.72 -5.24,-7.42 -10.57,-6.81 -38.09,-24.1 -41.84,-22.09 -4.66,2.5 -40.4,19.6 -111.12,-2.11 0,0 -53.51,14.73 -68.69,24.85 -15.19,10.12 -46.93,42.8 -46.93,42.8 0,0 -144.06,23.24 -143.05,35.39 1.01,12.15 -10.32,41.29 -10.32,41.29 0,0 94.38,19.17 190.24,-20.65 0,0 30.31,70.23 27.27,83.39 -3.04,13.16 -3.04,22.27 21.26,20.25 24.3,-2.02 61.76,-8.1 80.99,-5.06 19.24,3.04 91.12,8.1 91.12,3.04l0 -31.39c0,0 22.27,109.34 36.45,109.34 14.17,0 36.12,-8.55 45.23,-40.94l-44.24 -141.58 -21.13 -89.13z"/>
   <polygon class="fil5" points="1252.9,711.83 1277.9,495.03 1273.51,494.52 1248.5,711.32 "/>
   <polygon class="fil0" points="1318.22,36.5 1275.99,14.37 1217.67,23.42 1205.6,76.72 1235.64,75.56 1244.03,55.98 1244.03,75.24 1257.89,74.71 1265.94,43.54 1270.96,76.72 1320.23,75.71 "/>
   <path class="fil6" d="M868.6 183.62c-3.34,-3.36 -7.89,-5.25 -12.63,-5.25 -9.84,0 -17.81,7.97 -17.81,17.81 0,4.74 1.89,9.29 5.25,12.63l25.19 25.19 25.19 -25.19c3.32,-3.34 5.18,-7.85 5.18,-12.56 0,-9.84 -7.98,-17.81 -17.81,-17.81 -4.71,0 -9.23,1.87 -12.56,5.18l0 0z"/>
   <path class="fil6" d="M934.96 95.13c-3.34,-3.36 -7.89,-5.25 -12.63,-5.25 -9.84,0 -17.81,7.98 -17.81,17.81 0,4.74 1.89,9.29 5.25,12.63l25.19 25.19 25.19 -25.19c3.32,-3.34 5.18,-7.86 5.18,-12.56 0,-9.83 -7.97,-17.81 -17.81,-17.81 -4.71,0 -9.23,1.87 -12.56,5.18l0 0z"/>
   <path class="fil6" d="M837.63 12.55c-4.9,-4.91 -11.56,-7.67 -18.5,-7.67 -14.44,0 -26.15,11.71 -26.15,26.15 0,6.94 2.76,13.6 7.67,18.5l36.99 36.99 36.99 -36.99c4.91,-4.9 7.67,-11.56 7.67,-18.5 0,-14.44 -11.71,-26.15 -26.15,-26.15 -6.94,0 -13.6,2.76 -18.5,7.67l-0 0z"/>
   <rect class="fil1" x="101.1" y="370.16" width="666.59" height="589.9"/>
   <rect class="fil7" x="155.67" y="429.15" width="558.93" height="350.99"/>
   <path class="fil0" d="M482.21 782.24c0.67,-0.21 1.31,-0.41 1.98,-0.62 52.67,-16.95 88.42,-65.98 88.42,-121.33 0,-1.62 -0.05,-3.25 -0.09,-4.86 -0.5,-13.33 -3.12,-26.55 -7.76,-39.05 -18.48,-49.95 -66.13,-83.13 -119.4,-83.13 -69.05,0 -125.52,55.07 -127.26,124.09 -0.03,1.03 -0.04,2.09 -0.04,3.12 0,54.55 34.8,103.04 86.47,120.49 0.67,0.23 1.34,0.45 2.01,0.66l36.5 0 39.18 0.62z"/>
   <polygon class="fil0" points="408.51,755.24 404.52,780.95 404.41,781.62 365.29,781.62 368.37,761.8 370.46,748.35 "/>
   <polygon class="fil0" points="482.21,782.24 482.31,781.62 484.6,769.01 446.55,762.12 443.02,781.62 "/>
   <circle class="fil7" cx="454.23" cy="629.28" r="43.49"/>
   <circle class="fil1" cx="472.11" cy="613.69" r="14.5"/>
   <path class="fil2" d="M344.93 521.96c-1.92,-47.11 38.69,-87.02 90.69,-89.13 52,-2.11 95.71,34.37 97.62,81.48 1.91,47.11 -34.24,57.82 -86.24,59.93 -52,2.11 -100.17,-5.17 -102.08,-52.28z"/>
   <ellipse class="fil0" transform="matrix(0.185257 -0.042464 0.042464 0.185258 562.827 637.221)" rx="334.78" ry="105.1"/>
   <ellipse class="fil0" transform="matrix(0.185257 -0.042464 0.042464 0.185258 313.022 678.763)" rx="334.78" ry="105.1"/>
   <path class="fil7" d="M410.37 710.56c-0.3,1.71 -0.47,3.45 -0.47,5.18 0,16.01 12.99,29 29,29 14.03,0 26.04,-10.04 28.53,-23.85 2.85,-15.76 -9.33,-21.34 -25.09,-24.19 -15.76,-2.85 -29.12,-1.9 -31.98,13.86z"/>
   <rect class="fil2" x="155.67" y="833.23" width="342.14" height="20.65"/>
   <rect class="fil2" x="155.67" y="877.48" width="558.93" height="20.65"/>
  </g>
 </g>
</svg>
