<?xml version="1.0" encoding="UTF-8"?>
<!DOCTYPE svg PUBLIC "-//W3C//DTD SVG 1.1//EN" "http://www.w3.org/Graphics/SVG/1.1/DTD/svg11.dtd">
<!-- Creator: CorelDRAW 2021 (64-Bit) -->
<svg xmlns="http://www.w3.org/2000/svg" xml:space="preserve" width="2.75387in" height="1.37795in" version="1.1" style="shape-rendering:geometricPrecision; text-rendering:geometricPrecision; image-rendering:optimizeQuality; fill-rule:evenodd; clip-rule:evenodd"
viewBox="0 0 1099.59 550.2"
 xmlns:xlink="http://www.w3.org/1999/xlink"
 xmlns:xodm="http://www.corel.com/coreldraw/odm/2003">
 <defs>
  <style type="text/css">
   <![CDATA[
    .fil2 {fill:#00C4B5}
    .fil3 {fill:#2F2E41}
    .fil0 {fill:#3F3D56}
    .fil4 {fill:#FFB9B9}
    .fil6 {fill:white}
    .fil1 {fill:black;fill-opacity:0.101961}
    .fil5 {fill:black;fill-opacity:0.149020}
   ]]>
  </style>
 </defs>
 <g id="Layer_x0020_1">
  <metadata id="CorelCorpID_0Corel-Layer"/>
  <g id="_2401694473968">
   <path class="fil0" d="M858.93 103.35l-269.63 0 0 -5.56 -122.26 0 0 5.56 -270.74 0c0,0 0,0 0,0 -10.07,0 -18.24,8.17 -18.24,18.24 0,0 0,0 0,0l-0 369.21c0,10.07 8.17,18.24 18.24,18.24l662.63 0c10.07,0 18.24,-8.17 18.24,-18.24 0,0 0,0 0,0l0 -369.21c-0,0 -0,0 -0,0 0,-10.07 -8.17,-18.24 -18.24,-18.24 0,0 0,0 0,0l0 0z"/>
   <polygon class="fil1" points="202.51,502.37 852.72,502.37 852.72,135.59 202.51,135.59 "/>
   <circle class="fil2" cx="527.06" cy="118.91" r="6.67"/>
   <path class="fil0" d="M895.43 495.7l-63.46 0 0 -4.57c-0,0 -0,0 -0,0 0,-0.5 -0.41,-0.91 -0.91,-0.91 0,0 0,0 0,0l-21.76 0c0,0 0,0 0,0 -0.5,0 -0.91,0.41 -0.91,0.91 0,0 0,0 0,0l0 4.57 -13.6 0 0 -4.57c0,0 0,0 0,0 0,-0.5 -0.41,-0.91 -0.91,-0.91 0,0 0,0 0,0l-21.76 0c0,0 0,0 0,0 -0.5,0 -0.91,0.41 -0.91,0.91 0,0 0,0 0,0l0 4.57 -13.6 0 0 -4.57c0,0 0,0 0,0 0,-0.5 -0.41,-0.91 -0.91,-0.91 0,0 0,0 0,0l-21.75 0c-0,0 -0,0 -0,0 -0.5,0 -0.91,0.41 -0.91,0.91 0,0 0,0 0,0l0 4.57 -13.6 0 0 -4.57c0,0 0,0 0,0 0,-0.5 -0.41,-0.91 -0.91,-0.91 0,0 0,0 0,0l-21.76 0c0,0 0,0 0,0 -0.5,0 -0.91,0.41 -0.91,0.91 0,0 0,0 0,0l0 4.57 -13.6 0 0 -4.57c0,0 0,0 0,0 0,-0.5 -0.41,-0.91 -0.91,-0.91 0,0 0,0 0,0l-21.76 0c0,0 0,0 0,0 -0.5,0 -0.91,0.41 -0.91,0.91 0,0 0,0 0,0l0 4.57 -13.6 0 0 -4.57c-0,0 -0,0 -0,0 0,-0.5 -0.41,-0.91 -0.91,-0.91 0,0 0,0 0,0l-21.76 0c0,0 0,0 0,0 -0.5,0 -0.91,0.41 -0.91,0.91 0,0 0,0 0,0l0 4.57 -13.6 0 0 -4.57c0,0 0,0 0,0 0,-0.5 -0.41,-0.91 -0.91,-0.91 0,0 0,0 0,0l-170.42 0c0,0 0,0 0,0 -0.5,0 -0.91,0.41 -0.91,0.91 0,0 0,0 0,0l0 4.57 -13.6 0 0 -4.57c0,0 0,0 0,0 0,-0.5 -0.41,-0.91 -0.91,-0.91 0,0 0,0 0,0l-21.76 0c0,0 0,0 0,0 -0.5,0 -0.91,0.41 -0.91,0.91 0,0 0,0 0,0l0 4.57 -13.6 0 0 -4.57c0,0 0,0 0,0 0,-0.5 -0.41,-0.91 -0.91,-0.91 0,0 0,0 0,0l-21.76 0c0,0 0,0 0,0 -0.5,0 -0.91,0.41 -0.91,0.91 0,0 0,0 0,0l0 4.57 -13.6 0 0 -4.57c0,0 0,0 0,0 0,-0.5 -0.41,-0.91 -0.91,-0.91 0,0 0,0 0,0l-21.76 0c0,0 0,0 0,0 -0.5,0 -0.91,0.41 -0.91,0.91 0,0 0,0 0,0l0 4.57 -13.6 0 0 -4.57c0,0 0,0 0,0 0,-0.5 -0.41,-0.91 -0.91,-0.91 0,0 0,0 0,0l-21.76 0c0,0 0,0 0,0 -0.5,0 -0.91,0.41 -0.91,0.91 0,0 0,0 0,0l0 4.57 -13.6 0 0 -4.57c0,0 0,0 0,0 0,-0.5 -0.41,-0.91 -0.91,-0.91 0,0 0,0 0,0l-21.76 0c0,0 0,0 0,0 -0.5,0 -0.91,0.41 -0.91,0.91 0,0 0,0 0,0l0 4.57 -13.6 0 0 -4.57c0,0 0,0 0,0 0,-0.5 -0.41,-0.91 -0.91,-0.91 0,0 0,0 0,0l-21.76 0c0,0 0,0 0,0 -0.5,0 -0.91,0.41 -0.91,0.91 0,0 0,0 0,0l0 4.57 -41.7 0c-12.01,-0 -21.75,9.74 -21.75,21.75l0 9.84c0,12.01 9.74,21.75 21.76,21.75l723.4 0c12.01,-0 21.76,-9.74 21.76,-21.76l0 -9.84c0,-12.01 -9.74,-21.76 -21.76,-21.76l0 0z"/>
   <rect class="fil2" x="396.11" y="177.22" width="263.24" height="276.71"/>
   <path class="fil3" d="M535.34 165.73c0,0 -22.45,-8.02 -36.88,24.05 -14.43,32.07 -36.87,67.34 -36.87,67.34l12.83 3.21c0,0 3.21,-22.45 11.22,-25.65l-3.21 28.86c0,0 96.2,33.67 139.49,-3.21l-1.6 -11.22c0,0 6.41,1.6 6.41,11.22l4.81 -4.81c0,0 -4.81,-9.62 -19.24,-22.45 -9.47,-8.42 -12.73,-24.44 -13.84,-34.45 -0.84,-8.36 -4.19,-16.28 -9.6,-22.7 -9.59,-11.11 -27.06,-22.93 -53.51,-10.19z"/>
   <path class="fil4" d="M411.3 195.98l-9.33 -97.42c0,0 -18.65,-52.86 9.33,-48.71 27.98,4.15 11.4,44.56 11.4,44.56l15.55 101.56 -26.95 0z"/>
   <circle class="fil4" cx="547.07" cy="231.22" r="37.31"/>
   <path class="fil4" d="M520.12 247.8c0,0 -2.07,42.49 -12.44,45.6 -10.36,3.11 -39.38,37.31 -25.91,47.67 13.47,10.36 91.2,3.11 91.2,3.11l-7.25 -53.89c0,0 -16.58,-11.4 -3.11,-31.09l-42.49 -11.4z"/>
   <path class="fil0" d="M597.92 456l-146.54 0c0.53,-9.38 1.85,-22.62 3.55,-37.18 0.52,-4.42 1.07,-8.97 1.64,-13.56 5.03,-40.47 11.73,-84.91 11.73,-84.91l1.76 -4.07 17.93 -41.53 0.19 0.07 23.65 9.25 0.84 3.98 6.42 30.22 41.51 -33.51 38.29 -5.99 2.59 -0.4 4.66 44.05c0,0 -0.21,9.85 -0.43,23.87 -0.25,16.12 -0.52,37.75 -0.5,56.3 0.01,8.86 0.08,17.02 0.26,23.52 0.14,5.48 0.36,9.8 0.66,12.38 0.69,5.88 -2.99,11.98 -8.22,17.5z"/>
   <polygon class="fil0" points="489.03,279.93 488,273.71 458.98,238.48 442.4,179.4 401.98,194.95 431,266.46 472.45,319.31 "/>
   <path class="fil3" d="M498.05 235.68c0,0 12.83,-17.64 24.05,-20.84 11.22,-3.21 12.83,-19.24 12.83,-19.24 0,0 28.86,32.07 46.5,33.67 17.64,1.6 1.6,-38.48 1.6,-38.48l-32.07 -8.02 -30.46 3.21 -24.05 16.03 1.6 33.67z"/>
   <path class="fil4" d="M601.31 420.76l-99.15 3.93c0,0 -54.64,12.51 -47.33,-14.82 7.31,-27.33 45.57,-6.25 45.57,-6.25l102.68 -3.86 -1.77 21z"/>
   <path class="fil0" d="M590.08 285.63l9.33 -7.25c0,0 15.55,-8.29 18.65,20.73 3.11,29.02 25.91,125.4 3.11,126.44 -22.8,1.04 -80.84,2.07 -80.84,2.07l6.22 -32.13 47.67 -3.11 -4.15 -106.75z"/>
   <polygon class="fil5" points="593.19,330.19 590.08,389.27 544.48,398.6 585.93,382.01 "/>
   <rect class="fil2" x="297.33" width="252.87" height="66.33"/>
   <rect class="fil0" x="-0" y="548.13" width="1099.59" height="2.07"/>
   <path class="fil2" d="M992.8 475.72c14.9,15.99 15.67,39.49 15.67,39.49 0,0 -23.39,-2.42 -38.28,-18.41 -14.9,-15.99 -15.67,-39.49 -15.67,-39.49 0,0 23.39,2.42 38.28,18.41z"/>
   <path class="fil2" d="M1039.7 500.68c-15.99,14.9 -39.49,15.67 -39.49,15.67 0,0 2.42,-23.39 18.41,-38.28 15.99,-14.9 39.49,-15.67 39.49,-15.67 0,0 -2.42,23.39 -18.41,38.28z"/>
   <path class="fil0" d="M1035.73 548.13l-58.8 0c-2.3,0 -4.4,-1.31 -5.41,-3.38l-12.8 -26.32c-0.4,-0.82 -0.61,-1.72 -0.61,-2.63 0,-3.32 2.69,-6.01 6.01,-6.01l84.41 0c3.32,0 6.01,2.69 6.01,6.01 0,0.91 -0.21,1.81 -0.61,2.63l-12.8 26.32c-1.01,2.07 -3.11,3.38 -5.41,3.38l0 0z"/>
   <path class="fil2" d="M63.17 475.72c14.9,15.99 15.67,39.49 15.67,39.49 0,0 -23.39,-2.42 -38.28,-18.41 -14.9,-15.99 -15.67,-39.49 -15.67,-39.49 0,0 23.39,2.42 38.28,18.41z"/>
   <path class="fil0" d="M96.78 548.13l-58.8 0c-2.3,0 -4.4,-1.31 -5.41,-3.38l-12.8 -26.32c-0.4,-0.82 -0.61,-1.72 -0.61,-2.63 0,-3.32 2.69,-6.01 6.01,-6.01l84.41 0c3.32,0 6.01,2.69 6.01,6.01 0,0.91 -0.21,1.81 -0.61,2.63l-12.8 26.32c-1.01,2.07 -3.11,3.38 -5.41,3.38l-0 0z"/>
   <rect class="fil6" x="329.46" y="26.66" width="188.62" height="13.01"/>
  </g>
 </g>
</svg>
