<?xml version="1.0" encoding="UTF-8"?>
<svg id="Layer_1" xmlns="http://www.w3.org/2000/svg" version="1.1" viewBox="0 0 640 640">
  <!-- Generator: Adobe Illustrator 29.0.1, SVG Export Plug-In . SVG Version: 2.1.0 Build 192)  -->
  <defs>
    <style>
      .st0 {
        fill: #1a1a1a;
      }
    </style>
  </defs>
  <path class="st0" d="M91.4,0C41,0,0,41,0,91.4v457.1c0,50.4,41,91.4,91.4,91.4h140.3v-208.3h-75.4v-111.7h75.4v-48.1c0-124.4,56.3-182.1,178.6-182.1s63.1,4.6,79.6,9.1v101.1c-8.6-.9-23.6-1.4-42.3-1.4-60,0-83.1,22.7-83.1,81.7v39.7h119.4l-20.6,111.7h-99v208.3h184.3c50.4,0,91.4-41,91.4-91.4V91.4c0-50.4-41-91.4-91.4-91.4H91.4Z"/>
</svg>