<?xml version="1.0" encoding="UTF-8"?>
<svg id="Layer_1" xmlns="http://www.w3.org/2000/svg" version="1.1" viewBox="0 0 640 640">
  <!-- Generator: Adobe Illustrator 29.0.1, SVG Export Plug-In . SVG Version: 2.1.0 Build 192)  -->
  <defs>
    <style>
      .st0 {
        fill: #1a1a1a;
      }
    </style>
  </defs>
  <path class="st0" d="M277.7,256.7c-23.4,14.7-37,41.1-35.6,68.7,1.6,27.7,18.1,52.3,43,64.4,25,12,54.6,9.4,77.1-6.6,23.4-14.7,37-41.1,35.6-68.7-1.6-27.7-18.1-52.3-43-64.4-25-12-54.6-9.4-77.1,6.6ZM481,159c-7.4-7.4-16.4-13.3-26.3-17.1-25.9-10.1-82.3-9.7-118.7-9.3-5.9,0-11.3.1-16,.1s-10.3,0-16.3-.1c-36.4-.4-92.6-1-118.4,9.3-9.9,3.9-18.7,9.7-26.3,17.1-7.6,7.4-13.3,16.4-17.1,26.3-10.1,25.9-9.6,82.4-9.3,118.9,0,5.9.1,11.3.1,15.9s0,10-.1,15.9c-.3,36.4-.9,93,9.3,118.9,3.9,9.9,9.7,18.7,17.1,26.3,7.4,7.6,16.4,13.3,26.3,17.1,25.9,10.1,82.3,9.7,118.7,9.3,5.9,0,11.3-.1,16-.1s10.3,0,16.3.1c36.4.4,92.6,1,118.4-9.3,9.9-3.9,18.7-9.7,26.3-17.1,7.6-7.4,13.3-16.4,17.1-26.3,10.3-25.7,9.7-82,9.3-118.6,0-6-.1-11.6-.1-16.3s0-10.1.1-16.3c.4-36.4,1-92.7-9.3-118.6-3.9-9.9-9.7-18.7-17.1-26.3v.3ZM385.1,222.6c25.9,17.3,43.7,44.1,49.9,74.6s-.3,62.1-17.6,88c-8.6,12.9-19.6,23.7-32.3,32.3-12.7,8.6-27.1,14.4-42.3,17.4-30.4,6-62.1-.3-88-17.6-25.9-17.3-43.7-44.1-49.9-74.6-6.1-30.4.3-62.1,17.4-88,17.1-25.9,44.1-43.7,74.6-49.9,30.4-6.1,62.1.3,88,17.4h.1v.3ZM426.9,220.7c-4.4-3-8-7.3-10.1-12.3s-2.6-10.4-1.6-15.9c1-5.4,3.7-10.1,7.4-14,3.7-3.9,8.7-6.4,14-7.4,5.3-1,10.9-.6,15.9,1.6s9.3,5.6,12.3,10c3,4.4,4.6,9.7,4.6,15.1s-.7,7.1-2,10.4-3.4,6.3-5.9,8.9-5.6,4.6-8.9,6c-3.3,1.4-6.9,2.1-10.4,2.1-5.4,0-10.7-1.6-15.1-4.6h-.1ZM640,91.4c0-50.4-41-91.4-91.4-91.4H91.4C41,0,0,41,0,91.4v457.1c0,50.4,41,91.4,91.4,91.4h457.1c50.4,0,91.4-41,91.4-91.4V91.4ZM510,510c-26.7,26.7-59.1,35.1-95.7,37-37.7,2.1-150.9,2.1-188.6,0-36.6-1.9-69-10.3-95.7-37s-35.1-59.1-36.9-95.7c-2.1-37.7-2.1-150.9,0-188.6,1.9-36.6,10.1-69,36.9-95.7s59.3-35.1,95.7-36.9c37.7-2.1,150.9-2.1,188.6,0,36.6,1.9,69,10.1,95.7,36.9s35.1,59.1,36.9,95.7c2.1,37.6,2.1,150.6,0,188.4-1.9,36.6-10.1,69-36.9,95.7h0Z"/>
</svg>