<?xml version="1.0" encoding="UTF-8"?>
<svg id="Layer_1" xmlns="http://www.w3.org/2000/svg" version="1.1" viewBox="0 0 640 640">
  <!-- Generator: Adobe Illustrator 29.0.1, SVG Export Plug-In . SVG Version: 2.1.0 Build 192)  -->
  <defs>
    <style>
      .st0 {
        fill: #d9dbf1;
      }
    </style>
  </defs>
  <path class="st0" d="M91.4,0C41,0,0,41,0,91.4v457.1c0,50.4,41,91.4,91.4,91.4h457.1c50.4,0,91.4-41,91.4-91.4V91.4c0-50.4-41-91.4-91.4-91.4H91.4ZM98.6,243.1h95v305.4h-95s0-305.4,0-305.4ZM201,146.4c0,30.4-24.6,55-55,55s-55-24.6-55-55,24.6-55,55-55,55,24.6,55,55ZM454.1,548.6v-148.6c0-35.4-.7-81-49.3-81s-57,38.6-57,78.4v151.1h-94.9V243.1h91v41.7h1.3c12.7-24,43.7-49.3,89.9-49.3,96,0,113.9,63.3,113.9,145.6v167.4h-94.9Z"/>
</svg>