<?xml version="1.0" encoding="UTF-8"?>
<svg id="Layer_1" xmlns="http://www.w3.org/2000/svg" version="1.1" viewBox="0 0 640 640">
  <!-- Generator: Adobe Illustrator 29.0.1, SVG Export Plug-In . SVG Version: 2.1.0 Build 192)  -->
  <defs>
    <style>
      .st0 {
        fill: #d9dbf1;
      }
    </style>
  </defs>
  <path class="st0" d="M200.2,31.3C190.3,7.6,164.5-4.9,140,1.8l-6.9,1.9C52.4,25.6-16.6,103.9,3.5,199.2c46.4,218.8,218.5,390.9,437.3,437.3,95.4,20.3,173.5-48.9,195.5-129.6l1.9-6.9c6.8-24.6-5.9-50.4-29.4-60.1l-121.6-50.6c-20.6-8.6-44.5-2.6-58.8,14.8l-48.3,59c-87.9-43.6-158.6-116.6-199.3-206.3l55.3-45c17.4-14.1,23.3-38,14.8-58.8l-50.8-121.6h0Z"/>
</svg>