<?xml version="1.0" encoding="UTF-8"?>
<svg id="Layer_1" xmlns="http://www.w3.org/2000/svg" version="1.1" viewBox="0 0 640 640">
  <!-- Generator: Adobe Illustrator 29.0.1, SVG Export Plug-In . SVG Version: 2.1.0 Build 192)  -->
  <defs>
    <style>
      .st0 {
        fill: #d9dbf1;
      }
    </style>
  </defs>
  <path class="st0" d="M439.4,350h-238.6c3.6,80.6,21.5,154.9,46.9,209.2,14.2,30.6,29.6,52.3,43.9,65.5,14,13.1,23.6,15.3,28.6,15.3s14.6-2.1,28.6-15.3c14.2-13.2,29.6-35,43.9-65.5,25.4-54.4,43.3-128.6,46.9-209.2h-.2ZM200.6,290h238.6c-3.5-80.6-21.4-154.9-46.7-209.2-14.2-30.5-29.6-52.3-43.9-65.5C334.6,2.2,325,.1,320,.1s-14.6,2.1-28.6,15.2c-14.2,13.3-29.6,35-43.9,65.5-25.4,54.4-43.2,128.6-46.9,209.2ZM140.6,290c4.4-107,32-206.4,72.4-271.6C97.9,59.1,13.1,164,1.4,290h139.2ZM1.4,350c11.8,126,96.5,230.9,211.6,271.6-40.4-65.2-68-164.6-72.4-271.6H1.4ZM499.4,350c-4.4,107-32,206.4-72.4,271.6,115.1-40.9,199.9-145.6,211.6-271.6h-139.2,0ZM638.6,290c-11.7-126-96.5-230.9-211.6-271.6,40.4,65.2,68,164.6,72.4,271.6h139.2Z"/>
</svg>