<?xml version="1.0" encoding="UTF-8"?><svg xmlns="http://www.w3.org/2000/svg" viewBox="0 0 1200 734.62"><defs><style>.d{fill:#97c6d3;}.e{fill:#27aed8;}.f{fill:none;}.g{fill:#f47622;}</style></defs><g id="a"/><g id="b"><g id="c"><g><path class="f" d="M249.02,551.78c-36.55,11.59-53.41,56.83-39.85,91.27,7.66,20.94,27.69,35.81,49.02,40.45,39.22,7.72,81.32-25.04,80.73-65.66,4.22-45.29-47.88-84.14-89.9-66.06Z"/><path class="f" d="M535.55,551.5c-28.77,9.51-46.97,41.02-43.81,70.73,1.74,26.21,20.37,49.99,45.12,58.48,25.01,9.68,55.6,.77,71.9-20.45,19.26-23.5,21.65-59.28,3.67-84.14-16.69-23.67-49.54-33.75-76.88-24.61Z"/><path class="f" d="M277.59,147.12c-35.38,5.84-56.6,45.38-49.51,78.99,4.47,29.54,32.93,53.61,63.01,52.01,33.18-.23,64.15-29.03,63.61-62.89,4.76-40.82-37.29-77.76-77.11-68.11Z"/><g><path class="g" d="M1199.86,291.79c.29-23.2-27.72-39.23-47.76-27.96-23.08,9.65-24.4,46.19-2.29,57.7,21.05,14.14,52.52-4.42,50.06-29.75Z"/><path class="g" d="M604.75,61.6c19.21,12.31,47.36-1.12,49.7-23.87,4.44-24.66-23.8-45.66-46.31-34.79-24.11,9.22-26.07,46.74-3.39,58.66Z"/><path class="g" d="M709.33,669.52c-21.81,6.48-29.94,36.44-14.91,53.31,17.18,21.79,59.09,11.85,60.98-17.16,4.52-25.04-23.15-44.99-46.07-36.15Z"/></g><g><path class="d" d="M50.79,395.91c-.07,111.51,.14,223.04-.07,334.55,18.11,.22,36.2,.19,54.36,.07,.31-111.51,.14-223.04,.07-334.6-18.11,.07-36.25,.07-54.36-.02Z"/><path class="d" d="M570.36,496.72c-25.84-1.51-51.22,6.41-73.41,19.23v-33.01c.28-14.24,.23-28.51,0-42.78v-44.21h-45.8c-2.45-.03-4.87-.06-7.29-.09v.09h-2.39v88.33c-1.48,82.49-.8,165.07,2.39,247.51,17.12-.37,34.21-1.37,51.36-1.22,.34-4.5,.71-9.03,1.05-13.47,43.87,26.35,104.65,22.82,142.94-12.02,42.02-36.26,49.65-102.4,23.81-150.14-17.77-33.9-54.35-56.94-92.66-58.19Zm38.4,163.53c-16.29,21.22-46.89,30.14-71.9,20.45-24.75-8.49-43.38-32.27-45.12-58.48-3.16-29.71,15.04-61.21,43.81-70.73,27.35-9.14,60.19,.94,76.88,24.61,17.97,24.87,15.58,60.64-3.67,84.14Z"/><path class="d" d="M335.55,504.89c-.03,3.59-.03,7.18,0,10.74-42.84-27.77-103.71-26.09-142.97,7.41-41.67,33.13-54.09,95.34-33.1,143.45,11.96,26.26,33.73,48.42,60.76,59.02,36.52,14.84,79.44,10.8,113.26-9.09,.09,4.73,.14,9.43,.31,14.16,17.83-.03,35.69,.11,53.58-.09-.28-71.61-.11-143.25-.14-214.86h.14v-18.4h-51.84v7.66Zm3.36,112.94c.6,40.62-41.5,73.38-80.73,65.66-21.34-4.64-41.36-19.51-49.02-40.45-13.56-34.44,3.3-79.67,39.85-91.27,42.02-18.09,94.11,20.77,89.9,66.06Z"/></g><g><path class="e" d="M495.8,325.38c2.41-47.43-5.71-95.79,5.38-142.55,7.12-23.01,32.83-29.34,53.66-33.45,.24-18.83,.24-37.66-.17-56.48-21.98,2.22-44.06,9.46-59.38,26.16-.36-7.41-.69-14.81-1.07-22.17-16.51-.76-33.04-1.15-49.53-.1-2.46,76.17-.84,152.49-.91,228.71,17.32-.29,34.65-.21,52.02-.12Z"/><path class="e" d="M1047.74,261.3c-6.71-36.96-1.86-74.74-2.87-112.06,15.6,.12,31.18-.07,46.76-.86,.17-16.94,.17-33.86,.02-50.8-15.63,.05-31.23,.05-46.83,.05-.14-27.84-.1-55.65-.07-83.51-17.8,.02-35.65,.07-53.47,.31-.36,27.5,.38,55.03-.36,82.53-12.88-.22-25.76-.22-38.59-.14-.12,17.2-.07,34.38-.12,51.63,13.17-.07,26.35,.07,39.52,.43,1.15,34.31-2.15,68.67,.07,102.98,1.48,18.83,4.44,39.57,19.21,53,21.7,20.24,53.33,21.34,81.38,21.55,.38-17.2,.5-34.36,.14-51.56-15.03,.12-38.54,4.47-44.8-13.55Z"/><path class="e" d="M334.16,100.58c-33.84-11.34-72.04-5.87-102.18,12.85v-16.09h-56.34v48.03h.2c.26,92.26-.06,184.53,.03,276.73,17.8,.11,35.58,.91,53.41,1.03,.09-36.72,.54-73.46-.26-110.15,36.57,14.56,79.56,22.96,116.19,3.93,49.36-22.53,71.67-82.32,60.56-133.51-7.49-37.34-34.78-71.3-71.61-82.81Zm20.54,114.65c.54,33.87-30.42,62.67-63.61,62.89-30.08,1.6-58.54-22.47-63.01-52.01-7.09-33.61,14.13-73.15,49.51-78.99,39.82-9.66,81.87,27.29,77.11,68.11Z"/><path class="e" d="M927.61,200.96c-.43-25.95-5.73-53.1-22.1-73.98-18.97-24.1-51.24-33.81-81.01-32.22-24.61,.17-47.74,10.08-68.16,23.02-.11-1.91-.2-3.82-.31-5.73v-17.46h-53.84v33.04c-.2,67.54-.88,134.16,.97,198.34h53.04c.48-36.26-.26-74.2,.2-110.44,0-17.52,2.54-36.26,14.9-49.65,15.21-19.51,42.93-24.38,65.8-17.89,17.03,5.55,31.7,20.31,34.32,38.48,5.61,45.63,.91,91.69,1.88,137.53,18.23,.43,36.46,.51,54.69,.31-.54-41.13,.11-82.21-.37-123.37Z"/><path class="e" d="M597.9,325.57c17.04-.43,34.26,.86,51.34,.41,.13-46.48,0-94.85-.02-141.33h.02V94.6h-52.61v90.05h.11c-.2,46.98-.28,93.95,1.16,140.92Z"/><path class="e" d="M96.24,187.61c-27.66-8.96-36.63-11.69-36.63-24.16,0-8.96,7.01-18.7,19.87-18.7,5.45,0,17.15,1.56,20.65,18.7h50.65c-1.95-42.86-38.19-66.24-70.53-66.24-34.68,0-72.47,24.94-72.47,67.02,0,35.46,23.77,53.77,48.32,61.95,37.02,12.47,48.7,16.37,48.7,32.34,0,8.96-6.62,21.82-23.38,21.82-21.43,0-26.11-17.92-28.44-27.66H0c1.17,13.25,3.12,30.39,16.36,46.76,16.76,21.04,43.25,28.45,64.68,28.45,37.02,0,75.59-26.89,75.59-75.59,0-43.64-33.51-56.5-60.39-64.68Z"/></g></g></g></g></svg>