<svg xmlns="http://www.w3.org/2000/svg" viewBox="0 0 1932.72 1560.77"><defs><style>.cls-1{fill:#fff;}</style></defs><g id="Layer_2" data-name="Layer 2"><g id="Layer_1-2" data-name="Layer 1"><polygon class="cls-1" points="910.11 99.72 909.97 99.94 852.39 0.22 852.53 0 910.11 99.72"/><polygon class="cls-1" points="914.89 895.33 857.31 995.05 857.15 995.05 914.74 895.33 914.89 895.33"/><polygon class="cls-1" points="1142.09 501.54 1141.95 501.75 1138.88 496.43 1139.13 496.43 1142.09 501.54"/><polygon class="cls-1" points="1142.17 501.67 1142.05 501.89 1141.95 501.75 1142.09 501.54 1142.17 501.67"/><polygon class="cls-1" points="1084.59 601.4 914.89 895.33 914.74 895.33 1084.51 601.26 1084.59 601.4"/><polygon class="cls-1" points="1145.2 496.43 1142.17 501.67 1142.09 501.54 1145.04 496.43 1145.2 496.43"/><polygon class="cls-1" points="1199.61 402.17 1199.61 402.19 1145.2 496.43 1145.04 496.43 1199.53 402.05 1199.61 402.17"/><polygon class="cls-1" points="1139.13 496.43 1138.88 496.43 1084.47 402.17 1084.59 401.95 1139.13 496.43"/><polygon class="cls-1" points="1084.59 401.95 1084.47 402.17 909.97 99.94 910.11 99.72 1084.59 401.95"/><path class="cls-1" d="M1599.46,895.33l-230.3-398.9-54.49-94.38-57.48-99.59-57.58,99.71v0l-54.41,94.24-3,5.24-.12.22-.1-.14-3.07-5.32-54.41-94.26L910,99.94,852.39.22,795,99.72l-55.51,96.14L565.92,496.43,335.61,895.33,278,995.05H742.17l57.58-99.72h-349l230.3-398.9,58.38-101.12L852.53,199.45l171.46,297,3,5.24,57.48,99.59.08.14L914.89,895.33l-57.58,99.72h569.45l-57.58-99.72L1199.53,601.48l.14-.22,57.42-99.49,0,0,227.23,393.58,57.58,99.72H1657Zm-345.16,0H1029.88L1142.09,701Z"/><polygon class="cls-1" points="1541.92 995.05 1541.88 995.05 1484.32 895.33 1484.34 895.33 1541.92 995.05"/><polygon class="cls-1" points="1427.02 995.05 1426.76 995.05 1369.18 895.33 1369.44 895.33 1427.02 995.05"/><polygon class="cls-1" points="1484.34 895.33 1484.32 895.33 1257.09 501.77 1257.11 501.75 1484.34 895.33"/><polygon class="cls-1" points="1369.44 895.33 1369.18 895.33 1199.53 601.48 1199.67 601.26 1369.44 895.33"/><polygon class="cls-1" points="1257.19 302.46 1199.61 402.17 1199.53 402.05 1199.53 402.03 1257.09 302.32 1257.19 302.46"/><path class="cls-1" d="M220.84,1097l99,226.27H291.76l-28.25-66.75h-85l-28.24,66.75h-28.1Zm0,57.24-34.63,80.13h69.27Z"/><path class="cls-1" d="M472,1097l99,226.27h-28.1l-28.25-66.75h-85l-28.25,66.75h-28.1Zm0,57.24-34.64,80.13h69.28Z"/><path class="cls-1" d="M654.38,1323.27V1097L813.6,1270.94V1105.62h24.68v226.12l-159.22-172v163.53Z"/><path class="cls-1" d="M992.68,1105.62h26.17V1275.4q0,27.36-12.12,40.51t-37.24,13.16a54.2,54.2,0,0,1-24.16-5.28q-10.79-5.28-20.29-16.28l17.09-17.1q8,8.34,14.87,11.9a30.46,30.46,0,0,0,14.27,3.57q11.75,0,16.58-8.78t4.83-34.49Z"/><path class="cls-1" d="M1130,1323.27V1105.62h114.77v23.64h-88.91v62.44h88.91v24.08h-88.91v83.41h88.91v24.08Z"/><path class="cls-1" d="M1349.5,1323.27V1105.62h25.87v193h82.21v24.68Z"/><path class="cls-1" d="M1761.1,1214.89a113.13,113.13,0,0,1-8.63,44,110.05,110.05,0,0,1-25.14,36.72,118.21,118.21,0,0,1-164.83,0,110.75,110.75,0,0,1-34.06-80.73,112.8,112.8,0,0,1,8.7-44.08,111.08,111.08,0,0,1,25.36-36.94,115.73,115.73,0,0,1,37.79-24.53,119.64,119.64,0,0,1,89.18,0,115.51,115.51,0,0,1,37.86,24.53,109.67,109.67,0,0,1,25.14,36.8A114,114,0,0,1,1761.1,1214.89Zm-116.33,89.8a87.05,87.05,0,0,0,34-6.77,90.08,90.08,0,0,0,29.09-19.7,88.16,88.16,0,0,0,26.19-63.33,90.87,90.87,0,0,0-6.77-34.79,88.67,88.67,0,0,0-82.5-55.3,89.2,89.2,0,0,0-34.37,6.69,85.12,85.12,0,0,0-28.72,19.48,89.53,89.53,0,0,0-19.49,29.28,90.45,90.45,0,0,0-6.7,34.64,88.9,88.9,0,0,0,6.62,34.2,92.52,92.52,0,0,0,48.66,48.91A87.18,87.18,0,0,0,1644.77,1304.69Z"/><path class="cls-1" d="M31,1534.13,0,1467.56H12.05l18.84,43.76,18.9-43.76H61.84Z"/><path class="cls-1" d="M99.48,1437.35a7.84,7.84,0,0,1,7.88-7.8,7.42,7.42,0,0,1,5.51,2.33,7.7,7.7,0,0,1,2.3,5.61,7.72,7.72,0,0,1-7.81,7.74,7.79,7.79,0,0,1-7.88-7.88Zm2.54,92.87v-62.66h10.82v62.66Z"/><path class="cls-1" d="M221.84,1424.07v106.15H211.43v-11.37a27.13,27.13,0,0,1-9.58,10.42,24.57,24.57,0,0,1-13.15,3.63q-13.5,0-21.75-9.29t-8.25-24.55q0-15.4,8.08-24.58t21.51-9.18a24.07,24.07,0,0,1,22.87,14v-55.27Zm-10.41,75.13q0-10.48-5.82-16.88t-15.34-6.41q-9.53,0-14.86,5.82t-5.34,16.1q0,11.58,5.41,18.11t14.93,6.54q9.85,0,15.44-6.16T211.43,1499.2Z"/><path class="cls-1" d="M327.7,1500.5H278v1q0,10.07,5.76,16.27t15,6.19a20,20,0,0,0,11.37-3.39,29.66,29.66,0,0,0,9-10.24l8.15,5.48a31.42,31.42,0,0,1-29,17.13q-14.31,0-23.15-9.46t-8.83-24.79q0-14.72,8.76-24.11t22.53-9.38q13.9,0,22,8.9t8.12,24.32Zm-11.51-8.7q-.54-8.28-5.51-12.77t-13.6-4.49a18.32,18.32,0,0,0-19,17.26Z"/><path class="cls-1" d="M366.85,1499.06a33.74,33.74,0,0,1,2.53-13,32.76,32.76,0,0,1,7.4-10.93,33.62,33.62,0,0,1,11-7.29,34.58,34.58,0,0,1,13.15-2.5,33.62,33.62,0,0,1,13,2.53,35.11,35.11,0,0,1,11.13,7.4,32.2,32.2,0,0,1,7.4,10.85,33.85,33.85,0,0,1,2.53,13,33.28,33.28,0,0,1-2.53,12.91,32.36,32.36,0,0,1-7.4,10.79,35.2,35.2,0,0,1-11.2,7.53A32.91,32.91,0,0,1,401,1532.9a33.93,33.93,0,0,1-13.11-2.57A34.31,34.31,0,0,1,369.38,1512,33.08,33.08,0,0,1,366.85,1499.06Zm11.36,0a23.32,23.32,0,0,0,6.65,16.82,21.56,21.56,0,0,0,16.09,6.88,21.27,21.27,0,0,0,16-6.88,24.8,24.8,0,0,0,0-33.63,21.23,21.23,0,0,0-16-6.88,21.52,21.52,0,0,0-16.13,6.88A23.39,23.39,0,0,0,378.21,1499.06Z"/><path class="cls-1" d="M553.41,1492.5a14,14,0,0,1,4.31-10.35,14.25,14.25,0,0,1,10.4-4.26,14.66,14.66,0,1,1-10.45,25A14.27,14.27,0,0,1,553.41,1492.5Z"/><path class="cls-1" d="M698.68,1560.77v-93.21h10.2v11.78a26.52,26.52,0,0,1,9.59-10.41,25,25,0,0,1,13.29-3.63q13.56,0,21.78,9.24t8.21,24.52q0,15.56-8,24.69t-21.54,9.15a25.35,25.35,0,0,1-13.5-3.53,26,26,0,0,1-9.38-10.52v41.92ZM709,1499.06q0,10.55,5.82,16.92t15.41,6.37q9.38,0,14.76-5.82t5.37-16.17q0-11.56-5.37-18.15t-15-6.57q-9.79,0-15.41,6.23T709,1499.06Z"/><path class="cls-1" d="M806.93,1530.22V1424.07h10.48v53.15a26.31,26.31,0,0,1,9.72-9,28.22,28.22,0,0,1,13.15-2.94q11.1,0,17.33,5.89t6.23,16.37v42.66h-11v-36.91q0-9.52-4-14.14c-2.67-3.09-6.8-4.63-12.36-4.63a21.42,21.42,0,0,0-8.74,1.75,17.28,17.28,0,0,0-6.54,5,15.19,15.19,0,0,0-2.84,5.61q-.85,3.15-.86,11v32.39Z"/><path class="cls-1" d="M908.06,1499.06a33.74,33.74,0,0,1,2.53-13,32.76,32.76,0,0,1,7.4-10.93,33.62,33.62,0,0,1,11-7.29,34.62,34.62,0,0,1,13.15-2.5,33.62,33.62,0,0,1,13,2.53,35.11,35.11,0,0,1,11.13,7.4,32.2,32.2,0,0,1,7.4,10.85,33.66,33.66,0,0,1,2.53,13,33.1,33.1,0,0,1-2.53,12.91,32.36,32.36,0,0,1-7.4,10.79,35.2,35.2,0,0,1-11.2,7.53,32.91,32.91,0,0,1-12.91,2.61,33.93,33.93,0,0,1-13.11-2.57A34.31,34.31,0,0,1,910.59,1512,33.08,33.08,0,0,1,908.06,1499.06Zm11.36,0a23.32,23.32,0,0,0,6.65,16.82,21.56,21.56,0,0,0,16.09,6.88,21.27,21.27,0,0,0,16-6.88,24.78,24.78,0,0,0,0-33.63,21.23,21.23,0,0,0-16-6.88,21.52,21.52,0,0,0-16.13,6.88A23.39,23.39,0,0,0,919.42,1499.06Z"/><path class="cls-1" d="M1022.61,1476.39H1011.1v-8.83h11.51v-25.27h11v25.27h11.5v8.83h-11.5v53.83h-11Z"/><path class="cls-1" d="M1080.25,1499.06a33.74,33.74,0,0,1,2.53-13,32.76,32.76,0,0,1,7.4-10.93,33.62,33.62,0,0,1,11-7.29,34.62,34.62,0,0,1,13.15-2.5,33.62,33.62,0,0,1,13,2.53,35.11,35.11,0,0,1,11.13,7.4,32.2,32.2,0,0,1,7.4,10.85,33.66,33.66,0,0,1,2.53,13,33.1,33.1,0,0,1-2.53,12.91,32.36,32.36,0,0,1-7.4,10.79,35.2,35.2,0,0,1-11.2,7.53,32.91,32.91,0,0,1-12.91,2.61,33.93,33.93,0,0,1-13.11-2.57,34.31,34.31,0,0,1-18.46-18.32A33.08,33.08,0,0,1,1080.25,1499.06Zm11.37,0a23.31,23.31,0,0,0,6.64,16.82,21.56,21.56,0,0,0,16.09,6.88,21.27,21.27,0,0,0,16-6.88,24.78,24.78,0,0,0,0-33.63,21.23,21.23,0,0,0-16-6.88,21.52,21.52,0,0,0-16.13,6.88A23.38,23.38,0,0,0,1091.62,1499.06Z"/><path class="cls-1" d="M1266.82,1492.5a14,14,0,0,1,4.3-10.35,14.25,14.25,0,0,1,10.4-4.26,14.66,14.66,0,1,1-10.45,25A14.26,14.26,0,0,1,1266.82,1492.5Z"/><path class="cls-1" d="M1470.43,1424.07v106.15H1460v-11.37a27.15,27.15,0,0,1-9.59,10.42,24.57,24.57,0,0,1-13.15,3.63q-13.48,0-21.74-9.29t-8.25-24.55q0-15.4,8.08-24.58t21.5-9.18a24.1,24.1,0,0,1,22.88,14v-55.27ZM1460,1499.2q0-10.48-5.82-16.88t-15.34-6.41q-9.52,0-14.86,5.82t-5.35,16.1q0,11.58,5.41,18.11t14.93,6.54q9.87,0,15.45-6.16T1460,1499.2Z"/><path class="cls-1" d="M1576.28,1500.5h-49.65v1q0,10.07,5.75,16.27t15,6.19a20,20,0,0,0,11.37-3.39,29.56,29.56,0,0,0,9-10.24l8.15,5.48a31.39,31.39,0,0,1-29,17.13q-14.31,0-23.15-9.46t-8.83-24.79q0-14.72,8.77-24.11t22.53-9.38q13.9,0,22,8.9t8.11,24.32Zm-11.5-8.7q-.55-8.28-5.52-12.77t-13.59-4.49a18.32,18.32,0,0,0-19,17.26Z"/><path class="cls-1" d="M1613.86,1519.68l9.17-6.17a18.81,18.81,0,0,0,6.58,7.5,17.18,17.18,0,0,0,9.38,2.5,13.21,13.21,0,0,0,8.53-2.6,8.33,8.33,0,0,0,3.25-6.85,7.36,7.36,0,0,0-2.23-5.48c-1.48-1.46-4-2.81-7.63-4l-1.78-.61q-22.87-7.87-22.88-19.73a17.12,17.12,0,0,1,6.17-13.63q6.16-5.27,16-5.27a28.18,28.18,0,0,1,14,3.25,18.74,18.74,0,0,1,8.36,9.21l-8.7,5.34a14.59,14.59,0,0,0-5.65-6.64,16.06,16.06,0,0,0-8.66-2.33,11.21,11.21,0,0,0-7.71,2.64,8.64,8.64,0,0,0-3,6.75q0,5.74,12.47,9.65c1.55.51,2.78.89,3.7,1.17q10.2,3.29,14.21,7.5t4,11.13a18.19,18.19,0,0,1-6.33,14.41q-6.33,5.52-16.54,5.52a31.18,31.18,0,0,1-14.9-3.29A24.34,24.34,0,0,1,1613.86,1519.68Z"/><path class="cls-1" d="M1703.68,1437.35a7.84,7.84,0,0,1,7.88-7.8,7.42,7.42,0,0,1,5.51,2.33,7.7,7.7,0,0,1,2.3,5.61,7.72,7.72,0,0,1-7.81,7.74,7.79,7.79,0,0,1-7.88-7.88Zm2.54,92.87v-62.66H1717v62.66Z"/><path class="cls-1" d="M1826,1467.56v61.57q0,10.2-1.37,14.52a20.53,20.53,0,0,1-4.52,7.74,27.06,27.06,0,0,1-10.72,7,42.06,42.06,0,0,1-14.55,2.33q-14.25,0-22.22-6.51t-8.32-18.42h12.05v.82q0,7,4.86,10.89t13.77,3.84a26.28,26.28,0,0,0,11-2.09,15.13,15.13,0,0,0,7-6.2,16.25,16.25,0,0,0,2.06-5.41,48.26,48.26,0,0,0,.61-8.84v-10.54a26.47,26.47,0,0,1-9.52,10.3,24.82,24.82,0,0,1-13.22,3.6q-13.48,0-21.74-9.18t-8.25-24.38q0-15.35,8-24.35t21.44-9a26,26,0,0,1,13.69,3.53,24.45,24.45,0,0,1,9.32,10.37v-11.64Zm-10.41,31.5q0-10.55-5.75-17t-15.14-6.44q-9.65,0-15.06,6t-5.41,16.64q0,11.37,5.44,17.53t15.44,6.17q9.6,0,15-6.06T1815.63,1499.06Z"/><path class="cls-1" d="M1875.81,1530.22v-62.66h10.47v9.66a26.41,26.41,0,0,1,9.73-9,28.22,28.22,0,0,1,13.15-2.94q11.1,0,17.33,5.89t6.23,16.37v42.66h-11v-36.91q0-9.52-4-14.14t-12.36-4.63a21.4,21.4,0,0,0-8.73,1.75,17.12,17.12,0,0,0-6.54,5,15,15,0,0,0-2.84,5.61q-.85,3.15-.86,11v32.39Z"/></g></g></svg>