<svg id="Layer_1" data-name="Layer 1" xmlns="http://www.w3.org/2000/svg" viewBox="0 0 1501 501"><defs><style>.cls-1{fill:#1c90d9;}.cls-2{fill:#fff;}</style></defs><path class="cls-1" d="M250.5.5h1250a0,0,0,0,1,0,0v500a0,0,0,0,1,0,0H250.5a250,250,0,0,1-250-250v0A250,250,0,0,1,250.5.5Z"/><path class="cls-2" d="M250.54,50.5c-110.28,0-200,89.72-200,200s89.72,200,200,200,200-89.72,200-200S360.82,50.5,250.54,50.5Zm171.8,186.2H347.1c-1.87-62.39-16.37-115.27-38.63-148.55C371,110.52,416.86,168,422.34,236.7ZM250.54,422.9c-31.22,0-65.81-64.46-68.93-158.6H319.47C316.35,358.44,281.76,422.9,250.54,422.9ZM181.61,236.7c3.12-94.14,37.71-158.6,68.93-158.6s65.81,64.46,68.93,158.6Zm11-148.55C170.35,121.43,155.85,174.31,154,236.7H78.75C84.22,168,130.11,110.52,192.61,88.15ZM78.75,264.3H154c1.87,62.39,16.37,115.27,38.63,148.55C130.11,390.48,84.22,333,78.75,264.3ZM308.47,412.85c22.26-33.28,36.76-86.16,38.63-148.55h75.24C416.86,333,371,390.48,308.47,412.85Z"/><path class="cls-2" d="M716,84.25a8,8,0,0,1,5.31,2.07A7.06,7.06,0,0,1,723.78,92a8.88,8.88,0,0,1-.54,2.7L685.08,206.11a6,6,0,0,1-2.7,3.33,9.54,9.54,0,0,1-4,1.35,8,8,0,0,1-4.14-1.17,6.68,6.68,0,0,1-2.88-3.51l-30.24-72.54,1.62.54-29.88,72a7.56,7.56,0,0,1-3.15,3.51,8.5,8.5,0,0,1-4.23,1.17,8.63,8.63,0,0,1-3.69-1.35,6,6,0,0,1-2.61-3.33L560.88,94.69a8.88,8.88,0,0,1-.54-2.7,6.76,6.76,0,0,1,2.7-5.67,8.86,8.86,0,0,1,5.4-2.07,7.62,7.62,0,0,1,4.14,1.26,6.41,6.41,0,0,1,2.7,3.6l33.66,99.18h-2.7l29.34-72.54a7.6,7.6,0,0,1,2.7-3.42,7,7,0,0,1,4.14-1.26,7.48,7.48,0,0,1,4.23,1.26,6.5,6.5,0,0,1,2.61,3.42l28.44,71.46-2.34.9,33.48-99a6.24,6.24,0,0,1,2.7-3.6A8.15,8.15,0,0,1,716,84.25Z"/><path class="cls-2" d="M781,212.59q-14.4,0-25.2-6.12A43.62,43.62,0,0,1,739,189.64q-6-10.71-6-24.75,0-15.66,6.21-26.73a44,44,0,0,1,16.2-16.92,41.2,41.2,0,0,1,21.15-5.85,43,43,0,0,1,16.11,3.06,41.08,41.08,0,0,1,13.68,9,45.33,45.33,0,0,1,9.63,14,46.82,46.82,0,0,1,3.78,18.36,6.65,6.65,0,0,1-2.34,4.77,7.42,7.42,0,0,1-5,1.89h-71.1L738,154.09h69.3l-2.88,2.52v-4A23.55,23.55,0,0,0,799.46,140a29.26,29.26,0,0,0-23-11.07,30.45,30.45,0,0,0-10.71,2,27,27,0,0,0-9.54,6.12,29.4,29.4,0,0,0-6.75,10.8,45.35,45.35,0,0,0-2.52,16,38.39,38.39,0,0,0,4.23,18.36A32,32,0,0,0,763,194.68a33,33,0,0,0,17.46,4.59,33.41,33.41,0,0,0,11.07-1.62,32.32,32.32,0,0,0,8-4.05,37.35,37.35,0,0,0,5.76-4.95,8,8,0,0,1,4.5-1.62,6.11,6.11,0,0,1,4.5,1.8,5.89,5.89,0,0,1,1.8,4.32q0,3.06-3.06,5.58a43.45,43.45,0,0,1-13.68,9.72A42,42,0,0,1,781,212.59Z"/><path class="cls-2" d="M886.31,115.39a39.91,39.91,0,0,1,22,6.21,44,44,0,0,1,15.39,17q5.67,10.8,5.67,25a54.14,54.14,0,0,1-5.67,25.2,45.35,45.35,0,0,1-15.3,17.37,38.35,38.35,0,0,1-21.69,6.39,37.23,37.23,0,0,1-12.51-2.07,41.54,41.54,0,0,1-18.63-13.23,28.29,28.29,0,0,1-4.68-8.46l4-2.34v17.82a7.45,7.45,0,0,1-2,5.22,6.74,6.74,0,0,1-5.22,2.16,7,7,0,0,1-5.13-2.07,7.19,7.19,0,0,1-2.07-5.31V85a7.27,7.27,0,0,1,2.07-5.22,6.82,6.82,0,0,1,5.13-2.16,6.74,6.74,0,0,1,5.22,2.16,7.45,7.45,0,0,1,2,5.22v55.44l-2.7-1.44a26.65,26.65,0,0,1,4.41-8.73,35.67,35.67,0,0,1,7.74-7.56,39.57,39.57,0,0,1,10.26-5.31A35.5,35.5,0,0,1,886.31,115.39Zm-1.62,13.32a28.18,28.18,0,0,0-15.93,4.59A31.09,31.09,0,0,0,858,145.72a39.9,39.9,0,0,0-3.87,17.91A41.64,41.64,0,0,0,858,181.81a31.36,31.36,0,0,0,10.8,12.78,27.79,27.79,0,0,0,15.93,4.68,27.37,27.37,0,0,0,15.84-4.68,32.3,32.3,0,0,0,10.8-12.78,40.85,40.85,0,0,0,4-18.18,39.15,39.15,0,0,0-4-17.91,32,32,0,0,0-10.8-12.42A27.76,27.76,0,0,0,884.69,128.71Z"/><path class="cls-2" d="M1009.43,210.79a7.24,7.24,0,0,1-7.56-7.38V92.17a7.37,7.37,0,0,1,7.38-7.38h63.18a7.27,7.27,0,0,1,5.22,2.07,6.82,6.82,0,0,1,2.16,5.13,6.43,6.43,0,0,1-2.16,4.77,7.27,7.27,0,0,1-5.22,2.07h-56.7l1.08-1.44v43.92l-.9-2h48.42a7.27,7.27,0,0,1,5.22,2.07,6.82,6.82,0,0,1,2.16,5.13,6.34,6.34,0,0,1-2.16,4.86,7.45,7.45,0,0,1-5.22,2h-48.78l1.26-1.44v51.48a7.37,7.37,0,0,1-7.38,7.38Z"/><path class="cls-2" d="M1185.83,164a50.51,50.51,0,0,1-6.12,25,47,47,0,0,1-64.26,17.28A46.08,46.08,0,0,1,1098.62,189a49.93,49.93,0,0,1-6.21-25,49.93,49.93,0,0,1,6.21-25,45.7,45.7,0,0,1,40.59-23.58,45.15,45.15,0,0,1,40.5,23.58A50.51,50.51,0,0,1,1185.83,164Zm-14.4,0a37.86,37.86,0,0,0-4.23-18.27,32.82,32.82,0,0,0-11.52-12.42,31.68,31.68,0,0,0-32.85,0,32.58,32.58,0,0,0-11.61,12.42,41.38,41.38,0,0,0,0,36.45,32.41,32.41,0,0,0,11.61,12.51,31.68,31.68,0,0,0,32.85,0,32.65,32.65,0,0,0,11.52-12.51A38,38,0,0,0,1171.43,164Z"/><path class="cls-2" d="M1213.91,210.79a6.82,6.82,0,0,1-5.13-2.16,7.27,7.27,0,0,1-2.07-5.22v-78.3a7.19,7.19,0,0,1,2.07-5.31,7,7,0,0,1,5.13-2.07,6.89,6.89,0,0,1,5.22,2.07,7.37,7.37,0,0,1,2,5.31v23.58l-2.16-3.78a39.45,39.45,0,0,1,3.87-10.89,38,38,0,0,1,7.11-9.54,32.68,32.68,0,0,1,9.9-6.66,30.33,30.33,0,0,1,12.24-2.43,14.51,14.51,0,0,1,7.29,1.89,5.85,5.85,0,0,1,3.33,5.31q0,3.78-2,5.67a6.34,6.34,0,0,1-4.5,1.89,9.94,9.94,0,0,1-4.5-1.08,12,12,0,0,0-5.4-1.08,17.79,17.79,0,0,0-8.91,2.52,30,30,0,0,0-8.1,6.93,36.63,36.63,0,0,0-5.94,10.08,32.64,32.64,0,0,0-2.25,12.15v43.74a7.27,7.27,0,0,1-2.07,5.22A6.82,6.82,0,0,1,1213.91,210.79Z"/><path class="cls-2" d="M1323.35,116.29q12.24,0,19.89,6.21t10.17,17.55h-2.7l1.26-3.24a28.15,28.15,0,0,1,7.38-9.72,46,46,0,0,1,12.06-7.74,34.42,34.42,0,0,1,14.22-3.06q11.88,0,18.72,5.13a28.21,28.21,0,0,1,9.81,13.68,58.17,58.17,0,0,1,3,19.17v49.14a7.31,7.31,0,0,1-2.07,5.22,7,7,0,0,1-5.31,2.16,6.79,6.79,0,0,1-5.13-2.16,7.27,7.27,0,0,1-2.07-5.22V154.63a37.73,37.73,0,0,0-2-12.51,18.6,18.6,0,0,0-6.66-9.09c-3.13-2.28-7.32-3.42-12.6-3.42a27.31,27.31,0,0,0-23,12.51,22.79,22.79,0,0,0-3.6,12.51v48.78a7.45,7.45,0,0,1-2,5.22,7.39,7.39,0,0,1-10.44,0,7.41,7.41,0,0,1-2-5.22V154.09a36.37,36.37,0,0,0-2-12.24,18.6,18.6,0,0,0-6.48-8.91c-3-2.22-7.09-3.33-12.24-3.33a26.41,26.41,0,0,0-13.14,3.33,26.69,26.69,0,0,0-9.54,8.91,22,22,0,0,0-3.6,12.24v49.32a7.31,7.31,0,0,1-2.07,5.22,7.17,7.17,0,0,1-10.26,0,7.27,7.27,0,0,1-2.07-5.22v-78.3a7.19,7.19,0,0,1,2.07-5.31,7.5,7.5,0,0,1,10.35,0,7.37,7.37,0,0,1,2,5.31v13.5l-4,4.32a24.24,24.24,0,0,1,3.69-9.36,37.84,37.84,0,0,1,7.65-8.64,38.31,38.31,0,0,1,10.44-6.3A32.21,32.21,0,0,1,1323.35,116.29Z"/><path class="cls-2" d="M780.77,278.49a2.37,2.37,0,0,1,1.12,1.64,2.51,2.51,0,0,1-.56,2,1.78,1.78,0,0,1-1.4.84,3.63,3.63,0,0,1-1.72-.36,25.21,25.21,0,0,0-6.48-3.12,24.23,24.23,0,0,0-7.44-1.12,23.33,23.33,0,0,0-9.08,1.76,22,22,0,0,0-7.32,5,22.51,22.51,0,0,0-4.84,7.6,28.36,28.36,0,0,0,0,19.56,22.73,22.73,0,0,0,4.92,7.64,21.61,21.61,0,0,0,7.32,4.88,24.86,24.86,0,0,0,16.36.56,28.53,28.53,0,0,0,6.52-3,2.54,2.54,0,0,1,1.68-.36,2.31,2.31,0,0,1,1.52.92,2.48,2.48,0,0,1,.48,1.92,2,2,0,0,1-1,1.52,31.74,31.74,0,0,1-4.72,2.44,31.18,31.18,0,0,1-5.76,1.8,29.14,29.14,0,0,1-6.08.64,28.28,28.28,0,0,1-10.84-2.08,27.47,27.47,0,0,1-15.08-15,29.88,29.88,0,0,1-2.24-11.76,29.2,29.2,0,0,1,2.2-11.44,28.68,28.68,0,0,1,6-9.08,27.51,27.51,0,0,1,9-6,27.94,27.94,0,0,1,11-2.16,30.36,30.36,0,0,1,8.8,1.28A27.94,27.94,0,0,1,780.77,278.49Z"/><path class="cls-2" d="M796.21,327.93a2.46,2.46,0,0,1-2.4,2.4,2.28,2.28,0,0,1-1.72-.72,2.38,2.38,0,0,1-.68-1.68v-54.4a2.46,2.46,0,0,1,2.4-2.4,2.25,2.25,0,0,1,1.72.72,2.34,2.34,0,0,1,.68,1.68Z"/><path class="cls-2" d="M811.57,283.37a3.63,3.63,0,0,1-2.52-.76,2.82,2.82,0,0,1-.84-2.2v-.8a2.7,2.7,0,0,1,.92-2.2,3.85,3.85,0,0,1,2.52-.76,3.37,3.37,0,0,1,2.36.76,2.82,2.82,0,0,1,.84,2.2v.8a2.82,2.82,0,0,1-.84,2.2A3.5,3.5,0,0,1,811.57,283.37Zm2.4,44.56a2.46,2.46,0,0,1-2.4,2.4,2.25,2.25,0,0,1-1.76-.72,2.48,2.48,0,0,1-.64-1.68v-36.8a2.38,2.38,0,0,1,.68-1.68,2.28,2.28,0,0,1,1.72-.72,2.25,2.25,0,0,1,1.72.72,2.34,2.34,0,0,1,.68,1.68Z"/><path class="cls-2" d="M844.05,288.49a28,28,0,0,1,7.12.84,15.25,15.25,0,0,1,5.16,2.28,4,4,0,0,1,2,3.12,2.51,2.51,0,0,1-.6,1.56,1.89,1.89,0,0,1-1.56.76,2.6,2.6,0,0,1-1.56-.44,6.39,6.39,0,0,1-1.16-1.12,4.33,4.33,0,0,0-1.68-1.16,10.59,10.59,0,0,0-3-.92,24.25,24.25,0,0,0-4.36-.36,15,15,0,0,0-8.08,2.24,16.13,16.13,0,0,0-5.68,6,17.19,17.19,0,0,0-2.08,8.48,18.81,18.81,0,0,0,2,8.64,15,15,0,0,0,5.52,6,15.25,15.25,0,0,0,8.2,2.2,17.24,17.24,0,0,0,5-.56,16.07,16.07,0,0,0,3-1.28,8.83,8.83,0,0,0,2.24-1.72,2.31,2.31,0,0,1,1.84-.84,2,2,0,0,1,1.52.6,2.17,2.17,0,0,1,.56,1.56c0,.85-.63,1.8-1.88,2.84a16.74,16.74,0,0,1-5.16,2.72,22.86,22.86,0,0,1-7.6,1.16,19,19,0,0,1-17.48-10.44,23.31,23.31,0,0,1-2.52-10.92,22.22,22.22,0,0,1,2.56-10.64,20.49,20.49,0,0,1,7.12-7.72A19.28,19.28,0,0,1,844.05,288.49Z"/><path class="cls-2" d="M870.45,330.33a2.26,2.26,0,0,1-1.72-.72,2.38,2.38,0,0,1-.68-1.68v-54.4a2.38,2.38,0,0,1,.68-1.68,2.41,2.41,0,0,1,3.44,0,2.38,2.38,0,0,1,.68,1.68v54.4a2.38,2.38,0,0,1-.68,1.68A2.26,2.26,0,0,1,870.45,330.33Zm27.12-41a2.23,2.23,0,0,1,1.68.76,2.35,2.35,0,0,1,.72,1.64,2.42,2.42,0,0,1-.88,1.84l-26.88,22.88-.24-5.68,24-20.64A2.13,2.13,0,0,1,897.57,289.29Zm.72,41a2.42,2.42,0,0,1-1.84-.88l-18.16-19.36,3.6-3.28L900,326.09a2.67,2.67,0,0,1,.72,1.84,2,2,0,0,1-.88,1.76A2.72,2.72,0,0,1,898.29,330.33Z"/><path class="cls-2" d="M929.57,289.61h18.64a2.12,2.12,0,0,1,1.6.68,2.29,2.29,0,0,1,.64,1.64,2.19,2.19,0,0,1-2.24,2.24H929.57a2.32,2.32,0,0,1-2.32-2.32,2.12,2.12,0,0,1,.68-1.6A2.29,2.29,0,0,1,929.57,289.61Zm8.24-11.28a2.26,2.26,0,0,1,1.72.72,2.38,2.38,0,0,1,.68,1.68v40.16a7.36,7.36,0,0,0,.6,3.36,3,3,0,0,0,1.56,1.48,5.44,5.44,0,0,0,1.92.36,3.28,3.28,0,0,0,1.16-.2,3.28,3.28,0,0,1,1.16-.2,1.65,1.65,0,0,1,1.24.56,2,2,0,0,1,.52,1.44,2.2,2.2,0,0,1-1.28,1.88,5.81,5.81,0,0,1-3,.76q-.72,0-2.16-.12a8,8,0,0,1-3-.88,6.12,6.12,0,0,1-2.56-2.68,11.85,11.85,0,0,1-1-5.52v-40.4a2.3,2.3,0,0,1,.72-1.68A2.4,2.4,0,0,1,937.81,278.33Z"/><path class="cls-2" d="M996.69,309.85A22.14,22.14,0,0,1,994,320.77a20.05,20.05,0,0,1-7.24,7.6,20.6,20.6,0,0,1-20.6,0,19.93,19.93,0,0,1-7.28-7.6,23.67,23.67,0,0,1,0-21.88,20.36,20.36,0,0,1,7.28-7.6,20.34,20.34,0,0,1,20.6,0,20.49,20.49,0,0,1,7.24,7.6A22.05,22.05,0,0,1,996.69,309.85Zm-4.88,0a18.4,18.4,0,0,0-2-8.68,15.17,15.17,0,0,0-5.48-6,15.45,15.45,0,0,0-15.76,0,15.49,15.49,0,0,0-5.52,6,18.06,18.06,0,0,0-2,8.68,17.85,17.85,0,0,0,2,8.64,15.85,15.85,0,0,0,5.52,6,15.21,15.21,0,0,0,15.76,0,15.52,15.52,0,0,0,5.48-6A18.18,18.18,0,0,0,991.81,309.85Z"/><path class="cls-2" d="M1066.13,309.85a22.14,22.14,0,0,1-2.68,10.92,20.05,20.05,0,0,1-7.24,7.6,20.6,20.6,0,0,1-20.6,0,19.93,19.93,0,0,1-7.28-7.6,23.67,23.67,0,0,1,0-21.88,20.36,20.36,0,0,1,7.28-7.6,20.34,20.34,0,0,1,20.6,0,20.49,20.49,0,0,1,7.24,7.6A22.05,22.05,0,0,1,1066.13,309.85Zm-4.88,0a18.4,18.4,0,0,0-2-8.68,15.17,15.17,0,0,0-5.48-6,15.45,15.45,0,0,0-15.76,0,15.49,15.49,0,0,0-5.52,6,18.06,18.06,0,0,0-2,8.68,17.85,17.85,0,0,0,2,8.64,15.85,15.85,0,0,0,5.52,6,15.21,15.21,0,0,0,15.76,0,15.52,15.52,0,0,0,5.48-6A18.18,18.18,0,0,0,1061.25,309.85Z"/><path class="cls-2" d="M1095.41,289.13a17.52,17.52,0,0,1,9.64,2.68,19.27,19.27,0,0,1,6.68,7.36,22.68,22.68,0,0,1,2.48,10.76,22.93,22.93,0,0,1-2.48,10.8,19.37,19.37,0,0,1-6.72,7.44,17.29,17.29,0,0,1-9.52,2.72,16.7,16.7,0,0,1-5.32-.84,18,18,0,0,1-4.6-2.28,17.95,17.95,0,0,1-6.24-7.6l1.44-1.12v24.88a2.38,2.38,0,0,1-.68,1.68,2.28,2.28,0,0,1-1.72.72,2.38,2.38,0,0,1-1.76-.72,2.3,2.3,0,0,1-.72-1.68V291.77a2.45,2.45,0,0,1,.68-1.76,2.35,2.35,0,0,1,1.8-.72,2.28,2.28,0,0,1,1.72.72,2.49,2.49,0,0,1,.68,1.76v8.64l-1.12-.64a13.93,13.93,0,0,1,2.36-4.44,15.93,15.93,0,0,1,3.64-3.36,16.12,16.12,0,0,1,4.56-2.12A18.51,18.51,0,0,1,1095.41,289.13Zm-.4,4.48a13.7,13.7,0,0,0-7.6,2.12,14.69,14.69,0,0,0-5.16,5.76,18.07,18.07,0,0,0-1.88,8.44,18.61,18.61,0,0,0,1.88,8.48,14.51,14.51,0,0,0,5.16,5.88,13.7,13.7,0,0,0,7.6,2.12,13.39,13.39,0,0,0,7.48-2.12,14.72,14.72,0,0,0,5.12-5.88,18.74,18.74,0,0,0,1.88-8.48,18.23,18.23,0,0,0-1.88-8.4,14.89,14.89,0,0,0-5.12-5.8A13.39,13.39,0,0,0,1095,293.61Z"/><path class="cls-2" d="M1142.29,331.13a21.85,21.85,0,0,1-10.92-2.64,18.84,18.84,0,0,1-7.32-7.36,22.26,22.26,0,0,1-2.64-11,23.43,23.43,0,0,1,2.68-11.6,19.5,19.5,0,0,1,7-7.4,17.23,17.23,0,0,1,9.08-2.6,19.38,19.38,0,0,1,6.84,1.24,17.18,17.18,0,0,1,5.88,3.68,19.12,19.12,0,0,1,4.16,6,20.67,20.67,0,0,1,1.68,8.16,2.17,2.17,0,0,1-.72,1.64,2.38,2.38,0,0,1-1.68.68h-32.08l-1-4.32h31.44l-1,1v-1.6a11.56,11.56,0,0,0-2.4-6.36,14.3,14.3,0,0,0-5-4,14.05,14.05,0,0,0-6.12-1.4,13.77,13.77,0,0,0-4.92,1,12.92,12.92,0,0,0-4.56,3,15.35,15.35,0,0,0-3.32,5.2,19.75,19.75,0,0,0-1.28,7.48,18.86,18.86,0,0,0,1.92,8.56,14.81,14.81,0,0,0,5.52,6.08,16.2,16.2,0,0,0,8.72,2.24,14.79,14.79,0,0,0,5-.8,14.42,14.42,0,0,0,4-2.12A15.91,15.91,0,0,0,1154,321a2.48,2.48,0,0,1,1.68-.72,2,2,0,0,1,1.48.64,2.06,2.06,0,0,1,.6,1.44,2.21,2.21,0,0,1-.8,1.68,21.5,21.5,0,0,1-6.24,5A17.13,17.13,0,0,1,1142.29,331.13Z"/><path class="cls-2" d="M1187.89,288.49a15,15,0,0,1,8.44,2.12,12,12,0,0,1,4.56,5.76,22.32,22.32,0,0,1,1.4,8v23.52a2.46,2.46,0,0,1-2.4,2.4,2.39,2.39,0,0,1-2.48-2.4V304.65a15.89,15.89,0,0,0-1-5.84,8.93,8.93,0,0,0-3.36-4.2,10.88,10.88,0,0,0-6.16-1.56,14.21,14.21,0,0,0-6.52,1.56,13.69,13.69,0,0,0-5,4.2,9.71,9.71,0,0,0-1.92,5.84v23.28a2.46,2.46,0,0,1-2.4,2.4,2.39,2.39,0,0,1-2.48-2.4V292.09a2.3,2.3,0,0,1,.72-1.68,2.38,2.38,0,0,1,1.76-.72,2.28,2.28,0,0,1,1.72.72,2.38,2.38,0,0,1,.68,1.68v6.72l-1.84,2.88a10.25,10.25,0,0,1,1.64-4.92,17,17,0,0,1,3.8-4.24,18.58,18.58,0,0,1,5.16-3A16,16,0,0,1,1187.89,288.49Z"/><path class="cls-2" d="M1274.45,309.85a22.25,22.25,0,0,1-2.68,10.92,20.05,20.05,0,0,1-7.24,7.6,20.6,20.6,0,0,1-20.6,0,19.86,19.86,0,0,1-7.28-7.6,23.67,23.67,0,0,1,0-21.88,20.29,20.29,0,0,1,7.28-7.6,20.34,20.34,0,0,1,20.6,0,20.49,20.49,0,0,1,7.24,7.6A22.16,22.16,0,0,1,1274.45,309.85Zm-4.88,0a18.4,18.4,0,0,0-2-8.68,15.25,15.25,0,0,0-5.48-6,15.45,15.45,0,0,0-15.76,0,15.49,15.49,0,0,0-5.52,6,18.06,18.06,0,0,0-2,8.68,17.85,17.85,0,0,0,2,8.64,15.85,15.85,0,0,0,5.52,6,15.21,15.21,0,0,0,15.76,0,15.6,15.6,0,0,0,5.48-6A18.18,18.18,0,0,0,1269.57,309.85Z"/><path class="cls-2" d="M1286.68,330.33a2.39,2.39,0,0,1-2.48-2.4V292.09a2.3,2.3,0,0,1,.72-1.68,2.4,2.4,0,0,1,1.76-.72,2.25,2.25,0,0,1,1.72.72,2.34,2.34,0,0,1,.68,1.68v12l-1.2.24a18.41,18.41,0,0,1,1.4-5.56,19.35,19.35,0,0,1,3.16-5.08,16,16,0,0,1,4.76-3.76,13.21,13.21,0,0,1,6.2-1.44,6.85,6.85,0,0,1,2.8.6,2,2,0,0,1,1.36,2,2.48,2.48,0,0,1-.64,1.84,2,2,0,0,1-1.52.64,3.61,3.61,0,0,1-1.56-.4,5.09,5.09,0,0,0-2.2-.4,8.79,8.79,0,0,0-4.48,1.32,15.61,15.61,0,0,0-4.08,3.56,18.49,18.49,0,0,0-2.92,5,15.14,15.14,0,0,0-1.08,5.56v19.76a2.46,2.46,0,0,1-2.4,2.4Z"/><path class="cls-2" d="M1346.53,271.13a2.28,2.28,0,0,1,1.72.72,2.38,2.38,0,0,1,.68,1.68v54.4a2.46,2.46,0,0,1-2.4,2.4,2.39,2.39,0,0,1-2.48-2.4v-9.52l1.44-1.12a10.75,10.75,0,0,1-1.2,4.76,15.42,15.42,0,0,1-3.4,4.48,18.28,18.28,0,0,1-5.12,3.32,15.74,15.74,0,0,1-6.36,1.28,17,17,0,0,1-9.6-2.8,19.76,19.76,0,0,1-6.72-7.6,25.37,25.37,0,0,1,0-21.88,19.34,19.34,0,0,1,6.72-7.6,17.06,17.06,0,0,1,9.52-2.76,16.68,16.68,0,0,1,6.32,1.2,17.38,17.38,0,0,1,5.24,3.28,15.48,15.48,0,0,1,3.56,4.76,12.81,12.81,0,0,1,1.28,5.56l-1.68-1.2V273.53a2.39,2.39,0,0,1,2.48-2.4Zm-16.64,55.52a13.18,13.18,0,0,0,7.52-2.2,15.29,15.29,0,0,0,5.16-6,19.37,19.37,0,0,0,1.88-8.68,19.17,19.17,0,0,0-1.88-8.6,15,15,0,0,0-5.16-6,14.1,14.1,0,0,0-15,0,14.67,14.67,0,0,0-5.2,6,19,19,0,0,0-1.88,8.6,19.3,19.3,0,0,0,1.88,8.64,14.91,14.91,0,0,0,5.2,6A13.19,13.19,0,0,0,1329.89,326.65Z"/><path class="cls-2" d="M1379.64,331.13a21.85,21.85,0,0,1-10.92-2.64,18.84,18.84,0,0,1-7.32-7.36,22.26,22.26,0,0,1-2.64-11,23.54,23.54,0,0,1,2.68-11.6,19.66,19.66,0,0,1,7-7.4,17.25,17.25,0,0,1,9.08-2.6,19.3,19.3,0,0,1,6.84,1.24,17,17,0,0,1,5.88,3.68,18.8,18.8,0,0,1,4.16,6,20.32,20.32,0,0,1,1.68,8.16,2.17,2.17,0,0,1-.72,1.64,2.38,2.38,0,0,1-1.68.68h-32.08l-1-4.32H1392l-1,1v-1.6a11.41,11.41,0,0,0-2.4-6.36,14.21,14.21,0,0,0-11.12-5.4,13.77,13.77,0,0,0-4.92,1,12.92,12.92,0,0,0-4.56,3,15.5,15.5,0,0,0-3.32,5.2,20,20,0,0,0-1.28,7.48,18.86,18.86,0,0,0,1.92,8.56,14.81,14.81,0,0,0,5.52,6.08,16.22,16.22,0,0,0,8.72,2.24,14.7,14.7,0,0,0,5-.8,14.14,14.14,0,0,0,4-2.12,15.27,15.27,0,0,0,2.84-2.76,2.51,2.51,0,0,1,1.68-.72,1.93,1.93,0,0,1,1.48.64,2.06,2.06,0,0,1,.6,1.44,2.18,2.18,0,0,1-.8,1.68,21.5,21.5,0,0,1-6.24,5A17.13,17.13,0,0,1,1379.64,331.13Z"/><path class="cls-2" d="M1408.36,330.33a2.39,2.39,0,0,1-2.48-2.4V292.09a2.3,2.3,0,0,1,.72-1.68,2.4,2.4,0,0,1,1.76-.72,2.25,2.25,0,0,1,1.72.72,2.34,2.34,0,0,1,.68,1.68v12l-1.2.24a18.41,18.41,0,0,1,1.4-5.56,19.35,19.35,0,0,1,3.16-5.08,16,16,0,0,1,4.76-3.76,13.21,13.21,0,0,1,6.2-1.44,6.85,6.85,0,0,1,2.8.6,2,2,0,0,1,1.36,2,2.48,2.48,0,0,1-.64,1.84,2,2,0,0,1-1.52.64,3.61,3.61,0,0,1-1.56-.4,5.09,5.09,0,0,0-2.2-.4,8.79,8.79,0,0,0-4.48,1.32,15.61,15.61,0,0,0-4.08,3.56,18.49,18.49,0,0,0-2.92,5,15.14,15.14,0,0,0-1.08,5.56v19.76a2.46,2.46,0,0,1-2.4,2.4Z"/><path class="cls-2" d="M871.81,386.25a2.24,2.24,0,1,1,0,4.48h-19.6a2.18,2.18,0,0,1-1.56-.68,2.15,2.15,0,0,1-.68-1.56,2.09,2.09,0,0,1,.68-1.64,2.31,2.31,0,0,1,1.56-.6Zm-3-18.8a15.42,15.42,0,0,1,2.6.24,6.67,6.67,0,0,1,2.44.88,2,2,0,0,1,1,1.76,2.29,2.29,0,0,1-.64,1.64,1.93,1.93,0,0,1-1.44.68,5.64,5.64,0,0,1-2-.48,6.82,6.82,0,0,0-2.56-.48,5.24,5.24,0,0,0-2.88.76,5,5,0,0,0-1.84,2.16,8.25,8.25,0,0,0-.64,3.4v45.92a2.34,2.34,0,0,1-.68,1.68,2.25,2.25,0,0,1-1.72.72,2.28,2.28,0,0,1-1.72-.72,2.38,2.38,0,0,1-.68-1.68V378c0-3.41,1-6,3-7.84A11.08,11.08,0,0,1,868.77,367.45Z"/><path class="cls-2" d="M920,405.85a22.14,22.14,0,0,1-2.68,10.92,20,20,0,0,1-7.24,7.6,20.6,20.6,0,0,1-20.6,0,20,20,0,0,1-7.28-7.6,23.67,23.67,0,0,1,0-21.88,20.44,20.44,0,0,1,7.28-7.6,20.34,20.34,0,0,1,20.6,0,20.41,20.41,0,0,1,7.24,7.6A22.05,22.05,0,0,1,920,405.85Zm-4.88,0a18.28,18.28,0,0,0-2-8.68,15.17,15.17,0,0,0-5.48-6,15.45,15.45,0,0,0-15.76,0,15.49,15.49,0,0,0-5.52,6,18.06,18.06,0,0,0-2,8.68,17.85,17.85,0,0,0,2,8.64,15.85,15.85,0,0,0,5.52,6,15.21,15.21,0,0,0,15.76,0,15.52,15.52,0,0,0,5.48-6A18.06,18.06,0,0,0,915.09,405.85Z"/><path class="cls-2" d="M932.21,426.33a2.35,2.35,0,0,1-1.8-.72,2.38,2.38,0,0,1-.68-1.68V388.09a2.3,2.3,0,0,1,.72-1.68,2.4,2.4,0,0,1,1.76-.72,2.26,2.26,0,0,1,1.72.72,2.38,2.38,0,0,1,.68,1.68v12l-1.2.24a18.41,18.41,0,0,1,1.4-5.56,19.09,19.09,0,0,1,3.16-5.08,15.89,15.89,0,0,1,4.76-3.76,13.21,13.21,0,0,1,6.2-1.44,6.88,6.88,0,0,1,2.8.6,2,2,0,0,1,1.36,2,2.48,2.48,0,0,1-.64,1.84,2.06,2.06,0,0,1-1.52.64,3.61,3.61,0,0,1-1.56-.4,5.09,5.09,0,0,0-2.2-.4,8.76,8.76,0,0,0-4.48,1.32,15.61,15.61,0,0,0-4.08,3.56,18.23,18.23,0,0,0-2.92,5,15.14,15.14,0,0,0-1.08,5.56v19.76a2.46,2.46,0,0,1-2.4,2.4Z"/><path class="cls-2" d="M979,385.13a13.9,13.9,0,0,1,8.48,2.6,13.12,13.12,0,0,1,4.8,7.72l-1.12.32.48-1.44a12.73,12.73,0,0,1,3.48-4.52,20,20,0,0,1,5.56-3.4,16.6,16.6,0,0,1,6.32-1.28,13.86,13.86,0,0,1,8.12,2.16,12.28,12.28,0,0,1,4.48,5.8,22.78,22.78,0,0,1,1.4,8.2v22.64a2.38,2.38,0,0,1-.68,1.68,2.26,2.26,0,0,1-1.72.72,2.23,2.23,0,0,1-1.76-.72,2.43,2.43,0,0,1-.64-1.68v-22.4a16.72,16.72,0,0,0-1-6,9.24,9.24,0,0,0-3.28-4.32,10.09,10.09,0,0,0-6-1.6,13,13,0,0,0-6.32,1.6,13.79,13.79,0,0,0-4.84,4.32,10.33,10.33,0,0,0-1.88,6v22.4a2.38,2.38,0,0,1-.68,1.68,2.41,2.41,0,0,1-3.44,0,2.38,2.38,0,0,1-.68-1.68V401.29a16.87,16.87,0,0,0-1-5.88,9,9,0,0,0-3.12-4.2,9.59,9.59,0,0,0-5.84-1.6,12.67,12.67,0,0,0-6.2,1.6,13.6,13.6,0,0,0-4.72,4.2,10.07,10.07,0,0,0-1.8,5.88v22.64a2.46,2.46,0,0,1-2.4,2.4,2.35,2.35,0,0,1-1.8-.72,2.38,2.38,0,0,1-.68-1.68V388.09a2.3,2.3,0,0,1,.72-1.68,2.4,2.4,0,0,1,1.76-.72,2.26,2.26,0,0,1,1.72.72,2.38,2.38,0,0,1,.68,1.68v7.44l-2.16,3a12.52,12.52,0,0,1,1.56-4.8,16.22,16.22,0,0,1,3.48-4.32,17.54,17.54,0,0,1,4.92-3.08A14.87,14.87,0,0,1,979,385.13Z"/><path class="cls-2" d="M1057.65,379.37a3.63,3.63,0,0,1-2.52-.76,2.82,2.82,0,0,1-.84-2.2v-.8a2.7,2.7,0,0,1,.92-2.2,3.81,3.81,0,0,1,2.52-.76,3.38,3.38,0,0,1,2.36.76,2.82,2.82,0,0,1,.84,2.2v.8a2.82,2.82,0,0,1-.84,2.2A3.5,3.5,0,0,1,1057.65,379.37Zm2.4,44.56a2.46,2.46,0,0,1-2.4,2.4,2.23,2.23,0,0,1-1.76-.72,2.43,2.43,0,0,1-.64-1.68v-36.8a2.38,2.38,0,0,1,.68-1.68,2.41,2.41,0,0,1,3.44,0,2.38,2.38,0,0,1,.68,1.68Z"/><path class="cls-2" d="M1091.81,384.49a15,15,0,0,1,8.44,2.12,11.84,11.84,0,0,1,4.56,5.76,22.32,22.32,0,0,1,1.4,8v23.52a2.46,2.46,0,0,1-2.4,2.4,2.35,2.35,0,0,1-1.8-.72,2.38,2.38,0,0,1-.68-1.68V400.65a15.89,15.89,0,0,0-1-5.84,8.81,8.81,0,0,0-3.36-4.2,10.88,10.88,0,0,0-6.16-1.56,14.24,14.24,0,0,0-6.52,1.56,13.77,13.77,0,0,0-5,4.2,9.71,9.71,0,0,0-1.92,5.84v23.28a2.46,2.46,0,0,1-2.4,2.4,2.35,2.35,0,0,1-1.8-.72,2.38,2.38,0,0,1-.68-1.68V388.09a2.3,2.3,0,0,1,.72-1.68,2.4,2.4,0,0,1,1.76-.72,2.26,2.26,0,0,1,1.72.72,2.38,2.38,0,0,1,.68,1.68v6.72l-1.84,2.88a10.36,10.36,0,0,1,1.64-4.92,17.25,17.25,0,0,1,3.8-4.24,18.87,18.87,0,0,1,5.16-3A16,16,0,0,1,1091.81,384.49Z"/><path class="cls-2" d="M1159.89,384.49a15,15,0,0,1,8.44,2.12,12,12,0,0,1,4.56,5.76,22.32,22.32,0,0,1,1.4,8v23.52a2.46,2.46,0,0,1-2.4,2.4,2.39,2.39,0,0,1-2.48-2.4V400.65a15.89,15.89,0,0,0-1-5.84,8.93,8.93,0,0,0-3.36-4.2,10.88,10.88,0,0,0-6.16-1.56,14.21,14.21,0,0,0-6.52,1.56,13.69,13.69,0,0,0-5,4.2,9.71,9.71,0,0,0-1.92,5.84v23.28a2.46,2.46,0,0,1-2.4,2.4,2.39,2.39,0,0,1-2.48-2.4V388.09a2.3,2.3,0,0,1,.72-1.68,2.38,2.38,0,0,1,1.76-.72,2.28,2.28,0,0,1,1.72.72,2.38,2.38,0,0,1,.68,1.68v6.72l-1.84,2.88a10.25,10.25,0,0,1,1.64-4.92,17,17,0,0,1,3.8-4.24,18.58,18.58,0,0,1,5.16-3A16,16,0,0,1,1159.89,384.49Z"/><path class="cls-2" d="M1205,427.13a21.85,21.85,0,0,1-10.92-2.64,18.84,18.84,0,0,1-7.32-7.36,22.26,22.26,0,0,1-2.64-11,23.43,23.43,0,0,1,2.68-11.6,19.5,19.5,0,0,1,7-7.4,17.23,17.23,0,0,1,9.08-2.6,19.38,19.38,0,0,1,6.84,1.24,17.18,17.18,0,0,1,5.88,3.68,19.12,19.12,0,0,1,4.16,6,20.67,20.67,0,0,1,1.68,8.16,2.17,2.17,0,0,1-.72,1.64,2.38,2.38,0,0,1-1.68.68h-32.08l-1-4.32h31.44l-1,1v-1.6a11.56,11.56,0,0,0-2.4-6.36,14.3,14.3,0,0,0-5-4,14.05,14.05,0,0,0-6.12-1.4,13.77,13.77,0,0,0-4.92,1,12.92,12.92,0,0,0-4.56,3,15.35,15.35,0,0,0-3.32,5.2,19.75,19.75,0,0,0-1.28,7.48,18.86,18.86,0,0,0,1.92,8.56,14.81,14.81,0,0,0,5.52,6.08,16.2,16.2,0,0,0,8.72,2.24,14.79,14.79,0,0,0,5-.8,14.42,14.42,0,0,0,4-2.12,15.91,15.91,0,0,0,2.84-2.76,2.48,2.48,0,0,1,1.68-.72,2,2,0,0,1,1.48.64,2.06,2.06,0,0,1,.6,1.44,2.21,2.21,0,0,1-.8,1.68,21.5,21.5,0,0,1-6.24,5A17.13,17.13,0,0,1,1205,427.13Z"/><path class="cls-2" d="M1279.81,384.57a2.59,2.59,0,0,1,1.72.64,2.2,2.2,0,0,1,.76,1.76,2.51,2.51,0,0,1-.08.56c-.06.21-.11.4-.16.56l-12.32,36.72a2.68,2.68,0,0,1-1,1.16,2.29,2.29,0,0,1-1.48.36,2.59,2.59,0,0,1-2.16-1.52l-11.2-26.56,1.44.32-10,26.24a2.36,2.36,0,0,1-2.16,1.52,2.28,2.28,0,0,1-1.44-.36,2.12,2.12,0,0,1-1-1.16l-12.72-36.72a4.56,4.56,0,0,1-.16-1.12,2.39,2.39,0,0,1,2.48-2.4,2.3,2.3,0,0,1,1.32.4,2.13,2.13,0,0,1,.84,1.2l11.36,34.08-1.52-.08,10.32-26a2.44,2.44,0,0,1,3.6-1.12,2.77,2.77,0,0,1,.88,1.12l11,26.08-1.84.08,11.28-34.16A2.18,2.18,0,0,1,1279.81,384.57Z"/><path class="cls-2" d="M1310.69,385.61h18.64a2.12,2.12,0,0,1,1.6.68,2.33,2.33,0,0,1,.64,1.64,2.2,2.2,0,0,1-.64,1.6,2.16,2.16,0,0,1-1.6.64h-18.64a2.24,2.24,0,0,1-1.64-.68,2.2,2.2,0,0,1-.68-1.64,2.09,2.09,0,0,1,.68-1.6A2.29,2.29,0,0,1,1310.69,385.61Zm8.24-11.28a2.28,2.28,0,0,1,1.72.72,2.38,2.38,0,0,1,.68,1.68v40.16a7.36,7.36,0,0,0,.6,3.36,3,3,0,0,0,1.56,1.48,5.44,5.44,0,0,0,1.92.36,3.32,3.32,0,0,0,1.16-.2,3.24,3.24,0,0,1,1.16-.2,1.65,1.65,0,0,1,1.24.56,2.05,2.05,0,0,1,.52,1.44,2.2,2.2,0,0,1-1.28,1.88,5.84,5.84,0,0,1-3,.76q-.72,0-2.16-.12a8,8,0,0,1-3-.88,6.06,6.06,0,0,1-2.56-2.68,11.72,11.72,0,0,1-1-5.52v-40.4a2.3,2.3,0,0,1,.72-1.68A2.38,2.38,0,0,1,1318.93,374.33Z"/><path class="cls-2" d="M1373.65,385.45a2.28,2.28,0,0,1,1.72.72,2.49,2.49,0,0,1,.68,1.76v36a2.46,2.46,0,0,1-2.4,2.4,2.39,2.39,0,0,1-2.48-2.4v-9.52l1.44-.56a9.79,9.79,0,0,1-1.24,4.52,15.85,15.85,0,0,1-3.4,4.32,18,18,0,0,1-5.08,3.2,16.07,16.07,0,0,1-6.36,1.24,17.17,17.17,0,0,1-9.64-2.8,19.19,19.19,0,0,1-6.72-7.68,24.12,24.12,0,0,1-2.44-11,23.38,23.38,0,0,1,2.48-11,19.19,19.19,0,0,1,6.72-7.48,18,18,0,0,1,16-1.52,16.78,16.78,0,0,1,5.24,3.28,15.22,15.22,0,0,1,3.48,4.76,13.21,13.21,0,0,1,1.24,5.56l-1.68-1.2V387.93a2.45,2.45,0,0,1,.68-1.76A2.35,2.35,0,0,1,1373.65,385.45ZM1357,422.65a13.18,13.18,0,0,0,7.52-2.2,15.12,15.12,0,0,0,5.16-6.08,19.7,19.7,0,0,0,1.88-8.68,18.81,18.81,0,0,0-1.88-8.44,15.29,15.29,0,0,0-5.16-6,13.18,13.18,0,0,0-7.52-2.2,13.61,13.61,0,0,0-7.48,2.12,14.38,14.38,0,0,0-5.2,5.88,19,19,0,0,0-1.88,8.64,20,20,0,0,0,1.84,8.68,14.53,14.53,0,0,0,5.16,6.08A13.33,13.33,0,0,0,1357,422.65Z"/><path class="cls-2" d="M1408,384.49a17.36,17.36,0,0,1,9.64,2.72,19.33,19.33,0,0,1,6.68,7.48,23.38,23.38,0,0,1,2.48,11,23.76,23.76,0,0,1-2.48,11,19.65,19.65,0,0,1-6.72,7.68,16.85,16.85,0,0,1-9.52,2.8,16,16,0,0,1-5.32-.88,18.34,18.34,0,0,1-4.6-2.36,18.6,18.6,0,0,1-6.24-7.72l1.44-1.12v9a2.45,2.45,0,0,1-.68,1.76,2.25,2.25,0,0,1-1.72.72,2.46,2.46,0,0,1-2.48-2.48V369.61a2.39,2.39,0,0,1,2.48-2.4,2.25,2.25,0,0,1,1.72.72,2.34,2.34,0,0,1,.68,1.68v26.8l-1.12-.64a15.12,15.12,0,0,1,2.36-4.52,17.8,17.8,0,0,1,3.64-3.56,17,17,0,0,1,4.56-2.36A16.14,16.14,0,0,1,1408,384.49Zm-.4,4.56a13.72,13.72,0,0,0-7.6,2.12,14.66,14.66,0,0,0-5.16,5.88,19.13,19.13,0,0,0-1.88,8.64,19.7,19.7,0,0,0,1.88,8.68,15.12,15.12,0,0,0,5.16,6.08,13.3,13.3,0,0,0,7.6,2.2,12.85,12.85,0,0,0,7.48-2.24,15.37,15.37,0,0,0,5.12-6.12,19.37,19.37,0,0,0,1.88-8.6,19,19,0,0,0-1.88-8.64,14.64,14.64,0,0,0-5.12-5.88A13.37,13.37,0,0,0,1407.64,389.05Z"/></svg>