<svg xmlns="http://www.w3.org/2000/svg" viewBox="0 0 150 129.2"><defs><style>.cls-1{fill:#e93558;}.cls-2{opacity:0.15;}</style></defs><g id="Layer_2" data-name="Layer 2"><g id="Layer_1-2" data-name="Layer 1"><path class="cls-1" d="M150,39.25A39.24,39.24,0,0,0,75,23.07,39.24,39.24,0,0,0,0,39.25a38.81,38.81,0,0,0,2.23,13A39.26,39.26,0,0,0,9.51,64.83a40,40,0,0,0,4.38,4.35l59.87,59.47a1.87,1.87,0,0,0,1.33.55,1.9,1.9,0,0,0,1.35-.55L138.53,67h0A39,39,0,0,0,150,39.25Z"/><g class="cls-2"><path d="M14.63,34.37a.59.59,0,0,0,.64-.65,2.18,2.18,0,0,0-.35-.68.93.93,0,0,0-.91.74A.58.58,0,0,0,14.63,34.37Z"/><path d="M143,45a3.25,3.25,0,0,0-1.81-1.17.51.51,0,0,0-.74.37.49.49,0,0,0,.38.66A3.36,3.36,0,0,0,143,45Z"/><path d="M17.1,34c.32.1.51-.17.52-.5s-.32-.75-.64-.66-.34.27-.63.51C16.67,33.66,16.85,34,17.1,34Z"/><path d="M16.27,29.67A.73.73,0,0,0,17,29a.69.69,0,1,0-1.38-.1A.72.72,0,0,0,16.27,29.67Z"/><path d="M16.86,31.89a.74.74,0,0,0,.69-.77.89.89,0,0,0-.83-.9.79.79,0,0,0-.82.77A1,1,0,0,0,16.86,31.89Z"/><path d="M15.58,16.93a.72.72,0,0,0,.72.74.75.75,0,0,0,.66-.8.72.72,0,0,0-.72-.64A.71.71,0,0,0,15.58,16.93Z"/><path d="M16.56,12.55A.76.76,0,0,0,17,13c.31.09.62-.31.59-.84-.1-.07-.26-.28-.46-.32A.57.57,0,0,0,16.56,12.55Z"/><path d="M15.91,14.89a.77.77,0,0,0,.79.78.88.88,0,0,0,.85-.87.73.73,0,0,0-.77-.79A1,1,0,0,0,15.91,14.89Z"/><path d="M15.08,9.39c-.35,0-.62.37-.61.83s.18.57.53.54.59-.34.62-.72A.55.55,0,0,0,15.08,9.39Z"/><path d="M14.11,32.25a.72.72,0,0,0,.75-.69.76.76,0,0,0-.71-.84.81.81,0,0,0-.7.77A.68.68,0,0,0,14.11,32.25Z"/><path d="M143.61,60.59s0,0,0,.06c.27-.41.53-.83.78-1.25A1.31,1.31,0,0,0,143.61,60.59Z"/><path d="M141.5,63.43a1,1,0,0,0,0,.17c.31-.4.62-.81.92-1.22A1,1,0,0,0,141.5,63.43Z"/><path d="M142.49,46.93a10.09,10.09,0,0,1,3.14-.42,1.53,1.53,0,0,0,.47-.07.43.43,0,0,0,.21-.75,5.39,5.39,0,0,0-.43-.39c-.71-.69-1.42-1.38-2.14-2.06a5.79,5.79,0,0,0-.63-.46c-.4,1.44.8,1.93,1.37,2.75-2.26.35-2.43.45-2.55,1.41A2.08,2.08,0,0,0,142.49,46.93Z"/><path d="M121.78,80.86s0-.12-.09-.32c-.3.24-.68.4-.78.66a3.61,3.61,0,0,0-.34,1.66,11.53,11.53,0,0,0,.3,1.64l.75-.74A6.66,6.66,0,0,1,121.78,80.86Z"/><path d="M13.64,27.93a.86.86,0,0,0,.8-.82.93.93,0,0,0-.83-1c-.39,0-.7.45-.71,1A.74.74,0,0,0,13.64,27.93Z"/><path d="M13.75,30a.79.79,0,0,0,.77-.81.8.8,0,0,0-.75-.84.77.77,0,0,0-.77.7A.86.86,0,0,0,13.75,30Z"/><path d="M117.09,80.84a4,4,0,0,0-.87-2.12.5.5,0,0,0-.75-.16.51.51,0,0,0-.12.82A4.27,4.27,0,0,0,117.09,80.84Z"/><path d="M115.86,85.35a6,6,0,0,1,3.16,1l.66-.65-.39-.23a11,11,0,0,0-2.11-.93,1.31,1.31,0,0,0-1.65.69.18.18,0,0,0,0,.07A1,1,0,0,0,115.86,85.35Z"/><path d="M15.08,36.51a.55.55,0,0,0,.54-.65c0-.39-.2-.7-.62-.73s-.52.2-.53.54S14.73,36.51,15.08,36.51Z"/><path d="M73.79,34.43a15,15,0,0,0,.3-4.51,6.53,6.53,0,0,0-.29-1.31c-.21-.62-.56-.72-1.11-.37a3,3,0,0,0-.52.43,12.85,12.85,0,0,0-2.67,3.85,3.08,3.08,0,0,0-.08.47,8,8,0,0,0,3-2.07A7.62,7.62,0,0,0,73.79,34.43Z"/><path d="M6.15,43.44c-.33.35-.63.73-1,1.06s-.86.67-1.26,1a.71.71,0,0,0-.25.56c0,.16.3.34.48.37,1.27.18,2.54.33,3.81.48.06,0,.12,0,.33-.12-.49-1.3-1.74-1-2.66-1.34,1.6-1.82,1.6-1.82,1.2-2.73Z"/><path d="M69.26,20A3.31,3.31,0,0,0,70,20c.6,0,.82-.31.69-.88a3.78,3.78,0,0,0-.34-.9,13.4,13.4,0,0,0-2.7-3.48,2.57,2.57,0,0,0-.44-.27,8.6,8.6,0,0,0,1,3.47c-.65,0-1.22-.1-1.79-.1a3.21,3.21,0,0,0-1.85.35A14.11,14.11,0,0,0,69.26,20Z"/><path d="M3.05,42.56A6.63,6.63,0,0,1,.87,45.45l-.33.27q.07.48.18,1c.6-.49,1.23-1,1.8-1.5A5,5,0,0,0,3.45,44a1.51,1.51,0,0,0-.13-1.85A2.92,2.92,0,0,0,3.05,42.56Z"/><path d="M147.59,48.41l1.34-.09.21-.89a18.16,18.16,0,0,0-1.86.1,8.26,8.26,0,0,0-2,.52,1.43,1.43,0,0,0-.92,1.58,4.23,4.23,0,0,0,.48-.24A5.52,5.52,0,0,1,147.59,48.41Z"/><path d="M146.88,42.29s-.1,0-.2-.1a1.26,1.26,0,0,0-.22,1.41A4.88,4.88,0,0,0,147.4,45c.59.58,1.25,1.09,1.9,1.62.06-.32.11-.64.17-1A7.31,7.31,0,0,1,146.88,42.29Z"/><path d="M76.44,34.27a7.31,7.31,0,0,0,1.15-3.33c1,.78,1.77,1.7,3.18,2a15.21,15.21,0,0,0-2.47-3.86,5.22,5.22,0,0,0-.93-.83c-.53-.37-.88-.24-1.12.36a2.73,2.73,0,0,0-.15.56,12.34,12.34,0,0,0,.12,4.88C76.23,34.12,76.34,34.17,76.44,34.27Z"/><path d="M5.69,49.55a1.44,1.44,0,0,0-1.16-1.64,15.58,15.58,0,0,0-2.65-.43,8.3,8.3,0,0,0-1,0c.06.28.13.57.2.85a7.61,7.61,0,0,1,4.37,1.21A1,1,0,0,0,5.69,49.55Z"/><path d="M81.83,18a8.2,8.2,0,0,0,1-3.44,1.83,1.83,0,0,0-.47.24,13,13,0,0,0-2.78,3.68c-.18.39-.5.81-.21,1.26s.87.35,1.33.29a12.76,12.76,0,0,0,4.43-1.57c.09-.05.14-.17.25-.31A8.88,8.88,0,0,0,81.83,18Z"/><path d="M77.8,22.9a2.69,2.69,0,0,0-1.5-2.42c-.46.84-.9,1.71-1.3,2.59-.4-.87-.83-1.73-1.29-2.57A2.8,2.8,0,0,0,75,25.75,2.78,2.78,0,0,0,77.8,22.9Z"/><path d="M34.62,78.58a.46.46,0,0,0-.69,0A3.28,3.28,0,0,0,33,80.74a3.24,3.24,0,0,0,1.74-1.5A.45.45,0,0,0,34.62,78.58Z"/><path d="M29.24,84.43q.11-.44.18-.87a5.8,5.8,0,0,0-.08-2c-.09-.5-.47-.85-1.2-1a6,6,0,0,1,.34,3.09Z"/><path d="M31.6,79c-.32,1.54-.62,2.91-.87,4.29-.07.4.24.58.63.44a5.05,5.05,0,0,0,.51-.28c.88-.46,1.76-.92,2.63-1.39.2-.11.37-.24.56-.37-.65-.63-.65-.63-3,.35C32.12,81,32.75,80,31.6,79Z"/><path d="M5.58,59.38c.28.46.56.92.86,1.37a.53.53,0,0,0,0-.12A1.34,1.34,0,0,0,5.58,59.38Z"/><path d="M9.31,44.87a.49.49,0,0,0,.31-.7.5.5,0,0,0-.7-.32A3.82,3.82,0,0,0,7,45.06,3.86,3.86,0,0,0,9.31,44.87Z"/><path d="M115.43,82c1,.52,1.91,1,2.88,1.53.24.12.58.27.78.19.38-.15.21-.55.16-.86,0-.12-.08-.24-.1-.37-.15-.88-.29-1.77-.45-2.65,0-.23-.11-.46-.2-.83-1.25.93-.54,2.06-.54,3.08-1-.37-1.81-1.34-3.08-.45C115.17,81.8,115.29,81.9,115.43,82Z"/><path d="M7.56,62.36c.32.43.64.86,1,1.29a.9.9,0,0,1,0-.16A1,1,0,0,0,7.56,62.36Z"/><path d="M31.11,86.29a6.11,6.11,0,0,1,3.19-1,1.57,1.57,0,0,0,.38-.15,1.69,1.69,0,0,0-2-.62,18.87,18.87,0,0,0-2.21,1.09Z"/><path d="M134.49,28.86a.7.7,0,1,0-1.39.18.7.7,0,1,0,1.39-.18Z"/><path d="M136.25,15.86a.81.81,0,0,0-.72.87.8.8,0,0,0,.81.77.76.76,0,0,0,.71-.85A.8.8,0,0,0,136.25,15.86Z"/><path d="M134.84,9.38c-.1.13-.34.31-.4.54a.71.71,0,0,0,.59.84c.36,0,.52-.18.54-.51A.74.74,0,0,0,134.84,9.38Z"/><path d="M15.94,22.53c.35,0,.64-.32.64-.8S16.36,21,16,21a.71.71,0,0,0-.69.67A.88.88,0,0,0,15.94,22.53Z"/><path d="M16,18.58a.65.65,0,0,0-.63.7c0,.37.21.59.55.6a.67.67,0,0,0,.69-.69A.58.58,0,0,0,16,18.58Z"/><path d="M136.51,18a.82.82,0,0,0-.86.73.93.93,0,0,0,.71,1.09c.41,0,.72-.32.79-.91A.75.75,0,0,0,136.51,18Z"/><path d="M14.63,11.52a.59.59,0,0,0-.62.59c0,.31.43.81.74.72s.42-.35.54-.46C15.28,11.8,15,11.51,14.63,11.52Z"/><path d="M137.06,29.09a.78.78,0,0,0-.78-.7.83.83,0,0,0-.75.85.81.81,0,0,0,.78.8A.86.86,0,0,0,137.06,29.09Z"/><path d="M136.41,26.11a.92.92,0,0,0-.78.95.85.85,0,0,0,.84.87.74.74,0,0,0,.7-.77C137.18,26.58,136.82,26.1,136.41,26.11Z"/><path d="M137.55,24.77a1.05,1.05,0,0,0-.86-.9.78.78,0,0,0-.74.74.86.86,0,0,0,.78.92A.79.79,0,0,0,137.55,24.77Z"/><path d="M136.64,31.5a.85.85,0,0,0-.81-.78.81.81,0,0,0-.64.83.73.73,0,1,0,1.45-.05Z"/><path d="M67.27,31.35a2.45,2.45,0,0,0,.45-.26,13.4,13.4,0,0,0,2.73-3.58c.2-.43.51-.9.2-1.36s-.89-.31-1.34-.25a12.66,12.66,0,0,0-4.41,1.57c-.09.05-.13.17-.23.31a10.29,10.29,0,0,0,3.54.16A7.27,7.27,0,0,0,67.27,31.35Z"/><path d="M15.93,24.89a.62.62,0,0,0,.66-.67c0-.47-.25-.85-.6-.85a.83.83,0,0,0-.7.8A.72.72,0,0,0,15.93,24.89Z"/><path d="M85.32,27.88l0-.31a13.93,13.93,0,0,0-3.8-1.52A6.45,6.45,0,0,0,80,25.87c-.65,0-.86.33-.7.94a4.32,4.32,0,0,0,.24.63,13.17,13.17,0,0,0,2.79,3.67,2.13,2.13,0,0,0,.47.26,8,8,0,0,0-1-3.44c.67,0,1.23.08,1.79.07S84.76,27.92,85.32,27.88Z"/><path d="M61.84,114.92a3.1,3.1,0,0,0-1.28-1.55l1.19,3.35,1.16,1.15A22.63,22.63,0,0,0,61.84,114.92Z"/><path d="M63.89,25.16a10.54,10.54,0,0,0,3.94-.84,6.66,6.66,0,0,0,1.43-.79c.51-.36.49-.77,0-1.17A3,3,0,0,0,68.7,22a13.1,13.1,0,0,0-4.49-1.34,1.73,1.73,0,0,0-.46.07A8.23,8.23,0,0,0,66.69,23,6.78,6.78,0,0,0,63.89,25.16Z"/><path d="M87.82,74.1a.72.72,0,0,0,.7-.66.66.66,0,0,0-.65-.68.75.75,0,0,0-.75.71A.65.65,0,0,0,87.82,74.1Z"/><path d="M135.9,13.64a.76.76,0,0,0-.71.75.78.78,0,0,0,.68.79.85.85,0,0,0,.77-.83A.73.73,0,0,0,135.9,13.64Z"/><path d="M86.44,20.7a4.24,4.24,0,0,0-.79,0c-1.27.35-2.53.69-3.78,1.08a3.68,3.68,0,0,0-1.08.63c-.51.39-.49.75,0,1.17a3.62,3.62,0,0,0,.32.22A11.73,11.73,0,0,0,86,25.24s.09-.06.18-.13a8.75,8.75,0,0,0-2.74-2.18c.57-.35,1.08-.62,1.54-1S85.86,21.22,86.44,20.7Z"/><path d="M136.77,20.37a.85.85,0,0,0-.82.79.81.81,0,0,0,.7.87,1,1,0,0,0,.89-.86A.76.76,0,0,0,136.77,20.37Z"/><path d="M13.35,25.52a.82.82,0,0,0,.74-.93.73.73,0,0,0-.74-.72,1,1,0,0,0-.83.92A.76.76,0,0,0,13.35,25.52Z"/><path d="M134.08,23.37c-.34,0-.62.38-.61.84a.62.62,0,0,0,.65.68.67.67,0,0,0,.63-.71A.8.8,0,0,0,134.08,23.37Z"/><path d="M134.07,27.33c.34,0,.64-.33.65-.87a1.81,1.81,0,0,0-.58-.42c-.33-.1-.67.26-.7.61A.66.66,0,0,0,134.07,27.33Z"/><path d="M13.45,14.44a.79.79,0,0,0,.76.73.74.74,0,0,0,.64-.82.7.7,0,0,0-.76-.7A.68.68,0,0,0,13.45,14.44Z"/><path d="M133.47,21.67c0,.45.26.86.6.86a.8.8,0,0,0,.68-.8.66.66,0,0,0-.62-.72A.62.62,0,0,0,133.47,21.67Z"/><path d="M134.76,12.16a.62.62,0,0,0,.52.69.94.94,0,0,0,.79-.89,2,2,0,0,0-.62-.42C135.11,11.44,134.78,11.79,134.76,12.16Z"/><path d="M134.07,18.57a.66.66,0,0,0-.63.68c0,.35.37.7.7.61s.44-.32.58-.42C134.71,18.9,134.41,18.57,134.07,18.57Z"/><path d="M133.81,16.23a.73.73,0,0,0-.72.75.78.78,0,0,0,.69.69.76.76,0,0,0,.72-.75A.73.73,0,0,0,133.81,16.23Z"/><path d="M12.52,21.14a1,1,0,0,0,.86.89.76.76,0,0,0,.71-.85.81.81,0,0,0-.87-.81A.77.77,0,0,0,12.52,21.14Z"/><path d="M13,16.8a.76.76,0,0,0,.76.7.82.82,0,0,0,0-1.64A.85.85,0,0,0,13,16.8Z"/><path d="M134.94,36.5c.37,0,.63-.3.63-1-.1-.08-.27-.33-.48-.38s-.69.36-.67.77A.54.54,0,0,0,134.94,36.5Z"/><path d="M134.15,31.06a.77.77,0,0,0-.75-.83.87.87,0,0,0-.89.83.75.75,0,0,0,.73.83A1,1,0,0,0,134.15,31.06Z"/><path d="M135.28,33.05a.61.61,0,0,0-.52.68c0,.38.34.72.69.63a2,2,0,0,0,.62-.42A.94.94,0,0,0,135.28,33.05Z"/><path d="M133.24,14a.76.76,0,0,0-.73.74.88.88,0,0,0,.88.93.78.78,0,0,0,.76-.73A1,1,0,0,0,133.24,14Z"/><path d="M132.92,34c.26-.05.47-.33.83-.61-.32-.26-.51-.52-.72-.54-.37,0-.56.26-.6.61S132.61,34.09,132.92,34Z"/><path d="M13.69,19.79a1,1,0,0,0,.75-1,.87.87,0,0,0-.78-.84.74.74,0,0,0-.76.8C12.9,19.37,13.25,19.82,13.69,19.79Z"/><path d="M132.94,11.85c-.34,0-.57.24-.49.56a3.38,3.38,0,0,0,.56.86c.25-.32.45-.48.51-.68A.65.65,0,0,0,132.94,11.85Z"/><path d="M16.05,27.31c.25-.1.43-.37.56-.48,0-.55-.35-.85-.71-.81a.56.56,0,0,0-.54.66C15.37,27.05,15.74,27.42,16.05,27.31Z"/><path d="M94.21,73.94a.75.75,0,1,0-1.49,0,.76.76,0,0,0,.7.76A.81.81,0,0,0,94.21,73.94Z"/><path d="M100,78.5a.84.84,0,0,0-.91.77.74.74,0,0,0,.66.79.93.93,0,0,0,.94-.78A.77.77,0,0,0,100,78.5Z"/><path d="M102,77.49a.77.77,0,0,0-.77.79.78.78,0,0,0,1.54-.11A.73.73,0,0,0,102,77.49Z"/><path d="M103.74,76.4a1.79,1.79,0,0,0-.48.58c-.11.27.41.71.76.69a.57.57,0,0,0,.57-.63C104.6,76.68,104.27,76.38,103.74,76.4Z"/><path d="M91.64,70.63a.83.83,0,0,0,.83-.76.79.79,0,0,0-.78-.8.82.82,0,0,0-.93.74A.86.86,0,0,0,91.64,70.63Z"/><path d="M97.9,79.26a1,1,0,0,0-.9.94c0,.4.3.6.82.59s.93-.27,1-.72A.8.8,0,0,0,97.9,79.26Z"/><path d="M95.18,78.58c-.14-.12-.33-.39-.58-.47a.91.91,0,0,0-.95.66.67.67,0,0,0,.7.64A.79.79,0,0,0,95.18,78.58Z"/><path d="M95.77,80.32a.86.86,0,0,0-.86.75c0,.38.47.8.92.81a.79.79,0,0,0,.78-.71A.82.82,0,0,0,95.77,80.32Z"/><path d="M97.46,77.8c-.13-.11-.32-.38-.57-.46s-.68.24-.72.61a.58.58,0,0,0,.55.65C97.09,78.63,97.42,78.34,97.46,77.8Z"/><path d="M99.59,77.05a.68.68,0,0,0-.68-.76.71.71,0,0,0-.72.73.7.7,0,0,0,.69.66A.69.69,0,0,0,99.59,77.05Z"/><path d="M99.93,75.87a.79.79,0,0,0,.73.85.93.93,0,0,0,.91-.92.76.76,0,0,0-.72-.76A1,1,0,0,0,99.93,75.87Z"/><path d="M90,74.29a.75.75,0,1,0,.18,1.49.72.72,0,0,0,.67-.78A.79.79,0,0,0,90,74.29Z"/><path d="M90,71.94a.86.86,0,0,0-.82.78.71.71,0,0,0,.74.7.72.72,0,0,0,.73-.71A.7.7,0,0,0,90,71.94Z"/><path d="M100.07,74c.34.09.77-.27.7-.59a1.3,1.3,0,0,0-.32-.49c-.5,0-.9.36-.82.67A.69.69,0,0,0,100.07,74Z"/><path d="M89.9,69.54a.64.64,0,0,0,.69-.68,2,2,0,0,0-.56-.41c-.31-.1-.61.23-.59.58A.46.46,0,0,0,89.9,69.54Z"/><path d="M88.08,74.94a.64.64,0,0,0-.65.66c0,.35.36.64.89.61a1.9,1.9,0,0,0,.4-.61C88.8,75.25,88.46,75,88.08,74.94Z"/><path d="M105.17,76.2a.72.72,0,0,0,.5.43.85.85,0,0,0,.81-.91,1.83,1.83,0,0,0-.59-.31C105.48,75.37,105.05,75.85,105.17,76.2Z"/><path d="M89.1,71.45a.93.93,0,0,0,.9-.92.75.75,0,0,0-.75-.71,1,1,0,0,0-.91.92A.76.76,0,0,0,89.1,71.45Z"/><path d="M103.5,74.58a1.3,1.3,0,0,0-.49-.32c-.32-.07-.74.34-.66.64a.78.78,0,0,0,.48.46C103.16,75.44,103.52,75.06,103.5,74.58Z"/><path d="M86.19,80.94a.86.86,0,0,0-.88-.84.82.82,0,0,0-.84.75.94.94,0,0,0,.89.85A.78.78,0,0,0,86.19,80.94Z"/><path d="M83.51,83.06a.68.68,0,0,0-.73.7.62.62,0,0,0,.62.61c.34,0,.67-.38.67-.79A.51.51,0,0,0,83.51,83.06Z"/><path d="M84.33,78.12a.49.49,0,0,0-.56.51.48.48,0,0,0,.55.51,4.45,4.45,0,0,0,1-.5A4.1,4.1,0,0,0,84.33,78.12Z"/><path d="M85.8,82.76a.82.82,0,0,0-.85.74.72.72,0,0,0,.72.73.84.84,0,0,0,.79-.8A.68.68,0,0,0,85.8,82.76Z"/><path d="M85.55,78.45a.78.78,0,0,0,1.56,0,.89.89,0,0,0-.88-.72A.69.69,0,0,0,85.55,78.45Z"/><path d="M88.18,80.61a.68.68,0,0,0-.72-.61.69.69,0,0,0-.67.76.67.67,0,0,0,.72.62A.7.7,0,0,0,88.18,80.61Z"/><path d="M83.84,81.32a3.85,3.85,0,0,0-.93-.52.46.46,0,0,0-.56.49.52.52,0,0,0,.64.53C83.22,81.79,83.42,81.57,83.84,81.32Z"/><path d="M86,76.69c.25,0,.46-.3.6-.4,0-.54-.23-.77-.59-.77a.6.6,0,0,0-.66.64C85.38,76.52,85.63,76.77,86,76.69Z"/><path d="M81.38,83.42c-.42,0-.77.22-.76.56s.29.53.65.53.8-.22.77-.53A.61.61,0,0,0,81.38,83.42Z"/><path d="M92.9,79.45a.57.57,0,0,0-.61-.59c-.49,0-.91.29-.89.68a.62.62,0,0,0,.61.63A.87.87,0,0,0,92.9,79.45Z"/><path d="M92.53,76.07a.81.81,0,0,0-.82.77.7.7,0,0,0,.8.65.83.83,0,0,0,.82-.78A.68.68,0,0,0,92.53,76.07Z"/><path d="M91.83,75.1c.25-.09.44-.35.78-.65-.36-.27-.56-.52-.82-.59s-.67.28-.65.64S91.51,75.22,91.83,75.1Z"/><path d="M92.47,81.38a.86.86,0,0,0-.85.86.77.77,0,0,0,.72.76,1,1,0,0,0,.91-1A.72.72,0,0,0,92.47,81.38Z"/><path d="M90.43,76.85a.61.61,0,0,0-.66.56.71.71,0,0,0,.69.76.72.72,0,0,0,.74-.61A.77.77,0,0,0,90.43,76.85Z"/><path d="M90.13,81.79a.89.89,0,0,0-.88.85.74.74,0,0,0,.7.77c.46,0,1.09-.54,1.07-.93A.83.83,0,0,0,90.13,81.79Z"/><path d="M88.07,82.38a.86.86,0,0,0-.89.82.72.72,0,0,0,.77.69.78.78,0,0,0,.88-.69A.8.8,0,0,0,88.07,82.38Z"/><path d="M88.33,77.3a.74.74,0,0,0-.69.76.77.77,0,0,0,.78.68A.75.75,0,0,0,89.1,78,.72.72,0,0,0,88.33,77.3Z"/><path d="M89.72,80.89a.69.69,0,0,0,.71-.62.71.71,0,0,0-.7-.64.59.59,0,0,0-.63.57A.63.63,0,0,0,89.72,80.89Z"/><path d="M75.09,122.61a.49.49,0,0,0,.42-.63c-.06-.2-.29-.34-.56-.65a2.75,2.75,0,0,0-.38.76A.44.44,0,0,0,75.09,122.61Z"/><path d="M79.66,108.87c0,.44.22.61.78.59s1.25-.43,1.25-.94a.75.75,0,0,0-.86-.7A1.23,1.23,0,0,0,79.66,108.87Z"/><path d="M82.58,119.87c1.24-3.68,2.43-7.19,3.65-10.79C84.65,110.43,82.44,117,82.58,119.87Z"/><path d="M80.51,116.42q2.07-5.42,4.15-10.81A36.91,36.91,0,0,0,80.51,116.42Z"/><path d="M82.65,105.46a.82.82,0,0,0-.83-.76.89.89,0,0,0-.89.91.67.67,0,0,0,.73.69A1,1,0,0,0,82.65,105.46Z"/><path d="M91.44,72a.77.77,0,0,0,.77.71A.73.73,0,0,0,93,72a.72.72,0,0,0-.77-.7A.7.7,0,0,0,91.44,72Z"/><path d="M88.12,115.15a24.47,24.47,0,0,0-1,2.88l1.11-1.1c.41-1.19.83-2.38,1.26-3.61A3.86,3.86,0,0,0,88.12,115.15Z"/><path d="M70.75,125.66l.38.38,1.18-1c-.08.72-.16,1.34-.22,1.93l.11.11a3.63,3.63,0,0,0,.25-2.54Z"/><path d="M84.07,120a40.62,40.62,0,0,1,2.7-7.72,8.37,8.37,0,0,0,.48-1.26,3.09,3.09,0,0,0,0-.67c-1.84,1.9-3.77,7.59-3.44,10.29C83.93,120.42,84,120.21,84.07,120Z"/><path d="M87.11,115.58c.4-.87.81-1.74,1.2-2.63a6.27,6.27,0,0,0,.26-.84l-.26-.08a21.57,21.57,0,0,0-3,7.86l.47-.47A25.51,25.51,0,0,1,87.11,115.58Z"/><path d="M77.74,125c.47.4.89.74,1.28,1l.38-.37-1.9-1.22a6.12,6.12,0,0,0,.41,2.69l.09-.09C77.92,126.43,77.83,125.76,77.74,125Z"/><path d="M68.27,104.7a.81.81,0,0,0-.84.74.9.9,0,0,0,.95.86.71.71,0,0,0,.77-.67A.92.92,0,0,0,68.27,104.7Z"/><path d="M69.5,116.26c0-1.8-2.68-8.8-4.1-10.65Z"/><path d="M69.22,107.82a.72.72,0,0,0-.83.71c0,.52.52.92,1.24.93.55,0,.75-.14.75-.6A1.19,1.19,0,0,0,69.22,107.82Z"/><path d="M70.6,114.74a1.09,1.09,0,0,0,1,1.25c.7,0,1.18-.29,1.22-.8a1.43,1.43,0,0,0-1.3-1.3A.86.86,0,0,0,70.6,114.74Z"/><path d="M63.89,109.48c1.19,3.41,2.38,6.82,3.62,10.35,0-3.21-2.06-9.27-3.65-10.76A2.22,2.22,0,0,0,63.89,109.48Z"/><path d="M80.53,111.53a.85.85,0,0,0-.83-.87,1,1,0,0,0-1.06,1c0,.57.34,1,.79,1A1.25,1.25,0,0,0,80.53,111.53Z"/><path d="M78.54,113.89a1.46,1.46,0,0,0-1.31,1.22c0,.55.41.87,1.15.88s1.08-.46,1.07-1.21A.84.84,0,0,0,78.54,113.89Z"/><path d="M64.6,107.15l4,11a29.41,29.41,0,0,0-3.83-11.06Z"/><path d="M85.22,107.15a30.06,30.06,0,0,0-3.8,11l4-10.88Z"/><path d="M61.43,112.16c.67,1.54,1.42,3.06,2,4.64.29.78.54,1.58.78,2.38l.54.53a21.27,21.27,0,0,0-3-7.69Z"/><path d="M98.46,75.28a.86.86,0,0,0,.84-.77.7.7,0,0,0-.7-.74.85.85,0,0,0-.78.82A.66.66,0,0,0,98.46,75.28Z"/><path d="M97.4,73c.35,0,.66-.3.65-.83-.15-.1-.38-.35-.63-.38a.54.54,0,0,0-.6.59A.57.57,0,0,0,97.4,73Z"/><path d="M62.77,110.47a.68.68,0,0,0,0,.28c1.18,3.15,2.62,6.21,3.33,9.53a1,1,0,0,0,.13.22c.1-3.76-1.4-7-3.21-10.1Z"/><path d="M69.91,124.83l.33.32a17,17,0,0,0,3.21-3.49v3.73a9.75,9.75,0,0,0,.11-5A14.16,14.16,0,0,1,69.91,124.83Z"/><path d="M76.47,120.32a10.43,10.43,0,0,0,.1,5.11V121.8a15,15,0,0,0,2.58,2.85c.25.21.49.4.73.58l.35-.35A14.68,14.68,0,0,1,76.47,120.32Z"/><path d="M96.62,76.06a.76.76,0,0,0,.71-.76.74.74,0,0,0-.69-.68.77.77,0,0,0-.77.72A.74.74,0,0,0,96.62,76.06Z"/><path d="M94.34,72a.76.76,0,0,0,.73-.74c0-.36-.31-.59-.74-.57a.67.67,0,0,0-.68.66A.69.69,0,0,0,94.34,72Z"/><path d="M94.75,73.22a.59.59,0,0,0,.58.63.66.66,0,1,0,.07-1.31A.7.7,0,0,0,94.75,73.22Z"/><path d="M93.93,76.27a.57.57,0,0,0,.62.58.73.73,0,0,0,.73-.73.64.64,0,0,0-.68-.65A.76.76,0,0,0,93.93,76.27Z"/><path d="M75.24,129.19a.44.44,0,0,0-.2,0l-.05,0h.25Z"/><path d="M74.94,127.17a.49.49,0,0,0,.61-.45.48.48,0,0,0-.52-.55.45.45,0,0,0-.51.46A.45.45,0,0,0,74.94,127.17Z"/><path d="M74.54,125.33c0,.22.23.42.47.82.26-.38.48-.57.53-.8a.55.55,0,0,0-.54-.63A.51.51,0,0,0,74.54,125.33Z"/><path d="M74.29,123.58c.35.27.57.6.79.6s.51-.35.48-.71-.26-.56-.57-.48S74.6,123.31,74.29,123.58Z"/><path d="M70.43,110.66a.83.83,0,0,0-.88.92,1.21,1.21,0,0,0,1.07,1.07.92.92,0,0,0,.81-1A1,1,0,0,0,70.43,110.66Z"/><path d="M75.06,118.53c-.23,0-.45.25-.85.49.37.27.56.5.79.54a.47.47,0,0,0,.59-.47A.49.49,0,0,0,75.06,118.53Z"/><path d="M75,128.66c.18,0,.35-.25.63-.48-.3-.2-.46-.39-.63-.41a.37.37,0,0,0-.41.49C74.66,128.43,74.9,128.67,75,128.66Z"/><path d="M75,120.23a.48.48,0,0,0-.56.51.5.5,0,0,0,.54.54c.22,0,.42-.27.57-.38C75.56,120.42,75.38,120.23,75,120.23Z"/><path d="M35,55.59a.64.64,0,0,0-.63.69.73.73,0,0,0,.77.68.59.59,0,0,0,.58-.63A.74.74,0,0,0,35,55.59Z"/><path d="M122.57,52.71a.66.66,0,0,0,.68.66.74.74,0,0,0,.75-.72.72.72,0,1,0-1.43.06Z"/><path d="M129.27,52.54a.8.8,0,0,0,.79-.79.73.73,0,0,0-.76-.69.85.85,0,0,0-.73.86A.64.64,0,0,0,129.27,52.54Z"/><path d="M122.27,50.38c.25-.08.43-.36.78-.67a3.58,3.58,0,0,0-.86-.55c-.33-.06-.66.37-.6.71A.55.55,0,0,0,122.27,50.38Z"/><path d="M121.07,52.31a.7.7,0,0,0,.62-.71A.65.65,0,0,0,121,51a.59.59,0,0,0-.57.64A.7.7,0,0,0,121.07,52.31Z"/><path d="M117.7,53.23a.76.76,0,0,0,.78-.68.72.72,0,0,0-.66-.78.83.83,0,0,0-.85.74A.72.72,0,0,0,117.7,53.23Z"/><path d="M119,51.39c.4,0,.75-.31.77-.87-.14-.12-.33-.4-.58-.48s-.83.33-.8.74A.61.61,0,0,0,119,51.39Z"/><path d="M124.32,51.61a.78.78,0,0,0,.06-1.55.72.72,0,0,0-.69.75A.7.7,0,0,0,124.32,51.61Z"/><path d="M128.11,49.39a4,4,0,0,0,.47-1,.44.44,0,0,0-.51-.52.53.53,0,0,0-.49.67C127.62,48.81,127.84,49,128.11,49.39Z"/><path d="M127,51.52a.8.8,0,0,0,.76-.83.78.78,0,1,0-1.56-.06A.83.83,0,0,0,127,51.52Z"/><path d="M115.93,51.93a.88.88,0,0,0,.91-.82.72.72,0,0,0-.69-.77.91.91,0,0,0-1,.88A.7.7,0,0,0,115.93,51.93Z"/><path d="M125.07,49.61c.25-.06.44-.36.77-.65-.31-.24-.48-.46-.67-.49-.39,0-.57.25-.6.6S124.74,49.7,125.07,49.61Z"/><path d="M125.41,52.62a.66.66,0,0,0,.62.71.72.72,0,0,0,.77-.68.67.67,0,0,0-.63-.7A.68.68,0,0,0,125.41,52.62Z"/><path d="M119.17,53.38a.74.74,0,0,0,.72.75.71.71,0,0,0,.76-.79.75.75,0,0,0-.76-.73A.77.77,0,0,0,119.17,53.38Z"/><path d="M91.57,99.74A1.37,1.37,0,0,0,92.88,101a1.21,1.21,0,0,0,1.2-1.15,1.49,1.49,0,0,0-1.46-1.27A1.08,1.08,0,0,0,91.57,99.74Z"/><path d="M101.45,96.84a1,1,0,0,0,1.1,1.08,1.23,1.23,0,0,0,1.26-1.19,1.06,1.06,0,0,0-1-1.11A1.43,1.43,0,0,0,101.45,96.84Z"/><path d="M98.17,97.75a1.13,1.13,0,0,0,1.13,1.18,1.17,1.17,0,0,0,1.22-1.11,1.12,1.12,0,0,0-1.13-1.18A1.17,1.17,0,0,0,98.17,97.75Z"/><path d="M94.89,98.9a1.19,1.19,0,0,0,1.2,1.14,1.29,1.29,0,0,0,1.23-1.14c0-.64-.56-1.1-1.33-1.08A1,1,0,0,0,94.89,98.9Z"/><path d="M114.22,52a.55.55,0,0,0,.54-.64c0-.21-.32-.39-.61-.71-.23.38-.46.61-.48.86A.45.45,0,0,0,114.22,52Z"/><path d="M41.92,94.41a1.29,1.29,0,0,0-1.25-1.23,1,1,0,0,0-1,.91,1.46,1.46,0,0,0,1.3,1.42A1.06,1.06,0,0,0,41.92,94.41Z"/><path d="M88.05,100.76a1.24,1.24,0,0,0,1.32,1.13.92.92,0,0,0,1.09-.94,1.21,1.21,0,0,0-2.41-.19Z"/><path d="M104.62,95.7a1.12,1.12,0,0,0,1.09,1.12,1.27,1.27,0,0,0,1.3-1.26,1.17,1.17,0,0,0-1.07-1.26A1.44,1.44,0,0,0,104.62,95.7Z"/><path d="M115.27,53.21a.79.79,0,0,0-.72-.86.91.91,0,0,0-.84.88.77.77,0,0,0,.73.83A.83.83,0,0,0,115.27,53.21Z"/><path d="M115,57a.74.74,0,0,0,.75-.7.66.66,0,0,0-.66-.67.7.7,0,0,0-.68.76A.57.57,0,0,0,115,57Z"/><path d="M115.65,89.69l1.85-1.84a8.94,8.94,0,0,0-3-.43c0-3.39,0-6.75,0-10.28l9.55,3.1c0,.13.1.2.09.25a8.58,8.58,0,0,0-.28,1.08l3.77-3.74-3.79-1.24,0-.15,5.52-.35.67-.67-6,.28c.72-.91,1.32-1.77,2.62-1.78s2.7-.17,4-.25a5.6,5.6,0,0,1,.63.06l-1.08,1.49,4.32-4.28c.2-.31.42-.61.62-.91,1-1.5,2.06-3,3.18-4.38a63.88,63.88,0,0,0,5.51-8c.09-.17.2-.32.39-.62l.9,1.17a37.55,37.55,0,0,0,1.68-3.43l-.26-.33-.7-1a14.32,14.32,0,0,1,1.66-.46c.06-.14.12-.28.17-.42.27-.74.51-1.5.73-2.26A8.51,8.51,0,0,0,144.77,52c-2-2.75-4-5.47-6.07-8.35l9.78-3.18a9.83,9.83,0,0,0,1.33,2.65c.12-1.27.19-2.56.19-3.86,0-1-.05-1.89-.11-2.82l-3.83,1.24-.08-.13,3.71-3.1c0-.23-.05-.46-.08-.69a3.94,3.94,0,0,1-.5.33,18.69,18.69,0,0,0-2.82,2.32c-.19.15-.37.32-.68.59.08-.78.12-1.41.21-2a1,1,0,0,1,.3-.48l3.17-2.67-.12-.58c-.92.57-1.8,1.22-2.7,1.84l-.53.39c0-.78.06-1.35.08-1.81l2.81-1.91c-.06-.25-.13-.5-.2-.74l-2.27,1.39c-.05,0-.12,0-.18,0a1.46,1.46,0,0,1,.85-1.87c.42-.23.84-.5,1.24-.77l-.15-.46-2,1.18V26l1.23-.81-.25-.63-1,.67c0-.43,0-.79-.06-1.22.23-.11.46-.2.69-.3l-.21-.45-.44.34c0-.49,0-.84-.06-1.37l.06,0c-.44-.91-.92-1.79-1.42-2.66l-3.23.22c-.08-1.28-.15-2.54-.23-3.76l1.21.08c-.2-.28-.41-.55-.62-.83h-.67L141,14.27a39.88,39.88,0,0,0-4.24-4.38A28.1,28.1,0,0,1,138,15.82a77.41,77.41,0,0,1,0,14.28,33.29,33.29,0,0,1-2.43,9.19A110.92,110.92,0,0,0,121.68,23c2.47-2.66,5-5.2,7.28-7.9,1.93-2.27,3.73-4.65,5.6-7.06-.9-.7-1.84-1.35-2.81-2l-.59.79c-.74-.39-.22-.82-.22-1.3-.27-.17-.56-.33-.84-.49a3.06,3.06,0,0,1,.06,1l-1.1-.21L128.77,5l.38-.42-.52-.26a3,3,0,0,1-.32.29l-.74-.31V3.79l-.68-.3a2.18,2.18,0,0,1-.35.79l-1.11-.67a1.64,1.64,0,0,0-.08-.78q-1.57-.65-3.21-1.14a4.72,4.72,0,0,1-2.07.37l.7-.76-.86-.21a3.72,3.72,0,0,1-2.77.54L118,.68l-.7-.13a7.25,7.25,0,0,1-2.6,1.31l-.48-.75.53-.91-.89-.07a4.71,4.71,0,0,1-2.4,1.75c.14-.64.28-1.25.42-1.85-.36,0-.73,0-1.1,0-.81,0-1.62,0-2.42.09a1.41,1.41,0,0,1-.63,1.32,28.94,28.94,0,0,0-5.24,4.38c-1,1-1.91,1.92-2.87,2.87a1.37,1.37,0,0,1-1.87-.19s0,0,0-.05c2.57-2.12,5.14-4.25,7.73-6.36.8-.64,1.64-1.27,2.55-2l-1.09.11a73.72,73.72,0,0,0-8.62,7.37,5.33,5.33,0,0,0-.57.81c-.82.39-1.6,0-2.45-.1A5,5,0,0,1,95.71,6h0c.25-.1.53-.18.78-.31a84.19,84.19,0,0,0,9-5.36c-.51.07-1,.15-1.54.24L99.87,3.28c-1.39.91-2.78,1.84-4.16,2.76a1.28,1.28,0,0,1-.07-.28c-.1-1.36,0-1.45,1.18-2.06,1.63-.83,3.28-1.63,4.86-2.55l.21-.13c-1,.23-2,.51-3,.81L95.88,3.49V3q-1.74.72-3.39,1.59c-.06.65-.12,1.29-.19,2a14.32,14.32,0,0,1-1.93-.75l-.63.38a14.68,14.68,0,0,0,2.45,1c-.06.33-.11.57-.15.79a6.62,6.62,0,0,1-3.83-.71,38.78,38.78,0,0,0-4.12,3.34,3,3,0,0,1,.73,1.37,12.29,12.29,0,0,0,2.29,3.77,13.18,13.18,0,0,0,2,1.83,1.46,1.46,0,0,1,.52,1.69,22.24,22.24,0,0,0-.53,3.13A12.43,12.43,0,0,0,89.42,26c.49,2.11.67,1.49-1,2.91a13.52,13.52,0,0,0-2.84,3.38,16.92,16.92,0,0,0-1.12,2.45,1.19,1.19,0,0,1-1.13.84,28.08,28.08,0,0,0-3.43.51,9.07,9.07,0,0,0-3.34,1.46,17.57,17.57,0,0,1-1.57.88c-.58-.32-1.1-.57-1.59-.89a11.38,11.38,0,0,0-5.8-1.86c-1.72-.09-1.82-.13-2.44-1.75a11.88,11.88,0,0,0-3.63-5c-1.4-1.14-1.41-1.18-.94-2.92a12.47,12.47,0,0,0,0-6.1c-.5-2.21-.75-1.46,1-3a12.37,12.37,0,0,0,3.56-5,15.54,15.54,0,0,1,.71-1.49,39.11,39.11,0,0,0-4.07-3.3,7.68,7.68,0,0,1-3.76.74l-.14-.63c.78-.42,1.55-.8,2.3-1.19-.18-.12-.37-.23-.56-.34a14.06,14.06,0,0,1-1.88.72c-.07-.64-.14-1.27-.2-1.91C56.49,4,55.38,3.48,54.24,3l0,.53c-1-.55-2-1.09-3-1.64-1-.33-2.08-.63-3.15-.88,1.62.92,3.3,1.73,4.95,2.6l.26.12c1.19.59,1.22.64,1.07,2.2C51.61,4.13,48.81,2.45,46,.61c-.47-.09-.95-.17-1.43-.23a79.42,79.42,0,0,0,9.25,5.47A1.26,1.26,0,0,1,54.66,7c0,.38.1.76.16,1.26a11.43,11.43,0,0,1-1.69.28,1.42,1.42,0,0,1-.8-.4C50,6.11,47.81,4,45.49,2A29,29,0,0,0,43.06.21L42,.1c3.69,2.68,7,5.64,10.56,8.52a8.75,8.75,0,0,0-1,.26,1,1,0,0,1-1.27-.35c-.79-.85-1.62-1.66-2.45-2.47a30.89,30.89,0,0,0-5.53-4.67,1.41,1.41,0,0,1-.61-1.3C40.91,0,40.09,0,39.25,0c-.35,0-.69,0-1,0,.14.6.28,1.19.41,1.8A4,4,0,0,1,36.24.13l-.9.07.52.88-.43.77A6.62,6.62,0,0,1,32.79.54l-.71.13c.28.31.57.63.89,1a4.14,4.14,0,0,1-2.84-.59c-.29.07-.57.13-.85.21l.72.78a4.89,4.89,0,0,1-2.08-.4c-1.08.33-2.15.71-3.19,1.13a1.56,1.56,0,0,0-.06.79l-1.19.7a1.58,1.58,0,0,1-.34-.81l-.66.29v.49c-.43.43-.73.47-1.09.06l-.54.27.43.39c-.09.3-.17.56-.27.87L20,6.11a2.26,2.26,0,0,1,0-1l-.87.5c0,.47.51.88-.17,1.33-.2-.27-.4-.54-.63-.83-1,.61-1.91,1.27-2.82,2,1.85,2.39,3.67,4.79,5.63,7.09,2.3,2.68,4.79,5.21,7.28,7.9a109.4,109.4,0,0,0-13.92,16.3c-.5-1.46-1-2.69-1.34-3.94a32.54,32.54,0,0,1-1.34-9c0-2.22,0-4.45,0-6.67a33,33,0,0,1,1.55-9.87,38.23,38.23,0,0,0-4.26,4.37l-.21,1.19H8.13c-.21.27-.42.54-.62.82l1.27-.08c0,.55-.09,1.17-.11,1.79s0,1.22,0,1.95l-3.41-.2Q4.51,21,3.85,22.3l.07-.05v1.38l-.5-.38c-.06.15-.13.3-.2.45.82.35.82.43.64,1.54l-1-.68c-.09.21-.18.43-.26.64a11.26,11.26,0,0,0,1.27.8v2.58l-.63-.42-1.37-.9c0,.14-.09.28-.14.42l1.82,1.18c.64.41.35,1,.4,1.68l-.72-.47c-.62-.38-1.23-.77-1.85-1.14-.07.26-.15.53-.21.8l.61.43c.68.47,1.4.9,2.21,1.42,0,.5.07,1.12.12,1.93-.57-.48-1-.85-1.4-1.15A18.62,18.62,0,0,0,.85,31.15c0,.18-.08.36-.11.54l.47.36c.74.62,1.43,1.29,2.19,1.88a2.56,2.56,0,0,1,1,2.09v.87c-1-.88-1.92-1.65-2.83-2.41-.22-.19-.46-.36-.69-.53s-.29-.18-.45-.27l-.09.72,3.74,3.11a29.06,29.06,0,0,1-3.94-1.1C.05,37.35,0,38.3,0,39.25c0,1.34.08,2.66.21,4a9.24,9.24,0,0,0,1.36-2.76l9.79,3.18L5.3,52a9,9,0,0,0-3.72-1.72c.2.68.41,1.36.65,2,.09.25.19.5.28.74l.59.08a9.33,9.33,0,0,1,1,.29,14.08,14.08,0,0,1-.89,1.34c.51,1.19,1.08,2.34,1.7,3.47L5.81,57a4.41,4.41,0,0,1,.31.41A62.66,62.66,0,0,0,12,65.94q1.42,1.77,2.67,3.66l.65,1,4.19,4.17c0-.06-.07-.09-.1-.15-.13-.25-.31-.48-.52-.81a4.23,4.23,0,0,1,.69-.1c1.44.1,2.88.23,4.32.32a1.82,1.82,0,0,1,1.39.74c.22.3.49.57.89,1l-3.94-.27a3.43,3.43,0,0,0-1,0,1.52,1.52,0,0,1-1.07-.06l.7.69,5.41.33,0,.14L22.57,77.8l3.64,3.62a9,9,0,0,0-.33-1.12c3.27-1.07,6.47-2.11,9.77-3.17V87.39a9.46,9.46,0,0,0-3,.46l1.81,1.8c.35-.14.73-.26,1.22-.43,0,.53,0,1.06-.06,1.59L39,94.16v-3c.29.1.47.15.64.22a65.56,65.56,0,0,0,9.63,3.41c1.95.54,3.86,1.25,5.76,1.93a60.65,60.65,0,0,0,8.35,2.38l.46.1a22.88,22.88,0,0,1-2.88,4.3,169.13,169.13,0,0,1-18.32-5.75L44,99.08l.85.31a3.62,3.62,0,0,1-.32.22l.37.36.25-.48,2.25.71a4.1,4.1,0,0,1-1.23,1l.8.8.3-.08c0,.12,0,.23,0,.35l3.06,3a3.39,3.39,0,0,1,.8-2.1l1.33,1.63c-.12.42-.26.87-.41,1.38L50.93,106l2.51,2.49c-.12-.36-.24-.71-.36-1.09l3.84.92c-.55.45-1,.8-1.4,1.14l-.62.49.43.42,1.93-1.51.15.16L56,111l2.46,2.45c4.75-7,9-13.15,9.56-13.68a18,18,0,0,1,1.13,1.91c.73,1.69,1.42,3.38,2,5.1.92,2.51,1.76,5,2.66,7.56a1.8,1.8,0,0,1-.27,1.87,41.62,41.62,0,0,1-6,6.27l1.34,1.33A52.65,52.65,0,0,0,75,117.07a54.43,54.43,0,0,0,6.19,6.83l1.35-1.34a51.79,51.79,0,0,1-4.94-4.89c-.42-.48-.76-1-1.2-1.51a1.59,1.59,0,0,1-.24-1.78c1-2.89,2-5.79,3-8.65.59-1.6,1.33-3.14,2-4.68a10.26,10.26,0,0,1,.78-1.2c.57.48,4.87,6.65,9.64,13.66l2.44-2.42-1.63-2.34.11-.09,2.21,1.73.43-.42c-.67-.51-1.36-1-2.15-1.67l3.89-.93q-.21.66-.42,1.29l1.54-1.53-.09-.07.24-.08,1.06-1-1.23.32-.45-1.37L99,103.22a3.88,3.88,0,0,1,.85,2.2l1-1a.66.66,0,0,1,.19-.18l1.88-1.87a2,2,0,0,1,0-.43l.34.1.8-.79a5.82,5.82,0,0,1-1.35-1l2.35-.81.25.61.33-.33-.58-.28h0L106.3,99l1.3-1.29A169.26,169.26,0,0,1,89,103.54l-3-4.28,1.71-.37a64.22,64.22,0,0,0,7.94-2.39c1.93-.7,3.89-1.35,5.87-1.91a62.74,62.74,0,0,0,8.71-3.12l.76-.32c0,1.07.07,2.08.1,3.07l3.31-3.29c0-.57,0-1.14-.06-1.72C114.87,89.41,115.28,89.52,115.65,89.69ZM56.87,103.21c0,.47-.1.91-.16,1.41l-1,.46c-.43-.86-.8-1.59-1.24-2.45A12.39,12.39,0,0,1,56.87,103.21Zm-8.63-2.78,1.16.29-1.77,1C47.87,101.2,48,100.88,48.24,100.43Zm1.4,3.17-1.44-.47-.09-.73,1.26-.51.71,1.1Zm1.28-.87c-.3-.63-.52-1.08-.75-1.53l.17-.15.82.32Zm1.07-1,2.24.75L54,103.79l-1,.52A4.75,4.75,0,0,1,52,101.7ZM54.84,107l-2.27-.53a2.57,2.57,0,0,1,1.66-1.92c.35.39.66.75,1,1.15Zm3.33.88-2.5-.67a2.79,2.79,0,0,1,1.16-1.75l1.81,1.72Zm1-1.62a6.64,6.64,0,0,1-1.95-2.87l3.42.73A16.67,16.67,0,0,1,59.22,106.21Zm32.65,1.62-.45-.7c.62-.58,1.2-1.14,1.85-1.74a3.69,3.69,0,0,1,1.17,1.75Zm9.92-7.42c.2.39.38.74.55,1.09l-.1.1-1.54-.85Zm.12,2,0,.74-1.5.52-.45-.52.75-1.22ZM100,101c-.29.64-.49,1.1-.7,1.55h-.16c-.07-.35-.13-.69-.22-1.14Zm-1.89.7a5.31,5.31,0,0,1-1,2.62l-1-.45c-.08-.44-.16-.85-.25-1.36Zm-.6,4.74-2.24.54c-.16-.48-.28-.87-.41-1.28l1-1.14A2.33,2.33,0,0,1,97.48,106.41Zm-2-3.86a13.13,13.13,0,0,1-1.15,2.51l-1-.39-.22-1.46Zm-2.74.78a6.66,6.66,0,0,1-1.93,2.92l-1.49-2.17Zm29.41-27.56a.74.74,0,0,1-.61.1c-1.74-.55-3.47-1.13-5.3-1.73l4.55-3,3.24,2.41C123.4,74.33,122.81,75.07,122.17,75.77ZM124.51,73l-3.17-2.38L124.07,68l3,2Zm8.22-7.23a5.14,5.14,0,0,0,.76.16.89.89,0,0,0,.58-.15c.07-.06,0-.35-.07-.51a5.57,5.57,0,0,0-.39-.67c-.14-.22-.26-.44-.44-.74l.75-1,1.38,3.86h-3.94C131.64,65.64,131.78,65.55,132.73,65.78Zm-.58-.52c.26-.38.47-.67.78-1.13l.34,1.13Zm1.48-3.8-3-2,2-3.15,2.7,2.27C134.87,59.5,134.25,60.42,133.63,61.46Zm-.52.77a16.73,16.73,0,0,1-2.76,3.83L127.28,64l2.9-4Zm-3.35,4.53c-.73.89-1.45,1.77-2.18,2.55l-3-1.89,2.35-2.9Zm2.13,6.16a.74.74,0,0,1-.81.36,15.83,15.83,0,0,0-4.92,0c.51-.63.88-1.1,1.2-1.51l5.26.18C132.33,72.31,132.1,72.61,131.89,72.92Zm1.36-1.86a.83.83,0,0,1-.6.19c-1.46-.13-2.92-.3-4.36-.46.35-1,.51-1.07,1.53-1l4.26.21A9.6,9.6,0,0,1,133.25,71.06Zm1.18-1.56c-.09.1-.36.09-.54.07l-4.56-.34,1.39-2,5.11.22A6.9,6.9,0,0,1,134.43,69.5Zm3.06-4.12c-.39.51-.74,1-1.26,1.79l-1.85-4.94,1.54-2.09c.2.67.31,1.16.49,1.62.35.9.71,1.79,1.12,2.66A.81.81,0,0,1,137.49,65.38Zm.87-1.28-.39.46c-.22-.62-.39-1.15-.59-1.67a16.12,16.12,0,0,0-.8-2.07,1.53,1.53,0,0,1,.44-2.14l.22.51c.43,1,.78,2.12,1.3,3.1A1.37,1.37,0,0,1,138.36,64.1Zm1.56-2.21c-.19.2-.36.43-.56.68-.59-1.64-1.15-3.19-1.77-4.93.26-.39.58-.89,1-1.54.16.57.22.94.35,1.29.36,1,.68,2,1.13,3A1.21,1.21,0,0,1,139.92,61.89Zm1.17-9.18,2.77,3.8-1.44,1.91c-.5-2-1-3.81-1.43-5.64Zm.83,6.4c-.3.42-.72,1-1.22,1.65a21.79,21.79,0,0,1-1.36-5.44,1.62,1.62,0,0,1,.22-.81c.21-.43.47-.83.76-1.35C140.86,55.15,141.36,57,141.92,59.11Zm-.41-38.59h3.59a16.49,16.49,0,0,1,0,4.86h-3.57A17.58,17.58,0,0,1,141.51,20.52Zm0,5.51,3.56.23c-.08,1.16-.16,2.25-.24,3.3l-3.53.22C141.35,28.61,141.41,27.38,141.49,26Zm-.3,4.52h3.55c-.09,1.29-.17,2.55-.25,3.81h-4C140.75,33.08,141,31.87,141.19,30.55Zm-.82,4.54h4.06c-.08,1.1-.15,2.1-.22,3.18l-5.74,1.86C139.14,38.37,139.76,36.73,140.37,35.09Zm-3.91,11.25L140,51.21l-1.69,2.72L135,51.59C135.49,49.85,136,48.17,136.46,46.34Zm1.47,8.19c-.68,1.08-1.36,2.18-2.09,3.33L133,55.67l1.65-3.41Zm-4.66-12.67-1.22.44-1-1.14,1.43-.36ZM110.7,65.78a2.16,2.16,0,0,1-2,.4l.3-1.34c1.08-.1,1.29-1,1.59-2.07a3.87,3.87,0,0,1,.27.7,5.28,5.28,0,0,1,0,1C110.89,65,111.13,65.42,110.7,65.78ZM89,88.06l3.61-1c.31,1.14.61,2.24.94,3.43L91.9,91l-1.58.36Zm.45,3.51-3.82,1c-.38-1.26-.76-2.48-1.16-3.78l3.73-.53Zm3.76-4.72L98,85.28c.14.69.22,1.29.39,1.86s.41,1.07.66,1.69a16.13,16.13,0,0,1-4.56,1.49C94,89.18,93.64,88.08,93.21,86.85Zm4.46,3.49-.4,1-1-.63Zm-1.77.56c.7.41.89,1.34,1.86,1.52.07-.47.13-.84.17-1.21.11-1.08.11-1.08,1.27-1.29l-1.14,3.89-3.29-2.52Zm2.61-5.71,3.5-1.35c.29,1.16.57,2.26.86,3.44L99.8,88.54Zm4.22-1.67,3.33-1.79c.42,1.21.84,2.41,1.29,3.72-1.13.52-2.38,1-3.65,1.48C103.38,85.77,103.06,84.67,102.73,83.52Zm-5.32-1.33a83,83,0,0,1-10,2.94,38,38,0,0,1-9.08.47c.15-.28.24-.5.37-.69l3-4.35A105.71,105.71,0,0,0,88.91,68.3c.13-.26.26-.52.4-.77,0,0,.1-.08.25-.21a110,110,0,0,0,19.75,8.15l-1.24,1A33.57,33.57,0,0,1,97.41,82.19ZM19.89,39.77,21,40l.31.83-.74.87A2.1,2.1,0,0,1,19.89,39.77Zm.32,3.17-1.42-.39.72-.84C19.75,42.14,20.48,42.13,20.21,42.94Zm1.38-1.71.89.35v2a3.78,3.78,0,0,1-1.87-.69Zm0-.9c-.21-.19.23-1.21.54-1.44s.42-.2,1.7.8c-.51.42,0,1.49-1,1.41A2.4,2.4,0,0,1,21.59,40.33Zm7.71-6.17-1,1.25A2,2,0,0,1,27.45,34a10.73,10.73,0,0,1-.08-1.14c-.05-.72-.05-.72.85-1A2.33,2.33,0,0,0,29.3,34.16Zm-1-20.07c-.94-.26-.93-.26-.89-1.07a3,3,0,0,1,.92-2.55l1,1.26C28.63,12.34,27.94,13,28.26,14.09ZM25.12,9.44c-.05.85-.68,1-1.32,1.19C23.41,9.64,23.74,9.35,25.12,9.44Zm-1.75-.7c.07-1.08.37-1.41,1.46-1.66.09.55.18,1.1.29,1.74Zm3.45,2.2-.28,1.36L24,11.38A5.59,5.59,0,0,1,26.82,10.94ZM25.69,10a3.43,3.43,0,0,1,1.73-1.44c.18.5.32.91.49,1.36C27.18,10.63,26.42,9.5,25.69,10Zm1.89-3a.66.66,0,0,1-.32,1l-1.08.52c-.76-1.6-.73-1.71.81-2.53C27.19,6.3,27.4,6.64,27.58,7Zm-.19-2.5c.57.26,1,.44,1.47.68.18.11.28.35.44.55l-1.22.86A4.16,4.16,0,0,1,27.39,4.51Zm8.48,4.2,1.07,1.86L35,11.46c-.17-.56-.32-1.1-.49-1.67ZM34.94,6l1.24.75c-.41.47.08,1.42-1,1.55C35.08,7.54,35,6.83,34.94,6ZM60.39,57.51a25.47,25.47,0,0,0,1.07-7.71c0-.16,0-.32,0-.52l1.25-.49c.18,1.08-1.3,8.31-2,10A1.35,1.35,0,0,1,60.39,57.51Zm-.51-.9a4,4,0,0,1-.44-2.48c.23-1.39.28-2.8.42-4.35l1-.23A29,29,0,0,1,59.88,56.61Zm1.36,3a36.78,36.78,0,0,0,1.93-8.15,17.79,17.79,0,0,0,.33-2.19,1.23,1.23,0,0,1,1-1.28l.7-.2c-1.2,4.49-2.14,8.9-3.58,13.32C61.23,60.6,61,60.19,61.24,59.65Zm1.23-14.23a10.41,10.41,0,0,0-4.94-3.59l.24-2.42a12.41,12.41,0,0,1,6.89,5A8.11,8.11,0,0,1,62.47,45.42Zm-.67.28-1.59.58-2.73-2V42.6A10.94,10.94,0,0,1,61.8,45.7Zm-2.47.83L57.59,47c-.07-.62-.12-1.17-.19-1.86A2.87,2.87,0,0,1,59.33,46.53ZM59.17,64.2l-1.93,1A4.34,4.34,0,0,1,58,61.36ZM58.05,50.27,59.16,50c-.06,1.13-.11,2.14-.16,3.14h-.27ZM57.58,60.4l-.92,1a7.57,7.57,0,0,1-.74-3.49C56.88,58.05,56.72,57.88,57.58,60.4Zm-16,6.77c0-.47.23-.65.74-.65h1c.14.39.27.72.38,1,.16.48.06.69-.42.87A1.17,1.17,0,0,1,41.56,67.17Zm.89,4.21-1.32.43V70.68C41.57,71.06,42.23,70.48,42.45,71.38ZM29.79,40.31l1.66.46A2.25,2.25,0,0,0,32,43.31c-.94.3-.95.3-1.38-.44a9,9,0,0,1-.73-1.45A4.66,4.66,0,0,1,29.79,40.31ZM29,41.6l.55,1.26-2.37.63A3.46,3.46,0,0,1,29,41.6Zm-1.66-.25c.2-.68.41-1.37.63-2.13l1.33.93c-.38.86-1.4.63-1.77,1.33Zm1.92-2.11a1.63,1.63,0,0,1-.83-2.57l1.18,1C29.49,38.22,29.37,38.73,29.25,39.24Zm.14-2.6a2.15,2.15,0,0,1,.43-2.09c.23,0,.45.07.66.12a5.08,5.08,0,0,1,.51.17L30.34,37A.67.67,0,0,1,29.39,36.64Zm2.14,3.48a2.49,2.49,0,0,1-1.28-1,.82.82,0,0,1,0-1.13.61.61,0,0,1,.57-.11c.54.41,1.05.87,1.63,1.36ZM55,59.6a3,3,0,0,1-.56-3.16l.94,1.14Zm1.26,2.56a3.11,3.11,0,0,1,0,1c-1.2-.93-1.39-1.55-.94-2.81C55.67,61,56,61.55,56.3,62.16Zm-13.58.36c.68-.33,1-1.12,1.77-1.49L45,62.5C44.23,62.94,43.49,62.62,42.72,62.52Zm1.07,2.76a1.6,1.6,0,0,1-2.21-.4l1.34-1.21C43.21,64.19,43.48,64.71,43.79,65.28Zm2.49-12,2-1.09,1.2.59A3.16,3.16,0,0,1,46.28,53.31Zm1.3,1.61c1.18.79,1.18.79,1.18,1.44l-2.3-.54Zm.32-7.21a26.12,26.12,0,0,1,6.21-3c0,.43.07.73.1,1.06-.8.29-1.56.54-2.29.84a14.47,14.47,0,0,0-1.9.92A2.74,2.74,0,0,1,47.9,47.71ZM54.18,44l-.81.3a26,26,0,0,0-6.48,3.17,1.65,1.65,0,0,1-1.66.21,89.65,89.65,0,0,1,9.05-5.27C54.24,43,54.21,43.45,54.18,44Zm-7.32,7.22c.41,0,.41,0,.8.68a5.1,5.1,0,0,1-3.46.35l.58-1C45.47,51.16,46.17,51.14,46.86,51.17Zm.26,3.11c-.65.76-.94.78-2,.07l1-.56Zm-1.83,1.77.76.34c-.11.51-.21,1-.33,1.57a2.27,2.27,0,0,1-2.37-.58Zm1.05,2.33c.27.75.54,1.47.8,2.2-.53.5-.86.51-1.3,0a2.58,2.58,0,0,1-.55-1.72Zm.23-1.62,2.59.36a1.53,1.53,0,0,1-1.56,1C46.88,58,46.58,57.64,46.57,56.76Zm1.37-2.35,2.54-1,1.08,1.23C49.91,55.43,48.69,55.31,47.94,54.41ZM51.09,53c.62-.05,1.09-.12,1.57-.14a.78.78,0,0,1,.85.62c.12.45.2.92.31,1.47A4.42,4.42,0,0,1,51.09,53Zm-2.63-1.8c1,0,1.87-.11,2.7-.06.51,0,.62.54.79,1C50.71,52.22,49.55,52.3,48.46,51.19Zm3-3.43,0-.27,2.83-1.09.11,1.13ZM53.73,42c-1.53.74-3,1.53-4.55,2.32a24,24,0,0,0-4.68,3,1.43,1.43,0,0,1-1.66.17c3.76-2.77,7.7-5,11.64-7.6,0,.51-.07.82-.08,1.13A1,1,0,0,1,53.73,42ZM45.57,53.08c-1,1-1.76,1-2.93.2C43.63,52.43,44.53,53.36,45.57,53.08Zm-1.19,1.73A.93.93,0,0,1,44.17,56a1.75,1.75,0,0,1-1.41.55c-.7-1,.4-1.4.41-2.18C43.65,54.45,44.13,54.27,44.38,54.81Zm.21,4.11v1.53A1.47,1.47,0,0,1,43.22,60a12.76,12.76,0,0,1-1.16-1.27c-.36-.45,0-.74.22-1.1C43.11,58.65,43.12,58.65,44.59,58.92Zm1.51,6c-1.5.39-1.79.19-2.05-1.42C46,62.73,46.05,63.26,46.1,64.9Zm-1.65.85,1.78.3-.73,1.66A1.52,1.52,0,0,1,44.45,65.75Zm1-4.27,1.52.11c.2.47.41,1,.63,1.49C46.15,63.21,45.55,62.75,45.43,61.48Zm2.15-2.55,1.84-.73c-.05.66-.09,1.28-.13,2C47.83,60.66,47.57,60.47,47.58,58.93Zm1.83-3.16,2.08-.41c.07.66.15,1.31.23,2H50C49.77,56.8,49.6,56.31,49.41,55.77Zm1,2.28c.58.21.29.85.59,1.2a12.31,12.31,0,0,1,.77,1.19c-.8.28-1.13.22-1.48-.24A1.93,1.93,0,0,1,50.39,58.05Zm1.79,2.79.59.54c-.26.84-.48,1.53-.7,2.22-.78-.22-1.14-.76-1.24-2Zm.43-.58-1.25-2c1-.61,1.18.46,1.76.61C53,59.34,52.81,59.73,52.61,60.26ZM52,55l1.63.66c-.06,1-.11,1.88-.16,2.85C52.11,57.74,52.07,56.45,52,55Zm1.8,4.15c.27.26.53.53.83.83l-.16.9s0,.05,0,.08C53.51,60.6,53.33,60.1,53.8,59.18Zm-1.66-8.13,2.66-.25c.18.84.35,1.6.57,2.59A9.81,9.81,0,0,1,52.14,51.05ZM53,40.54c-2.51,1.3-4.93,2.8-7.34,4.28-1.12.69-2.15,1.53-3.2,2.33-.32.24-.6.5-1,.23-.12-.43.14-.65.46-.85a65.17,65.17,0,0,0,10.27-8.62c.46-.45.86-.73,1.51-.49a7.21,7.21,0,0,0,1.08.19,1,1,0,0,1,.08.26C54.86,39.23,54.15,39.92,53,40.54ZM41.75,46c0-.69.06-1.15.57-1.47,2.91-1.8,5.17-4.34,7.59-6.7l.2-.21c.84-.88,1-.9,2.32-.25C48.88,40.23,45.52,43.26,41.75,46Zm-7.58-11.4-1.56-1.83,1.44-.09c.16.46.35.89.46,1.35C34.54,34.14,34.34,34.32,34.17,34.59Zm.47,2.24a14.16,14.16,0,0,0-.41,1.4,11.61,11.61,0,0,0-.07,1.33c-.78-.18-1.06-.48-1.08-1S33.63,37.18,34.64,36.83Zm-2.25-6.09,1.1.16.57,1C33,32.1,32.75,31.91,32.39,30.74Zm1.7-.1,2.13.3c.15.3.37.7.61,1.14C35.36,32.11,34.56,31.67,34.09,30.64Zm2.32-5.21a77.22,77.22,0,0,1,10.33,1c-.19.27-.28.44-.39.58-.52.68-.53.68-1.35.42a25.47,25.47,0,0,0-7.19-1.24A1.62,1.62,0,0,1,36.41,25.43ZM47,35.76l.92.33a32.78,32.78,0,0,1-4.82,5.11,2.29,2.29,0,0,1,.55-1.75C44.75,38.23,45.86,37,47,35.76Zm-.23-3.62.94-1.56a2.52,2.52,0,0,1,.7,2.22Zm-.5,3.36-2,2.53a7,7,0,0,1,1.1-3Zm-2.46-4.83L41.3,29.11l.1-.22,3,.8Zm-1,11.63a25.58,25.58,0,0,0,5.52-5.76l.2-.27,1.55.44a89,89,0,0,1-7.85,7C42.36,43,42.46,42.6,42.86,42.3Zm6.48-9.19c-.39-1.17-.71-2.16-1.08-3.29l1.05-1.3a11.14,11.14,0,0,1,1.62,5.06Zm-1.9-7.42a1.35,1.35,0,0,1-.9.1c-2.26-.31-4.51-.7-6.78-1A33.48,33.48,0,0,0,36,24.72a1.38,1.38,0,0,1-1.39-.83c4.63-.05,9.11.47,13.85.68A6.54,6.54,0,0,1,47.44,25.69ZM35.59,29.16c.33.26.32.27.33,1a4.73,4.73,0,0,1-3.08-1.67L34,28C34.53,28.36,35.07,28.75,35.59,29.16Zm-2.3.92a1.82,1.82,0,0,1-2.24-1.59C31.83,28.46,31.83,28.46,33.29,30.08Zm.76,5.4a1.81,1.81,0,0,1-2-.39c-.4-.47-.38-.81.08-1.56Zm-1.48.69c.31.08.62.12,1,.2l-1.27,1.55c-1.37-.23-1.68-.92-.64-2C32,36,32.27,36.1,32.57,36.17ZM32.72,40l1.54.18.11.82-1.79,1.36C32.05,41.71,32.08,41.11,32.72,40Zm2.06,2c.61.19.74.57.49,1.51-.69-.14-1.46.74-2.18-.21C33.52,42.29,34.22,41.77,34.78,42Zm.28-2.08a5.47,5.47,0,0,1,.12-2.24c1.09.1.56,1,1,1.49Zm.83-2.66-1.36-1.09L35,34.43l1.93.9C36.6,35.9,36.29,36.48,35.89,37.21Zm-1.26-4.73,2.62.7c0,.46.09,1,.15,1.65C35.61,34.42,34.75,33.67,34.63,32.48ZM37,30.25a18.33,18.33,0,0,1,2.1,1.47c.24.21.19.74.31,1.36C38.13,32.41,37.22,31.7,37,30.25Zm1.51-3.11c1-.29,4.9.38,6.77,1.17l-.54.86c-.51-.16-1-.34-1.47-.46-.91-.21-1.82-.44-2.74-.56A3.37,3.37,0,0,1,38.55,27.14Zm3.74,6.44c-.33.78-.66,1.53-1,2.42A9.25,9.25,0,0,1,40,32.24ZM43.73,51a4.71,4.71,0,0,1-3.38,2c0-.4.09-.76.14-1.12s.12-.68.19-1.14ZM41.88,53.5c.45-.09.57.31.86.59a6.21,6.21,0,0,1-2.9,2.52c.12-1,.23-1.81.35-2.72C40.77,53.75,41.32,53.61,41.88,53.5Zm-.24,3a3,3,0,0,1-2,2.81,3.46,3.46,0,0,1,.15-2Zm.39,3.6,1.09,1a6.29,6.29,0,0,1-2.51,1.28Zm.55,3.13c-.88.91-1.35.89-1.81-.12C41.44,62.79,42,62.58,42.58,63.18Zm.12,5.92.77-.19L44.7,70.6,43,71.2A2.47,2.47,0,0,1,42.7,69.1Zm1.65-.75,1.28-.14a2.22,2.22,0,0,0,2.37,1c-.13.11-.24.27-.38.33a10.36,10.36,0,0,1-1.17.44c-.38.11-.72.45-1.17.12A2,2,0,0,1,44.35,68.35Zm2.4-2.11c.8.3.78,1,.72,1.62C46.44,67.92,46.26,67.52,46.75,66.24Zm.69-.34a4,4,0,0,1-.83-2.12h1.5C48.4,64.65,47.34,65.09,47.44,65.9Zm.24-4.46c0-.15.32-.4.42-.37a3.54,3.54,0,0,0,1.8,0c.07,0,.16.08.28.16L50,62.32a2.06,2.06,0,0,1-1.81,0A.74.74,0,0,1,47.68,61.44Zm3.2,4.84c-.09.74-.17,1.32-.26,2l-1.73.72A5.1,5.1,0,0,1,50.88,66.28Zm-2.56,1.48a5.82,5.82,0,0,1,.35-2.7l1.28.72Zm2.51-2.56a9.42,9.42,0,0,1-1.51-.79,3.55,3.55,0,0,1-.67-.85L50.19,63a5.61,5.61,0,0,0,.72,1.1,6.18,6.18,0,0,0,1.19.72C51.57,65.52,51.56,65.53,50.83,65.2Zm2.67-.33c-.07.79-.13,1.45-.21,2.23l-2,.94A4.11,4.11,0,0,1,53.5,64.87Zm-.28-.79c-.39-.11-.32-.5-.31-.81.05-1,.51-1.36,1.65-1.24l.38.79a11.43,11.43,0,0,0-.79.93A.81.81,0,0,1,53.22,64.08Zm2.15-.69s.07,0,.09,0l.73.26c0,.35.05.67.08,1s.08.63.13,1L54,66.76A4.31,4.31,0,0,1,55.37,63.39ZM56.7,29.54c-.14-.39-.24-.7-.4-1.17C57,28.67,57.07,29,56.7,29.54ZM56.34,56.8a2.79,2.79,0,0,1-1.76-2.9c.78,0,1.13.39,1.27,1.13A18.1,18.1,0,0,0,56.34,56.8Zm-.87-22.33-.81-.12a13,13,0,0,0-2.84-8.67l.52-.6A7.73,7.73,0,0,1,55.47,34.47Zm-1.42-.18-2.39-.54a10.6,10.6,0,0,0-1.88-5.82l1.6-1.81A12.49,12.49,0,0,1,54.05,34.29Zm-4.33-11a2.34,2.34,0,0,1-2.67.89,71.79,71.79,0,0,0-10.76-.92c-.64,0-1.29.05-1.93.07-.44,0-.44,0-1.09-.59a5.35,5.35,0,0,1,1.15-.21,66.41,66.41,0,0,0,11.36-.68c.73-.09,1.47-.19,2.2-.32a1.12,1.12,0,0,1,1.11.37,11.93,11.93,0,0,0,1,.92C49.92,23.09,49.81,23.19,49.72,23.32Zm-3.86-5.05.93,1.17a80.18,80.18,0,0,1-10.32,1,1.22,1.22,0,0,1,1.07-.78,26.76,26.76,0,0,0,8-1.43A1.31,1.31,0,0,1,45.86,18.27Zm-.62-7.43C44.85,9.89,44.48,9,44.1,8.1L44.31,8c.64.77,1.27,1.55,2,2.45Zm-8.19,4.82c0-1.16.79-2.1,2.26-2.68,0,.36,0,.7.06,1.08Zm.21-2.85c-.47.07-.94.1-1.39.21a12.25,12.25,0,0,0-1.39.51c.43-1.62,1.57-2.12,2.91-2.52C37.34,11.65,37.3,12.21,37.26,12.81Zm-.42,1L36.22,15l-2.26.3A3,3,0,0,1,36.84,13.77ZM33.52,15l-1,.17c.06-1,.48-1.34,1.56-1.2Zm.55-1.76-1.45-.07,1.5-1.81C35,12.14,34,12.62,34.07,13.22Zm-1-1.89c-.31.32-.57.69-.9,1.1A1.12,1.12,0,0,1,32,10.9a1.86,1.86,0,0,1,2.18-.47C33.73,10.77,33.37,11,33.06,11.33Zm.23,4.44C32.15,17.25,32,17.4,31,17.44,31.42,16.14,31.9,15.8,33.29,15.77Zm2.65-.24c.1,1.55-1.3,1.59-1.83,2.41l-1.32-.55A7.88,7.88,0,0,1,35.94,15.53ZM34.59,22c.39-.61.74-.87,1.29-.83,3.47.23,6.85-.48,10.25-1,1.34-.2,1.33-.24,2.18,1.15C43.74,21.54,39.26,22.06,34.59,22Zm12.19-8.24,1.63-.68a2.43,2.43,0,0,1-.66,2.22C47.41,14.78,47.12,14.32,46.78,13.77ZM47.34,10l-.33.09L43.71,6.5a3,3,0,0,1-.66-1.85,32.48,32.48,0,0,1,4.86,5.11C47.67,9.88,47.51,10,47.34,10Zm-3.52,5.18c.21.35.36.58.55.88a10.42,10.42,0,0,1-3,.87l-.09-.2Zm1,1.63.56.79a24.07,24.07,0,0,1-6.81,1.19,2.64,2.64,0,0,1,1.37-1Zm-5.47-5c-.39.27-.82.47-1.29.74a3.93,3.93,0,0,1,1-3.11c.24.52.44.94.62,1.38A.77.77,0,0,1,39.36,11.9Zm-1.73-1.49c-1.18-1.14-1.49-2.45-.9-3.5L38.47,9C38.24,9.39,37.94,9.9,37.63,10.41ZM33.09,7.48c0-.62.26-1,1.07-1.14a11.61,11.61,0,0,0,.07,1.33,10.73,10.73,0,0,0,.38,1.27A1.67,1.67,0,0,1,33.09,7.48Zm.51,2L31.74,10c-1-1.08-.92-1.48.57-2ZM32,7q-.51.41-1.05.78c-.17.1-.41.26-.54.21a.69.69,0,0,1-.38-.49,1.44,1.44,0,0,1,.26-.87,10.08,10.08,0,0,1,1.22-1l.92,1A5,5,0,0,1,32,7Zm-1.7,1.86c.21.69.41,1.38.64,2.13-.26.32-.71.22-1.11.38a2.28,2.28,0,0,1-.58-1.69C29.32,9,29.57,8.85,30.34,8.88Zm.4,2.95,1.16,1.08-.4.8H29.19C29.24,12.71,30,12.24,30.74,11.83Zm.51,2.78c.43.47.31,1-.42,1.56a15.76,15.76,0,0,1-1.42-.72c-.15-.09-.19-.37-.27-.56A1.52,1.52,0,0,1,31.25,14.61Zm1.94,4-2.28,2L29.39,19A4.26,4.26,0,0,1,33.19,18.58ZM31,25.33l2.19,1.93a4.29,4.29,0,0,1-3.88-.38Zm.53,5.42a.92.92,0,0,1-.8.81,1.56,1.56,0,0,1-1.43-.33c-.25-.23,0-.78.43-1l1.2-.51C31.19,30,31.62,30.21,31.49,30.75Zm0,1.44.41.8-1.17,1.06a2.41,2.41,0,0,1-1.6-1.86ZM27.93,35.9c-.18.5-.33.94-.5,1.43A4.59,4.59,0,0,1,25.63,36c.63-.13,1.14-.27,1.66-.34A1.93,1.93,0,0,1,27.93,35.9Zm-3.88-1.38,2.47-.93.31,1.34A5.17,5.17,0,0,1,24.05,34.52Zm1.07,1.92c-1.32.15-1.68-.16-1.34-1.19C24.42,35.45,25.06,35.59,25.12,36.44ZM26.26,41l-1.37.82c-.59-.79-.56-1.29.15-2.13C25.46,40.11,25.85,40.53,26.26,41ZM25.1,37.05c-.08.63-.16,1.18-.24,1.79-1.17-.31-1.45-.64-1.47-1.66Zm-1.63,4.56,1.2.7c-.17,1,.52,1.59,1.53,2.11-.37.07-.54.15-.7.11a8.54,8.54,0,0,1-1.2-.33c-.39-.14-.94-.07-1.05-.66A2.12,2.12,0,0,1,23.47,41.61Zm3.22-.28c.48.71.06,1.23-.37,1.82C25.47,42.42,25.53,42.16,26.69,41.33Zm-.46-3.88c.34.16.69.3,1,.48a.68.68,0,0,1,.28,1c-.15.32-.32.62-.48.93C25.34,39.29,25.44,38.7,26.23,37.45ZM30,43.88l-1.34,1.44L27,44.93A3.23,3.23,0,0,1,30,43.88Zm3,.34L31.51,45.9l-2.17-.43A4,4,0,0,1,33,44.22Zm2.47-.17.43.75c-.32.57-.63,1.09-1,1.72L32.11,46A6.31,6.31,0,0,1,35.43,44.05Zm1.08-4.23c.34,1.08.34,1.08-.58,1.84C35.57,40.55,35.66,40.28,36.51,39.82ZM37,41.71c.09,1.41-.1,2.07-.81,2.65C35.73,43.13,35.92,42.55,37,41.71Zm-.32-2.66c-.63-1.4,0-2.49.88-3.66l.92,1.48ZM38.74,38c.08.56.15,1,.2,1.36l-1.66,1.53A3.09,3.09,0,0,1,38.74,38Zm-.67-4.72c.48.27.91.48,1.3.75a.77.77,0,0,1,.31,1c-.18.43-.38.85-.62,1.37A3.92,3.92,0,0,1,38.07,33.25Zm2.12,2.59.78.87-1,2.81A3.91,3.91,0,0,1,40.19,35.84Zm1,23.5a4.7,4.7,0,0,1-1.83,2.71,10.29,10.29,0,0,1,0-1.87C40,59.89,40.55,59.64,41.19,59.34ZM39.41,63c.32.89.56,1.77,1.63,1.89.11.47.2.9.3,1.35a2.08,2.08,0,0,1-2-.47.35.35,0,0,1-.14-.24A7.06,7.06,0,0,1,39.41,63Zm.63,4a7.76,7.76,0,0,0,1,.19c0,.26.07.54.11.85a2.49,2.49,0,0,1-2,.44v-2A7.66,7.66,0,0,0,40,66.9Zm1.32,1.61.72.53L42,70.12c-.82,0-1.22-.51-1.77-1.08ZM44,81.74l3.34,1.76c-.32,1.11-.62,2.21-1,3.43L42.7,85.48C43.16,84.17,43.56,83,44,81.74Zm-2,3.47L39.11,84V78l4.22,3.38Zm6-1.36,3.49,1.34c-.44,1.14-.85,2.2-1.29,3.36l-3.08-1.28C47.48,86.11,47.76,85,48.06,83.85Zm4.42,8.47a.67.67,0,0,0,.49-.18,5.89,5.89,0,0,0,.57-.65l.56-.6,1.23.4c-.62.46-1.16.82-1.67,1.21s-1,.86-1.63,1.35L50.87,90c1.06,0,1.19.1,1.27,1.11a4.9,4.9,0,0,0,.06.77A.67.67,0,0,0,52.48,92.32Zm-.13-2,1.41.42-.95.67Zm-1.23-1.45,1.07-3.54,4.68,1.5c-.45,1.23-.83,2.3-1.26,3.48A15.38,15.38,0,0,1,51.12,88.87Zm6.33-1.77,3.6,1-1.3,3.3-3.23-.78Zm4.39,1.13,3.75.51-1.16,3.79-3.8-1ZM61.91,85a77.47,77.47,0,0,1-13.19-4.35,34.36,34.36,0,0,1-7.56-4.81,1.9,1.9,0,0,1-.23-.27c3.37-1.24,6.75-2.36,10-3.72s6.43-2.94,9.73-4.47A111.4,111.4,0,0,0,71.87,85.58,33.75,33.75,0,0,1,61.91,85Zm7.24-34.84c.08.2-.1.54-.23.79-.78,1.59-1.6,3.16-2.38,4.75a21.68,21.68,0,0,0-1.86,4.86,1.45,1.45,0,0,1-1.25,1.18c.15-.48.24-.88.39-1.26l3.73-9.63c.25-.64.46-1.31.69-2C68.8,49.09,68.94,49.66,69.15,50.13Zm12.83-1c.1.36.16.73.29,1.08q2,5.22,4,10.42c.12.32.2.66.34,1.14-.62-.25-1.06-.43-1.2-1-.83-3.41-2.6-6.41-4.14-9.52l-.49-.95c.12-.24.23-.47.36-.69s.27-.43.43-.69Zm-6.9,30.15c-.27-.16-.46-.27-.64-.4-.85-.67-.83-1,0-1.62l.53-.4c.32.22.61.41.9.62s.49.56.16.94A10.49,10.49,0,0,1,75.08,79.27Zm.41.36c.19.32.36.62.58,1a3,3,0,0,1-2,0C74.5,79.61,74.5,79.61,75.49,79.63ZM66.11,67.21c.33-.4.68-.14,1.08-.07a6.29,6.29,0,0,1-.77,3.68,4,4,0,0,1-.32-.39c-.35-.64-.69-1.29-1.06-2Zm-1.46.46-1.06-2L66.2,64.1A4.46,4.46,0,0,1,64.65,67.67Zm14.52,7.8c-.86.68-1.17.5-1.6-.87C78.42,74.33,78.76,75,79.17,75.47Zm-.77-3,1.5-.15c0,.83-.09,1.64-.13,2.46l-.23.07ZM77.81,74,76,72.75l1.28-1c.82.54.07,1.55.82,2.06Zm-5.34.6c-.41,1.36-.71,1.52-1.57.87C71.28,75,71.59,74.38,72.47,74.61ZM70.3,75c0-.92-.09-1.72-.14-2.59l1.44.1A6.41,6.41,0,0,1,70.3,75Zm1.91-1c.08-.68.12-1.29.23-1.88,0-.14.27-.23.42-.34l1.13.86A5.32,5.32,0,0,1,72.21,74Zm-2.8-8.11c.22-1,.22-1,1.43-1.16C70.81,65.69,70.53,65.92,69.41,65.91Zm.11,1.82a1.61,1.61,0,0,1-.9,1.39c-1-.48-.49-1.4-.87-2.12a3.47,3.47,0,0,1,1-.32A.91.91,0,0,1,69.52,67.73Zm.92-.5.79-.21.68,1.48a2.51,2.51,0,0,1-2.28,1C69.91,68.69,70.14,68,70.44,67.23ZM75,57.36l2,1.78a10.65,10.65,0,0,1-4,0Zm-1.16-6.08a2.65,2.65,0,0,1,2.25-.07A4.3,4.3,0,0,1,75,52.64Zm.69,9a1.09,1.09,0,0,1,1,0,8,8,0,0,1,1.2,1.07,4.43,4.43,0,0,1-3.3,0A7.17,7.17,0,0,1,74.55,60.28ZM74,68.17,75,66.52l1,1.64C75.25,69.47,74.88,69.48,74,68.17Zm2.38,3.32c-.78,1-1.6,1-2.71.05L75,70.73Zm-2.76-6.92L75,63l1.47,1.56-1.45,1Zm1.71-2.13L77,62l1.57,2.42C77,64.55,76.15,63.62,75.3,62.44Zm-.54,0c-.82,1.18-1.67,2.1-3.23,2,.54-.83,1-1.59,1.57-2.42Zm-3.14,2.45c.6.26,1.4-.5,1.78.57l-2.14.86ZM71.85,67l2.38-1.23s.16.15.14.19a5.16,5.16,0,0,1-.76,1.39C73.06,67.94,72.44,67.77,71.85,67Zm.8,1.46,1.9,1.26c0,.69-.29.94-.94.84a2.72,2.72,0,0,1-1.54-1.08Zm1.9,4.5a.66.66,0,0,1,.94,0,10.25,10.25,0,0,1,.85.89c-1.15,1.24-1.39,1.25-2.64,0C74,73.58,74.25,73.27,74.55,73Zm1.67-2.39a.72.72,0,0,1-.8-.78l2-1.34.59,1A2,2,0,0,1,76.22,70.6Zm.55-3a1.62,1.62,0,0,1-.93-1.8L78.15,67A1,1,0,0,1,76.77,67.6Zm-.11-2.19c.45-1,1.19-.27,1.75-.53.13.46.24.85.39,1.35A8.17,8.17,0,0,1,76.66,65.41ZM78.82,67l.81.17.75,2.12c-.73.32-1.46,0-2.2-.9Zm.33-2.25c1.19,0,1.21,0,1.54,1.12C79.61,66,79.36,65.77,79.15,64.79Zm1.48,2.37c.28-.53.78-.58,1.55-.15-.1,1.63-.1,1.63-.73,2.07A1.61,1.61,0,0,1,80.63,67.16Zm.4-2.29c1.49.42,2.07.82,2.35,1.67A2.18,2.18,0,0,1,81,64.87Zm1.75,0a7.25,7.25,0,0,1-2.67-2.41c1-.34,1-.34,2.82,1.12C82.88,64,82.84,64.32,82.78,64.84Zm-2.42-.6c-1,0-1.71-.65-2.23-2.14l1.29.22ZM76.55,60.1a1.2,1.2,0,0,1,1.82.08,18.37,18.37,0,0,0,1.54,1.23A3.75,3.75,0,0,1,76.55,60.1Zm.82-5.17.71-.77,1.7,2.61A5.82,5.82,0,0,1,77.37,54.93Zm-.6-4.4H73.29l-.91-1.38a11,11,0,0,1,5.3,0Zm-4,4.47-2.27,2a5.32,5.32,0,0,1,1.6-2.69Zm-.52,4.79c.31-.22.33-.19,1.29.32-.94.82-1.83,1.56-3.35,1.29C70.93,60.79,71.56,60.27,72.22,59.79Zm-1.59,2.53L72,62.1a3.15,3.15,0,0,1-2.34,2.28C70,63.65,70.28,63.06,70.63,62.32Zm-3.32,2.53c-.06-.5-.12-.89-.18-1.38.9-.36,1.44-1.53,2.87-1.13A7.51,7.51,0,0,1,67.31,64.85Zm1.58-.17c-.11,1.27-.82,1.84-2.24,1.84C67,65.26,68.24,65.46,68.89,64.68ZM67.8,69.53a4.22,4.22,0,0,1,0,3.85l-1.11-1.93ZM69,72.43a3.07,3.07,0,0,1,0,3.08L68.09,74Zm0-2.23a2.23,2.23,0,0,0,2.53-.3l.93,1.35a2.08,2.08,0,0,1-1.74.34l-.94-.24C69,71.16,69,71.16,69,70.2Zm.78,5.86c.73.78,1.46,1.27,2.4.76l1,.92c-.46.77-1.23.74-1.95.82a.54.54,0,0,1-.38-.24c-.4-.58-.78-1.17-1.15-1.77C69.68,76.47,69.74,76.33,69.77,76.06Zm2.86.43c.11-.55.22-1.1.35-1.73l1.57.75A1.35,1.35,0,0,1,72.63,76.49Zm2.82-.94,1.6-.78.41,1.74A1.5,1.5,0,0,1,75.45,75.55Zm1.89,1.79.54-.5a1.8,1.8,0,0,0,2.31-.71l.18.14a1.43,1.43,0,0,1-.1.42,7.55,7.55,0,0,1-.63,1c-.27.33-.35.86-.89.92a2.45,2.45,0,0,1-1.9-.83C77,77.61,77.19,77.48,77.34,77.34Zm3-6c-.9.24-1.79.55-2.69-.1l.91-1.34a2.15,2.15,0,0,0,2.57.24C81.09,71.15,81.09,71.14,80.3,71.35Zm.68.88L82,74l-1,1.57A4.41,4.41,0,0,1,81,72.23Zm1.27-2.73,1.16,2-1.06,1.87A3.93,3.93,0,0,1,82.25,69.5Zm.7-2.33a.79.79,0,0,1,1.21.27,8.9,8.9,0,0,0,.81.91,5,5,0,0,1-1.37,2.32A5,5,0,0,1,83,67.17Zm.91-3.07,2.6,1.56-1,2A4.42,4.42,0,0,1,83.86,64.1Zm.66-3.64c-.51-.25-.86-.46-1-1a25.37,25.37,0,0,0-3.76-7,1.55,1.55,0,0,1-.16-.32L80.32,51A49.17,49.17,0,0,1,84.52,60.46ZM82.6,59.11A3.72,3.72,0,0,1,81,57.89c-.82-1.41-1.62-2.83-2.48-4.36l.58-.73A30.63,30.63,0,0,1,82.6,59.11ZM78.09,48.5a10.6,10.6,0,0,0-6.11,0c-.42-.69-.82-1.37-1.25-2.11a12.41,12.41,0,0,1,8.54,0A13.77,13.77,0,0,1,78.09,48.5Zm-7,4.23a3.41,3.41,0,0,0,.18.48,3.26,3.26,0,0,0,.23.34c-.86,1.5-1.62,2.91-2.46,4.27a8.17,8.17,0,0,1-1.29,1.26C67.73,58,69.66,54.33,71.09,52.73ZM70,53a25.43,25.43,0,0,0-3.32,6.29,1.56,1.56,0,0,1-1.21,1.13,89.81,89.81,0,0,1,4.22-9.57c.37.57.61,1,.86,1.35Zm1.6,26.33,2-.64.53.56a2.44,2.44,0,0,1-1.44,1.59Zm2.76,2.25-.53.86L73,81.35C73.42,81,73.42,81,74.32,81.59Zm.73.26.75,1.28L75,84.18l-.8-1Zm.64-.33c.54-.08.79-.83,1.44-.25l-.85,1.2ZM76,79.3l.53-.63,2,.68-1,1.51A2.71,2.71,0,0,1,76,79.3Zm50.33-68.7c-1-.26-1-.26-1.41-1.16C126.31,9.35,126.55,9.56,126.32,10.6Zm-1.38-1.71c.09-.63.16-1.2.24-1.78,1.07.12,1.45.53,1.53,1.66-.29,0-.57,0-.85,0S125.3,8.84,124.94,8.89Zm1.13,2.46-2.5,1c-.11-.41-.23-.84-.35-1.33A6,6,0,0,1,126.07,11.35Zm-3.38-1.12c-.16,0-.36-.2-.53-.3.17-.48.31-.89.47-1.33a4,4,0,0,1,1.79,1.25C123.8,10,123.25,10.15,122.69,10.23Zm1.16-1.81s-.06,0-.08,0c-1.38-.73-1.88-.5-.76-2.41C124.71,6.58,124.62,7.21,123.85,8.42Zm-1.72-1.78-1.38-.87c.15-.22.24-.47.42-.57.46-.26,1-.45,1.59-.73C122.54,5.21,122.35,5.87,122.13,6.64Zm.45,5.24c.06.38.1.76.13,1.15.05.73,0,.73-.85,1.11a2.36,2.36,0,0,0-1.11-2.38l1-1.27A1.83,1.83,0,0,1,122.58,11.88Zm-16,56.43a.78.78,0,0,1-.2-.65,7.59,7.59,0,0,1,.41-1.14c.38,0,.69,0,1,0,.52,0,.69.15.71.65a1.58,1.58,0,0,1,0,.38A1.14,1.14,0,0,1,106.54,68.31ZM109,70.84c0,.3,0,.6,0,1l-1.28-.41C107.83,70.86,107.83,70.86,109,70.84Zm4.26-38.67c.26-.51.46-.9.63-1.25l2.23-.29A3.1,3.1,0,0,1,113.21,32.17Zm2.22.31c-.05,1.12-.86,1.87-2.76,2.36,0-.65.07-1.22.1-1.64Zm-18.94,26c.05-.9.32-1.81-.29-2.69l1.74-.73C98.14,56.88,97.69,57.94,96.49,58.49ZM95.76,61c-.47-.85-.46-.87.47-1.89C96.69,60.09,96.63,60.32,95.76,61Zm0-21.15c.45.33.9.69,1.37,1l8.83,5.69c.4.25.78.56,1.25.9a1.18,1.18,0,0,1-1.48,0c-2.64-2.21-5.76-3.61-8.78-5.17C95.57,41.56,95.47,41.39,95.72,39.87Zm2.71,14.89,1.14-1.36,2.61,1.05C101.1,55.53,99.84,55.15,98.43,54.76Zm2.24,1-.58,1.6-1.74.16.23-2.17ZM95.92,44.69a25.3,25.3,0,0,1,6.21,3,3,3,0,0,1-2.35-.32c-1.22-.62-2.51-1.1-3.86-1.68Zm0-.74V42.44a84.46,84.46,0,0,1,8.94,5.19,1.56,1.56,0,0,1-1.5-.1,26.1,26.1,0,0,0-7.11-3.43C96.14,44.07,96.06,44,95.9,44Zm5.84,8.26,2,1.08a3.09,3.09,0,0,1-3.21-.46Zm1.78,3.55a5.38,5.38,0,0,1-2.22.5c-.24-1.06.9-.79,1.08-1.43ZM102.15,57a11.62,11.62,0,0,0,1.29-.33c.12.75,0,1.08-.58,1.31s-1.48,0-2.18-1A13.89,13.89,0,0,0,102.15,57Zm1.55,1.37,1,.47a2,2,0,0,1-.78,2c-.34.26-.53.18-1-.24C103.19,59.82,103.44,59.13,103.7,58.38Zm-.82-4,.47-.29c.16-.09.34-.16.61-.29l.93.51C104.1,55,103.76,55.05,102.88,54.37Zm-.57-2.5c.8-1.28,2-.42,2.9-.83l.72,1.28A7.47,7.47,0,0,1,102.31,51.87ZM95.85,46.4l2.85,1.1,0,.26-2.94-.22Zm3.72,4.72a16.6,16.6,0,0,0,1.87,0c-.54.94-1.45,1.19-3.31,1A1.14,1.14,0,0,1,99.57,51.12ZM98.94,53a4.41,4.41,0,0,1-2.68,2c.1-.54.16-1,.29-1.51a.79.79,0,0,1,.87-.6C97.89,52.88,98.35,52.94,98.94,53Zm-.21,5.24-1.27,2L97,59C98,58.05,98,58.05,98.73,58.23Zm-.86,2.63,1.38.75A2.38,2.38,0,0,1,98,63.75c-.23-.76-.43-1.47-.68-2.3Zm.42-.39A11.3,11.3,0,0,0,99,59.29a12,12,0,0,0,.45-1.23,1.52,1.52,0,0,1,.47,1.83C99.68,60.55,99.26,60.72,98.29,60.47Zm4,.67c.24.22.22.57,0,.92s-1.21.57-2.23.27c0-.4-.08-.74-.12-1.19Zm-1.55-1c0-.37,0-.69,0-1s-.06-.62-.09-1l1.75.69C102.66,60.33,102.29,60.64,100.73,60.18Zm2.1,2.18c.1-.26.18-.53.25-.75l1.6-.15c-.19,1.3-.73,1.72-2.23,1.63C102.59,62.83,102.73,62.6,102.83,62.36ZM104,64.93c-.06-1.75.18-2.12,2-1.49C105.85,65,105.48,65.28,104,64.93Zm.56,2.75-.72-1.62,1.72-.31C105.88,66.67,105.55,67.29,104.55,67.68Zm.55-5.15.4-1.37a2.24,2.24,0,0,1,.69.24,12.84,12.84,0,0,1,1,1.06A2.55,2.55,0,0,1,105.1,62.53ZM104.31,58,104,56.43l.81-.44a7.77,7.77,0,0,0,.87.79,7.77,7.77,0,0,0,1.08.53A2.36,2.36,0,0,1,104.31,58Zm1.55-3.45.94-.13c.14.72,1.11,1.2.56,2.12C106,56.62,105.29,55.78,105.86,54.5Zm-1.34-1.27,1.8-.32c.42-.07.42-.07,1,.33C106.5,54.1,105.73,54.12,104.52,53.23Zm1.7-2.15,1.63-.16,1.53-.14c.13.8.24,1.48.37,2.34A6.06,6.06,0,0,1,106.22,51.08Zm0-20.4-.58-1,3-.8.1.24Zm3.62,1.67a5.1,5.1,0,0,1-1.08,3.53c-.33-.77-.65-1.48-1-2.28Zm-8.23.46a3,3,0,0,1,.67-2.28l1,1.59Zm4.82,6.72a3.69,3.69,0,0,1,.58,1.6,26.32,26.32,0,0,1-4.89-5l.91-.33C104.22,37.05,105.38,38.25,106.44,39.53ZM102,37a25.49,25.49,0,0,0,5.08,5.24,1.66,1.66,0,0,1,.69,1.5,86,86,0,0,1-7.8-7l1.49-.43C101.62,36.51,101.8,36.72,102,37Zm4,.84-.2.13-2-2.44,1.07-.43C105.2,36,105.58,36.89,106,37.79Zm-1.7-10.14c-.2-.22-.39-.43-.57-.66s-.17-.25-.36-.53a73.62,73.62,0,0,1,10.33-1c-.41.53-.73.77-1.23.77a25.67,25.67,0,0,0-7.77,1.39A2.25,2.25,0,0,1,104.25,27.65Zm12.74,7a12.73,12.73,0,0,1,.89-1.08c.5.67.54,1,.22,1.47a1.87,1.87,0,0,1-2.09.53C116.07,34.94,116.74,35,117,34.61Zm-1-.11c-.47-.48-.47-.48.08-1.82l1.38.08ZM116,32l.55-1.06,1.12-.14C117.33,31.89,117.06,32.08,116,32Zm1,6.62a1,1,0,0,1-1,1c-.15-.93-.29-1.81-.47-2.91C116.38,37.23,117,37.7,117,38.58Zm-.48-2.16,1.87-.49c1,1.14.89,1.51-.6,2C117.33,37.46,116.92,37,116.47,36.42ZM118.14,33l.43-.81h2.31A2.17,2.17,0,0,1,119.31,34C118.92,33.69,118.57,33.37,118.14,33Zm-1.46-2.86c.51-.54.95-1.07,1.46-1.52.2-.18.57-.17.91-.26C118.7,29.72,118.21,30.08,116.68,30.14Zm-2.6.09c0-1.39,1.33-1.49,1.91-2.27l1.12.49A4.49,4.49,0,0,1,114.08,30.23Zm.15-5.51c-3.43-.24-6.78.46-10.15,1-1.53.24-1.12.41-2.25-.84l-.23-.26c1-.06,2-.14,3-.19,3.24-.18,6.49-.35,9.73-.51.33,0,.67,0,1.14,0C115.1,24.44,114.79,24.75,114.23,24.72ZM101.8,29.83l-1.08,3.26-1.56.5a10.41,10.41,0,0,1,1.6-5.08C101.18,29,101.53,29.48,101.8,29.83ZM99.55,37.2c.81.79,1.59,1.6,2.39,2.39a32.14,32.14,0,0,0,5.8,4.93c.52.31.55.8.64,1.51-.49-.35-.86-.59-1.19-.86-2.82-2.3-5.63-4.6-8.46-6.89a12.4,12.4,0,0,0-1-.68,7.08,7.08,0,0,0,.5.59,86.44,86.44,0,0,0,7.9,6.91c.66.51,1.38.95,2.07,1.41.37.25.37.25.49.85-.4.31-.69,0-1-.2A69.59,69.59,0,0,0,96.23,40a3.05,3.05,0,0,0-.51-.17h0c-.19-.71-.36-1.4-.56-2.21.92-.08,1.66-.6,2.49-.1A1.33,1.33,0,0,1,99.55,37.2ZM95.26,50.8l2.65.26a9.45,9.45,0,0,1-3.22,2.32ZM95,59.61c-.14-.74-.27-1.4-.4-2.1l.93-1A2.93,2.93,0,0,1,95,59.61Zm-.28.73c.37,1.51.2,2-.89,2.76a1.16,1.16,0,0,1,0-1.07Zm-1,4c0-.74,0-.74.92-1a6.44,6.44,0,0,1,1.49,3.48l-2.51-1.17Zm2.2-.54c-.28-.3-.53-.62-.88-1,.22-.31.2-.83.76-.86.39,0,.77,0,1,.4a1.64,1.64,0,0,1,.2,1.54C96.91,64.23,96.32,64.19,96,63.84ZM98.65,68c-.58-.27-1.14-.49-1.66-.77a.85.85,0,0,1-.29-.55c-.07-.53-.09-1.07-.13-1.62A3.14,3.14,0,0,1,98.65,68Zm-.76-3.23A2.36,2.36,0,0,0,99.82,63l1.51.53a2,2,0,0,1-1.16,1.28c-.31.16-.64.27-1,.41C98.48,65.53,98.48,65.53,97.89,64.74ZM101,69l-1.54-.64c-.09-.63-.16-1.22-.26-2A3.82,3.82,0,0,1,101,69Zm0-2.19c-.26-.31-.55-.61-.89-1l1.35-.77c.18.94.34,1.79.5,2.64l-.2.09C101.48,67.44,101.24,67.1,101,66.78Zm1.08-3h1.33a4.57,4.57,0,0,1-.66,2.22,8.56,8.56,0,0,0-.5-1.2C102,64.46,101.59,64.19,102.05,63.77Zm.54,4.18c0-.74-.07-1.41.72-1.73C103.8,67.48,103.7,67.76,102.59,68Zm1.8.27,1.39.12a3.06,3.06,0,0,1-.26.92,6.88,6.88,0,0,1-.93.94s-.07,0-.09,0a6.65,6.65,0,0,1-2.45-1C103,69.22,103.9,69.15,104.39,68.22Zm2.15.8c.87,0,1,.06.94.93a9.62,9.62,0,0,1-.29,1.26l-1.84-.61Zm-.3-3.63.88-1.72,1.37,1.19C108,65.69,107.19,65.6,106.24,65.39Zm1.16-2.14a1.41,1.41,0,0,1,1.87-.19C108.9,64,108.65,64.07,107.4,63.25ZM106.9,61l1.13-1,1.38,2.16A6.56,6.56,0,0,1,106.9,61Zm-1.43-.55V58.92c.86-.12,1.84-.26,2.25-1.45l.5,1C107.43,59.27,107,60.46,105.47,60.48Zm1.88-6.32c.33-.64.7-.78,1.26-.57a9,9,0,0,0,1.25.26c.11.86.23,1.73.38,2.79A6.56,6.56,0,0,1,107.35,54.16Zm2.75-14.68a21.5,21.5,0,0,1-.88-2.54c-.06-.3.3-.69.48-1l.22.06A3.63,3.63,0,0,1,110.1,39.48Zm-4.88-10.42-.54-.81a25,25,0,0,1,6.76-1.18,2.55,2.55,0,0,1-1.5,1C108.41,28.36,106.89,28.71,105.22,29.06Zm6.17,2.29,1.74-1.17a3.79,3.79,0,0,1-2.26,2.8C110.64,31.85,110.64,31.85,111.39,31.35Zm1.07,4.13c1.23,1.36,1.5,2.62.85,3.48l-1.72-2.09Zm.67-.14,1.8-.85c.87,1.27.69,1.86-.8,2.61ZM115,37.57c0,.82.08,1.51.12,2.31l-1.16-.67C114.21,38.7,113.86,37.86,115,37.57Zm.76,4.39a2.47,2.47,0,0,1,.93.64.88.88,0,0,1,.21.75.71.71,0,0,1-.9.34c-.37-.11-.75-.18-1.2-.29C114.53,42.37,115,41.72,115.71,42Zm0-1,.11-.8,1.52-.18a2.28,2.28,0,0,1,.25,2.45Zm1.89-1.72c.63-.49,1.22-.95,1.83-1.41.66.34.79.66.43,1.23a2.4,2.4,0,0,1-1.46,1.07Zm1,1.53,1.52-.46a2,2,0,0,1-.19,1.73c-.15.28-.33.55-.5.82-.41.68-.41.68-1.46.47A2.31,2.31,0,0,0,118.63,40.79Zm1.1-3.75-.68-2.27,1.17-.24a2.19,2.19,0,0,1,.47,2.09C120.56,37,120.4,37,119.73,37Zm1.9-.36c.66,1.16.41,2-.83,2.58-.11-.51-.22-1-.34-1.55Zm.31,2.64c.6.58.58,1.35.77,2.08-.6-.27-1.1-.46-1.56-.71-.16-.08-.25-.32-.39-.52Zm.57-.39a.67.67,0,0,1,.34-1c.3-.17.62-.31.94-.47,1.07,1.54.6,1.89-.75,2.48C122.86,39.6,122.67,39.27,122.51,38.93Zm2.52.71c.69.9.72,1.24.19,2.16l-1.48-.86Zm.16-.85-.25-1.74,1.82.12C126.54,38.33,126.22,38.65,125.19,38.79ZM125,36.46c0-.86.69-1,1.34-1.2C126.56,36.32,126.33,36.53,125,36.46ZM123.22,35l.34-1.37,2.44.93A5.8,5.8,0,0,1,123.22,35Zm1.14.94a3.23,3.23,0,0,1-1.71,1.42l-.5-1.35C122.92,35.31,123.63,36.36,124.36,35.9Zm-1.66-3a11.7,11.7,0,0,1-.3,1.69,3.47,3.47,0,0,1-.58.87l-1-1.27a5.46,5.46,0,0,0,.84-1,5.89,5.89,0,0,0,.29-1.35C122.81,32,122.8,32.27,122.7,32.91Zm-3.88-1.6c-.45-.48-.35-.94.41-1.61.5.5,1.54.3,1.67,1.31A1.5,1.5,0,0,1,118.82,31.31ZM117,27.42a6.54,6.54,0,0,1,2.15-2.06L120.84,27A5.84,5.84,0,0,1,117,27.42Zm2.06-6.88L117,18.71c.78-.62,2.44-.48,3.76.3Zm-14.88-2.31c.28.07.52.11.76.18a25.22,25.22,0,0,0,7.3,1.28,1.42,1.42,0,0,1,1.24.6c-1,.34-8.21-.33-10.14-1Zm-.46-7.8c.71-.88,1.34-1.67,2-2.45l.21.15c-.36.87-.72,1.75-1.12,2.7Zm9.37,5.28a22.1,22.1,0,0,1-2.21-1.53c-.23-.21-.15-.76-.22-1.15A3.32,3.32,0,0,1,113.12,15.71Zm-.45-4.56a3,3,0,0,1,2.86,2.3l-2.76-.75C112.74,12.23,112.71,11.7,112.67,11.15Zm.59,2.71a2.38,2.38,0,0,1,2.7,1.4L113.85,15Zm5.81,3.61c-1.32.1-1.5-1.22-2.35-1.6C118,15.71,118.62,16.11,119.07,17.47ZM116.57,15c-.2-.35-.36-.63-.51-.91a.28.28,0,0,1,0-.09c1-.25,1.32,0,1.59,1.14Zm1.56-2.08,1.19-1.07a2.35,2.35,0,0,1,1.59,1.86h-2.32C118.46,13.47,118.28,13.18,118.13,12.92Zm-.25-.55a13.76,13.76,0,0,0-.92-1.08c-.3-.29-.66-.52-1-.81a1.76,1.76,0,0,1,2.12.35C118.43,11.3,118.4,11.7,117.88,12.37Zm-1.94-1,1.48,1.76-1.41.12C116.08,12.63,115,12.12,115.94,11.36Zm-1.78,4.22a7.76,7.76,0,0,1,3.13,1.78l-1.26.57c-.52-.4-1-.77-1.54-1.17S114.11,16.43,114.16,15.58Zm4.41-.33c-.07-.49.29-.8.8-.91a1.49,1.49,0,0,1,1.57.5c-.13.36-.22.71-.66.86s-.69.29-1.18.5C118.93,15.91,118.61,15.6,118.57,15.25Zm1.66-3.88-1.17-.25c.23-.76.43-1.45.65-2.17.67-.19,1,0,1.08.73A2.5,2.5,0,0,1,120.23,11.37Zm-.76-3.29-1.86-1.43.78-.92A2.31,2.31,0,0,1,120,7.18C120.12,7.53,120,7.68,119.47,8.08ZM117.71,8c1.51.43,1.62.75.66,2l-1.89-.47ZM115.61,9c-.38-.5.25-.84.21-1.29a9.45,9.45,0,0,1,.07-1.4c.79.17,1,.36,1.06.91C117,8,116.57,8.59,115.61,9Zm-.08.74-.45,1.68-2-.88,1.06-1.88Zm-3,.7L111.58,9l1.82-2.23C114,8.24,113.36,9.32,112.51,10.48Zm-.5,2.18a7.19,7.19,0,0,1-1.33-.79,1.14,1.14,0,0,1-.29-.92A7.42,7.42,0,0,1,111,9.54,3.9,3.9,0,0,1,112,12.66Zm-.57,6.17a25.11,25.11,0,0,1-6.74-1.17l.55-.89c1,.27,2.06.54,3.08.79a8.54,8.54,0,0,0,1.23.21A2.54,2.54,0,0,1,111.44,18.83ZM108.64,17l-3-.8.57-1a18.78,18.78,0,0,1,2.52,1.54ZM106.1,6.76c-1,1-2,2.19-3.06,3.4l-.89-.37a32.1,32.1,0,0,1,4.91-5.2A3.66,3.66,0,0,1,106.1,6.76Zm-2.81,7-.93,1.54a2.79,2.79,0,0,1-.81-2.23Zm1.27,6.49a57.07,57.07,0,0,0,6.1.88,25.27,25.27,0,0,0,3.37.05,1.49,1.49,0,0,1,1.44.85c-.44,0-.78,0-1.11,0-3.24-.16-6.48-.34-9.72-.51l-3.06-.18A2.41,2.41,0,0,1,104.56,20.24Zm-3,1.09h0a7.63,7.63,0,0,0,1.06.32,78,78,0,0,0,11.62,1c.48,0,1,0,1.45-.07s.71,0,.86.41c-.16.44-.51.43-.87.41a56.08,56.08,0,0,0-9.25.39c-1.37.14-2.74.35-4.11.55a3.59,3.59,0,0,0-.75.28h0c-.51-.51-1-1-1.56-1.62Zm-1.38,6.51a29.5,29.5,0,0,0-1.27,2.88,29.83,29.83,0,0,0-.67,3.08l-2.19.45a11.78,11.78,0,0,1,2.7-8.15c.2.26.39.52.59.76S99.94,27.54,100.2,27.84ZM95.43,34.3l-.76.2c-1.5-2.64-.34-7.5,3-9.37l.62.55A12.72,12.72,0,0,0,95.43,34.3Zm-.94,20c.11-.26.63-.34,1-.5l.17.19a3.79,3.79,0,0,1-2,3A23.93,23.93,0,0,1,94.49,54.3ZM93.42,29.41c-.37-.44-.33-.76.32-1Zm.69,28.48a6.94,6.94,0,0,1-.72,3.51l-.9-1c.22-.65.44-1.28.66-1.92C93.3,58,93.64,57.93,94.11,57.89Zm-2.06,3.59a4.06,4.06,0,0,1,.85,3.74l-2-1C91.3,63.25,91.67,62.37,92.05,61.48ZM90.89,50l1.13.27c-.25,1-.47,1.92-.7,2.84l-.25,0C91,52.07,91,51.09,90.89,50Zm1.63-3-1.8-.48a2.82,2.82,0,0,1,1.89-1.36C92.58,45.77,92.56,46.3,92.52,47Zm0-2.71-2.72,2-1.56-.59a10.72,10.72,0,0,1,4.28-3.1Zm-3.3,5.23.89.24c.19,1.73.38,3.35.55,5a2.92,2.92,0,0,1-.51,1.69A25.09,25.09,0,0,1,89.26,49.53Zm.16,9.26c-.6-.92-2.18-8-2.21-10l1.28.5c.13,1.56.2,3,.39,4.5a29.59,29.59,0,0,0,.72,3.49A1.7,1.7,0,0,1,89.42,58.79Zm2.37-16.66a9.79,9.79,0,0,0-3.7,2.7c-.52.6-.54.6-1.28.28-.47-.2-.93-.42-1.47-.67a12.52,12.52,0,0,1,7-5c.08.79.17,1.57.25,2.36C92.25,41.91,92,42,91.79,42.13ZM85.6,48.06c.66.16.88.59,1,1.24.34,2.26.71,4.52,1.16,6.76a25.84,25.84,0,0,0,1,3.42,1.52,1.52,0,0,1-.35,1.64c-1.48-4.39-2.35-8.82-3.63-13.35C85.18,47.91,85.39,48,85.6,48.06Zm22.47,22.11c0-.42-.06-.76-.09-1.13l.71-.52,1,.46A2.08,2.08,0,0,1,108.07,70.17ZM109,68c0-.27,0-.54,0-.81l2-.64V68.3A2.08,2.08,0,0,1,109,68Zm2,.9v1.43L110,70C110.4,69.6,110.12,68.89,110.94,68.88Zm0,2.28v1.3l-1.16-.34c-.06-.51-.12-1-.19-1.52Zm-2.16-11.83,1.84.85c0,.54.07,1.11.12,1.82A4.43,4.43,0,0,1,108.82,59.33Zm-.61-3,2.1.91c.08.64.16,1.32.26,2.2A4.35,4.35,0,0,1,108.21,56.35Zm2.15-21.45a.75.75,0,0,1,.35-.92c.41-.25.82-.48,1.35-.78a4.7,4.7,0,0,1-1,3.19C110.78,35.85,110.52,35.39,110.36,34.9Zm.93,3.12c1.25.85,1.71,1.91,1.35,2.74l-1.51-1.45C111.17,39,111.23,38.54,111.29,38Zm2.55,6.34c-1.06-.67-.48-1.85-1.1-2.82C114.07,42.36,114.33,43.1,113.84,44.36ZM113.31,41c0-.37.1-.74.15-1.13.92.36,1,.7.67,1.88Zm1.26,3.19c.61-.21,2.6.94,3.26,1.89l-2.61.5-1-1.7Zm2.54.1a4,4,0,0,1,3.62,1.24l-2.16.42Zm3-.4a4.7,4.7,0,0,1,3,.88l0,.22-1.62.38Zm.46-1,.54-1.3a7.11,7.11,0,0,1,2.12,2Zm2.82-1.55c1.14.8,1.21,1.1.43,1.82C123.34,42.63,122.9,42.14,123.35,41.32Zm2.06,1,1.09-.67a2,2,0,0,1,.22,2.17.86.86,0,0,1-.14.13,6.55,6.55,0,0,1-2.52.46C124.87,43.9,125.56,43.36,125.41,42.31Zm1.19-1.7c0-.18-.1-.36-.16-.54s-.1-.29-.16-.44c.33-.26.62-.51.93-.72a.59.59,0,0,1,.43-.13c.57.12.63.65.82,1.08a.6.6,0,0,1-.27.82,5.09,5.09,0,0,1-.75.42C127,41.25,126.76,41.1,126.6,40.61Zm1,1,.74-.3a2.43,2.43,0,0,1,1,1.86l-1.77.53Zm1.21-.69.26-.84,1.13-.27a2.45,2.45,0,0,1-.6,2Zm1.6.65.9,1L129.9,43C129.43,42.13,130.43,42.22,130.38,41.54Zm.77-2.57.87,1.18-1.06.26C131,39.88,130.4,39.42,131.15,39Zm-.33-.43a2.24,2.24,0,0,1-1.93.87l-.38-.65,1.2-1.69Zm-3.59-4.17a4.37,4.37,0,0,1,1.89,2c-.44,1.2-.55,1.34-1.42,1.76-.18-.43-.34-.81-.54-1.25C127.89,36.18,127.65,35.3,127.23,34.37Zm-.31-.85a4.41,4.41,0,0,1-3.18-1l2-.39ZM123.73,30l1.49,1.59a4.11,4.11,0,0,1-3.71-1.1Zm-.54-.59a4.38,4.38,0,0,1-3.64-.24c0-.83,0-.83.64-1.13l1.19-.53Zm-1.85-11-1.79-.8c0-.28,0-.56-.06-.87a6.15,6.15,0,0,1,3.77-.35A19.53,19.53,0,0,1,121.34,18.4Zm2.4-2.47-2-.44c.45-.92,1.89-1.43,3.42-1.11Zm2-2.16-1.91-.38a4.06,4.06,0,0,1,3-1Zm3.34-4.15a6.22,6.22,0,0,1-1.74,1.88c.29-.9.62-1.75-.21-2.47l.58-1.29c.85.21,1.07.94,1.38,1.6A.39.39,0,0,1,129.08,9.62Zm-.26-3c.49-.27,1.34.1,2,.83l-1.13,1.51a6.28,6.28,0,0,0-.48-.94,6.29,6.29,0,0,0-.73-.75C128.6,7,128.73,6.74,128.82,6.57Zm-1.6-1.81c.4,0,1.34.58,1.27.86A3.76,3.76,0,0,1,127.92,7c-.2.29-.56.17-.83-.09a10.51,10.51,0,0,0-.87-.67C126.73,5.81,126.25,4.82,127.22,4.76ZM125,6.29c-.36-.47-.73-1-1.09-1.4l1.35-.79A1.46,1.46,0,0,1,125,6.29ZM123.7,2.81c.91.53.84.92-.34,1.77C122.89,3.81,123.33,3.32,123.7,2.81Zm-.59-.47a7.14,7.14,0,0,1-2,2L120.52,3Zm-2.3,4.28a1.73,1.73,0,0,1,.87,2.63l-1.21-1.06C120.57,7.71,120.68,7.2,120.81,6.62ZM119.46,3a3,3,0,0,1,.71,2.57l-1.54-.47a2.31,2.31,0,0,0-.52-2.48C119,2.27,119,2.27,119.46,3Zm-1.91.46a2.18,2.18,0,0,1-.18,2.43l-1.58-.19c0-.32-.05-.64-.07-.81Zm-2.81-1c.43-.1.82-.17,1.18-.29a.81.81,0,0,1,.94.3c.25.34-.06.6-.25.85a1.83,1.83,0,0,1-.36.32,1,1,0,0,1-1.24.13C114.47,3.46,114.59,3,114.74,2.5ZM115,6a4.26,4.26,0,0,1-.16,2.25c-.56-.25-.56-.25-.89-1.6.16-.08.33-.16.49-.26A6.8,6.8,0,0,0,115,6Zm-1.48.09c-.07-.35-.14-.69-.22-1.11l.82-.72C114.53,5.25,114.42,5.61,113.5,6.12Zm.42-4.57c.35,1.38.15,1.94-.94,2.69C113.21,2.05,113.21,2.05,113.92,1.55Zm-2.61,6.33c-.08-.52-.14-.93-.19-1.29l1.52-1.44C113,5.92,112.55,7,111.31,7.88Zm-.1-5,1.17-.22A5.09,5.09,0,0,1,111,5.83C110.37,5.1,110.39,4.94,111.21,2.89Zm-1.81,5.4a19.77,19.77,0,0,0,.69-1.86c.77,1.34.28,2.43-.17,3.59A1.18,1.18,0,0,1,109.4,8.29Zm-.58,1.58A9.23,9.23,0,0,1,110,13.65l-2.25-1.33ZM107.74,2.2c0,.61-.07,1-.45,1.32a26.87,26.87,0,0,0-5.82,6.11l-1.54-.44A89.33,89.33,0,0,1,107.74,2.2Zm-7,10.57c.36,1.11.7,2.13,1.08,3.29l-.94,1.24a8.61,8.61,0,0,1-1.69-5Zm-2.46-.68a30.16,30.16,0,0,0,.66,3.07,29.66,29.66,0,0,0,1.29,2.91c-.47.51-1,1.08-1.53,1.7A12.17,12.17,0,0,1,96,11.64Zm-3.65-.67.75.14c.43,4.71.56,5.12,2.83,8.68a4.57,4.57,0,0,1-.37.38,1.34,1.34,0,0,1-.23.13A7.68,7.68,0,0,1,94.61,11.42Zm-1.2,5.07c.1.29.2.59.33,1C93.1,17.29,93.05,17,93.41,16.49Zm-1.07,3.94L95.28,23l-2.84,2.44C91.47,24.23,91.43,22.54,92.34,20.43ZM87.57,10.8c.39,0,.71,0,1,0,.89.07,1.78.17,2.81.26-.3,1.27-.57,2.46-.86,3.67C88.89,14.07,88.09,13,87.57,10.8Zm2.89,20.32a34.59,34.59,0,0,1,.94,3.71l-3.82.34A5,5,0,0,1,90.46,31.12ZM87,38.32l-1,.75C86,38.33,86.31,38.18,87,38.32ZM92,38c.06.22.12.45.22.8a12.85,12.85,0,0,0-7.4,5.36c-.24-.11-.39-.16-.53-.24a.86.86,0,0,1-.2-.18A7.68,7.68,0,0,1,92,38ZM84,47.3a1.12,1.12,0,0,1,.74,1,83.45,83.45,0,0,0,2.42,10.83c.24.8.54,1.58.85,2.36.14.36.23.67-.11,1-.47,0-.58-.37-.69-.75a67.9,67.9,0,0,0-5-12.34,1.05,1.05,0,0,0-.22-.26h0A1.14,1.14,0,0,1,82.08,48c.24-.38.42-.79.67-1.25C83.19,46.91,83.57,47.14,84,47.3Zm-1.26-8.67c-.38,1.2-.91,2.3-1.44,3.56L78,40.2C79.6,38.72,80.37,38.47,82.72,38.63Zm-7.09,3.74H74.48C74.91,41.84,75.22,41.94,75.63,42.37ZM80,45.08l-.36.79a12.85,12.85,0,0,0-9.08,0l-.45-.75a8.89,8.89,0,0,1,2.34-1.35A7.89,7.89,0,0,1,80,45.08Zm-7.86-4.9-3.27,2c-.6-1.14-1-2.31-1.51-3.48A5,5,0,0,1,72.09,40.18Zm-4.78,6.53c.34.74.91,1.31.91,2.13h0a5.08,5.08,0,0,0-.46.68,85.58,85.58,0,0,0-4.38,10.3c-.22.64-.39,1.3-.55,2-.09.38-.22.67-.66.7-.34-.29-.26-.61-.12-1a63.56,63.56,0,0,0,3.2-12.81,1.72,1.72,0,0,1,1.15-1.58A8.77,8.77,0,0,0,67.31,46.71Zm-3.24-7.62-1-.77C63.72,38.17,64,38.32,64.07,39.09ZM66,43.77l-.73.39a13,13,0,0,0-7.36-5.35L58,38A7.66,7.66,0,0,1,66,43.77Zm-3.49-8.61-3.78-.3a36.92,36.92,0,0,1,.84-3.75A5,5,0,0,1,62.49,35.16Zm0-24.43a5.16,5.16,0,0,1-3,4.07c-.29-1.21-.58-2.4-.9-3.74ZM57.7,25.45,54.78,23l2.92-2.5A4.94,4.94,0,0,1,57.7,25.45Zm-1-9.07c.42.53.32.85-.39,1.14Zm-1.26-5c1.49,2.88.18,7.6-3.08,9.4l-.55-.55a13,13,0,0,0,2.87-8.69Zm-3.79.87A6.17,6.17,0,0,1,54,11.67a12.51,12.51,0,0,1-2.64,8.11L49.78,18A10.21,10.21,0,0,0,51.63,12.28Zm-.72,0a11.13,11.13,0,0,1-1.6,5.1l-1.05-1.34C48.62,15,49,14,49.35,12.8Zm-.77-3.12-1.52.42c-.17-.21-.34-.4-.49-.6A25.43,25.43,0,0,0,43,3.69a1.65,1.65,0,0,1-.68-1.48A88.77,88.77,0,0,1,50.14,9.19ZM42.3,12.3c-.71.42-1.41.83-2.29,1.37A9.26,9.26,0,0,1,41.23,9.9ZM39.9,6.42c.5.93.66,1.84,1.08,2.7l-.75,1A3.88,3.88,0,0,1,39.9,6.42Zm-1-3.52c.19.64.32,1.2.53,1.74a1.07,1.07,0,0,1-.38,1.28,7.54,7.54,0,0,1-1.5-3.26ZM37.35,5a9.17,9.17,0,0,0,.7.82,8.77,8.77,0,0,0,.9.66c-.06.46-.12.87-.17,1.28A2.42,2.42,0,0,1,37.35,5ZM36.19,1.56a1.08,1.08,0,0,1,.7,1.12c0,.5.13,1,.21,1.56C35.93,3.4,35.72,2.76,36.19,1.56Zm-.3,2.77c.89.49.89.49.71,1.79C35.67,5.62,35.58,5.36,35.89,4.33Zm-.61-2c.07.48.42.87,0,1.28A.93.93,0,0,1,34,3.82a1.81,1.81,0,0,1-.95-1.14C33.78,1.65,34.54,2.62,35.28,2.37Zm-2.79,1.1,1.88,1.45-.11.79L32.7,5.9A2.25,2.25,0,0,1,32.49,3.47ZM29.85,4.54a9.69,9.69,0,0,1,1-1.93c.16-.21.67-.16,1.06-.14a2.39,2.39,0,0,0-.46,2.64l-1.55.45A.92.92,0,0,1,29.85,4.54ZM28.41,9.23c-.63-1.24-.35-2.05.89-2.58a7.6,7.6,0,0,0,.1.85,3.52,3.52,0,0,0,.25.65ZM29.51,3,29,4.35a6.91,6.91,0,0,1-2.08-2Zm-3.18-.25c.42.53.82,1,.4,1.78C25.57,3.88,25.46,3.46,26.33,2.77ZM24.85,4.11,26.31,5,25,6.15C24.37,5.53,24.3,5,24.85,4.11Zm-2.13.66a.56.56,0,0,1,.73.43c.09.33.19.67.31,1.09-.31.23-.57.45-.85.65s-.67.26-1-.14a.86.86,0,0,1-.1-.16A1.14,1.14,0,0,1,22.72,4.77ZM19.21,7.36a2.51,2.51,0,0,1,1.92-.9l.44.68L20.35,8.79Zm3.69,4.1-.19.07a1.4,1.4,0,0,1-.42-.22,8.26,8.26,0,0,1-.79-1c-.22-.32-.69-.57-.49-1.07S21.53,8,22.37,7.73L22.92,9A1.73,1.73,0,0,0,22.9,11.46Zm.2.82a4.77,4.77,0,0,1,3.15,1.1l-1.91.4C24,13.36,23.61,12.91,23.1,12.28Zm1.77,2.05a4,4,0,0,1,3.66,1.1l-2.21.5C25.88,15.45,25.42,15,24.87,14.33ZM26.7,16.4a6.29,6.29,0,0,1,3.85.32c0,.31,0,.58,0,.88l-1.71.75Zm2,11.1,1.82.78c0,.28.05.56.08.89a6.38,6.38,0,0,1-3.82.35ZM26.31,30l2,.44a3.08,3.08,0,0,1-3.42,1.09Zm-2,2.15,1.91.4a4.71,4.71,0,0,1-3.15,1.09ZM21,36.26a6.54,6.54,0,0,1,1.72-1.88c-.33.93-.61,1.78.2,2.49l-.57,1.33a3,3,0,0,1-.79-.57,7,7,0,0,1-.6-1.19A.24.24,0,0,1,21,36.26Zm-.68.82,1.25,1.69-.41.65a2.43,2.43,0,0,1-1.94-.87ZM18.91,39c.77.49.05.91.27,1.44L18,40.16ZM17.55,40.8l1.45.36-1,1.13-1.23-.42ZM19.72,66A16.05,16.05,0,0,1,17,62.23L19.89,60l2.89,4Zm3.37-1.53,2.36,2.91-3,1.89c-.67-.78-1.4-1.65-2.15-2.54Zm-7,1.34c.32.4.79,0,1.17,0,1-.21,1-.24,1.59.86h-4L16.1,63c.87.8.85.79.32,1.73C16.23,65,15.66,65.38,16,65.85Zm.77-.59c.08-.36.15-.66.27-1.13L18,65.32Zm-.38-3.8-1.74-2.84,2.73-2.25,1,1.51,1.08,1.61Zm-2.21-3.59c-.72-1.16-1.4-2.23-2.12-3.38.59-.37,1.16-.7,1.7-1.08s1-.78,1.54-1.21L17,55.65ZM5,20.52H8.6v4.86H5.1A10.48,10.48,0,0,1,5,20.52Zm0,5.75L8.58,26c.07,1.34.14,2.55.2,3.75l-3.53-.23C5.17,28.51,5.08,27.44,5,26.27Zm.33,4.24H8.85c.23,1.29.46,2.51.7,3.83h-4C5.49,33.05,5.41,31.78,5.32,30.51Zm.52,7.76c-.07-1.05-.13-2-.21-3.14H9.7c.6,1.58,1.22,3.23,1.89,5Zm7.76,8.07L15,51.59l-3.29,2.34-1.7-2.71C11.22,49.61,12.38,48,13.6,46.34ZM6.2,56.51,9,52.72l.1.07c-.46,1.82-.92,3.65-1.43,5.63Zm1.94,2.57a.59.59,0,0,1,0-.45,23.4,23.4,0,0,0,1.38-5,3.84,3.84,0,0,1,.15-.44c.64,1,1.26,1.78.94,3a41.46,41.46,0,0,1-1.26,4.52C8.91,60.12,8.51,59.61,8.14,59.08Zm2,2.84c-.17-.23-.32-.47-.45-.67l1.84-5,.91,1.44L10.7,62.57C10.51,62.33,10.33,62.13,10.17,61.92Zm1.12,1.53a1.13,1.13,0,0,1,.09-.8c.55-1.3,1.13-2.59,1.71-3.92a1.49,1.49,0,0,1,.44,2c-.55,1.2-.95,2.46-1.47,3.86A6.93,6.93,0,0,1,11.29,63.45Zm1.07,1.6,1.85-4.8,1.47,2c-.61,1.62-1.19,3.18-1.86,5Zm1.78,2.54c1.78-.36,3.45-.1,5.15-.38l1.45,2c-1.65.13-3.15.25-4.65.35a.8.8,0,0,1-.58-.21C15.06,68.83,14.65,68.26,14.14,67.59ZM16.09,70c1.55-.08,3-.14,4.5-.24.81,0,.95.58,1.32,1.09l-3.43.26-.29,0C16.83,71.33,16.83,71.33,16.09,70Zm2.8,3.3a.8.8,0,0,1-.59-.21,13.4,13.4,0,0,1-.88-1.18l.88,0c1.28-.06,2.56-.1,3.84-.18a.76.76,0,0,1,.75.28c.28.37.58.73,1,1.28A16.79,16.79,0,0,0,18.89,73.28ZM23,70,26,68l2.74,2.63L25.56,73Zm10,4.37-4.21,1.37c-.79.26-.8.26-1.36-.4L26,73.56l3.24-2.41,4.49,3A6.26,6.26,0,0,1,33.07,74.38ZM36,60.93c-.28,3.53-.29,7.07-.42,10.71-.26-.13-.48-.24-.67-.36A36.68,36.68,0,0,1,24.54,61.13c-1-1.45-2.07-2.88-3.07-4.33a34.63,34.63,0,0,1-4.91-11c0-.09,0-.19,0-.38,3.49,1,6.86,2,10.29,2.87s6.93,1.41,10.43,2.1C36.81,53.91,36.26,57.41,36,60.93ZM37.92,47l-2.32-.33a6.16,6.16,0,0,1,3-2.75A27.79,27.79,0,0,1,37.92,47Zm1-4-1.19.27A4.44,4.44,0,0,1,39.17,40C40,41.14,39,42,39,43Zm.11,25.94c.88-.07.57.69,1,1l-1,.47Zm0,2.27,1.34-.6c0,.48-.08.94-.13,1.5l-1.21.42Zm0,19.39V85.93l.07,0s.08,0,.08,0c.68,1.71,1.36,3.43,2.11,5.34Zm3.06,1C41.43,89.59,40.73,87.77,40,86a2.63,2.63,0,0,1,2.27,1.48,23.73,23.73,0,0,1,1.82,4.69Zm2.73.86a.74.74,0,0,1-.39-.49A16.86,16.86,0,0,0,43,87.1l1.79.69,1.48,5.07A14.2,14.2,0,0,1,44.89,92.38Zm1.91-.21c-.26-1.28-.56-2.56-.84-3.82,1.12.12,1.19.19,1.46,1.18.35,1.3.72,2.6,1.08,3.9C47.32,93.49,47,93.22,46.8,92.17Zm2.33,1.67c-.12,0-.21-.24-.25-.38-.36-1.48-.7-3-1.08-4.58l2.3.73c.45,1.62.89,3.22,1.37,4.91A6.89,6.89,0,0,1,49.13,93.84Zm4.77,1.6c-.59-.21-1.2-.38-2-.64L56,91.53l2.44.81c-.31.23-.48.35-.64.48-1,.77-1.92,1.5-2.82,2.31A1,1,0,0,1,53.9,95.44Zm2.12.63c-.32-.12-.66-.22-1.11-.36l.55-.48c.88-.7,1.8-1.34,2.63-2.1a1.46,1.46,0,0,1,2-.22c-1.1,1-2.18,2-3.24,2.92A.78.78,0,0,1,56,96.07Zm1.87.58a6.88,6.88,0,0,0-.68-.27l4.14-3.2,1,.24c.2,0,.41.13.74.23l-.6.45a33.26,33.26,0,0,0-2.8,2.18A1.42,1.42,0,0,1,57.89,96.65Zm1.47.45a22.71,22.71,0,0,1,4.78-3,1.29,1.29,0,0,1,.65,0c.53.09,1,.22,1.68.35l-5.15,3.36Zm5,1.67L62.1,98l4.83-3,.13.1Zm.73-6.07,1.19-3.85,5.45-.25-3.54,4.88Zm15.78,5.66a9.7,9.7,0,0,0-3.21,4,35.12,35.12,0,0,0-2.32,6.84,3,3,0,0,1-.4,1l-.24-.79c-.63-2-1.18-4-1.91-6a14.5,14.5,0,0,0-1.69-3.12,21.33,21.33,0,0,0-2.07-2.26l6-8.21,6,8.22C81,98.25,81,98.33,80.91,98.36Zm.93-4.88L78.29,88.6l5.44.25,1.21,3.85Zm3.83,5.31-2.76-3.85.09-.07L88,98Zm3.07-1L83.62,94.4a2,2,0,0,1,.26-.09c1.84-.4,1.85-.43,3.51.54,1,.57,1.88,1.22,2.82,1.84a6.08,6.08,0,0,1,.47.4Zm3.62-1.16c-1.17.39-1.14.36-2.1-.46S88.2,94.5,87.1,93.64a8.18,8.18,0,0,1,1.62-.46l4.13,3.2C92.65,96.47,92.51,96.54,92.36,96.59Zm1.52-.5a.69.69,0,0,1-.53-.12c-1.14-1-2.27-2-3.42-3.06a1.46,1.46,0,0,1,2,.2c.86.8,1.85,1.48,2.78,2.21l.44.4C94.65,95.87,94.27,96,93.88,96.09Zm1.82-.53-4-3.24L94,91.53l4.06,3.23A15.3,15.3,0,0,1,95.7,95.56Zm5.53-2.3a.87.87,0,0,1-.63.74c-.6.17-1.2.4-1.79.6l-.18-.18c.43-1.57.87-3.13,1.33-4.8l2.41-.78a4.35,4.35,0,0,1-.08.43C101.93,90.6,101.56,91.92,101.23,93.26Zm.32.25c.4-1.49.8-3,1.21-4.44.19-.68.82-.6,1.42-.83-.07.31-.12.51-.17.71-.24,1-.53,2-.73,3C103,93.26,103,93.34,101.55,93.51Zm3.41-1-1.24.37c.39-1.2.71-2.17,1-3.15a1.59,1.59,0,0,0,.14-.56c-.06-1.35.85-1.69,1.91-1.9,0,.06.08.13.07.17a17.23,17.23,0,0,0-1.27,4.33A.8.8,0,0,1,105,92.49Zm3.5-2.53c-.07,1.51-1.07,2-2.44,2.07a2.78,2.78,0,0,1,.11-.6c.51-1.29,1-2.56,1.54-3.85a2.11,2.11,0,0,1,1.38-1.36c.33-.1.64-.26,1.1-.45-.57,1.38-1.07,2.6-1.56,3.83A1.2,1.2,0,0,0,108.46,90Zm2.48.6-2.25.72,2.13-5.35h.12Zm0-6.52L108,85.21l-1.3-3.83,4.09-3.27A27.65,27.65,0,0,1,110.91,84Zm0-44.07a5.8,5.8,0,0,1,1.53,3.24l-.64-.1-.65-.12C111.05,42,110.13,41.15,110.9,40Zm.55,4.14a4.08,4.08,0,0,1,2.88,2.56l-2.21.35C111.88,46,111.67,45.06,111.45,44.11Zm11.8,4.21c3.43-.82,6.8-1.89,10.28-2.87a5.7,5.7,0,0,1-.11.62,35.35,35.35,0,0,1-5.9,12.28,80.76,80.76,0,0,1-6,7.69,36.86,36.86,0,0,1-6.73,5.47,1.79,1.79,0,0,1-.4.13,111.17,111.17,0,0,0-1.69-21.2C116.28,49.74,119.79,49.15,123.25,48.32Z"/><path d="M110.41,94.15a.92.92,0,0,0-1-1,1.3,1.3,0,0,0-1.31,1.17,1.07,1.07,0,0,0,1,1.16A1.4,1.4,0,0,0,110.41,94.15Z"/><path d="M125.62,54.61A.6.6,0,0,0,125,54c-.36,0-.66.33-.64.87a2,2,0,0,0,.62.43C125.31,55.38,125.65,55,125.62,54.61Z"/><path d="M115.91,62.43a.45.45,0,0,0-.51-.46c-.36,0-.65.2-.64.57,0,.2.2.4.27.52C115.53,63.09,115.92,62.75,115.91,62.43Z"/><path d="M117.54,66.46a.71.71,0,0,0-.63.71.62.62,0,0,0,.67.64.57.57,0,0,0,.56-.63C118.12,66.77,117.86,66.45,117.54,66.46Z"/><path d="M116.51,57.2a.67.67,0,0,0-.64.69.64.64,0,0,0,.63.6.67.67,0,0,0,.69-.64A.66.66,0,0,0,116.51,57.2Z"/><path d="M117.09,56.23a.74.74,0,0,0,.7.75.75.75,0,1,0,.12-1.5A.77.77,0,0,0,117.09,56.23Z"/><path d="M116.32,65.46c.08-.33-.2-.51-.53-.51s-.72.37-.61.68.28.34.53.62C116,65.91,116.26,65.71,116.32,65.46Z"/><path d="M116.12,68a.68.68,0,0,0-.76.68c0,.23.25.43.34.57.53,0,1.07-.53,1-.83A.81.81,0,0,0,116.12,68Z"/><path d="M116.3,53.67a.76.76,0,0,0-.68.87.67.67,0,0,0,.7.64.76.76,0,1,0,0-1.51Z"/><path d="M120,60.66a.58.58,0,0,0,.57.62.66.66,0,0,0,.72-.61.55.55,0,0,0-.57-.62A.65.65,0,0,0,120,60.66Z"/><path d="M68.66,84.7c.32-.27.63-.4.73-.63s-.18-.62-.61-.65-.82.24-.73.54S68.39,84.38,68.66,84.7Z"/><path d="M116.9,60.55a.8.8,0,0,0-.87.71.73.73,0,0,0,.73.73.8.8,0,0,0,.8-.78A.63.63,0,0,0,116.9,60.55Z"/><path d="M118.14,60.38a.72.72,0,0,0,.76-.7.7.7,0,0,0-.6-.74.74.74,0,0,0-.82.74A.72.72,0,0,0,118.14,60.38Z"/><path d="M118.8,54.17a.61.61,0,0,0-.56.65c0,.37.35.71.69.59a2,2,0,0,0,.57-.46C119.48,54.42,119.14,54.11,118.8,54.17Z"/><path d="M127.13,54.87a1,1,0,0,0-.87,1,.7.7,0,0,0,.72.73,1.21,1.21,0,0,0,1-1.05A.77.77,0,0,0,127.13,54.87Z"/><path d="M126.06,57a.87.87,0,0,0-.89.82.63.63,0,0,0,.68.73.82.82,0,0,0,1-.72A.77.77,0,0,0,126.06,57Z"/><path d="M117.49,63a.91.91,0,0,0-.92.81.73.73,0,0,0,.79.77.84.84,0,0,0,.92-.78A.79.79,0,0,0,117.49,63Z"/><path d="M124,59.79a.9.9,0,0,0-.88.85.76.76,0,0,0,.74.82.74.74,0,0,0,.8-.77A.79.79,0,0,0,124,59.79Z"/><path d="M130.17,50.29c.45,0,.71-.21.7-.58a.63.63,0,0,0-.68-.64.74.74,0,0,0-.66.69C129.53,50.19,129.82,50.28,130.17,50.29Z"/><path d="M128.34,53.1a.82.82,0,0,0-.83.76.72.72,0,0,0,.71.83.84.84,0,0,0,.84-.86A.71.71,0,0,0,128.34,53.1Z"/><path d="M131.11,48.49c.31,0,.63-.49.6-1a1.5,1.5,0,0,0-.57-.33c-.34,0-.67.45-.61.83A.54.54,0,0,0,131.11,48.49Z"/><path d="M45.41,95.88a1.52,1.52,0,0,0-1.12-1.58,1.14,1.14,0,0,0-1.22,1.08,1.28,1.28,0,0,0,1.11,1.44A1.1,1.1,0,0,0,45.41,95.88Z"/><path d="M119.36,64.9a.82.82,0,0,0-.84.74.74.74,0,0,0,.68.78.81.81,0,0,0,.78-.8A.69.69,0,0,0,119.36,64.9Z"/><path d="M124.22,56.63a.6.6,0,0,0-.58-.65.86.86,0,0,0-.8.9c0,.23.29.41.39.53C123.82,57.41,124.24,57,124.22,56.63Z"/><path d="M119,63.05a.72.72,0,0,0,.75-.71.67.67,0,0,0-.64-.7.71.71,0,0,0-.11,1.41Z"/><path d="M121,63.22a.91.91,0,0,0-.89.85.79.79,0,0,0,.72.77,1,1,0,0,0,.9-.85A.82.82,0,0,0,121,63.22Z"/><path d="M122.41,61.46a1,1,0,0,0-1,1,.77.77,0,0,0,.76.72,1.09,1.09,0,0,0,.89-1.08A.69.69,0,0,0,122.41,61.46Z"/><path d="M129.25,22.33c-.37,0-.74.29-.65.63a1.86,1.86,0,0,0,.41.6c.54,0,.87-.27.84-.62A.6.6,0,0,0,129.25,22.33Z"/><path d="M131.76,24.44c-.37-.08-.73.33-.74.71a.62.62,0,0,0,.65.67c.38,0,.71-.38.69-.95C132.22,24.76,132,24.5,131.76,24.44Z"/><path d="M131.59,23.75a.81.81,0,1,0-.68-.78A.73.73,0,0,0,131.59,23.75Z"/><path d="M131.54,26.56a.7.7,0,0,0-.72.73.68.68,0,0,0,.64.7.72.72,0,1,0,.08-1.43Z"/><path d="M132.06,29.36a.69.69,0,0,0-.58-.75.92.92,0,0,0-.87.84.68.68,0,0,0,.66.68A.76.76,0,0,0,132.06,29.36Z"/><path d="M25.34,23.38a.93.93,0,0,0-.82.9.76.76,0,0,0,.76.8.86.86,0,0,0,.8-.89A.74.74,0,0,0,25.34,23.38Z"/><path d="M129.21,20.43a.73.73,0,0,0-.72.73.79.79,0,0,0,.77.79.76.76,0,0,0,0-1.52Z"/><path d="M120.94,55.43a1,1,0,0,0-.89.86.69.69,0,0,0,.65.7.91.91,0,0,0,.88-.85A.69.69,0,0,0,120.94,55.43Z"/><path d="M130.86,31.84c.25-.07.43-.37.75-.66-.31-.23-.48-.46-.68-.48-.39,0-.57.26-.59.61S130.53,31.93,130.86,31.84Z"/><path d="M25.25,20.82a.77.77,0,0,0-.73.83.92.92,0,0,0,.85.87.75.75,0,0,0,.71-.84A.85.85,0,0,0,25.25,20.82Z"/><path d="M131.33,15.76a.68.68,0,0,0-.71.62.9.9,0,0,0,.8.91.68.68,0,0,0,.64-.69A.77.77,0,0,0,131.33,15.76Z"/><path d="M130.34,14.62c0,.35.35.68.62.58s.36-.28.66-.53c-.35-.28-.55-.56-.8-.61S130.32,14.29,130.34,14.62Z"/><path d="M130.82,18.6a.71.71,0,1,0,1.41,0,.67.67,0,0,0-.67-.68A.68.68,0,0,0,130.82,18.6Z"/><path d="M131.61,20.08a.64.64,0,0,0-.59.73c0,.39.45.76.8.64s.43-.37.55-.49C132.34,20.39,132,20.05,131.61,20.08Z"/><path d="M124.75,25.08a.76.76,0,0,0,.79-.77.93.93,0,0,0-.8-.93.77.77,0,0,0-.78.78A.91.91,0,0,0,124.75,25.08Z"/><path d="M127,20.22a.71.71,0,0,0,.62-.73.67.67,0,1,0-1.32.1A.66.66,0,0,0,127,20.22Z"/><path d="M127,25.68a.67.67,0,0,0-.61.72.69.69,0,0,0,.65.7.72.72,0,0,0,.67-.78A.7.7,0,0,0,127,25.68Z"/><path d="M126.92,21a.81.81,0,0,0-.7.87.71.71,0,0,0,.7.64.84.84,0,0,0,.77-.82A.75.75,0,0,0,126.92,21Z"/><path d="M124.76,20.81a.92.92,0,0,0-.8.92.78.78,0,0,0,.78.79.94.94,0,0,0,.8-.92A.77.77,0,0,0,124.76,20.81Z"/><path d="M123.5,22.39a.52.52,0,0,0-.6.58c0,.34.23.58.55.53s.42-.27.75-.51C123.89,22.71,123.72,22.46,123.5,22.39Z"/><path d="M128.38,29c.05.25.29.47.55.87.29-.38.54-.58.62-.83a.54.54,0,0,0-.61-.65C128.55,28.38,128.32,28.63,128.38,29Z"/><path d="M126.89,23.38a.72.72,0,0,0-.67.68.81.81,0,0,0,.74.83.75.75,0,0,0,.73-.73A.84.84,0,0,0,126.89,23.38Z"/><path d="M129.76,26.59a1.88,1.88,0,0,0-.57-.42.63.63,0,1,0-.1,1.26C129.46,27.43,129.74,27.15,129.76,26.59Z"/><path d="M129,16.31c-.32-.12-.67.25-.65.62s.2.6.59.6.58-.2.64-.74A1.88,1.88,0,0,0,129,16.31Z"/><path d="M128.91,18.47a1.73,1.73,0,0,0-.42.6c-.09.37.31.72.72.68a.56.56,0,0,0,.54-.64C129.74,18.73,129.45,18.46,128.91,18.47Z"/><path d="M130,24.67a.77.77,0,0,0-.73-.72.78.78,0,0,0-.77.8.72.72,0,0,0,.73.71A.76.76,0,0,0,130,24.67Z"/><path d="M18.52,28a.72.72,0,0,0,.74-.72.74.74,0,0,0-.75-.71.71.71,0,0,0-.69.77A.69.69,0,0,0,18.52,28Z"/><path d="M19.13,23c0-.5-.23-.86-.66-.88a.71.71,0,0,0-.74.71.75.75,0,0,0,.67.89A.7.7,0,0,0,19.13,23Z"/><path d="M19.16,31.85a.43.43,0,0,0,.53-.51,4.29,4.29,0,0,0-.51-.92c-.25.37-.46.54-.49.74A.54.54,0,0,0,19.16,31.85Z"/><path d="M48.63,96.9a1.47,1.47,0,0,0-1.34-1.28,1.07,1.07,0,0,0-1,1,1.25,1.25,0,0,0,1.21,1.25A1.1,1.1,0,0,0,48.63,96.9Z"/><path d="M18.76,30.13a.67.67,0,0,0,.69-.74.94.94,0,0,0-.84-.79.74.74,0,0,0-.63.73A.79.79,0,0,0,18.76,30.13Z"/><path d="M18.6,19.34a.76.76,0,0,0,.66-.71.72.72,0,1,0-1.44,0A.74.74,0,0,0,18.6,19.34Z"/><path d="M19.94,14.55c-.36-.24-.6-.52-.75-.48a.92.92,0,0,0-.5.57c-.08.31.11.63.45.55S19.58,14.86,19.94,14.55Z"/><path d="M18,16.57a.69.69,0,0,0,.73.71.93.93,0,0,0,.75-.87.71.71,0,0,0-.7-.65A.8.8,0,0,0,18,16.57Z"/><path d="M55.19,98.84a1.09,1.09,0,0,0-1.18-1,1.15,1.15,0,0,0-1.27,1.05A1.28,1.28,0,0,0,54,100,1.22,1.22,0,0,0,55.19,98.84Z"/><path d="M51.91,97.76a1.23,1.23,0,0,0-1.23-1.13,1.14,1.14,0,0,0-1.15,1.17,1.21,1.21,0,0,0,1.21,1.14A1.17,1.17,0,0,0,51.91,97.76Z"/><path d="M18.34,25.82a.66.66,0,0,0,.72-.61.8.8,0,0,0-.7-.78.56.56,0,0,0-.64.56A.74.74,0,0,0,18.34,25.82Z"/><path d="M58.51,99.69A1.1,1.1,0,0,0,57.4,98.6,1.42,1.42,0,0,0,56,99.91,1.16,1.16,0,0,0,57.23,101,1.41,1.41,0,0,0,58.51,99.69Z"/><path d="M62,100.79a1.17,1.17,0,0,0-1.27-1.05,1.2,1.2,0,0,0-1.17,1.18,1,1,0,0,0,1.08,1A1.27,1.27,0,0,0,62,100.79Z"/><path d="M20.78,22a.82.82,0,0,0,.81-.77.76.76,0,0,0-.71-.75.76.76,0,0,0-.1,1.52Z"/><path d="M23.12,22.52a.72.72,0,0,0,.73-.72.83.83,0,0,0-.69-.79.74.74,0,0,0-.78.67A.81.81,0,0,0,23.12,22.52Z"/><path d="M23.73,19.53a.71.71,0,0,0-.62-.73.71.71,0,0,0,0,1.42A.68.68,0,0,0,23.73,19.53Z"/><path d="M26.52,23.5c.26,0,.49-.26.92-.51-.4-.29-.6-.54-.85-.6s-.51.2-.52.53S26.19,23.54,26.52,23.5Z"/><path d="M20.81,25.46a.75.75,0,0,0,.78-.68.81.81,0,0,0-.74-.83.76.76,0,1,0,0,1.51Z"/><path d="M23.06,24.89a.81.81,0,0,0,.79-.79.73.73,0,0,0-.63-.72.8.8,0,0,0-.84.74A.75.75,0,0,0,23.06,24.89Z"/><path d="M23.12,25.68a.71.71,0,0,0-.72.63.74.74,0,0,0,.66.8.71.71,0,0,0,.66-.7A.66.66,0,0,0,23.12,25.68Z"/><path d="M18.34,21.47a.8.8,0,0,0,.72-.77.66.66,0,0,0-.71-.62.72.72,0,0,0-.63.81A.56.56,0,0,0,18.34,21.47Z"/><path d="M21.6,26.83c0-.36-.29-.67-.83-.7-.11.14-.37.32-.46.57s.21.68.58.72A.62.62,0,0,0,21.6,26.83Z"/><path d="M20.84,19.75c.4.05.82-.29.74-.66a1.81,1.81,0,0,0-.41-.61c-.54,0-.86.25-.88.62A.58.58,0,0,0,20.84,19.75Z"/><path d="M21.08,29.59c.26-.06.47-.3.85-.58-.35-.29-.55-.56-.79-.62s-.61.14-.66.51S20.75,29.67,21.08,29.59Z"/><path d="M20.48,17a.56.56,0,0,0,.62.58c.4,0,.55-.24.62-.76-.15-.12-.34-.39-.59-.46S20.46,16.58,20.48,17Z"/><path d="M20.23,22.87a.57.57,0,0,0,.6.68c.26-.05.48-.29.88-.56-.37-.3-.57-.57-.82-.64S20.29,22.49,20.23,22.87Z"/><path d="M118.89,58.05a.68.68,0,0,0,.69.64.77.77,0,0,0,.71-.77.62.62,0,0,0-.74-.56A.68.68,0,0,0,118.89,58.05Z"/><path d="M59.65,78.16a.69.69,0,0,0,.64-.7.62.62,0,0,0-.71-.6.69.69,0,0,0-.7.65A.67.67,0,0,0,59.65,78.16Z"/><path d="M58.9,74.4a1.87,1.87,0,0,0-.49-.57c-.52,0-.82.39-.75.74a.62.62,0,0,0,.67.55C58.69,75.1,59,74.73,58.9,74.4Z"/><path d="M53.22,77.31a.63.63,0,0,0-.62.69c0,.34.39.68.72.59a2,2,0,0,0,.59-.44C53.88,77.63,53.56,77.31,53.22,77.31Z"/><path d="M60.53,13.39l.89-1.21-1.13-.94c-.34.46-.65.89-1,1.43a2.08,2.08,0,0,1,.74.16A3.06,3.06,0,0,1,60.53,13.39Z"/><path d="M60.29,79.63a.66.66,0,0,0-.63.69.62.62,0,0,0,.64.57.67.67,0,0,0,.68-.64A.65.65,0,0,0,60.29,79.63Z"/><path d="M62.41,78a.72.72,0,0,0-.76-.7A.7.7,0,0,0,61,78a.74.74,0,0,0,.72.75A.71.71,0,0,0,62.41,78Z"/><path d="M55.38,78.08c-.11.14-.38.32-.47.57s.27.73.69.76a.72.72,0,0,0,.8-.54C56.44,78.52,56,78.12,55.38,78.08Z"/><path d="M54.23,80.32a.78.78,0,0,0-.76.82.76.76,0,0,0,.74.74c.45,0,.95-.41.94-.78A.86.86,0,0,0,54.23,80.32Z"/><path d="M62.09,82.38a.77.77,0,0,0-.85.72.74.74,0,0,0,.78.79.72.72,0,0,0,.85-.69A.84.84,0,0,0,62.09,82.38Z"/><path d="M57.36,74a.76.76,0,0,0-.76-.8.73.73,0,0,0-.75.7.8.8,0,0,0,.76.81A.76.76,0,0,0,57.36,74Z"/><path d="M57.53,81.38a.68.68,0,0,0-.71.74,1,1,0,0,0,.87.89.82.82,0,0,0,.76-.83A.87.87,0,0,0,57.53,81.38Z"/><path d="M57.59,77.49a.69.69,0,0,0,.76-.68.86.86,0,0,0-1-.75.67.67,0,0,0-.66.68A.83.83,0,0,0,57.59,77.49Z"/><path d="M57.9,78.86c-.36,0-.66.07-.73.47a.83.83,0,0,0,.77.84.69.69,0,0,0,.74-.61A.77.77,0,0,0,57.9,78.86Z"/><path d="M93.82,23.76V22.13l-1.57.14a1.06,1.06,0,0,1,0,1.36Z"/><path d="M81,39.13a2.19,2.19,0,0,1-.55.41,2.56,2.56,0,0,1-.77.06l.37,1.5,1.54-.52Z"/><path d="M89.76,11.22l-1.2,1a1.16,1.16,0,0,1,.8,1.16l1.37-.86Z"/><path d="M62.61,80a.71.71,0,0,0-.75.7.73.73,0,0,0,.78.68.7.7,0,0,0,.65-.7A.71.71,0,0,0,62.61,80Z"/><path d="M70.32,39.71l-1.45-.55c.29.62-.41.94-.43,1.45l1.55.48Q70.19,40.31,70.32,39.71Z"/><path d="M60.35,34.74c.31-.45.58-.92,1.12-1l-.9-1.23-1.24.79Z"/><path d="M89.49,32.59l-.85,1.12,1.13.95,1-1.31Z"/><path d="M66.5,81.31a.46.46,0,0,0,.54.51,3.83,3.83,0,0,0,.95-.5c-.41-.26-.6-.48-.83-.52A.52.52,0,0,0,66.5,81.31Z"/><path d="M64.77,80.1a.84.84,0,0,0-.89.82.77.77,0,0,0,.8.78,1,1,0,0,0,.92-.83A.82.82,0,0,0,64.77,80.1Z"/><path d="M64.23,82.76a.7.7,0,0,0-.64.7.87.87,0,0,0,.83.77.71.71,0,0,0,.68-.76A.81.81,0,0,0,64.23,82.76Z"/><path d="M66.27,78.59c-.07-.22-.34-.38-.61-.68-.25.32-.48.5-.55.72s.3.58.65.52S66.36,78.94,66.27,78.59Z"/><path d="M66.42,83.05c-.1.11-.36.27-.41.48a.74.74,0,0,0,.6.84.65.65,0,0,0,.66-.66C67.26,83.34,67,83.07,66.42,83.05Z"/><path d="M60,81.79a.87.87,0,0,0-.94.64c0,.41.51.95,1,1a.76.76,0,0,0,.76-.71A.92.92,0,0,0,60,81.79Z"/><path d="M60,74.29a.8.8,0,0,0-.78.8.76.76,0,0,0,.77.69.75.75,0,1,0,0-1.49Z"/><path d="M60.18,73.42a.66.66,0,0,0,.68-.66.85.85,0,0,0-.77-.82.71.71,0,0,0-.71.73A.75.75,0,0,0,60.18,73.42Z"/><path d="M54.77,76.14a.79.79,0,0,0,.77.72.59.59,0,0,0,.6-.62.77.77,0,0,0-.71-.77A.65.65,0,0,0,54.77,76.14Z"/><path d="M60.11,69.54a.49.49,0,0,0,.53-.55.54.54,0,0,0-.56-.55.55.55,0,0,0-.59.52A.57.57,0,0,0,60.11,69.54Z"/><path d="M55.7,72a.69.69,0,0,0,.71-.63.65.65,0,0,0-.65-.67.61.61,0,0,0-.75.54A.72.72,0,0,0,55.7,72Z"/><path d="M57.85,72.67a.75.75,0,0,0,.76-.71.68.68,0,0,0-.65-.7.71.71,0,1,0-.11,1.41Z"/><path d="M121.43,58.76c.07.25.33.45.43.59.61,0,.93-.36.92-.83s-.24-.63-.59-.6S121.34,58.41,121.43,58.76Z"/><path d="M63.78,79.21a.76.76,0,0,0,.74-.73.69.69,0,0,0-.74-.7.84.84,0,0,0-.81.79A.74.74,0,0,0,63.78,79.21Z"/><path d="M64.71,76.15c.1-.34-.25-.64-.65-.64s-.62.27-.57.6.31.46.58.83C64.37,76.59,64.63,76.4,64.71,76.15Z"/><path d="M62.06,75a.64.64,0,0,0-.76.64.61.61,0,0,0,.61.61c.36,0,.69-.26.72-.8C62.49,75.31,62.31,75,62.06,75Z"/><path d="M61.54,73.41a.72.72,0,0,0,.77.69.66.66,0,0,0,.65-.69.79.79,0,0,0-.83-.64A.62.62,0,0,0,61.54,73.41Z"/><path d="M60.08,70.55a.89.89,0,0,0,.9.9.75.75,0,0,0,.73-.73,1,1,0,0,0-.92-.91A.73.73,0,0,0,60.08,70.55Z"/><path d="M48,77.49a.7.7,0,0,0-.68.75.69.69,0,0,0,.78.65.71.71,0,0,0,.75-.68A.8.8,0,0,0,48,77.49Z"/><path d="M47.36,75.39a1.51,1.51,0,0,0,.34-.45.61.61,0,0,0-.61-.68.8.8,0,0,0-.51.44C46.48,75,46.84,75.36,47.36,75.39Z"/><path d="M52.17,79.26a.83.83,0,0,0-.89.81c0,.44.37.7,1,.72s.81-.2.84-.59A1,1,0,0,0,52.17,79.26Z"/><path d="M44.09,75.4a.52.52,0,0,0-.52.56.85.85,0,0,0,.81.67c.22,0,.42-.25.55-.34A.86.86,0,0,0,44.09,75.4Z"/><path d="M45.45,77a.61.61,0,0,0,.58.65.85.85,0,0,0,.78-.86,2.33,2.33,0,0,0-.66-.41A.62.62,0,0,0,45.45,77Z"/><path d="M54.76,73.85a.57.57,0,0,0,.53-.66.67.67,0,0,0-.67-.65.65.65,0,0,0-.59.72A.66.66,0,0,0,54.76,73.85Z"/><path d="M50.08,78.5a.79.79,0,0,0-.76.72.92.92,0,0,0,.88.84.8.8,0,0,0,.76-.72A.89.89,0,0,0,50.08,78.5Z"/><path d="M51.87,77a.72.72,0,0,0-.75-.71.7.7,0,1,0,.08,1.39A.7.7,0,0,0,51.87,77Z"/><path d="M52.65,73c.26-.07.47-.33.84-.61a4.25,4.25,0,0,0-.85-.6c-.3-.1-.62.22-.64.55S52.31,73.08,52.65,73Z"/><path d="M52.74,75.41a.73.73,0,0,0,1.45-.09.78.78,0,0,0-.78-.7A.72.72,0,0,0,52.74,75.41Z"/><path d="M51.6,75.27a.63.63,0,0,0,.63-.69.82.82,0,0,0-.77-.81.68.68,0,0,0-.68.75A.8.8,0,0,0,51.6,75.27Z"/><path d="M50.41,73.58c.05-.37-.23-.58-.57-.64s-.65.23-.55.49a3.75,3.75,0,0,0,.64.81C50.17,73.93,50.39,73.77,50.41,73.58Z"/><path d="M49.38,76.72a.77.77,0,0,0,.75-.83.94.94,0,0,0-.9-.84.72.72,0,0,0-.73.82A.91.91,0,0,0,49.38,76.72Z"/><path d="M58.39,70.63a.89.89,0,0,0,.92-.79.81.81,0,0,0-.82-.77.82.82,0,0,0-.91.77A.84.84,0,0,0,58.39,70.63Z"/><path d="M33.74,65.45c0,.37.26.57.61.6s.61-.17.55-.49-.34-.46-.62-.83C34,65.06,33.76,65.24,33.74,65.45Z"/><path d="M34,68c-.34,0-.55.16-.55.52s.48.79.79.73a1.77,1.77,0,0,0,.55-.37A.85.85,0,0,0,34,68Z"/><path d="M35.63,54.07a.76.76,0,0,0,.7-.85.85.85,0,0,0-.84-.86.79.79,0,0,0-.71.86A.86.86,0,0,0,35.63,54.07Z"/><path d="M26.08,59.8c-.42,0-.69.33-.69.86a.74.74,0,0,0,.76.81.79.79,0,0,0,.79-.8A.9.9,0,0,0,26.08,59.8Z"/><path d="M34.17,62.38a.64.64,0,0,0,.66.67c.2,0,.38-.23.73-.46a4,4,0,0,0-.85-.6C34.44,61.9,34.21,62.06,34.17,62.38Z"/><path d="M35.84,52a3,3,0,0,0,.79-.49c-.31-.28-.48-.54-.71-.61a.48.48,0,0,0-.62.44C35.25,51.61,35.55,52,35.84,52Z"/><path d="M32.49,66.46a.74.74,0,0,0-.59.76.56.56,0,0,0,.61.59.65.65,0,0,0,.66-.67A.74.74,0,0,0,32.49,66.46Z"/><path d="M29.11,63.22a.78.78,0,0,0-.76.72,1,1,0,0,0,.84.89.73.73,0,0,0,.74-.72A.87.87,0,0,0,29.11,63.22Z"/><path d="M30.92,61.65a.67.67,0,0,0-.6.73.7.7,0,0,0,.78.66.69.69,0,0,0,.61-.73A.7.7,0,0,0,30.92,61.65Z"/><path d="M28.59,62.41a1,1,0,0,0-.91-.94.64.64,0,0,0-.7.62,1.08,1.08,0,0,0,.83,1.11A.75.75,0,0,0,28.59,62.41Z"/><path d="M29.38,60.05a.57.57,0,0,0-.6.61.68.68,0,0,0,.72.62.57.57,0,0,0,.59-.57A.67.67,0,0,0,29.38,60.05Z"/><path d="M30.71,64.91a.61.61,0,0,0-.61.7.77.77,0,0,0,.75.81.71.71,0,0,0,.67-.77A.77.77,0,0,0,30.71,64.91Z"/><path d="M32.6,63a.79.79,0,0,0-.81.77.82.82,0,0,0,.88.81.73.73,0,0,0,.82-.74A.9.9,0,0,0,32.6,63Z"/><path d="M27.82,50.38c.25,0,.49-.28.65-.38,0-.51-.31-.88-.64-.85a.56.56,0,0,0-.59.61C27.24,50.13,27.46,50.42,27.82,50.38Z"/><path d="M74.51,92.17A3,3,0,0,0,75,94.36a3,3,0,0,0,.51-2.21.68.68,0,0,0-.52-.4C74.84,91.76,74.52,92,74.51,92.17Z"/><path d="M76,99.57c-.33.72-.57,1.48-.91,2.39-.18-.45-.29-.74-.41-1-.34-.83-.63-1.69-1-2.48a4.18,4.18,0,0,0-1.14-1.27,1,1,0,0,0-1.38,0,7.37,7.37,0,0,1,2.74,4c.19.51.37,1,.6,1.52a5,5,0,0,0,.6.83,3.88,3.88,0,0,0,1.13-2,8,8,0,0,1,3-4.38,1.62,1.62,0,0,0-2.07.54A10,10,0,0,0,76,99.57Z"/><path d="M74.24,94.56a1.1,1.1,0,0,0-1.45-.6c.17.31.31.58.45.85.28.5.56,1,.81,1.53s.3.85.5,1.25A.74.74,0,0,0,75,98a.69.69,0,0,0,.49-.36c.57-1.15,1.11-2.31,1.65-3.46,0,0,0-.13,0-.19-.89-.19-1-.13-2.12,2A16.31,16.31,0,0,0,74.24,94.56Z"/><path d="M122.12,53.78a.69.69,0,0,0-.63.71.66.66,0,1,0,1.3-.05A.67.67,0,0,0,122.12,53.78Z"/><path d="M115.77,59.39a2.07,2.07,0,0,0-.6-.46.58.58,0,0,0-.66.62,1,1,0,0,0,.52.57C115.35,60.25,115.73,59.9,115.77,59.39Z"/><path d="M33.76,55.18a.7.7,0,0,0,.67-.78.71.71,0,0,0-.74-.73.76.76,0,0,0,.07,1.51Z"/><path d="M34.18,51.93a.74.74,0,0,0,.71-.74.94.94,0,0,0-1-.85.71.71,0,0,0-.7.75A.89.89,0,0,0,34.18,51.93Z"/><path d="M32.35,53.23a.7.7,0,0,0,.72-.72.8.8,0,0,0-.82-.74.69.69,0,0,0-.66.77A.75.75,0,0,0,32.35,53.23Z"/><path d="M29,52.31a.74.74,0,0,0,.66-.69A.64.64,0,0,0,29,51a.61.61,0,0,0-.6.62A.67.67,0,0,0,29,52.31Z"/><path d="M31,51.39a.64.64,0,0,0,.67-.65A.79.79,0,0,0,30.9,50a.61.61,0,0,0-.6.7A.69.69,0,0,0,31,51.39Z"/><path d="M29.39,53.4a.75.75,0,1,0,1.5,0,.77.77,0,0,0-.72-.75A.8.8,0,0,0,29.39,53.4Z"/><path d="M33.28,62a.71.71,0,0,0,.73-.71.76.76,0,0,0-.84-.73.68.68,0,0,0-.7.64A.86.86,0,0,0,33.28,62Z"/><path d="M29.76,57.93a.77.77,0,0,0,.72.76.68.68,0,0,0,.7-.65.71.71,0,0,0-.77-.68A.6.6,0,0,0,29.76,57.93Z"/><path d="M32.17,55.48a.75.75,0,1,0,.81.76A.78.78,0,0,0,32.17,55.48Z"/><path d="M29.17,55.43a.69.69,0,0,0-.69.67.92.92,0,0,0,.84.89.66.66,0,0,0,.68-.66A1,1,0,0,0,29.17,55.43Z"/><path d="M25.85,56.66c0,.41.42.76,1,.74.08-.13.31-.32.34-.55a.82.82,0,0,0-.82-.86A.58.58,0,0,0,25.85,56.66Z"/><path d="M25,54a.59.59,0,0,0-.56.65c0,.39.31.68.84.64a1.86,1.86,0,0,0,.37-.64A.59.59,0,0,0,25,54Z"/><path d="M27.75,57.92c-.36,0-.5.31-.48.67a.75.75,0,0,0,.82.75.56.56,0,0,0,.55-.65A1,1,0,0,0,27.75,57.92Z"/><path d="M31.27,54.18c-.32-.12-.72.24-.71.59a.6.6,0,0,0,.55.65c.36.06.7-.23.73-.76A2,2,0,0,0,31.27,54.18Z"/><path d="M26.07,52.66a.7.7,0,0,0,.75.7.65.65,0,0,0,.67-.66.71.71,0,0,0-.69-.76A.7.7,0,0,0,26.07,52.66Z"/><path d="M31.89,58.94a.7.7,0,0,0-.74.71.73.73,0,0,0,.65.73.74.74,0,0,0,.8-.67A.77.77,0,0,0,31.89,58.94Z"/><path d="M33.54,57.21a.65.65,0,0,0-.68.55.68.68,0,0,0,.61.73.65.65,0,0,0,.71-.61A.64.64,0,0,0,33.54,57.21Z"/><path d="M56.4,24.11c.33-.92.9-.28,1.25-.39V22.28c-.47.4-.9-.22-1.41-.23v1.79Z"/><path d="M35.55,59.55c0-.37-.24-.66-.6-.62s-.47.3-.87.58a3.77,3.77,0,0,0,.86.61A.52.52,0,0,0,35.55,59.55Z"/><path d="M27.88,53.78a.71.71,0,0,0-.63.73.67.67,0,1,0,1.32-.08A.67.67,0,0,0,27.88,53.78Z"/><path d="M21.48,51.83a.81.81,0,0,0-.83-.76.69.69,0,0,0-.63.72.78.78,0,0,0,.84.75A.63.63,0,0,0,21.48,51.83Z"/><path d="M22.57,54a.85.85,0,0,0-.85-.85.7.7,0,0,0-.71.73.86.86,0,0,0,.74.86A.75.75,0,0,0,22.57,54Z"/><path d="M23.77,55.82a.91.91,0,0,0-.87-1,.75.75,0,0,0-.77.7,1.18,1.18,0,0,0,1,1C23.52,56.6,23.78,56.3,23.77,55.82Z"/><path d="M20.53,49.83a.72.72,0,0,0-.69-.76.62.62,0,0,0-.66.57c-.06.37.21.63.64.65S20.5,50.15,20.53,49.83Z"/><path d="M24,57a.8.8,0,0,0-.8.8.82.82,0,0,0,.93.76c.47,0,.74-.25.72-.69A.89.89,0,0,0,24,57Z"/><path d="M22,49.38c.24-.41.45-.62.47-.85a.54.54,0,0,0-.57-.61.46.46,0,0,0-.47.58A3.65,3.65,0,0,0,22,49.38Z"/><path d="M25,49.63c.36,0,.52-.21.51-.55s-.19-.6-.73-.64c-.08.13-.29.32-.3.51A.56.56,0,0,0,25,49.63Z"/><path d="M23.26,52.54a.72.72,0,0,0,.66.79.68.68,0,0,0,.74-.6.71.71,0,0,0-1.4-.19Z"/><path d="M18.85,47.11a.51.51,0,0,0-.51.57.84.84,0,0,0,.83.81,1.85,1.85,0,0,0,.33-.59A.68.68,0,0,0,18.85,47.11Z"/><path d="M23.12,51.51a.84.84,0,0,0,.78-.82.85.85,0,0,0-.81-.89.79.79,0,0,0-.75.92A.76.76,0,0,0,23.12,51.51Z"/><path d="M25,50.85a.78.78,0,0,0,.81.76.77.77,0,0,0,.63-.83.73.73,0,0,0-.75-.71A.77.77,0,0,0,25,50.85Z"/></g></g></g></svg>