<svg id="Layer_1" data-name="Layer 1" xmlns="http://www.w3.org/2000/svg" viewBox="0 0 1500 500"><defs><style>.cls-1{fill:#25d366;}.cls-2,.cls-3{fill:#fff;}.cls-3{fill-rule:evenodd;}</style></defs><path class="cls-1" d="M0,0H1250a250,250,0,0,1,250,250v0a250,250,0,0,1-250,250H0a0,0,0,0,1,0,0V0A0,0,0,0,1,0,0Z"/><path class="cls-2" d="M1050,450.86l28.75-107.26a197.37,197.37,0,0,1-24.84-95.68c0-109.2,88.84-198,198-198s198,88.84,198,198S1361.11,446,1251.91,446a197.68,197.68,0,0,1-94.14-24Zm113.17-69.08,6.79,4.05a160.36,160.36,0,0,0,82,22.71c88.56,0,160.61-72.05,160.61-160.62s-72-160.61-160.61-160.61S1091.3,159.36,1091.3,247.92a160.13,160.13,0,0,0,23.49,83.28L1119,338l-16,59.88Z"/><path class="cls-3" d="M1325.58,275.47c-8.15-4.88-18.76-10.32-28.36-6.39-7.36,3-12.07,14.54-16.84,20.43-2.45,3-5.38,3.5-9.14,2-27.65-11-48.85-29.48-64.11-54.92-2.58-3.95-2.12-7.06,1-10.73,4.61-5.43,10.4-11.59,11.65-18.91s-2.19-15.86-5.21-22.38c-3.87-8.32-8.19-20.19-16.52-24.9-7.67-4.33-17.77-1.91-24.59,3.66-11.79,9.59-17.48,24.63-17.3,39.54a56.12,56.12,0,0,0,1.55,12.54c2.38,9.84,6.93,19,12,27.75a221.55,221.55,0,0,0,12.57,19.11,193.93,193.93,0,0,0,54.5,50.6,165,165,0,0,0,34,16.17c13.32,4.4,25.18,9,39.57,6.25,15-2.86,29.9-12.18,35.87-26.69a23.19,23.19,0,0,0,1.67-13.62C1345.87,285.58,1333.17,280,1325.58,275.47Z"/><path class="cls-2" d="M230.26,83.75a8,8,0,0,1,5.31,2.07A7.06,7.06,0,0,1,238,91.49a8.88,8.88,0,0,1-.54,2.7L199.3,205.61a5.94,5.94,0,0,1-2.7,3.33,9.49,9.49,0,0,1-4,1.35,8,8,0,0,1-4.14-1.17,6.68,6.68,0,0,1-2.88-3.51l-30.24-72.54,1.62.54-29.88,72a7.56,7.56,0,0,1-3.15,3.51,8.5,8.5,0,0,1-4.23,1.17,8.68,8.68,0,0,1-3.69-1.35,6,6,0,0,1-2.61-3.33L75.1,94.19a8.88,8.88,0,0,1-.54-2.7,6.76,6.76,0,0,1,2.7-5.67,8.86,8.86,0,0,1,5.4-2.07A7.62,7.62,0,0,1,86.8,85a6.32,6.32,0,0,1,2.7,3.6l33.66,99.18h-2.7l29.34-72.54a7.67,7.67,0,0,1,2.7-3.42,7,7,0,0,1,4.14-1.26,7.48,7.48,0,0,1,4.23,1.26,6.45,6.45,0,0,1,2.61,3.42l28.44,71.46-2.34.9,33.48-99a6.24,6.24,0,0,1,2.7-3.6A8.18,8.18,0,0,1,230.26,83.75Z"/><path class="cls-2" d="M300.81,115.79q11.88,0,18.81,5.13a28,28,0,0,1,9.9,13.68,57.58,57.58,0,0,1,3,19v49.32a7.27,7.27,0,0,1-2.07,5.22,6.82,6.82,0,0,1-5.13,2.16,6.74,6.74,0,0,1-5.22-2.16,7.45,7.45,0,0,1-2-5.22V153.59a36.37,36.37,0,0,0-2-12.24,18.26,18.26,0,0,0-6.57-8.91Q305,129.11,297,129.11a27.78,27.78,0,0,0-13.5,3.33,26.28,26.28,0,0,0-9.72,8.91,22.12,22.12,0,0,0-3.6,12.24v49.32a7.27,7.27,0,0,1-2.07,5.22,7.17,7.17,0,0,1-10.26,0,7.27,7.27,0,0,1-2.07-5.22V84.47a7.27,7.27,0,0,1,2.07-5.22A6.82,6.82,0,0,1,263,77.09a6.74,6.74,0,0,1,5.22,2.16,7.45,7.45,0,0,1,2,5.22v53.64l-3.6,4a27,27,0,0,1,4-9.45,35.88,35.88,0,0,1,7.74-8.55,39.2,39.2,0,0,1,10.44-6A32.85,32.85,0,0,1,300.81,115.79Z"/><path class="cls-2" d="M434.91,116.33a6.89,6.89,0,0,1,5.22,2.07,7.13,7.13,0,0,1,2,5.13v79.38a7.27,7.27,0,0,1-2.07,5.22,6.82,6.82,0,0,1-5.13,2.16,6.74,6.74,0,0,1-5.22-2.16,7.45,7.45,0,0,1-2-5.22v-17.1l3.42-.36a17.3,17.3,0,0,1-2.7,8.73,35,35,0,0,1-7.38,8.64A39.68,39.68,0,0,1,410,209.48a35.59,35.59,0,0,1-13.59,2.61,39.39,39.39,0,0,1-22.14-6.39,45.07,45.07,0,0,1-15.39-17.37,53.74,53.74,0,0,1-5.67-25q0-14.22,5.67-25.11a43.85,43.85,0,0,1,15.39-17.1,39.29,39.29,0,0,1,21.6-6.21,40.36,40.36,0,0,1,14.4,2.52,37.82,37.82,0,0,1,11.61,6.84,33.88,33.88,0,0,1,7.74,9.54,22,22,0,0,1,2.79,10.44l-4.68-1.08V123.53a7.13,7.13,0,0,1,2-5.13A6.89,6.89,0,0,1,434.91,116.33Zm-37.08,82.44a27.79,27.79,0,0,0,15.93-4.68,31.48,31.48,0,0,0,10.8-12.69,41.06,41.06,0,0,0,3.87-18.09,40.06,40.06,0,0,0-3.87-17.82,31.62,31.62,0,0,0-10.8-12.6,29.38,29.38,0,0,0-31.68-.09,31.62,31.62,0,0,0-10.89,12.51,39.71,39.71,0,0,0-4,18,40.27,40.27,0,0,0,4,18.09,32.16,32.16,0,0,0,10.89,12.69A27.49,27.49,0,0,0,397.83,198.77Z"/><path class="cls-2" d="M465.15,117.77h42.3a6.31,6.31,0,0,1,4.77,2,6.77,6.77,0,0,1,1.89,4.86,6.25,6.25,0,0,1-1.89,4.59,6.47,6.47,0,0,1-4.77,1.89h-42.3a6.7,6.7,0,0,1-4.77-2,6.27,6.27,0,0,1-2.07-4.68,6.18,6.18,0,0,1,2.07-4.77A6.87,6.87,0,0,1,465.15,117.77Zm18.9-24.48a6.54,6.54,0,0,1,5,2.16,7.45,7.45,0,0,1,2,5.22v86.76a13.16,13.16,0,0,0,1.26,6.48,6.62,6.62,0,0,0,3.33,3,11.07,11.07,0,0,0,4,.81,7.38,7.38,0,0,0,3.15-.63,7.38,7.38,0,0,1,3.15-.63,4.45,4.45,0,0,1,3.33,1.71,6.36,6.36,0,0,1,1.53,4.41q0,3.24-3.78,5.49a16.22,16.22,0,0,1-8.46,2.25q-2.52,0-6.21-.36a18.85,18.85,0,0,1-7.29-2.34,15.41,15.41,0,0,1-6-6.57q-2.43-4.59-2.43-12.87V100.67a7.37,7.37,0,0,1,7.38-7.38Z"/><path class="cls-2" d="M532.29,195.53a8.7,8.7,0,0,1-1.35-4.95q.09-2.61,3-4.59a7,7,0,0,1,4.41-1.08,6.59,6.59,0,0,1,4.41,2.34,40.1,40.1,0,0,0,11.52,9.45q6.48,3.51,15.84,3.51a37,37,0,0,0,8.55-1.44,15.94,15.94,0,0,0,7.38-4.41,11.7,11.7,0,0,0,3-8.37,10.65,10.65,0,0,0-3.06-8,23.22,23.22,0,0,0-8-4.86,98.55,98.55,0,0,0-10.53-3.33q-5.94-1.62-11.7-3.6a42.73,42.73,0,0,1-10.35-5.13,24.5,24.5,0,0,1-7.38-7.92,25.31,25.31,0,0,1,1.62-25.83,28.71,28.71,0,0,1,11.79-9.18,40.32,40.32,0,0,1,16.38-3.24,50.52,50.52,0,0,1,10.53,1.17A40.61,40.61,0,0,1,589,120a30.08,30.08,0,0,1,9.18,7.65,7.23,7.23,0,0,1,1.8,4.5,5.77,5.77,0,0,1-2.34,4.86,6.87,6.87,0,0,1-4.41,1.35,5.82,5.82,0,0,1-4.05-1.71,25.71,25.71,0,0,0-9.63-7.11A31.43,31.43,0,0,0,567,127.13a26.57,26.57,0,0,0-8.28,1.35,16.65,16.65,0,0,0-6.93,4.23q-2.79,2.88-2.79,8.1a11.35,11.35,0,0,0,3.24,7.92,22.2,22.2,0,0,0,8.28,5q5.22,1.89,11.52,3.69,5.76,1.44,11.07,3.33a39.44,39.44,0,0,1,9.63,5,22.1,22.1,0,0,1,6.84,7.83,25.45,25.45,0,0,1,2.52,12,22.65,22.65,0,0,1-4.68,14.31,29.43,29.43,0,0,1-12.33,9.18,42.83,42.83,0,0,1-16.47,3.15A54.9,54.9,0,0,1,549,208.4,37.89,37.89,0,0,1,532.29,195.53Z"/><path class="cls-2" d="M669.09,103l-42.3,103a7.09,7.09,0,0,1-2.52,3.51,6.21,6.21,0,0,1-3.78,1.35q-3.42,0-5-1.89a7.42,7.42,0,0,1-1.8-4.41,11.16,11.16,0,0,1,.36-2.7L660.63,88.61a8.32,8.32,0,0,1,3-3.78,6.51,6.51,0,0,1,4.23-1.08A7.46,7.46,0,0,1,672.06,85a6.45,6.45,0,0,1,2.61,3.6l46.44,112.14a8.15,8.15,0,0,1,.54,2.88,6.74,6.74,0,0,1-2.16,5.22,7,7,0,0,1-4.86,2,6.72,6.72,0,0,1-4.14-1.35,8.13,8.13,0,0,1-2.7-3.69L665,102.83Zm-33.3,73.62,6.12-14h53.46l2.7,14Z"/><path class="cls-2" d="M784.83,115.79a40.35,40.35,0,0,1,22,6.12,43.32,43.32,0,0,1,15.39,16.92,52.65,52.65,0,0,1,5.67,24.84,52.8,52.8,0,0,1-5.67,24.75,44.1,44.1,0,0,1-15.3,17.1,39.16,39.16,0,0,1-21.69,6.21,37.23,37.23,0,0,1-12.51-2.07,44.2,44.2,0,0,1-10.62-5.4,36.85,36.85,0,0,1-8-7.47,28.29,28.29,0,0,1-4.68-8.46l4-2.34v52.92a7.45,7.45,0,0,1-2,5.22,6.74,6.74,0,0,1-5.22,2.16,7,7,0,0,1-5.13-2.07,7.19,7.19,0,0,1-2.07-5.31V124.07a7.19,7.19,0,0,1,2.07-5.31,7,7,0,0,1,5.13-2.07,6.89,6.89,0,0,1,5.22,2.07,7.37,7.37,0,0,1,2,5.31v15.84l-2.7-1.44a25.68,25.68,0,0,1,4.41-8.64,33.3,33.3,0,0,1,7.74-7.29,39.27,39.27,0,0,1,22.05-6.75Zm-1.62,13.32a28.6,28.6,0,0,0-15.93,4.5,30.57,30.57,0,0,0-10.8,12.24,39.33,39.33,0,0,0-3.87,17.82,40.06,40.06,0,0,0,3.87,17.82,30.31,30.31,0,0,0,10.8,12.42,28.6,28.6,0,0,0,15.93,4.5,28.16,28.16,0,0,0,15.84-4.5,31.2,31.2,0,0,0,10.8-12.42,39.3,39.3,0,0,0,4-17.82,38.59,38.59,0,0,0-4-17.82,31.49,31.49,0,0,0-10.8-12.24A28.16,28.16,0,0,0,783.21,129.11Z"/><path class="cls-2" d="M894.45,115.79a40.35,40.35,0,0,1,22,6.12,43.32,43.32,0,0,1,15.39,16.92,52.65,52.65,0,0,1,5.67,24.84,52.8,52.8,0,0,1-5.67,24.75,44.18,44.18,0,0,1-15.3,17.1,39.18,39.18,0,0,1-21.69,6.21,37.19,37.19,0,0,1-12.51-2.07,44,44,0,0,1-10.62-5.4,36.85,36.85,0,0,1-8-7.47,28.29,28.29,0,0,1-4.68-8.46l4-2.34v52.92a7.45,7.45,0,0,1-2,5.22,6.76,6.76,0,0,1-5.22,2.16,6.94,6.94,0,0,1-5.13-2.07,7.19,7.19,0,0,1-2.07-5.31V124.07a7.19,7.19,0,0,1,2.07-5.31,7.5,7.5,0,0,1,10.35,0,7.37,7.37,0,0,1,2,5.31v15.84l-2.7-1.44a25.5,25.5,0,0,1,4.41-8.64,33.1,33.1,0,0,1,7.74-7.29,39.27,39.27,0,0,1,22.05-6.75Zm-1.62,13.32a28.55,28.55,0,0,0-15.93,4.5,30.57,30.57,0,0,0-10.8,12.24,39.2,39.2,0,0,0-3.87,17.82,39.92,39.92,0,0,0,3.87,17.82,30.31,30.31,0,0,0,10.8,12.42,28.55,28.55,0,0,0,15.93,4.5,28.18,28.18,0,0,0,15.84-4.5,31.2,31.2,0,0,0,10.8-12.42,39.43,39.43,0,0,0,4-17.82,38.71,38.71,0,0,0-4-17.82,31.49,31.49,0,0,0-10.8-12.24A28.18,28.18,0,0,0,892.83,129.11Z"/><path class="cls-2" d="M118.46,278a2.4,2.4,0,0,1,1.12,1.64,2.55,2.55,0,0,1-.56,2,1.8,1.8,0,0,1-1.4.84,3.61,3.61,0,0,1-1.72-.36,25.53,25.53,0,0,0-6.48-3.12,24.32,24.32,0,0,0-7.44-1.12,23.29,23.29,0,0,0-9.08,1.76,22,22,0,0,0-7.32,5,22.36,22.36,0,0,0-4.84,7.6,28.36,28.36,0,0,0,0,19.56,22.43,22.43,0,0,0,4.92,7.64A21.42,21.42,0,0,0,93,324.23a23.69,23.69,0,0,0,9,1.68,23.93,23.93,0,0,0,7.4-1.12,28.73,28.73,0,0,0,6.52-3,2.51,2.51,0,0,1,1.68-.36,2.36,2.36,0,0,1,1.52.92,2.57,2.57,0,0,1,.48,1.92,2,2,0,0,1-1,1.52,32.76,32.76,0,0,1-4.72,2.44,31.67,31.67,0,0,1-5.76,1.8,29.28,29.28,0,0,1-6.08.64,28.24,28.24,0,0,1-10.84-2.08,27.47,27.47,0,0,1-15.08-15,29.71,29.71,0,0,1-2.24-11.76A29,29,0,0,1,76,290.39a28.51,28.51,0,0,1,6-9.08,27.4,27.4,0,0,1,9-6,27.87,27.87,0,0,1,11-2.16,30.41,30.41,0,0,1,8.8,1.28A28.22,28.22,0,0,1,118.46,278Z"/><path class="cls-2" d="M133.9,327.43a2.46,2.46,0,0,1-2.4,2.4,2.25,2.25,0,0,1-1.72-.72,2.34,2.34,0,0,1-.68-1.68V273a2.46,2.46,0,0,1,2.4-2.4,2.28,2.28,0,0,1,1.72.72,2.38,2.38,0,0,1,.68,1.68Z"/><path class="cls-2" d="M149.26,282.87a3.63,3.63,0,0,1-2.52-.76,2.82,2.82,0,0,1-.84-2.2v-.8a2.67,2.67,0,0,1,.92-2.2,3.81,3.81,0,0,1,2.52-.76,3.38,3.38,0,0,1,2.36.76,2.82,2.82,0,0,1,.84,2.2v.8a2.82,2.82,0,0,1-.84,2.2A3.52,3.52,0,0,1,149.26,282.87Zm2.4,44.56a2.46,2.46,0,0,1-2.4,2.4,2.22,2.22,0,0,1-1.76-.72,2.43,2.43,0,0,1-.64-1.68v-36.8a2.34,2.34,0,0,1,.68-1.68,2.25,2.25,0,0,1,1.72-.72A2.28,2.28,0,0,1,151,289a2.38,2.38,0,0,1,.68,1.68Z"/><path class="cls-2" d="M181.73,288a28,28,0,0,1,7.12.84,15.08,15.08,0,0,1,5.16,2.28,4,4,0,0,1,2,3.12,2.56,2.56,0,0,1-.59,1.56,1.91,1.91,0,0,1-1.57.76,2.6,2.6,0,0,1-1.56-.44,6.73,6.73,0,0,1-1.16-1.12,4.37,4.37,0,0,0-1.67-1.16,10.81,10.81,0,0,0-3-.92,24.37,24.37,0,0,0-4.37-.36,15.05,15.05,0,0,0-8.08,2.24,16.13,16.13,0,0,0-5.68,6,17.29,17.29,0,0,0-2.08,8.48,18.81,18.81,0,0,0,2,8.64,15,15,0,0,0,5.52,6,15.27,15.27,0,0,0,8.2,2.2,17.19,17.19,0,0,0,5-.56,15.79,15.79,0,0,0,3-1.28,8.65,8.65,0,0,0,2.24-1.72,2.32,2.32,0,0,1,1.84-.84,2,2,0,0,1,1.53.6,2.2,2.2,0,0,1,.55,1.56c0,.85-.62,1.8-1.88,2.84a16.74,16.74,0,0,1-5.16,2.72,22.8,22.8,0,0,1-7.59,1.16,19,19,0,0,1-17.49-10.44,23.3,23.3,0,0,1-2.51-10.92A22.33,22.33,0,0,1,164,298.63a20.49,20.49,0,0,1,7.12-7.72A19.28,19.28,0,0,1,181.73,288Z"/><path class="cls-2" d="M208.13,329.83a2.28,2.28,0,0,1-1.72-.72,2.38,2.38,0,0,1-.68-1.68V273a2.38,2.38,0,0,1,.68-1.68,2.28,2.28,0,0,1,1.72-.72,2.25,2.25,0,0,1,1.72.72,2.34,2.34,0,0,1,.68,1.68v54.4a2.34,2.34,0,0,1-.68,1.68A2.25,2.25,0,0,1,208.13,329.83Zm27.12-41a2.23,2.23,0,0,1,1.68.76,2.35,2.35,0,0,1,.72,1.64,2.42,2.42,0,0,1-.88,1.84l-26.88,22.88-.24-5.68,24-20.64A2.15,2.15,0,0,1,235.25,288.79Zm.72,41a2.43,2.43,0,0,1-1.84-.88L216,309.59l3.6-3.28,18.08,19.28a2.67,2.67,0,0,1,.72,1.84,2,2,0,0,1-.88,1.76A2.7,2.7,0,0,1,236,329.83Z"/><path class="cls-2" d="M267.25,289.11h18.64a2.11,2.11,0,0,1,1.6.68,2.29,2.29,0,0,1,.64,1.64,2.19,2.19,0,0,1-2.24,2.24H267.25a2.32,2.32,0,0,1-2.32-2.32,2.12,2.12,0,0,1,.68-1.6A2.3,2.3,0,0,1,267.25,289.11Zm8.24-11.28a2.26,2.26,0,0,1,1.72.72,2.34,2.34,0,0,1,.68,1.68v40.16a7.36,7.36,0,0,0,.6,3.36,3,3,0,0,0,1.56,1.48,5.44,5.44,0,0,0,1.92.36,3.24,3.24,0,0,0,1.16-.2,3.32,3.32,0,0,1,1.16-.2,1.65,1.65,0,0,1,1.24.56,2,2,0,0,1,.52,1.44,2.18,2.18,0,0,1-1.28,1.88,5.79,5.79,0,0,1-3,.76q-.72,0-2.16-.12a8.1,8.1,0,0,1-3-.88,6.17,6.17,0,0,1-2.56-2.68,11.85,11.85,0,0,1-1-5.52v-40.4a2.3,2.3,0,0,1,.72-1.68A2.4,2.4,0,0,1,275.49,277.83Z"/><path class="cls-2" d="M334.37,309.35a22.14,22.14,0,0,1-2.68,10.92,20,20,0,0,1-7.24,7.6,20.6,20.6,0,0,1-20.6,0,20,20,0,0,1-7.28-7.6,23.67,23.67,0,0,1,0-21.88,20.44,20.44,0,0,1,7.28-7.6,20.34,20.34,0,0,1,20.6,0,20.41,20.41,0,0,1,7.24,7.6A22.05,22.05,0,0,1,334.37,309.35Zm-4.88,0a18.28,18.28,0,0,0-2-8.68,15.17,15.17,0,0,0-5.48-6,15.45,15.45,0,0,0-15.76,0,15.49,15.49,0,0,0-5.52,6,18.06,18.06,0,0,0-2,8.68,17.85,17.85,0,0,0,2,8.64,15.85,15.85,0,0,0,5.52,6A15.21,15.21,0,0,0,322,324a15.52,15.52,0,0,0,5.48-6A18.06,18.06,0,0,0,329.49,309.35Z"/><path class="cls-2" d="M363.73,323.35a3.09,3.09,0,0,1-.6-1.88,1.78,1.78,0,0,1,1-1.48,1.92,1.92,0,0,1,1.48-.48,2.52,2.52,0,0,1,1.56.8,17.09,17.09,0,0,0,5.24,4.52,14.73,14.73,0,0,0,7.32,1.72,13.46,13.46,0,0,0,4.44-.76,8.74,8.74,0,0,0,3.64-2.32,5.61,5.61,0,0,0,1.44-4,5.45,5.45,0,0,0-1.44-4,10.58,10.58,0,0,0-3.72-2.4,36.4,36.4,0,0,0-4.92-1.56q-2.71-.72-5.24-1.64a19.43,19.43,0,0,1-4.52-2.32,10.65,10.65,0,0,1-3.16-3.4,9.6,9.6,0,0,1-1.16-4.88,10,10,0,0,1,1.8-5.92,11.92,11.92,0,0,1,5-4A17.16,17.16,0,0,1,379,288a19.94,19.94,0,0,1,4.4.52,18,18,0,0,1,4.56,1.72,13.65,13.65,0,0,1,4,3.28,2.26,2.26,0,0,1,.72,1.64,2.42,2.42,0,0,1-.8,1.72,2.2,2.2,0,0,1-1.48.44,1.91,1.91,0,0,1-1.4-.68,12.22,12.22,0,0,0-4.56-3.24,14.84,14.84,0,0,0-5.68-1.08,13,13,0,0,0-4.36.72,8.13,8.13,0,0,0-3.4,2.24,5.76,5.76,0,0,0-1.36,4,5.57,5.57,0,0,0,1.64,3.76,11.67,11.67,0,0,0,3.92,2.4,48.58,48.58,0,0,0,5.48,1.76,45.54,45.54,0,0,1,4.92,1.52,17.26,17.26,0,0,1,4.16,2.2,9.92,9.92,0,0,1,2.88,3.32,10.51,10.51,0,0,1,1.08,5,9.69,9.69,0,0,1-2,6.08,12.44,12.44,0,0,1-5.24,3.92,18.77,18.77,0,0,1-7.28,1.36,21.56,21.56,0,0,1-8.36-1.68A18,18,0,0,1,363.73,323.35Z"/><path class="cls-2" d="M400.93,289.11h18.64a2.12,2.12,0,0,1,1.6.68,2.29,2.29,0,0,1,.64,1.64,2.19,2.19,0,0,1-2.24,2.24H400.93a2.32,2.32,0,0,1-2.32-2.32,2.12,2.12,0,0,1,.68-1.6A2.29,2.29,0,0,1,400.93,289.11Zm8.24-11.28a2.26,2.26,0,0,1,1.72.72,2.38,2.38,0,0,1,.68,1.68v40.16a7.36,7.36,0,0,0,.6,3.36,3,3,0,0,0,1.56,1.48,5.44,5.44,0,0,0,1.92.36,3.28,3.28,0,0,0,1.16-.2,3.28,3.28,0,0,1,1.16-.2,1.65,1.65,0,0,1,1.24.56,2,2,0,0,1,.52,1.44,2.2,2.2,0,0,1-1.28,1.88,5.81,5.81,0,0,1-3,.76q-.72,0-2.16-.12a8,8,0,0,1-3-.88,6.12,6.12,0,0,1-2.56-2.68,11.85,11.85,0,0,1-1-5.52v-40.4a2.3,2.3,0,0,1,.72-1.68A2.4,2.4,0,0,1,409.17,277.83Z"/><path class="cls-2" d="M463.89,289a2.26,2.26,0,0,1,1.72.72,2.49,2.49,0,0,1,.68,1.76v36a2.46,2.46,0,0,1-2.4,2.4,2.35,2.35,0,0,1-1.8-.72,2.38,2.38,0,0,1-.68-1.68v-9.52l1.44-.56a9.67,9.67,0,0,1-1.24,4.52,15.85,15.85,0,0,1-3.4,4.32,17.84,17.84,0,0,1-5.08,3.2,16.07,16.07,0,0,1-6.36,1.24,17.2,17.2,0,0,1-9.64-2.8,19.34,19.34,0,0,1-6.72-7.68,24.12,24.12,0,0,1-2.44-11,23.5,23.5,0,0,1,2.48-11,19.19,19.19,0,0,1,6.72-7.48,18,18,0,0,1,16-1.52,16.67,16.67,0,0,1,5.24,3.28,15.22,15.22,0,0,1,3.48,4.76,13.06,13.06,0,0,1,1.24,5.56l-1.68-1.2V291.43a2.49,2.49,0,0,1,.68-1.76A2.35,2.35,0,0,1,463.89,289Zm-16.64,37.2a13.16,13.16,0,0,0,7.52-2.2,15,15,0,0,0,5.16-6.08,19.7,19.7,0,0,0,1.88-8.68,18.81,18.81,0,0,0-1.88-8.44,15.13,15.13,0,0,0-5.16-6,13.16,13.16,0,0,0-7.52-2.2,13.63,13.63,0,0,0-7.48,2.12,14.45,14.45,0,0,0-5.2,5.88,19.13,19.13,0,0,0-1.88,8.64,20,20,0,0,0,1.84,8.68,14.67,14.67,0,0,0,5.16,6.08A13.33,13.33,0,0,0,447.25,326.15Z"/><path class="cls-2" d="M481.25,329.83a2.35,2.35,0,0,1-1.8-.72,2.38,2.38,0,0,1-.68-1.68V291.59a2.3,2.3,0,0,1,.72-1.68,2.4,2.4,0,0,1,1.76-.72,2.26,2.26,0,0,1,1.72.72,2.38,2.38,0,0,1,.68,1.68v12l-1.2.24a18.41,18.41,0,0,1,1.4-5.56,19.09,19.09,0,0,1,3.16-5.08,15.89,15.89,0,0,1,4.76-3.76A13.21,13.21,0,0,1,498,288a6.88,6.88,0,0,1,2.8.6,2,2,0,0,1,1.36,2,2.48,2.48,0,0,1-.64,1.84A2.06,2.06,0,0,1,500,293a3.61,3.61,0,0,1-1.56-.4,5.09,5.09,0,0,0-2.2-.4,8.73,8.73,0,0,0-4.48,1.32,15.61,15.61,0,0,0-4.08,3.56,18.23,18.23,0,0,0-2.92,5,15.14,15.14,0,0,0-1.08,5.56v19.76a2.46,2.46,0,0,1-2.4,2.4Z"/><path class="cls-2" d="M507,289.11h18.64a2.12,2.12,0,0,1,1.6.68,2.33,2.33,0,0,1,.64,1.64,2.2,2.2,0,0,1-.64,1.6,2.16,2.16,0,0,1-1.6.64H507a2.32,2.32,0,0,1-2.32-2.32,2.12,2.12,0,0,1,.68-1.6A2.29,2.29,0,0,1,507,289.11Zm8.24-11.28a2.28,2.28,0,0,1,1.72.72,2.38,2.38,0,0,1,.68,1.68v40.16a7.36,7.36,0,0,0,.6,3.36,3,3,0,0,0,1.56,1.48,5.44,5.44,0,0,0,1.92.36,3.32,3.32,0,0,0,1.16-.2,3.24,3.24,0,0,1,1.16-.2,1.65,1.65,0,0,1,1.24.56,2.05,2.05,0,0,1,.52,1.44,2.2,2.2,0,0,1-1.28,1.88,5.84,5.84,0,0,1-3,.76q-.72,0-2.16-.12a8,8,0,0,1-3-.88,6.06,6.06,0,0,1-2.56-2.68,11.72,11.72,0,0,1-1-5.52v-40.4a2.3,2.3,0,0,1,.72-1.68A2.38,2.38,0,0,1,515.25,277.83Z"/><path class="cls-2" d="M591.81,289a2.28,2.28,0,0,1,1.72.72,2.49,2.49,0,0,1,.68,1.76v36a2.46,2.46,0,0,1-2.4,2.4,2.39,2.39,0,0,1-2.48-2.4v-9.52l1.44-.56a9.79,9.79,0,0,1-1.24,4.52,15.85,15.85,0,0,1-3.4,4.32,18,18,0,0,1-5.08,3.2,16.07,16.07,0,0,1-6.36,1.24,17.17,17.17,0,0,1-9.64-2.8,19.19,19.19,0,0,1-6.72-7.68,24.12,24.12,0,0,1-2.44-11,23.38,23.38,0,0,1,2.48-11,19.19,19.19,0,0,1,6.72-7.48,18,18,0,0,1,16-1.52,16.78,16.78,0,0,1,5.24,3.28,15.22,15.22,0,0,1,3.48,4.76,13.21,13.21,0,0,1,1.24,5.56l-1.68-1.2V291.43a2.45,2.45,0,0,1,.68-1.76A2.35,2.35,0,0,1,591.81,289Zm-16.64,37.2a13.18,13.18,0,0,0,7.52-2.2,15.12,15.12,0,0,0,5.16-6.08,19.7,19.7,0,0,0,1.88-8.68,18.81,18.81,0,0,0-1.88-8.44,15.29,15.29,0,0,0-5.16-6,13.18,13.18,0,0,0-7.52-2.2,13.61,13.61,0,0,0-7.48,2.12,14.38,14.38,0,0,0-5.2,5.88,19,19,0,0,0-1.88,8.64,20,20,0,0,0,1.84,8.68,14.53,14.53,0,0,0,5.16,6.08A13.33,13.33,0,0,0,575.17,326.15Z"/><path class="cls-2" d="M142.38,369.67a2.88,2.88,0,0,1,1.76.6,2.12,2.12,0,0,1,.8,1.8,4.05,4.05,0,0,1-.16,1l-17.68,51.2a2.09,2.09,0,0,1-.88,1.12,2.4,2.4,0,0,1-1.28.4,2.85,2.85,0,0,1-1.44-.36,2.2,2.2,0,0,1-1-1.16l-14.16-35,.64.16L94.86,424.31a2.22,2.22,0,0,1-1,1.16,3,3,0,0,1-1.4.36,2.34,2.34,0,0,1-1.28-.4,2,2,0,0,1-.88-1.12l-17.68-51.2a3.42,3.42,0,0,1-.16-1,2.13,2.13,0,0,1,.88-1.84,2.94,2.94,0,0,1,1.76-.64,2.65,2.65,0,0,1,1.44.4,2.09,2.09,0,0,1,.88,1.12L93.5,418.07l-.88.08,13.92-34.72a2.29,2.29,0,0,1,.84-1.16,2.9,2.9,0,0,1,2.8,0,2.87,2.87,0,0,1,.92,1.16L124.78,418l-.8.32,16-47.12a2,2,0,0,1,.88-1.12A2.76,2.76,0,0,1,142.38,369.67Z"/><path class="cls-2" d="M172.29,384.63a14.07,14.07,0,0,1,8.17,2.16,12.71,12.71,0,0,1,4.6,5.84,21.79,21.79,0,0,1,1.48,8.16v22.64a2.46,2.46,0,0,1-2.41,2.4,2.38,2.38,0,0,1-2.47-2.4V400.79a16.4,16.4,0,0,0-1-5.88,9.23,9.23,0,0,0-3.2-4.2,9.93,9.93,0,0,0-6-1.6,13.29,13.29,0,0,0-6.37,1.6,13.83,13.83,0,0,0-4.84,4.2,10,10,0,0,0-1.83,5.88v22.64a2.46,2.46,0,0,1-2.4,2.4,2.38,2.38,0,0,1-2.48-2.4V369a2.33,2.33,0,0,1,.71-1.68,2.42,2.42,0,0,1,1.77-.72,2.28,2.28,0,0,1,1.72.72,2.38,2.38,0,0,1,.68,1.68V395l-1.84,2.8a10.71,10.71,0,0,1,1.55-4.84,16.59,16.59,0,0,1,3.65-4.24,17.93,17.93,0,0,1,5-3A14.81,14.81,0,0,1,172.29,384.63Z"/><path class="cls-2" d="M232.29,385a2.25,2.25,0,0,1,1.72.72,2.45,2.45,0,0,1,.68,1.76v36a2.46,2.46,0,0,1-2.4,2.4,2.41,2.41,0,0,1-2.48-2.4v-9.52l1.44-.56a9.67,9.67,0,0,1-1.24,4.52,15.66,15.66,0,0,1-3.4,4.32,17.84,17.84,0,0,1-5.08,3.2,16,16,0,0,1-6.36,1.24,17.22,17.22,0,0,1-9.64-2.8,19.34,19.34,0,0,1-6.72-7.68,24.25,24.25,0,0,1-2.43-11,23.5,23.5,0,0,1,2.47-11,19.35,19.35,0,0,1,6.72-7.48,18,18,0,0,1,16-1.52,16.67,16.67,0,0,1,5.24,3.28,14.91,14.91,0,0,1,3.48,4.76,13.07,13.07,0,0,1,1.25,5.56l-1.69-1.2V387.43a2.45,2.45,0,0,1,.69-1.76A2.34,2.34,0,0,1,232.29,385Zm-16.64,37.2a13.14,13.14,0,0,0,7.52-2.2,15,15,0,0,0,5.16-6.08,19.56,19.56,0,0,0,1.88-8.68,18.68,18.68,0,0,0-1.88-8.44,15.13,15.13,0,0,0-5.16-6,13.14,13.14,0,0,0-7.52-2.2,13.65,13.65,0,0,0-7.48,2.12,14.52,14.52,0,0,0-5.2,5.88,19.13,19.13,0,0,0-1.88,8.64,20.11,20.11,0,0,0,1.84,8.68,14.67,14.67,0,0,0,5.16,6.08A13.38,13.38,0,0,0,215.65,422.15Z"/><path class="cls-2" d="M244.61,385.11h18.64a2.11,2.11,0,0,1,1.6.68,2.29,2.29,0,0,1,.64,1.64,2.19,2.19,0,0,1-2.24,2.24H244.61a2.32,2.32,0,0,1-2.32-2.32,2.12,2.12,0,0,1,.68-1.6A2.3,2.3,0,0,1,244.61,385.11Zm8.24-11.28a2.25,2.25,0,0,1,1.72.72,2.34,2.34,0,0,1,.68,1.68v40.16a7.36,7.36,0,0,0,.6,3.36,3,3,0,0,0,1.56,1.48,5.44,5.44,0,0,0,1.92.36,3.24,3.24,0,0,0,1.16-.2,3.32,3.32,0,0,1,1.16-.2,1.64,1.64,0,0,1,1.24.56,2,2,0,0,1,.52,1.44,2.18,2.18,0,0,1-1.28,1.88,5.79,5.79,0,0,1-3,.76q-.72,0-2.16-.12a8.1,8.1,0,0,1-3-.88,6.17,6.17,0,0,1-2.56-2.68,11.85,11.85,0,0,1-1-5.52v-40.4a2.3,2.3,0,0,1,.72-1.68A2.4,2.4,0,0,1,252.85,373.83Z"/><path class="cls-2" d="M273.65,419.35a3.09,3.09,0,0,1-.6-1.88,1.78,1.78,0,0,1,1-1.48,1.92,1.92,0,0,1,1.48-.48,2.52,2.52,0,0,1,1.56.8,17.09,17.09,0,0,0,5.24,4.52,14.73,14.73,0,0,0,7.32,1.72,13.46,13.46,0,0,0,4.44-.76,8.74,8.74,0,0,0,3.64-2.32,5.61,5.61,0,0,0,1.44-4,5.45,5.45,0,0,0-1.44-4,10.58,10.58,0,0,0-3.72-2.4,36.4,36.4,0,0,0-4.92-1.56q-2.71-.72-5.24-1.64a19.43,19.43,0,0,1-4.52-2.32,10.65,10.65,0,0,1-3.16-3.4,9.6,9.6,0,0,1-1.16-4.88,10,10,0,0,1,1.8-5.92,11.92,11.92,0,0,1,5-4,17.16,17.16,0,0,1,7.12-1.44,19.94,19.94,0,0,1,4.4.52,18,18,0,0,1,4.56,1.72,13.65,13.65,0,0,1,4,3.28,2.26,2.26,0,0,1,.72,1.64,2.42,2.42,0,0,1-.8,1.72,2.2,2.2,0,0,1-1.48.44,1.91,1.91,0,0,1-1.4-.68,12.22,12.22,0,0,0-4.56-3.24,14.84,14.84,0,0,0-5.68-1.08,13,13,0,0,0-4.36.72,8.13,8.13,0,0,0-3.4,2.24,5.76,5.76,0,0,0-1.36,4,5.57,5.57,0,0,0,1.64,3.76,11.67,11.67,0,0,0,3.92,2.4,48.58,48.58,0,0,0,5.48,1.76,45.54,45.54,0,0,1,4.92,1.52,17.26,17.26,0,0,1,4.16,2.2,9.92,9.92,0,0,1,2.88,3.32,10.51,10.51,0,0,1,1.08,5,9.69,9.69,0,0,1-2,6.08,12.44,12.44,0,0,1-5.24,3.92,18.77,18.77,0,0,1-7.28,1.36,21.56,21.56,0,0,1-8.36-1.68A18,18,0,0,1,273.65,419.35Z"/><path class="cls-2" d="M347.33,385a2.26,2.26,0,0,1,1.72.72,2.49,2.49,0,0,1,.68,1.76v36a2.46,2.46,0,0,1-2.4,2.4,2.35,2.35,0,0,1-1.8-.72,2.38,2.38,0,0,1-.68-1.68v-9.52l1.44-.56a9.67,9.67,0,0,1-1.24,4.52,15.85,15.85,0,0,1-3.4,4.32,17.84,17.84,0,0,1-5.08,3.2,16.07,16.07,0,0,1-6.36,1.24,17.2,17.2,0,0,1-9.64-2.8,19.34,19.34,0,0,1-6.72-7.68,24.12,24.12,0,0,1-2.44-11,23.5,23.5,0,0,1,2.48-11,19.19,19.19,0,0,1,6.72-7.48,18,18,0,0,1,16-1.52,16.67,16.67,0,0,1,5.24,3.28,15.22,15.22,0,0,1,3.48,4.76,13.06,13.06,0,0,1,1.24,5.56l-1.68-1.2V387.43a2.49,2.49,0,0,1,.68-1.76A2.35,2.35,0,0,1,347.33,385Zm-16.64,37.2a13.16,13.16,0,0,0,7.52-2.2,15,15,0,0,0,5.16-6.08,19.7,19.7,0,0,0,1.88-8.68,18.81,18.81,0,0,0-1.88-8.44,15.13,15.13,0,0,0-5.16-6,13.16,13.16,0,0,0-7.52-2.2,13.63,13.63,0,0,0-7.48,2.12,14.45,14.45,0,0,0-5.2,5.88,19.13,19.13,0,0,0-1.88,8.64,20,20,0,0,0,1.84,8.68,14.67,14.67,0,0,0,5.16,6.08A13.33,13.33,0,0,0,330.69,422.15Z"/><path class="cls-2" d="M381.73,384.63a17.5,17.5,0,0,1,9.64,2.68,19.19,19.19,0,0,1,6.68,7.36,22.68,22.68,0,0,1,2.48,10.76,22.93,22.93,0,0,1-2.48,10.8,19.22,19.22,0,0,1-6.72,7.44,17.29,17.29,0,0,1-9.52,2.72,16.7,16.7,0,0,1-5.32-.84,18.12,18.12,0,0,1-4.6-2.28,17.95,17.95,0,0,1-6.24-7.6l1.44-1.12v24.88a2.38,2.38,0,0,1-.68,1.68,2.26,2.26,0,0,1-1.72.72,2.4,2.4,0,0,1-1.76-.72,2.3,2.3,0,0,1-.72-1.68V387.27a2.49,2.49,0,0,1,.68-1.76,2.35,2.35,0,0,1,1.8-.72,2.26,2.26,0,0,1,1.72.72,2.49,2.49,0,0,1,.68,1.76v8.64l-1.12-.64a13.93,13.93,0,0,1,2.36-4.44,15.93,15.93,0,0,1,3.64-3.36,16.38,16.38,0,0,1,4.56-2.12A18.56,18.56,0,0,1,381.73,384.63Zm-.4,4.48a13.72,13.72,0,0,0-7.6,2.12,14.69,14.69,0,0,0-5.16,5.76,18.19,18.19,0,0,0-1.88,8.44,18.74,18.74,0,0,0,1.88,8.48,14.51,14.51,0,0,0,5.16,5.88,13.72,13.72,0,0,0,7.6,2.12,13.37,13.37,0,0,0,7.48-2.12,14.64,14.64,0,0,0,5.12-5.88,18.74,18.74,0,0,0,1.88-8.48,18.23,18.23,0,0,0-1.88-8.4,14.81,14.81,0,0,0-5.12-5.8A13.37,13.37,0,0,0,381.33,389.11Z"/><path class="cls-2" d="M429.89,384.63a17.5,17.5,0,0,1,9.64,2.68,19.19,19.19,0,0,1,6.68,7.36,22.68,22.68,0,0,1,2.48,10.76,22.93,22.93,0,0,1-2.48,10.8,19.22,19.22,0,0,1-6.72,7.44,17.29,17.29,0,0,1-9.52,2.72,16.7,16.7,0,0,1-5.32-.84,18.12,18.12,0,0,1-4.6-2.28,17.95,17.95,0,0,1-6.24-7.6l1.44-1.12v24.88a2.38,2.38,0,0,1-.68,1.68,2.26,2.26,0,0,1-1.72.72,2.4,2.4,0,0,1-1.76-.72,2.3,2.3,0,0,1-.72-1.68V387.27a2.49,2.49,0,0,1,.68-1.76,2.35,2.35,0,0,1,1.8-.72,2.26,2.26,0,0,1,1.72.72,2.49,2.49,0,0,1,.68,1.76v8.64l-1.12-.64a13.93,13.93,0,0,1,2.36-4.44,15.93,15.93,0,0,1,3.64-3.36,16.38,16.38,0,0,1,4.56-2.12A18.56,18.56,0,0,1,429.89,384.63Zm-.4,4.48a13.72,13.72,0,0,0-7.6,2.12,14.69,14.69,0,0,0-5.16,5.76,18.19,18.19,0,0,0-1.88,8.44,18.74,18.74,0,0,0,1.88,8.48,14.51,14.51,0,0,0,5.16,5.88,13.72,13.72,0,0,0,7.6,2.12,13.37,13.37,0,0,0,7.48-2.12,14.72,14.72,0,0,0,5.12-5.88,18.74,18.74,0,0,0,1.88-8.48,18.23,18.23,0,0,0-1.88-8.4,14.89,14.89,0,0,0-5.12-5.8A13.37,13.37,0,0,0,429.49,389.11Z"/><path class="cls-2" d="M498.05,384a28.1,28.1,0,0,1,7.12.84,15.25,15.25,0,0,1,5.16,2.28,4,4,0,0,1,2,3.12,2.51,2.51,0,0,1-.6,1.56,1.89,1.89,0,0,1-1.56.76,2.6,2.6,0,0,1-1.56-.44,6.39,6.39,0,0,1-1.16-1.12,4.49,4.49,0,0,0-1.68-1.16,10.81,10.81,0,0,0-3-.92,24.25,24.25,0,0,0-4.36-.36,15,15,0,0,0-8.08,2.24,16.05,16.05,0,0,0-5.68,6,17.19,17.19,0,0,0-2.08,8.48,18.69,18.69,0,0,0,2,8.64,14.85,14.85,0,0,0,5.52,6,15.22,15.22,0,0,0,8.2,2.2,17.28,17.28,0,0,0,5-.56,16.35,16.35,0,0,0,3-1.28,8.83,8.83,0,0,0,2.24-1.72,2.31,2.31,0,0,1,1.84-.84,2,2,0,0,1,1.52.6,2.21,2.21,0,0,1,.56,1.56c0,.85-.63,1.8-1.88,2.84a17,17,0,0,1-5.16,2.72,22.86,22.86,0,0,1-7.6,1.16,19,19,0,0,1-17.48-10.44,23.31,23.31,0,0,1-2.52-10.92,22.22,22.22,0,0,1,2.56-10.64,20.41,20.41,0,0,1,7.12-7.72A19.26,19.26,0,0,1,498.05,384Z"/><path class="cls-2" d="M559.33,405.35a22.25,22.25,0,0,1-2.68,10.92,20.05,20.05,0,0,1-7.24,7.6,20.6,20.6,0,0,1-20.6,0,19.86,19.86,0,0,1-7.28-7.6,23.67,23.67,0,0,1,0-21.88,20.29,20.29,0,0,1,7.28-7.6,20.34,20.34,0,0,1,20.6,0,20.49,20.49,0,0,1,7.24,7.6A22.16,22.16,0,0,1,559.33,405.35Zm-4.88,0a18.4,18.4,0,0,0-2-8.68,15.25,15.25,0,0,0-5.48-6,15.45,15.45,0,0,0-15.76,0,15.49,15.49,0,0,0-5.52,6,18.06,18.06,0,0,0-2,8.68,17.85,17.85,0,0,0,2,8.64,15.85,15.85,0,0,0,5.52,6A15.21,15.21,0,0,0,547,420a15.6,15.6,0,0,0,5.48-6A18.18,18.18,0,0,0,554.45,405.35Z"/><path class="cls-2" d="M588.45,384a15,15,0,0,1,8.44,2.12,12,12,0,0,1,4.56,5.76,22.32,22.32,0,0,1,1.4,8v23.52a2.46,2.46,0,0,1-2.4,2.4,2.39,2.39,0,0,1-2.48-2.4V400.15a15.89,15.89,0,0,0-1-5.84,8.93,8.93,0,0,0-3.36-4.2,10.88,10.88,0,0,0-6.16-1.56,14.21,14.21,0,0,0-6.52,1.56,13.69,13.69,0,0,0-5,4.2,9.71,9.71,0,0,0-1.92,5.84v23.28a2.46,2.46,0,0,1-2.4,2.4,2.39,2.39,0,0,1-2.48-2.4V387.59a2.3,2.3,0,0,1,.72-1.68,2.38,2.38,0,0,1,1.76-.72,2.28,2.28,0,0,1,1.72.72,2.38,2.38,0,0,1,.68,1.68v6.72l-1.84,2.88a10.25,10.25,0,0,1,1.64-4.92,17,17,0,0,1,3.8-4.24,18.58,18.58,0,0,1,5.16-3A16,16,0,0,1,588.45,384Z"/><path class="cls-2" d="M614.05,384.07a2.4,2.4,0,0,1,1.28.4,2.53,2.53,0,0,1,1,1.2l14,33.28-1,.64,14.32-33.92a2.19,2.19,0,0,1,2.32-1.52,2.46,2.46,0,0,1,1.52.56,1.74,1.74,0,0,1,.72,1.44,2.29,2.29,0,0,1-.12.8c-.08.21-.15.4-.2.56l-15.68,36.8a2.36,2.36,0,0,1-2.16,1.52,2.28,2.28,0,0,1-1.44-.36,2.12,2.12,0,0,1-1-1.16l-15.76-36.72a4.83,4.83,0,0,1-.16-.56,2.34,2.34,0,0,1,2.4-3Z"/><path class="cls-2" d="M675.09,426.63A21.85,21.85,0,0,1,664.17,424a18.84,18.84,0,0,1-7.32-7.36,22.26,22.26,0,0,1-2.64-11,23.43,23.43,0,0,1,2.68-11.6,19.5,19.5,0,0,1,7-7.4,17.23,17.23,0,0,1,9.08-2.6,19.38,19.38,0,0,1,6.84,1.24,17.18,17.18,0,0,1,5.88,3.68,19.12,19.12,0,0,1,4.16,6,20.67,20.67,0,0,1,1.68,8.16,2.17,2.17,0,0,1-.72,1.64,2.38,2.38,0,0,1-1.68.68H657l-1-4.32h31.44l-1,1v-1.6a11.56,11.56,0,0,0-2.4-6.36,14.3,14.3,0,0,0-5-4,14.05,14.05,0,0,0-6.12-1.4,13.77,13.77,0,0,0-4.92,1,12.92,12.92,0,0,0-4.56,3,15.35,15.35,0,0,0-3.32,5.2,19.75,19.75,0,0,0-1.28,7.48,18.86,18.86,0,0,0,1.92,8.56,14.81,14.81,0,0,0,5.52,6.08,16.2,16.2,0,0,0,8.72,2.24,14.79,14.79,0,0,0,5-.8,14.42,14.42,0,0,0,4-2.12,15.91,15.91,0,0,0,2.84-2.76,2.48,2.48,0,0,1,1.68-.72,2,2,0,0,1,1.48.64,2.06,2.06,0,0,1,.6,1.44,2.21,2.21,0,0,1-.8,1.68,21.5,21.5,0,0,1-6.24,5A17.13,17.13,0,0,1,675.09,426.63Z"/><path class="cls-2" d="M703.81,425.83a2.39,2.39,0,0,1-2.48-2.4V387.59a2.3,2.3,0,0,1,.72-1.68,2.38,2.38,0,0,1,1.76-.72,2.28,2.28,0,0,1,1.72.72,2.38,2.38,0,0,1,.68,1.68v12l-1.2.24a18.12,18.12,0,0,1,1.4-5.56,18.84,18.84,0,0,1,3.16-5.08,15.89,15.89,0,0,1,4.76-3.76,13.18,13.18,0,0,1,6.2-1.44,6.88,6.88,0,0,1,2.8.6,2,2,0,0,1,1.36,2,2.52,2.52,0,0,1-.64,1.84,2.08,2.08,0,0,1-1.52.64,3.61,3.61,0,0,1-1.56-.4,5.12,5.12,0,0,0-2.2-.4,8.73,8.73,0,0,0-4.48,1.32,15.29,15.29,0,0,0-4.08,3.56,18.23,18.23,0,0,0-2.92,5,15.14,15.14,0,0,0-1.08,5.56v19.76a2.46,2.46,0,0,1-2.4,2.4Z"/><path class="cls-2" d="M729.89,419.35a3.09,3.09,0,0,1-.6-1.88,1.76,1.76,0,0,1,1-1.48,1.91,1.91,0,0,1,1.48-.48,2.52,2.52,0,0,1,1.56.8,17,17,0,0,0,5.24,4.52,14.73,14.73,0,0,0,7.32,1.72,13.46,13.46,0,0,0,4.44-.76,8.81,8.81,0,0,0,3.64-2.32,5.61,5.61,0,0,0,1.44-4,5.45,5.45,0,0,0-1.44-4,10.58,10.58,0,0,0-3.72-2.4,36.4,36.4,0,0,0-4.92-1.56c-1.82-.48-3.56-1-5.24-1.64a19.43,19.43,0,0,1-4.52-2.32,10.54,10.54,0,0,1-3.16-3.4,9.5,9.5,0,0,1-1.16-4.88,10,10,0,0,1,1.8-5.92,11.86,11.86,0,0,1,5-4,17.12,17.12,0,0,1,7.12-1.44,20,20,0,0,1,4.4.52,18.27,18.27,0,0,1,4.56,1.72,13.78,13.78,0,0,1,4,3.28,2.26,2.26,0,0,1,.72,1.64,2.42,2.42,0,0,1-.8,1.72,2.2,2.2,0,0,1-1.48.44,1.91,1.91,0,0,1-1.4-.68,12.22,12.22,0,0,0-4.56-3.24,14.88,14.88,0,0,0-5.68-1.08,13,13,0,0,0-4.36.72,8.07,8.07,0,0,0-3.4,2.24,5.76,5.76,0,0,0-1.36,4,5.53,5.53,0,0,0,1.64,3.76,11.57,11.57,0,0,0,3.92,2.4,47.93,47.93,0,0,0,5.48,1.76,47,47,0,0,1,4.92,1.52,17.26,17.26,0,0,1,4.16,2.2,9.92,9.92,0,0,1,2.88,3.32,10.51,10.51,0,0,1,1.08,5,9.75,9.75,0,0,1-2,6.08,12.5,12.5,0,0,1-5.24,3.92,18.81,18.81,0,0,1-7.28,1.36,21.56,21.56,0,0,1-8.36-1.68A18,18,0,0,1,729.89,419.35Z"/><path class="cls-2" d="M803.57,385a2.28,2.28,0,0,1,1.72.72,2.48,2.48,0,0,1,.67,1.76v36a2.44,2.44,0,0,1-2.39,2.4,2.41,2.41,0,0,1-2.49-2.4v-9.52l1.45-.56a9.79,9.79,0,0,1-1.24,4.52,15.7,15.7,0,0,1-3.41,4.32,17.7,17.7,0,0,1-5.08,3.2,16,16,0,0,1-6.35,1.24,17.23,17.23,0,0,1-9.65-2.8,19.34,19.34,0,0,1-6.72-7.68,24.25,24.25,0,0,1-2.43-11,23.38,23.38,0,0,1,2.48-11,19.25,19.25,0,0,1,6.71-7.48,18,18,0,0,1,16-1.52,16.67,16.67,0,0,1,5.24,3.28,15.09,15.09,0,0,1,3.49,4.76,13.21,13.21,0,0,1,1.24,5.56l-1.69-1.2V387.43a2.45,2.45,0,0,1,.69-1.76A2.35,2.35,0,0,1,803.57,385Zm-16.65,37.2a13.19,13.19,0,0,0,7.53-2.2,15.12,15.12,0,0,0,5.16-6.08,19.7,19.7,0,0,0,1.88-8.68,18.81,18.81,0,0,0-1.88-8.44,15.29,15.29,0,0,0-5.16-6,13.19,13.19,0,0,0-7.53-2.2,13.6,13.6,0,0,0-7.47,2.12,14.38,14.38,0,0,0-5.2,5.88,19,19,0,0,0-1.88,8.64,20,20,0,0,0,1.84,8.68,14.53,14.53,0,0,0,5.16,6.08A13.32,13.32,0,0,0,786.92,422.15Z"/><path class="cls-2" d="M815.88,385.11h18.64a2.11,2.11,0,0,1,1.6.68,2.29,2.29,0,0,1,.64,1.64,2.19,2.19,0,0,1-2.24,2.24H815.88a2.32,2.32,0,0,1-2.32-2.32,2.12,2.12,0,0,1,.68-1.6A2.3,2.3,0,0,1,815.88,385.11Zm8.24-11.28a2.25,2.25,0,0,1,1.72.72,2.34,2.34,0,0,1,.68,1.68v40.16a7.36,7.36,0,0,0,.6,3.36,3,3,0,0,0,1.56,1.48,5.44,5.44,0,0,0,1.92.36,3.24,3.24,0,0,0,1.16-.2,3.32,3.32,0,0,1,1.16-.2,1.64,1.64,0,0,1,1.24.56,2,2,0,0,1,.52,1.44,2.18,2.18,0,0,1-1.28,1.88,5.79,5.79,0,0,1-3,.76q-.72,0-2.16-.12a8.1,8.1,0,0,1-3-.88,6.17,6.17,0,0,1-2.56-2.68,11.85,11.85,0,0,1-1-5.52v-40.4a2.3,2.3,0,0,1,.72-1.68A2.4,2.4,0,0,1,824.12,373.83Z"/><path class="cls-2" d="M847.88,378.87a3.63,3.63,0,0,1-2.52-.76,2.82,2.82,0,0,1-.84-2.2v-.8a2.7,2.7,0,0,1,.92-2.2,3.85,3.85,0,0,1,2.52-.76,3.37,3.37,0,0,1,2.36.76,2.82,2.82,0,0,1,.84,2.2v.8a2.82,2.82,0,0,1-.84,2.2A3.5,3.5,0,0,1,847.88,378.87Zm2.4,44.56a2.46,2.46,0,0,1-2.4,2.4,2.25,2.25,0,0,1-1.76-.72,2.48,2.48,0,0,1-.64-1.68v-36.8a2.38,2.38,0,0,1,.68-1.68,2.28,2.28,0,0,1,1.72-.72,2.25,2.25,0,0,1,1.72.72,2.34,2.34,0,0,1,.68,1.68Z"/><path class="cls-2" d="M900.52,405.35a22.14,22.14,0,0,1-2.68,10.92,20.05,20.05,0,0,1-7.24,7.6,20.6,20.6,0,0,1-20.6,0,20,20,0,0,1-7.28-7.6,23.67,23.67,0,0,1,0-21.88,20.44,20.44,0,0,1,7.28-7.6,20.34,20.34,0,0,1,20.6,0,20.49,20.49,0,0,1,7.24,7.6A22.05,22.05,0,0,1,900.52,405.35Zm-4.88,0a18.28,18.28,0,0,0-2-8.68,15.17,15.17,0,0,0-5.48-6,15.45,15.45,0,0,0-15.76,0,15.49,15.49,0,0,0-5.52,6,18.06,18.06,0,0,0-2,8.68,17.85,17.85,0,0,0,2,8.64,15.85,15.85,0,0,0,5.52,6,15.21,15.21,0,0,0,15.76,0,15.52,15.52,0,0,0,5.48-6A18.06,18.06,0,0,0,895.64,405.35Z"/><path class="cls-2" d="M929.64,384a15,15,0,0,1,8.44,2.12,11.84,11.84,0,0,1,4.56,5.76,22.32,22.32,0,0,1,1.4,8v23.52a2.46,2.46,0,0,1-2.4,2.4,2.35,2.35,0,0,1-1.8-.72,2.38,2.38,0,0,1-.68-1.68V400.15a15.89,15.89,0,0,0-1-5.84,8.81,8.81,0,0,0-3.36-4.2,10.88,10.88,0,0,0-6.16-1.56,14.24,14.24,0,0,0-6.52,1.56,13.77,13.77,0,0,0-5,4.2,9.71,9.71,0,0,0-1.92,5.84v23.28a2.46,2.46,0,0,1-2.4,2.4,2.35,2.35,0,0,1-1.8-.72,2.38,2.38,0,0,1-.68-1.68V387.59a2.3,2.3,0,0,1,.72-1.68,2.4,2.4,0,0,1,1.76-.72,2.26,2.26,0,0,1,1.72.72,2.38,2.38,0,0,1,.68,1.68v6.72l-1.84,2.88a10.36,10.36,0,0,1,1.64-4.92,17.25,17.25,0,0,1,3.8-4.24,18.87,18.87,0,0,1,5.16-3A16,16,0,0,1,929.64,384Z"/></svg>