<svg xmlns="http://www.w3.org/2000/svg" viewBox="0 0 623.83 698.41"><defs><style>.cls-1{fill:#fff;}</style></defs><g id="Layer_2" data-name="Layer 2"><g id="Layer_5" data-name="Layer 5"><path class="cls-1" d="M304.79,407.21a14.15,14.15,0,0,0-3.1-5.85C302.8,403.29,303.15,405.48,304.79,407.21Z"/><path class="cls-1" d="M300.24,402.6c-1.27-1.88-1.47-4.1-3.1-5.86C298,398.74,298.34,400.93,300.24,402.6Z"/><path class="cls-1" d="M294.51,386.17c-.8-2.22-1.36-2.08-3.23-5.05a16.77,16.77,0,0,0,1.31,3.38C293.56,385.65,293.47,384.9,294.51,386.17Z"/><path class="cls-1" d="M275.3,322.26c-.26-.92-.53-1.85-.79-2.79-1.33-1.09-1.64-2.51-2.83-3.65A14.33,14.33,0,0,0,275.3,322.26Z"/><path class="cls-1" d="M294.25,391.6c1,.8-.88-3.71-2.05-4.68-.61.22.67,1.61,1,3.49C293.54,390.5,293.9,390.63,294.25,391.6Z"/><path class="cls-1" d="M270.56,313.14c-1.41-2.47-.89-2.74-1.19-4.19-1.14-.86-1.34-.07-.92,1.83Z"/><path class="cls-1" d="M276.76,351.53c1,.58-1.33-4.07-2.9-5.16C274.08,348.35,276.4,349.61,276.76,351.53Z"/><path class="cls-1" d="M258.09,288.23c-.49-1-1.77-2.72-.92-2-.34-1.42-2-2.42-2.84-3.66,0-1.23-.91-3.46-2.11-6.17-1.28.51-3.65-3.92-6-7.2,1.05,2,2.35,3.81,2.77,6,.88-.35,1.16.93,3.16,3.55-.12.25-.23.52.07,1.51a14.34,14.34,0,0,1,2.91,5.16C256.45,286.92,257.7,288.33,258.09,288.23Z"/><path class="cls-1" d="M272.54,343c-.26-.93-.53-1.86-.79-2.79-.29,0-1.14-.53-1.58-1.77C269.15,337.61,271.19,342.07,272.54,343Z"/><path class="cls-1" d="M263.58,336.77a21.74,21.74,0,0,0-3.76-5.65C260.83,333.18,262.71,337,263.58,336.77Z"/><path class="cls-1" d="M231.25,232.91c-.56-2-2.56-5.28-3.24-5A34.79,34.79,0,0,0,231.25,232.91Z"/><path class="cls-1" d="M253,317.32c-1.11-2.16-1.49-4.59-3.62-6.44A27.1,27.1,0,0,0,253,317.32Z"/><path class="cls-1" d="M225.66,246.18c-1.29-2.9-1.83-2.28-4.1-5.54a13.92,13.92,0,0,1,1.12,2.69C224.3,243.91,225.27,247.48,225.66,246.18Z"/><path class="cls-1" d="M238.39,296.17c-1-.61,1.6,4,1.58,5.58C241.79,303.43,239.15,298.16,238.39,296.17Z"/><path class="cls-1" d="M226.85,273.24c-1.28-2.13-2.2-4.37-4-6.34,1.2,2.66,2.67,5.24,3.69,7.94C228.16,277,225.27,271.14,226.85,273.24Z"/><path class="cls-1" d="M204,193.76c1.45.45-2-3.86-2.58-5.26C200.11,188,203.31,192.37,204,193.76Z"/><path class="cls-1" d="M198,190.39c.22,1.71,2.06,2.88,2.05,4.67,1.09,1,1.52.86,1.31-.44C199.49,193.11,198.74,190.06,198,190.39Z"/><path class="cls-1" d="M186.47,149.9a23.35,23.35,0,0,0-3.83-7.16A60.34,60.34,0,0,0,186.47,149.9Z"/><path class="cls-1" d="M226.52,292.41c-.12-1.48-1.25-2.64-1.51-4.08-1.74-2.16-1.26-.4-.6,1.72Z"/><path class="cls-1" d="M220.85,273.67c-.27-1.95-1.42-3.61-2.24-5.37C217.67,267.69,219.32,272.56,220.85,273.67Z"/><path class="cls-1" d="M219.4,278.72a2.75,2.75,0,0,0-.73-1.3c-2.06-5.42-5.79-10.31-8-15.68-2.15-2.66-1.67-.65-3.09-2,1.15,3.08,1.85,2.1,3,4.35.94,2.57-.38,1.05,1,3.49.94-.22,2.78,3.56,4.41,5.42.23,1.71,1.26,3.14,1.72,4.78C219.64,280.53,217.45,275.94,219.4,278.72Z"/><path class="cls-1" d="M181.85,159c.56,1.41-2-2.26-2.31-3.07-1.61-1,1.53,2.42,1.33,3.38,1.85,2.49,1.32.74,2.24,1.57-.64-1.83-1.45-3.6-2.24-5.38C179.35,154,180.88,157.31,181.85,159Z"/><path class="cls-1" d="M230,328.66c-.85-2.27-1.29-4.67-3.3-6.56C227.7,324.31,228.36,326.63,230,328.66Z"/><path class="cls-1" d="M229.17,329.67c1.13.79-1.29-3.55-2.37-4.56C226.74,326.92,228.58,328.09,229.17,329.67Z"/><path class="cls-1" d="M225.41,320.23c-1.34-1.58-1.32-.74-2.24-1.56.46,1.13,1.24,2.13,1.65,3.28C225.73,322.63,225.7,321.65,225.41,320.23Z"/><path class="cls-1" d="M177.17,151.39c1.12-.15-2.57-5.22-3.16-7.35C171.94,142.66,175.81,149.19,177.17,151.39Z"/><path class="cls-1" d="M228.13,347.56c-.91-2-3-4.77-5.87-8C224.18,342.23,225.66,345.06,228.13,347.56Z"/><path class="cls-1" d="M164.38,126.59c-.54.17.61,3.68,2.24,5.36C167.13,131.81,166.21,128.23,164.38,126.59Z"/><path class="cls-1" d="M208.07,279.36c-.56-2.34-5.19-9.44-4.09-5.53C206,275.47,206.61,277.54,208.07,279.36Z"/><path class="cls-1" d="M193.22,230.82c.62-.76-2.73-6.71-5.07-9,.52,1.4-.05.85-.67.2C188.4,225.28,192,227.64,193.22,230.82Z"/><path class="cls-1" d="M213.81,311.05a20.33,20.33,0,0,0-4-7.85C211.43,305.72,211.75,308.66,213.81,311.05Z"/><path class="cls-1" d="M158,114.18c-.51-1-1-2-.4-1.4-3.05-3.83-4.31-8.25-7.39-12.08C153.7,106.7,153.48,110.31,158,114.18Z"/><path class="cls-1" d="M192.76,250.79c-.12-1.74-1.94-2.92-3-4.35a13.32,13.32,0,0,1,1.12,2.69C191.17,249.11,191.83,249.71,192.76,250.79Z"/><path class="cls-1" d="M149.48,99.41c1.45,1.32-.93-2-.79-2.79-.31,1.59-1.34-2.22-3.36-4.24,0,1.78,2.39,2.78,2.36,4.56A7.62,7.62,0,0,1,149.48,99.41Z"/><path class="cls-1" d="M145.45,91.57a23.3,23.3,0,0,1-1.11-2.7L144,87.78l-.14-.49a1.42,1.42,0,0,1-.1-.39,1.53,1.53,0,0,0-.75-1.49c.14.86-.18.88-.51.85s-.69-.08-.54.8a.65.65,0,0,1,.66,0c.19.18.19.16.6.91A17.72,17.72,0,0,0,145.45,91.57Z"/><path class="cls-1" d="M184.6,251.17c-1.51-3.07-4.39-7.12-3.69-4.14C182.8,249.31,183.21,250.34,184.6,251.17Z"/><path class="cls-1" d="M139.3,80.36c.36-1-.93-2-1.19-2.94.23-.41,1,.25,1.85.89-.14-.76-.71-1.16-1.39-1.69a5.63,5.63,0,0,1-1.92-2.27c-.73.22-.27.37-.57,1.13,1.44,1.29,0-.34.73-.47a10.81,10.81,0,0,1,.94,2.59A6.58,6.58,0,0,0,139.3,80.36Z"/><path class="cls-1" d="M147.38,142.8a18.18,18.18,0,0,0-4.81-6.82C144.07,138.83,145.88,142,147.38,142.8Z"/><path class="cls-1" d="M159.26,188.5c-1.27-2.38-.2-.83-.79-2.79-1-1-1-.17-1.51-.27A12.59,12.59,0,0,0,159.26,188.5Z"/><path class="cls-1" d="M127.87,128.58a35.09,35.09,0,0,0-5.21-8.22C124.47,122.92,126.67,128.22,127.87,128.58Z"/><path class="cls-1" d="M131.45,175.46c-.41-1.65-1.44-3.09-2-4.67-1.58-2.11,1.3,3.7-.27,1.6A12.88,12.88,0,0,0,131.45,175.46Z"/><path class="cls-1" d="M141.41,211.86a24.54,24.54,0,0,0-5-7.52C138,206.78,140.44,211.62,141.41,211.86Z"/><path class="cls-1" d="M93.36,56.94c-.15-.73-.31-1.47-.46-2.2a3.11,3.11,0,0,1-1.29-1.6C90.07,51.47,91.84,55.5,93.36,56.94Z"/><path class="cls-1" d="M119.12,161.18c-1-3-3.24-5.56-3.89-8.65-1-1-.52.68-.79,1-1.31-1.69-2.29-4.67-3-4.35.59,1.58,2.2,2.84,2.38,4.57C115.59,154.52,116.71,158.48,119.12,161.18Z"/><path class="cls-1" d="M79.3,40.08c-.72-1.24-.74-2.06-1.77-3.49-2.18-2.88-2.16-1.33-.87.93C79.15,41.22,76.82,36.4,79.3,40.08Z"/><path class="cls-1" d="M97.43,124c.34-.26-.62-2.53-1.83-4.72a28.55,28.55,0,0,0-1.85-3l-.21-.29-.32-.45c-.22-.31-.43-.58-.61-.8a2.47,2.47,0,0,0-.84-.79L93,116l.77,1.21c.48.73,1,1.47,1.41,2.21A23.77,23.77,0,0,1,97.43,124Z"/><path class="cls-1" d="M94.92,131.69a15.43,15.43,0,0,0-4-6.34C92.32,127.45,93.24,129.7,94.92,131.69Z"/><path class="cls-1" d="M72,73.68c-1.93-3.66-3.33-7.06-6.27-11A79.74,79.74,0,0,0,72,73.68Z"/><path class="cls-1" d="M51.74,35.38c-.91-2.21-3.07-5.14-4-7.32-1.14-1.42,0,1.18.35,2.35C49.33,32.06,50.55,33.73,51.74,35.38Z"/><path class="cls-1" d="M41.67,18.71c-.5-2.14-3.28-5.75-4.25-8.17-.73-.89-.38.31.51,2.17A30.33,30.33,0,0,0,41.67,18.71Z"/><path class="cls-1" d="M182.43,33.91c.79-.1.45-.22.08-.34a8.3,8.3,0,0,1,2.89.37c1.8-.18,1.15-1.18,3.87-.8,2.66-.59-4-.25-1.33-.7C185.61,32.51,178.57,33.08,182.43,33.91Z"/><path class="cls-1" d="M190.82,32.82a5.63,5.63,0,0,0,3,0c1.06.24,2.11.48,1.32.69a12.73,12.73,0,0,0,3.81-.46l-3.51-.89C193.79,32.79,192.41,32.36,190.82,32.82Z"/><path class="cls-1" d="M207.15,36.23a22.17,22.17,0,0,0,6-.28C211.29,35.32,209.23,35.73,207.15,36.23Z"/><path class="cls-1" d="M96,12c5.33.23,4.24-1,1.71-1.34C91.42,10.59,96.59,11.49,96,12Z"/><path class="cls-1" d="M84.81,9.88c6.77.32,16.2.87,18.52-.39-3.07.15-6.29-.05-9.48-.14A38.75,38.75,0,0,0,84.81,9.88Z"/><path class="cls-1" d="M104.34,11.86c4-.12,8.11.2,12-.25-4.11-.21-8.1-.06-12.32-.43C103.12,11.4,105.85,11.65,104.34,11.86Z"/><path class="cls-1" d="M125.37,14.89c10.07-.27,12.65.32,5.68-1.49C126.14,13.87,126.82,14.39,125.37,14.89Z"/><path class="cls-1" d="M229.4,36.13a18.39,18.39,0,0,0,7.4.09C234.36,36.06,232,35.57,229.4,36.13Z"/><path class="cls-1" d="M265.3,38.06c7.14-.89,13.08,0,17.33-1.34-5.43,0-10.87,0-16.41.5-.69-.23.82-.44,1.63-.66C262.94,35.91,262.53,37.26,265.3,38.06Z"/><path class="cls-1" d="M181.53,13.68c3.81.51,1.61-1.29,3.88-.8C185.83,11.77,180.35,13.28,181.53,13.68Z"/><path class="cls-1" d="M185.34,13.21a17,17,0,0,0,6.75-.43A21.94,21.94,0,0,0,185.34,13.21Z"/><path class="cls-1" d="M299.6,37.09l2.82.7c1.48-.26.78-.55,2.4-.82C303.06,37.09,301.43,36.65,299.6,37.09Z"/><path class="cls-1" d="M234,18c1.17-.39-.62-.81,2.47-1.17C233,16.61,228.6,17.85,234,18Z"/><path class="cls-1" d="M339.24,3.88l.33.09.56.09,1,.14c.55.07,1.07.12,1.54.15a12.94,12.94,0,0,0,2.54-.07,5,5,0,0,0,2.73-.9,32.21,32.21,0,0,0-4,.07l-2.15.19-1.22.12C340,3.8,339.43,3.84,339.24,3.88Z"/><path class="cls-1" d="M421.45,17.76c3.08,1.53,3.37.09,7.11,1.93,1.3,1.06-3.21-.5-4.32-.42a15,15,0,0,0,7.44,1.41c-2-.71-2.75-1.13-2.77-1.59,3.82.3,6.53,2.52,10.39,2.86-1.81-.63-3.73-1.1-5.18-2.27a34.87,34.87,0,0,1-11-3.39C422.8,16.84,426.09,18.45,421.45,17.76Z"/><path class="cls-1" d="M451.07,27.33l2.66,1.77c3.27.65,3.19,1,5.17,1a16.17,16.17,0,0,0-4.27-1.68c-1.18-.31-1.67-.43-.11-.48A4.28,4.28,0,0,0,451.07,27.33Z"/><path class="cls-1" d="M462,32.71c.19-.41,3.06.36,5.34.86l-1.95-1.41A7,7,0,0,1,463,31.3c-.43.52.53.69-2.77-.27C461.5,31.87,460.55,31.77,462,32.71Z"/><path class="cls-1" d="M473.53,38.71c2.89.7,5,2.33,7.84,3.16a35.81,35.81,0,0,0-4.77-2.47,20.33,20.33,0,0,1-4.54-2.7C470.2,36.67,472.93,37.6,473.53,38.71Z"/><path class="cls-1" d="M486.45,43.4c-2.4-.82-3.43-.91-1.54.53a23.6,23.6,0,0,0,3.15,1.31C488.17,45,487.59,44.31,486.45,43.4Z"/><path class="cls-1" d="M488.28,45c1.2,1,.26.79,1.6,1.86,1.57.6,1.15-.18,2.51.84,1,.21-.81-1.11-1.58-1.87Z"/><path class="cls-1" d="M493.59,46.4c-.65,0,4.24,4.12,6.7,4.76C498.13,49.51,496.14,47.63,493.59,46.4Z"/><path class="cls-1" d="M532.21,75.41c2,.86,3.33,2.31,5.17,3.37-1-1.7-3.09-2.55-4-4.22C531.66,73.78,530,73,532.21,75.41Z"/><path class="cls-1" d="M551.77,93.05a18.91,18.91,0,0,0,4.61,5l-1.69-2.84Z"/><path class="cls-1" d="M562.37,105.17l6.07,8.09c1,1,.41-.14-.24-1.25s-1.28-2.25-.24-1.26c-1.16-1.75-1.31-1.19-2.06-1.77C564.65,107.75,564.15,106.11,562.37,105.17Z"/><path class="cls-1" d="M571,113c.91,1.73,2.83,3,3.73,4.75.34-.6-.94-2.49-2.77-5.18C570.74,111.51,572.66,114.68,571,113Z"/><path class="cls-1" d="M579.77,130a31.33,31.33,0,0,1,4.38,6.35c1.15,2.23,2.17,4.5,3.41,6.69,2.67,2.56-2-5.77-2.21-7.94-1.34-.34-.73.79-4-3.9-1.25-3.35-.43-3.16-3-6.82-.67-.11-.76.27-.45,1.19S578.91,128,579.77,130Z"/><path class="cls-1" d="M582.35,130c.87,1.6,1.9,3.15,2.9,4.7a41.53,41.53,0,0,1,2.64,4.84c.15-.21-.54-2-1.61-4.07A21.16,21.16,0,0,0,582.35,130Z"/><path class="cls-1" d="M592.2,145.25c.33,1.35,1.16,2.55,1.45,3.89,1.6,2,0-2.16,1.93.39a22.41,22.41,0,0,0-2.71-4.47C594,148.4,594.41,148.3,592.2,145.25Z"/><path class="cls-1" d="M602.88,167.5a8.89,8.89,0,0,0,.47,2c.2.66.43,1.32.59,2,.16-.7,1.31,1.21.91-1C604.12,170.38,604.25,169.47,602.88,167.5Z"/><path class="cls-1" d="M583.5,440.64a35.61,35.61,0,0,0-3.36,5.2c-1,1.84-2,3.77-2.93,5.75a106.3,106.3,0,0,0,6.44-8.56C584,441.65,583.47,441.57,583.5,440.64Z"/><path class="cls-1" d="M532.9,504.62c-1.79.64-3,2.54-4.63,3.52C527.47,509.36,532.12,506.3,532.9,504.62Z"/><path class="cls-1" d="M460.62,546.58c-.14-.63-6.58,1.91-9.05,3.54A91.1,91.1,0,0,0,460.62,546.58Z"/><path class="cls-1" d="M423.23,559.08c-1.81.77-4.43,1.56-6.73,2.32a22.07,22.07,0,0,0-4.89,1.89C415.29,562.45,422.12,560.46,423.23,559.08Z"/><path class="cls-1" d="M345.37,573.07a40.73,40.73,0,0,0-4.86-.06l-2.43,0c-.67,0-1.35,0-2-.07-.15.26,1.27.51,3,.61A21.42,21.42,0,0,0,345.37,573.07Z"/><path class="cls-1" d="M267.7,570.34c-.31.39-2.18.76-2.49,1.16a17.45,17.45,0,0,0,4.52-.29C268.37,570.91,269.19,570.64,267.7,570.34Z"/><path class="cls-1" d="M107.21,507.4a1.39,1.39,0,0,0,.52-1.39,1.59,1.59,0,0,1,.58-1.48A1.71,1.71,0,0,0,107,506,3,3,0,0,0,107.21,507.4Z"/><path class="cls-1" d="M107.8,504.4c.89-.45,1-.82.51-1.4A1.55,1.55,0,0,0,107.8,504.4Z"/><path class="cls-1" d="M128.6,572.7c-.66.27-.69.56.55.85-2.48,0-4-.06-5.68,0-.82,0-1.67,0-2.66.06l-4.06.19,1.42.08.91.08,1.83.12c1.22.06,2.44.1,3.67.12,2.47,0,5,0,7.46-.24C129.33,573.5,130.27,573.11,128.6,572.7Z"/><path class="cls-1" d="M97.91,570.06c-.13.51-6,1-2.19,1.52C100.64,571.59,101.3,570.62,97.91,570.06Z"/><path class="cls-1" d="M106.94,573.36c1.44-.28-1.79-.58-3.23-.88-3.42.32-4.94.65-5.55,1C100.88,573.79,104.34,572.79,106.94,573.36Z"/><path class="cls-1" d="M76.27,433.06a10.73,10.73,0,0,0,2-5,17.11,17.11,0,0,0-2,4C76.74,431.59,76.34,432.6,76.27,433.06Z"/><path class="cls-1" d="M80.24,422c1.23-1.48,1.71-4.4,1.49-4.52C80.09,420.22,79.73,421.65,80.24,422Z"/><path class="cls-1" d="M87.79,411.27A94.08,94.08,0,0,0,92.74,403l2.4-4.45,4.15-7.48c-1.78,1.46,1.9-4.53,4-9.11-2,3.46-3.79,6.68-5.47,9.78l-2.46,4.59-1.18,2.24-.63,1.3C91.83,403.36,90.12,406.94,87.79,411.27Z"/><path class="cls-1" d="M101.73,386.26c2.67-3.67,4.67-8.58,7-13A66.18,66.18,0,0,0,101.73,386.26Z"/><path class="cls-1" d="M111.4,368.74c2.66-4.55,5.44-8.56,8-13.58C118.7,355.14,113.59,363.28,111.4,368.74Z"/><path class="cls-1" d="M119.1,358a109.77,109.77,0,0,1,6.69-10.06c1.55-4.09,2.87-6.43.87-4.87C126.47,345.64,121.42,352.79,119.1,358Z"/><path class="cls-1" d="M120.42,336.78c-.68,2.71,4.39-6.76,5.88-10a52.65,52.65,0,0,0-3.79,5.47C121.15,335,122,334.47,120.42,336.78Z"/><path class="cls-1" d="M153.83,292.25c-.71,1.42-.4,1.12,0,.73l1.27-1.48a49.22,49.22,0,0,1,2.69-5.4c2.94,4.84,7.24,12.67,10.34,16.58-.84-1.8-.94-2.33-.51-1.92-3.3-4.88-6.45-10.53-9.71-15a2,2,0,0,1-.12-.29c-1.63,1.93-1,.52,0-1.43.78,1.12,1.76,2.56,1.75,1.87a11,11,0,0,0-1.75-3c-1.07,2.4-2.16,5.3-3.11,6.23C153.57,291.39,157.47,286.72,153.83,292.25Z"/><path class="cls-1" d="M133.6,313.58c4.66-7.86,9.27-16,14-25.67C142.93,295.94,138.21,304.75,133.6,313.58Z"/><path class="cls-1" d="M171.51,308.36c2.23,3.76,1.79,5.32,4.94,10.72-.89-2.91-.16-2.44,3.31,3.09A123.52,123.52,0,0,0,171.51,308.36Z"/><path class="cls-1" d="M176.76,315.18c3,6.05,6.48,10.9,10,16.12C182.11,322.69,181,321.89,176.76,315.18Z"/><path class="cls-1" d="M207.54,368.91c1.07,1.3-1.33-3.49,0-1.66-2.28-4.05-4.91-7.83-7.4-11.61a80.07,80.07,0,0,1-6.82-12c-.54.94,2,5.12,5.15,10.17S205.57,364.84,207.54,368.91Z"/><path class="cls-1" d="M192.43,340.65a131.1,131.1,0,0,0,7.37,12.57l8.07,12.16a121.61,121.61,0,0,0-7.47-12.73C197.73,348.57,195,344.67,192.43,340.65Z"/><path class="cls-1" d="M205.6,358.31c-1.13-.15,5.22,9,7.42,12.33C211,366.21,207.7,362.66,205.6,358.31Z"/><path class="cls-1" d="M207.6,363.87c1.9,3.56,3.72,7.12,5.69,10.6A80.51,80.51,0,0,0,220,384.64a102,102,0,0,1-6.21-10.41A98.55,98.55,0,0,0,207.6,363.87Z"/><path class="cls-1" d="M225.77,398.2c-1.39-4.08,1.89.19,3,2.84.35,2-1.7-1.22-3-2.84.18,2,2.29,3.31,2.57,5.25,2.11.65,8.55,8.62,11.4,12.3,1-.61-5.84-8.39-6.72-8.48.7-.79-2.56-4.94-.66-3.6-1.88-2.23-3.69-4.25-5.71-6.47a72,72,0,0,1-4.64-6c-1.84-2.49-3.82-5.18-6-8.16a66.39,66.39,0,0,0,4.76,8.36c.9,1.37,1.85,2.73,2.83,4.1l.74,1,.18.24.11.12.23.26Z"/><path class="cls-1" d="M237.37,415c-.65-.58.06,1.26.27,2.21,1.1,1.66,2.69,3.18,3.55,4.94.41.14.1-1,1.19.37-.56-1.33-1.28-2.63-1.85-4C239.1,416.94,238.9,418.71,237.37,415Z"/><path class="cls-1" d="M240.4,423.16c1.19,1.94,4.16,6.28,3,2.86C241.62,423.7,241.65,424.57,240.4,423.16Z"/><path class="cls-1" d="M244.56,426.39c-1.45-.9,1.57,2.93,1.51,4.08,1,.37.57-.38,2.44,2.26C247.81,430.42,245.72,428.55,244.56,426.39Z"/><path class="cls-1" d="M318.45,436.33c.17,1.1-1.89-1.74-.8,1,.92,1,1.36,2.11,2.32,3.07-2.86-5.26,4.14,1.15-1-3.5-3-5.62-6.45-11.11-8.77-17-2.12-2.26-2.35-3.21-2.38-4.57-.51-.47.05,1-.65.21-1.71-2.32.18-1-1-3.48-1.09-.29-1.75-1.66-4.88-4.51,1,2.45,3.12,4.57,4.81,6.82.17,2.23,1.88,4,3.1,5.84.89,4.73,5.34,10.86,5.94,13.33,2.32,2.63-.63-3.71-1.38-4.89C316,431,316.16,434,318.45,436.33Z"/><path class="cls-1" d="M293,378.28a67.64,67.64,0,0,0-5.8-10.32c1,2.47-.23,1,.47,2.9C289.68,371.56,290.8,375.52,293,378.28Z"/><path class="cls-1" d="M280.79,359.38c2.34,4.12-1.51-1.52-.26,1.61,1.46.93,3.53,4,2.7,4.45-2.35-3.46-3.48-4.12-5-7.51.2.69-.19.35-.13.8.59,2,3.44,5,2.56,5.26-2.95-4.38-4.66-9.16-7.77-13.47-.62-.4.68,2.59-.27,1.6-.37-1.92-2.06-3.39-2.24-5.36.59.58,1.53,1.79,1.38,1.07-1.37-2.53-5.24-8.28-5.14-6.72-.23-1.71-1.49-3.07-1.72-4.78,2,1.89,1.95,4.46,4,6.34-1.76-4.33-2.62-5.15-3.23-8.86a16.36,16.36,0,0,1-1.78-2.47c-.49.4.3.94.79,2.8-.92-1.06-1.2-1-1.19-.39-1.83-1.93-2.52-4.25-4.29-6.23-.25,1.27,3.49,6.19,1,3.5-1.86-3.48-5.7-10.33-5.87-11.81a12.23,12.23,0,0,0,3,4.34c-1.67-4.92-6.66-11.52-7.32-14.39-1-1.15-1-.68-.46.91a26.69,26.69,0,0,1-4.28-6.22c-1.38-5.13-5.85-11.66-10.36-18.74.82.63,2.77,4.5,2.64,2.95-.76-2.81-3.51-5-4.68-7.63.27-.19,1.88,2,1-.32l-2.1-2.36c-1.33-4.66-5.9-8.26-8.25-12.57-.73-3.73-5.71-11-6.46-10.1.51,1,3.69,4.76,2.18,3.88-1.14-2.75.07,1.44-1.19-.38-.83-2.27-1.81-4.5-2.64-6.77a24.9,24.9,0,0,1,4.42,5.43c-2.66-6.12-6.86-13.16-9-15.36.92.85-1.07-3.63-1.71-4.79-1.59-.21-3-5.79-4.88-8.31-.26.16-2.94-2.28-3.7-4.14.66.11,1.67.88,1.12-1.14-3.15-3.51-1.65-4.87-5.4-8.9,1.47,2.63.18,1.15-.46.91-1.71-3.4-5.44-9.46-2.44-6.06a85,85,0,0,1-9.57-16l-2.11-2.37c-1.62-3.69,2.22,2.32,1.52.29-3.24-5.33-5.3-7.26-8.44-13.27.22,1.71,1.83,3,2,4.67-1.62-3.31-6.24-9.63-6-11,.32,1,2.83,5,2.5,3.75-1.68-3-2.92-6.15-5.41-8.9.81,1.74,2.38,4.14.79,2.78-1-2.35-3-4.87-1.51-4.07-1.67-.67-2.22-3.05-4.09-5.53a35.82,35.82,0,0,1,1.91,5.47c1.19,1.14,1.51,2.57,2.84,3.66.5,5.45,8.69,14.26,10.82,21.64,2.91,3.62,3.63,8,6.86,11.49,3.51,7,7.08,13.95,11.27,20.72-.52-.11,0,1.59-.79,1,1,1.7,1.44,3.6,2.9,5.16,1,2.9-.11,2.11-.2,3.12,1.41,1.56,3.09,3.63,3.5,3.43a23.69,23.69,0,0,1,2.64,6.77,8.32,8.32,0,0,1,2.83,3.65c-1.13-.2-3.52-4.63-3.29-2.74,1.42,2.08,4.28,6,3.3,6.55,1.27,1.36,1.93,2.92,3,4.36,0-1,.6-1,2.57,1.44.67,2.39-1.4-1.63-.8,1,2.92,3.72,3,6.14,6,11-2.56-3-2.9-3.85-3.3-2.73-.33-1.42-2-2.42-2.83-3.66a51.27,51.27,0,0,0-3.83-7.14c1.05.55,2.77,4.5,2.64,2.94-2.42-2.53-2.47-6.3-4.48-6.92a128.73,128.73,0,0,0-5.94-13.31c-.94-1.08-1.59-1.68-1.91-1.67a5.59,5.59,0,0,0-1.45-2.58c-1.53-3.4,1.67,1.59,1-.32-1.18-2.9-2.8-4.76-3.36-4.24-1-2.46.23-1-.46-2.9-2.4-4.35-4-5.13-5.47-10.42-1.05-1.16-.13,1.16-1.72-1-1.87-4-2.07-4.54-1.78-2.47-1.23-1.89-1.65-4-2.77-6-5-6.67-7-13.36-10-18.85-2-2.09-5-6-4.15-3.22,1.28,1.38,1.26.51,2.63,2.95,1.3,3-1.55-1.37-.26,1.6,5.44,9.93,10.94,19.83,15.7,30-1.87-1.68-2.37-3.82-3.76-5.64-1.16-.48,1,3-.79,1-.3-1-.19-1.26-.07-1.51-2.78-3.82-3.5-4.1-5.34-7.41,2.59,4,1,.34,2.77,2.14a10.5,10.5,0,0,0,1.32,3.39c.32-.34,2,1.65,1.32-.43-1.4.38-1.69-3.14-4.29-6.22.68,2.26-2.38-2-3-2.85-2.75-5.77-12.47-20.34-13.45-24.6-.93-.85.35,2.24-1.51-.26-.75-4.12-1.55-5.09-3.77-9.46,1.95,3.11,2.34,2,3.56,4.94-.62-.64-1.18-1.18-.66.21.95,1.11,3,4.16,3.7,4.15-1.75-2.3-5.72-11.42-8.38-11.77-1.07-2.45-2.76-4.69-3.82-7.14,1.79,1.48,3.81,5.53,3.49,3.43-.82-2.52-3.61-4.4-4.48-6.92-.79,1.93-5.33-8.53-6.92-9.18.23-.9.92.74,1.18.38-.75-2-2.52-5.29-3.23-5.05-.61-2.77-2-3.3-1.71-4.78-1.81-2.71-3.67-5.43-4.22-4.72-2-3.15,1.1-.38-1-3.49-.45.45-1.68-.7-3.56-4.94-.32-1.15,1.34,1.23,1.18.37-1.47-2.6-.95-.85-1.91-1.67-.26-1.18-1-2.2-1.32-3.38.35-1.1,2.45,4.34,2.64,3-1.63-3.75-4.72-7.71-4.95-6-.24-2.26-1.91-6.87-3.3-6.54-1.46-2.62-.15-1.11-.26-2.21-2.56-4-4.45-7.42-6.25-10.65s-3.64-6.44-6.55-10.68c-1-2.68.39-.93.32-1.86-3-4.64-6.1-7.58-5.63-9.3-2.6-3.07-3.34-5.61-4.69-6.93.71.79.47-.09.25-1a81.45,81.45,0,0,1-5.15-7.24c-1.94-3-3.35-5.6-2-4.8-3.19-4.07-6.7-9.5-8.83-11.81.07-.8-.75-2.62-1.87-4.72,6.79.21,13.71-.35,11.88.79,4.45.47,1.83-1,6.83-.1,3,.64-5.62-.19-2.34.65,3.87.34,11.46.59,9.18-.74-1.43.18-7.08,0-6.63-.41,6,.29,13.16.15,17.12,1,3.22-.3-2.41-.7.85-1,4.57.81,3.65,0,7.15.25-2.23-.42-4.35-.84-4.6-1.23a25.76,25.76,0,0,1-9.94-.44c2.66-.43,6.29.56,8.82-.08,4.8.54,4.9,1.9,8.68,1.44,2.33-.43.27-.9,2.66-1.32l1.72.35a3.22,3.22,0,0,1,1.6,0c-2.51.48-4.45,1-3.42,1.48,4.54-.23,1.84.44,1.91,1,4.28.38,3.46-.65,7.36-.94,4.9.77,14.39,1,14.76-.69,1.8.36,1.17.69.4,1s-1.73.66-.75,1a16,16,0,0,1,2.59-.82,6.94,6.94,0,0,0,2.22-.82,28.78,28.78,0,0,0,9.66-.07c2.84.6-3.82,1.1,1.1,1.72L176,36.56c-.27,1.13,4.14.67,7.87,1.28,1-.22.18-.46,1.64-.66,4.54.59,11.52.74,14.22-.7.52.9,6.77.85,7.39.08,3.85,1.65,8.43-.08,12.47.65.39-.72,1-.13,3-.3-1-.24-1.19-.47-1.35-.7,2.53-.24,5.11-.77,7.47-.25-2.1.43-6.58,0-4.65,1,5.77-.43,11.09,1.29,16.83,1,2.85-.25,4.07-.64,3.24-1.32-5.52-.87-3,1.15-7.52.59,3.49-.64.79-1.35,1.89-2,1.09,1.12,5.35.79,8.66,1.12-1.36.55-3.23,1.1-.35,1.7,1.8-.19,1.15-1.19,3.87-.81-.57.28-1,.55-.92.84,3.24-.1,6.5-.36,9.72-.4,2.69,1.34,12.29.23,17.6.87-.78-.29.9-.55.92-.84,1.71.12,3.34.56,5.22-.11,2.95,1.58,7.15.26,11.83.13-1.48.63,3,.24,2,.88a16.82,16.82,0,0,1-6.05.61c1.46,1.39,9,1,13.23.49-2.16-.35-4.51.24-6.55-.59,7-.42,13.83,0,20.92-.78.78-.22-.28-.46-1.35-.7l3.89-.81c2.9.55-1,1,1.89,1.56,5.61.83,5.66-.89,9.58.27,2.37-1-4.08-1.4-6.4-1.26,2.67-1,7.08.52,7.52-.6,3.22.89-2.14,1.68,3.17,2.59a29.28,29.28,0,0,1,4.06-.23l5.1.06c3.3,0,6-.12,5.39-1.31-3.6.22-7.07.09-10.54,0,.36-.83,4.54.17,3.22-.88,5.56.8,15.42.83,18.42,1.87a13,13,0,0,0-2.95-.36c1.75.84,5.2.93,1.15,1.17-3,.2,1-1-2-.75-4.91.19,1.24.54-.31,1-4-.66-2.93.68-8.31,0,2.26.83,4.77.76,7.21,1,1.44-.3,2.68-1,5.38-.23-.37.35-2.27.52-1.11,1.06,2.58.14,5.38.45,4.71-.41-3.34-.14-1.54-1.31-4.84-1.48,3-.6,5.32.84,8,1.24,1.06-.14,3.13-.08,2.49-.48a37.81,37.81,0,0,1-6.55-1.12c1.67-.8,2.3.3,5.43-.08-3.58-.8-7.37-1-11-1.64.81-.13,2.36-.17,1.69-.48-2.71-.28-4.7-.41-4,.4-4-.83-7.91-1.26-10.35-.93,1.88-.42-2.17-.69-3-.19-1-.28-1.17-.51-1.32-.74a19.78,19.78,0,0,0-2.29.1,13.54,13.54,0,0,0-2.35.45c-3.46-1.21-7.29-.63-11.07-.3,1.34-.32-1.9-.7-1.26-1-6.05,1.18-14.92-1.1-18.66.64-2.05-.86-4.43-.08-6.7.09-2.71-.42-1.77-.81-3.44-1.22-2.75,1.41-10.58-.62-15.49-.34-.94.27-.15.56-.92.84-3.75-.23-4.82-.19-9.57-.28-.21-.59,4.49-.37,2.45-1.16-7,2.18-18.76.44-25.28.4.37.39,1.07.8-1,1.17-2.61-.53-5.43,0-8.09-.26,1.9-.43,3.29-.86,3.24-1.32-13.46-.61-31.31.83-42-1a16.34,16.34,0,0,0,5.21-.11c-2.64-.37-.73-.69-2.75-1.05-4.06,1.28-5.87-.35-8.08-.26-2.89.36-1.08.78-4,1.15-1.72-.94-3.39-.71-5.7-1.09-1.74.27-.59.56-.92.84-2.68-.34-9.46.6-9.57-.27,2-.11,3.87.39,6-.28-6.21-.28-1.88-.74-4.09-1.74-3.07.36-2.32.77-2.46,1.16A79.77,79.77,0,0,1,166,31l-9.71-.48c-.17.81-4.56.77-7.1,1.29-3.55-.48,2.49-.88-1.62-1.37a57.35,57.35,0,0,1-10.3,1.26c1.19.37,3.47.21,2.62.53-3.15-.49-5.25.35-4,.81-2.87-.38-5.44.23-8.44-.42,1.39-.71,3.31-.12,4.92-.29-3.54-.48.2-.62,1.51-.66-4.2-.07-7.6-.36-9-1.1,1.07.69,5.51,0,3.39-.31a49.72,49.72,0,0,0-9.16.13c-2.93.25-5.75.57-8.8.55,1.92-.44,5.76-.85.82-1.34a18,18,0,0,1-5.26,1.3,21,21,0,0,1-7.09-.24c1,.26,5.65.15,3.22-.31-4.39,0-9.07-.27-13.1.05a17.83,17.83,0,0,1-4.79-1.05c-3.42.31-1.69.35-4.09,1-2-.37-3.22-.22-5.15-.55-1.52-.24.1-.45-1-.68-1.3-.09-2.51-.15-3.64-.19,1.86,3.54,4,6.94,6.19,10.27s4.4,6.63,6.51,10.14a17.61,17.61,0,0,0-3.68-3c2,3,2.91,5.64,5.72,9.06-.57-1.88-5.33-8.25-2.27-5.07a42.14,42.14,0,0,1,4.61,10.24c3.85,5.12-.64-2.37,1.15-.73a135.94,135.94,0,0,0,7.44,13.45c2.72,4.42,5.44,8.57,7.65,12.19-1.59-1.61-1.76-3.1-3-4.69,1.18,2.91-1.37-.8-.17,2.14a87.14,87.14,0,0,1,8.89,14.27l3.69,7.2.79,1.52.78,1.46c.54,1,1.1,1.93,1.69,2.88q-2.24-2.92-1,.32a34.86,34.86,0,0,1,5.15,6.72c-.56-.52-.6-.14-.66.22,4,5.8,6.46,12.12,10.81,17.81-.92-1.05-1.2-1-1.19-.37,5.89,9.42,4.71,8.38,8.58,16.27-1.26-1.54-1.94-2-1.72-1,2.65,2.88.79,2.49,2.91,5.16,1.28,1.59,2,2.16,2.44,2.26a15,15,0,0,0,1.84,4c.87,1-.25-1.61.46-.91,2.31,5,.83,2.71,3.7,7.94-.23-1.09-1.53-4.09.26-1.61,1.6,5.62,8.88,16.88,5,13.65,1.39,3.34,4,6.32,5.6,9.61-.59-.59-1.53-1.8-1.38-1.08,2.58,3.54,1.08,3.67,3.5,7.26,1.49,1.16,1-1.14,2.5,0-.27,1.59,2.66,8.28,4.75,9.12,10.1,20.35,21.39,40.31,31.91,60.51-1.82-1.69-1.9-3.95-3.42-5.73-.56.26-1.91-2.79-1.72-1,.7.8.84,1.78,1.45,2.58.65.58.73.14,1.91,1.67,1.23,2.86-.34.77-.25,1.61.78,1.52,1.46,3.07,2.37,4.57.52.35,1,.6,1.18.37-1.25-3.53-.68-3.78-.72-5.11.63,1.83,2.2,3.36,2.56,5.26-.87-.87-2.83-3.65-1.7-.95,3.21,4.79,4.21,10.32,8.18,14.87,0,1.52.36,2.11,1.44,2.57.27,1.95,1.43,3.62,2.25,5.38-1.91-2.43-3.06-5.12-5-7.52,1.14,4.7,4.76,8.62,6.92,13-1.3-.26,2,4.37,2.44,6.07-.87-.28-3.95-4.48-3.62-2.63,2.42,2.52,3.41,5.49,5.21,8.22,2,2.11,1.17,1,2.76,2.14.37,2.36.6,2.31,1.59,5.59-1.7-1.94-1.35-1-2.57-1.45-1.33-2.11-1.92-4.46-4-6.34-2.07-6.09-5.78-11.16-9.17-18.36-3.65-3.39-4.28-7.77-6.86-11.49.18.78.31,1.47-.65.22-.37-1.92-2.07-3.4-2.25-5.38.55.06,2.19,2,1.32-.43-.53-.59-.79-1.27-1.26-1.88-2.66-3.47-.95.83-3.62-2.63-.74-2.62-1.13-3.19-3.43-5.75-.29-1-.19-1.26-.06-1.5-1.11-1.67-2.7-3.19-3.57-4.94,1-1,3.5,5.05,5.54,8.1-.17-1.1,1.9,1.75.79-1-2.25-2.82-3.53-6-5.73-8.8-1.41-2.92,0-2-2.38-4.57-.69-1.93.54-.43-.46-2.9-1.47-1.3-2.12-2.87-3.36-4.24-.49-1.39.5-1.82-1.19-4.19,0,1.27.24,3-2.17-.05.71-1.87-1.78-3.61-1.25-5.69-2.09-1.81-1.74-1.95-3.9-4.85.61,1.89,4.12,6.73,3,6.66-2.39-3.79-4-7.84-6.2-11.71-1,.8-5.38-9-7.91-12.66,1.31,3.67,6.55,13.8,3.69,11.76a17.49,17.49,0,0,0,2.51,3.76c-.37-1.24-.1-1.34.46-.92,2.32,5.41,2.93,2.51,5.34,7.42-1.34-1.58-2.59-3-2.24-1.56a29.46,29.46,0,0,0,1.65,3.27l2.11,2.36c.64,2.08,1.79,4,2.44,6.07-2-1.64-2.47-3.77-4.09-5.53a15.54,15.54,0,0,0,1.84,4l3.17,3.55c-.87-1.66-1.05-2.34-.06-1.5,1.72,4.26,4.26,8.26,6.39,12.4,6.34,5,9.39,18.6,14.44,24.27-2-2.6-2.67-2.67-3.29-2.73-1.53-4.32-3.85-10.79-6.4-12.42-.5-2.63-2-4.92-3.49-7.24-.48.73,2,3.9.66,3.6,3.1,2.46,2.63,6.94,5,7.52.73,3.83,3.47,7,4.81,10.63-1.35-1.57-2-3.18-1.91-1.67,1.34,1.58.83,2.54.79,2.8.79-.34,1.55,2.73,3.36,4.24-.87-1.66-1.05-2.35-.06-1.51,1.16,2.93,3.36,5.51,3.89,8.65-.75-.76-2-2.43-1.91-1.66,2,3.58,2.45,2.91,4.61,6.12-.22,2.39,2.94,6.05,2.91,9,2.12,2.93,3.38,7.45,4.41,9.24-.6-1.8-1.94-2.13-1.9-1.66,1.31,2.28,2.53,6.87,2.89,5.15,1.78,3.77-.06,1-.06,2.32,1.37,1.32,1.24,3.15,2.37,4.55,1.29.4-.15-1.22-1-3.49.64-.18,1.08,1.49,2.65,3a6.16,6.16,0,0,0,2.17,3.86c-.73.24,2.37,5.28.13,3-.47-1,.09-2.53-3.1-5.85,2.12,4.81.27,2.21.53,4.4,2.54,2.48,2.43,5.82,4.55,8.43-1.47-1.3-1.89-2.93-3.37-4.25-.49-2.62-2-4.92-3.49-7.24.09.61-.39.7-.86-.49.14-1.34-4.25-7.74-6.65-10.78-.7-1.93.53-.44-.47-2.9-2-2.51-5-7.55-4.55-8.43,1.76,1.2,1,3.21,2.37,4.55.33-.58,3.75,4.35,3.1,2.05-1.37-2.44-.83-.66-2.63-2.95-.51-2.13-2.21-3.86-3.1-5.86-1.29-3,1.55,1.38.26-1.61-.95.08-3.56-3.91-4.62-6.13-.94,0-1.27-.22-2.57-1.44-1.53-3.82-4.31-7.23-5.67-11.11.8.43,2.36,4.06,2.11,2.36-2.54-3.62-1.5-3.95-4.35-7.74.29-.64-2.44-6.79-4.42-9.23-.94-2.83,1.62.57.2-3.12-1.12,0-2.93-4.42-4.23-4.73-.15-1.46-1.44-2.57-1.83-4,.8.86,1.85,2.14,1.18.37-1-1-1.39-2.1-2.31-3.06-.87-2.47.9-.25.59-1.72-2.59-2.21-3.17-5.07-5-7.52.9,2.5,2,4.93,3.17,7.36-3.11-4.32-4.33-9.27-7.46-13.59,2.61,5.51,4.65,11.21,7.92,16.49-.26-1-.75-2.5.46-.91.69,2.55,0,1.32,1.19,4.18-.49-.06-1.76-1.49-2.24-1.56-2-6-5.14-12.86-8.58-16.27,1.23,1.18-.5-2.74-1.65-3.27-1.06-2.81,1.62,1,1.32-.43-1.3-1.61-1.8-3.49-2.9-5.15.2,1.05,2.75,5.63.46,2.9-1.29-1.11-.55-2.88-1.85-4-1.74-1.15-1.27-.62-3.69-4.14,1.1,2.76-.19,1.28-.78,1-.66-2.75-2.47-3.18-3.37-4.24-.76-2.51,2.36,1.87,1.65-.54a50.32,50.32,0,0,1-4.88-8.33c1.35,1.58,2,3.19,1.91,1.67-1.56-2.74-.3-1.7-1.19-4.19-1,.24-2.26-3.74-2.77-6-2.07-2.6-3.38-4.57-4-4-1.3-3.47-.57-3.33.2-3.11-2.32-2.18-4-7.28-5.34-7.41-.58-1.34-.41-2.92-1.52-4.08-1.89.37,5.5,11.53,4.22,12.35-1.6-3.29-3-6.65-4.61-9.93-.56,2.3-3.8-2.07-5.08-1.4-.76-3.54-5.57-9.66-9.23-16.05,2,2.59,2.43,2.66,4.94,6a66.91,66.91,0,0,0-9-17.67c-1.5-6.12-6.39-11.14-7.79-17.29-1.29-1.1-1.45-2.58-2.51-3.76l-1-3.49c-4.93-6.82-7.58-15.68-10.61-20.93.15.71.65,2.07.06,1.49a12.84,12.84,0,0,0-.75-1.1l-.24-.31-.36-.53-.69-1c-.87-1.33-1.49-2.43-1.1-2.57,1,2.64,2,2.48.73-.09-1-1.5-3.73-6.67-6.14-11.24s-4.52-8.6-4.45-8.07c1.64,2,5.64,9.1,5.24,7.49C87.68,93.58,85,89,82.65,84.54c-1.84-1.86-1.44.22-3.84-2.62.68-.22,1.15-1.08.49-3.3s-2.46-5.78-6.49-11.73c1,2.72-.69.06,1.41,3.85a110.31,110.31,0,0,1-7.13-11.21c-2.09-3.65-4.22-7.47-7.59-12.6-.38-2-2.65-5.78-5.07-10s-5-8.78-5.73-11.78c-2.69-3.47-2.88-5.34-6-9.1.19.78,1,2.6-.06,1.28a30,30,0,0,0-3-6.07c5.2-.1,10.63-.66,18-.06-1.73.47-5.58.43-9,.39s-6.29-.1-5.92.35c9.09.55,34.73.19,29.13,1.38,4,0,8.7-.22,13.94-.34s11-.14,16.74.21c6.37.77,5.21,1.3,11.1,1.26,1.83.81-4.59.77-4.08,1.33a31.62,31.62,0,0,0,4.56,0c2.59-.37,1.12-.78,5.39-1.15,5.21.55-2.67,1-.75,1.52a12.07,12.07,0,0,0,5.44-.3,13.61,13.61,0,0,1,5.84-.29c-2.68.31-2.59.65.1,1,6.08-.25,3.08-.5,5.61-1.14,2.28.77,4.6-.39,6.83.38,1.22.66-5.47.17-3.45.83a17.74,17.74,0,0,0,6.2-.15c2.11-.33,4.3-.8,6.44-1a43.81,43.81,0,0,1-6.64-.4c-1.75-.28-2.44-.65,0-1l12.87.48a62.79,62.79,0,0,0,8.55-.13c-.38-.17-1.37-.35-.63-.51,4.25.72-2.3,1.33,1,2.05,2.93-1,5.26.84,8.11.26-.89-.59-5.83-.61-2.61-1.73,2.74.48,2.75.94,4.15,1.41L182,14.88c4.31.66,8.87.11,13.17.82-2.89.84-.78-.48-3,0-.91.27.66.57.56.86a69.35,69.35,0,0,1,15-.86c2.73.43-.79.79,2,1.21,3.55.2,4.26.52,6.76-.43,3.44.49.65.92,1.19,1.37,2.48,0,5-.14,7.47-.25-3.24.73-.19.6,2,1.21,1.22-.6,5.9-.55,4.43,0-8.91.07-17.65-.63-26.47-1,1.32.47-2.17.89-1.76,1.34,9.48,0,25.3,1.93,30.49-.51,3.55,0,.15.57,2.74,1.05,3.06-.46,6-.15,8.94-.24.78-.72,3.52-.36,3.17-1-2.44-.16-4.8-.65-7.4-.08.72.23,2.14.47,1.35.69-1.88-.47-4,.12-5.84-.4,2.35-.66-.35-1.36,1.9-2,3.56,0,.16.57,2.75,1.05,4.14-1.29,10.6,1.38,11.26-.73a10.48,10.48,0,0,0,3.73-.13c2.76.24.65,1.22,3.53.89,1-.21-.54-.45.14-.68,3.4.22,6.9.1,10.27.46-2.4-.65,4.06-.16,1.64-.66-3.29.33-6.37-.31-9.52-.62,5.24.33,6.72-.26,11.2-.38,0,.34-2.64.65-.21,1a26.55,26.55,0,0,0,3-.3c-.46-.46,1.16-.89.29-1.36-3.31.44-6.34-.35-9.72.4-2.71-.42-1.79-.81-3.45-1.22-6.45.38-8.68,1.78-14.93.51-.84-.63,4.92-.24,1.69-1-2.48.82-3.24.82-6.84.77-1.11-.56,6.75-.48,3.26-1.32-2,.76-4.79.39-6.28,1.63-5.08-.93,4.4-.71.35-1.7-3.55.95-6.76.17-4.72,1.31-3.59-1.1-7.09-1.14-7.39-.08a5.49,5.49,0,0,0-3,0c-1.58-.32.61-1.44-3.44-1.23-1.2.44-1,.89-1.77,1.34-2.27,0-8.39.25-8-.6,2.13.46,4.46,0,6.61.24-5.75-1-14.12.05-13.64-2-3.59.64-6.82-.47-10.42.22,2.7,0,5.18,1.19,8.1.26l2.81.72-3.1.64c-2.2-.55-6.07-.65-10.14-1.13.32-.45,2.86-.87.29-1.36-4.45.89-10.55-.15-12.53-.31-1.05.86-6,.69-4.8,1.65a5.67,5.67,0,0,0-2.26.14c-.07-1-4-1-1.83-1.88-3.09,0-4.19.94-4,1.48a62.25,62.25,0,0,0-8-.2c-.63,0-1.19,0-1.64,0a8.74,8.74,0,0,1-1.1-.09c-.28-.06-.31-.13,0-.23s.7-.24,1.36-.42c-.35-.13-3.49-.09-5.71-.13s-4.05-.16-3.21-.61c1.44-.06,2.84,0,4.25.06.71,0,1.42,0,2.14,0,.36,0,.73,0,1.09-.06l.52-.05.34-.07a2.75,2.75,0,0,0-.52-.19l-.8-.14c-.54-.08-1.08-.13-1.64-.17-1.11-.07-2.24-.07-3.38,0a55,55,0,0,1-6.8-.05l2.55-.32c-.66-.18-.35-.34,1.36-.5a30.8,30.8,0,0,0,6.11.55l2.28-.33.43-.08a1.16,1.16,0,0,0,.16-.08c.05-.06,0-.12-.16-.18-6.17-.17-14.89-.72-17.64.57C131,9.44,122,9.2,113.38,9.56c2.4.58,2.51,1.14.47,1.69-1.17-.83-2.06-.79-3.61-.64a35.13,35.13,0,0,1-7.66.06c.25-.94,10.61-.76,6.85-1.65-5.05,0-10.19-.26-15.31-.34a119.53,119.53,0,0,0-14.83.48,178.35,178.35,0,0,0-17.85-1C55,8,48.78,7.86,44.25,7.26c1.3-.35,5.06-.16,3.3-.49-6.74-.34-.36-1.43-8-1.23-1.19.44,2.1.91,1.66,1.36a78.77,78.77,0,0,1-8.49.4c2.19,3.76,4.07,7.32,6.44,11.2-.82-2.38-2.35-6,0-2.76,2.43,4.07,3.8,7.52,6.52,11.8-2.23-3.22-.08,1.24-1.79-1.06a45.13,45.13,0,0,0-5.05-10.27c2.22,4.86,3.47,6.28.65,3.23,3.94,7,7.13,13.58,11.21,20.74-3.19-4.52-3.46-3-.55,2.13-3-3.75-2.47-5.6-5.24-9.2-.12.66.52,2.53,2,5.3A88.09,88.09,0,0,0,53.56,49c-.51-2.53-1.18-3.39,1.23-.26-2.56-5.41-4-5.23-6.11-10.38,2.19,3,3.37,5.49,5.9,8.63,2.81,5.26,6,11.44,9.17,17.35A144.18,144.18,0,0,0,73,79.67c1.92,4.19-.27,1.14,1.69,5.4.89,1.2,1.41,2.33,2.19,3.49,2,3.29,1.59.61,3.47,4.71.68,2.13,3.72,8.21,7.12,14.38,1.7,3.08,3.48,6.16,5.08,8.73l.2.31.17.25.34.48c.22.31.43.59.64.85a7.66,7.66,0,0,0,1.13,1.18c1.52,3.4-1.67-1.59-1,.31a9.12,9.12,0,0,1,1.32,3.39,7.35,7.35,0,0,1,2.37,4.56c.67.72.48-.07,1.39,1.08.45,1.89,1.8,3.48,2.24,5.36-.92-1.05-1.19-1-1.18-.36.88,1.23,1.62,2.51,2.5,3.75-.25-1.18-1-2.2-1.32-3.39,1.67,2.56,2.84,4.73,3.77,5.66-2.15-1.56,2.56,4.95,1.58,5.58a105.75,105.75,0,0,1,10.42,20.24c2.08,2.2,1.26,1.58,1.64,3.27,2.79,4.09,6.91,11.26,7.13,13.69,2.74,2.69,4.84,9.58,4.81,10.64-.21-.61-2.34-4.08-1.78-2.47a23.35,23.35,0,0,0,2.9,5.15c-.18-.78-.31-1.47.67-.21,1.24,2.9,3.2,5.55,4.87,8.32-5-6.58-6.17-6.06-7.84-11.17-2.55-3.24-4-6.81-6.46-10.09-.89-2.5.37-1.44-1.19-4.18.79.43,2.35,4,2.1,2.35-3.45-6-7.66-13.67-10.22-15.73-1-2.79,1.38.38.4-2.41-2.93-2.79-4.57-8.25-5.81-10.33a28,28,0,0,0,3.57,4.95c.32,2.22,3.4,7.48,4.15,7-1.49-4.08-4.32-7.74-5.87-11.8-.53-.6-1-1.19-1.58-1.77-.27.77,2.1,4.13.79,2.78-.34-1.42-2-2.41-2.84-3.66-1.52-5.38-4.36-5.65-6.66-10.78,1.06.56,3,4.42,2.65,3-2.19-3.88-4.13-7.82-6.54-11.61-1-2.46.23-1-.46-2.9-1.45-1.82-3-4-4.09-5.53,0-1.29,3.11,3,3.63,2.63-.4-1.64-1.67-3-2.38-4.56-.15.62-.78-.17-1.44-1.26-.16-.27-.33-.57-.49-.86l-.68-1.26c-.56-1-1-1.94-1.29-2.47-.1,1.7-3.52-5-3.88-4.76.26.69.47,1.28-.38,0-2.79-5.81,2.51,2.58.17-2.46a63.07,63.07,0,0,0-6-9.33,40.94,40.94,0,0,1-4.83-7.58c2.19,3.16,3.25,4.34,2.65,2.59a70.1,70.1,0,0,0-7.14-11.78c-2.29-3.12-4.29-5.44-5.15-6.69,1.76,2.29.62-.51,1-.72,2.29,3.08,7.5,12,7.67,11.07-5.88-11.67-7.69-11.64-14-21.9-1-2.36.11-1-.76-3.06L52.53,52c.72,1.91,6.23,10.34,4,8.06-2.66-4.8-4.8-9.31-8.23-14.44,7.29,13.69,15.19,27.83,23,42-4.2-6.14-9-15.27-13.23-23.2S50.09,49.61,47.52,47A101.9,101.9,0,0,1,41,35.82c1.1,1.47,2.86,4.09,2.53,3.06-4.26-7.64-7.39-14.56-11.56-22C33,18.34,34.79,21,34.5,20c-2.87-4.09-3.24-6.57-6.38-10.86,1.12,2.49,3,5.46,3.81,7.74C27.15,9.69,25.06,6,21.29.69c1-.16,2.1-.36,3.22-.62a31.76,31.76,0,0,0,6.62.1A79.42,79.42,0,0,1,42,.51C45.64-.1,53.09-.07,61.17.13S78,.7,84.56.75c-1.31.22-4,.43-2.44.67a19.65,19.65,0,0,1,4.29.19C85,.82,91,.26,97.34,1c1.93.23-1,.45.26.68,3.77-.43.27-.62,5.4-.65,3.23.3,1,.57,1.61.86,2.9-.27,1.36-.56,4-.83,4.63,0,10.47.24,15.69.41s9.87.23,12.38-.24c6.32.49-5.19.87-.18,1.35a140.86,140.86,0,0,1,20.79-.85A56.32,56.32,0,0,1,166,3c-.78-.18-1.55.06-.06.34-3.43-.06-8.38,1-6.36,2,3.32-.27,2.47-.83,6.07-.61-.53-.46-1-.92,1.75-1.34,2.51.54-1.51,1,.43,1.54,2.37.18,2.27.74,5.84.4,5.46-2,16.16-1.11,23.38-1.95-2,.37-3.88.75-2.46,1.16,4.23,0,5.45.42,6.83-.77,4.66,1.13,1.84-1,6-.27-2.9.47-2.1,1-2.54,1.5a13.19,13.19,0,0,0,3,0c.14-.39-.6-.8,2.47-1.16,1.23,1.05,4.72.46,4.52-.29,13.3,1.28,27.69-.34,35.12,2.09,2.64-.76,5-.18,7.61-.94a13.48,13.48,0,0,0,8.94-.24c5.36.36,6.78,1,9.65-.06,4,.44-3.1.76-1,1.18,2.81.57,4.77-.35,5.78.74a12.74,12.74,0,0,1,6-.27c-.8.22-2.32.43-1.62.66,14.47-.55,32.47.54,44.58-.52-3.65-.35-11.37.13-12.46-.65,1,.16,3,.16,2.25-.14-2.57-.27-5.57-.6-4.52.28-5-.14-2.84-1.28-.33-1.87,5.14.9,13.11,2.14,14.72.51,1.79.83,4-.33,5.84.4-.8.61-4.73.15-3.1.65,2.1.58,4.4.19,6.7-.1-.38-.17-1.38-.36-.65-.52a6.19,6.19,0,0,1,1.32.44c.39.15.43.29.14.43l-.26.1a1.67,1.67,0,0,1-.23.11c-.17.06-.4.13-.67.2a20.5,20.5,0,0,1-2.14.4c-2.35-.24-2.28-.7-5.9-.06,3.92.61-1.72,1.11,1.11,1.71a36.47,36.47,0,0,1,5.21-.11,5.79,5.79,0,0,1,1.23-.7l.79-.31.44-.15a1.83,1.83,0,0,1,.26-.07l.4-.07.81-.12.66-.12,1.36-.21c.92-.13,1.85-.23,2.82-.32a74.35,74.35,0,0,1,11.75,0c-3.91.15,1.83,1,3.05,1,1.83-.88,9,.93,13,1.64-1.16.11-3.46.07-2.71.47,3.85,1,5.86-.49,8.39.23-1.63.85,4.15.76,5.53,1.1-1.81.08,2.74,1.31,3.51,1.86,1.47-.1,2.71.34,4.17.29-2.14-.31-5.1-1-2.89-1.26,3.29,1.12,7.6,2.06,7.37,1,3.38,1.07-2.26.21,1.14,1.29,4.07-.28,2.83.55,5.59,1.08,2.29.12,1.62-.44,1.32-.92-1,.64-6.4-1.55-9.5-2.11,2.87.27.3-.62,2-.61a35.76,35.76,0,0,0,7.23,1.44c.35-.58-2.36-1.24-4.33-2,7.16,1.73,7.65,2.47,10.35,4.2,4.44.53,7.15,2.66,10.51,3.88-.35.43-3.1.18-3.09.72,3.7.88,7.13,2.34,10.88,3.2,1.25-.07,1.31-1,4.3.48-.29.53-4.39-1-1.38.81,2-.3,1.83.25,4.79,1.23.46-.27,1.47-.34,1.4-.78a23,23,0,0,1-2.85-1c-1-.41-1.67-.79-.74-.72,2.05.72,3.79,1.93,6.17,2.09-.36-.78-4.78-1.85-2.72-1.65a3.11,3.11,0,0,0,2.61.36c2.69,1.4,3.14,2.09,2.33,2.26,2.13.64,3.91,1.77,6.13,2.27,2.08,1.34,1.66,2.63,5.32,3.53,3.88,1.06-1.48-1.71,3.16-.35,3.22,1.89-3.34-.28-.14,1.6,5.7,2.53,11.24,5.32,17.51,7.32-1.37.56,4.81,2.42,6.5,3.47,2.31,1.56.84,2.07,4.3,3.62,2.83.81,6.66,1.77,8.61,2.51,0,.44,1.58,1.68,3.55,3.3.32,1.18-4.8-2.86-4.14-1.48l6.53,3.95c2.3,1.39,4.41,2.52,5.22,2.51-1.69-1.46-5.18-3-4.54-3.49a59.68,59.68,0,0,1,5.34,3.12c1.8,1.19,3.58,2.51,5.31,3.75s3.34,2.52,4.85,3.57a34,34,0,0,0,4,2.51c3.38,3,5.81,5.42,8,7.52a35.68,35.68,0,0,0,3.2,2.77,20.53,20.53,0,0,0,3.39,2.2c.9,1.39.46,1.84,3.2,3.74-.41-.77.18-.61-1.17-2.18,1.56.89,3.07,1.86,4.58,2.82-.33.83,1.81,2.62,3.92,4.44s4.21,3.63,4,4.2c-1.46-2.06-3.07-2.76-3-2,2.26,1.82,3.3,4.35,5.85,6-.35-1.66,2.29,2,4.75,3.92,2.16,3-2-1.24.19,1.78a9.16,9.16,0,0,1,1.8,1.83c-.47.06-2.07-1.63-3.5-3s-2.75-2.4-2.47-1.18c1.92,1.38,3.72,3.9,5.41,6.07s3.23,4.07,4.62,4.35c.85,1.52,0,1,.79,2.35,2.33,1.69,4.51,5.89,5.36,5.63-.71-1.77-2.78-3-3.38-4.77,5,5.26,6.84,8.62,9.86,11,.66,1.89-1.59-.53-1,1.27a13,13,0,0,0-3.09-4.66c-1.11-1-2-1.37-1.71-.44a34.78,34.78,0,0,1,3.75,4.64c1.13,1.61,2.28,3.2,3.54,4.78.18-.37,0-1.21-.9-3.18a15.28,15.28,0,0,1,1.75,1.76c.5.62,1,1.26,1.39,1.91.87,1.29,1.67,2.61,2.69,3.86,1.41,3-.1,1.34.16,2.52,4.46,5,8.77,15.37,12.38,20.39-.16.85-1.54-.86-1.9-.42,2.05,5,2,1.41,3.51,5.9-.59-.8-1.13-1.47-.69.14.89,1.48,2.46,4.36,3,4.4-1-2.29-1.92-4.62-2.84-6.92.89,1.08.89.29.31-1.73a65.91,65.91,0,0,1,3.52,7.66l1.56,3.87,1.47,3.92c2.36,4.6,1.8,1.55,2.32,1.31,1.3,5,0,1.4.38,4.89-3.86-6.59-4.41-10-7.19-15.4,1.22,3.85.55,2.89,1.58,6.34-1.19-.59-2.33-3.28-2.87-2-.27-1.67-3.15-7-2.93-6,.34,3,4.15,9.18,4.27,7.42.09,2.23,3,8.19,3.32,7.68,0-1.9-1.71-3.58-1.89-5.45.52.73.31-.46.1-1.65A96.75,96.75,0,0,1,604,181.91c1.25,3.92,2.58,8,3.53,11.66,2.13,7.32,3.57,13,5.13,12.29-.36,1-1.81-4.65-.81-3.21.36,1.18,1.51,6.25,1.57,4.79a52.49,52.49,0,0,0-4.45-11.92,12.36,12.36,0,0,0-1-5.19,23.07,23.07,0,0,1-1.66-5.13c1.32,1.78,1.19,3.68,2,5.52.32-.31,1,.52,1-.9,1.64,4,2.12,3.06,2.65,7.16-.7.16-2.83-6.88-2.68-3.08,1.12,2,2.14,4.09,2.91,5.55s1.23,2.25,1.41,1.51c.27-1.22-2-6.24-.65-4.86a15.67,15.67,0,0,0,1.31,4c-.69,2.19,2.21,9.94,0,8.1.91,1.36,2.17,5.06,3.3,9,.27,1,.54,2,.78,3s.39,1.95.54,2.86a24.82,24.82,0,0,1,.4,4.57c.1-.72.4-.33.7,0a6.7,6.7,0,0,0,.57,3.23c-.24,1.43-.68,1.4-1.4-.09-.23-2.14-.6-4.29-1-6.45s-.87-4.31-1.38-6.46c-.14,1.21-1.35-2.5-1.05.78.88,1.33,1.4,4.25,2,7.49.3,1.62.61,3.32,1,5a35.29,35.29,0,0,0,1.19,4.55c.11-2.1-.37-4.06.52-2.37.53,2.52.93,6.36,1.37,9.58s.73,5.83,1.46,5.91c-.68,1.16-1.35,2.46.19,7.25-.16,1.67-.5.78-.68,2.3-.9-1.72.23-3.17-.73-4.89-.18,2.78-.35,2.14-.46,1s-.3-2.74-.49-1.94c-.26,2.09.43,4.3.53,6.45.78-2.77,1.14,3.32,2,1.07-.56,1.33-.87,8,.24,9.64-.31,1.26-.08,2.64-.36,3.91-1.28,1.47-1.1-9.81-2.1-5.93.06-2.69-.08-5.21-.23-7.59s-.35-4.67-.71-6.91-.7-4.43-1.05-6.68c-.18-1.13-.35-2.26-.53-3.42s-.41-2.33-.61-3.54c-.59,3.54,1.6,8.26.46,9.54.67,3.49.93,3.8,1.63,4.16-.05,5.82.2,2.66-.75,3.07.59,3,.29,5,1.14,4.13.26,5.4-1.46-1.09-2.06-.29a26.52,26.52,0,0,1,.41,5.58,31.6,31.6,0,0,0,.23,5.56c.31-.69.66-.7,1-1.43a8.94,8.94,0,0,1-.53-2.85,22.85,22.85,0,0,0-.28-2.81c.15-2,1.32-1.79,1.26,1-.29-1.93-1.23-2.06-.69-.11.51,2.16.84,3.06,1.2,3.37.07,2.69-.28,9.42.36,9.58.52-2.55-.46-5.37,0-7.92.93,2.35.21,5.65,1.06,5.75a6.67,6.67,0,0,0-.68,3.1,46.29,46.29,0,0,0-.17,5.26c.07,3.66.49,7.08,1.21,6.87-.51,3.41-1.35,1.74-1,5.38.25,1,.56.16.82,1-.58,2.42.1,2.87.4,4.11-.23,2.62-.79,5.19-1,7.81-.1-1.53-.2-3.07-.32-4.54s-.34-2.87-.54-4.15a17.62,17.62,0,0,0-1.5-5.56c-.1,3.36.5,2.6.93,3.41-.89,2.71,0,5.84-.83,8.61-.3-1.73-.8.1-1.31,2.07.84,3.62-.46,6.63-.49,7.92.18,1.15.26,3.38.61,2.64.13-.57.15-2.16.23-3.39s.14-2.12.5-1.29c-.13,1.14,0,6.39.27,5a16.49,16.49,0,0,1,.18-3.82c.17-1.34.45-2.32.77-1.62.86,4.36-.63,8,.27,10.77-.45,1.73-.6.33-.91.53-.06,1.79-.46,4.32-.72,6.57s-.37,4.2.05,4.87a27.56,27.56,0,0,0-1.21,7,64.88,64.88,0,0,1-.41,6.83c0-.17-1.63,3.7-.63,4.07-.89,2.81-.82.67-1.58,2.79.33.94,0,3.16-.62,5.66a66.73,66.73,0,0,0-1.62,7.39c0-1.36-.52-.74-1.31,1.12-1.51,4,.22,1.73-.61,4.2-.07-.81-.35-.88-1,.38.35,2-1.3,2.93-1.31,4.73-.26,2.23,1-1.06.92.51a76.68,76.68,0,0,0-2.26,8,40.69,40.69,0,0,1-2.57,7.89c.25-1.54,0-1.71-.45-1.25-.77,4.43-1.71,7.24-2.71,6.88-.87,2.85-1.81,6.09-2.9,8.9s-2.37,5.16-3.58,6.33a11.37,11.37,0,0,1-.6,2.1,20.37,20.37,0,0,1-.91,1.88,33.18,33.18,0,0,0-1.85,3.73c.15.95-.92,2.86-1,4.51-1.31,1.05-1.49,1.05-2.93,3.94-.56-.49,1.71-4,2.65-6.33-1.59,1.67-.83-1.37-.87-2.83-1.65,3-3.44,5.94-3.33,7.75-.64,1.06-1.32,2.08-2,3.11s-1.4,2-2.06,3.07A33.28,33.28,0,0,0,580.7,443a37.21,37.21,0,0,0-1.49,3.66c-1.87,2.5-.48-1.46-2,1.45-.33.83.07.52-.09,1.08A132.53,132.53,0,0,0,569,460.37c-1.59,2.18-3.21,4.45-4.86,6.59s-3.41,4.11-5.08,5.83c3-2.39,2.85-2.6,5.09-4,.61-1.89,2.35-2.28,2.88-4.2-.65.5-1.54,2-1.23,1,2.35-3.44,4.24-5.59,5.92-7.8a58.58,58.58,0,0,0,5.39-7.58c-.94,2.09-3.08,5.27-.2,2.16-1.48,3.14-2.8,4.63-4.06,5.21a60,60,0,0,1-3.64,6.12c-.87,1.31-1.8,2.66-2.72,3.92a34.92,34.92,0,0,1-2.75,3.23c.61-1.18,1.56-2.77,0-1.33s-2.6,3.73-4.06,5.4c.66-.48,1.28-1,1.92-1.48-5.29,6.07-10.6,12.26-16.31,18.07-2.38,1.82-1.07.09-2.94,1.42l-2.12,2.84c-1.54,1-.68-.15-1-.21-1.08,1.41-2.58,2-3.55,3.63.76-.33,2.09-1.25,1.58-.48-2,1.41-3.68,3.49-5.79,4.7.81-1.05,2-2.45.24-1.32-1,1.52-2.51,2.17-3.53,3.76,1.27-.65,1.41-.39,1,.27a19.65,19.65,0,0,0-5.78,3.9,49.27,49.27,0,0,1-5.53,4.48c-.65.06,2.19-2.46.92-1.94-2.2,1.36-4.65,2.92-7.17,4.73s-5.28,3.65-8.09,5.52c-5.65,3.68-11.74,7.21-17.68,9.2-1,.85,1.42-.12-.49,1.22-3.77,1.94.5-.69-2.38.28-3.8,1.91.69.11-2,1.93-2.13.7-.43-.54-3.16.45-3,2-6.32,3-9.42,4.94,1.39-.31,1.46,0,.92.52a9.35,9.35,0,0,0-2.9,1.65c-5.6,1.3-8.65,4-12.74,5,.06-1.16,4.95-2.27,7.38-3.68-.77.14-.34-.22-.84-.2-2.7,1.21-5.47,2.22-8.21,3.3s-5.52,2-8.29,2.95a43.9,43.9,0,0,0,5-1.22,34.61,34.61,0,0,0,4.89-1.84c-1.66,1-.39.76-.63,1.15-5.72,1-3.51,1.47-7.55,2.76a25.88,25.88,0,0,0-7.73,1.53c1.22.45,2.39.08,3.2.38-2.34.22-4.59,1.54-7,1.36-.31.79-5.32,2.59-6.12,1.84-5.83,2.76-11.8,3.86-17.76,5.18-3.51,1.11-2.75,2.11-5.43,2.45,1.56-1.34-3.17.43-4.66-.41-5.65,2.85-14.1,3-17.39,5.17-2.33-.25-4.76.93-7.14,1.19,1.72-1.25-2.17-.81-7.05-.05s-10.82,1.82-13,2.28c-1.54-1,5.91-1.13,5.81-1.67a54.35,54.35,0,0,0-7.12-.29c1.82.79-1.14.39-3.3.55.37.77-.39.83-1.88,1.46-3.35-.3,1.83-1,.24-1.38-3.14-.4-7.45-.22-6.36-1.47a17.5,17.5,0,0,0-2.42,1.14c-.33.19-.94.37-1.19.55a9.32,9.32,0,0,1-1.29.54c-1.58-.88-6.66-.79-8.58-1.46-.84.73,4.61,1.53,4.72,2.26-5.34.25-6.06-2.22-13.18-.82,7.45.37,6,1.47,13.66,2-3-.09-9.89.19-10.28-.46a5.59,5.59,0,0,0,2.25-.14,29.07,29.07,0,0,0-9.36-1.3c1.07-.53,3.06-.52.29-1.35-1.76.12-3.39-.32-5.22.11,1,.49,4.43.11,1.35.7-3.75-.27-5.78-.81-8.25.41-2.92-1.18-10.82-.86-9.64.06l-2.81-.7c-1.43.89-3.1.39-6.06.61-2.25-.7-.5-1.09-4.16-1.41a33.89,33.89,0,0,1-11.27.72c1.67-.52,6.84-.08,6.14-1-2.9.12-3.74-.58-5.08-.56-4.95.67-6.55.47-9.22,1.6-7.18-1.14-15.2,1.69-22.19-.25-.34.44-1.14.61-3.1.65-3.49-.4.18-1.57-4.16-1.41-2.24.37,2.13.82-1,1.18-4.91.07-8.56-.49-12,.54-3.71-.38,2.2-.65.21-1-3.87-.08-9.32-.44-11.26.72-3.19-.15-6.3-.61-9.67.06-1.67-.41-.73-.8-3.43-1.22-2.7,1-4.85-.49-7.47.25.45.46-.9.9-1.76,1.34-2.73-.76,3.5-1.43-.29-2.21a14.66,14.66,0,0,1-3.73.13c.36.4,1.08.8-1,1.18-2.59-.48.82-1-2.74-1-2.44.54-1.06,1.12-.36,1.69-2.6-1-1,.67-3.73.13,1-.35-1.07-.19-2.1-.53,1-.35,3-.15,2.32-.49-2.31-.74-4.91-.14-7.39-.08,1.58.67,3.53-.34,5.07.57-4.07,1.05-8.05-.09-8.46,1.43-.08-.8-2.21-.83-2.68-1.39,1.06-.1,3.1-.63,2.47-1.16-2.73-.06-9.18-.77-9.72.4,2.26-.48,5.94,0,5.78.75-4.56.55-8.94.23-13.59,1.2-3.69-.89-8.3.45-8-.93-4,.6-6.62.32-9.1.91.44-1.13-5.92.22-8-.59,2.37-.67,4.41.23,6.76-.44-5.64-1.18,4.74-.32,3.24-1.32-2.85-.36-4.68-.08-5.84-.41a43.89,43.89,0,0,1-6.75,1.15l-.92.11c-.33,0-.54.08-1.12.12l-3,.24c-2,.17-3.85.36-5.6.61-1.72-.52,4.17-1,1.93-1.52a37.82,37.82,0,0,1,5.74-.32l1.41,0c.26,0,.49,0,.66-.07.35-.07.47-.17.23-.36l-.8.05-1.21,0-2.54.09c-1.7.06-3.39.11-5.07.11a58.82,58.82,0,0,1-9.65-.61c-5.66.4-12,1.33-16.58.23a61.42,61.42,0,0,0-9.93,1.11,29.78,29.78,0,0,1-9.28.29c5.81-.23,5.27-.81,7.56-1.49-5.51.43-12.43.4-18.47.42s-11.28.1-13.76.72c3.14.93,2.51-.71,5.66.22l-7.22.8c-.44-1-6.48-.93-11.71-.94-4.37,1.29-10,.62-16.78,1.26-4.7-.42-2.58-.87-6.64-.9l-.24,0c.53-1.56-.26-.73-1.41.81,2.22.48,8.36.81-.13,1.21.51-.25.24-.5-.69-.73a154.53,154.53,0,0,0,12.74-19.8c-1.49,2-1.91,2.13-1.82,1.42,2.74-4,1.69-1.54,3.88-4.62C19,541.63,17,543,21.7,536.83c.59-1.77-1.45.92-.87-.84,2.69-3.92,1.58-1.37,3.75-4.39A67.32,67.32,0,0,1,32.77,517c2.1-4.46-2.72,2.87-.23-2.28,2.06-3.19,3.52-6.47,5.48-9.68-1.27,2.85-1.52,3.93-.23,2.41,5.33-9.62,9.85-17.79,14.49-26l6.9-12.1c1.5-2.6,3.09-5.31,4.85-8.24-.6.56-1.13,1-.52-.46,1.41-1,1.69-3,2.76-4.33-.1.73.15.86,1-.06,1.46-3.25,3.61-5.85,4.76-9.38,1-1.15.84-.3,1.77-1.32,1.31-4.68,4.49-7.67,6.27-11.92-.5.52-.4,0-.76.28a33.76,33.76,0,0,1-3.53,5.62c1.45-2.95,3.1-6.32,3-8.05,2.5-3.34-1.21,3.81.27,2.2,4.75-8.9,11.4-25.54,17-33.43l0-.3a1.07,1.07,0,0,1,.07-.34,7.1,7.1,0,0,1,.31-.85,15.1,15.1,0,0,1,.83-1.66c.66-1.17,1.55-2.54,2.78-4.7.51.35-1.5,4.22-3.25,7.64-1,2.12-1.8,3.85-.73,3.16L97.38,401l2-3.48q2.16-3.87,4.43-8.09,4.55-8.43,9.58-18.29c3-4.09,1.59-.92-.57,1.3.7-.2-5.84,11.94-4.72,11.75,2.06-3.65,4.54-8.46,6.6-12.64a82.05,82.05,0,0,0,3.89-8.63c-.54,1.38.49.07,1.53-1.24,3.93-8.06,8.07-15.78,12.23-23.88s8.34-16.61,12.74-26.85c1.87-2.17.91.47.62,2-1.35,1.84-.69-.2-1.93,2.27-1.66,2.95-2.27,4.34-1.27,3.53,2.13-3.76,4.26-6.71,6.42-11-.73.68.7-2.32.7-2.88,1.76-3.45,3.34-3.72,5.08-7.32.68-1.62,2-4.34,1.4-3.74-3.47,6.13-2.9,5.31-3.82,5.16-2,4-3.94,7.16-5.89,10.39,2.14-4.94-4.1,6.59-2,1.66,2.83-5.08,1.58-2.62,3.93-5.36a186.51,186.51,0,0,0,9.43-17.95c1.2,1.69,2.46,3.56,4,6.13-1.24-1.07-3.1-3.23-4-3.67-.67,1.93-.84,3,0,2.34a1.44,1.44,0,0,0,.1.3,55.76,55.76,0,0,0,5.54,8.88,78.73,78.73,0,0,1,5.7,8.49c2.25,5.92,5,9.45,7.61,14.07,0-.7,2,1.87,4,4.92s4.1,6.56,4.22,7.54c-2-3.53-5.79-9.37-3.12-3.44,2,2.33,3.66,5.58,5.53,8.36-.8-2,1.48,1.46-.15-2l5.1,8c1.08,1.62,2.2,3.32,5.55,8.35a60.87,60.87,0,0,0,6.71,12.12,58.27,58.27,0,0,1,6.7,12.46c2.33,2.86,3.76,6,6.25,8.92-1.62-.33-3.63-2.32-6.82-5.8,2.1,3.56,4.24,7.21,6.36,10.8l3,5.11c.61,1,1.23,2,1.83,2.88,2.44,3.71,4.82,6.79,7.06,8.35,3.48,6.5,9.2,16.31,13.58,20-2.49-8.11-12.19-16.93-14-22.87.64,1.65-1.79-.47-2.44-2.26.58.46.83.32.46-.92a32.6,32.6,0,0,0-4.25-4.49c-.38-.37-.75-.76-1.13-1.18l-.3-.34-.45-.62-.92-1.33a71.93,71.93,0,0,1-4-6.7c.95,1,2.16,2.43,3.57,4.1l2.24,2.73.6.74.29.37.2.2.79.82a46,46,0,0,1,6.12,7.86c0,1-3.27-4-2.05-.86,3.36,4.07,5.78,7.69,9,10,1.75,4,3.94,7.88,5.87,11.83,3.57,3.53,5.13,7.3,7.19,7.58,1.07,2.82-1.9-1.53-.6,1.71,2.43,4.4,1.34,2.08,1,3.49l4.75,5.32a22.1,22.1,0,0,0,3.62,6.44c0-1.52-1.31-2.63-1.85-4,1.83,2.32,2.6,2.76,2.77,2.15,1.09,2.2,2.92,4.13,3.3,6.56-1.15-1.14-2.35-2.33-1.32.42,2.38,2.27,5,4.94,7.51,7.47.34,3.45,5,5.5,5.41,8.91-.92-.1-2.07-2.78-2.24-1.55-.56-1.86-2.28-3.32-3.23-5.06.11.77-.37.5.26,2.21l3.17,3.55c-.58,1.46,2.42,4.27,3.49,7.25-3.91-4.75-7.23-11.93-10.41-12.62,2.63,5.63,11.56,14.4,10.48,17.93a23.57,23.57,0,0,0,3.36,4.25c-.15-.73-.65-2.09-.06-1.5,4.9,9.57,11.86,18.5,16.61,28.14-.14-.84.93.49,1.18.37.34,2.17,2.45,3.78,3.1,5.85-1.7-1.48-3.22-4.83-3-2.84,2.18,3.86,4.27,7.76,6.85,11.49,1,2.46-.23,1,.47,2.9.64.58.72.14,1.9,1.66.48,1.66-.32,1.05.66,3.6,2,2.27,1.73,2.47,3.17,3.55.1,1.56-1.34.4-1.25,1.93,1.74,2.48,3.81,4.86,4.67,7.63l-1-1.18c.08.38.15.73-.34.1.07-1.37-2.77-5.58-2.7-4.46,2.81,4.82,4.65,8.1,7.52,11.29-.51,1.1,1.75,3.53,1.18,4.18.45-.12,1.7,1.27,2.31,3.06q-3.12-3.45-2,.64c-1.69-2.49-3.27-5-5-7.52.47,1.76-2.05-1.79-.59,1.72,3,2.51,5.42,6.6,8.17,11.07.5-.54,2.6.67,4.23,4.73-1.25-1.38-1.9-2.94-3.37-4.25-.3.57.8,3.38,1.19,4.19.56.49,1.2-.57,2.44,2.25-.7-.91-1.25,0,.06,1.51,1.66,1.91.89-.5,3.29,2.73.68,1.82-.54,2,.67,3.61-.07-1.07,2.44.68,3.82,3.33.07,1.45-1.62-1.51-1.71-1,1.9,2.27-.08,2,1.31,3.38.3-2.25,5.68,5.87,7.46,9.79.77.44,1.21.31,1.31-.44.95,2.47,2.09,4.13,2.31,3.07.53,1.86,2.09,3.37,2.57,5.26-2-1.64-6.08-7.15-8.5-11,.2.7-.19.36-.13.81,7.29,10.21,10.55,17.26,18.58,27.49.12,1.48,1.26,2.63,1.52,4.08-3.19-3.14-7.37-10.27-10.75-12.52.14.47.27.94.4,1.4,5.35,6.92,11.64,13.49,14.3,21.27,4.18,6,10.37,14.61,11.54,19.12.45-.13,1.47,1.36,2.31,3.06-1.43-1.74-2.2-2.29-1.51-.26a14.63,14.63,0,0,1,2.24,5.37c1.34,1.55,2,3.18,1.91,1.66a9.18,9.18,0,0,1-1.78-2.48c1.31.14,3.66,5,6,7.2-1.06,2.48,4.15,11.08,6.59,16.92-1.43-.77.55,3.75,1.45,6.39-2.5.31-9.9-9.09-16.87-18.9.42-.81,1.75,1.88,2.24,1.56-1.73-4.06-4.13-5.21-6.46-10.1-3.56-.22-12.9-19.31-17.27-24.11-3.48-8.4-10.89-18.74-14-22.88.86,1.8,4.63,6.55,3.29,6.54-3.49-5.09-5.59-9.76-8.76-13.14-2.38-4.75-7.46-13.56-9-13.87-1.89-3.36.7.41-.26-2.2-2.17-3.36-5.56-6.32-6.79-10,1.15,1,2.89,5.55,3,4.35-1.73-3.27-4.71-9.38-4.81-6.82-4-8.12-9-15.89-13.91-23.69-2.15-.91-7.79-8.11-10.94-13.21a6.28,6.28,0,0,0-.53,3.22,19.08,19.08,0,0,0,2.83,3.65q-.65-2.55,1.32-.43a99,99,0,0,0,7.58,12.79c.5,1.45-.15.87.27,2.19,1.51.78,1.69,2.54,3.56,5,0-.42-.39-1.38.12-.82a15.38,15.38,0,0,0,1.32,3.39c-1.75-2.07-6.2-8.42-6.12-6.39,3.63,5.76,6.37,8,8.77,13.17.67,2-1.9-1.76-.8,1,1.76,3.49,4.51,6.66,5.8,10.31-1.34-1.57-2.59-3-2.23-1.55,1.09,2.93,3.73,5.38,4.21,8.53.66.72.47-.08,1.38,1.07A42.44,42.44,0,0,0,323,618.17c.78,3.81,3.32,7.05,4.48,10.74-10.53-14.62-18.59-30-29.53-44.52-2.21-5.13-5.8-9.81-9.5-14.46-1.57-4.58-6.47-12.11-9.29-13.74,2.65,3.71,6.16,7.15,7.84,11.17-4.36-6-9.33-11.7-12.33-18.1,0,1.64-3.1-3.09-4.41-5.42,1.48,1.35,4.79,6,5.08,5.21-3.24-5-5.45-5.31-9.16-10.74-.49-1.45.15-.88-.28-2.22-1.54-2.34-5.42-7.49-3.62-6.43-.52-.59-.78-1.27-1.25-1.88-.48.3-2.57-2.25-3.1-2a13.25,13.25,0,0,0,1.45,2.59c1.35,1.7.79,0,2.44,2.25-.07,1.8,2.35,2.79,2.7,4.45-2.15-1.66-1.91-2.53-4.41-5.41-.63.13.5,3.07,1.72,4.78-1.56-1.61-3.63-4.15-3.1-2,3,3,9.55,9.38,9.75,12.83,1.29,1.88,2.65,3.72,3.76,5.65,0-.55.11-1,.46-.91a20.45,20.45,0,0,0,2.57,5.25c12.16,16.64,24.38,37.31,33.56,52.38-4.18-4.49-5.21-6.19-8.11-9.57,2.35,4,4.79,8.09,7.38,12.09.65,1.56.53,3.39,1.71,4.77,1.76.59,3.39,6.75,6.26,9.4.42,2.16,1.79,3.26,3.3,6.55-1.49-1.54-2.06-3.39-3.56-4.94.3,1.45-.21,1.73,1.19,4.19-5.47-5.91-11-13.44-17.34-21.81-3.75-5-12.57-16.25-16.21-22.93-6.26-6.91-14.25-19.7-20.18-29.27-5.63-6.72-10.85-15.29-16.61-24.33.56.52.6.15.66-.21-2.17-2.54-5.82-9.44-6.19-7.89-.4-1.4-.79-2.8-1.18-4.19-6.77-10-14-19.82-20.91-26.76-2.17-4.29-4.54-7.86-6.39-8.58a164.47,164.47,0,0,0-18.33-32.92c.44,1.39,1.88,2.43,2.18,3.86-1.56-1-2.47-2.85-3.82-3.33-1.15-1.91-1.89-3.95-3.76-5.64a20.32,20.32,0,0,0-3-6.65c0,1.15-1.6-.53-3.1-2q-2.31-5.25-4.95-10.4l-1.33-2.56-.7-1.37c-.48-.91-1-1.82-1.51-2.7a44.41,44.41,0,0,0-7-9.12,3.46,3.46,0,0,0-1.41-2.72c-.64-.47-1.29-.71-1.73-1.64-.46,3.07-3.65-4.42-3.11.85a30.28,30.28,0,0,0-3.4-7.4c-1.61,3.05-3.16,6.9-4.43,10.07s-2.32,5.76-3.43,7.16a22.23,22.23,0,0,1-1.1,4.55A14.49,14.49,0,0,1,147,425.8c-.09.58-.18,1.11-.29,1.62l-.16.74-.09.36-.05.17c0,.06-.14.3-.2.44-1.24,2.63-2.54,5.2-3.88,7.73-2.69,5.06-5.54,10-8.39,14.89-3.68,8.85-6.38,13.49-9.75,21.45-1,1.38-1.38,0-2.53,2.6,1.15,1.05-3.61,9.27-5.74,13.37.29-1.05,1.09-3,.48-2.49-.68,1.93-1.6,4.16-2.68,6.53-.54,1.18-1.11,2.39-1.72,3.62l-.93,1.86-.47.93a1,1,0,0,0-.12.24l0,.1a6,6,0,0,1-1.94,2.77,7.11,7.11,0,0,1,0-1.73c.14-.72.5-1.32,1.26-.87,0-.12,0-.24,0-.37v-.2c0-.1,0-.05.11-.39.41-1,.81-2,1.21-3.05.79-2.05,1.58-4.11,2.46-6.08-.9.81-1.4,2-2.27,2.83.76-2.62,4.54-7.55,3.75-8.33-2.08,4.2-6.3,10.92-6.26,13.89-.28.37-.3.3-.41.38a2.48,2.48,0,0,0-.26.19,3.2,3.2,0,0,0-.47.43,5.13,5.13,0,0,0-.73,1.06,9.78,9.78,0,0,0-.81,2.39c-.4,1.62-.49,2.87-2.16,4.44.67.36-.59,1.38.88.73-1.2.59-.59.67-1.06,1.06-.22-.05-.33-.28-.75,0,.37.35.12.85-.16,1.38s-.59,1.08-.2,1.27c.39-.34.75-1.25,1.45-1.09-1.11.85-1.19,1.08-1,1.13s.48,0,.12.3c-.59-.14-.72.61-2.09,1.52a1.11,1.11,0,0,1,.08.21,19.25,19.25,0,0,0,4.24-1c-.3-.29,2.05-1.46.74-.7a10,10,0,0,0-.56.89,54.3,54.3,0,0,0,7.1-1.74c-.76.53-1.25.1-1.63,1a5.82,5.82,0,0,0,2.86-.88c-.27.21-.55.43-.41.67.87-.77.91-.13,1.47-.43,0-.18-.1-.36.1-.52.43.77,1-.6,1.24-.43a.83.83,0,0,0-.11.85l1.23,0h1l3.24,0a91.31,91.31,0,0,0,11.8-.76c2.15.37,4.59,1.17,6.69-.1,1.5.3.68.57,2,.87,2.38-.76,10.41-1,14.86-.17l3.1-.65c27.06,1.75,54.95-.46,82.18.41,5.83-.66,11.45-.4,17.12-.32l3.09-.65a51.17,51.17,0,0,0,13.39-.19c.5,1.07,3.09-.07,6-.27,16.1,1,32.75-.67,48.94-.14l2.33-.48,5.62-.05c.94,0,2.47-.07,4-.16,3.06-.17,6.29-.44,9.54-.77,6.5-.67,13.08-1.6,19.61-2.76a288.34,288.34,0,0,0,38.45-9.53c24.94-8,48.1-19.54,67.84-34.35a174.7,174.7,0,0,0,47.8-54.09A187.54,187.54,0,0,0,541,373.77a228,228,0,0,0,8.94-37c-.51-.12-.24-2.9.24-4.57.2,1-.25,2.61.17,2.05,1.23-3.94-.11-2.6.11-5.28l1-2.34c.14-1.79.28-3.53.42-5.21s.18-3.35.27-5,.22-3.19.29-4.77l.15-4.69c.05-1.56.11-3.12.16-4.69v-4.81c0-1.63,0-3.29,0-5s-.13-3.46-.21-5.28c.22.59.69.62.51-.57l-.69-2.74a235.1,235.1,0,0,0-3.65-39.93A270.12,270.12,0,0,0,539,206.51l-.78-2-.85-2-1.68-3.94q-1.76-3.89-3.51-7.74c-2.46-5.06-4.83-10.11-7.33-15a16,16,0,0,1-1.78-2.48c-.54-.83-1-1.68-1.52-2.54a18,18,0,0,0-3.57-4.84,27.36,27.36,0,0,0-2.55-4.32c-1-1.35-2.07-2.67-3.13-4a66.57,66.57,0,0,1-6.21-7.95c-5.55-5.44-10.89-10.89-16.64-16.05a112.42,112.42,0,0,0-18.77-14q-.76-.94-1.56-1.89c-5.44-3-11.22-6.63-17.05-9.87a91.72,91.72,0,0,0-16.83-7.68c-3.41-2.82-9.58-3.4-11.39-5.44-.92-.12-1.85-.2-2.76-.3-3.3-2.15-7.57-2.91-12.67-4.53-4.74-1.46-10.82-3.44-16.26-4.89s-10.2-2.43-12.09-2.28c-5.6-1.26-11.27-2.28-16.94-3.11s-11.36-1.44-16.84-1.84l-4-.26c-1.24-.06-2.61-.12-3.22-.13l-9.8-.12c-6.53-.11-13-.26-19.53-.52-.78.17-.36.34-.85.5C294,76.65,279,75.86,263.8,76.61l-4.21-1.06a79.57,79.57,0,0,1-16.27-.18c-1,.21.53.46-.13.67-3.48.1-6.67-1.18-10.21-.79-14.46.57-28.65,0-42.82-.81,3,0,1.09.41.56.85-8.51-.63-17.1-.89-25.72-1l-6.47-.08H157l-.4,0c-.53,0-1.07-.06-1.63-.11-.42-.36-.31-.68-.87-1.05,0,.52-.17.56-.38.58s-.43,0-.29.5a2.67,2.67,0,0,0-1.58-.79,3.36,3.36,0,0,1-1.59-.56c0,.43-.68.4-1.59.26s-2.1-.38-2.88-.41l.17.28c-1.34-.73-1-.13-.46.57s1.09,1.48.48,1.59c.69.58,1,.39,1.61.78-.08.1-.39.13-.45.29s.14.45,1,.92c-.4.38-.33,1-.09,1.6a15.08,15.08,0,0,0,1,1.91c-.14.31-.48.22-.82.11s-.69-.2-.75.24a19.39,19.39,0,0,1,2.14,1.86,5.34,5.34,0,0,1,.39.44l.05.06,0,0,.05.08.39.63.77,1.29c1,1.74,2.11,3.59,3.24,5.63-.69.28-1.82-2.65-3.37-4.25,1,2.59-1.07-.28-.06,2.32,2.6,3.17,5.8,7.86,6.66,10.79-.73-1.12-3-5.53-3-4.35a89.5,89.5,0,0,0,7.39,12.08c.69,1.92-.54.44.46,2.89,2.28,3.29,3.1,5.88,5.35,7.42,1.89,5.74,5.92,10.77,8.89,16.16,1.47,1.8-1.6-4.47.79-1,1.82,4-1.5.52.86,4.29.34-.45,2.63,1.2,3.36,4.24-.75-.75-2-2.42-1.9-1.65,4.46,9,9.46,17.75,14.7,26.46-1.22-.72-2.37-5.17-2.5-3.75,2.63,5.33,8.24,16.67,9.95,17.35.23,1.19,1.11,2.18,1.65,3.27-.81-.87-1.85-2.14-1.18-.37,1.83,1.44,1.72,3.5,3.56,4.93-.57-1.33-1.29-2.63-1.85-4,3.24,3.81,1,4.72,4.22,8.54.14-.73-2.24-4.1-.79-2.79,3.69,7.17,8.34,14.61,12.73,23.3-3.14-3.73-5.44-11.2-7.91-12.67a23,23,0,0,0-4-7.84c.33,2.19,2.15,3.87,2.77,6-.93-.38-2.49-4-2.11-2.36A126.8,126.8,0,0,0,219,212.51c-.53-.37-1-.6-1.18-.38,1.13,1.41,1.57,3.05,2.7,4.46.71.68.57-.15,1.18.37a40.29,40.29,0,0,0,3.5,7.25c-.41-1,.84-.7,1.39,1.08-2.42-1.27,2.56,4.89,3.16,7.35,0,.85-2.52-2.86-2.24-1.55,2.54,2.48,3.38,5.5,5.21,8.21-.79-3,3,3.53,3.56,4.94-1.61-2.3-3.15-3.88-2.57-1.44.87,1.22,2.5,2.23,2.83,3.64-2.9-1.7,4.47,10.6,6.66,14.6-.18-.78-.31-1.47.67-.21.69,3,.87,1.51,2.17,3.87l1,3.5c-2.18-2.95-1.29-.45-2-.86-2.08-4.55-2.06-5-5.08-9-.65-3.7-1.59-3.25-3-8.16.14,1.45-2.32-1.9-3.36-4.24.76.77,2,2.44,1.91,1.67-1-1.21.14-1.71-1.84-4-1.1-.68-1,.8-2.9-1.35-.67-2.44,3.07,2.92,1.45-1.23-3.07-3.07-2.86-7.21-6.14-10.2.22,1.43,1.21,4.22-.39,2.41-.4-2.48-.81-3,.19-3.12-5-6-7.64-12.75-11.21-19.22,0,.43-.21.32-.85-.47.39,1.38,1.68,2.49,1.85,4-2.82-3.43-1.54-4.71-3.17-7.36-.68-.05-1.25-.13-2.64-3,3,3.8-.11-1.26-.13-3-3.22-4.09-9.8-18.23-12.93-20.2-1.23-2.87.35-.76.26-1.61-2.63-4.48-4.61-9.18-7.77-13.47,1.25,1.54,1.93,2,1.71,1-1.11-1.67-1.9-3.45-3.57-4.95.21.95.92,2.8.28,2.22-.64-1.83-2.21-3.36-2.57-5.26,1.73,2.16,2.18,2,1.31-.44-4.24-4.8-5.63-12.56-9.37-15.25-.9-1.72-1.1-2.44-.79-2.79-1.32-.69-2.89-5-2.83-3.64.31.9,1.38,2.62.59,2.09-2.13-3.89-3.51-8-5.54-11.93.26.92-.74-.39-.66.22.26,1.18,1,2.21,1.32,3.38-5.75-8.3-8.44-17.58-14.84-25.67-1.24-3.48,1.21,1.74.66-.21-2.44-5.56-6-10.76-8.57-16.28a11.29,11.29,0,0,1-.83-1l-.4-.52a4.26,4.26,0,0,0-.31-.43,3.43,3.43,0,0,1-.51-.82,9.1,9.1,0,0,1-.55-1.83c-.28-1.21-.47-2.14-1.91-2.65.56-.32.17-.86-.26-1.51s-.91-1.4-.35-1.85c-1.75-1.09-1.49-1.91-2.1-2.82,1.71.39-.17-2.47-2.7-4.34.06-.64,1,.31,1.37.32-1.14-1,.51-.6-.62-1.57-.63-.17-2.35-1.47-1.93-1.72.68.5,1.78,1.83,2.11,1.68.5-.24-1.78-2-2.57-3l.22,0a6.61,6.61,0,0,0,2.59,1c-.16-.45.23-.57.61-.69s.78-.26.79-.72c-.71-.07-1.21-.26-1.41-.69.39.1.95.35,1,.2-.21-.34-1.86-.71-1.84-1a5.28,5.28,0,0,0,2.68.28,5.83,5.83,0,0,1,3,.55c-.17.39-3.29-.38-.39.81.19.66-2.85-.42-1.61.43,1,.19,1.28-.26,3.13.76-.19-.89,1.52.07,1.64-.6-1-.6-1,0-1.76-.39.5-.31-.69-.67-1-1,.2-.57,1-.57,2.2-.1-.12.27-.55.54,0,.83.14-.21.77.16,1,0,.65-.36-.86-.8-.16-1.16a18.33,18.33,0,0,0,4.44.49,5.2,5.2,0,0,1,3.8,1.45c.31-.14,1.78.11,1.28-.63-.43-.52-1.83.18-1.58-.73a14.5,14.5,0,0,0,3.12.27,6.52,6.52,0,0,1,.71.09l.15,0,.38,0a4.8,4.8,0,0,1,.67.12c.76.18.92.47.13.94a13.37,13.37,0,0,0,3,0c2.9-.36-.45-.8,2.45-1.16,11.86.23,27.4,1.09,37,.41,13.1,1.15,26.54.69,39.77,1.12-.35-.17-1.35-.35-.62-.51,8.79,1.65,25.58.58,37.52,1.26.95-.27.16-.56.92-.84,8.26.69,16.75.32,25,1-.77-.24-1.43-.47.15-.68,4,1,10.26,1.47,12.53.31a80.12,80.12,0,0,0,14,.52c2.35,0,4.71-.1,7.05-.06a23.11,23.11,0,0,1,2.9.17,25.62,25.62,0,0,1,2.71.46c-.15-.42,1.36-.46,2.66-.28s2.32.56,1.05.87A5.28,5.28,0,0,0,343.5,69c-1.12.08-1.94.35-1.55.63,3.33.47,1.88.8,3.42,1.58,5.73,0,4.63-1.51,4.45-2,6,.91,12.34,1.21,18.59,2,1.3.49.53.66,1.7,1.13a101.29,101.29,0,0,1,12.64,1.63c4.27.81,8.55,1.83,12.72,2.95,8.35,2.23,16.22,4.85,23,6.57,2.77,1.52,3.51,1.62,5.2,2.76.88.08.29-.38,1.59-.14a312.34,312.34,0,0,1,33.39,15.27c5.22,2.77,10.21,5.81,15.12,9A165.86,165.86,0,0,1,488,120.84c.91.19,2.52,1.38,4.16,2.86a34.62,34.62,0,0,1,4.22,4.76c3.77,1.8,5.62,5.08,8.39,7.66a13.65,13.65,0,0,1,3,2.53c1.42,1.41,3.23,3.23,5,5.31,3.68,4,7.38,8.93,9.73,11.8-.57-.3-.79-.13-.39.89a19.7,19.7,0,0,1,3,3.4,35.19,35.19,0,0,1,2.31,3.51c1.3,2.31,2.44,4.25,3.78,5.26.29,1.09.36,1.78.13,2,.8,1.4,1.93,2.57,2.36,2.42a10.56,10.56,0,0,0,1.35,2.64c.26.38.27.47-.22.91,2.57,3.74,3.87,7.88,6.58,11.68-.49-.59-.94-1.09-.66.17,1.84,3,2.43,6.23,4.48,9.26-.68-1.36-.38,2,.22,2.5,1.35,2.59.13-1.59,1.47,1a43,43,0,0,0,1.83,7.38,56.11,56.11,0,0,0,2.79,7.33,14.71,14.71,0,0,0,1.12,5.12l1.19,3.38c.38,1.24.74,2.61,1.07,4.08.88,3.5,1.11,11,2.49,12.22.19,1.89.28,3.77.49,5.58s.44,3.58.65,5.33c.35,3.52.91,6.9,1.31,10.3.18,1.71.37,3.42.55,5.13s.38,3.43.44,5.19.15,3.54.18,5.34a54.61,54.61,0,0,1-.11,5.55c.22-.64.45-2,.68-1.23,0,2.46-.23.76-.68,2.59a53.28,53.28,0,0,1,.67,7.38c0,2.87,0,6.08-.11,9.42s-.33,6.77-.49,10.14-.41,6.62-.4,9.64c-.13-.42-.31-.31-.56.53.06,1.95-.07,3.85-.2,5.75s-.32,3.79-.63,5.63-.67,3.68-1,5.51l-.54,2.73-.64,2.7c-.24,2.34-.44,4.82-.84,7.26s-.88,4.9-1.4,7.26c-1.22,4.65-2.62,8.95-4.49,11.9-.11,1.85,1-.18.83,1.88-1.53,2-1.33,5.07-2.55,7.31,0-1,.73-2.55.21-2.08-.65,2.45-1,3.22-.78,4.66-3.35,7.35-6.39,14.88-9.92,22.18a98.94,98.94,0,0,1-12.65,20.41c-.26,1.06-.88,2.62.48,1.39l2.85-4.15,2.7-4.25c.44-.71.91-1.41,1.34-2.13l1.26-2.19c.82-1.46,1.71-2.89,2.5-4.38,1.56-3,3.19-5.93,4.6-9s2.81-6.15,4.16-9.26a221,221,0,0,0,12-39.36,273,273,0,0,0,5.22-41.9,335.05,335.05,0,0,0-.58-42.88,269.62,269.62,0,0,0-6.48-41.5,215.64,215.64,0,0,0-13.33-38.63l-2.2-4.54c-.37-.75-.72-1.52-1.11-2.26l-1.19-2.22c-.8-1.47-1.55-3-2.39-4.43l-2.53-4.33c-.81-1.47-1.77-2.83-2.65-4.25s-1.77-2.84-2.75-4.19l-2.84-4.12-3-4a185.09,185.09,0,0,0-27.67-29c-20.64-17.37-45.3-30.68-71.85-40.08a300.58,300.58,0,0,0-41-11.25c-7-1.41-14-2.57-21-3.49-3.5-.45-7-.84-10.47-1.16-1.73-.16-3.44-.29-5.13-.41l-2.48-.14-2.18-.1-46.42-.69-46.7-.83-46.68-1-23.32-.55L165,63.29l-5.82-.15-1.46,0h-.53l-.29,0L155.71,63c-3.83-.17-8.92-.11-11.94-.83a7.33,7.33,0,0,1-2.88.37,7.92,7.92,0,0,0-2.81.31c-.76-.18-2.45-1.11-2.63-.73.54.51-.35.48-1.58.31s-2.81-.51-3.45-.6a10.21,10.21,0,0,0-3.17,0c1,1.39,1.87,2.55,1.15,2.4a11.54,11.54,0,0,1-1.58-2.55c-1.18-.08.27,1.91,1.65,3.8s2.74,3.73,2,4.44a16.62,16.62,0,0,1,3.7,6.09c.81,2,1.65,3.91,3.1,4.6-.24.58.55,1.12.17,1.75,1.24.51,2.85,3.61,1.59,4a21.31,21.31,0,0,0,1.35,2.05l.18.25.1.14.18.28.71,1.1L143,92.38a58.85,58.85,0,0,1,4.92,9.08c0,.85-2.52-2.86-2.25-1.56.82,1,3.13,4.45,2.44,2.25,4.6,6.89,7.15,14.45,12.14,21.21-.91-.07,1.71,4.52,2.7,4.46.55,1.55-.32.58-.46.91,2.12,3.13,3.72,7.87,5.73,8.8,1.26,2.65,2.7,5.22,4,7.85.45,4.5,10.63,18.87,13.59,27.6,6.24,7.87,8,17.2,14.63,25,0,1.8,1.84,3,2.05,4.68-3.66-4.71-6.65-11.34-10.82-17.83-.5-.09-1.26-.63-1.51-.25a17.48,17.48,0,0,0,3.76,5.63c1.39,3.5-3.26-3.72-1.12,1.13.75-.4,4.1,7,4.22,4.72,1.22,3.63,3.65,5.68,4,7.83-.09-2.08,1.33.69,2.37.76a28.08,28.08,0,0,0,5.61,9.62c.93,2.33-.65.23-.26,1.6,2.61,4,6.75,11.51,7.12,13.69-1.47-3.32-4-6.33-5.61-9.61.67,2.23-1.09.14.33,3.71.68-.28,1.61,2,3.17,3.54-1.92-.71,5.79,14.64,8.45,17.08,1.28,3-1.56-1.38-.27,1.61.53.59.79,1.28,1.25,1.88,1.16.47,2.41,1.88,1.45-1.23a55.45,55.45,0,0,0,3.1,5.84c.17-1.17-2.44-5.14-1.19-4.18.51,2.63,3.11,4.58,3.5,7.25-1.54-1-2.71-3.57-3.5-3.44.83,2.53,2.92,4.65,3.83,7.15-1.34-1.45,0,1.88-1.32.43-1.1-1.79-4.14-6.25-3.69-4.14.76,1.79,2.89,3.12,3.56,4.94-2.09-2.17,1.73,4.77-.59,1.72,1.28,2.56,4.23,7,3,2.85-1.82-1.07-.34-1.18-.8-2.8a7,7,0,0,1-1.25-1.87c1,1.26.94.51,1.91,1.65,1.68,3-.34,1.17.86,4.31a20.4,20.4,0,0,0,2.31,3.05c.13-.74-2.25-4.1-.8-2.79,2.13,4.64,5.33,8.94,7.13,13.7-3.37-5.17-5-6.85-8.58-12.47.2.7-.19.36-.12.82,3.18,5.31,6.88,10.46,9.88,15.83.55,1.55-.31.6-.46.92a22,22,0,0,1,1.26,1.88c.69.77.13-.69.66-.22,1.42,2.28,4.17,6.65,3.49,7.25,2.63,4,8.54,10.92,8.44,13.26-.81-1.3-3.63-4.81-7.65-10.47,2.33,4.58,6.1,8.69,7.78,13.48-1-3,1.82.92,1.65-.53.36,1.14,1.51,2.05,1.65,3.27-1.86-2.72-3.16-3.32-2.9-1.34,2.82,2.88,2.93,4.37,3.3,6.55,5.72,7.43,7,12.13,11.54,19.11-1.46-.13-4.54-7.37-6-7.19,2.19,4.87,6.33,9.11,7.32,14.39,2.82,3.66,4.71,7.63,6.86,11.49,1.25,1.41,1.21.54,3,2.84a8.35,8.35,0,0,0,1.12,2.69c-.63-2,.13-1.49,1.2.39C285.1,365.59,282.41,361.18,280.79,359.38ZM150.14,106.83c1.18,2.4,1.81,5,3.83,7.14A23,23,0,0,0,150.14,106.83Zm52.72-39.9c-.65.22.88.46-.14.68a10.81,10.81,0,0,1-3.58-.55c-2.17,1.08-2.54.63-4.73,1.31a60.77,60.77,0,0,0,12.53.31c-3.48-1.1,1.54-.41,4-1.15C208.41,66.39,205.51,67.26,202.86,66.93Zm86.07,486.83c-1-3.13-1.27-2.28-3-4.34C286.38,551.37,288.48,554,288.93,553.76Zm15-9.43c.06,1.37-2.33-3.55-1.72-1,2,4.7,6.77,8.48,8.11,13.38,2.59,2.75,4.36,2.58,1.72-2.85-.12,1.19.55,3.76-2,.65.16-1.62,0-2.06-.53-4.41-1.32-1.35-2.57-2.72-2.7-4.45a37.7,37.7,0,0,1-6-7.2C300.19,538.75,302.36,542.44,303.89,544.33ZM22.94,570.91c-5,.29-7.86-.5-13.37.08A56.35,56.35,0,0,0,22.94,570.91Zm266.16-.17c1.28-.75-3.73-.64-4.92-1.24C281.76,570.54,287.19,570,289.1,570.74ZM461,544.05c2.14,0,4-1.45,6-2.19.38-.56-.76-.29-2.17.27A17.39,17.39,0,0,0,461,544.05ZM105.6,146.51a48.33,48.33,0,0,0-4.21-8.54C100.71,138.49,104.32,144.1,105.6,146.51ZM78,75.33c1.62,1.75-.1-1.93-2.34-6S70.6,60.49,70,60.12a41.61,41.61,0,0,0,4,7.55A46.43,46.43,0,0,1,78,75.33Zm125.39,226.9c.3,1.19,1.07,2.21,1.32,3.39,1.19,1.53,1.27,1.09,1.92,1.67C206.25,305.38,204.87,303.79,203.39,302.23Zm-87.55-265c6.09.26,9.13.33,15.95.34A74.12,74.12,0,0,0,115.84,37.26ZM136.1,129.7c.74,0-2.48-5.25-3.49-7.25C131.69,122.55,135,127.74,136.1,129.7Zm34.1,60.57a5.46,5.46,0,0,0-2.83-3.65C167.5,187.7,170.43,191.59,170.2,190.27ZM273.46,348.79c0-2.27-2.73-3.68-2.76-6-.94-1.15-1-.34-1.59-1.78C268.57,341.29,271.35,346.9,273.46,348.79ZM225,254c-.37-1.91-1.88-3.46-2.9-5.16A10.82,10.82,0,0,0,225,254Zm-44.05-89.37c-.57-2.36-2.88-6.46-3.63-6.43C178.24,160.45,179.06,162.73,180.94,164.65Zm-10.29-17.23c.77-.3-2.05-5.9-3.7-7.95C167.52,142.34,169.64,144.71,170.65,147.42Zm30,123.67c2,4.43,4.95,8.56,7.26,12.89C207.46,281.86,203.8,274.83,200.68,271.09ZM150.4,86.15a18,18,0,0,0-.84-2.14l-.13-.29a.18.18,0,0,1,0-.09l0-.14a1.45,1.45,0,0,0-.11-.25.79.79,0,0,0-.88-.42,1.6,1.6,0,0,0,0,1,.9.9,0,0,0,.14.2.38.38,0,0,0,.09.09l.29.4A13.69,13.69,0,0,0,150.4,86.15Zm26.19,93.66c-.68-2.32-2.45-4.29-3.62-6.45C171.92,173.26,175.12,178.2,176.59,179.81ZM206.49,289c1.55.86-1.48-3-1.52-4.08C203,283.4,205.66,287.22,206.49,289Zm-2.64-6.76-.6-2.11c-2.29-2.61-1.21-2-2.89-5.14-.72-.7.4,1.87-.46.91,1.11,2.59,2.33,3.21,2,4.67C203.13,282.13,203.2,281.68,203.85,282.27Zm-3-8.17c-.51-2.37-2.33-4.32-3.63-6.44A12.83,12.83,0,0,0,200.82,274.1Zm-31.54-93.43c-1.92-4.39-2.39-1.92-4.55-4.62a17.14,17.14,0,0,0,2.5,3.75C166.47,177.31,169.14,182,169.28,180.67Zm18.88,71.63c-.2-.7-.4-1.4-.59-2.09l-2.12-2.37C186.2,249.38,186.64,251,188.16,252.3Zm11.94,43.39c-1-2.68-3.12-3.83-2.57-5.26C194.22,286.54,199.27,296.46,200.1,295.69ZM163.34,171.15a10.3,10.3,0,0,0,2.58,5.27,27.7,27.7,0,0,0-3.31-6.56c-.55-1.59,1.57,1.86,1.79,2.47.2-1.36-4.26-7.74-6.34-10.9.28-1.91-1.1-1.22-1.18-4.18-4.06-5.64-4.6-4.14-8.31-10.26.84,2.47,3.31,6.93,4.49,6.94-.19,2.89,4.21,7.38,5.86,11.8C159.87,165.52,161.72,169.31,163.34,171.15Zm-20.78-77.1c-.51-1-1.23-2.49-1.94-3.67-.17-.29-.35-.57-.52-.82l-.25-.34a.86.86,0,0,0-.14-.13.6.6,0,0,0-.6-.14,11.91,11.91,0,0,0,1.59,3.13C141.45,93.24,142.2,94.12,142.56,94.05Zm23.75,87.58a10,10,0,0,0-2.5-3.76c.26.93.53,1.85.79,2.8C166.55,183.43,164.37,178.86,166.31,181.63Zm24.1,95.1c-1.94-3.41,0-1.38-.67-3.6-2-1.63-1.59-4.05-3.43-5.74C188.33,271.27,186.73,272.68,190.41,276.73ZM178.07,232c-.41-2.17-2.17-3.88-3.76-5.64C174.78,228.44,176.92,230,178.07,232Zm2,18.41c-.9-1.41-2.36-3.08-3-2.85,1,3.18,5.84,9.23,5.48,6.62C181.19,253,179.26,250.75,180.05,250.36ZM134.66,119.49c1,3.51,3.5,6.49,6.26,9.41,1.3,2.11,1.82,4.49,3,6.66-.59-1-1.18-1.9-1-1.18-1.57-3.32-5.1-9.17-6.8-10,.74,2.82,3.15,5.08,4.68,7.63l1,3.48c2.92,4.1,6.58,11.82,8.71,11.67.53,1.39,0,.85-.66.21,1.56,3.8,2.82,3.25,2,.86-2.87-3.09-.55-1.19-1.32-3.39-3.4-4.22-4.76-9.12-8.1-13.36.31-.35.1-1.08-.8-2.8-1.37-1.09-3.3-3.37-2.51-3.76C137.53,123.08,137.57,124.7,134.66,119.49Zm38.2,104.24-.6-2.1c-1.95-2.3-2.18-1.56-3.82-3.33,0,1.53,1.86,2.45,1.84,4,1.28,1.57,0-1.37,1-.32C171.8,222.54,172.33,223.14,172.86,223.73ZM145.61,72.12c1.37.72,1.17.08.22-.45C144.36,70.91,145.52,71.9,145.61,72.12Zm-14.52.38c.21.58.4.21.31-.41a3.16,3.16,0,0,0-1.51-2.16C129.41,70.46,130.85,71.7,131.09,72.5Zm40.26,162.4c.58.57.08-.77-.08-1.51l-2.1-2.35C169.77,233.75,170.84,233.52,171.35,234.9Zm-6.8-21.43c-.84-2-1.48-4.09-2.45-6.07l-2.63-3c.58,1.6.51,2.06-.46.92C160.81,208.08,162.88,210.71,164.55,213.47Zm4,17.78c1-.89-3.44-6.47-4.42-9.23-1.73-1.15,4.41,8.49.33,3.7.15,1.47,1.44,2.57,1.85,4,.45-.24.64-.94,1.84.16C168.24,230.32,168.37,230.78,168.51,231.25Zm-10.23-31c-1.14-3-4.08-5.8-3.5-7.26C152.5,191.62,155.88,199.11,158.28,200.27Zm-3.16-11.17c-1.36-1.71-.79,0-2.45-2.27-.53-1.4,0-.85.66-.21a12.33,12.33,0,0,0-3-4.34c.66,1.76-.39.47-1.2-.39.27.94.53,1.87.8,2.8,1,1,.5-.73,1.51.27,1.41,1.69-.39.38.79,2.79C153.17,188.18,156.19,192.26,155.12,189.1Zm-4.23-12.36a20,20,0,0,0-4.55-8.43A30.87,30.87,0,0,0,150.89,176.74Zm11.55,42c-2.14-3.91-3-5.78-5.21-8.23,2.28,3.07,3.06,6.63,5.28,9.73C162.18,219.2,161.86,218.17,162.44,218.74ZM133.8,119l-.59-2.08a8.34,8.34,0,0,1-2.9-5.16l-2.12-2.38C129.94,112.65,131.4,116,133.8,119Zm24.82,92.59c-.6-2.1-2.05-3.92-2.78-6C154.78,205.29,157.15,210.23,158.62,211.6Zm-32-150.21a10.81,10.81,0,0,1,2.75.13,6.66,6.66,0,0,0,2.54,0C129.8,61.09,125.41,60.29,126.61,61.39Zm35.5,165.08c.12-3.18-5.65-12.19-7.51-15.09,1.52,1.57,1.18.36-1-3.5-.56-.41-.83-.31-.46.92-2.06-4.08-5.31-11.24-7.25-12.89,2,4.54,3.56,7,4,10.15,1.86,2.95,3.19,6.08,6.06,8.7-.69-.19-1.75-1-1.84-.16a38.89,38.89,0,0,0,2.9,5.16c.83.66,2.09,2.09,2.24,1.55C160.65,224.2,160.79,223.16,162.11,226.47Zm-10.29-36.3c-1.6-3.84-2.7-4.82-4.09-5.54C150,189,149.41,185.83,151.82,190.17Zm2.24,16.8c.42,1.65,1.44,3.09,2.05,4.68C157.92,213.32,155.68,208.59,154.06,207ZM120.63,93.89c1.79,1.68,2.31,3.52,3.94,5.26a23,23,0,0,0-1-2.91c-.39-.92-.8-1.81-1.16-2.71-1.9-2.22-2.4-1.94-2.45-.87-1.66-2.37-3.48-4.86-4.1-7.3-1.57-2.11-.79,0-1.88-1.25a48.89,48.89,0,0,1,3.19,5.15A30.16,30.16,0,0,0,120.28,94l.88,3.3a10.59,10.59,0,0,1,2,3.13C123.52,99.66,120.51,95.07,120.63,93.89Zm5.52,10.84a14.67,14.67,0,0,0-3.28-6.52C123.87,100.36,124.56,102.72,126.15,104.73Zm25,93.28a14,14,0,0,0-2.9-5.15c1.29,3-1.55-1.38-.26,1.61C148.94,196.17,150.76,198.2,151.16,198ZM146.88,66.72c1,.52,1.24.12,1.62-.27C147.79,66.28,147,66.13,146.88,66.72ZM151,201.12a9,9,0,0,0-2.37-4.55c.41,1.31-.23.74.26,2.19C149.56,199.55,150.26,200.34,151,201.12Zm-17.75-57.51c-.8-3.05-2.8-5.69-4.56-8.43-.22.17-.12.94.27,2.2C131,139.27,131.25,141.71,133.22,143.61Zm11.61,43.49c-1.19-3.67-4.34-6.71-6.13-10.2,1.33,3.64,4.17,6.78,5.47,10.42C144.7,187.8,144.14,186.33,144.83,187.1ZM137.05,166c-.62-.29-.13,1.39-.07,2.3l2.11,2.36C138.88,169,137.27,167.71,137.05,166Zm9.5,29.69c1.38,1.14-1-2.6-1-3.49l-2.63-3c1.34,3.35-1.17.39.65,3.59,2.1,2.81-.32-2.41.6-1.72C145.08,192.62,145.52,194.25,146.55,195.7ZM114.49,83c-1.12-3.1-2.28-2.91-3.28-5.48C109.69,76.69,112.84,81.44,114.49,83ZM134,160.14a63.64,63.64,0,0,0-4.15-7C131,155.53,131.83,158.05,134,160.14Zm22.76-92.38a.71.71,0,0,0,.35.23.35.35,0,0,0,.17,0l.57,0c.88-.07,1.78-.23,2.67-.34a8.32,8.32,0,0,0-3.23-.48A.57.57,0,0,0,156.71,67.76Zm-31,72.2c-.74-2.56-2.39-4.81-3.5-7.25C121.57,132.73,124,138.19,125.71,140ZM99.6,56.1a85.87,85.87,0,0,0,4.16,8.1C106.33,66.12,102.15,59.13,99.6,56.1Zm29.61,117.8c.06.77-.75-1-1.59-1.78.19,1.73,1.21,3.16,2.06,4.68.39-1.13.79.78,2.63,2.95.24-.16.12-.94-.27-2.2.8,1,.78,2.28,1.65,3.27-.14.33-1-.63-.46.91,2.77,2,5.28,5.06,3-1-.71-.69.41,1.87-.46.91-1.8-3.2-2.34-4.57-2.63-6.76-1.94-2.42-2.24-5.37-4.68-7.63.19-1-2.37-4.62-1-3.5-1.78-3.68-1.53-.91-1.51-.26.76,2.29,2.33,4.32,2.64,6.77-1.33-1.35-1.19-3.17-2.71-4.46.1,1.15,2.13,3.9.07,1.51C126.92,169.56,128,171.75,129.21,173.9Zm-4.36-26.8c-2.51-5.62-3.61-3.58-7.39-8.27-1.78-2.73-2.61-5.75-4.55-8.43-.37,1.41,3.83,6.8,1.2,4.19,1.28,3.06,4,6.47,3.69,7.95,1.2,1.62,2.27,3.91,2.83,3.65C117.73,139.87,122.17,143.58,124.85,147.1ZM173,68c5.44.56,6.41.46,11.49,1.82,2.47-1.11,5.47-1.37,7.95-2.62-1.16-.34-2.44-.18-3.59-.55-1.75.48.09,1-4,1.48-3-.43,1.53-.78,1-1.18A58.87,58.87,0,0,0,173,68ZM99.54,55.64a14.92,14.92,0,0,0-3.82-5.76C96.93,51.77,98,53.6,99.54,55.64Zm33.89,126.79c-1.28-1.57,0,1.37-1,.33C133.9,185.9,135.36,185.42,133.43,182.43Zm-12.21-41.77A24.23,24.23,0,0,0,120.1,138l-4.22-4.72C117.14,136.43,120.84,141.52,121.22,140.66Zm-25.7-92.9c.37-.56-1.29-2.3-1.34-3.1-1.81-1.88-.69-.28-.54.83C94.27,46.26,94.89,47,95.52,47.76Zm9.23,43.95a31.09,31.09,0,0,0-3-5.4c-1.13-1.65-2-2.5-1.21-.32C102.38,88,102.94,89.83,104.75,91.71Zm19.64,67.74c-1.57-1.83-.8,1-.06,2.31C125.45,163,125,161.26,124.39,159.45Zm-32-115.09a14.1,14.1,0,0,0-2-3.8,9.4,9.4,0,0,0,1.82-.39,11.9,11.9,0,0,0-2.57-.05c.23.34.51.7.83,1.09.13.47-.23.07-.62-.4C90.07,41.61,91.46,43.13,92.41,44.36Zm-3.7,1.18a9.73,9.73,0,0,0-1.82-3.26A10.18,10.18,0,0,1,85,39C83.24,37.62,86.71,43.19,88.71,45.54Zm40.7,144.3c-2-4.25-2.16-3.47-3.62-6.44-.6-.25-1.38-.82-.8,1,.08-.87,2.63,2.82,1.25,1.88A11,11,0,0,0,129.41,189.84ZM230,68.42c2,.08,3.82.66,5.91.07A9.82,9.82,0,0,0,230,68.42ZM75.61,41.61c-.22-1.4-.94-3-2.87-5.42C72.93,37.52,73.7,39.26,75.61,41.61Zm64.51,2a6,6,0,0,0,3.17.19c.72-.2.82-.56-.74-.84C140.17,43,141.81,43.18,140.12,43.61ZM77.55,29.16c2,0,3.56-.25,5.36-.4a21.62,21.62,0,0,1,6.24.34c-2-1-11.28-1.31-14.35-.63C74.94,29.08,78.46,28.7,77.55,29.16ZM263.84,69.48a36.38,36.38,0,0,0,9.58.28C272.88,68.82,267,69.08,263.84,69.48Zm-165.16,64c1.09.55-1.41-4.05-1.91-5.48C95.75,127.45,97.64,132.26,98.68,133.52Zm-32-80.23c-.18-1.58-2-3.88-2.37-5.55a33.74,33.74,0,0,1-4.18-6.05,49,49,0,0,0-3.51-5.75c1,2.87,3.56,6.6,4.11,9.32C64,49.38,63.12,48.27,66.66,53.29Zm92-15.4c3.64-.12,4.22.77,6.48.93,3.36-.48,2.32-1-.41-1.54C162.58,37.88,160.76,37.1,158.61,37.89ZM63.78,65.53A105.93,105.93,0,0,0,55.27,52.3C56.71,56.14,60.55,61,63.78,65.53ZM90.49,20.37a20,20,0,0,0,7.56.23A19.78,19.78,0,0,0,90.49,20.37ZM45.53,14a45.84,45.84,0,0,0,12.81-.08C53.94,13.82,49.21,13.52,45.53,14Zm42.05,4.17c3.13.46,2.22.09,3.17-.15,8.22-.05,15.31.5,18.37-.7-3-.16-6,0-8.85.08a60.49,60.49,0,0,1-9-.22C88.51,17.49,87.65,17.82,87.58,18.16Zm75.57,12.31a50.38,50.38,0,0,0,11.2-.38A48.1,48.1,0,0,0,163.15,30.47Zm-124-.63c2.69,3.58,2,1.23,4.24,4-1.89-3.2-3.44-6.18-6-9.76C39.09,27.92,37,25.19,39.14,29.84Zm1.94,2.73c.17,1.67,2,4.57,4.31,8s5.21,7.47,7.66,11.59c-1.82-4.29-4-7.42-3.77-8.68C46.31,39.74,45.45,39.68,41.08,32.57Zm4.08-.11A103.35,103.35,0,0,0,38.07,20.7c1,2.35.89,2.73-.87.21,1,3.38,3.91,8,6.37,12.23,2.38,2.29-3.94-6.9-4.1-8.59C39.44,23.18,43.62,30.46,45.16,32.46Zm48.75-18c3.48.64,6.22,0,9.52.41C104.6,14.4,96,14,93.91,14.49Zm-4.09-.87c-4.54.36,2.81.81-.34,1.18C94.1,15.09,95.22,14,89.82,13.62Zm30.92,5.46c4-.71,5.58-.44,7.62.23,3.83-.62,1.74-.66,6.39-1-2.94-.17-5.82,0-8.91-.74-2.87.23-5.9,0-8.62.61C117.43,18.49,118.7,18.78,120.74,19.08ZM234.92,45a2.88,2.88,0,0,0,1.49,0l1.41.35c.08-.75,3.22-.4,5.42-1.13C240.1,43.78,236.34,44.25,234.92,45ZM337.86,70c.11-.68-1.73-.27-3.6-.55C332.14,69.91,335.75,70.65,337.86,70ZM37.07,23.1a79.06,79.06,0,0,0-5.08-10c-.56-.69-.12.8.89,3A32.94,32.94,0,0,0,37.07,23.1ZM219.31,38.23a31.82,31.82,0,0,0,8.89.1A31.44,31.44,0,0,0,219.31,38.23ZM46,5.41A49.06,49.06,0,0,0,57.72,6.5c3.12-.75-5.14-.63-5.2-1.21,6.52-.77,7.9.23,13.65.42,2.35-.24.58-.72,3.58-.49C66.21,4.16,52.08,4.5,46,5.41ZM208.56,33c2.81-.42,5.47-.11,8.32-.75-3-1-6.43,0-9.58-.28C206.11,32.3,206.73,32.65,208.56,33ZM155.92,17a35.89,35.89,0,0,0-6.55-.73c-1.69.25-.82.62.83.84A18.59,18.59,0,0,0,155.92,17ZM79.19,5.45a65.23,65.23,0,0,0,8.38.73c.24-.23.5-.45,2.27-.66A46.39,46.39,0,0,0,79.19,5.45ZM160,17.18c2.1.66,4.54-.4,6.77-.43A21.49,21.49,0,0,0,160,17.18Zm20.2,2.6c0,.29.76.58,2.05.88,1.53-1,2.31,0,5.36-.79A14.5,14.5,0,0,0,180.23,19.78Zm0,0c-2.73-1-6,.31-8.79-.43C171.31,20.21,177.53,20.73,180.23,19.78ZM98.54,7.26c3.69.47,7.33,1.27,10.48.41C105.56,7.51,101.76,6.71,98.54,7.26ZM171,17.81c2-.11,3.87.4,6-.27C175,16.91,171.17,17,171,17.81Zm17.12-.32c1.92-.26,1.56-.55,2.39-.82-2.94-.61-4.88-1.29-9.43-1-.86.42,1.16.34,2.12.53-2,.24-4,0-6.06.61,1,.46.05,1,2.73,1.05.66-.92,2.3-.95,6.28-1.63C187.18,16.69,185.24,17.07,188.14,17.49Zm-6.14,1a82.27,82.27,0,0,0,14.87-.18C191.91,17.67,183,16.85,182,18.45ZM82.52,2.09c7,.11,14.06.56,20.88.3A134.31,134.31,0,0,0,82.52,2.09Zm54.7,6.43c5.4.5,5.94-.36,6.49-.8C140.41,7.35,137.25,8.33,137.22,8.52ZM122.91,5.21c7.11.16,14.09.54,21.31-.2-3.43-.73-7.16.3-10.65-.07-4-.42,8.86-.74,1.43-1.18C131.88,4.85,124.59,4.49,122.91,5.21ZM210.16,22c2.1-1-2.78-2.62-7.81-1.62C208.55,21,208,21.29,210.16,22Zm-11.82-3.7c-.8.22.64.46,1.34.69l3.87-.8C202,17.22,200,18.81,198.34,18.29Zm-26.52-7.77a25.78,25.78,0,0,0,2.88.37c1.2-.38,3.09-.76,1-1.18Zm-9-3c2.47-.6,2.67-1.22,1.14-1.86C161.18,5.72,159.47,6.88,162.82,7.53ZM206,17c.12-.51-3.44-1.5-5.77-.74C203.4,16.82,202.23,17.76,206,17ZM166.85,6c2.86.69,5.51-.15,6.47.92,2.53-1.1,3.16-.4,6.84-.77a15,15,0,0,1-3.6-.55C173.21,6.3,170.18,5.44,166.85,6Zm14.7.51c2,1.26,10.91-.2,15.36,1C197.84,5.74,185.87,6.67,181.55,6.55ZM187.19,8a17.21,17.21,0,0,0,3.59.55c2.62-.31.16-.68,1.68-1C189.27,7.17,190.5,7.76,187.19,8Zm30.34.17a21.9,21.9,0,0,0,6-.28c-1.6-.66-3.49.1-5.08-.56C217.7,7.57,218.48,7.86,217.53,8.14Zm57.08,10.49c-2.27,1.34,5.43.65,8,.59C283,18.5,276.7,19.38,274.61,18.63Zm76.47,20.59c2.11.67,6.51.07,3.23-.72C351.52,38.57,353.24,39.08,351.08,39.22ZM279.41,17c-1.92-.28-1.92.86-4,1.15a11.77,11.77,0,0,0,5.13.22C280.44,17.9,278.68,17.43,279.41,17Zm1.25,1c2.61.54,6.16-.64,2.48-1.16C280.06,17.21,280.8,17.62,280.66,18Zm-30.8-8.49a75.37,75.37,0,0,0,11.19-.39c-2-.83-4.53.41-6.55-.58Zm28.34,6.09,2.12.53,3.1-.64C281.71,15.38,280.08,14.93,278.2,15.61Zm25.07,4.18C299.2,19.64,300,18.22,296,19,296.09,19.69,300.72,20.05,303.27,19.79Zm-.93.85c-1.06.82,4.25.65,5.92.06L305.45,20A3.6,3.6,0,0,1,302.34,20.64Zm72.8,21.81a15.92,15.92,0,0,0,4.24,1.08c3.12.17-1.1-1,1.16-1,3.61.36,0,.78,2.52,1.51,1.68-.31,3,.38,4.61.22C386,43.2,384,43,382.13,42.48c3.52-.31,6.15,1.55,9.63,1.43,3,1.13,1.36,1.54,4.55,2.25,1.74-.26-.08-.48-1.81-1.29,3.29-.22,5.37,2.19,8.78,1.76A165.17,165.17,0,0,0,373,40a31.13,31.13,0,0,0,4.93,1.33C378.65,42,375.49,42,375.14,42.45ZM294.75,18c2.33-.5,4.51-.25,6.76-.43.56.46-2.24.88,1.19,1.37,4.44-.22,1.95-.82,4-1.49-3.33-.57-7,.19-10.21-.79C294.16,17.09,292.19,17.52,294.75,18ZM263.87,9.84c2.34.62,4.95-.07,7.53-.6C269.05,8.68,266.39,9.6,263.87,9.84ZM318.74,23.7l2.11.54,3.11-.65A9.49,9.49,0,0,0,318.74,23.7Zm38.95-3.48c-.06-.28-2.61-.86-5.27-1.16s-5.44-.35-5.8.24c-3.32-1,3.11-2,6.87-1.19,0-1.08-7.38-.53-10.35-1.2-1,.38,1.31.39,2.35.63-1.59.18-3.1.2-4.76.24-.4,0-1.07,0-1.38,0l-1,.06c-.69.06-1.39.13-2.09.24-1.65-.36,2.43-.65,3.17-1-6,.1-14.8,1.68-19.29.12-2.9,1.08-6.75,1.57-11.63,2.42,3,.84,5.71-.91,5.84.41,1.73-.19,4-.82,4.8-1.65,5.74-.25,11.43-.38,16.9.7l1.94-.4,1-.21c.33-.06.6-.13,1.11-.19a8.94,8.94,0,0,1,1.35.21c.41.1.79.22,1.2.35.8.25,1.6.56,2.5.84a17.7,17.7,0,0,0,6.85.8,11.18,11.18,0,0,0-3.91-.46C346.37,18.72,354.83,19.84,357.69,20.22Zm4.3-.73c-1-.66-6.09-.79-4.49-1.17-2.18-.22-5.77-.05-5.8.32C355.12,19.05,358.41,19.69,362,19.49Zm-79.6-9.61a79.53,79.53,0,0,0-11.05-.29C272.26,10.55,278.83,10.18,282.39,9.88ZM296,15.47c1.33.74,2.93.18,4.36.38C301.82,15.43,297.3,14.6,296,15.47Zm11.69.81c-.86.88,4.73.69,6.61.24C312.18,16.22,309.88,16.58,307.72,16.28Zm-24.63-6.22c2.05.57,5.9.23,6-.28A16.07,16.07,0,0,0,283.09,10.06ZM406.81,49.31c-.22-1.17,3.21.42,4.1-.1C409,48.1,403.45,47.94,406.81,49.31Zm3.78.51,1.88,1.06c2.47-.17,6,1.16,6.3.46C416.43,50.09,413.46,50,410.59,49.82ZM327.64,16.67c-.86.92,4.8.36,6.62.24C332.15,16.4,329.82,16.88,327.64,16.67Zm-11.52-5.06a9.36,9.36,0,0,0,5.21-.11A9.36,9.36,0,0,0,316.12,11.61ZM366,22c3.58.69,3.83.08,6.55-.12-2-.37-4.14-.53-6.19-.86C364.18,21.12,367.49,21.9,366,22Zm9.23,3.56c1.54.93,3.47.83,5.16,1.37,2.1.08-.51-1.93,3.43-.42.84,0,.51-.14.14-.32l1.65,0A16.34,16.34,0,0,1,382,25C379.26,25.13,379,25.62,375.21,25.6Zm-10.09-5.73c3.29,1.45,7.27,1,10.76,1.88.91-.15-1.1-.75-2-1.18C371.29,20.92,369.31,19.87,365.12,19.87Zm155,136.39a9.86,9.86,0,0,1,1.16,2.14c1.46,1.37,2.76,2.49,1.93.43C522.35,157.43,520.49,156,520.14,156.26ZM450,64c3.43,2.3,4.31,1.28,6.74,1.75a18,18,0,0,0-6.53-3.32C454.13,64.44,452.38,64.3,450,64ZM407,30.56c2.44-.17,5.62.85,5.83.3-1.81-1-6.55-2.11-4.68-.89-2.91-.69-2.75-1.28-4.7-.82-.15-.32,1.21-.28-.37-1-3.3-.72-3.59-.71-4.17-.1-1.3-.77-2.1-1.41-.93-1.61a104.58,104.58,0,0,1-18.51-3.29c2.36,1.68,11.59,3.76,17.24,4.22-.74.31-.28,1,2.6,1.64C401.64,28.55,401.81,29.08,407,30.56Zm-61.15-23c1.79-.17,3.71-.81,5.15,0,2-.8,7.1-.22,3.84-1.39-2.51-.13-6,1.22-10.42.3C343,6.7,343.7,7.06,345.8,7.52Zm55.86,20a48,48,0,0,0,7,1.22c-3.19-1-6.49-1.84-9.66-2.86C395.53,26,403.17,27.59,401.66,27.51Zm-34.6-15.44c2,.72,5.78.39,5.87-.05C371.21,11.41,369,12.12,367.06,12.07ZM356.88,7.51c-.51.93,6.27,1.26,8.65,1.8,1.86-.42-.15-.47-2.15-1.11,2.13-.4,3.85.25,5.95-.11C364.37,6.85,360.5,7.35,356.88,7.51ZM421.43,34c1.61-.53-4-.9-5-2C413.73,32.37,419.26,33.55,421.43,34ZM393.92,20.4c3.2.46,6.24,1.26,9.44,1.75.06-.42-2.19-1-4.5-1.37S394.14,20.21,393.92,20.4ZM368.13,9.13c-.49.29.79.59,2.42.88s3.58.64,4.48.94a3.24,3.24,0,0,1,1.84-.4C374.21,9.39,370.89,10,368.13,9.13ZM427.59,34c.61,1.46-1.59.71-4.67.5,3.95,1.9,6.7,1.69,6.91,3.25,2.37.38.77-.59-.13-1.29,5.94,1.77,13.24,4.42,18,5.79A49.61,49.61,0,0,0,442.34,40c-1.89-.67-3.81-1.31-5.66-1.93C433,36.82,429.61,35.61,427.59,34ZM540.11,188.76c.06,2.12,1.89,3.81,2.45,5.8C543.51,194.72,541,190.28,540.11,188.76Zm-49-102.26c3,2.66,10,6.33,8.47,3.89a6.25,6.25,0,0,1-3.59-2.6C495.09,88.25,495.24,88.41,491.15,86.5ZM380.93,11l-2.59.09c4.8.75,9.39,2,14.29,2.59C388.86,12.5,384.74,12.13,380.93,11ZM447.09,47.3c0,1,6.75,3.42,9.55,4.77.09-.6-1.62-1.45-3.7-2.3A55.87,55.87,0,0,1,447.09,47.3Zm2-1.58a35.48,35.48,0,0,0,5.58,3,58,58,0,0,0,7.88,3.08A35.73,35.73,0,0,0,457,49a41.48,41.48,0,0,1-5.49-2.77A2.73,2.73,0,0,1,449.06,45.72ZM393.35,14c1.84,1,4.2.88,6.15,1.65,1.08,0-1.84-1-.43-.95A14,14,0,0,0,393.35,14Zm12.43,3.11a25.12,25.12,0,0,0,8,1.67C411.32,17.74,408.45,17.61,405.78,17.14ZM457,47.6l1.22.91c.26-.19,1.19-.09,2.67.25-2.52-2-2.83-3.08-7.4-4.14C457,46.33,458.85,47.52,457,47.6ZM407.09,16.24c3.35.42,1.55-.43,2.89-.51,3.31.62-1.58.61,2.51,2.05,3.54.86,2.73-.55,6.89.46-3.73-2-8.29-2.39-12.4-3.6C406.41,15,405.07,15.22,407.09,16.24Zm9.75,3.4-1.71-.11c1.79,1.1,4.2,1,5.88,2.34,2.22.28,3.18.24,3.59,0C420.83,20.55,418.87,20.92,416.84,19.64Zm49.36,31c-2.16.71,8,3.8,11.25,5.66C474.26,53.69,469.53,53.06,466.2,50.66Zm24.15,16.53a26.29,26.29,0,0,0,5.52,3.08C494.34,68.64,490.7,66.77,490.35,67.19Zm-6-7.07c-.72.61,1.75,2.1,4.83,3.91a95.38,95.38,0,0,1,8.7,5.31c-.64-1-3.07-2.57-5.82-4.25A73.79,73.79,0,0,1,484.35,60.12Zm27.26,24.64c.76.68,1.52,1.35,2.36,2a13.28,13.28,0,0,0,2.76,1.68C515.29,86.7,512,84.39,511.61,84.76Zm-.39-2.67c1,.79,2.15,1.75,3.35,2.76S517,87,518.14,88c2.37,2,4.52,3.86,5.92,4.4a22.41,22.41,0,0,0-2.36-2.31c-.84-.73-1.75-1.39-2.62-2.09a20.32,20.32,0,0,1-4.59-4.67C512,81.81,513.22,83.21,511.22,82.09Zm9.36,6.19c2,.65.27-.64,4,1.83a11,11,0,0,0-4.31-3.26,10,10,0,0,1-4-3C513.7,83,518.78,86.83,520.58,88.28Zm9.83,9a22.46,22.46,0,0,0,2.5,2.47,18.67,18.67,0,0,0,3,2.18,9.88,9.88,0,0,0-2.9-3.3C531.84,97.71,530.71,97.12,530.41,97.27ZM497,55.72c2.31,1.44,4.21,3.33,7.19,4.13C502.15,58.1,499.46,57,497,55.72Zm1-1c-1.33,0,3.51,3.2,5.33,3.76C502.09,56.67,499.53,56.16,498,54.72Zm9.9,10.48a12.58,12.58,0,0,0,4.81,3.18c.77.13-1.94-2.24-.56-1.66C508.77,64,510.24,66.48,507.86,65.2Zm-3.36-4.53c2.93,2.75,7.11,4.3,10.8,6.46A12.93,12.93,0,0,0,511,63.41c-.19-.54.49-.47,1.28-.24s1.67.61,1.92.63C508.32,58.74,510.25,63.6,504.5,60.67Zm44.72,60.09c-1.32-.61,1.69,3.59,3.23,4.34C552,123.37,550.12,122.3,549.22,120.76ZM517.44,69.52a11.68,11.68,0,0,0,4.72,3.42A11.75,11.75,0,0,0,517.44,69.52Zm34.95,52.22c1.06.9,2.17,1.78,3.21,2.72.21.87-1.7-1.15,0,1.71a4.43,4.43,0,0,1,2.41,1.71,26,26,0,0,1,2.82,4.37c.62-.24,1.26,1.48,3,2.92-.38-.95-.75-1.91-1.13-2.87-.69.08-1.55-1.12-2.57-2.56a30.83,30.83,0,0,0-3.29-4.15c.21-1.39-4.35-6.76-6.86-9.55C553.76,121,550.83,118.24,552.39,121.74Zm9.31,11.81c-.69-.51-.45.34-1.24-.32a24.83,24.83,0,0,0,3.53,5.49c1.35,1.75,2.46,2.7,1.78.66C562.63,137,564.67,137.76,561.7,133.55Zm4.83,8c.24,1.28,1.46,2.2,1.91,3.39,1.76,1.76,4.32,5,3,1.44C569.32,145.15,569.12,143.56,566.53,141.55Zm6.93,17a11.09,11.09,0,0,0,1.37,3.15c.57,1,1.24,2,1.9,3a16.1,16.1,0,0,0-1.19-3.23A16.75,16.75,0,0,0,573.46,158.55ZM551.27,363.19c.41.14.45,2.59-.44,4,.66,1,1.65-3.86,1.74-5.5C552.29,361.65,551.84,362.2,551.27,363.19Zm40-166.31c-1.56-.21,3.08,11,2.84,6.64C592.82,199.62,591.76,200.14,591.26,196.88ZM548.19,377.27c-.68.06-.93-1.08-2.3.86-.22,2,1.94.23-.13,4.27.83-.24,1.64-2.07,2.4-4.24.37-1.08.73-2.26,1-3.37s.52-2.2.71-3.06c-.45-.19-.88.63-1.18,1.79A14.77,14.77,0,0,0,548.19,377.27ZM545,385.61c-1,1.39-1.12,3.25-2,4.69-.12,1.28.68.19,1.36-1.27S545.53,385.7,545,385.61Zm60.22-193a27.27,27.27,0,0,0,2.31,7.85C607.14,197.78,606.78,195.13,605.22,192.57ZM609,202c-.49.31-.07,2.28.57,4.58s1.51,4.92,1.82,6.53c-1.73-1.86-.88,1.36.44,5.63.69,2.13,1.39,4.54,1.94,6.7a30.36,30.36,0,0,1,1,5.2c.71,1.45.42-3.57.2-4.75-.65-2-.86-1.59-1.3-2.44,0-3.89,2.35,4.79,2.4.89-.38-.7-.91-2-1.41-2.93s-1-1.37-1.25-.34c-.51-2.56.43-4.31-1.37-6.37.22-.92-.13-3.66-.88-6.37A32.14,32.14,0,0,0,609,202Zm2.63,5.53.74,3c.22,1,.44,2,.69,3a53.1,53.1,0,0,0,1.79,6,29.21,29.21,0,0,0-1.15-6c-.28-1-.6-2-.94-3ZM518.16,435.32c.62.23,1.67-1.11,2.79-2.74a27.81,27.81,0,0,1,3.23-4.55C522.68,427.83,520.19,433.16,518.16,435.32Zm97.75-206.26a7.45,7.45,0,0,1,1.27,2.72,22.57,22.57,0,0,1,.38,4.53c.4.85.39-1.31.52-2.35-.34-1.47-.76-3.32-1.16-4.48S616.18,227.82,615.91,229.06Zm2.28,25.52c.71-1.75-.54-3.77-.07-5.54C617.16,246.59,617.57,252.29,618.19,254.58Zm1.62-15.71a8.07,8.07,0,0,0,.51,2.45,8.17,8.17,0,0,1,0,3.19c.48,1.26.74.53.87-1.51C620.76,241.62,620.28,240.25,619.81,238.87ZM507.6,447.13c-1.21.82-2,2.2-3.48,2.66-1,1.33-.58,1.34-.89,2A13.2,13.2,0,0,0,507.6,447.13Zm111.67-175c-.11,2.07-.08,4.18,0,6.3s0,4.22,0,6.33c.76,3.34,1.68,2.13,1.51-2.08-.28-.81-.56,0-.85-1,.06-.21.1-1.31.16-2.3s.1-1.85.29-1.56C620.28,276.41,619.77,275.25,619.27,272.12Zm-123.08,185-2.28,1C491.92,460.52,495.1,459.07,496.19,457.12ZM619.26,298.25a21.71,21.71,0,0,0-.06,7.16,18.21,18.21,0,0,0,.4-7.08C619.47,299.11,619.36,298.71,619.26,298.25Zm-145,175.58c-1.3.17-2.21,1.34-3.43,1.71q-.54.91.39,1c-1.35,1.21-2.82,1.63-1.86.52-2.37,1-.61,1.12-1.37,1.8,1.48-.31,2.7-1.32,4.09-1.85C474.65,474.8,471.72,476,474.25,473.83Zm143-148.72c.65.13.58,3.63.56,5.94.47-1.23.5-2.61,1-3.81a57.65,57.65,0,0,1-.7,7.23c.46-.27.77-2.38,1.06-4.85s.41-5.27.75-7C619.06,322.83,618.19,323.57,617.25,325.11ZM462.08,481.35c-1.39,1.19-.62,1.23-1.36,2.07C463.68,482.41,463.59,481.08,462.08,481.35ZM615.43,337.69a13.3,13.3,0,0,1-.77,3c.5,1.45,1.18,2.06,2.47-1.59C617,334.93,615.81,339.65,615.43,337.69ZM459.26,483a7.77,7.77,0,0,0-4,2.25A7.06,7.06,0,0,0,459.26,483ZM616.48,346.5c.33-1,.53-1.11.62-.61.26-1.67.36-2.76.45-4s.2-2.65.38-5c-.25,1-.45,2.06-.63,3.11s-.38,2.12-.54,3.19c-.31,2.14-.54,4.31-.8,6.47A6.46,6.46,0,0,0,616.48,346.5Zm-.32-.12c0-2.71-.76-1-.78-3.7-.56,2.17-1.06,4.37-1.42,6.61a61.41,61.41,0,0,0-.79,6.93c.25.17.86-1.47,1-.43.47-1.52.8-3.11,1.12-4.69S615.76,347.92,616.16,346.38ZM449.05,489.58c1.54-1.5-3.41,1.32-.36-1.34-1.82.6-3.53,1.88-5.42,2.24.88.16-.58,1.4-2.7,2.8a22.58,22.58,0,0,0,4.22-1.94A17.6,17.6,0,0,1,449.05,489.58ZM614.44,356.79c-.32.74-.64,1.45-1,2.17,0,1.29,0,2.57.32,1.88a8.57,8.57,0,0,1-1,3c-.18,2.47-.27,4.59.91,1.32,0-.57-.32-.14-.29-1,.62-1.4.7-.46,1.35-2C614.23,360.54,614.29,361.35,614.44,356.79ZM607.78,380c.7-2.63,1.84-5,2.16-7.85C609,371.94,607.74,377,607.78,380ZM605,391.3c-.09.82.41-.17.7-.51-.5,2.17-1.84,3.89-1.86,6.4a29.65,29.65,0,0,0,2.25-7.09C605.84,390.19,605.57,390.31,605,391.3Zm-3.16,8.42c-1.42,2.23-2,5.12-3.28,7.45.26.47,1-.8,1.71-2.48.36-.84.72-1.78,1-2.67A19.16,19.16,0,0,0,601.86,399.72Zm-3.52,5.35c-.65,1.16-1,2.55-1.68,3.68-.18,1.36.4.83,1.48-.92a6.8,6.8,0,0,1,.77-2.38C599,404.69,598.13,406.18,598.34,405.07Zm-2,5.41c-1,1.88-2.05,3.79-2.92,5.81-.43,1-.84,2-1.21,3.09s-.76,2.13-1.08,3.25c.42-1,.9-2,1.39-3l1.41-2.95A32.88,32.88,0,0,0,596.33,410.48Zm-.89,5.32c-.9,1.74-1.84,3.79-2.69,5.62a10.88,10.88,0,0,0-1.26,4.64,23.58,23.58,0,0,0,2.43-4.81A44.52,44.52,0,0,0,595.44,415.8Zm-12.27,19a28.9,28.9,0,0,0-5.33,9.3c1.29-1.55,1.25-1,1.9-1.49C579.43,442.21,581.12,438.56,583.17,434.81Zm-30,46.53c.57-1.32-3.6,2.23-4.32,3.76.87,0,3.76-3.62,2.69-1.81C552.79,482.32,551.82,482.38,553.2,481.34ZM253.75,569.67l-2.11-.53a44,44,0,0,0-9.09.92c1.84.63,3.85.46,5.78.74C250.19,569.87,249.5,570,253.75,569.67Zm-23.18.93c1.14-1.45-3.4-.06-6.47-.92C223.25,570.58,228.87,570.19,230.57,570.6ZM120.86,474.13c1.75-2.85,1.43-2.19,3.28-3.88,2.4-7.43-4.09,5.29-1.54-1.39C120.45,471.5,120.79,473.3,120.86,474.13Zm-1.53.58c-1.93,3.47-.59,4-2.48,7.52,1.31-1.43.68.41,1.28.17,1.94-2.87.21-2.32.47-3.47a8.31,8.31,0,0,1,1.77-2.32C121.51,473.47,120.25,474.38,119.33,474.71ZM150,569.54c-2.2.74-5.36.54-5.41,1.13a27.33,27.33,0,0,0,6.69-.1C149.89,570.21,152.5,569.9,150,569.54ZM127.14,464.19c1.54-1.23,1.75-3.64,3-5.09-.76.17-.53-1.33-2,.1C127.84,461.51,127.52,461.83,127.14,464.19Zm14.71,105.43c-3.15-.51-2.42.63-6,.27C134.71,571,142.49,570,141.85,569.62Zm-11.21-113a5.76,5.76,0,0,0,1-3,8.34,8.34,0,0,0-2.25,3.81C130.11,456.61,130.85,455.82,130.64,456.6ZM83.11,427.51c1.67-2.07,2.23-5.15,4-7.1C86.55,419.64,83.57,424.94,83.11,427.51Zm4-8.1c2.29-2.81,3.85-6.28,5.78-9.42A26,26,0,0,0,87.11,419.41Zm5.27-9.88L93.89,408c.34-1,.66-2,1-3C93.93,406.37,92.73,407.57,92.38,409.53Zm133.27,65.72c-.58-.58-.09.77.07,1.51,3.37,4.43,5.89,9,8,11.86,1.63,1.76,3,3,2.37.76C232.74,484.51,228.25,478.11,225.65,475.25Zm12.27,20.42c2.3,4.32,5.31,8.42,7.91,12.67.57.33.55-.4.26-1.61C243.25,503.07,240.75,499.31,237.92,495.67ZM200.47,367.45c2.14,4.49,7.39,12.29,8.49,12.85C206.22,375.91,203.72,371.33,200.47,367.45ZM247.93,510.7l.8,2.79c2.83,2.12,5.89,6.82,9.88,12C255.09,518,250.46,514.42,247.93,510.7Zm-6.34-79.53c.58,2.6,2.68,4.71,4.15,7-1.85-4.91,2,.25.86-3.33a17.57,17.57,0,0,0-2.31-3.06C245.7,436.14,243.94,435.39,241.59,431.17Zm40.16,137.9c.18,1.73,1.45,3.1,2.05,4.68.32-.36,2,1.63,1.31-.44C283.64,572,283,570.45,281.75,569.07Zm2.31-23.62c.26-1.85,1.7,1,3.68,4.13a5,5,0,0,0-.92-2c-.08-.84,1.49,1.27.26-1.61-.83-.75-2.66-1.54-3.49-3.43C283.08,542.56,283.15,543.88,284.06,545.45Zm-2.06-39c.18,1.73,2,2.91,2.38,4.57C285.56,511.79,283.37,507.38,282,506.46Zm6.6,13.11c1.29,3.39,3.59,6.45,5.93,9.5C293.27,525.67,290.47,522.76,288.6,519.57Zm9.95,17.34c.3,1.94,1.61,3.55,2.9,5.16A14.31,14.31,0,0,0,298.55,536.91Zm4.09,1.73c0,1.27,3.94,6.75,2.83,3.64-.64,0-1-.7-1.45-2.57A2.93,2.93,0,0,1,302.64,538.64Zm56.63,113.47c1,1.9,3.29,5,3.89,4.84C362.57,654.9,359.71,652,359.27,652.11Z"/><path class="cls-1" d="M286.35,5.16c-1,.32,1.91.18.63.52,8.48-1.55,16.36-.2,24.65-.92A185.7,185.7,0,0,0,291,4.2c-.79.22.62.46,1.33.69A57.78,57.78,0,0,1,286.35,5.16Z"/><path class="cls-1" d="M261.06,294.88c-.79-2.29-2.76-4.19-4-6.35C258.23,290.71,259.16,293,261.06,294.88Z"/><path class="cls-1" d="M191.81,180.17c1.19,1.53,1.27,1.1,1.91,1.67a12.34,12.34,0,0,0-2.3-3.06c.13-.24.23-.52-.06-1.5C189.84,175.91,191.19,178.36,191.81,180.17Z"/><path class="cls-1" d="M222.36,285.37c1.69,2.57-2.17-4.1-1.18-4.18-1-1-1-.18-1.51-.27C220.77,283.93,221.27,282.36,222.36,285.37Z"/><path class="cls-1" d="M208.32,239.62c1.18,1.41,1.51,1.31,1-.33-.44.14-1.47-1.34-2.31-3.06C205.8,235,208.13,238.79,208.32,239.62Z"/><path class="cls-1" d="M208.71,248.64c-.13.34-1-.63-.46.92,1.29,1.59,2,2.15,2.44,2.25-.43-1.38-1.88-2.44-2.18-3.87C208,247.41,208.42,248.32,208.71,248.64Z"/><path class="cls-1" d="M179.35,147.64c-.56-2.58-1.32-1.47-2.11-2.37-1.41-1.69.38-.39-.79-2.79a33.78,33.78,0,0,1-6.14-10.21c-.67-.5-1-.44-1.71-1a73.48,73.48,0,0,1,7.78,13.48C177.93,146,178.77,147.8,179.35,147.64Z"/><path class="cls-1" d="M208.38,256.37c-4.65-7.76-7.34-13.07-12.58-20.29.22,1.07,1.41,2.82.59,2.1,1.3,2.94,1.19,1.58,3,4.35-1.11-.22,5.31,9.75,3.16,7.35C202.89,251.73,206.88,255.41,208.38,256.37Z"/><path class="cls-1" d="M165.56,111.72c-.46-2.18-4.76-9.63-7.45-13.59C160.6,102.66,163.07,107.17,165.56,111.72Z"/><path class="cls-1" d="M229.84,352.34c.57-.25,1.5,2.06,3.17,3.54-2-4.26-2.49-3.89-3.76-5.64C228.55,349.67,229.71,351.37,229.84,352.34Z"/><path class="cls-1" d="M199,239.62c-1.52-2.3-2.43-4.8-4.49-6.92C195,235.31,197.46,237.31,199,239.62Z"/><path class="cls-1" d="M161.54,122.93c1.29,1.7.38-.49,1.19.38-.55-1.6-1.8-3-2.7-4.46C158.88,117.85,161.9,121.68,161.54,122.93Z"/><path class="cls-1" d="M201.21,283.12c-.5-.55-.16.39-.13.8-1.19-1.14-1.5-2.55-2.83-3.64,1.21,2.65,2.34,5.32,4.68,7.62C201.89,285.29,201,284.56,201.21,283.12Z"/><path class="cls-1" d="M170.15,207.83c-2.32-3.16-1.26-3-3.3-6.54a26.26,26.26,0,0,1-2.77-2.15C166.13,201.84,169.08,207.23,170.15,207.83Z"/><path class="cls-1" d="M136.86,73.25c-.66.13-1.07-1.35-2-1.44-.41.32,1.35,1.37.67,1.61.88.11,2,1.45,2.85.86-.78-.7-1.42-1.41-1.41-1.88C136.1,71.7,137.07,73.1,136.86,73.25Z"/><path class="cls-1" d="M135.78,69.74c.18-.28-.36-.89-.81-1.48s-.82-1.14-.15-1.1c-1.45-1.28-.45.15-1.34-.6A27.13,27.13,0,0,0,135.78,69.74Z"/><path class="cls-1" d="M132.19,64.61a2.74,2.74,0,0,1-.38-.13c-.3,0-.78-.38-1-.21,1.48,1.77,1.89,2.85,1.86,3.84,1.07.42.86-.12.57-.77s-.66-1.41.16-1.26c-.84-.7-1.2-1.14-1.27-1.4a16.71,16.71,0,0,1,2.73.82c1.12-.21.5-.62,1.21-1.09-.78-.18-1.36-.21-2.16-.39-.37.26,1,.57,1,.84-.11.09-.54,0-.54.14-.86-.35-.4-.66-2.15-1C131.55,64,131.54,64.17,132.19,64.61Z"/><path class="cls-1" d="M147.35,225.17c.56.54.1-.36-.2-.69-.32-1-.65-2.08-.06-1.5a12.58,12.58,0,0,0-2.31-3.06C145.5,221.72,146.53,223.41,147.35,225.17Z"/><path class="cls-1" d="M116.61,161.22c1,.93-3.48-8.85-6.19-11.7.39,1,3.28,4.87,1.84,4C113.32,156.19,116,158.37,116.61,161.22Z"/><path class="cls-1" d="M100.59,127.56c-1.21-2.78-.71-4.45-3.69-7.94-.86,1.19,3.8,7.17,2,7C100.83,129.37,98.63,124.77,100.59,127.56Z"/><path class="cls-1" d="M139.15,32.77c-1.62.67,3.21.29,4.22.55,1.57-.23.69-.72,2.46-.48.87-.1.46-.22,0-.34l-1.69-.36c.91.26-3.95,1.22-2.48.49C140,32.41,141,33.07,139.15,32.77Z"/><path class="cls-1" d="M36.07,11c.38.24,0-.68-.77-2.18,3.73.17,9.44.18,12.47.36-.09.5,2.67.94,5.89,1.3s6.93.64,8.9.81c-1.33-1-5.88-1.94-9.37-2.92.5.85-1.57.78-4.86.49S40.49,8,36.26,8c.08.26-.28.42-1.45.45A22.67,22.67,0,0,1,36.07,11Z"/><path class="cls-1" d="M76.5,11.84c2.27.71,14,.48,19.83.81,3.27-.59-8.62-.35-5.45-1.05A78.45,78.45,0,0,1,76.5,11.84Z"/><path class="cls-1" d="M61.54,9.05c-4.63.4,1.19.6,2.87.35,2.48.3,2.87.59,2.08.86,2.22.18,4.12,0,6.38.21-2.57-.3-5.32-1.44,3.3-.48,1.11-.28-2.55-.58-4.48-.87A42.69,42.69,0,0,1,61.54,9.05Z"/><path class="cls-1" d="M126,10.32c-2.09-.18-4.13,0-6.24-.21-4.63.36,1.16.79-3.43,1.16C120.25,11.23,120.18,10.81,126,10.32Z"/><path class="cls-1" d="M172.63,3.22c-.37.62-1.06.19-3.11.64,2.76.43-1.81.78,2,1.22l2.33-.49c-1.32-.46-2.52-1,1.62-.66C177.27,3.47,173.17,3.84,172.63,3.22Z"/><path class="cls-1" d="M224.83,15.69c-1.88-.22-.44.45.7.18.43.35-.34.68-1.68,1,2.37.23,5.73-.94,3.23-1.32A5.42,5.42,0,0,1,224.83,15.69Z"/><path class="cls-1" d="M306.15,37.67c1,.17,1.17-.07.78-.16,2.33-.54,4.26.92,6.69-.1-2.28-.88-4.89-.27-7.32-.42C305.62,37.21,307.17,37.45,306.15,37.67Z"/><path class="cls-1" d="M252,2.91a25.15,25.15,0,0,0-8.81-.43c3.26,1,6.76.73,10.06,1.47,1.81-1.19,6.78-.48,10.58-.91C263.08,3.1,253,2,252,2.91Z"/><path class="cls-1" d="M261.35,4.21c3.92.17,8-.63,11.83.13,1.09-1.9,11.57.55,17.12-.32.1-.28-1.46-.58-.56-.86-3.24.12-6.63,1-9.58-.27-4.82.61-9.39.07-14.08,0-.83.27,1.12.58,2.05.87C265.82,4.06,263.75,3.43,261.35,4.21Z"/><path class="cls-1" d="M254,.22c.72,1.8,17.61,1.84,21.27,1.08C268.44,1.11,258.24,1.8,254,.22Z"/><path class="cls-1" d="M309.11,2.7c2.92.24,5.86.36,8.8.44C318,2.44,311.64,2.54,309.11,2.7Z"/><path class="cls-1" d="M351.11,4.28c2.56.53,6.92,1.09,11.58,1.69l13.59,1.74c-3-1.43-6.81-.85-7.72-2.13-1,1.09-6.57-1-10-.47-3-.76,2.74-1-2.09-1.4C357.67,4.73,355.3,4.68,351.11,4.28Z"/><path class="cls-1" d="M349.92,2.49c-.2.9,7.22.71,9.93,1.22,1.93-.45-3.09-.53-3.87-1.24C352.87,2.92,353.65,3.16,349.92,2.49Z"/><path class="cls-1" d="M377.89,8c5.44,1.4,11,2.52,16.58,3.53C392.73,9,383.28,8.42,377.89,8Z"/><path class="cls-1" d="M461.57,33.27c2.13,1.13,4.47,1.84,8.34,3.56L468,35.37C465.49,35.12,464,33.65,461.57,33.27Z"/><path class="cls-1" d="M505.05,53.35c-1.67-.64-3.32-1.33-5-1.93,3.46,2.45,4.43,1.46,8.15,4.57.89.34.28-.17-.65-.82A26.2,26.2,0,0,1,505.05,53.35Z"/><path class="cls-1" d="M543.15,83.82c-.13,1,1,1.71,2.3,2.7a10.2,10.2,0,0,1,3.63,4.3,3.57,3.57,0,0,1,1.8.85C549,88.64,545.76,86.37,543.15,83.82Z"/><path class="cls-1" d="M592.2,147.82c-.82-2-.64-.26.22.78.3,1.44-1-.31-1.58-.44.62,1.25,1.45,2.46,2.2,3.68a11.33,11.33,0,0,1,1.58,3.85,14.14,14.14,0,0,1,3.47,5.09c.84,2,1.53,4.14,2.56,6.26,1.82,3.41-.12-2,1.7,1.38a70,70,0,0,1-3-6.58,37,37,0,0,0-3.4-6.45c-.41-1.53.25-.8-.24-2.5-.26.11-.83-.66-1.54-1.69A34,34,0,0,1,592.2,147.82Z"/><path class="cls-1" d="M622.88,277.53c-.65,4.12,1,8.74.11,12.79.29.9.56-1.21.84-2.2C622.75,284.41,624,281.21,622.88,277.53Z"/><path class="cls-1" d="M616.66,362.15c-.57-.22-3,9.91-2.6,10.33C615,369.07,615.47,365.43,616.66,362.15Z"/><path class="cls-1" d="M584.69,437.32c-.29,1.37.21,1.42.17,2.36a23,23,0,0,0,3-6c-1.25,1.06-1.58,2.95-2.43,4.37C584.47,439.12,587.77,433.12,584.69,437.32Z"/><path class="cls-1" d="M318.24,573.11c.62-.91-5.31-.29-7.24-.76-.79.1-.46.22-.07.34l1.4.35C314.41,572.56,316.27,573.14,318.24,573.11Z"/><path class="cls-1" d="M109.55,510.84c-.43-.18-1.46.05-1.55-.31-1.22.65-1.71.64-2,.54.21-.27.46-.55.61-.76a7.73,7.73,0,0,1-.77.33,1.17,1.17,0,0,1-.56.29.82.82,0,0,1,0,.54A20.61,20.61,0,0,0,109.55,510.84Z"/><path class="cls-1" d="M102.28,382.62c3.32-6.55-1.35.52,2-6.12-.74,1.06-1.37,2.35-2.15,3.33L101,382.54C104.76,376.82,98.5,388.29,102.28,382.62Z"/><path class="cls-1" d="M132.56,332.62c3.87-4.68-.64-1.5,3.2-7.14,1.15-3.19-3.12,4.1-4,6.81C133.37,330.11,133.78,330,132.56,332.62Z"/><path class="cls-1" d="M0,656.55V597.29H11.38q12.63,0,17.79,1.28a24,24,0,0,1,9,4.27,24.78,24.78,0,0,1,7.74,10A39,39,0,0,1,46,641a24.55,24.55,0,0,1-7.76,10,24.23,24.23,0,0,1-8.84,4.27q-4.95,1.28-15.44,1.27H0Zm7.13-6.64h4.49q10.94,0,15.14-.95a16.41,16.41,0,0,0,7-3.26,19.15,19.15,0,0,0,5.55-7.83,32.78,32.78,0,0,0,0-21.94,19.28,19.28,0,0,0-5.57-7.79,16.68,16.68,0,0,0-7.1-3.34q-4.31-1-15-1H7.13Z"/><path class="cls-1" d="M56.47,638.13a20,20,0,0,1,1.5-7.71A19.41,19.41,0,0,1,62.34,624a19.66,19.66,0,0,1,6.52-4.31,20.35,20.35,0,0,1,7.77-1.48,19.86,19.86,0,0,1,7.67,1.5,20.78,20.78,0,0,1,6.58,4.37,19.09,19.09,0,0,1,4.37,6.41,19.9,19.9,0,0,1,1.5,7.67,19.52,19.52,0,0,1-1.5,7.63,19.18,19.18,0,0,1-4.37,6.38,20.87,20.87,0,0,1-6.62,4.45,19.45,19.45,0,0,1-7.63,1.54,20.16,20.16,0,0,1-14.29-5.87A20.37,20.37,0,0,1,58,645.78,19.47,19.47,0,0,1,56.47,638.13Zm6.72,0a13.76,13.76,0,0,0,3.93,9.94,12.71,12.71,0,0,0,9.51,4.07,12.57,12.57,0,0,0,9.43-4.07,14.63,14.63,0,0,0,0-19.87,12.54,12.54,0,0,0-9.43-4.07,12.67,12.67,0,0,0-9.53,4.07A13.77,13.77,0,0,0,63.19,638.13Z"/><path class="cls-1" d="M103.63,638.13a20.17,20.17,0,0,1,1.49-7.71A20.16,20.16,0,0,1,116,619.66a20.39,20.39,0,0,1,7.77-1.48,19.82,19.82,0,0,1,7.67,1.5,20.67,20.67,0,0,1,6.58,4.37,18.81,18.81,0,0,1,4.37,6.41,19.9,19.9,0,0,1,1.5,7.67,19.52,19.52,0,0,1-1.5,7.63,18.88,18.88,0,0,1-4.37,6.38,20.76,20.76,0,0,1-6.62,4.45,19.41,19.41,0,0,1-7.63,1.54,20.11,20.11,0,0,1-14.28-5.87,20.4,20.4,0,0,1-4.38-6.48A19.65,19.65,0,0,1,103.63,638.13Zm6.72,0a13.75,13.75,0,0,0,3.92,9.94,12.75,12.75,0,0,0,9.51,4.07,12.56,12.56,0,0,0,9.43-4.07,14.63,14.63,0,0,0,0-19.87,12.52,12.52,0,0,0-9.43-4.07,12.69,12.69,0,0,0-9.53,4.07A13.81,13.81,0,0,0,110.35,638.13Z"/><path class="cls-1" d="M188.26,593.81v62.74h-6.15v-6.72a16.1,16.1,0,0,1-5.67,6.15,14.52,14.52,0,0,1-7.77,2.15,16.36,16.36,0,0,1-12.85-5.49q-4.87-5.48-4.88-14.51t4.78-14.53a16.11,16.11,0,0,1,12.71-5.42,14.22,14.22,0,0,1,13.52,8.3V593.81Zm-6.15,44.41a14.28,14.28,0,0,0-3.44-10,11.65,11.65,0,0,0-9.07-3.79q-5.62,0-8.78,3.44t-3.16,9.52q0,6.84,3.2,10.7a10.82,10.82,0,0,0,8.82,3.87q5.83,0,9.13-3.65C181,645.91,182.11,642.53,182.11,638.22Z"/><path class="cls-1" d="M201.5,656.55V593.81H208v62.74Z"/><path class="cls-1" d="M254.32,639H225v.57a13.54,13.54,0,0,0,3.4,9.61,11.5,11.5,0,0,0,8.86,3.67,11.8,11.8,0,0,0,6.72-2,17.43,17.43,0,0,0,5.3-6.05l4.82,3.24a18.54,18.54,0,0,1-17.16,10.12q-8.46,0-13.68-5.59T218,637.89q0-8.7,5.19-14.25a17.41,17.41,0,0,1,13.31-5.54q8.22,0,13,5.26t4.79,14.37Zm-6.8-5.14a10.64,10.64,0,0,0-3.26-7.55,11.55,11.55,0,0,0-8-2.65A10.83,10.83,0,0,0,225,633.84Z"/><path class="cls-1" d="M260,650.32l5.42-3.64a11.25,11.25,0,0,0,3.89,4.43,10.21,10.21,0,0,0,5.54,1.47,7.85,7.85,0,0,0,5-1.53,5,5,0,0,0,1.93-4,4.34,4.34,0,0,0-1.32-3.24,12.25,12.25,0,0,0-4.51-2.39l-1.06-.36q-13.51-4.66-13.51-11.66A10.09,10.09,0,0,1,265,621.3a14,14,0,0,1,9.47-3.12,16.73,16.73,0,0,1,8.26,1.92,11.08,11.08,0,0,1,4.94,5.45l-5.14,3.15a8.59,8.59,0,0,0-3.34-3.92,9.48,9.48,0,0,0-5.12-1.38,6.62,6.62,0,0,0-4.56,1.56,5.1,5.1,0,0,0-1.76,4q0,3.39,7.37,5.7c.91.3,1.64.53,2.18.69q6,1.95,8.4,4.43a9.16,9.16,0,0,1,2.37,6.58,10.76,10.76,0,0,1-3.74,8.52,14.39,14.39,0,0,1-9.78,3.26,18.46,18.46,0,0,1-8.8-1.94A14.47,14.47,0,0,1,260,650.32Z"/><path class="cls-1" d="M390.39,630.72V593.81h7.41a28.92,28.92,0,0,1,5.78.41,8.15,8.15,0,0,1,3.2,1.43,8.8,8.8,0,0,1,2.64,3.36,10.79,10.79,0,0,1,.94,4.5,8.49,8.49,0,0,1-1.35,4.9,7.05,7.05,0,0,1-3.93,2.74,7.53,7.53,0,0,1,5,2.94,10,10,0,0,1,1.83,6.14,11.68,11.68,0,0,1-.78,4.24,10.06,10.06,0,0,1-2.16,3.45,8.29,8.29,0,0,1-3.72,2.17,30.58,30.58,0,0,1-7.45.63Zm4.13-33.11V610h3.28c3,0,5.14-.45,6.38-1.36S406,606.17,406,604c0-2.37-.58-4-1.72-5s-3.31-1.43-6.51-1.43Zm0,15.81v13.47h3.28a29.35,29.35,0,0,0,4.88-.28,5.5,5.5,0,0,0,2.4-1,5.32,5.32,0,0,0,1.72-2.24,7.69,7.69,0,0,0,.64-3.18,7.56,7.56,0,0,0-.76-3.5,5.45,5.45,0,0,0-2.19-2.32,5.67,5.67,0,0,0-2-.76,19.18,19.18,0,0,0-3.48-.23h-4.52Z"/><path class="cls-1" d="M417.09,642l6-13.52-8.74-20.8h4.41l6.47,16.57,6.86-16.57h4.18L421.37,642Z"/><path class="cls-1" d="M441.42,630.76,471,698.37h-8.4l-8.44-20H428.76l-8.44,20h-8.39Zm0,17.1L431.07,671.8h20.7Z"/></g></g></svg>